<svg xmlns="http://www.w3.org/2000/svg" viewBox="0 0 100.33 194.02">
  <defs>
    <style>
      .cls-1 {
        fill: #49acca;
      }
    </style>
  </defs>
  <g id="Layer_2" data-name="Layer 2">
    <g id="Layer_1-2" data-name="Layer 1">
      <g>
        <path class="cls-1" d="M5,0V.75L2.7.79l0-.75C3.44,0,4.21,0,5,0ZM8.8.06l0,.75L6.5.76V0C7.27,0,8,0,8.8.06Zm3.82.21L12.56,1,10.29.88l0-.75C11.09.17,11.86.21,12.62.27Zm3.81.37-.09.75c-.75-.09-1.51-.17-2.26-.24L14.15.4Q15.29.5,16.43.64Zm3.79.52-.12.74-2.25-.32L18,.83C18.71.93,19.46,1,20.22,1.16ZM24,1.83l-.14.74c-.74-.15-1.49-.29-2.24-.42l.13-.74Q22.87,1.61,24,1.83Zm3.74.83-.18.73c-.73-.18-1.47-.35-2.21-.51l.16-.73C26.24,2.31,27,2.48,27.72,2.66Zm3.72,1-.21.72L29,3.76,29.22,3Zm3.67,1.13-.24.72c-.72-.24-1.45-.47-2.18-.69l.22-.73Zm3.61,1.28-.26.7L36.31,6l.25-.71Q37.66,5.65,38.72,6.05Zm3.57,1.42-.3.7c-.7-.3-1.4-.59-2.11-.87l.28-.7ZM45.79,9l-.33.68c-.68-.32-1.37-.64-2.07-1l.31-.69C44.4,8.39,45.09,8.71,45.79,9Zm3.43,1.7-.35.67c-.67-.35-1.35-.69-2-1l.33-.67C47.86,10,48.54,10.39,49.22,10.74Zm3.36,1.85-.38.65c-.65-.38-1.32-.75-2-1.11l.36-.66C51.25,11.83,51.92,12.2,52.58,12.59Zm3.28,2-.4.64L53.52,14l.39-.65C54.56,13.76,55.22,14.15,55.86,14.56Zm3.2,2.11-.42.62L56.74,16l.42-.63C57.8,15.81,58.43,16.23,59.06,16.67Zm3.11,2.23-.45.6c-.61-.45-1.22-.9-1.84-1.34l.44-.61C60.94,18,61.56,18.44,62.17,18.9Zm3,2.35-.47.59c-.59-.48-1.19-.95-1.79-1.41l.47-.6C64,20.3,64.6,20.77,65.19,21.25Zm2.92,2.47-.49.57c-.57-.5-1.15-1-1.73-1.48l.49-.58Zm2.82,2.59-.52.55c-.55-.53-1.1-1-1.66-1.55l.51-.56C69.82,25.26,70.38,25.78,70.93,26.31ZM73.65,29l-.55.52c-.52-.54-1.06-1.08-1.6-1.61l.53-.54C72.58,27.92,73.12,28.46,73.65,29Zm2.6,2.8-.56.5-1.54-1.68.55-.51C75.22,30.68,75.74,31.24,76.25,31.81Zm2.48,2.9-.58.48c-.48-.58-1-1.16-1.46-1.73l.57-.5C77.76,33.54,78.25,34.12,78.73,34.71Zm2.37,3-.6.46c-.46-.61-.92-1.2-1.39-1.8l.59-.46C80.17,36.5,80.64,37.1,81.1,37.71Zm2.25,3.09-.62.43c-.43-.62-.87-1.23-1.32-1.84l.61-.45ZM85.47,44l-.64.41c-.41-.64-.82-1.27-1.24-1.9l.62-.42C84.64,42.7,85.06,43.34,85.47,44Zm2,3.26-.65.38c-.38-.65-.77-1.3-1.16-1.95l.64-.39C86.68,45.93,87.07,46.58,87.45,47.24Zm1.86,3.34-.67.35c-.35-.67-.71-1.33-1.08-2l.65-.37C88.59,49.23,89,49.9,89.31,50.58ZM91,54l-.68.33c-.32-.68-.66-1.36-1-2l.67-.35C90.36,52.61,90.69,53.29,91,54Zm1.59,3.48-.7.3c-.3-.7-.61-1.39-.92-2.08l.68-.31C92,56.06,92.3,56.76,92.61,57.46ZM94.05,61l-.71.27c-.27-.71-.55-1.42-.84-2.12l.7-.28C93.49,59.58,93.77,60.29,94.05,61Zm1.29,3.6-.71.24c-.25-.72-.5-1.44-.76-2.15l.71-.26C94.84,63.16,95.1,63.88,95.34,64.61Zm1.15,3.65-.72.21c-.22-.73-.44-1.46-.67-2.18l.72-.22C96.05,66.79,96.27,67.52,96.49,68.26Zm1,3.69-.73.18c-.19-.73-.38-1.47-.58-2.2l.73-.2C97.11,70.47,97.3,71.21,97.49,72Zm.85,3.73-.74.15c-.15-.74-.32-1.48-.49-2.22l.74-.17C98,74.19,98.18,74.93,98.34,75.68Zm.7,3.77-.75.12c-.12-.75-.25-1.5-.39-2.24l.74-.14C98.78,77.94,98.91,78.69,99,79.45Zm.54,3.78-.74.1c-.1-.76-.2-1.51-.31-2.26l.74-.11C99.39,81.72,99.49,82.47,99.58,83.23ZM100,87l-.75.06c-.07-.76-.14-1.51-.22-2.26l.75-.08C99.84,85.52,99.91,86.28,100,87Z"/>
        <path class="cls-1" d="M100.28,92.33c0,.75,0,1.51,0,2.26h-.76c0-.74,0-1.49,0-2.24Zm0,3.76q0,1.13,0,2.25l-.76,0c0-.74,0-1.49,0-2.24Zm-.08,3.75q0,1.13-.12,2.25l-.75,0c.05-.75.08-1.49.11-2.24Zm-.22,3.75c-.06.75-.12,1.5-.2,2.25l-.75-.08c.08-.74.14-1.48.2-2.23Zm-.36,3.74c-.08.75-.17,1.49-.27,2.24l-.75-.1c.1-.74.19-1.48.28-2.22Zm-.49,3.72c-.11.75-.23,1.49-.36,2.23l-.74-.13c.13-.73.25-1.47.36-2.21Zm-.62,3.71c-.14.74-.29,1.48-.45,2.21l-.74-.16c.16-.73.31-1.46.44-2.19Zm-.77,3.68c-.17.73-.35,1.46-.53,2.19l-.73-.19c.18-.72.36-1.44.52-2.17Zm-.91,3.64c-.19.73-.4,1.45-.61,2.17l-.72-.21c.21-.71.41-1.43.6-2.15Zm-1,3.61c-.23.72-.46,1.44-.7,2.15l-.71-.24c.24-.71.46-1.42.69-2.13Zm-1.19,3.57c-.25.71-.51,1.41-.77,2.12l-.71-.27c.27-.7.52-1.4.77-2.1Zm-1.32,3.51c-.27.7-.56,1.4-.86,2.09l-.69-.29c.29-.69.58-1.38.85-2.07Zm-1.46,3.47c-.3.69-.62,1.38-.94,2.06l-.68-.32c.32-.68.63-1.36.94-2Zm-1.59,3.42c-.34.68-.68,1.35-1,2l-.67-.35c.35-.67.69-1.33,1-2ZM88.54,143c-.36.67-.73,1.33-1.1,2l-.66-.38c.38-.64.74-1.3,1.1-2Zm-1.86,3.28c-.39.65-.78,1.29-1.19,1.93l-.63-.41c.39-.63.79-1.27,1.17-1.91Zm-2,3.19c-.41.63-.83,1.26-1.26,1.88l-.62-.43c.42-.61.84-1.23,1.25-1.86Zm-2.12,3.11c-.44.62-.89,1.22-1.34,1.82l-.6-.45c.45-.6.89-1.2,1.32-1.81Zm-2.25,3c-.46.59-.93,1.18-1.41,1.76l-.59-.47c.48-.58.94-1.17,1.4-1.76Zm-2.37,2.92c-.49.57-1,1.14-1.49,1.7l-.56-.5c.5-.56,1-1.12,1.47-1.69Zm-2.49,2.81c-.51.56-1,1.1-1.56,1.64l-.54-.52c.52-.54,1-1.08,1.54-1.63ZM72.84,164c-.53.53-1.07,1.06-1.62,1.58l-.52-.55c.55-.52,1.08-1,1.61-1.56Zm-2.71,2.6-1.69,1.5-.49-.57,1.67-1.49Zm-2.83,2.47c-.57.49-1.15,1-1.74,1.43l-.47-.59c.58-.46,1.16-.94,1.73-1.42Zm-2.92,2.35-1.8,1.35-.45-.61c.6-.43,1.2-.88,1.79-1.34Zm-3,2.23c-.61.43-1.23.85-1.86,1.27l-.41-.63c.61-.41,1.23-.83,1.84-1.26Zm-3.11,2.08c-.63.41-1.27.8-1.91,1.19l-.39-.64c.64-.39,1.27-.78,1.89-1.18Zm-3.2,2c-.65.38-1.31.75-2,1.11l-.36-.66c.66-.36,1.31-.73,2-1.1Zm-3.29,1.82q-1,.52-2,1l-.33-.67c.67-.33,1.33-.67,2-1Zm-3.36,1.68c-.68.31-1.37.63-2.06.93l-.3-.69q1-.45,2-.93ZM45,182.75c-.69.3-1.39.58-2.09.85l-.27-.7c.69-.27,1.39-.55,2.07-.84Zm-3.49,1.38c-.7.27-1.41.52-2.13.76l-.24-.71c.71-.24,1.41-.49,2.11-.75Zm-3.55,1.24c-.72.23-1.43.45-2.16.66l-.21-.72c.72-.21,1.43-.43,2.14-.66Zm-3.6,1.07c-.72.2-1.45.4-2.18.58l-.19-.73c.73-.18,1.45-.37,2.17-.57Zm-3.64.93c-.73.17-1.47.33-2.21.48l-.15-.73,2.19-.48Zm-3.68.78-2.22.39-.12-.74,2.2-.39Zm-3.7.62c-.75.11-1.49.21-2.24.3l-.09-.74,2.22-.3Zm-3.73.48c-.75.08-1.49.15-2.25.21l-.06-.75c.75-.06,1.49-.14,2.23-.21Z"/>
        <path class="cls-1" d="M1.14.09l0,.76L0,.9,0,.15Zm99,89.61c0,.38,0,.76.06,1.13l-.75,0-.06-1.12c0-.38,0-.76-.07-1.14l.75,0C100.12,88.94,100.14,89.32,100.16,89.7ZM15.85,189.57l-1.13.07,0-.75,1.12-.07Z"/>
        <path class="cls-1" d="M10.81,188.34l18.06-7.74s-3.7,6.94.75,13.42Z"/>
      </g>
    </g>
  </g>
</svg>
