<svg viewBox="0 0 25 21" fill="black" xmlns="http://www.w3.org/2000/svg">
<path d="M6.3 15C6.4 15.1 6.5 15.1 6.7 15.1C6.9 15.1 7.2 15 7.3 14.8L10.4 9.8L12.6 13C12.7 13.2 12.9 13.3 13.1 13.3C13.3 13.3 13.5 13.2 13.7 13.1L16.9 10L19.2 12.2C19.4 12.4 19.6 12.4 19.8 12.4C20 12.3 20.2 12.2 20.3 12L24.1 2.6C24.2 2.2 24.1 1.79999 23.7 1.69999C23.3 1.59999 22.9 1.7 22.8 2.1L19.4 10.6L17.3 8.6C17 8.3 16.6 8.3 16.3 8.6L13.2 11.6L10.8 8.19999C10.7 7.99999 10.4 7.89999 10.2 7.89999C10 7.89999 9.70001 7.99999 9.60001 8.19999L5.89999 14.1C5.89999 14.4 6 14.8 6.3 15Z"/>
<path d="M24.8 17.6H3.89999V0.699997H2.5V3.39999H0.399994V4.8H2.5V9.10001H0.399994V10.5H2.5V14.8H0.399994V16.2H2.5V19H5.39999V21H6.8V19H10.4V21H11.9V19H15.5V21H16.9V19H20.6V21H22V19H24.8V17.6Z"/>
</svg>
