<svg viewBox="0 0 9 19" fill="black" xmlns="http://www.w3.org/2000/svg">
<path d="M5.79999 14.4L4.9 13C4.9 13 6.39999 12 6.59999 10.8C6.69999 10.2 6.6 9.70001 6.2 9.10001C5.5 8.10001 4.7 7.4 3.9 6.8C2.6 5.7 1.19999 4.49999 1.59999 2.4C1.69999 1.6 2.09999 1.00001 2.79999 0.600007C4.49999 -0.499993 7.4 0.299995 7.7 0.399995L7.2 1.89999C6.6 1.69999 4.49999 1.29999 3.59999 1.89999C3.29999 2.09999 3.2 2.30001 3.2 2.60001C3 3.80001 3.6 4.4 5 5.5C5.8 6.2 6.79999 7.00001 7.59999 8.10001C8.29999 9.00001 8.49999 10 8.29999 11C7.89999 13.1 5.89999 14.4 5.79999 14.4Z"/>
<path d="M3.8 19C2.5 19 1.4 18.7 1.2 18.6L1.7 17.1C2.3 17.3 4.4 17.7 5.3 17.1C5.6 16.9 5.7 16.7 5.7 16.4C5.9 15.2 5.3 14.6 3.9 13.5C3.1 12.8 2.1 12 1.3 10.9C0.599996 9.99999 0.399996 9 0.599996 8C0.999996 6 2.9 4.8 3 4.7L3.9 6.10001C3.9 6.10001 2.4 7.1 2.2 8.3C2.1 8.9 2.2 9.4 2.6 10C3.3 11 4.1 11.7 4.9 12.3C6.2 13.4 7.6 14.6 7.2 16.7C7.1 17.5 6.7 18.1 6 18.5C5.4 18.9 4.6 19 3.8 19Z"/>
</svg>
