<svg viewBox="0 0 89 66" fill="black" xmlns="http://www.w3.org/2000/svg">
<path d="M22.5 57.01C22.5 57.59 22.56 58.16 22.65 58.72H22.41C19.24 58.72 16.66 56.14 16.66 52.97V39.25C17.07 39.45 17.49 39.65 17.92 39.83C18.14 39.93 18.37 39.97 18.6 39.97C18.62 39.97 18.64 39.96 18.67 39.96C18.69 39.96 18.71 39.97 18.73 39.97C18.96 39.97 19.19 39.93 19.42 39.83C19.67 39.72 19.92 39.61 20.16 39.49V52.97C20.16 54.21 21.17 55.22 22.41 55.22H22.66C22.56 55.8 22.5 56.4 22.5 57.01Z" />
<path d="M88.42 44.38V52.97C88.42 56.03 86.02 58.53 83.01 58.7C83.1 58.15 83.16 57.59 83.16 57.01C83.16 56.39 83.09 55.78 83 55.19C84.08 55.03 84.92 54.1 84.92 52.97V44.38C84.92 44.36 84.93 44.34 84.93 44.32C84.28 43.09 83.64 41.94 83.01 40.84C82.99 40.84 82.97 40.85 82.95 40.85H66.42C61.43 40.85 59.62 36.63 59.62 33.8V27.15C59.62 26.18 60.41 25.4 61.37 25.4C62.34 25.4 63.12 26.18 63.12 27.15V33.8C63.14 34.62 63.41 37.35 66.42 37.35H80.85C70.05 20.81 61.04 21.64 60.74 21.61C60.48 21.59 60.42 21.62 60.15 21.61H33.99C34.3 20.41 34.54 19.23 34.73 18.11H60.17C60.29 18.11 60.47 18.1 60.59 18.12C62.68 18.01 75.3 18.23 88.19 43C88.36 43.32 88.41 43.67 88.38 44C88.4 44.13 88.42 44.25 88.42 44.38Z" />
<path d="M71.9 48.85C68.02 48.85 64.76 51.58 63.94 55.22H41.71C40.89 51.58 37.64 48.85 33.76 48.85C29.26 48.85 25.6 52.51 25.6 57.01C25.6 61.5 29.26 65.16 33.76 65.16C37.67 65.16 40.94 62.4 41.73 58.72H63.93C64.72 62.4 67.99 65.16 71.9 65.16C76.4 65.16 80.06 61.5 80.06 57.01C80.06 52.51 76.4 48.85 71.9 48.85ZM33.76 61.66C31.19 61.66 29.1 59.57 29.1 57.01C29.1 54.44 31.19 52.35 33.76 52.35C36.33 52.35 38.41 54.44 38.41 57.01C38.41 59.57 36.33 61.66 33.76 61.66ZM71.9 61.66C69.33 61.66 67.24 59.57 67.24 57.01C67.24 54.44 69.33 52.35 71.9 52.35C74.47 52.35 76.56 54.44 76.56 57.01C76.56 59.57 74.47 61.66 71.9 61.66Z" />
<path d="M34.27 6.54998C34.23 6.07998 34 5.63998 33.64 5.32998C33.27 5.02998 32.79 4.88998 32.32 4.94998C22.59 6.09998 19.37 1.29998 19.22 1.05998C18.86 0.469981 18.19 0.169982 17.54 0.239982C17.53 0.239982 17.52 0.239982 17.51 0.239982C17.49 0.239982 17.47 0.249982 17.45 0.249982C16.92 0.299982 16.41 0.569981 16.11 1.05998C15.98 1.26998 12.78 6.11998 2.99003 4.94998C2.51003 4.88998 2.04003 5.02998 1.67003 5.32998C1.30003 5.62998 1.07003 6.06998 1.04003 6.53998C0.960027 7.50998 -0.639973 30.36 16.91 37.8C17.13 37.89 17.36 37.94 17.59 37.94C17.61 37.94 17.64 37.93 17.66 37.93C17.68 37.93 17.7 37.94 17.73 37.94C17.96 37.94 18.19 37.9 18.41 37.8C35.94 30.37 34.35 7.51998 34.27 6.54998ZM17.66 34.31C5.64003 28.72 4.50003 13.74 4.48003 8.58998C11.69 8.97998 15.73 6.37998 17.66 4.55998C19.59 6.37998 23.62 8.97998 30.82 8.58998C30.8 13.74 29.67 28.72 17.66 34.31Z" />
<path d="M17.03 20.31L12.8 16.87L10.59 19.59L17.6 25.29L25.91 14.56L23.14 12.41L17.03 20.31Z" />
</svg>
