<svg viewBox="0 0 29 25" fill="black" xmlns="http://www.w3.org/2000/svg">
<path d="M9.5 9.10001C9.99706 9.10001 10.4 8.69705 10.4 8.2C10.4 7.70294 9.99706 7.3 9.5 7.3C9.00294 7.3 8.60001 7.70294 8.60001 8.2C8.60001 8.69705 9.00294 9.10001 9.5 9.10001Z"/>
<path d="M17.4 6.8H14.4C14 6.8 13.7 6.50001 13.7 6.10001C13.7 5.70001 14 5.39999 14.4 5.39999H17.4C17.8 5.39999 18.1 5.70001 18.1 6.10001C18.1 6.50001 17.8 6.8 17.4 6.8Z"/>
<path d="M28.9 7.5C28.7 7.2 28.3 7 28 7.2L25.8 8.3C24.1 4.9 20.3 2.60001 16 2.60001H14.4C13.9 2.60001 13.5 2.6 13.1 2.7C12.7 2.2 11.2 0.300003 9.20002 0.300003C9.00002 0.300003 8.80002 0.4 8.70002 0.5C8.60002 0.6 8.50001 0.8 8.50001 1V4.2C6.90001 5.2 5.60002 6.50001 4.70002 8.10001C4.50002 8.20001 3.90002 8.2 2.20002 7.7C1.80002 7.6 1.30001 7.7 1.10001 8C0.400014 9 1.20001 12.6 2.10001 15.4C2.30001 16.1 3 16.7 3.8 16.7H4.70002C5.70002 18.6 7.3 20.1 9.3 21.1V23.5C9.3 24.3 10 25 10.8 25H12.6C13.4 25 14.1 24.3 14.1 23.5V22.2C14.2 22.2 14.3 22.2 14.4 22.2H16C16.1 22.2 16.2 22.2 16.3 22.2V23.5C16.3 24.3 17 25 17.8 25H19.6C20.4 25 21.1 24.3 21.1 23.5V21.1C24.5 19.4 26.8 16.2 26.8 12.5C26.8 11.5 26.6 10.6 26.3 9.7L28.6 8.5C28.9 8.3 29 7.9 28.9 7.5ZM21 19.5C20.6 19.8 20.1 20 19.6 20.2V23.6C19.6 23.7 19.6 23.7 19.5 23.7H17.7C17.6 23.7 17.6 23.7 17.6 23.6V20.8C17.1 20.9 16.7 20.9 16.2 20.9C16.1 20.9 16 20.9 15.9 20.9H14.3C14.2 20.9 14.1 20.9 14 20.9C13.5 20.9 13 20.8 12.6 20.8V23.6C12.6 23.7 12.6 23.7 12.5 23.7H10.7C10.6 23.7 10.6 23.7 10.6 23.6V20.2C10.1 20 9.60002 19.8 9.20002 19.5C8.00002 18.8 7.00002 17.8 6.20002 16.7L5.8 16C5.7 15.9 5.70001 15.8 5.60001 15.7C5.30001 15.4 5.10001 15.3 5.00001 15.3H3.70002C3.60002 15.3 3.4 15.2 3.3 15C2.7 12.8 2.10001 10.2 2.10001 9.10001C2.80001 9.30001 3.4 9.4 3.9 9.5C4 9.5 4.10002 9.5 4.20002 9.5C4.60002 9.5 4.80001 9.49999 5.00001 9.39999C5.30001 9.29999 5.50002 9.09999 5.70002 8.89999C5.80002 8.59999 6.00001 8.4 6.10001 8.2C7.00001 6.9 8.20002 5.90001 9.70002 5.10001V1.89999C10.6 2.19999 11.4 3.1 11.7 3.5L11.8 3.60001C12 3.90001 12.2 4.1 12.2 4.2C12.8 4.1 13.5 4 14.2 4H15.8C21 4 25.2 7.79999 25.2 12.4C25.3 15.4 23.6 18 21 19.5Z"/>
</svg>
