<svg viewBox="0 0 22 23" fill="black" xmlns="http://www.w3.org/2000/svg">
<path d="M18.7 0.5H11C9.3 0.5 7.79999 1.9 7.79999 3.7V7.6C7.79999 9.3 9.2 10.8 11 10.8H11.5L9.5 12.6C9.2 12.8 9.2 13.2 9.5 13.5C9.6 13.6 9.8 13.7 10 13.7C10.2 13.7 10.3 13.6 10.4 13.5L14.7 9.5H11C10 9.5 9.10001 8.6 9.10001 7.6V3.7C9.10001 2.7 10 1.8 11 1.8H18.7C19.7 1.8 20.6 2.7 20.6 3.7V7.6C20.6 8.6 19.7 9.5 18.7 9.5H16.6L15.2 10.8H18.6C20.3 10.8 21.8 9.4 21.8 7.6V3.7C21.9 1.9 20.5 0.5 18.7 0.5Z"/>
<path d="M11.3 22.7C11 22.7 10.8 22.6 10.7 22.6C8.30002 21.8 6.00002 19.7 3.70003 16.3C3.60003 16.2 3.60002 16.1 3.60002 16.1C3.60002 16.1 3.60001 16 3.50001 16C1.20001 12.7 1.89668e-05 9.6 0.100019 7.1C0.100019 6.8 0.200001 6 1.3 5.3C1.8 5 3.20001 4.1 3.90001 4.1H4.00001C4.40001 4.1 4.90002 4.4 5.20003 5L6.50001 8.1C6.70001 8.5 6.9 9.2 6.3 10L5.3 11.2C5.6 11.8 6.30001 13 6.90001 13.8C7.40001 14.6 8.30002 15.7 8.70002 16.2L10.2 15.7C10.4 15.6 10.6 15.6 10.8 15.6C11.5 15.6 11.9 16 12 16.2L14.4 18.6C14.9 19.2 14.9 19.8 14.8 20.1C14.6 20.7 13.6 21.5 12.8 22.2C12.2 22.6 11.6 22.7 11.3 22.7ZM11.2 21.4C11.4 21.4 11.6 21.4 12 21.1C12.7 20.6 13.5 19.9 13.6 19.7C13.6 19.7 13.6 19.6 13.5 19.5L11.1 17.1C11.1 17.1 11.1 17.1 11 17C11 17 10.8 16.8 10.5 16.9L8.60002 17.5C8.40002 17.6 8.10001 17.5 7.90001 17.3C7.80001 17.2 6.40002 15.6 5.70003 14.4C4.80002 13.2 3.8 11.4 3.8 11.3C3.7 11.1 3.70001 10.8 3.90001 10.6L5.10002 9.1C5.30002 8.8 5.20003 8.6 5.20003 8.6V8.5L3.90001 5.4C3.90001 5.3 3.8 5.3 3.8 5.3C3.6 5.3 2.70001 5.8 1.90001 6.3C1.40001 6.6 1.3 6.9 1.3 6.9C1.3 6.9 1.3 6.9 1.3 7C1.2 9.2 2.30001 12.1 4.50001 15.2C4.50001 15.3 4.60002 15.3 4.60002 15.3C4.60002 15.3 4.7 15.4 4.8 15.5C7.4 19.5 9.70002 20.9 11.2 21.4Z"/>
<path d="M12.5 7.7C12.9 7.7 13.3 7.3 13.3 6.9C13.3 6.5 12.9 6.1 12.5 6.1C12.1 6.1 11.7 6.5 11.7 6.9C11.7 7.3 12.1 7.7 12.5 7.7Z"/>
<path d="M14.9 7.7C15.3 7.7 15.7 7.3 15.7 6.9C15.7 6.5 15.3 6.1 14.9 6.1C14.5 6.1 14.1 6.5 14.1 6.9C14.1 7.3 14.4 7.7 14.9 7.7Z"/>
<path d="M17.2 7.7C17.6418 7.7 18 7.34183 18 6.9C18 6.45817 17.6418 6.1 17.2 6.1C16.7582 6.1 16.4 6.45817 16.4 6.9C16.4 7.34183 16.7582 7.7 17.2 7.7Z"/>
</svg>
