<svg viewBox="0 0 116 111" fill="black" xmlns="http://www.w3.org/2000/svg">
<path d="M7.39999 58.5L5.69999 58.4C6.09999 75.3 14.6 90.2 27.4 99.5H30.4C16.9 90.7 7.79999 75.6 7.39999 58.5ZM108.6 58.5C108.2 75.7 99.1 90.7 85.6 99.6H88.6C101.4 90.3 109.9 75.4 110.3 58.5H108.6Z"/>
<path d="M3.39999 58.3L1.69999 58.2C1.99999 74.7 9.39999 89.4 20.9 99.5H23.5C11.5 89.7 3.69999 74.9 3.39999 58.3ZM112.7 58.3C112.3 74.9 104.6 89.7 92.5 99.5H95.1C106.7 89.4 114.1 74.7 114.4 58.2L112.7 58.3Z"/>
<path d="M93.5 39.1H22.4V50.5H93.5V39.1Z"/>
<path d="M93.5 54.3H22.4V56.2H93.5V54.3Z"/>
<path d="M93.5 58.1H22.4V61.9H93.5V58.1Z"/>
<path d="M37.5 67.5V77H39.3V70.2L46.8 77H48.3V67.5H46.5V74.4L39 67.5H37.5Z"/>
<path d="M93.6 77V75.3H86.7V67.5H84.9V77H93.6Z"/>
<path d="M56.1 77H57.5L62.7 67.5H60.7L56.9 74.7L53 67.5H51L56.1 77Z"/>
<path d="M74.8 67.5C73.1 67.5 71.8 67.7 70.9 68.5C70.2 69.1 69.9 70 69.9 71.2V73.2C69.9 74.4 70.3 75.3 70.9 75.9C71.7 76.7 73.1 76.9 74.8 76.9H80.9V71.4H75.2V73.1H79.1V75.2H74.3C73.4 75.2 72.7 75 72.2 74.6C71.8 74.2 71.7 73.7 71.7 73V71.3C71.7 70.6 71.8 70.1 72.2 69.7C72.7 69.3 73.4 69.1 74.3 69.1H80.9V67.4H74.8V67.5Z"/>
<path fill-rule="evenodd" clip-rule="evenodd" d="M24.3 69.2H29.2C30.1 69.2 30.8 69.4 31.3 69.8C31.7 70.2 31.8 70.7 31.8 71.4V73.1C31.8 73.8 31.7 74.4 31.3 74.7C30.8 75.1 30.1 75.3 29.2 75.3H24.3V69.2ZM33.5 71.3C33.5 70.1 33.1 69.2 32.5 68.6C31.7 67.8 30.3 67.6 28.6 67.6H22.4V77H28.6C30.3 77 31.6 76.8 32.5 76C33.2 75.4 33.5 74.5 33.5 73.3V71.3Z"/>
<path d="M66.3 71.2H64.2V73.3H66.3V71.2Z"/>
<path d="M9.19999 49.3L8.19999 50.3C8.39999 50.8 8.49999 51.4 8.49999 52C8.29999 54.3 6.39999 55.2 4.39999 55C2.49999 54.8 0.799994 53.5 0.999994 51.2C1.19999 48.9 3.09999 48 5.09999 48.2C6.19999 48.3 7.19999 48.8 7.79999 49.6L8.59999 48.7L9.19999 49.3ZM6.29999 51.1L7.19999 50.2C6.69999 49.6 5.89999 49.2 4.99999 49.1C3.59999 49 1.99999 49.5 1.79999 51.3C1.59999 53 2.99999 53.9 4.49999 54.1C5.89999 54.2 7.49999 53.7 7.69999 51.9C7.69999 51.5 7.69999 51.2 7.59999 50.9L6.89999 51.6L6.29999 51.1Z"/>
<path d="M7.69999 41.5C9.39999 41.9 10.1 43.2 9.69999 44.9C9.29999 46.7 8.19999 47.5 6.29999 47.1L1.89999 46L2.09999 45.1L6.49999 46.2C7.69999 46.5 8.59999 46 8.89999 44.8C9.19999 43.6 8.69999 42.8 7.49999 42.5L3.09999 41.4L3.29999 40.5L7.69999 41.5Z"/>
<path d="M4.69999 36.5L5.09999 35.5L12.8 35.6L12.4 36.6L10.1 36.5L8.99999 39.3L10.7 40.8L10.3 41.7L4.69999 36.5ZM8.39999 38.7L9.29999 36.5L5.79999 36.4L8.39999 38.7Z"/>
<path d="M6.79999 31.7L7.29999 30.9L12.9 33.9L14.7 30.6L15.4 31L13.1 35.2L6.79999 31.7Z"/>
<path d="M9.79999 26.5L10.3 25.7L16.3 29.6L15.8 30.4L9.79999 26.5Z"/>
<path d="M13.1 23.2L11.6 25L11 24.5L14.5 20L15.1 20.5L13.6 22.4L18.6 26.3L18.1 27L13.1 23.2Z"/>
<path d="M20.5 19.8L22.6 21.8L21.9 22.5L19.8 20.5L14.9 19.5L15.7 18.7L19.6 19.5L18.6 15.6L19.4 14.8L20.5 19.8Z"/>
<path d="M27.5 11.3C26.8 10.5 26 10.6 25.2 11.1C24.5 11.6 24.1 12.3 24.6 13C25.1 13.7 26.1 13.2 27.2 12.7C28.3 12.3 29.4 11.9 30.3 13.1C31.2 14.3 30.3 15.7 29.3 16.5C28 17.4 26.4 17.6 25.4 16.2L26.1 15.7C26.8 16.7 27.9 16.5 28.8 15.9C29.5 15.4 30.1 14.6 29.5 13.8C28.9 13 27.9 13.5 26.8 14C25.7 14.5 24.6 14.9 23.8 13.8C23 12.6 23.6 11.3 24.7 10.6C25.9 9.8 27.2 9.7 28.2 10.9L27.5 11.3Z"/>
<path d="M33.5 10.3L34.9 12.9L34 13.3L32.6 10.7L28.2 8.3L29.2 7.8L32.7 9.8L32.9 5.8L33.9 5.3L33.5 10.3Z"/>
<path d="M39.9 5.1C39.4 4.2 38.6 4 37.7 4.4C37 4.7 36.3 5.2 36.6 6.1C36.9 6.9 38 6.6 39.2 6.5C40.4 6.3 41.6 6.3 42.1 7.6C42.6 9 41.5 10.1 40.3 10.6C38.8 11.2 37.3 10.9 36.6 9.3L37.4 9C37.8 10.1 39 10.2 40 9.9C40.8 9.6 41.6 9 41.2 8C40.8 7.1 39.7 7.3 38.6 7.5C37.4 7.7 36.3 7.8 35.8 6.6C35.3 5.2 36.3 4.2 37.5 3.7C38.9 3.2 40.1 3.4 40.8 4.9L39.9 5.1Z"/>
<path d="M43.7 2.6L41.4 3.2L41.2 2.4L46.8 1L47 1.8L44.7 2.4L46.2 8.5L45.3 8.7L43.7 2.6Z"/>
<path d="M48.2 0.8L53.1 0.2L53.2 1L49.3 1.5L49.6 3.8L53.3 3.3V4L49.6 4.5L50 7L54 6.5V7.2L49.1 7.9L48.2 0.8Z"/>
<path d="M55 0H56.3L58.6 6L60.8 0H62.1V7.1H61.2V1.2L59 7.1H58.2L56 1.2V7.1H55.1L55 0Z"/>
<path d="M72.1 3.9C72.1 2.9 71.4 2.2 70.5 2C68.8 1.6 67.8 2.8 67.5 4.3C67.1 5.9 67.6 7.4 69.2 7.7C70.4 8 71.3 7.3 71.7 6.1L72.6 6.3C72 8 70.7 8.8 69 8.4C66.8 7.9 66.1 6.1 66.6 4.1C67 2.1 68.6 0.7 70.7 1.2C72.2 1.5 73.2 2.6 73.1 4.1L72.1 3.9Z"/>
<path d="M75.4 2.6L80 4.3L79.7 5.1L76 3.7L75.2 5.8L78.7 7.1L78.4 7.9L75 6.6L74.2 8.9L78 10.3L77.6 11L72.9 9.3L75.4 2.6Z"/>
<path d="M81.7 5.1L84.7 6.6C85.9 7.2 86.3 8.2 85.8 9.3C85.4 10.1 84.7 10.5 83.9 10.3C84.6 10.8 84.4 11.4 84.2 12.1C83.9 12.7 83.5 13.4 83.7 14L82.8 13.5C82.7 13.1 83.2 12.5 83.4 11.8C83.6 11.1 83.7 10.5 82.9 10.1L80.8 9L79.4 11.7L78.6 11.3L81.7 5.1ZM82.8 9.3C83.6 9.7 84.4 9.8 84.8 8.9C85.1 8.3 85 7.6 84.2 7.2L82.1 6.1L81 8.3L82.8 9.3Z"/>
<path d="M89.1 10.1L87.1 8.8L87.5 8.1L92.2 11.3L91.8 12L89.8 10.7L86.3 16L85.5 15.5L89.1 10.1Z"/>
<path d="M93.3 12.2L94 12.8L89.5 18.4L88.8 17.8L93.3 12.2Z"/>
<path d="M95.6 14L99 17.2L98.5 17.8L95.8 15.2L94.2 16.9L96.6 19.1L96 19.8L93.6 17.6L91.4 20L90.7 19.3L95.6 14Z"/>
<path d="M100 18.4L100.6 19.1L95.3 23.9L94.7 23.2L100 18.4Z"/>
<path d="M103.4 26C104.1 25.2 104 24.3 103.4 23.5C102.4 22.1 100.8 22.4 99.6 23.3C98.3 24.3 97.6 25.7 98.7 27C99.4 28 100.6 28.1 101.6 27.4L102.2 28.2C100.7 29.1 99.1 28.9 98.1 27.4C96.8 25.6 97.4 23.8 99.1 22.5C100.8 21.3 102.8 21.2 104.1 23C105 24.2 105.1 25.7 104 26.7L103.4 26Z"/>
<path d="M107.7 28.8L108.2 29.7L103.3 35.6L102.8 34.7L104.3 33L102.8 30.4L100.5 30.8L100 29.9L107.7 28.8ZM103.7 30.3L104.9 32.4L107.2 29.7L103.7 30.3Z"/>
<path d="M109.5 34.3L108.6 32.1L109.3 31.8L111.6 37L110.9 37.3L110 35.1L104.2 37.6L103.8 36.7L109.5 34.3Z"/>
<path d="M112 38.3L112.3 39.2L105.5 41.5L105.2 40.6L112 38.3Z"/>
<path d="M113.8 44.1C114.3 46.3 112.8 47.8 110.9 48.3C109 48.7 107 48 106.5 45.8C106 43.6 107.5 42.1 109.4 41.6C111.3 41.2 113.3 41.9 113.8 44.1ZM107.3 45.7C107.7 47.4 109.3 47.8 110.7 47.4C112.1 47.1 113.4 46 113 44.3C112.6 42.6 111 42.2 109.6 42.6C108.2 42.9 106.9 44 107.3 45.7Z"/>
<path d="M114.7 49.5L114.8 50.5L109.3 54.7L115.1 54.2L115.2 55.1L108.1 55.7L108 54.7L113.4 50.5L107.7 51L107.6 50.1L114.7 49.5Z"/>
<path d="M25.5 103.3H26.4V110.4H25.5V103.3Z"/>
<path d="M32.2 105.4C32.1 104.4 31.4 103.9 30.4 103.9C29.6 103.9 28.8 104.2 28.8 105.1C28.8 106 29.9 106.1 31.1 106.4C32.2 106.7 33.4 107.1 33.4 108.5C33.4 110 31.9 110.6 30.6 110.6C29 110.6 27.7 109.8 27.7 108.1H28.6C28.6 109.3 29.6 109.8 30.7 109.8C31.6 109.8 32.5 109.5 32.5 108.5C32.5 107.5 31.4 107.4 30.2 107.1C29.1 106.9 27.9 106.5 27.9 105.2C27.9 103.8 29.2 103.1 30.5 103.1C32 103.1 33.1 103.8 33.1 105.4H32.2Z"/>
<path d="M37.5 103.1C39.8 103.1 40.9 104.9 40.9 106.8C40.9 108.7 39.8 110.5 37.5 110.5C35.2 110.5 34.1 108.7 34.1 106.8C34.1 104.9 35.3 103.1 37.5 103.1ZM37.5 109.8C39.2 109.8 40 108.3 40 106.9C40 105.5 39.3 104 37.5 104C35.8 104 35 105.5 35 106.9C35.1 108.3 35.8 109.8 37.5 109.8Z"/>
<path d="M45.5 108.7C45.6 109.4 46.1 109.8 46.8 109.8C47.8 109.8 48.3 108.9 48.4 107.1C48.1 107.7 47.5 108.1 46.8 108.1C45.4 108.1 44.6 107.1 44.6 105.7C44.6 104.3 45.6 103.4 46.9 103.4C48.2 103.4 49.3 104.1 49.3 106.8C49.3 109.2 48.6 110.6 46.8 110.6C45.6 110.6 44.8 110 44.7 108.8H45.5V108.7ZM46.7 104.1C45.7 104.1 45.3 104.9 45.3 105.8C45.3 106.6 45.9 107.3 46.7 107.3C47.6 107.3 48.1 106.6 48.1 105.7C48.2 104.8 47.7 104.1 46.7 104.1Z"/>
<path d="M52.5 103.3C54.7 103.3 54.9 105.3 54.9 106.9C54.9 108.5 54.8 110.5 52.5 110.5C50.3 110.5 50.1 108.5 50.1 106.9C50.1 105.4 50.2 103.3 52.5 103.3ZM52.5 109.8C53.9 109.8 54 108 54 106.9C54 105.9 54 104.1 52.5 104.1C51 104.1 51 105.9 51 106.9C51 108 51 109.8 52.5 109.8Z"/>
<path d="M58 103.3C60.2 103.3 60.4 105.3 60.4 106.9C60.4 108.5 60.3 110.5 58 110.5C55.8 110.5 55.6 108.5 55.6 106.9C55.7 105.4 55.8 103.3 58 103.3ZM58 109.8C59.4 109.8 59.5 108 59.5 106.9C59.5 105.9 59.5 104.1 58 104.1C56.6 104.1 56.5 105.9 56.5 106.9C56.6 108 56.6 109.8 58 109.8Z"/>
<path d="M64.4 110.4H63.6V105.3H61.8V104.6C62.8 104.6 63.6 104.3 63.8 103.3H64.4V110.4Z"/>
<path d="M68.3 106.3H67.2V105.2H68.3V106.3ZM67.2 109.3H68.3V110.4H67.2V109.3Z"/>
<path d="M69.6 105.8C69.5 104.4 70.4 103.3 71.9 103.3C73.1 103.3 74.1 104 74.1 105.3C74.1 106.5 73.3 107.2 72.4 107.7C71.5 108.2 70.6 108.7 70.4 109.6H74V110.4H69.4C69.5 108.7 70.4 108.1 71.4 107.5C72.6 106.8 73.2 106.3 73.2 105.3C73.2 104.5 72.6 104 71.8 104C70.8 104 70.4 104.9 70.4 105.8H69.6Z"/>
<path d="M77.5 103.3C79.7 103.3 79.9 105.3 79.9 106.9C79.9 108.5 79.8 110.5 77.5 110.5C75.3 110.5 75.1 108.5 75.1 106.9C75.1 105.4 75.3 103.3 77.5 103.3ZM77.5 109.8C78.9 109.8 79 108 79 106.9C79 105.9 79 104.1 77.5 104.1C76.1 104.1 76 105.9 76 106.9C76 108 76 109.8 77.5 109.8Z"/>
<path d="M83.8 110.4H83V105.3H81.2V104.6C82.2 104.6 83 104.3 83.2 103.3H83.8V110.4Z"/>
<path d="M87.6 104.2L87.2 106.2C87.5 105.9 88 105.7 88.5 105.7C89.8 105.7 90.8 106.5 90.8 108.1C90.8 109.3 90 110.5 88.3 110.5C87.1 110.5 86.1 109.7 86 108.5H87C87 109.2 87.6 109.8 88.5 109.8C89.3 109.8 90 109.3 90 108.1C90 107.2 89.4 106.5 88.4 106.5C87.9 106.5 87.4 106.8 87.1 107.2H86.4L87.1 103.5H90.6V104.2H87.6Z"/>
</svg>
