<svg viewBox="0 0 150 348" fill="black" xmlns="http://www.w3.org/2000/svg">
<path d="M28.74 211.02C31.8611 198.27 28.5447 192.239 16.248 188.317C13.3378 187.387 10.3027 186.856 7.33779 186.083C-0.361406 184.079 -2.10752 178.797 2.99798 172.563C4.43158 170.809 6.24411 169.27 8.13861 168.016C30.5176 153.219 54.7516 143.836 81.8616 142.95C102.979 142.34 116.807 149.637 120.87 165.427C122.694 172.516 122.577 180.782 120.956 187.974C114.108 218.349 106.308 248.509 98.9755 278.779C95.4364 293.377 99.2451 299.494 113.871 303.404C115.347 303.802 116.96 303.931 118.289 304.618C121.449 306.255 126.835 307.939 127.015 309.982C127.308 313.349 125.156 318.329 122.375 320.341C96.1205 339.29 66.9215 350.087 34.2065 347.568C12.1045 345.861 0.436534 327.033 5.96453 304.006C13.4215 272.971 21.1595 242.018 28.7415 211.022L28.74 211.02ZM149.91 50.2299C149.953 22.2959 128.355 0.249945 100.769 0.065945C72.718 -0.117645 50.183 22.1789 50.425 49.9019C50.6594 77.5309 72.624 99.2219 100.46 99.3159C127.601 99.4058 149.87 77.2999 149.909 50.2299H149.91Z"/>
</svg>
