<svg viewBox="0 0 7 12" fill="black" xmlns="http://www.w3.org/2000/svg">
<path fill-rule="evenodd" clip-rule="evenodd" d="M6.61344 1.64591C6.61344 1.64591 6.09586 0.86447 5.81718 0.395604C5.53848 -0.0732591 5.10053 0.00488384 5.10053 0.00488384H1.63677C1.63677 0.00488384 1.19883 -0.0732591 0.920127 0.395604C0.641441 0.86447 0.12386 1.64591 0.12386 1.64591C0.12386 1.64591 -0.154826 1.8022 0.12386 2.58364C0.402559 3.36508 0.999759 5.24054 0.999759 5.24054C0.999759 5.24054 1.11919 5.7094 1.55714 5.7094H5.21998C5.65792 5.7094 5.77736 5.24054 5.77736 5.24054C5.77736 5.24054 6.37456 3.36508 6.65326 2.58364C6.89213 1.8022 6.61344 1.64591 6.61344 1.64591ZM3.90613 7.15507L4.02558 6.10012H2.75154L2.95061 7.54579L2.95569 7.58606C2.9943 7.89398 3.04372 8.28816 3.34874 8.28816C4.06539 8.28816 4.66259 8.87424 4.66259 9.57753C4.66259 10.2808 4.06539 10.8669 3.34874 10.8669C2.63211 10.8669 2.03491 10.2808 2.03491 9.53846C2.03491 9.22589 1.75621 8.95238 1.43771 8.95238C1.11919 8.95238 0.840508 9.22589 0.840508 9.53846C0.840508 10.906 1.95528 12 3.34874 12C4.74221 12 5.85699 10.906 5.85699 9.53846C5.85699 8.3663 5.02091 7.3895 3.90613 7.15507ZM2.79137 2.66179V3.63859C2.79137 4.1856 3.07006 4.38096 3.58764 4.38096C3.82651 4.38096 4.02558 4.30282 4.18484 4.22467V3.59952C4.15989 3.60768 4.13669 3.61584 4.1145 3.62364C4.03041 3.6532 3.96083 3.67766 3.86632 3.67766C3.70707 3.67766 3.62744 3.59952 3.62744 3.44323V2.66179H4.18484V1.99757H3.62744V1.41149H2.79137V1.99757H2.51267V2.66179H2.79137Z"/>
</svg>
