<svg viewBox="0 0 10 12" fill="black" xmlns="http://www.w3.org/2000/svg">
<path d="M1.22074 5.27437L1.3916 6.19696C1.39198 6.19906 1.3931 6.20063 1.39373 6.2026C1.3941 6.20417 1.39385 6.20575 1.39435 6.20732L1.72644 7.14014C1.72682 7.14132 1.72807 7.14185 1.72857 7.1429C1.72944 7.14513 1.72944 7.14723 1.73057 7.14933L2.21389 8.05144C2.21452 8.05262 2.21577 8.05314 2.21652 8.05419C2.21752 8.05603 2.21789 8.058 2.21914 8.05957L2.80508 8.84897C2.80608 8.85041 2.80758 8.85081 2.80858 8.85199C2.80996 8.85356 2.81058 8.85553 2.81208 8.85698L3.47114 9.49259C3.47276 9.49429 3.47501 9.49482 3.47676 9.49626C3.47839 9.49757 3.47939 9.49928 3.48114 9.50033L4.16957 9.93597C4.17119 9.93702 4.17319 9.93676 4.17482 9.93754C4.17794 9.93938 4.18057 9.94161 4.18419 9.94279L4.84825 10.1478C4.854 10.1497 4.85987 10.1505 4.86562 10.1505C4.86562 10.1505 4.86575 10.1505 4.86587 10.1505C4.86737 10.1505 4.86887 10.1505 4.8705 10.1502L5.46619 10.1041C5.47519 10.1034 5.48356 10.1006 5.49093 10.0963C5.49106 10.0962 5.49143 10.0963 5.49156 10.0961L5.97976 9.8142C5.98776 9.80961 5.99413 9.80344 5.99938 9.79622C5.99951 9.79596 5.99988 9.79583 6.00001 9.79557L6.35147 9.29327C6.35572 9.28723 6.3581 9.28054 6.3601 9.27398C6.36035 9.27319 6.36122 9.27267 6.36147 9.27188L6.41509 9.06718L6.54695 8.57499C6.5477 8.57224 6.5472 8.56935 6.54758 8.56659C6.54795 8.56384 6.54933 8.56121 6.54933 8.5582L6.55908 7.72274C6.55908 7.72038 6.55808 7.71841 6.55783 7.71592C6.55758 7.71356 6.55833 7.71146 6.55783 7.70909L6.38209 6.78651C6.38172 6.78468 6.38059 6.78336 6.38009 6.78166C6.37959 6.77982 6.37997 6.77825 6.37934 6.77654L6.04738 5.83847C6.04675 5.83677 6.04538 5.83559 6.04475 5.83388C6.044 5.83231 6.044 5.8306 6.04325 5.82903L5.55993 4.93203C5.55918 4.93059 5.5578 4.9298 5.55705 4.92862C5.55618 4.92718 5.55593 4.9256 5.55493 4.92416L4.96899 4.12964C4.96786 4.12807 4.96624 4.12728 4.96486 4.12597C4.96361 4.12452 4.96299 4.12269 4.96174 4.12138L4.29781 3.48576C4.29618 3.48419 4.29418 3.48366 4.29243 3.48235C4.29081 3.48104 4.28981 3.47933 4.28806 3.47815L3.60938 3.04763C3.60688 3.04606 3.60425 3.04593 3.60175 3.04475C3.59925 3.04356 3.59725 3.0416 3.5945 3.04081L3.0923 2.88729L2.93107 2.83598C2.92645 2.83454 2.9217 2.83493 2.91695 2.83467C2.9142 2.83441 2.9117 2.83322 2.90895 2.83336L2.30838 2.87429C2.30788 2.87429 2.30751 2.87456 2.30701 2.87469C2.30301 2.87508 2.29926 2.87679 2.29513 2.87797C2.29101 2.87928 2.28676 2.88007 2.28301 2.88204C2.28264 2.8823 2.28214 2.8823 2.28176 2.88243L1.79356 3.16953C1.79331 3.16966 1.79319 3.16993 1.79294 3.17006C1.78944 3.17216 1.78669 3.17557 1.78356 3.17845C1.78044 3.18134 1.77681 3.18383 1.77431 3.18725C1.77419 3.18738 1.77394 3.18751 1.77381 3.18777L1.42235 3.69007C1.41997 3.69348 1.4191 3.69755 1.41735 3.70122C1.41572 3.70463 1.41347 3.70739 1.41247 3.71119L1.22699 4.4031C1.22624 4.40598 1.22674 4.40887 1.22637 4.41189C1.22599 4.41478 1.22462 4.4174 1.22462 4.42042L1.21974 5.26099C1.21974 5.26335 1.22074 5.26519 1.22099 5.26742C1.22099 5.27004 1.22037 5.27214 1.22074 5.27437ZM1.52971 3.75843L1.86643 3.27726L2.33038 3.00446L2.90557 2.96523L2.99719 2.99436L2.88195 3.42449C2.8812 3.42737 2.8817 3.43013 2.88133 3.43301C2.88095 3.43577 2.87958 3.43839 2.87958 3.44141L2.86983 4.27687C2.86983 4.27936 2.87083 4.28133 2.87108 4.28369C2.87133 4.28605 2.87058 4.28828 2.87108 4.29065L3.04681 5.20811C3.04718 5.21008 3.04831 5.21139 3.04881 5.21336C3.04918 5.21493 3.04893 5.21638 3.04943 5.21795L3.3814 6.16114C3.38177 6.16245 3.38315 6.16297 3.38365 6.16415C3.38452 6.16638 3.38452 6.16861 3.38565 6.17071L3.86897 7.06771C3.8696 7.06889 3.87085 7.06928 3.8716 7.07046C3.8726 7.07217 3.87297 7.07414 3.87422 7.07584L4.46504 7.87036C4.46604 7.87167 4.46754 7.8722 4.46854 7.87325C4.46991 7.87482 4.47054 7.87679 4.47204 7.87823L5.13122 8.51384C5.13297 8.51555 5.13497 8.51621 5.13685 8.51752C5.13847 8.51883 5.13947 8.52054 5.1411 8.52159L5.81978 8.95211C5.8214 8.95316 5.82328 8.95276 5.82503 8.95368C5.82815 8.95552 5.83102 8.95788 5.83465 8.95906L6.27848 9.09461L6.24423 9.22583L5.90764 9.7066L5.44344 9.97468L4.87275 10.0188L4.22756 9.81958L3.55126 9.39155L2.90057 8.76421L2.32063 7.98281L1.84206 7.08962L1.51334 6.16665L1.34461 5.25587L1.34948 4.43052L1.52971 3.75843ZM3.55151 3.16455L4.21781 3.58719L4.87337 4.21467L5.45344 5.00118L5.93189 5.88912L6.26048 6.81761L6.43396 7.72812L6.42446 8.54809L6.31198 8.96812L5.87752 8.83533L5.21121 8.41241L4.5604 7.78494L3.97571 6.99856L3.49726 6.11075L3.16855 5.17701L2.99506 4.27149L3.00456 3.45165L3.11705 3.03162L3.55151 3.16455Z"/>
<path d="M0.0596131 5.36531C0.011743 5.39614 -0.0106298 5.45663 0.00486864 5.51332L0.307588 6.62039C0.315962 6.65123 0.33496 6.67786 0.360707 6.69492L1.31086 7.3283L1.85068 8.33132L1.86018 9.50689C1.86043 9.53943 1.87218 9.57053 1.89305 9.59454L2.63523 10.4453C2.65947 10.473 2.69322 10.4879 2.72747 10.4879C2.74634 10.4879 2.76534 10.4834 2.78296 10.4742L3.43952 10.132L4.16357 10.5854L4.85525 11.8373C4.87487 11.8729 4.90924 11.8965 4.94799 11.9016L5.69504 11.999C5.70016 11.9997 5.70529 12 5.71041 12C5.73141 12 5.75203 11.9945 5.77041 11.9839L7.37174 11.0613L9.0237 10.0761C9.04595 10.0627 9.06382 10.0426 9.07482 10.0184L9.39704 9.30587C9.41416 9.26808 9.41303 9.22373 9.39404 9.18698L8.73573 7.9151L8.74435 7.0328L9.36854 6.63496C9.41653 6.60438 9.43903 6.54389 9.42391 6.48721L9.12606 5.38C9.11769 5.34877 9.09844 5.32201 9.07244 5.30469L8.11779 4.67143L7.58247 3.67367L7.56835 2.49246C7.56797 2.46018 7.55622 2.42934 7.53548 2.40546L6.7933 1.55465C6.76905 1.52683 6.73531 1.51201 6.70119 1.51201C6.68219 1.51201 6.66281 1.5166 6.64507 1.52605L5.98926 1.87259L5.26508 1.41005L4.57315 0.162577C4.55353 0.127149 4.51928 0.103399 4.48054 0.0984123L3.73349 0.00104972C3.72836 0.000393636 3.72324 0 3.71811 0C3.69699 0 3.67624 0.0056423 3.65762 0.016402L2.06116 0.944102L0.405203 1.92363C0.38258 1.93702 0.364582 1.95735 0.353458 1.98202L0.031241 2.69965C0.0141178 2.73757 0.0154926 2.78166 0.0344907 2.8184L0.692674 4.08516L0.684049 4.9626L0.0596131 5.36531ZM0.841283 5.09225C0.843408 5.09093 0.844408 5.08883 0.846283 5.08726C0.849658 5.0845 0.852782 5.08162 0.855532 5.07821C0.858157 5.07506 0.860282 5.07164 0.862156 5.0681C0.864031 5.06456 0.865656 5.06088 0.867031 5.05695C0.868406 5.05262 0.869156 5.04842 0.869656 5.04383C0.869906 5.04147 0.87103 5.03937 0.87103 5.037L0.880779 4.05288C0.880779 4.0517 0.880154 4.05065 0.880154 4.04947C0.880029 4.04501 0.87878 4.04094 0.87778 4.03648C0.876655 4.03215 0.87578 4.02795 0.87403 4.02401C0.87353 4.02296 0.873655 4.02165 0.87303 4.02073L0.214472 2.75318L0.494194 2.13017L1.41672 2.68915C1.42135 2.6919 1.42697 2.6919 1.4321 2.69335C1.43735 2.69492 1.44247 2.69781 1.44785 2.69781C1.45797 2.69781 1.46822 2.69518 1.47772 2.6898L2.05866 2.35665C2.08141 2.34352 2.09341 2.31781 2.09078 2.29222C2.09078 2.29169 2.09116 2.29117 2.09116 2.29051L2.11865 1.18383L2.77134 1.26847L3.45852 2.5208C3.45852 2.52093 3.45864 2.52106 3.45864 2.52106L3.45877 2.52145C3.45914 2.52224 3.46014 2.5225 3.46064 2.52342C3.46577 2.53182 3.47202 2.53956 3.48076 2.54494L3.48189 2.5456L4.29081 3.05708L4.29118 3.05734C4.29131 3.05747 4.29156 3.05734 4.29181 3.05747C4.30056 3.06298 4.31068 3.06561 4.3208 3.066C4.32168 3.066 4.32243 3.06666 4.3233 3.06666C4.33255 3.06666 4.34193 3.06443 4.35092 3.05983L5.03148 2.70739L5.72578 3.50335L5.73528 4.68784C5.73528 4.68889 5.73591 4.68994 5.73591 4.69099C5.73603 4.6923 5.73553 4.69348 5.73566 4.69479C5.73578 4.69571 5.73653 4.69676 5.73666 4.69768C5.73703 4.69991 5.73803 4.70175 5.73853 4.70385C5.73966 4.70804 5.74053 4.71224 5.74228 4.71605C5.74278 4.7171 5.74278 4.71841 5.74341 4.71933L6.3146 5.78021C6.3151 5.781 6.31585 5.78139 6.31635 5.78218C6.32122 5.79045 6.32735 5.79806 6.3356 5.80357L7.29688 6.44115L7.57985 7.47618L6.93391 7.88978L6.93366 7.88991L6.93216 7.89096C6.93004 7.89227 6.92904 7.89424 6.92716 7.89568C6.92391 7.89844 6.92091 7.90093 6.91829 7.90408C6.91704 7.90539 6.91566 7.90657 6.91466 7.90789C6.91304 7.91012 6.91241 7.91248 6.91129 7.91484C6.90929 7.91825 6.90779 7.92153 6.90641 7.92534C6.90592 7.92718 6.90479 7.92862 6.90442 7.93046C6.90367 7.93321 6.90391 7.93623 6.90354 7.93912C6.90329 7.94148 6.90216 7.94358 6.90216 7.94607L6.89242 8.93019C6.89242 8.93151 6.89304 8.93256 6.89304 8.93361C6.89317 8.93505 6.89267 8.93636 6.89292 8.9378C6.89317 8.94082 6.89479 8.94397 6.89554 8.94699C6.89667 8.95106 6.89742 8.95512 6.89904 8.95893C6.89954 8.95998 6.89954 8.96116 6.90004 8.96208L6.90054 8.96313L7.5541 10.23L7.28263 10.8534L6.3566 10.2888C6.35422 10.2872 6.35185 10.2872 6.34947 10.2862C6.34547 10.2843 6.34172 10.2829 6.33747 10.2819C6.33347 10.2811 6.3296 10.2808 6.32547 10.2808C6.3216 10.2808 6.31773 10.2808 6.31385 10.2816C6.3096 10.2825 6.30585 10.284 6.30185 10.2857C6.29935 10.2867 6.29685 10.2867 6.29448 10.2882L5.71841 10.6264C5.71654 10.6276 5.71554 10.6293 5.71391 10.6305C5.70991 10.6334 5.70616 10.6365 5.70304 10.6403C5.70041 10.6431 5.69854 10.6464 5.69654 10.6497C5.69441 10.6533 5.69254 10.6569 5.69104 10.6609C5.68954 10.6653 5.68866 10.6695 5.68816 10.6742C5.68779 10.6768 5.68654 10.6788 5.68641 10.6814L5.64979 11.7939L5.00136 11.7094L4.30893 10.456C4.3083 10.4548 4.3073 10.4543 4.30668 10.4532C4.30443 10.4498 4.30156 10.4469 4.29881 10.4439C4.29568 10.4408 4.29281 10.4373 4.28918 10.4349C4.28831 10.4342 4.28781 10.4331 4.28681 10.4325L3.47639 9.92508C3.47451 9.92403 3.47239 9.9239 3.47052 9.92298C3.46639 9.92088 3.46252 9.91943 3.45827 9.91838C3.45439 9.91733 3.45052 9.91681 3.44664 9.91668C3.44277 9.91655 3.43914 9.91681 3.43527 9.91733C3.43077 9.91812 3.42664 9.91943 3.42227 9.92101C3.4204 9.92179 3.4184 9.92166 3.41665 9.92271L2.74109 10.2749L2.04691 9.47907L2.03741 8.29471C2.03741 8.2934 2.03679 8.29235 2.03679 8.2913C2.03654 8.2871 2.03541 8.28303 2.03429 8.27884C2.03316 8.2745 2.03216 8.27017 2.03041 8.26611C2.02991 8.26506 2.02991 8.26388 2.02929 8.26296L1.4581 7.20194C1.45772 7.20102 1.45685 7.20063 1.45635 7.19971C1.4541 7.19604 1.45097 7.19289 1.4481 7.18974C1.44522 7.18659 1.4426 7.18331 1.43935 7.18095C1.4386 7.18042 1.4381 7.17937 1.43735 7.17885L0.480945 6.54127L0.197849 5.50597L0.841283 5.09225ZM3.73124 0.198924L4.26956 0.269125L2.79746 1.13975L2.26151 1.07033L3.73124 0.198924ZM8.91409 9.91523L7.44898 10.789L7.67259 10.2754L9.14356 9.40808L8.91409 9.91523ZM7.64896 10.1388L7.03953 8.95722L8.58599 8.03766L9.19993 9.22412L7.64896 10.1388ZM7.02728 7.98609L8.55662 7.07204L8.54837 7.90933L7.01903 8.81866L7.02728 7.98609ZM7.69159 7.40874L7.42449 6.43144L8.96745 5.51398L9.2303 6.49114L7.69159 7.40874ZM7.35249 6.32332L6.49108 5.752L8.0228 4.84136L8.88421 5.41268L7.35249 6.32332ZM6.39322 5.65936L5.88352 4.71277L7.43449 3.79806L7.93968 4.7398L6.39322 5.65936ZM7.39524 3.67065L5.8599 4.57617L5.85127 3.51621L7.38249 2.60583L7.39524 3.67065ZM5.8009 3.39536L5.14547 2.64375L6.68906 1.72602L7.34449 2.47763L5.8009 3.39536ZM4.3248 2.9256L3.63737 2.49088L5.17209 1.5809L5.86002 2.02021L4.3248 2.9256ZM3.53651 2.39982L2.89595 1.23225L4.44242 0.317544L5.08747 1.48038L3.53651 2.39982ZM1.96754 2.25023L1.4486 2.55701L0.593059 2.03858L1.99342 1.21034L1.96754 2.25023ZM5.81065 10.7241L6.3251 10.422L7.16626 10.9349L5.77666 11.7545L5.81065 10.7241Z"/>
</svg>
