<svg viewBox="0 0 12 12" fill="black" xmlns="http://www.w3.org/2000/svg">
<path fill-rule="evenodd" clip-rule="evenodd" d="M10.0385 3.25385C10.5462 3.34615 11.0539 3.16154 11.4692 2.79231C12.1154 2.14615 12.1154 1.13077 11.4692 0.484615C10.8231 -0.161538 9.8077 -0.161538 9.16155 0.484615C8.79232 0.853846 8.6077 1.40769 8.70001 1.91538C8.0077 1.73077 7.26923 1.86923 6.71539 2.42308L3.2077 5.93077C3.06924 6.06923 3.06924 6.34615 3.2077 6.48462L4.03847 7.31538L2.42308 8.93077C1.82308 8.60769 1.03846 8.7 0.484615 9.20769C-0.161538 9.85385 -0.161538 10.8692 0.484615 11.5154C1.13077 12.1615 2.14615 12.1615 2.79231 11.5154C3.3 11.0077 3.39231 10.2231 3.06923 9.57692L4.68462 7.96154L5.5154 8.79231C5.65386 8.93077 5.93077 8.93077 6.06923 8.79231L9.57693 5.28462C10.0846 4.68462 10.2231 3.94615 10.0385 3.25385ZM2.28463 11.0538C1.9154 11.4231 1.26924 11.4231 0.900011 11.0538C0.530781 10.6846 0.530781 10.0385 0.900011 9.66923C1.26924 9.3 1.9154 9.3 2.28463 9.66923C2.65386 10.0385 2.70001 10.6385 2.28463 11.0538ZM9.57693 0.946154C9.94616 0.576923 10.5923 0.576923 10.9615 0.946154C11.3308 1.31538 11.3308 1.96154 10.9615 2.33077C10.5923 2.7 9.94616 2.7 9.57693 2.33077C9.2077 1.96154 9.2077 1.31538 9.57693 0.946154Z"/>
<path fill-rule="evenodd" clip-rule="evenodd" d="M8.51539 11.8385H11.6077C11.7923 11.8385 11.9308 11.7 11.9308 11.5154V8.42308C11.9308 8.14616 11.6077 8.00769 11.3769 8.19231L8.28462 11.2846C8.05385 11.4692 8.19231 11.8385 8.51539 11.8385Z"/>
</svg>
