<svg viewBox="0 0 25 12" fill="black" xmlns="http://www.w3.org/2000/svg">
<path d="M0.648216 8.46624V7.36195H1.08994C0.79546 7.14109 0.574592 6.84661 0.574592 6.40489C0.574592 5.96317 0.79546 5.66869 1.08994 5.52145C0.79546 5.22698 0.574592 4.9325 0.574592 4.49078C0.574592 3.8282 1.01631 3.38649 1.75251 3.38649H3.81385V4.49078H2.12061C1.75251 4.49078 1.60526 4.63802 1.60526 4.9325C1.60526 5.22698 1.82613 5.37422 2.12061 5.37422H3.81385V6.47851H2.12061C1.75251 6.47851 1.60526 6.62575 1.60526 6.92023C1.60526 7.21471 1.82613 7.36195 2.12061 7.36195H3.81385V8.46624H0.648216Z"/>
<path fill-rule="evenodd" clip-rule="evenodd" d="M13.0899 5.88957C12.3537 5.88957 11.8384 6.47853 11.8384 7.1411C11.8384 7.8773 12.4274 8.39264 13.0899 8.39264C13.8261 8.39264 14.3415 7.80368 14.3415 7.1411C14.3415 6.47853 13.7525 5.88957 13.0899 5.88957Z"/>
<path fill-rule="evenodd" clip-rule="evenodd" d="M24.7218 7.80368L18.9795 7.73006V7.21472C18.9795 5.59509 18.4642 4.1227 17.5071 3.01841H24.7218V2.06135H23.0286V1.84049H24.7218V0L17.5807 0.588957C15.9611 0.588957 15.2985 1.17791 15.0777 1.54601C14.4887 1.39877 13.8261 1.25153 13.0899 1.25153C11.1758 1.25153 9.77705 1.84049 8.82 2.87117C8.74638 2.94479 8.74637 2.94479 8.67275 3.01841H6.75864V6.25767H7.27398C7.20036 6.55215 7.20036 6.92025 7.20036 7.21472V7.65644H8.30465C8.37827 8.83436 8.89361 9.86503 9.70342 10.6012C10.5869 11.4847 11.7648 12 13.0899 12C14.1942 12 15.2985 11.6319 16.1083 10.9693C16.8445 10.3804 17.4335 9.57055 17.728 8.6135H24.7218V7.80368ZM17.5071 1.84049V2.06135H16.3292C16.2556 2.06135 16.2556 1.98773 16.182 1.98773C16.4764 1.91411 16.8445 1.84049 17.5071 1.84049ZM13.0899 9.57055C11.7648 9.57055 10.7341 8.53988 10.7341 7.21472C10.7341 5.88957 11.7648 4.8589 13.0899 4.8589C14.4151 4.8589 15.4458 5.88957 15.4458 7.21472C15.4458 8.46626 14.3415 9.57055 13.0899 9.57055Z"/>
<path fill-rule="evenodd" clip-rule="evenodd" d="M4.32919 1.98773L2.41507 0.0736151C2.34145 -4.49229e-06 2.1206 -4.49229e-06 2.04698 0.0736151L0.132861 1.98773C-0.0143778 2.13496 0.0592553 2.42944 0.353734 2.42944H4.18194C4.4028 2.42944 4.47643 2.13496 4.32919 1.98773Z"/>
<path fill-rule="evenodd" clip-rule="evenodd" d="M0.05927 10.0123L1.97336 11.9264C2.04698 12 2.26784 12 2.34146 11.9264L4.25558 10.0123C4.40282 9.86503 4.3292 9.57055 4.03473 9.57055H0.28012C0.059261 9.57055 -0.0879692 9.86503 0.05927 10.0123Z"/>
</svg>
