<svg viewBox="0 0 20 12" fill="black" xmlns="http://www.w3.org/2000/svg">
<path d="M19.6601 3.06666V8.93333C19.6601 9.06666 19.5267 9.19999 19.3934 9.19999C19.2601 9.19999 19.1267 9.06666 19.1267 8.93333V3.06666C19.1267 2.93333 19.2601 2.8 19.3934 2.8C19.5267 2.66667 19.6601 2.79999 19.6601 3.06666Z"/>
<path d="M19.3934 9.33333C19.1267 9.33333 18.9934 9.06666 18.9934 8.93333V3.06666C18.9934 2.79999 19.2601 2.66667 19.3934 2.66667C19.5267 2.66667 19.7934 2.93333 19.7934 3.06666V8.93333C19.7934 9.06666 19.6601 9.33333 19.3934 9.33333ZM19.3934 2.8C19.2601 2.8 19.2601 2.93333 19.2601 2.93333V8.8C19.2601 8.93333 19.3934 8.93333 19.3934 8.93333C19.5267 8.93333 19.5267 8.8 19.5267 8.8V2.93333C19.5267 2.93333 19.5267 2.8 19.3934 2.8Z"/>
<path d="M1.12673 10.9333C1.12673 11.0667 1.26007 11.0667 1.3934 11.0667H3.26007C3.39341 11.0667 3.52674 10.9333 3.52674 10.8V9.6H4.86007V11.6C4.86007 11.7333 4.99341 11.8667 5.26007 11.8667H11.9267H12.0601L14.4601 10.1333H17.2601C17.3934 10.1333 17.5267 9.99999 17.5267 9.86666V6.39999H18.8601C18.9934 6.39999 19.1267 6.26666 19.1267 6.13333C19.1267 6 18.9934 5.86666 18.8601 5.86666H17.5267V3.19999C17.5267 3.06666 17.5267 3.06666 17.3934 2.93333C17.3934 2.93333 17.2601 2.8 17.1267 2.8H15.6601L14.5934 1.6C14.5934 1.6 14.4601 1.46666 14.3267 1.46666H12.7267V0.533325H13.9267C14.0601 0.533325 14.1934 0.399996 14.1934 0.266663C14.1934 0.133329 14.0601 0 13.9267 0H9.92674H8.1934C8.06007 0 7.92674 0.133329 7.92674 0.266663C7.92674 0.399996 8.06007 0.533325 8.1934 0.533325H9.66007V1.6H7.52673C7.3934 1.6 7.39341 1.59999 7.26007 1.73333L6.1934 2.66667L4.59341 2.53333C4.46007 2.53333 4.46007 2.53333 4.32673 2.66667C4.32673 2.66667 4.1934 2.8 4.1934 2.93333V4.93333H3.52674V3.6C3.52674 3.46666 3.39341 3.33333 3.26007 3.33333C3.26007 3.33333 2.86006 3.33333 2.46006 3.33333C1.26006 3.33333 1.12673 3.33333 1.12673 3.33333C0.993397 3.33333 0.9934 3.46666 0.9934 3.46666C-0.739934 7.86666 0.993397 10.8 1.12673 10.9333ZM12.0601 1.6H10.1934V0.799998H12.0601V1.6ZM0.9934 8.66667C0.860066 7.6 0.726735 5.86666 1.52673 3.86666C1.66007 3.86666 1.92674 3.86666 2.59341 3.86666C2.72674 3.86666 2.86007 3.86666 2.9934 3.86666V5.19999C2.9934 5.33333 3.12674 5.46666 3.26007 5.46666H4.46006C4.5934 5.46666 4.72674 5.33333 4.72674 5.06666V3.06666H6.06007C6.1934 3.06666 6.1934 3.06666 6.32673 3.06666L7.3934 2H14.1934L15.2601 3.06666C15.2601 3.06666 15.3934 3.19999 15.5267 3.19999H16.8601V9.19999H14.3267C14.3267 9.19999 14.1934 9.2 14.1934 9.33333L11.7934 11.0667H5.52673V8.93333C5.52673 8.8 5.39341 8.66667 5.26007 8.66667H3.26007C3.12674 8.66667 2.9934 8.8 2.9934 8.93333V10.2667H1.66007C1.3934 10.2667 1.12673 9.6 0.9934 8.66667Z"/>
<path d="M11.7934 12H5.12672C4.86006 12 4.5934 11.7333 4.5934 11.6V9.73333H3.52673L3.52674 10.8C3.52674 11.0667 3.39339 11.2 3.12672 11.2H1.26007C1.12673 11.2 0.993395 11.0667 0.860062 10.9333C0.726729 10.8 -1.0066 7.73333 0.860062 3.33333C0.860062 3.2 0.993391 3.06666 1.12672 3.06666C1.26006 3.06666 1.26007 3.06666 2.5934 3.06666H3.3934C3.66006 3.06666 3.79339 3.2 3.79339 3.46666V4.66667H4.1934V2.8C4.1934 2.66666 4.19339 2.53333 4.32673 2.53333C4.46006 2.39999 4.46007 2.39999 4.5934 2.39999L6.06006 2.53333L6.99339 1.46666C7.12673 1.33333 7.26007 1.33333 7.26007 1.33333H9.26007V0.799998H7.92673C7.7934 0.799998 7.66006 0.8 7.66006 0.666667C7.52673 0.533333 7.52673 0.533327 7.52673 0.399994C7.52673 0.133327 7.66007 0 7.92673 0L9.92674 0L13.6601 0C13.7934 0 13.9267 -2.03649e-06 13.9267 0.133331C14.0601 0.266665 14.0601 0.399994 14.0601 0.399994C14.0601 0.666661 13.9267 0.799998 13.6601 0.799998H12.5934V1.33333H14.0601C14.1934 1.33333 14.3267 1.33333 14.3267 1.46666L15.3934 2.53333H16.8601C16.9934 2.53333 17.1267 2.53333 17.1267 2.66667C17.2601 2.8 17.2601 2.93333 17.2601 3.06666V5.6H18.4601C18.7267 5.6 18.8601 5.73333 18.8601 6C18.8601 6.26667 18.7267 6.39999 18.4601 6.39999H17.2601V9.73333C17.2601 9.99999 17.1267 10.1333 16.8601 10.1333H14.1934L11.9267 11.8667C11.9267 12 11.9267 12 11.7934 12ZM3.3934 9.46667H4.99339V11.6C4.99339 11.7333 5.12673 11.7333 5.26007 11.7333H12.0601L14.4601 9.86666H17.2601C17.3934 9.86666 17.3934 9.73333 17.3934 9.73333V6.13333H18.8601C18.9934 6.13333 18.9934 6.13333 18.9934 6C18.9934 5.86667 18.8601 5.86666 18.8601 5.86666H17.3934L17.3934 2.93333H15.5267L14.4601 1.73333C14.4601 1.73333 14.4601 1.73333 14.3267 1.73333H12.7267V1.6H12.5934C12.5934 1.6 12.5934 1.6 12.5934 1.46666V0.533325H13.9267C14.0601 0.533325 14.0601 0.399994 14.0601 0.399994V0.266663H8.1934C8.06006 0.266663 8.06006 0.399994 8.06006 0.399994V0.533325H8.1934H9.79339V1.6H7.52673C7.3934 1.6 7.3934 1.6 7.3934 1.6L6.32673 2.66667L4.72673 2.53333H4.59341L4.5934 4.8H3.66006V3.33333C3.66006 3.2 3.52673 3.19999 3.52673 3.19999H2.72673C1.66006 3.19999 1.3934 3.19999 1.3934 3.19999C1.3934 3.19999 1.26007 3.2 1.26007 3.33333C-0.606601 7.6 1.26007 10.5333 1.26007 10.6667L1.3934 10.8H3.26007C3.3934 10.8 3.3934 10.6667 3.3934 10.6667V9.46667ZM11.6601 11.4667H5.26007V9.19999C5.26007 9.19999 5.26006 9.06666 5.12672 9.06666H3.12672C2.99339 9.06666 2.99339 9.19999 2.99339 9.19999V10.6667H1.3934V10.5333C1.26006 10.2667 0.993395 9.6 0.860062 8.66667C0.726729 7.6 0.593397 5.86666 1.3934 3.73333V3.6H1.52673C1.66006 3.6 1.92673 3.6 2.5934 3.6C2.72673 3.6 2.86006 3.6 2.99339 3.6H3.12672V5.06666C3.12672 5.19999 3.26007 5.2 3.26007 5.33333H4.5934C4.72673 5.33333 4.72674 5.19999 4.72674 5.06666L4.72673 2.93333H6.1934C6.32673 2.93333 6.32673 2.93333 6.32673 2.93333L7.3934 1.86666H14.0601L15.1267 3.06666C15.1267 3.06666 15.1267 3.06666 15.2601 3.06666H16.7267V9.33333H14.0601C14.0601 9.33333 14.0601 9.33333 13.9267 9.33333L11.6601 11.4667ZM5.66006 11.2H11.6601L13.9267 9.46667C14.0601 9.46667 14.0601 9.33333 14.1934 9.33333H16.5934V3.6H15.3934C15.2601 3.6 15.1267 3.6 15.1267 3.46666L14.1934 2.39999H7.66006L6.72673 3.46666C6.5934 3.6 6.46006 3.6 6.32673 3.6H5.12672V5.46666C5.12672 5.73333 4.86006 6 4.72673 6H3.3934C3.12673 6 2.99339 5.73333 2.99339 5.6V4.39999C2.86006 4.39999 2.86006 4.39999 2.72673 4.39999C2.1934 4.39999 1.92672 4.39999 1.79339 4.39999C0.993391 6.39999 1.12673 7.99999 1.26007 9.06666C1.3934 9.86666 1.66006 10.4 1.79339 10.6667H2.99339V9.46667C2.99339 9.2 3.12673 9.06666 3.3934 9.06666H5.3934C5.66006 9.06666 5.79339 9.2 5.79339 9.46667V11.2H5.66006ZM12.0601 1.73333H10.0601V0.666667H12.1934V1.46666H12.0601V1.73333ZM10.3267 1.46666H11.9267V0.933329H10.3267V1.46666Z"/>
<path d="M10.7267 5.46666C10.7267 6.13333 11.2601 6.8 12.0601 6.8C12.7267 6.8 13.3934 6.26666 13.3934 5.46666C13.3934 4.8 12.8601 4.13333 12.0601 4.13333C11.2601 4.13333 10.7267 4.8 10.7267 5.46666ZM11.2601 5.46666C11.2601 5.06666 11.5267 4.8 11.9267 4.8C12.3267 4.8 12.5934 5.06666 12.5934 5.46666C12.5934 5.86666 12.3267 6.13333 11.9267 6.13333C11.6601 6.13333 11.2601 5.86666 11.2601 5.46666Z"/>
<path d="M11.9267 6.93333C11.1267 6.93333 10.4601 6.26666 10.4601 5.46666C10.4601 4.66666 11.1267 4 11.9267 4C12.7267 4 13.3934 4.66666 13.3934 5.46666C13.3934 6.26666 12.7267 6.93333 11.9267 6.93333ZM11.9267 4.26666C11.2601 4.26666 10.7267 4.8 10.7267 5.46666C10.7267 6.13333 11.2601 6.66667 11.9267 6.66667C12.5934 6.66667 13.1267 6.13333 13.1267 5.46666C13.1267 4.8 12.5934 4.26666 11.9267 4.26666ZM11.9267 6.26666C11.5267 6.26666 11.1267 5.86666 11.1267 5.46666C11.1267 5.06666 11.5267 4.66667 11.9267 4.66667C12.3267 4.66667 12.7267 5.06666 12.7267 5.46666C12.7267 5.86666 12.4601 6.26666 11.9267 6.26666ZM11.9267 4.93333C11.6601 4.93333 11.3934 5.2 11.3934 5.46666C11.3934 5.73333 11.6601 6 11.9267 6C12.1934 6 12.4601 5.73333 12.4601 5.46666C12.4601 5.2 12.3267 4.93333 11.9267 4.93333Z"/>
<path d="M8.5934 8.8C8.5934 8.53333 8.32674 8.26666 8.06007 8.26666C7.7934 8.26666 7.52673 8.53333 7.52673 8.8C7.52673 9.06666 7.7934 9.33333 8.06007 9.33333C8.32674 9.33333 8.5934 9.2 8.5934 8.8ZM8.1934 8.8C8.1934 8.93333 8.1934 8.93333 8.1934 8.8C8.06007 8.93333 8.06007 8.8 8.06007 8.8C8.06007 8.8 8.06007 8.8 8.1934 8.8Z"/>
<path d="M8.06007 9.46667C7.66007 9.46667 7.3934 9.2 7.3934 8.8C7.3934 8.4 7.66007 8.13333 8.06007 8.13333C8.46007 8.13333 8.72674 8.4 8.72674 8.8C8.72674 9.2 8.46007 9.46667 8.06007 9.46667ZM8.06007 8.39999C7.7934 8.39999 7.66006 8.53333 7.66006 8.8C7.66006 9.06666 7.7934 9.19999 8.06007 9.19999C8.32674 9.19999 8.46006 9.06666 8.46006 8.8C8.46006 8.53333 8.32674 8.39999 8.06007 8.39999ZM8.06007 9.06666C7.92674 9.06666 7.7934 8.93333 7.7934 8.8C7.7934 8.66667 7.92674 8.53333 8.06007 8.53333C8.1934 8.53333 8.32673 8.66667 8.32673 8.8C8.32673 8.93333 8.1934 9.06666 8.06007 9.06666ZM8.06007 8.8C8.1934 8.93333 8.06007 8.93333 8.06007 8.8V8.8Z"/>
<path d="M8.72673 5.46666C6.9934 7.33333 6.32672 8.26666 6.46006 8.8C6.46006 9.73333 7.12673 10.4 8.06006 10.4H8.1934C8.5934 10.4 9.52673 9.86666 11.6601 8.26666C11.7934 8.13333 11.9267 8.13333 12.0601 8C13.1267 7.2 14.1934 6.53333 14.3267 5.73333C14.4601 5.19999 14.3267 4.53333 13.9267 4C13.5267 3.33333 12.7267 3.06666 11.9267 3.06666C11.7934 3.06666 11.5267 3.06666 11.3934 3.06666C10.5934 3.19999 9.7934 4.26666 8.86006 5.19999L8.72673 5.46666ZM6.99339 8.8C6.99339 8.53333 7.39339 7.86666 9.12673 5.86666L9.26007 5.73333C10.0601 4.79999 10.8601 3.86666 11.5267 3.73333C11.6601 3.73333 11.7934 3.73333 11.9267 3.73333C12.4601 3.73333 12.9934 3.99999 13.3934 4.53333C13.6601 4.93333 13.7934 5.33333 13.6601 5.73333C13.6601 6.26666 12.5934 7.06666 11.6601 7.6C11.5267 7.73333 11.3934 7.73333 11.2601 7.86666C10.4601 8.39999 8.46006 9.73333 8.06006 9.86666H7.92673C7.3934 9.86666 7.12673 9.33333 6.99339 8.8Z"/>
<path d="M8.06007 10.6667C6.9934 10.6667 6.32673 9.99999 6.32673 8.93333C6.32673 8.26666 6.9934 7.33333 8.72673 5.46666L8.86007 5.33333C9.7934 4.26666 10.7267 3.33332 11.5267 3.19999C12.4601 2.93332 13.5267 3.33333 14.1934 4.13333C14.5934 4.66666 14.7267 5.33333 14.5934 6C14.4601 6.8 13.3934 7.59999 12.3267 8.39999L11.9267 8.66666C9.66007 10.2667 8.86006 10.6667 8.32673 10.8L8.06007 10.6667ZM12.0601 3.33333C11.9267 3.33333 11.6601 3.33333 11.5267 3.33333C10.7267 3.46666 9.92673 4.39999 8.9934 5.46666L8.86007 5.59999C7.26007 7.46666 6.5934 8.39999 6.5934 8.8C6.5934 9.73333 7.26007 10.2667 8.06007 10.2667C8.06007 10.2667 8.06007 10.2667 8.1934 10.2667C8.1934 10.2667 8.1934 10.2667 8.32673 10.2667C8.72673 10.2667 9.66006 9.73333 11.7934 8.26666L12.1934 8C13.2601 7.2 14.3267 6.53332 14.4601 5.73332C14.5934 5.19999 14.4601 4.53333 14.0601 4.13333C13.3934 3.59999 12.7267 3.33333 12.0601 3.33333ZM8.06007 10C7.26007 10 6.86007 9.46666 6.86007 8.8C6.86007 8.66666 6.86006 8.26666 9.12673 5.73332L9.26007 5.59999C10.0601 4.66666 10.9934 3.73333 11.6601 3.59999C12.4601 3.46666 13.2601 3.73332 13.6601 4.39999C13.9267 4.79999 14.0601 5.33332 13.9267 5.73332C13.7934 6.39999 12.8601 7.06666 11.7934 7.73332L11.3934 8C9.52674 9.33333 8.46007 10 8.06007 10ZM7.12673 8.8C7.12673 9.2 7.3934 9.73332 8.06007 9.73332C8.1934 9.73332 8.86006 9.33332 11.1267 7.86665L11.5267 7.59999C12.3267 7.06666 13.3934 6.26666 13.5267 5.73332C13.5267 5.73332 13.5267 5.73333 13.5267 5.59999C13.6601 5.19999 13.5267 4.79999 13.2601 4.53332C12.8601 3.99999 12.1934 3.73332 11.5267 3.86666C10.9934 3.99999 10.0601 4.93332 9.3934 5.73332L9.26007 5.86665C7.3934 8.13332 7.12673 8.66666 7.12673 8.8Z"/>
</svg>
