<svg viewBox="0 0 10 12" fill="black" xmlns="http://www.w3.org/2000/svg">
<path fill-rule="evenodd" clip-rule="evenodd" d="M2.51185 2.42857C2.49825 2.33603 2.49119 2.24074 2.49119 2.14286C2.49119 0.842984 3.73727 0 4.98236 0C6.22745 0 7.47353 0.842984 7.47353 2.14286C7.47353 2.24074 7.46647 2.33603 7.45287 2.42857H8.49932L9.81818 12H0L1.4654 2.42857H2.51185ZM3.95658 2.14286C3.95658 1.86478 4.28508 1.42857 4.98236 1.42857C5.67964 1.42857 6.00813 1.86478 6.00813 2.14286C6.00813 2.22883 5.97673 2.32993 5.91274 2.42857H4.05198C3.98799 2.32993 3.95658 2.22883 3.95658 2.14286ZM6.06307 9.30129C6.25357 9.24415 6.41476 9.187 6.54665 9.12986L6.34882 8.37272C6.2902 8.39653 6.21205 8.4251 6.11436 8.45843C6.01666 8.49176 5.91653 8.50843 5.81395 8.50843C5.71137 8.50843 5.62345 8.48224 5.55018 8.42986C5.48179 8.37272 5.4476 8.27748 5.4476 8.14415V6.31557H6.25357V5.57986H5.4476V4.36557H4.46578V5.57986H3.96022V6.31557H4.46578V8.46557C4.46578 8.63224 4.49265 8.7751 4.54638 8.89415C4.60011 9.00843 4.67094 9.10367 4.75886 9.17986C4.85167 9.25129 4.95669 9.30367 5.07392 9.337C5.19604 9.37034 5.32548 9.387 5.46225 9.387C5.67229 9.387 5.87256 9.35843 6.06307 9.30129Z"/>
</svg>
