<svg viewBox="0 0 24 12" fill="black" xmlns="http://www.w3.org/2000/svg">
<path fill-rule="evenodd" clip-rule="evenodd" d="M0 0H23.0474V12H0V0ZM0.335111 0.335111V11.6649H22.7123V0.335111H0.335111Z" />
<path fill-rule="evenodd" clip-rule="evenodd" d="M1.7633 10.9593C1.80468 11.042 1.77113 11.1427 1.68836 11.1841L1.24406 11.4062C1.16129 11.4476 1.06064 11.4141 1.01926 11.3313C0.977874 11.2485 1.01142 11.1479 1.09419 11.1065L1.5385 10.8843C1.62126 10.843 1.72191 10.8765 1.7633 10.9593Z" />
<path fill-rule="evenodd" clip-rule="evenodd" d="M21.3693 1.17717C21.4106 1.25998 21.3769 1.3606 21.2941 1.4019L20.8683 1.6143C20.7855 1.6556 20.6849 1.62195 20.6436 1.53915C20.6023 1.45634 20.6359 1.35572 20.7187 1.31442L21.1445 1.10202C21.2274 1.06072 21.328 1.09436 21.3693 1.17717ZM20.0918 1.81436C20.1331 1.89717 20.0995 1.99778 20.0167 2.03909L19.165 2.46388C19.0822 2.50519 18.9816 2.47154 18.9403 2.38873C18.899 2.30593 18.9326 2.20531 19.0154 2.16401L19.8671 1.73921C19.9499 1.69791 20.0505 1.73155 20.0918 1.81436ZM18.3885 2.66395C18.4298 2.74676 18.3962 2.84737 18.3134 2.88868L17.4617 3.31347C17.3789 3.35478 17.2783 3.32113 17.237 3.23832C17.1957 3.15551 17.2293 3.0549 17.3122 3.0136L18.1638 2.5888C18.2466 2.5475 18.3472 2.58114 18.3885 2.66395ZM16.6852 3.51354C16.7265 3.59635 16.6929 3.69696 16.6101 3.73827L15.7584 4.16306C15.6756 4.20436 15.575 4.17072 15.5337 4.08791C15.4924 4.0051 15.5261 3.90449 15.6089 3.86318L16.4605 3.43839C16.5433 3.39708 16.6439 3.43073 16.6852 3.51354ZM14.982 4.36313C15.0233 4.44594 14.9896 4.54655 14.9068 4.58785L14.0552 5.01265C13.9724 5.05395 13.8717 5.02031 13.8304 4.9375C13.7891 4.85469 13.8228 4.75408 13.9056 4.71277L14.7572 4.28798C14.84 4.24667 14.9407 4.28032 14.982 4.36313ZM13.2787 5.21272C13.32 5.29552 13.2863 5.39614 13.2035 5.43744L12.3519 5.86224C12.2691 5.90354 12.1685 5.8699 12.1272 5.78709C12.0858 5.70428 12.1195 5.60366 12.2023 5.56236L13.0539 5.13757C13.1368 5.09626 13.2374 5.12991 13.2787 5.21272ZM11.5754 6.0623C11.6167 6.14511 11.583 6.24573 11.5002 6.28703L10.6486 6.71182C10.5658 6.75313 10.4652 6.71948 10.4239 6.63667C10.3826 6.55387 10.4162 6.45325 10.499 6.41195L11.3507 5.98715C11.4335 5.94585 11.5341 5.97949 11.5754 6.0623ZM9.8721 6.91189C9.91341 6.9947 9.87976 7.09531 9.79695 7.13662L8.94531 7.56141C8.8625 7.60272 8.76189 7.56907 8.72059 7.48626C8.67928 7.40345 8.71293 7.30284 8.79574 7.26153L9.64738 6.83674C9.73019 6.79544 9.8308 6.82908 9.8721 6.91189ZM8.16882 7.76148C8.21013 7.84429 8.17648 7.9449 8.09367 7.98621L7.24203 8.411C7.15922 8.4523 7.05861 8.41866 7.0173 8.33585C6.976 8.25304 7.00964 8.15243 7.09245 8.11112L7.94409 7.68633C8.0269 7.64502 8.12752 7.67867 8.16882 7.76148ZM6.46554 8.61107C6.50684 8.69387 6.4732 8.79449 6.39039 8.83579L5.53875 9.26059C5.45594 9.30189 5.35532 9.26825 5.31402 9.18544C5.27272 9.10263 5.30636 9.00201 5.38917 8.96071L6.24081 8.53592C6.32362 8.49461 6.42423 8.52826 6.46554 8.61107ZM4.76226 9.46065C4.80356 9.54346 4.76991 9.64408 4.68711 9.68538L3.83546 10.1102C3.75266 10.1515 3.65204 10.1178 3.61074 10.035C3.56943 9.95222 3.60308 9.8516 3.68589 9.8103L4.53753 9.3855C4.62034 9.3442 4.72095 9.37784 4.76226 9.46065ZM3.05897 10.3102C3.10028 10.3931 3.06663 10.4937 2.98382 10.535L2.558 10.7474C2.47519 10.7887 2.37458 10.755 2.33327 10.6722C2.29197 10.5894 2.32562 10.4888 2.40842 10.4475L2.83425 10.2351C2.91705 10.1938 3.01767 10.2274 3.05897 10.3102Z" />
<path fill-rule="evenodd" clip-rule="evenodd" d="M22.2463 0.739742C22.2879 0.822369 22.2547 0.92313 22.1721 0.964796L21.7315 1.18695C21.6489 1.22862 21.5482 1.19541 21.5065 1.11278C21.4648 1.03016 21.498 0.929396 21.5807 0.887729L22.0212 0.665577C22.1038 0.62391 22.2046 0.657115 22.2463 0.739742Z" />
<path d="M21.577 1.74521L22.251 0.849074C22.3188 0.758707 22.2548 0.630687 22.1418 0.630687H21.0235C20.9219 0.630687 20.8541 0.736116 20.903 0.826483L21.3511 1.72262C21.3925 1.81299 21.5168 1.82429 21.577 1.74521Z" />
<path d="M1.62849 10.315L0.954503 11.2112C0.886727 11.3015 0.950737 11.4296 1.0637 11.4296H2.18199C2.28365 11.4296 2.35143 11.3241 2.30248 11.2338L1.85441 10.3376C1.81299 10.2435 1.68874 10.2322 1.62849 10.315Z" />
</svg>
