<svg viewBox="0 0 16 16" fill="black" xmlns="http://www.w3.org/2000/svg">
<path d="M14.0128 5.37759C14.0192 5.50719 14.0216 5.63839 14.0216 5.76799C14.0216 9.75999 10.984 14.3616 5.42962 14.3616C3.72322 14.3616 2.13682 13.8616 0.800018 13.004C1.03682 13.032 1.27682 13.0464 1.52002 13.0464C2.93602 13.0464 4.23762 12.5632 5.27042 11.7544C3.94962 11.7296 2.83362 10.8576 2.44962 9.65759C2.63362 9.69199 2.82322 9.71039 3.01762 9.71039C3.29362 9.71039 3.56082 9.67439 3.81362 9.60559C2.43202 9.32719 1.39122 8.10719 1.39122 6.64319C1.39122 6.63039 1.39122 6.61839 1.39122 6.60559C1.79842 6.83199 2.26482 6.96799 2.75922 6.98399C1.94882 6.44159 1.41522 5.51839 1.41522 4.46959C1.41522 3.91679 1.56402 3.39759 1.82482 2.95119C3.31362 4.77919 5.54002 5.98079 8.04962 6.10719C7.99842 5.88559 7.97202 5.65599 7.97202 5.41839C7.97202 3.75119 9.32322 2.39999 10.9912 2.39999C11.86 2.39999 12.6448 2.76559 13.196 3.35279C13.8832 3.21679 14.5296 2.96559 15.1136 2.61999C14.888 3.32479 14.4088 3.91679 13.7856 4.29039C14.3968 4.21679 14.9776 4.05599 15.52 3.81519C15.1152 4.42159 14.6032 4.95279 14.0128 5.37759Z" fill="black"/>
</svg>
