<svg viewBox="0 0 214 70" fill="black" xmlns="http://www.w3.org/2000/svg">
<path fill-rule="evenodd" clip-rule="evenodd" d="M8.00815 47.8089V56.2937H8.98874L6.53726 58.5781V57.1096H4.24921V62.8205H6.53726V61.352L10.7865 58.4149H17.6506V53.683L81.5526 54.3357L84.9847 51.2354H182.063V47.8089H8.00815Z"/>
<path d="M189.908 48.7879H0L13.0746 0H213.769L189.908 48.7879ZM3.10521 46.8298H187.947L209.847 1.79487H14.8723L3.10521 46.8298Z"/>
<path fill-rule="evenodd" clip-rule="evenodd" d="M39.2237 61.0256H38.8969C38.7334 63.4732 37.5894 65.5944 35.9551 67.0629C34.1573 68.8578 31.7058 70 28.9275 70C26.1492 70 23.6977 68.8578 21.8999 67.0629C20.2656 65.4312 19.285 63.31 18.9581 61.0256H16.6701V60.0466C16.6701 56.62 17.8141 53.3566 20.1022 51.0723C20.9193 50.2564 21.8999 49.4406 23.2074 48.9511H34.9745C36.1185 49.4406 37.0991 50.2564 38.0797 51.0723C39.0603 52.0513 39.8774 53.3566 40.5312 54.662V61.0256H39.2237ZM28.9275 55.3147C26.1492 55.3147 24.0245 57.4359 24.0245 60.2098C24.0245 62.8205 26.1492 65.1049 28.9275 65.1049C31.7058 65.1049 33.8305 62.9837 33.8305 60.2098C33.8305 57.4359 31.7058 55.3147 28.9275 55.3147Z"/>
<path fill-rule="evenodd" clip-rule="evenodd" d="M28.9275 57.4359C27.4566 57.4359 26.3126 58.5781 26.3126 60.0466C26.3126 61.5151 27.4566 62.6573 28.9275 62.6573C30.3984 62.6573 31.5424 61.5151 31.5424 60.0466C31.5424 58.5781 30.3984 57.4359 28.9275 57.4359Z"/>
<path fill-rule="evenodd" clip-rule="evenodd" d="M62.9214 61.0256H61.6139C61.4505 63.4732 60.3065 65.5944 58.6721 67.0629C56.8744 68.8578 54.4229 70 51.6445 70C48.8662 70 46.4147 68.8578 44.617 67.0629C42.9826 65.4312 42.0021 63.31 41.6752 61.0256H39.2237L39.2237 60.0466C39.2237 56.62 40.3677 53.3566 42.4924 51.0723C43.3095 50.2564 44.2901 49.4406 45.5976 48.9511H57.3647C58.5087 49.4406 59.4893 50.2564 60.4699 51.0723C61.4505 52.0513 62.2676 53.3566 62.9214 54.662V61.0256ZM51.4811 55.3147C48.7028 55.3147 46.5782 57.4359 46.5782 60.2098C46.5782 62.8205 48.7028 65.1049 51.4811 65.1049C54.2595 65.1049 56.3841 62.9837 56.3841 60.2098C56.3841 57.4359 54.2595 55.3147 51.4811 55.3147Z"/>
<path fill-rule="evenodd" clip-rule="evenodd" d="M51.4811 57.4359C50.0103 57.4359 48.8662 58.5781 48.8662 60.0466C48.8662 61.5151 50.0103 62.6573 51.4811 62.6573C52.952 62.6573 54.0961 61.5151 54.0961 60.0466C54.0961 58.5781 52.952 57.4359 51.4811 57.4359Z"/>
<path fill-rule="evenodd" clip-rule="evenodd" d="M62.9214 61.0256H64.0654C64.2288 63.4732 65.3728 65.5944 67.0072 67.0629C68.8049 68.8578 71.2564 70 74.0347 70C76.8131 70 79.2646 68.8578 81.0623 67.0629C82.6966 65.4312 83.6772 63.31 84.0041 61.0256H86.2922V60.0466C86.2922 56.62 85.1481 53.3566 83.0235 51.0723C82.2063 50.2564 81.2258 49.4406 79.9183 48.9511H68.1512C67.0072 49.4406 66.0266 50.2564 65.046 51.0723C64.0654 52.0513 63.2482 53.3566 62.5945 54.662V61.0256H62.9214ZM74.1982 55.3147C76.9765 55.3147 79.1011 57.4359 79.1011 60.2098C79.1011 62.8205 76.9765 65.1049 74.1982 65.1049C71.4198 65.1049 69.2952 62.9837 69.2952 60.2098C69.2952 57.4359 71.4198 55.3147 74.1982 55.3147Z"/>
<path fill-rule="evenodd" clip-rule="evenodd" d="M74.1982 57.4359C75.6691 57.4359 76.8131 58.5781 76.8131 60.0466C76.8131 61.5151 75.6691 62.6573 74.1982 62.6573C72.7273 62.6573 71.5833 61.5151 71.5833 60.0466C71.5833 58.5781 72.7273 57.4359 74.1982 57.4359Z"/>
<path fill-rule="evenodd" clip-rule="evenodd" d="M170.788 68.042V50.9091H171.439V68.042H170.788Z"/>
</svg>
