<svg viewBox="0 0 219 70" fill="black" xmlns="http://www.w3.org/2000/svg">
<path fill-rule="evenodd" clip-rule="evenodd" d="M7.99202 47.7892V56.2836H9.06482L6.49272 58.5627V57.1106H4.269V62.7675H6.49272V61.2047L10.7644 58.3592H17.683L20.439 54.7973L82.0618 54.9178L84.6957 51.2468H181.356V47.7892H7.99202Z"/>
<path fill-rule="evenodd" clip-rule="evenodd" d="M145.914 61.4974H147.833V46.6021H145.914V61.4974Z"/>
<path fill-rule="evenodd" clip-rule="evenodd" d="M108.643 61.4974H110.563V46.6021H108.643V61.4974Z"/>
<path fill-rule="evenodd" clip-rule="evenodd" d="M104.943 63.1823H151.817V59.2477H104.943V63.1823Z"/>
<path fill-rule="evenodd" clip-rule="evenodd" d="M104.943 56.1726H151.817V52.2379H104.943V56.1726Z"/>
<path fill-rule="evenodd" clip-rule="evenodd" d="M1.91767 46.8349H206.217V1.91116H1.91767V46.8349ZM0 48.7444H208.138V0H0V48.7444Z"/>
<path fill-rule="evenodd" clip-rule="evenodd" d="M28.91 55.2077C26.224 55.2077 24.0458 57.3761 24.0458 60.0507C24.0458 62.7237 26.224 64.8937 28.91 64.8937C31.596 64.8937 33.7758 62.7237 33.7758 60.0507C33.7758 57.3761 31.596 55.2077 28.91 55.2077ZM40.1605 61.0063H39.2H38.8598C38.6335 63.37 37.5737 65.4928 35.98 67.0816V67.0849C34.1698 68.8854 31.6709 69.9989 28.91 69.9989C26.1507 69.9989 23.6519 68.8854 21.8416 67.0849C20.2463 65.4961 19.1865 63.3733 18.9619 61.0063H16.6991V60.0507C16.6991 56.5572 17.7914 53.3942 20.0363 51.1591L20.0412 51.1542C20.8893 50.3093 21.8986 49.6012 23.0723 49.064H34.7542C35.9263 49.6012 36.9372 50.3093 37.7837 51.1542V51.1575C38.8207 52.1896 39.6086 53.417 40.1605 54.7844V61.0063Z"/>
<path fill-rule="evenodd" clip-rule="evenodd" d="M28.91 57.4055C27.4433 57.4055 26.2533 58.5907 26.2533 60.0509C26.2533 61.5111 27.4433 62.6962 28.91 62.6962C30.3784 62.6962 31.5684 61.5111 31.5684 60.0509C31.5684 58.5907 30.3784 57.4055 28.91 57.4055Z"/>
<path fill-rule="evenodd" clip-rule="evenodd" d="M51.4113 55.2077C48.7252 55.2077 46.5471 57.3761 46.5471 60.0507C46.5471 62.7237 48.7252 64.8937 51.4113 64.8937C54.0973 64.8937 56.2754 62.7237 56.2754 60.0507C56.2754 57.3761 54.0973 55.2077 51.4113 55.2077ZM62.6601 61.0063H61.361C61.1347 63.37 60.075 65.4928 58.4796 67.0816V67.0849C56.671 68.8854 54.1706 69.9989 51.4113 69.9989C48.652 69.9989 46.1515 68.8854 44.3413 67.0849C42.7459 65.4961 41.6861 63.3733 41.4615 61.0063H40.1605H39.2L39.2003 60.0507C39.2003 56.5572 40.2926 53.3942 42.5375 51.1591L42.5392 51.1558L42.5408 51.1542C43.3906 50.3093 44.3999 49.6012 45.572 49.064H57.2554C58.4275 49.6012 59.4368 50.3093 60.285 51.1542V51.1575C61.3203 52.1896 62.1099 53.417 62.6601 54.7844V61.0063Z"/>
<path fill-rule="evenodd" clip-rule="evenodd" d="M51.4113 57.4055C49.9445 57.4055 48.7529 58.5907 48.7529 60.0509C48.7529 61.5111 49.9445 62.6962 51.4113 62.6962C52.878 62.6962 54.0696 61.5111 54.0696 60.0509C54.0696 58.5907 52.878 57.4055 51.4113 57.4055Z"/>
<path fill-rule="evenodd" clip-rule="evenodd" d="M73.911 55.2077C76.5971 55.2077 78.7752 57.3761 78.7752 60.0507C78.7752 62.7237 76.5971 64.8937 73.911 64.8937C71.225 64.8937 69.0469 62.7237 69.0469 60.0507C69.0469 57.3761 71.225 55.2077 73.911 55.2077ZM62.6601 61.0063H63.9613C64.1876 63.37 65.2489 65.4928 66.8427 67.0816V67.0849C68.6513 68.8854 71.1517 69.9989 73.911 69.9989C76.6703 69.9989 79.1708 68.8854 80.9794 67.0849C82.5748 65.4961 83.6345 63.3733 83.8608 61.0063H86.122V60.0507C86.122 56.5572 85.0296 53.3942 82.7848 51.1591L82.7831 51.1558L82.7815 51.1542C81.9317 50.3093 80.9224 49.6012 79.7504 49.064H68.0669C66.8948 49.6012 65.8855 50.3093 65.0373 51.1542V51.1575C64.002 52.1896 63.212 53.417 62.6601 54.7844V61.0063Z"/>
<path fill-rule="evenodd" clip-rule="evenodd" d="M73.911 57.4055C75.3778 57.4055 76.5694 58.5907 76.5694 60.0509C76.5694 61.5111 75.3778 62.6962 73.911 62.6962C72.4443 62.6962 71.2527 61.5111 71.2527 60.0509C71.2527 58.5907 72.4443 57.4055 73.911 57.4055Z"/>
<path fill-rule="evenodd" clip-rule="evenodd" d="M169.772 68.0042V50.9209H171.087V68.0042H169.772Z"/>
<path fill-rule="evenodd" clip-rule="evenodd" d="M206.822 5.17366H218.795V28.4035H206.822V5.17366ZM208.137 6.48866V27.0885H217.48V6.48866H208.137Z"/>
<path fill-rule="evenodd" clip-rule="evenodd" d="M218.138 10.3149H207.48V8.9999H218.138V10.3149Z"/>
<path fill-rule="evenodd" clip-rule="evenodd" d="M218.138 13.7932H207.48V12.4782H218.138V13.7932Z"/>
<path fill-rule="evenodd" clip-rule="evenodd" d="M218.138 17.2724H207.48V15.9574H218.138V17.2724Z"/>
</svg>
