<svg viewBox="0 0 147 70" fill="black" xmlns="http://www.w3.org/2000/svg">
<path fill-rule="evenodd" clip-rule="evenodd" d="M114.884 32.3256C115.349 31.8605 116.047 31.6279 116.744 31.6279C114.419 29.7674 112.326 27.6744 110.465 26.0465C108.605 24.4186 106.512 22.3256 104.186 20.4651C103.721 20 103.023 19.7674 102.326 19.7674H93.9535V34.8837C93.9535 34.8837 105.116 39.3023 110.93 39.3023H113.488C113.256 38.8372 113.023 38.3721 113.023 37.907C113.256 36.5116 113.721 33.4884 114.884 32.3256Z"/>
<path fill-rule="evenodd" clip-rule="evenodd" d="M117.209 33.0233C116.744 32.7907 116.279 33.0233 115.814 33.2558C115.116 33.9535 114.651 36.7442 114.651 37.907C114.651 38.3721 114.651 38.6047 115.116 38.8372C115.349 39.0698 115.814 39.3023 116.047 39.3023H119.07C122.326 39.5349 118.372 33.4884 117.209 33.0233Z"/>
<path d="M98.8372 39.3023H92.3256V41.1628H98.8372V39.3023Z"/>
<path d="M88.6047 37.6744H82.093V39.5349H88.6047V37.6744Z"/>
<path d="M53.7209 39.0698H16.2791V40.9302H53.7209V39.0698Z"/>
<path fill-rule="evenodd" clip-rule="evenodd" d="M145.349 50C145.349 46.0465 145.349 45.3488 144.186 41.3953C143.256 37.4419 125.814 31.8605 123.721 31.1628C121.163 29.5349 116.744 25.5814 112.558 21.8605C108.605 18.3721 105.116 14.8837 102.558 13.4884C98.3721 10.6977 92.5581 7.44186 85.3488 7.2093H9.06977L7.90698 6.97674C5.11628 6.97674 3.48837 10.2326 2.32558 17.4419C1.86047 21.1628 1.62791 33.0233 1.39535 40C1.39535 42.3256 1.39535 43.9535 1.16279 44.6512C1.16279 45.3488 0.930233 46.0465 0.697674 46.9767C0.465116 47.6744 0.232558 48.1395 0.232558 48.1395L0 48.6046V57.6744C0 57.907 0.697674 59.0698 2.09302 60.2326C3.25581 61.3953 5.5814 62.5581 8.83721 62.5581C8.83721 62.5581 9.06977 62.5581 9.30233 62.5581H19.5349C20 64.186 20.9302 65.8139 22.093 66.9767C23.9535 68.8372 26.5116 70 29.3023 70C32.093 70 34.6512 68.8372 36.5116 66.9767C37.6744 65.8139 38.6047 64.186 39.0698 62.5581H113.256C113.721 64.186 114.651 65.8139 115.814 66.9767C117.674 68.8372 120.233 70 123.023 70C125.814 70 128.372 68.8372 130.233 66.9767C131.395 65.8139 132.326 64.186 132.791 62.5581H135.581C137.674 62.5581 141.395 62.5581 142.558 62.3256H143.256C145.349 61.8605 146.744 60.2326 146.744 58.3721V53.4884C146.977 52.093 146.279 50.9302 145.349 50ZM29.3023 66.2791C25.814 66.2791 23.2558 63.4884 23.2558 60.2326C23.2558 56.7442 26.0465 54.186 29.3023 54.186C32.7907 54.186 35.3488 56.9767 35.3488 60.2326C35.5814 63.4884 32.7907 66.2791 29.3023 66.2791ZM123.256 66.2791C119.767 66.2791 117.209 63.4884 117.209 60.2326C117.209 56.7442 120 54.186 123.256 54.186C126.744 54.186 129.302 56.9767 129.302 60.2326C129.302 63.4884 126.512 66.2791 123.256 66.2791ZM144.186 58.3721C144.186 59.0698 143.721 59.5349 143.023 59.7674H142.558C141.628 60 138.605 60 135.814 60H135.116V59.7674C135.116 56.5116 133.721 53.4884 131.628 51.3953C129.535 49.3023 126.512 47.907 123.256 47.907C120 47.907 116.977 49.3023 114.884 51.3953C112.791 53.4884 111.395 56.5116 111.395 59.7674V60H41.3953V59.7674C41.3953 56.5116 40 53.4884 37.907 51.3953C35.814 49.3023 32.7907 47.907 29.5349 47.907C26.2791 47.907 23.2558 49.3023 21.1628 51.3953C19.0698 53.4884 17.6744 56.5116 17.6744 59.7674V60H9.30233C7.2093 60 5.34884 59.5349 3.95349 58.3721C3.25581 57.907 3.02326 57.2093 2.7907 56.9767V49.3023C3.02326 49.0698 3.25581 48.6047 3.25581 48.1395C3.72093 46.9767 3.95349 45.814 3.95349 44.8837C3.95349 44.6512 3.95349 44.6512 3.95349 44.4186C6.04651 43.7209 7.67442 42.093 7.67442 40.4651V23.7209H4.88372C5.11628 21.3953 5.11628 19.3023 5.34884 18.1395C6.51163 10.2326 8.13954 10 8.13954 10H85.5814C90.6977 10.2326 95.3488 12.093 101.395 15.814C103.721 17.2093 107.442 20.6977 110.93 23.9535C115.349 27.907 119.767 31.8605 122.558 33.7209L122.791 33.9535C125.116 34.6512 129.535 36.2791 133.488 37.907C133.488 39.7674 133.488 41.3953 133.953 41.6279C134.651 42.3256 139.302 44.8837 142.558 46.7442C142.558 47.6744 142.558 49.0698 142.558 50.9302V51.8605L143.488 52.3256C143.953 52.5581 144.419 53.0233 144.419 53.7209L144.186 58.3721Z"/>
<path fill-rule="evenodd" clip-rule="evenodd" d="M123.256 57.4419C121.86 57.4419 120.698 58.6046 120.698 60C120.698 61.3953 121.86 62.5581 123.256 62.5581C124.651 62.5581 125.814 61.3953 125.814 60C125.814 58.6046 124.651 57.4419 123.256 57.4419Z"/>
<path fill-rule="evenodd" clip-rule="evenodd" d="M29.3023 57.4419C27.907 57.4419 26.7442 58.6046 26.7442 60C26.7442 61.3953 27.907 62.5581 29.3023 62.5581C30.6977 62.5581 31.8605 61.3953 31.8605 60C31.8605 58.6046 30.6977 57.4419 29.3023 57.4419Z"/>
<path fill-rule="evenodd" clip-rule="evenodd" d="M57.4419 0H81.1628C84.1306 0 86.5116 2.38106 86.5116 5.34884V8.37209H85.3488V9.53488H57.4419V0ZM84.1861 7.2093V5.34884C84.1861 3.66545 82.8462 2.32558 81.1628 2.32558H59.7674V7.2093H84.1861Z"/>
<path fill-rule="evenodd" clip-rule="evenodd" d="M78.6047 7.67442V1.16279H80.9302V7.67442H78.6047Z"/>
</svg>
