<svg viewBox="0 0 164 70" fill="black" xmlns="http://www.w3.org/2000/svg">
<path fill-rule="evenodd" clip-rule="evenodd" d="M128.109 28C128.628 27.4815 129.406 27.2222 130.184 27.2222C127.59 25.1481 125.256 22.8148 123.182 21C121.107 19.1852 118.773 16.8518 116.18 14.7778C115.661 14.2593 114.883 14 114.105 14H104.769V31.1111C104.769 31.1111 117.217 36.037 123.7 36.037H126.553C126.294 35.5185 126.034 35 126.034 34.4815C126.294 32.6667 126.812 29.2963 128.109 28Z"/>
<path fill-rule="evenodd" clip-rule="evenodd" d="M130.702 28.7778C130.184 28.5185 129.665 28.7778 129.146 29.037C128.368 29.8148 127.85 32.9259 127.85 34.2222C127.85 34.7407 127.85 35 128.368 35.2593C128.628 35.5185 129.146 35.7778 129.406 35.7778H132.777C136.407 36.037 131.999 29.2963 130.702 28.7778Z"/>
<path d="M110.215 35.7778H102.954V37.8518H110.215V35.7778Z"/>
<path d="M98.8047 33.963H91.5434V36.037H98.8047V33.963Z"/>
<path d="M59.9052 35.5185H18.1531V37.5926H59.9052V35.5185Z"/>
<path fill-rule="evenodd" clip-rule="evenodd" d="M162.081 47.7037C162.081 43.2963 162.081 42.5185 160.785 38.1111C159.747 33.7037 140.297 27.4815 137.963 26.7037C135.111 24.8889 130.184 20.4815 125.516 16.3333C121.107 12.4445 117.217 8.55555 114.364 6.99999C109.697 3.88888 103.213 0.259259 95.1741 0H8.81722C5.70526 0 3.88995 3.62963 2.5933 11.6667C2.07464 15.8148 1.81531 29.037 1.55598 36.8148C1.55598 39.4074 1.55598 41.2222 1.29665 42C1.29665 42.7778 1.03732 43.5556 0.77799 44.5926C0.51866 45.3704 0.25933 45.8889 0.25933 45.8889L0 46.1482V56.2593C0 56.5185 0.777989 57.8148 2.33397 59.1111C3.63062 60.4074 6.22392 61.7037 9.85454 61.7037C9.85454 61.7037 10.1139 61.7037 10.3732 61.7037H21.7837C22.3024 63.5185 23.3397 65.3333 24.6363 66.6296C26.711 68.7037 29.5636 70 32.6756 70C35.7875 70 38.6401 68.7037 40.7148 66.6296C42.0114 65.3333 43.0488 63.5185 43.5674 61.7037H126.294C126.812 63.5185 127.85 65.3333 129.146 66.6296C131.221 68.7037 134.074 70 137.186 70C140.297 70 143.15 68.7037 145.225 66.6296C146.521 65.3333 147.559 63.5185 148.077 61.7037H151.189C153.523 61.7037 157.673 61.7037 158.969 61.4444H159.747C162.081 60.9259 163.637 59.1111 163.637 57.037V51.5926C163.896 50.037 163.118 48.7407 162.081 47.7037ZM32.6756 65.8519C28.7856 65.8519 25.933 62.7407 25.933 59.1111C25.933 55.4815 29.0449 52.3704 32.6756 52.3704C36.5655 52.3704 39.4181 55.4815 39.4181 59.1111C39.4181 62.7407 36.5655 65.8519 32.6756 65.8519ZM137.445 65.8519C133.555 65.8519 130.702 62.7407 130.702 59.1111C130.702 55.4815 133.814 52.3704 137.445 52.3704C141.335 52.3704 144.187 55.4815 144.187 59.1111C144.187 62.7407 141.075 65.8519 137.445 65.8519ZM160.785 57.037C160.785 57.8148 160.266 58.3333 159.488 58.5926H158.969C157.932 58.8518 154.561 58.8518 151.449 58.8518H150.671V58.5926C150.671 54.963 149.115 51.5926 146.781 49.2593C144.447 46.6667 141.075 45.3704 137.445 45.3704C133.814 45.3704 130.443 46.9259 128.109 49.2593C125.775 51.5926 124.219 54.963 124.219 58.5926V58.8518H46.1607V58.5926C46.1607 54.963 44.6047 51.5926 42.2708 49.2593C39.6775 46.6667 36.3062 45.3704 32.6756 45.3704C29.0449 45.3704 25.6737 46.9259 23.3397 49.2593C21.0057 51.5926 19.4497 54.963 19.4497 58.5926V58.8518H10.3732C8.03923 58.8518 5.96459 58.3333 4.40861 57.037C3.63062 56.5185 3.37129 55.7407 3.11196 55.4815V46.9259C3.37129 46.6667 3.63062 46.1481 3.63062 45.6296C4.14928 44.3333 4.40861 43.037 4.40861 42C4.40861 41.7407 4.40861 41.7407 4.40861 41.4815C6.74258 40.7037 8.55789 38.8889 8.55789 37.0741V18.4074H5.44593C5.70526 15.8148 5.70526 13.4815 5.96459 12.1852C7.26124 3.37036 9.07655 3.1111 9.07655 3.1111H95.4334C101.139 3.37036 106.325 5.44444 113.068 9.59259C115.661 11.1481 119.81 15.037 123.7 18.6667C128.628 23.0741 133.555 27.4815 136.667 29.5556L136.926 29.8148C139.519 30.5926 144.447 32.4074 148.855 34.2222C148.855 36.2963 148.855 38.1111 149.374 38.3704C150.152 39.1482 155.339 42 158.969 44.0741C158.969 45.1111 158.969 46.6667 158.969 48.7408V49.7778L160.007 50.2963C160.525 50.5556 161.044 51.0741 161.044 51.8519L160.785 57.037Z"/>
<path fill-rule="evenodd" clip-rule="evenodd" d="M137.445 56C135.889 56 134.592 57.2963 134.592 58.8519C134.592 60.4074 135.889 61.7037 137.445 61.7037C139.001 61.7037 140.298 60.4074 140.298 58.8519C140.298 57.2963 139.001 56 137.445 56Z"/>
<path fill-rule="evenodd" clip-rule="evenodd" d="M32.6756 56C31.1196 56 29.8229 57.2963 29.8229 58.8519C29.8229 60.4074 31.1196 61.7037 32.6756 61.7037C34.2315 61.7037 35.5282 60.4074 35.5282 58.8519C35.5282 57.2963 34.2315 56 32.6756 56Z"/>
</svg>
