<svg viewBox="0 0 179 70" fill="black" xmlns="http://www.w3.org/2000/svg">
<path d="M75.3414 27.5502H1.68676V29.7992H75.3414V27.5502Z"/>
<path fill-rule="evenodd" clip-rule="evenodd" d="M61.2852 30.0803C60.1607 30.0803 59.3173 30.9237 59.3173 32.0482C59.3173 33.1727 60.1607 34.0161 61.2852 34.0161C62.4097 34.0161 63.253 33.1727 63.253 32.0482C63.253 30.9237 62.4097 30.0803 61.2852 30.0803Z"/>
<path fill-rule="evenodd" clip-rule="evenodd" d="M45.8233 30.0803C44.6988 30.0803 43.8554 30.9237 43.8554 32.0482C43.8554 33.1727 44.6988 34.0161 45.8233 34.0161C46.9478 34.0161 47.7912 33.1727 47.7912 32.0482C47.5101 30.9237 46.6667 30.0803 45.8233 30.0803Z"/>
<path fill-rule="evenodd" clip-rule="evenodd" d="M30.0803 30.0803C28.9558 30.0803 28.1125 30.9237 28.1125 32.0482C28.1125 33.1727 28.9558 34.0161 30.0803 34.0161C31.2048 34.0161 32.0482 33.1727 32.0482 32.0482C32.0482 30.9237 31.2048 30.0803 30.0803 30.0803Z"/>
<path fill-rule="evenodd" clip-rule="evenodd" d="M14.6185 30.0803C13.494 30.0803 12.6506 30.9237 12.6506 32.0482C12.6506 33.1727 13.494 34.0161 14.6185 34.0161C15.743 34.0161 16.5864 33.1727 16.5864 32.0482C16.3052 30.9237 15.4619 30.0803 14.6185 30.0803Z"/>
<path fill-rule="evenodd" clip-rule="evenodd" d="M76.747 53.4137L77.0281 56.7872L47.5101 58.755C47.2289 61.8474 46.1044 64.3775 44.1366 66.3454C41.8876 68.5944 39.0763 69.7189 35.7028 69.7189C32.3293 69.7189 29.5181 68.3133 27.2691 66.3454C25.0201 64.0964 23.8956 61.2852 23.8956 57.9117C23.8956 54.5382 25.3012 51.7269 27.2691 49.4779C29.5181 47.2289 32.3293 46.1044 35.7028 46.1044C39.0763 46.1044 41.8876 47.5101 44.1366 49.4779C45.8233 51.1647 46.9478 53.1325 47.5101 55.3815L76.747 53.4137ZM35.7028 50.6024C31.7671 50.6024 28.3936 53.9759 28.3936 57.9117C28.3936 61.8474 31.7671 65.2209 35.7028 65.2209C39.6386 65.2209 43.0121 61.8474 43.0121 57.9117C43.0121 53.9759 39.6386 50.6024 35.7028 50.6024Z"/>
<path fill-rule="evenodd" clip-rule="evenodd" d="M127.349 10.6827C129.88 12.9317 132.41 15.4618 134.659 17.4297C136.908 19.3976 139.438 21.9277 142.249 24.1767C141.406 24.1767 140.843 24.4578 140 25.0201C138.594 26.4257 138.032 29.7992 138.032 31.7671C138.032 32.3293 138.032 32.8916 138.313 33.4538H135.221C128.193 33.4538 114.98 28.1125 114.98 28.1125V9.83936H124.819C125.944 9.83936 126.787 10.1205 127.349 10.6827Z"/>
<path fill-rule="evenodd" clip-rule="evenodd" d="M141.125 26.1446C140.281 26.9879 139.719 30.3614 139.719 31.7671C139.719 32.3293 139.719 32.6104 140.281 32.8915C140.562 33.1727 141.125 33.4538 141.406 33.4538H145.06C148.996 33.4538 144.498 26.4257 142.811 25.8634C142.249 25.5823 141.687 25.8634 141.125 26.1446Z"/>
<path fill-rule="evenodd" clip-rule="evenodd" d="M149.839 43.2932C153.775 43.2932 157.149 44.9799 159.679 47.51C162.209 50.0402 163.896 53.6948 163.896 57.6305V61.2852H161.647C161.084 63.253 159.96 65.2209 158.554 66.6265C156.305 68.8755 153.494 70 150.121 70C146.747 70 143.936 68.5944 141.687 66.6265C140.281 65.2209 139.157 63.5342 138.594 61.2852H136.064V57.6305C136.064 53.6948 137.751 50.3213 140.281 47.51C142.811 44.6988 145.904 43.2932 149.839 43.2932ZM149.839 50.6024C145.904 50.6024 142.53 53.9759 142.53 57.9117C142.53 61.8474 145.904 65.2209 149.839 65.2209C153.775 65.2209 157.149 61.8474 157.149 57.9117C157.149 53.9759 154.056 50.6024 149.839 50.6024Z"/>
<path fill-rule="evenodd" clip-rule="evenodd" d="M149.839 54.8193C148.153 54.8193 146.747 56.2249 146.747 57.9117C146.747 59.5984 148.153 61.004 149.839 61.004C151.526 61.004 152.932 59.5984 152.932 57.9117C152.932 56.2249 151.526 54.8193 149.839 54.8193Z"/>
<path fill-rule="evenodd" clip-rule="evenodd" d="M75.3414 44.1365H41.8876C43.8554 44.1365 45.5422 45.261 46.6667 46.9478C47.7912 49.759 48.6346 51.1647 48.9157 53.4137H60.4418L75.3414 59.0362V44.1365ZM28.9558 44.1365H12.9317V58.4739H17.4297V53.4137H21.9277C22.2088 51.1647 22.7711 49.759 24.1767 46.9478C25.3012 45.261 26.988 44.1365 28.9558 44.1365Z"/>
<path fill-rule="evenodd" clip-rule="evenodd" d="M24.1767 46.9478C22.49 50.8835 21.9277 52.5703 21.9277 57.0683H26.988C27.2691 52.8514 30.9237 49.4779 35.4217 49.4779C39.9197 49.4779 43.5743 52.8514 43.8554 57.0683H48.9157C48.9157 52.5703 48.3534 50.8835 46.6667 46.9478C45.8233 45.261 43.8554 44.1365 41.8876 44.1365H28.9558C26.988 44.1365 25.3012 45.261 24.1767 46.9478Z"/>
<path d="M43.0121 58.1928V57.0683C42.7309 53.4137 39.6386 50.3213 35.7028 50.3213C31.7671 50.3213 28.6747 53.1326 28.3936 57.0683V58.1928H21.0843V57.0683C21.0843 52.2892 21.9277 50.6024 23.6145 46.3856C24.739 44.1366 26.988 43.0121 29.237 43.0121H42.4498C44.9799 43.0121 46.9478 44.1366 48.0723 46.3856C49.7591 50.6024 50.6024 52.2892 50.6024 57.0683V58.1928H43.0121ZM44.9799 55.9438H48.0723C48.0723 52.2892 47.2289 50.8836 45.8233 47.2289C44.9799 45.8233 43.8554 44.9799 42.1687 44.9799H28.9558C27.2691 44.9799 25.8635 45.8233 25.3012 47.2289C23.8956 50.6024 23.0522 52.2892 23.0522 55.6627H26.1446C26.988 51.1647 30.9237 48.0723 35.4217 48.0723C40.2008 48.3534 44.1366 51.4458 44.9799 55.9438Z"/>
<path fill-rule="evenodd" clip-rule="evenodd" d="M35.7028 54.8193C34.0161 54.8193 32.6105 56.2249 32.6105 57.9117C32.6105 59.5984 34.0161 61.004 35.7028 61.004C37.3896 61.004 38.7952 59.5984 38.7952 57.9117C38.5141 56.2249 37.1085 54.8193 35.7028 54.8193Z"/>
<path d="M23.0522 57.0683H20.8032V65.2209H23.0522V57.0683Z"/>
<path d="M120.884 33.4538H115.261V35.7028H120.884V33.4538Z"/>
<path d="M88.8354 33.4538H83.2129V35.7028H88.8354V33.4538Z"/>
<path fill-rule="evenodd" clip-rule="evenodd" d="M174.578 42.7309C170.924 40.7631 163.615 36.8273 162.771 35.7028C162.49 35.4217 162.209 32.0482 162.209 29.5181C167.55 31.7671 172.892 34.2972 173.173 35.984C174.297 39.3574 174.578 40.7631 174.578 42.7309Z"/>
<path d="M77.0281 27.5502V45.8233H0V27.5502H3.37351V42.4498H73.6546V27.5502"/>
<path d="M75.3414 27.5502H1.68676V29.7992H75.3414V27.5502Z"/>
<path fill-rule="evenodd" clip-rule="evenodd" d="M61.2852 30.0803C60.1607 30.0803 59.3173 30.9237 59.3173 32.0482C59.3173 33.1727 60.1607 34.0161 61.2852 34.0161C62.4097 34.0161 63.253 33.1727 63.253 32.0482C63.253 30.9237 62.4097 30.0803 61.2852 30.0803Z"/>
<path fill-rule="evenodd" clip-rule="evenodd" d="M45.8233 30.0803C44.6988 30.0803 43.8554 30.9237 43.8554 32.0482C43.8554 33.1727 44.6988 34.0161 45.8233 34.0161C46.9478 34.0161 47.7912 33.1727 47.7912 32.0482C47.5101 30.9237 46.6667 30.0803 45.8233 30.0803Z"/>
<path fill-rule="evenodd" clip-rule="evenodd" d="M30.0803 30.0803C28.9558 30.0803 28.1125 30.9237 28.1125 32.0482C28.1125 33.1727 28.9558 34.0161 30.0803 34.0161C31.2048 34.0161 32.0482 33.1727 32.0482 32.0482C32.0482 30.9237 31.2048 30.0803 30.0803 30.0803Z"/>
<path fill-rule="evenodd" clip-rule="evenodd" d="M14.6185 30.0803C13.494 30.0803 12.6506 30.9237 12.6506 32.0482C12.6506 33.1727 13.494 34.0161 14.6185 34.0161C15.743 34.0161 16.5864 33.1727 16.5864 32.0482C16.3052 30.9237 15.4619 30.0803 14.6185 30.0803Z"/>
<path fill-rule="evenodd" clip-rule="evenodd" d="M76.747 53.4137L77.0281 56.7872L47.5101 58.755C47.2289 61.8474 46.1044 64.3775 44.1366 66.3454C41.8876 68.5944 39.0763 69.7189 35.7028 69.7189C32.3293 69.7189 29.5181 68.3133 27.2691 66.3454C25.0201 64.0964 23.8956 61.2852 23.8956 57.9117C23.8956 54.5382 25.3012 51.7269 27.2691 49.4779C29.5181 47.2289 32.3293 46.1044 35.7028 46.1044C39.0763 46.1044 41.8876 47.5101 44.1366 49.4779C45.8233 51.1647 46.9478 53.1325 47.5101 55.3815L76.747 53.4137ZM35.7028 50.6024C31.7671 50.6024 28.3936 53.9759 28.3936 57.9117C28.3936 61.8474 31.7671 65.2209 35.7028 65.2209C39.6386 65.2209 43.0121 61.8474 43.0121 57.9117C43.0121 53.9759 39.6386 50.6024 35.7028 50.6024Z"/>
<path d="M165.02 61.004H159.679V57.6305H165.02C168.394 57.6305 171.767 57.6305 172.892 57.3494H173.454C174.297 57.3494 174.859 56.506 174.859 55.6627V50.0402C174.859 49.4779 174.578 48.6345 173.735 48.3534L172.611 47.7912V46.6667C172.892 41.3253 172.892 41.0442 171.486 36.2651C170.361 34.0161 154.619 27.8313 149.277 26.4257L148.996 26.1446C145.623 24.1767 140.281 19.1165 135.221 14.6185C133.534 13.2128 131.847 11.5261 130.442 10.1205C125.382 5.62251 117.51 3.37351 107.39 3.09239H77.3093V57.6305H140.562V61.004H73.9358V0H75.6225C76.1848 0 106.827 0 107.39 0C118.635 0.281125 127.068 2.81125 132.972 7.8715C134.659 9.27712 136.064 10.6827 137.751 12.3695C142.53 16.8675 147.872 21.3655 150.964 23.3333C153.494 24.1767 174.297 30.9237 175.141 35.4217C176.546 40.2008 176.546 41.0442 176.546 45.8233C177.952 46.6667 178.795 48.3534 178.795 50.0402V55.6627C178.795 57.9117 177.108 60.1607 174.578 60.4418H173.735C172.048 61.004 167.831 61.004 165.02 61.004Z"/>
<path fill-rule="evenodd" clip-rule="evenodd" d="M127.349 10.6827C129.88 12.9317 132.41 15.4618 134.659 17.4297C136.908 19.3976 139.438 21.9277 142.249 24.1767C141.406 24.1767 140.843 24.4578 140 25.0201C138.594 26.4257 138.032 29.7992 138.032 31.7671C138.032 32.3293 138.032 32.8916 138.313 33.4538H135.221C128.193 33.4538 114.98 28.1125 114.98 28.1125V9.83936H124.819C125.944 9.83936 126.787 10.1205 127.349 10.6827Z"/>
<path fill-rule="evenodd" clip-rule="evenodd" d="M141.125 26.1446C140.281 26.9879 139.719 30.3614 139.719 31.7671C139.719 32.3293 139.719 32.6104 140.281 32.8915C140.562 33.1727 141.125 33.4538 141.406 33.4538H145.06C148.996 33.4538 144.498 26.4257 142.811 25.8634C142.249 25.5823 141.687 25.8634 141.125 26.1446Z"/>
<path fill-rule="evenodd" clip-rule="evenodd" d="M149.839 43.2932C153.775 43.2932 157.149 44.9799 159.679 47.51C162.209 50.0402 163.896 53.6948 163.896 57.6305V61.2852H161.647C161.084 63.253 159.96 65.2209 158.554 66.6265C156.305 68.8755 153.494 70 150.121 70C146.747 70 143.936 68.5944 141.687 66.6265C140.281 65.2209 139.157 63.5342 138.594 61.2852H136.064V57.6305C136.064 53.6948 137.751 50.3213 140.281 47.51C142.811 44.6988 145.904 43.2932 149.839 43.2932ZM149.839 50.6024C145.904 50.6024 142.53 53.9759 142.53 57.9117C142.53 61.8474 145.904 65.2209 149.839 65.2209C153.775 65.2209 157.149 61.8474 157.149 57.9117C157.149 53.9759 154.056 50.6024 149.839 50.6024Z"/>
<path fill-rule="evenodd" clip-rule="evenodd" d="M149.839 54.8193C148.153 54.8193 146.747 56.2249 146.747 57.9117C146.747 59.5984 148.153 61.004 149.839 61.004C151.526 61.004 152.932 59.5984 152.932 57.9117C152.932 56.2249 151.526 54.8193 149.839 54.8193Z"/>
<path fill-rule="evenodd" clip-rule="evenodd" d="M75.3414 44.1365H41.8876C43.8554 44.1365 45.5422 45.261 46.6667 46.9478C47.7912 49.759 48.6346 51.1647 48.9157 53.4137H60.4418L75.3414 59.0362V44.1365ZM28.9558 44.1365H12.9317V58.4739H17.4297V53.4137H21.9277C22.2088 51.1647 22.7711 49.759 24.1767 46.9478C25.3012 45.261 26.988 44.1365 28.9558 44.1365Z"/>
<path fill-rule="evenodd" clip-rule="evenodd" d="M24.1767 46.9478C22.49 50.8835 21.9277 52.5703 21.9277 57.0683H26.988C27.2691 52.8514 30.9237 49.4779 35.4217 49.4779C39.9197 49.4779 43.5743 52.8514 43.8554 57.0683H48.9157C48.9157 52.5703 48.3534 50.8835 46.6667 46.9478C45.8233 45.261 43.8554 44.1365 41.8876 44.1365H28.9558C26.988 44.1365 25.3012 45.261 24.1767 46.9478Z"/>
<path d="M43.0121 58.1928V57.0683C42.7309 53.4137 39.6386 50.3213 35.7028 50.3213C31.7671 50.3213 28.6747 53.1326 28.3936 57.0683V58.1928H21.0843V57.0683C21.0843 52.2892 21.9277 50.6024 23.6145 46.3856C24.739 44.1366 26.988 43.0121 29.237 43.0121H42.4498C44.9799 43.0121 46.9478 44.1366 48.0723 46.3856C49.7591 50.6024 50.6024 52.2892 50.6024 57.0683V58.1928H43.0121ZM44.9799 55.9438H48.0723C48.0723 52.2892 47.2289 50.8836 45.8233 47.2289C44.9799 45.8233 43.8554 44.9799 42.1687 44.9799H28.9558C27.2691 44.9799 25.8635 45.8233 25.3012 47.2289C23.8956 50.6024 23.0522 52.2892 23.0522 55.6627H26.1446C26.988 51.1647 30.9237 48.0723 35.4217 48.0723C40.2008 48.3534 44.1366 51.4458 44.9799 55.9438Z"/>
<path fill-rule="evenodd" clip-rule="evenodd" d="M35.7028 54.8193C34.0161 54.8193 32.6105 56.2249 32.6105 57.9117C32.6105 59.5984 34.0161 61.004 35.7028 61.004C37.3896 61.004 38.7952 59.5984 38.7952 57.9117C38.5141 56.2249 37.1085 54.8193 35.7028 54.8193Z"/>
<path d="M23.0522 57.0683H20.8032V65.2209H23.0522V57.0683Z"/>
<path fill-rule="evenodd" clip-rule="evenodd" d="M174.578 42.7309C170.924 40.7631 163.615 36.8273 162.771 35.7028C162.49 35.4217 162.209 32.0482 162.209 29.5181C167.55 31.7671 172.892 34.2972 173.173 35.984C174.297 39.3574 174.578 40.7631 174.578 42.7309Z"/>
<path fill-rule="evenodd" clip-rule="evenodd" d="M104.578 9.83936H85.1808C84.0563 9.83936 83.2129 11.245 83.2129 12.9317V26.7068C83.2129 28.3936 84.0563 29.7992 85.1808 29.7992H104.578C105.703 29.7992 106.546 28.3936 106.546 26.7068V12.9317C106.546 10.9639 105.703 9.83936 104.578 9.83936Z"/>
</svg>
