<svg viewBox="0 0 142 70" fill="black" xmlns="http://www.w3.org/2000/svg">
<path d="M84.6667 50.8889H0V4C0 1.77778 1.77778 0 4 0H80.6667C81.1111 0 81.7778 0 82.2222 0.222222C82.6667 0.444444 83.1111 0.666667 83.5555 1.11111C84 1.55556 84.2222 2 84.4444 2.44444C84.6667 2.88889 84.6667 3.33333 84.6667 4V50.8889ZM2.66667 48.2222H82V3.77778C82 3.55556 82 3.33333 82 3.33333C82 3.11111 81.7778 3.11111 81.7778 2.88889C81.5555 2.66667 81.5555 2.66667 81.3333 2.66667C81.1111 2.66667 80.8889 2.66667 80.8889 2.66667H4C3.33333 2.66667 2.66667 3.33333 2.66667 4V48.2222Z"/>
<path fill-rule="evenodd" clip-rule="evenodd" d="M60.6667 56.8889L60.8889 59.5556L37.5556 61.1111C37.3333 63.5556 36.4444 65.5556 34.8889 67.1111C33.1111 68.8889 30.8889 69.7778 28.2222 69.7778C25.5556 69.7778 23.3333 68.6667 21.5556 67.1111C19.7778 65.5556 18.8889 63.1111 18.8889 60.4444C18.8889 57.7778 20 55.5556 21.5556 53.7778C23.3333 52 25.5556 51.1111 28.2222 51.1111C30.8889 51.1111 33.1111 52.2222 34.8889 53.7778C36.2222 55.1111 37.1111 56.6667 37.5556 58.4444L60.6667 56.8889ZM28.2222 54.6667C25.1111 54.6667 22.4444 57.3333 22.4444 60.4444C22.4444 63.5556 25.1111 66.2222 28.2222 66.2222C31.3333 66.2222 34 63.5556 34 60.4444C34 57.3333 31.3333 54.6667 28.2222 54.6667Z"/>
<path d="M130.444 63.1111H126.222V60.4444H130.444C133.111 60.4444 135.778 60.4444 136.667 60.2222H137.111C137.778 60.2222 138.222 59.5556 138.222 58.8889V54.4444C138.222 54 138 53.3333 137.333 53.1111L136.444 52.6667V51.7778C136.667 47.5556 136.667 47.3333 135.556 43.5556C134.667 41.7778 122.222 36.8889 118 35.7778L117.778 35.5556C115.111 34 110.889 30 106.889 26.4444C105.556 25.3333 104.222 24 103.111 22.8889C99.1111 19.3333 92.8889 17.3333 84.6667 17.3333V60.4444H110.889V63.1111H82V14.6667H83.3333C92.8889 14.6667 100 16.8889 104.889 20.8889C106.222 22 107.333 23.1111 108.667 24.4444C112.444 28 116.667 31.5556 119.111 33.1111C121.111 33.7778 137.556 39.1111 138.222 42.6667C139.333 46.4444 139.333 47.1111 139.333 50.8889C140.444 51.5556 141.111 52.8889 141.111 54.2222V58.6667C141.111 60.4444 139.778 62.2222 137.778 62.4444H137.111C136 62.8889 132.889 63.1111 130.444 63.1111Z"/>
<path fill-rule="evenodd" clip-rule="evenodd" d="M100.667 23.1111C102.667 24.8889 104.667 26.8889 106.444 28.4444C108.222 30 110.222 32 112.444 33.7778C111.778 33.7778 111.333 34 110.667 34.4444C109.556 35.5556 109.111 38.2222 109.111 39.7778C109.111 40.2222 109.111 40.6667 109.556 41.1111H107.111C101.556 41.1111 91.1111 36.8889 91.1111 36.8889V22.4444H98.8889C99.5555 22.4444 100.222 22.6667 100.667 23.1111Z"/>
<path fill-rule="evenodd" clip-rule="evenodd" d="M111.556 35.3333C110.889 36 110.444 38.6667 110.444 39.7778C110.444 40.2222 110.444 40.4444 110.889 40.6667C111.111 40.8889 111.556 41.1111 111.778 41.1111H114.667C117.778 41.1111 114.222 35.5556 112.889 35.1111C112.444 34.8889 112 35.1111 111.556 35.3333Z"/>
<path fill-rule="evenodd" clip-rule="evenodd" d="M118.444 48.8889C121.556 48.8889 124.222 50.2222 126.444 52.2222C128.444 54.2222 129.778 57.1111 129.778 60.2222V63.1111H127.778C127.333 64.6667 126.444 66.2222 125.333 67.3333C123.556 69.1111 121.333 70 118.667 70C116 70 113.778 68.8889 112 67.3333C110.889 66.2222 110 64.8889 109.556 63.1111H107.556V60.2222C107.556 57.1111 108.889 54.4444 110.889 52.2222C112.667 50.2222 115.556 48.8889 118.444 48.8889ZM118.444 54.6667C115.333 54.6667 112.667 57.3333 112.667 60.4444C112.667 63.5556 115.333 66.2222 118.444 66.2222C121.556 66.2222 124.222 63.5556 124.222 60.4444C124.444 57.3333 121.778 54.6667 118.444 54.6667Z"/>
<path fill-rule="evenodd" clip-rule="evenodd" d="M118.444 58C117.111 58 116 59.1111 116 60.4444C116 61.7778 117.111 62.8889 118.444 62.8889C119.778 62.8889 120.889 61.7778 120.889 60.4444C120.889 59.1111 119.778 58 118.444 58Z"/>
<path fill-rule="evenodd" clip-rule="evenodd" d="M83.3333 49.5556H33.3333C34.8889 49.5556 36.2222 50.4444 37.1111 51.7778C38 54 38.6667 55.1111 38.8889 56.8889H48L59.7778 61.3333H83.3333V60.2222C83.3333 58.2222 83.3333 51.5556 83.3333 49.5556ZM22.8889 49.5556H10.2222C10.2222 52.4444 10.2222 58 10.2222 60.8889H13.7778V56.8889H17.3333C17.5556 55.1111 18 54 19.1111 51.7778C20 50.4444 21.3333 49.5556 22.8889 49.5556Z"/>
<path fill-rule="evenodd" clip-rule="evenodd" d="M19.3333 51.7778C18 54.8889 17.5556 56.2222 17.5556 59.7778H21.5556C21.7778 56.4444 24.6667 53.7778 28.2222 53.7778C31.7778 53.7778 34.6667 56.4444 34.8889 59.7778H38.8889C38.8889 56 38.4444 54.8889 37.1111 51.7778C36.4444 50.4444 34.8889 49.5556 33.3333 49.5556H23.1111C21.3333 49.5556 20 50.4444 19.3333 51.7778Z"/>
<path d="M39.7778 60.6667H34V59.7778C33.7778 56.8889 31.3333 54.4444 28.2222 54.4444C25.1111 54.4444 22.6667 56.6667 22.4444 59.7778V60.6667H16.4444V59.7778C16.4444 56 17.1111 54.6667 18.4444 51.3333C19.3333 49.5556 21.1111 48.6667 22.8889 48.6667H33.3333C35.3333 48.6667 36.8889 49.5556 37.7778 51.3333C39.1111 54.6667 39.7778 56 39.7778 59.7778V60.6667ZM35.5556 58.8889H38C38 56 37.3333 54.8889 36.2222 52C35.5556 51.1111 34.6667 50.4444 33.3333 50.4444H22.8889C21.5556 50.4444 20.4444 51.1111 20 52.2222C18.8889 55.1111 18.2222 56.2222 18.2222 58.8889H20.6667C21.3333 55.3333 24.4444 52.8889 28 52.8889C31.7778 52.8889 34.8889 55.3333 35.5556 58.8889Z"/>
<path fill-rule="evenodd" clip-rule="evenodd" d="M28.2222 58C26.8889 58 25.7778 59.1111 25.7778 60.4444C25.7778 61.7778 26.8889 62.8889 28.2222 62.8889C29.5556 62.8889 30.6667 61.7778 30.6667 60.4444C30.4444 59.1111 29.5556 58 28.2222 58Z"/>
<path d="M18.2222 59.7778H16.4444V66.4444H18.2222V59.7778Z"/>
<path d="M95.5555 41.1111H89.5555V42.8889H95.5555V41.1111Z"/>
<path fill-rule="evenodd" clip-rule="evenodd" d="M138 48.4444C134.889 46.8889 129.333 43.7778 128.667 42.8889C128.444 42.6667 128.222 40 128.222 38C132.444 39.7778 136.667 41.7778 136.889 43.1111C137.778 45.7778 138 46.8889 138 48.4444Z"/>
<path fill-rule="evenodd" clip-rule="evenodd" d="M82.2222 4.88889H92.2222C95.0581 4.88889 97.3333 7.16413 97.3333 10V13.7778H82.2222V4.88889ZM84.4444 7.11111V11.5556H95.1111V10C95.1111 8.39143 93.8308 7.11111 92.2222 7.11111H84.4444Z"/>
<path fill-rule="evenodd" clip-rule="evenodd" d="M89.5555 12.2222V6H91.7778V12.2222H89.5555Z"/>
</svg>
