<svg viewBox="0 0 135 70" fill="black" xmlns="http://www.w3.org/2000/svg">
<path d="M127.71 63.2866H120.529L120.216 62.9744C119.748 62.6621 119.436 62.1937 118.967 62.0376L120.06 60.6325C120.372 60.9447 120.841 61.257 121.153 61.5692H127.398L132.238 60.3202V53.6069L130.677 48.9231H132.238V40.3362C132.238 37.2137 130.208 30.3442 128.647 25.3482C128.179 23.787 127.71 22.2257 127.398 21.1329C126.774 18.9471 123.183 17.6981 117.25 17.6981H104.135V45.9567H102.262V15.8246H117.25C124.276 15.8246 128.335 17.3858 129.115 20.5084C129.428 21.6012 129.896 23.1625 130.364 24.7237C132.082 30.032 134.111 36.7454 134.111 40.1801V50.4844H133.175L134.111 53.1385V61.4131L127.71 63.2866Z" />
<path fill-rule="evenodd" clip-rule="evenodd" d="M132.862 37.6821C132.082 33.1545 129.896 26.4411 128.647 22.2257H126.461L129.584 36.9015C129.584 36.9015 131.145 37.0576 132.862 37.6821Z" />
<path fill-rule="evenodd" clip-rule="evenodd" d="M100.388 62.3499V57.3539C100.388 52.6701 104.292 48.767 108.975 48.767H110.537C116.157 48.767 120.685 53.2946 120.685 58.9151V62.1937H119.123C118.811 64.0672 117.874 65.6285 116.625 67.0336C114.908 68.751 112.566 69.8439 109.912 69.8439C107.258 69.8439 104.916 68.751 103.199 67.0336C101.95 65.7846 101.013 64.0672 100.701 62.1937H100.388V62.3499ZM109.912 55.9487C107.414 55.9487 105.384 57.9784 105.384 60.4764C105.384 62.9744 107.414 65.004 109.912 65.004C112.41 65.004 114.44 62.9744 114.44 60.4764C114.44 57.9784 112.41 55.9487 109.912 55.9487Z" />
<path d="M120.216 62.9744V59.0712C120.216 53.763 115.845 49.5476 110.693 49.5476H109.131C104.76 49.5476 101.169 53.1385 101.169 57.51V63.1305H97.1098V55.6365C97.1098 49.7037 102.418 44.3955 108.351 44.3955H110.224C117.25 44.3955 123.963 50.7966 123.963 57.51V62.9744H120.216ZM122.558 61.7254V57.1977C122.558 51.265 116.313 45.3322 110.068 45.3322H108.195C103.043 45.3322 98.2027 50.1721 98.2027 55.3242V61.7254H99.7639V57.3539C99.7639 52.3579 103.823 48.1425 108.975 48.1425H110.537C116.469 48.1425 121.309 52.9824 121.309 58.9151V61.7254H122.558Z" />
<path fill-rule="evenodd" clip-rule="evenodd" d="M109.912 57.9784C108.507 57.9784 107.414 59.0712 107.414 60.4764C107.414 61.8815 108.507 62.9744 109.912 62.9744C111.317 62.9744 112.41 61.8815 112.41 60.4764C112.41 59.0712 111.317 57.9784 109.912 57.9784Z" />
<path fill-rule="evenodd" clip-rule="evenodd" d="M114.752 16.7613C109.756 13.9511 106.633 13.1705 102.106 13.0143C101.169 13.0143 100.388 13.795 100.232 14.7317C99.6078 23.4747 98.9833 32.2177 98.3588 40.8046V53.6069C98.8272 50.4844 100.857 47.6741 103.355 46.1129L103.043 45.9567C103.043 36.277 103.043 26.4411 103.043 16.7613H114.752Z" />
<path d="M133.175 53.2946H129.584V59.5396H133.175V53.2946Z" />
<path d="M130.833 55.3242H123.027V56.5732H130.833V55.3242Z" />
<path d="M116.001 40.9607H112.098V42.2097H116.001V40.9607Z" />
<path d="M130.677 58.2906H123.027V59.5396H130.677V58.2906Z" />
<path fill-rule="evenodd" clip-rule="evenodd" d="M99.2955 50.6405H11.7094V56.8855H23.731L34.972 52.8262C35.9088 52.2017 37.47 55.7926 38.719 55.7926C39.968 55.7926 40.9048 52.2017 41.8415 52.8262L53.5509 56.8855H97.8904V55.3242C97.8904 53.763 98.5149 52.0456 99.2955 50.6405Z" />
<path fill-rule="evenodd" clip-rule="evenodd" d="M58.2347 61.4131C58.0785 63.5989 56.9857 65.6285 55.5805 67.1898C53.8632 68.9071 51.5213 70 48.8671 70C46.213 70 43.8711 68.9071 42.1538 67.1898C40.5925 65.6285 39.6558 63.5989 39.4996 61.4131H37.47V60.4764C37.47 57.1977 38.5629 54.2314 40.5925 52.0456C42.466 50.1721 45.2763 48.9231 49.0233 48.9231C52.7703 48.9231 55.4244 50.1721 57.454 52.0456C59.6398 54.2314 60.5765 57.1977 60.5765 60.4764V61.4131H58.2347ZM48.8671 55.9487C46.3691 55.9487 44.3395 57.9784 44.3395 60.4764C44.3395 62.9744 46.3691 65.004 48.8671 65.004C51.3652 65.004 53.3948 62.9744 53.3948 60.4764C53.5509 57.9784 51.5213 55.9487 48.8671 55.9487Z" />
<path fill-rule="evenodd" clip-rule="evenodd" d="M48.8671 57.9784C47.462 57.9784 46.3692 59.0712 46.3692 60.4764C46.3692 61.8815 47.462 62.9744 48.8671 62.9744C50.2723 62.9744 51.3652 61.8815 51.3652 60.4764C51.3652 59.0712 50.2723 57.9784 48.8671 57.9784Z" />
<path fill-rule="evenodd" clip-rule="evenodd" d="M79.1554 54.6997H62.7623V59.8519C62.7623 60.7886 63.5429 61.7254 64.6358 61.7254H77.438C78.3748 61.7254 79.3115 60.9447 79.3115 59.8519V58.9151H80.5605V59.0712C80.5605 60.4764 81.6534 61.4131 82.9024 61.4131C83.8392 61.4131 84.7759 60.7886 85.0882 60.008H88.0545C88.3668 60.7886 89.3035 61.4131 90.2403 61.4131C91.6454 61.4131 92.5822 60.3202 92.5822 59.0712V58.9151H93.3628V61.4131H98.2027V54.6997H93.3628V55.7926H79.1554V54.6997Z" />
<path d="M133.175 40.9607H130.833V46.8935H133.175V40.9607Z" />
<path fill-rule="evenodd" clip-rule="evenodd" d="M123.027 23.787H112.41V32.2177C112.41 33.1545 113.035 33.779 113.971 33.9351L126.617 36.1209L126.305 34.2474C125.993 34.4035 125.681 34.5596 125.212 34.5596H124.744C123.807 34.5596 123.027 33.779 123.027 32.8422V24.7237C122.87 24.4115 122.87 24.0992 123.027 23.787ZM125.056 23.787C125.525 23.787 125.993 24.2554 125.993 24.7237V32.8422C125.993 33.3106 125.525 33.779 125.056 33.779H124.588C124.119 33.779 123.651 33.3106 123.651 32.8422V24.7237C123.651 24.2554 124.119 23.787 124.588 23.787H125.056Z" />
<path d="M34.1914 50.4844C32.474 49.5476 30.4444 48.9231 27.9464 48.9231C24.1994 48.9231 21.5453 50.1721 19.5156 52.0456C17.3299 54.2314 16.3931 57.1977 16.3931 60.4764V61.4131H18.5789C18.735 63.5989 19.8279 65.6285 21.233 67.1898C22.9504 68.9071 25.2923 70 27.9464 70C30.6005 70 32.9424 68.9071 34.6598 67.1898C36.221 65.6285 37.1578 63.5989 37.3139 61.4131H39.4996V60.4764C39.4996 57.3539 38.5629 54.3875 36.5333 52.3579H34.1914V50.4844ZM27.9464 65.004C25.4484 65.004 23.4188 62.9744 23.4188 60.4764C23.4188 57.9784 25.4484 55.9487 27.9464 55.9487C30.4444 55.9487 32.474 57.9784 32.474 60.4764C32.6301 62.9744 30.6005 65.004 27.9464 65.004Z" />
<path d="M27.9464 57.9784C26.5413 57.9784 25.4484 59.0712 25.4484 60.4764C25.4484 61.8815 26.5413 62.9744 27.9464 62.9744C29.3515 62.9744 30.4444 61.8815 30.4444 60.4764C30.4444 59.0712 29.3515 57.9784 27.9464 57.9784Z" />
<path d="M74.1594 52.3579H88.2107V48.4547H74.1594V52.3579Z" />
<path d="M20.9208 45.1761H74.1594L83.3708 18.4787H89.928V46.1129L87.1178 48.9231H11.8655L2.65413 21.6012H0V15.8246H7.33788L20.9208 45.1761Z" />
<path fill-rule="evenodd" clip-rule="evenodd" d="M30.9161 0.471116C34.4895 0.238067 38.5162 0.000305779 40.1241 0.000305779C40.6253 0.000305779 41.3428 0.0981764 42.1559 0.242388C42.9922 0.39073 44.0051 0.6024 45.1327 0.858173C47.3893 1.37002 50.1416 2.06685 52.9296 2.81031C58.4822 4.291 64.2392 5.97363 66.5551 6.77079C67.8408 7.17318 69.3478 8.01345 70.8322 8.98086C72.3432 9.96568 73.9101 11.1354 75.3204 12.2498C76.7328 13.3659 78.0002 14.4361 78.9141 15.2268C79.3713 15.6225 79.7409 15.9488 79.9967 16.1768C80.1246 16.2908 80.2242 16.3803 80.2921 16.4416L80.3699 16.5119L80.3903 16.5304L80.3972 16.5367C80.3973 16.5369 80.3979 16.5374 79.6238 17.3858L80.7351 17.6759L80.6516 17.9951C80.5975 18.2016 80.5188 18.5021 80.4199 18.8782C80.222 19.6304 79.9437 20.6853 79.6213 21.8966C78.9769 24.3179 78.1556 27.3686 77.4508 29.8746C76.7377 32.4099 75.7887 35.2176 74.877 37.5364C74.4215 38.6951 73.9695 39.7464 73.5554 40.5875C73.1729 41.3642 72.7568 42.1029 72.3392 42.5314C72.1011 42.7877 71.8001 42.9364 71.5978 43.0234C71.3555 43.1275 71.078 43.2149 70.7904 43.2906C70.2127 43.4426 69.484 43.5755 68.6772 43.6927C67.057 43.9281 65.009 44.1159 62.9764 44.2534C60.94 44.3911 58.8975 44.4798 57.281 44.5143C56.4736 44.5316 55.7644 44.5355 55.2114 44.5247C54.9356 44.5193 54.6896 44.5101 54.4851 44.4961C54.3096 44.484 54.0961 44.4645 53.914 44.421C53.1242 44.2422 49.0543 43.0159 44.4936 41.6303C42.9393 41.1582 41.3181 40.6643 39.7319 40.1812C36.5933 39.2252 33.5921 38.3111 31.5195 37.6893C29.7947 37.1719 27.9259 36.1315 26.1329 34.9212C24.3263 33.7018 22.5327 32.2657 20.9512 30.9017C19.3677 29.5359 17.984 28.2312 16.9965 27.2683C16.5023 26.7865 16.1064 26.3894 15.8332 26.1118C15.6966 25.9731 15.5906 25.8641 15.5183 25.7893L15.4354 25.7034L15.4136 25.6806L15.4061 25.6728C15.4059 25.6726 15.4053 25.6719 16.237 24.8799L15.4061 25.6728C15.109 25.3608 15.0106 24.9079 15.1527 24.5011L23.1151 1.70683C23.266 1.27475 23.6591 0.973519 24.1156 0.940118L24.1994 2.08559C24.1156 0.940118 24.1155 0.940126 24.1156 0.940118L24.6732 0.899764C25.0299 0.874112 25.5428 0.837476 26.168 0.793518C27.4182 0.705609 29.1181 0.588374 30.9161 0.471116ZM25.0348 3.17678L17.5558 24.5872C17.8143 24.8488 18.1682 25.2026 18.6001 25.6236C19.5641 26.5635 20.9125 27.8349 22.4515 29.1623C23.9926 30.4914 25.7118 31.8656 27.418 33.0173C29.1378 34.1781 30.7818 35.0698 32.1795 35.4891C34.2566 36.1123 37.2664 37.029 40.4082 37.986C41.9932 38.4687 43.6118 38.9617 45.1613 39.4324C49.8269 40.8498 53.7784 42.0378 54.4246 42.1814L54.454 42.1884C54.4483 42.1869 54.4452 42.1862 54.4453 42.1861C54.4454 42.1853 54.5002 42.1946 54.6426 42.2044C54.7954 42.2149 55.0005 42.2231 55.2562 42.2281C55.7663 42.238 56.4415 42.2347 57.2319 42.2178C58.811 42.184 60.8181 42.097 62.8214 41.9615C64.8285 41.8258 66.8105 41.6428 68.3469 41.4195C69.1185 41.3074 69.7498 41.1891 70.2058 41.0691C70.4351 41.0088 70.5928 40.955 70.6908 40.9129C70.7023 40.908 70.7123 40.9035 70.7207 40.8996C70.8539 40.7475 71.1212 40.3311 71.4946 39.5727C71.8708 38.8086 72.2971 37.8205 72.7392 36.6959C73.623 34.4481 74.5475 31.7133 75.2395 29.2526C75.9399 26.7626 76.7578 23.7244 77.4015 21.3058C77.7232 20.0972 78.001 19.0445 78.1983 18.2939C78.2496 18.0991 78.2954 17.9247 78.3351 17.7732C78.0973 17.5622 77.7843 17.2869 77.4111 16.9639C76.5148 16.1885 75.2745 15.1413 73.8962 14.0521C72.5157 12.9612 71.0089 11.8379 69.5779 10.9053C68.1271 9.95972 66.8309 9.26151 65.8566 8.95914C65.8452 8.95561 65.8339 8.9519 65.8226 8.94801C63.6 8.18161 57.8959 6.512 52.3377 5.02981C49.5638 4.29009 46.842 3.6013 44.6246 3.09834C43.5152 2.8467 42.5412 2.64367 41.7547 2.50415C40.9448 2.36051 40.4036 2.29737 40.1241 2.29737C38.6096 2.29737 34.6739 2.52799 31.0656 2.76331C29.2727 2.88024 27.5768 2.9972 26.3291 3.08493C25.8124 3.12126 25.3727 3.15257 25.0348 3.17678ZM79.6238 17.3858L80.7351 17.6759C80.8428 17.2632 80.7122 16.8242 80.3972 16.5367L79.6238 17.3858Z" />
<path fill-rule="evenodd" clip-rule="evenodd" d="M19.9608 3.26301C20.1948 3.57008 20.2588 3.97414 20.1313 4.33851L14.6669 19.951C14.5283 20.3472 14.1846 20.6362 13.7705 20.7047C13.3564 20.7733 12.9378 20.6105 12.6789 20.2801L8.15129 14.5035C7.91347 14.2 7.84374 13.7975 7.96566 13.4318L11.0882 4.06427C11.2354 3.62243 11.635 3.31327 12.0996 3.28159L18.9691 2.81322C19.3543 2.78696 19.7269 2.95594 19.9608 3.26301ZM13.0239 5.52097L10.3401 13.5724L13.1922 17.2112L17.3879 5.22343L13.0239 5.52097Z" />
<path fill-rule="evenodd" clip-rule="evenodd" d="M40.4633 0.0515274C41.0693 0.238845 41.4088 0.88198 41.2215 1.48801L30.605 35.8355C30.4176 36.4416 29.7745 36.781 29.1685 36.5937C28.5624 36.4064 28.223 35.7632 28.4103 35.1572L39.0268 0.809671C39.2142 0.203642 39.8573 -0.135791 40.4633 0.0515274Z" />
<path fill-rule="evenodd" clip-rule="evenodd" d="M65.6031 6.60993C66.2085 6.79928 66.5458 7.44355 66.3564 8.04895L55.2716 43.4893C55.0822 44.0947 54.4379 44.432 53.8325 44.2427C53.2272 44.0533 52.8899 43.409 53.0792 42.8036L64.1641 7.36324C64.3535 6.75784 64.9977 6.42057 65.6031 6.60993Z" />
</svg>
