<svg viewBox="0 0 122 70" fill="black" xmlns="http://www.w3.org/2000/svg">
<path d="M81.7482 47.972H0V0H81.7482V47.972ZM1.95804 46.014H79.9534V1.95804H1.95804V46.014Z"/>
<path d="M115.198 62.9837H107.529L107.203 62.6573C106.713 62.1678 106.387 61.8415 105.897 61.5152L107.04 59.8834C107.366 60.2098 107.855 60.5361 108.182 60.8625H114.872L119.93 59.5571V52.3776L118.298 47.4825H119.93V38.345C119.93 34.9184 117.646 27.7389 116.177 22.5175C115.688 20.7226 115.198 19.2541 114.872 17.9487C114.219 15.9907 110.466 14.6853 104.103 14.6853H90.2331V44.5455H88.2751V12.8904H104.103C111.608 12.8904 115.851 14.5221 116.667 17.7855C116.993 18.9277 117.483 20.5594 117.972 22.1911C119.767 27.9021 121.888 34.9184 121.888 38.5082V49.4406H120.909L121.888 52.2145V61.0256L115.198 62.9837Z"/>
<path fill-rule="evenodd" clip-rule="evenodd" d="M120.746 35.8974C119.93 31.1655 117.646 23.986 116.177 19.5804H113.893L117.156 35.0816C117.319 35.0816 118.951 35.2448 120.746 35.8974Z"/>
<path fill-rule="evenodd" clip-rule="evenodd" d="M86.317 62.0047V56.7832C86.317 51.7249 90.3963 47.6457 95.4545 47.6457H97.0862C102.96 47.6457 107.855 52.5408 107.855 58.4149V62.0047H106.061C105.734 63.9627 104.755 65.7576 103.287 67.0629C101.492 68.8578 99.0443 70 96.2704 70C93.4965 70 91.0489 68.8578 89.2541 67.0629C87.9487 65.7576 86.9697 63.9627 86.4802 62.0047H86.317ZM96.4336 55.1515C93.8228 55.1515 91.5385 57.2727 91.5385 60.0466C91.5385 62.6573 93.6597 64.9417 96.4336 64.9417C99.0443 64.9417 101.329 62.8205 101.329 60.0466C101.329 57.2727 99.0443 55.1515 96.4336 55.1515Z"/>
<path d="M107.203 62.6573V58.4149C107.203 52.8671 102.634 48.2984 97.0862 48.2984H95.4545C90.7226 48.2984 86.9697 52.0513 86.9697 56.7832V62.6573H82.7273V54.662C82.7273 48.4615 88.4382 42.7506 94.6387 42.7506H96.5967C104.103 42.7506 111.119 49.4406 111.119 56.62V62.6573H107.203ZM108.508 61.352H109.65V56.62C109.65 50.2564 103.124 44.0559 96.4336 44.0559H94.6387C89.2541 44.0559 84.0326 49.1142 84.0326 54.662V61.352H85.6643V56.7832C85.6643 51.3986 90.0699 46.993 95.4545 46.993H97.0862C103.45 46.993 108.508 52.0513 108.508 58.4149V61.352Z"/>
<path fill-rule="evenodd" clip-rule="evenodd" d="M96.4336 57.4359C94.965 57.4359 93.8228 58.5781 93.8228 60.0466C93.8228 61.5151 94.965 62.6573 96.4336 62.6573C97.9021 62.6573 99.0443 61.5151 99.0443 60.0466C99.0443 58.5781 97.9021 57.4359 96.4336 57.4359Z"/>
<path fill-rule="evenodd" clip-rule="evenodd" d="M101.492 13.7063C96.2704 10.7692 93.007 9.95338 88.1119 9.79021C87.1329 9.79021 86.1538 10.6061 86.1538 11.5851C85.5012 20.8858 84.8485 30.0233 84.1958 39.1608V52.704C84.6853 49.4406 86.8065 46.5035 89.5804 44.7086L89.2541 44.5455C89.2541 34.2657 89.2541 23.986 89.2541 13.7063H101.492Z"/>
<path d="M121.072 52.3776H117.319V59.0676H121.072V52.3776Z"/>
<path d="M118.462 54.662H110.303V55.9674H118.462V54.662Z"/>
<path d="M102.797 39.324H98.7179V40.6294H102.797V39.324Z"/>
<path d="M118.462 57.7622H110.303V59.0676H118.462V57.7622Z"/>
<path fill-rule="evenodd" clip-rule="evenodd" d="M85.1748 49.6037H10.7692V56.2937H28.7179C29.5338 55.641 30.676 55.1515 31.8182 55.1515C32.9604 55.1515 34.1026 55.4779 34.9184 56.2937H84.0326V54.662C84.0326 52.8671 84.359 51.2354 85.1748 49.6037Z"/>
<path fill-rule="evenodd" clip-rule="evenodd" d="M41.7716 61.0256C41.6084 63.4732 40.4662 65.5944 38.8345 67.0629C37.0396 68.8578 34.5921 70 31.8182 70C29.0443 70 26.5967 68.8578 24.8019 67.0629C23.1702 65.4312 22.1911 63.31 21.8648 61.0256H19.5804V60.0466C19.5804 56.62 20.7226 53.3566 22.8438 51.0723C24.8019 49.1142 27.7389 47.8089 31.655 47.8089C35.5711 47.8089 38.5082 49.1142 40.4662 51.0723C42.7506 53.3566 43.7296 56.4569 43.7296 60.0466V61.0256H41.7716ZM31.8182 55.1515C29.2075 55.1515 26.9231 57.2727 26.9231 60.0466C26.9231 62.6573 29.0443 64.9417 31.8182 64.9417C34.4289 64.9417 36.7133 62.8205 36.7133 60.0466C36.7133 57.2727 34.4289 55.1515 31.8182 55.1515Z"/>
<path fill-rule="evenodd" clip-rule="evenodd" d="M31.8182 57.4359C30.3496 57.4359 29.2075 58.5781 29.2075 60.0466C29.2075 61.5151 30.3496 62.6573 31.8182 62.6573C33.2867 62.6573 34.4289 61.5151 34.4289 60.0466C34.4289 58.5781 33.2867 57.4359 31.8182 57.4359Z"/>
<path fill-rule="evenodd" clip-rule="evenodd" d="M63.7995 53.8462H46.5035V59.2308C46.5035 60.2098 47.3193 61.1888 48.4615 61.1888H62.0047C62.9837 61.1888 63.9627 60.373 63.9627 59.2308V58.2517H65.2681V58.4149C65.2681 59.8834 66.4103 61.0256 67.8788 61.0256C68.8578 61.0256 69.8368 60.373 70.1632 59.5571H73.2634C73.5897 60.5361 74.5688 61.0256 75.5478 61.0256C77.0163 61.0256 78.1585 59.8834 78.1585 58.4149V58.2517H78.9744V61.0256H84.0326V54.0093H78.9744V55.1515H63.7995V53.8462Z"/>
<path fill-rule="evenodd" clip-rule="evenodd" d="M9.3007 57.1096H7.01632V62.8205H9.3007V61.1888L13.5431 58.2517H20.5594V54.1725H12.2378V55.9674L9.3007 58.5781V57.1096Z"/>
<path d="M121.072 39.324H118.625V45.6876H121.072V39.324Z"/>
<path d="M73.2634 46.993H58.4149V51.3986H73.2634V46.993Z"/>
<path d="M31.1655 46.993H16.317V51.3986H31.1655V46.993Z"/>
<path fill-rule="evenodd" clip-rule="evenodd" d="M110.303 21.2121H99.0443V30.0233C99.0443 31.0023 99.697 31.8182 100.676 31.9814L114.056 34.2657L113.73 32.3077C113.403 32.4709 113.077 32.634 112.587 32.634H112.098C111.119 32.634 110.14 31.8182 110.14 30.676V22.028C110.14 21.7016 110.14 21.3753 110.303 21.2121ZM112.424 21.2121C112.914 21.2121 113.403 21.7016 113.403 22.1911V30.8392C113.403 31.3287 112.914 31.8182 112.424 31.8182H111.935C111.445 31.8182 110.956 31.3287 110.956 30.8392V22.1911C110.956 21.7016 111.445 21.2121 111.935 21.2121H112.424Z"/>
<path fill-rule="evenodd" clip-rule="evenodd" d="M79.8848 0.910408H91.5385C94.2383 0.910408 96.339 3.01115 96.339 5.71096V8.32168H95.2914V9.36931H79.8848V0.910408ZM94.2437 7.27404V5.71096C94.2437 4.16834 93.0811 3.00568 91.5385 3.00568H81.98V7.27404H94.2437Z"/>
<path fill-rule="evenodd" clip-rule="evenodd" d="M89.0223 7.83217V1.95804H91.1176V7.83217H89.0223Z"/>
</svg>
