<svg viewBox="0 0 122 70" fill="black" xmlns="http://www.w3.org/2000/svg">
<path fill-rule="evenodd" clip-rule="evenodd" d="M0 48.0055H81.8145V0H0V48.0055ZM1.91709 46.0863H79.8985V1.91923H1.91709V46.0863Z"/>
<path fill-rule="evenodd" clip-rule="evenodd" d="M115.159 62.9671H107.534L107.259 62.712C106.817 62.3006 106.386 61.9469 105.968 61.6415L107.096 60.0898C107.482 60.3706 107.875 60.6889 108.281 61.0479H114.908L120.029 59.6762V52.5522L118.337 47.6593H120.029V38.5978C120.029 35.2105 117.814 28.0265 116.197 22.7789C115.668 21.059 115.189 19.5073 114.848 18.29C114.204 15.9957 110.39 14.7333 104.104 14.7333H90.1799V44.661H88.2628V12.8141H104.104C111.538 12.8141 115.774 14.4815 116.696 17.7724C117.032 18.9779 117.506 20.5125 118.031 22.2142C119.776 27.8765 121.946 34.9223 121.946 38.5978V49.5785H121.03L121.946 52.3915V61.1486L115.159 62.9671Z"/>
<path fill-rule="evenodd" clip-rule="evenodd" d="M120.712 35.8862C119.908 31.1325 117.542 23.9914 116.2 19.5035H113.92L117.235 35.016C117.235 35.016 118.865 35.2025 120.712 35.8862Z"/>
<path fill-rule="evenodd" clip-rule="evenodd" d="M96.3975 55.1541C93.7131 55.1541 91.5378 57.3305 91.5378 60.0138C91.5378 62.6992 93.7131 64.8745 96.3975 64.8745C99.0807 64.8745 101.257 62.6992 101.257 60.0138C101.257 57.3305 99.0807 55.1541 96.3975 55.1541ZM86.3137 62.008V56.7711C86.3137 51.7667 90.4061 47.6743 95.4094 47.6743H97.1122C103.051 47.6743 107.91 52.5329 107.91 58.4728V62.008H106.183C105.787 63.9637 104.816 65.7136 103.458 67.0713V67.0756C101.652 68.8812 99.1536 70 96.3975 70C93.6434 70 91.1466 68.8812 89.3378 67.0735L89.3356 67.0756C87.9768 65.7157 87.007 63.9669 86.6105 62.008H86.3137Z"/>
<path fill-rule="evenodd" clip-rule="evenodd" d="M108.55 61.367H109.732V56.6198C109.732 50.2856 103.196 44.0681 96.5377 44.0681H94.5606C89.1244 44.0681 83.9861 49.2065 83.9861 54.6416V61.367H85.6739V56.772C85.6739 51.4022 90.0428 47.0333 95.4093 47.0333H97.111C103.417 47.0333 108.55 52.1662 108.55 58.4726V61.367ZM111.01 62.6475H107.272V58.4726C107.272 52.8703 102.713 48.3138 97.111 48.3138H95.4093C90.7468 48.3138 86.9523 52.1073 86.9523 56.772V62.6475H82.7077V54.6416C82.7077 48.4392 88.3571 42.7876 94.5606 42.7876H96.5377C103.978 42.7876 111.01 49.5108 111.01 56.6198V62.6475Z"/>
<path fill-rule="evenodd" clip-rule="evenodd" d="M96.3975 57.3595C94.9315 57.3595 93.742 58.5479 93.742 60.0149C93.742 61.4809 94.9315 62.6704 96.3975 62.6704C97.8634 62.6704 99.0529 61.4809 99.0529 60.0149C99.0529 58.5479 97.8634 57.3595 96.3975 57.3595Z"/>
<path fill-rule="evenodd" clip-rule="evenodd" d="M101.487 13.7729C96.2754 10.7864 92.9481 9.97306 88.0252 9.83911C86.9975 9.81124 86.1295 10.5978 86.0588 11.6233C85.419 20.823 84.7793 30.0216 84.1395 39.2213V52.8295C84.6946 49.5472 86.7114 46.581 89.474 44.8933L89.2232 44.6607V13.7729H101.487Z"/>
<path fill-rule="evenodd" clip-rule="evenodd" d="M117.252 59.0108H120.987V52.3927H117.252V59.0108Z"/>
<path fill-rule="evenodd" clip-rule="evenodd" d="M110.336 55.9129H118.522V54.6334H110.336V55.9129Z"/>
<path fill-rule="evenodd" clip-rule="evenodd" d="M98.6354 40.6822H102.796V39.4016H98.6354V40.6822Z"/>
<path fill-rule="evenodd" clip-rule="evenodd" d="M110.338 59.0108H118.521V57.7314H110.338V59.0108Z"/>
<path fill-rule="evenodd" clip-rule="evenodd" d="M85.1959 49.6061H10.7958V56.235H28.7462C29.582 55.5588 30.6451 55.1537 31.8024 55.1537C32.9587 55.1537 34.0217 55.5588 34.8565 56.235H83.9861V54.6416C83.9861 52.8788 84.4233 51.1535 85.1959 49.6061Z"/>
<path fill-rule="evenodd" clip-rule="evenodd" d="M31.8024 55.1537C29.118 55.1537 26.9425 57.3305 26.9425 60.0138C26.9425 62.6992 29.1178 64.8745 31.8022 64.8745C34.4865 64.8745 36.6619 62.6992 36.6619 60.0138C36.6619 57.3305 34.4868 55.1537 31.8024 55.1537ZM41.7402 60.9739C41.5141 63.3464 40.4553 65.4778 38.863 67.0713V67.0756C37.0562 68.8812 34.5583 70 31.8022 70C29.0482 70 26.5513 68.8812 24.7425 67.0735L24.7403 67.0756C23.1469 65.4811 22.0892 63.3486 21.8631 60.9739H19.6031V60.0138C19.6031 56.5096 20.6951 53.3334 22.9379 51.0906L22.939 51.0895L22.9401 51.0873C24.9707 49.0588 27.9144 47.8168 31.8022 47.8168C35.6932 47.8168 38.6379 49.0567 40.6665 51.0863V51.0906C42.9072 53.3313 43.9991 56.5075 43.9991 60.0138V60.9739H41.7402Z"/>
<path fill-rule="evenodd" clip-rule="evenodd" d="M31.8022 57.3595C30.3362 57.3595 29.1468 58.5479 29.1468 60.0149C29.1468 61.4809 30.3362 62.6704 31.8022 62.6704C33.2681 62.6704 34.4576 61.4809 34.4576 60.0149C34.4576 58.5479 33.2681 57.3595 31.8022 57.3595Z"/>
<path fill-rule="evenodd" clip-rule="evenodd" d="M63.8612 53.9077H46.4434V59.3235C46.4434 60.3801 47.3061 61.2417 48.3627 61.2417H61.9431C62.9997 61.2417 63.8612 60.3801 63.8612 59.3235V58.3441H65.2275C65.2232 58.4052 65.2211 58.4663 65.2211 58.5284C65.2211 59.9397 66.3645 61.0853 67.7758 61.0853C68.827 61.0853 69.7315 60.4498 70.1237 59.5421H73.2217C73.6149 60.4498 74.5172 61.0853 75.5685 61.0853C76.9808 61.0853 78.1253 59.9397 78.1253 58.5284C78.1253 58.4663 78.1221 58.4052 78.1178 58.3441H78.9611V61.0413H84.0062V53.9848H78.9611V55.2054H63.8612V53.9077Z"/>
<path fill-rule="evenodd" clip-rule="evenodd" d="M9.29859 57.0633H7.07717V62.7407H9.29859V61.1729L13.5646 58.3171H20.4764V54.1036H12.2616V55.9478L12.1855 55.9521L9.29859 58.5218V57.0633Z"/>
<path fill-rule="evenodd" clip-rule="evenodd" d="M118.549 45.6255H120.987V39.2784H118.549V45.6255Z"/>
<path fill-rule="evenodd" clip-rule="evenodd" d="M58.4654 51.3778H73.3446V47.0475H58.4654V51.3778Z"/>
<path fill-rule="evenodd" clip-rule="evenodd" d="M16.2947 51.3778H31.175V47.0475H16.2947V51.3778Z"/>
<path fill-rule="evenodd" clip-rule="evenodd" d="M112.488 21.1569C113.002 21.1569 113.423 21.5781 113.423 22.0913V30.6738C113.423 31.1871 113.002 31.6072 112.488 31.6072H111.963C111.45 31.6072 111.03 31.186 111.03 30.6738V22.0913C111.03 21.5781 111.449 21.1569 111.963 21.1569H112.488ZM110.31 21.1708H98.9711V30.0501C98.9711 30.9942 99.6398 31.7861 100.571 31.9426L113.894 34.1908L113.579 32.2201C113.269 32.4376 112.893 32.5662 112.488 32.5662H111.963C110.921 32.5662 110.07 31.7165 110.07 30.6738V22.0913C110.07 21.757 110.156 21.443 110.31 21.1708Z"/>
</svg>
