<svg viewBox="0 0 571 241" fill="black" xmlns="http://www.w3.org/2000/svg">
<path d="M167.691 55.8987C172.348 53.5787 173.54 52.9614 173.835 52.804L176.128 51.5867L176.055 23.0467C176.021 10.404 186.733 5.94937 195.489 4.58137L196.657 0.532041L119.558 0.730706L119.569 4.93738L137.616 4.88936C146.804 4.86803 155.875 8.60403 156.425 20.3387L156.537 61.496C157.627 60.9574 158.715 60.4187 159.827 59.86C161.528 58.988 164.16 57.6627 167.691 55.8987Z" />
<path d="M358.141 103.351L356.972 107.4L439.12 107.189L439.109 102.981L416.013 103.043C406.825 103.065 397.755 99.328 397.204 87.5947L396.965 0.00537109L384.312 0.0373861L330.06 76.512C322.048 87.7707 315.796 94.7294 311.672 97.8414C304.213 103.468 278.312 106.843 278.275 92.9974C278.271 91.1547 278.935 87.208 280.293 81.132L291.192 33.4294C292.835 26.1854 294.493 21.2827 295.563 18.5214C299.7 7.86005 308.091 4.92005 318.715 3.48672L319.269 0.20804L207.675 0.504053L206.476 4.55339C231.389 7.53072 219.252 22.6734 210.041 35.868L176.215 85.4467L176.164 66.0254C170.661 70.0334 164.091 74.3107 156.585 78.7974L156.664 107.927L169.319 107.895L223.569 31.42C231.581 20.1614 237.833 13.2027 241.957 10.0907C250.179 3.88671 274.788 0.774719 274.649 15.9041C274.627 18.3521 274.012 21.74 273.016 26.0294L260.677 79.1334C256.837 95.664 252.768 103.573 234.852 104.271L233.833 107.723L345.955 107.43L347.153 103.38C322.24 100.401 334.377 85.2587 343.588 72.064L377.416 22.4867L377.575 84.8854C377.608 97.5307 366.896 101.983 358.141 103.351Z" />
<path d="M155.952 132.376L145.197 150.015L142.792 132.398L136.135 132.409L139.697 153.957L149.499 153.939L163.163 132.365L155.952 132.376Z" />
<path d="M169.085 132.348L164.064 153.909L170.833 153.897L175.855 132.337L169.085 132.348Z" />
<path d="M169.631 130.157L176.403 130.146L177.549 125.216L170.777 125.227L169.631 130.157Z" />
<path d="M205.832 133.005C205.299 132.758 204.601 132.584 203.739 132.486C202.876 132.388 201.803 132.339 200.517 132.341L184.113 132.368L182.912 137.548L196.785 137.524C198.069 137.523 198.923 137.604 199.345 137.771C199.767 137.935 199.979 138.299 199.981 138.864C199.981 139.129 199.889 139.676 199.708 140.508L197.799 148.673L187.613 148.688C186.623 148.69 186.125 148.311 186.124 147.547C186.124 147.083 186.325 146.659 186.728 146.277C187.131 145.895 187.663 145.703 188.324 145.701L195.644 145.69L196.845 140.511L188.973 140.524C187.395 140.525 186.084 140.604 185.039 140.753C183.992 140.905 183.121 141.197 182.425 141.629C181.728 142.063 181.179 142.676 180.777 143.473C180.375 144.271 180.009 145.317 179.681 146.612L179.409 147.807C179.155 148.835 179.027 149.731 179.028 150.495C179.031 151.192 179.151 151.755 179.391 152.187C179.629 152.619 180.015 152.957 180.548 153.205C181.081 153.453 181.779 153.627 182.641 153.725C183.504 153.823 184.577 153.872 185.863 153.87L203.368 153.841L206.971 138.404C207.225 137.376 207.353 136.48 207.352 135.716C207.349 135.019 207.228 134.456 206.989 134.024C206.751 133.594 206.364 133.253 205.832 133.005Z" />
<path d="M221.661 134.99L222.263 132.302L215.491 132.313L210.469 153.824L217.239 153.813L220.352 140.47C220.497 139.837 220.652 139.323 220.816 138.925C220.98 138.527 221.209 138.219 221.503 138.003C221.795 137.787 222.191 137.645 222.685 137.577C223.18 137.511 223.849 137.476 224.695 137.475L232.621 137.461L233.823 132.284L226.721 132.295C224.592 132.299 222.905 133.197 221.661 134.99Z" />
<path d="M261.931 132.878C260.939 132.414 259.177 132.184 256.644 132.19L246.956 132.205C244.167 132.21 242.048 132.686 240.601 133.633C239.153 134.582 238.175 136.151 237.664 138.342L235.536 147.654C235.389 148.219 235.281 148.724 235.208 149.173C235.137 149.62 235.1 150.027 235.1 150.394C235.103 151.056 235.215 151.595 235.436 152.009C235.656 152.424 236.024 152.764 236.539 153.03C237.052 153.294 237.751 153.475 238.631 153.572C239.512 153.67 240.612 153.719 241.935 153.718L258.393 153.689L259.595 148.561L245.723 148.583C244.437 148.587 243.584 148.496 243.161 148.313C242.74 148.132 242.528 147.759 242.527 147.195C242.527 146.796 242.599 146.266 242.744 145.601L243.945 140.423C244.089 139.759 244.264 139.227 244.465 138.828C244.665 138.431 244.921 138.123 245.235 137.907C245.545 137.692 245.948 137.548 246.443 137.482C246.939 137.415 247.555 137.38 248.287 137.38L253.684 137.371C255.445 137.368 256.325 137.866 256.328 138.859C256.328 138.959 256.22 139.475 256 140.404L246.808 140.418L245.607 145.597L261.351 145.572L263.043 138.301C263.297 137.239 263.425 136.327 263.424 135.563C263.42 134.236 262.924 133.342 261.931 132.878Z" />
<path d="M294.676 132.844C293.684 132.399 291.923 132.176 289.389 132.179L282.288 132.193C280.16 132.196 278.475 133.094 277.229 134.888L277.829 132.199L271.057 132.21L266.036 153.721L272.808 153.709L275.92 140.365C276.064 139.735 276.22 139.22 276.384 138.821C276.548 138.424 276.776 138.116 277.069 137.9C277.364 137.683 277.759 137.541 278.252 137.475C278.749 137.408 279.419 137.373 280.261 137.372L285.657 137.363C286.941 137.361 287.795 137.443 288.217 137.609C288.641 137.773 288.852 138.137 288.853 138.703C288.853 138.968 288.764 139.515 288.58 140.347L285.469 153.69L292.187 153.678L295.788 138.243C296.043 137.215 296.169 136.319 296.169 135.555C296.165 134.195 295.669 133.291 294.676 132.844Z" />
<path d="M311.983 125.019L305.212 125.029L299.972 147.587C299.717 148.616 299.589 149.513 299.592 150.275C299.595 151.636 300.092 152.54 301.084 152.987C302.075 153.432 303.839 153.654 306.371 153.649L311.82 153.64L313.021 148.463L310.157 148.466C308.873 148.468 308.02 148.387 307.597 148.221C307.175 148.057 306.964 147.692 306.963 147.128C306.963 146.863 307.052 146.313 307.235 145.485L309.145 137.319L315.585 137.308L316.841 132.129L310.291 132.139L311.983 125.019Z" />
<path d="M338.243 132.3C337.216 132.45 336.344 132.744 335.629 133.176C334.916 133.608 334.348 134.223 333.927 135.02C333.505 135.817 333.132 136.863 332.804 138.159L330.621 147.52C330.367 148.548 330.239 149.444 330.24 150.208C330.243 150.871 330.345 151.42 330.547 151.851C330.749 152.282 331.108 152.621 331.623 152.87C332.137 153.117 332.835 153.299 333.716 153.412C334.597 153.528 335.716 153.584 337.075 153.583L351.168 153.559L352.368 148.382L340.807 148.4C339.523 148.401 338.669 148.32 338.247 148.153C337.824 147.989 337.613 147.625 337.611 147.06C337.611 146.796 337.701 146.247 337.884 145.419L339.085 140.239C339.229 139.607 339.385 139.094 339.548 138.695C339.713 138.296 339.943 137.988 340.235 137.773C340.528 137.556 340.924 137.415 341.419 137.348C341.915 137.28 342.583 137.247 343.427 137.244L354.987 137.227L356.188 132.047L342.096 132.071C340.553 132.072 339.271 132.15 338.243 132.3Z" />
<path d="M385.453 132.715C384.94 132.467 384.241 132.286 383.361 132.17C382.48 132.056 381.36 132 380.003 132.002L369.543 132.018C368.001 132.02 366.708 132.098 365.663 132.248C364.617 132.4 363.755 132.692 363.077 133.124C362.399 133.557 361.849 134.171 361.428 134.97C361.008 135.766 360.633 136.812 360.307 138.107L358.124 147.468C357.869 148.497 357.74 149.394 357.743 150.156C357.747 151.518 358.243 152.421 359.235 152.866C360.228 153.313 361.989 153.535 364.521 153.531L374.981 153.515C376.559 153.511 377.88 153.435 378.944 153.283C380.008 153.132 380.88 152.832 381.557 152.383C382.235 151.933 382.784 151.319 383.205 150.537C383.624 149.757 383.981 148.72 384.273 147.425L386.456 138.064C386.711 137.035 386.836 136.139 386.835 135.376C386.835 134.744 386.732 134.207 386.529 133.757C386.328 133.311 385.968 132.963 385.453 132.715ZM379.248 140.166L378.047 145.345C377.903 146.008 377.747 146.532 377.581 146.913C377.419 147.296 377.189 147.595 376.897 147.812C376.601 148.027 376.208 148.168 375.713 148.235C375.217 148.304 374.547 148.339 373.703 148.339L368.308 148.348C367.025 148.349 366.172 148.268 365.748 148.103C365.325 147.936 365.115 147.572 365.113 147.008C365.113 146.744 365.203 146.195 365.385 145.366L366.587 140.187C366.732 139.489 366.896 138.943 367.077 138.543C367.261 138.144 367.508 137.845 367.82 137.647C368.131 137.447 368.536 137.32 369.029 137.27C369.527 137.221 370.157 137.194 370.929 137.194L376.324 137.185C377.609 137.183 378.463 137.264 378.885 137.43C379.307 137.594 379.519 137.96 379.519 138.523C379.521 138.789 379.429 139.337 379.248 140.166Z" />
<path d="M431.485 132.584C430.475 132.137 428.703 131.916 426.171 131.922L421.821 131.927C420.611 131.929 419.475 132.164 418.411 132.63C417.347 133.097 416.632 133.712 416.268 134.476C416.081 133.513 415.52 132.85 414.585 132.487C413.647 132.123 411.968 131.944 409.545 131.947L405.196 131.955C403.068 131.958 401.381 132.856 400.136 134.649L400.737 131.962L393.968 131.972L388.944 153.485L395.716 153.473L398.827 140.128C398.972 139.496 399.128 138.983 399.292 138.584C399.456 138.185 399.684 137.877 399.979 137.663C400.272 137.447 400.665 137.304 401.16 137.237C401.656 137.17 402.327 137.136 403.171 137.133L405.813 137.131C407.097 137.128 407.951 137.209 408.373 137.375C408.795 137.542 409.007 137.906 409.009 138.47L405.569 153.457L412.341 153.447L415.453 140.101C415.597 139.471 415.753 138.957 415.917 138.557C416.081 138.159 416.309 137.852 416.603 137.635C416.897 137.42 417.291 137.278 417.785 137.209C418.281 137.143 418.951 137.108 419.796 137.108L422.439 137.103C423.723 137.101 424.576 137.183 424.999 137.349C425.42 137.513 425.632 137.877 425.635 138.443C425.635 138.873 425.563 139.423 425.416 140.084L422.305 153.431L429.021 153.42L432.569 137.983C432.86 136.82 433.005 135.927 433.005 135.295C433.001 133.935 432.496 133.032 431.485 132.584Z" />
<path d="M318.733 148.36L317.667 153.721L323.975 153.711L325.043 148.348L318.733 148.36Z" />
<path d="M153.283 215.421L156.807 202.271H128.097L130.589 193.16H162.22L166.087 178.977H117.869L101.71 239.144H150.359L154.14 224.961H121.995L124.572 215.421H153.283Z" />
<path d="M192.121 178.977H175.361L159.201 239.144H204.671L208.625 224.533H179.917L192.121 178.977Z" />
<path d="M272.735 193.16L276.601 178.977H228.383L212.224 239.144H260.872L264.655 224.961H232.509L235.087 215.421H263.796L267.32 202.271H238.611L241.103 193.16H272.735Z" />
<path d="M310.116 192.988C316.045 192.988 319.828 195.824 322.233 200.724L336.673 192.988C333.064 183.705 324.555 177.775 312.264 177.775C289.141 177.775 274.703 196.255 274.703 214.047C274.703 230.119 286.477 240.347 303.152 240.347C314.585 240.347 322.492 235.707 328.337 229.088L317.077 219.117C313.208 222.985 309.427 225.22 304.184 225.22C297.221 225.22 292.149 220.492 292.149 212.843C292.149 202.358 300.144 192.988 310.116 192.988Z" />
<path d="M396.227 178.977H343.539L339.585 193.589H357.636L345.344 239.144H362.105L374.309 193.589H392.36L396.227 178.977Z" />
<path d="M421.401 207.858H411.863L415.816 193.419H424.841C428.365 193.419 430.857 194.105 432.232 195.48C433.264 196.597 433.779 197.888 433.779 199.521C433.779 204.677 428.879 207.858 421.401 207.858ZM450.969 197.544C450.969 192.731 449.508 188.433 446.328 185.252C442.288 181.212 435.669 178.977 425.615 178.977H402.921L386.764 239.144H403.524L408.423 220.923H415.816L423.809 239.144H442.201L432.919 218.86C445.211 215.508 450.969 207.6 450.969 197.544Z" />
<path d="M465.079 179.529L449.068 239.144H465.741L478.589 191.307C473.552 188.021 469.007 184.053 465.079 179.529Z" />
<path d="M487.068 195.965C483.783 201.536 481.983 207.824 481.983 214.047C481.983 230.119 493.757 240.347 510.432 240.347C521.863 240.347 529.772 235.707 535.615 229.088L524.355 219.117C520.488 222.985 516.707 225.22 511.463 225.22C504.501 225.22 499.429 220.492 499.429 212.843C499.429 208.451 500.845 204.265 503.208 200.872C497.544 199.943 492.133 198.271 487.068 195.965Z" />
<path d="M93.5444 57.4613C103.442 51.3013 115.127 47.3253 118.786 47.8987C119.629 48.0307 119.996 48.4494 119.886 49.152C119.49 51.6867 116.13 55.1373 105.987 60.8493C91.1496 69.2053 74.5788 72.46 74.7392 72.2227C76.1474 70.1333 83.6428 63.6253 93.5444 57.4613ZM175.429 55.808C174.8 56.1427 172.727 57.1893 169.211 58.9427C165.693 60.6987 163.071 62.0187 161.349 62.9C136.797 75.2013 117.77 83.504 104.273 87.8014C90.7714 92.104 73.1657 94.1787 67.9876 91.7413C66.3892 90.9133 65.772 89.3373 66.1345 87.016C66.3324 85.7547 66.9069 84.3333 67.8318 82.7627C77.2741 81.4693 86.7246 79.364 95.8204 76.364C96.749 76.0907 97.722 75.7947 98.7449 75.4733C106.549 73.02 114.215 69.392 121.742 64.588C129.265 59.7854 133.395 55.06 134.121 50.416C134.517 47.884 133.48 45.0533 131.019 41.928C128.551 38.8027 125.634 36.9747 122.257 36.4467C114.662 35.2547 105.47 36.88 94.6902 41.3174C83.9042 45.756 74.1605 52.0853 65.4517 60.308C60.0772 65.3827 56.1189 70.4707 53.5662 75.5747C50.7288 75.8507 47.7225 76.1093 44.5298 76.3587C40.9345 76.292 40.4277 74.7734 39.5418 73.1374C36.7865 67.2 30.7408 63.068 23.7006 63.068H14.6422V68.1987H3.31314C1.49438 68.1987 0.0152181 69.6493 0.000114016 71.4467C-0.0149901 73.2667 1.47251 74.7493 3.31314 74.7493H14.7528V80.208V80.4267V85.8854H3.31314C1.47251 85.8854 -0.0149901 87.368 0.000114016 89.188C0.0152181 90.9854 1.49438 92.436 3.31314 92.436H14.6422V97.5667H23.7006C30.9032 97.5667 37.061 93.24 39.7236 87.0827V87.088C40.7804 85.452 40.4386 84.4453 45.6152 84.364C45.7266 84.3627 45.8132 84.3467 45.9141 84.34C47.4673 84.328 49.0277 84.296 50.596 84.24C50.5422 84.5267 50.4824 84.812 50.4376 85.0973C48.3662 98.3253 52.7449 105.788 63.5782 107.486C72.7198 108.917 85.146 106.865 100.858 101.325C116.568 95.784 130.699 89.5307 143.248 82.556C155.796 75.584 166.136 69.132 174.272 63.196C175.715 62.2707 176.547 61.1027 176.767 59.6947C176.985 58.2893 176.541 56.9933 175.429 55.808Z" fill="#52AEE5"/>
<path d="M525.401 134.792L510.359 152.627C510.113 152.917 509.759 153.073 509.397 153.073C509.204 153.073 509.007 153.029 508.825 152.936C508.304 152.67 508.037 152.078 508.177 151.512L510.732 141.241H502.983C502.493 141.241 502.048 140.957 501.843 140.513C501.636 140.07 501.704 139.545 502.021 139.172L517.061 121.339C517.44 120.892 518.075 120.762 518.595 121.029C519.116 121.296 519.384 121.887 519.244 122.455L516.688 132.723H524.44C524.929 132.723 525.375 133.007 525.581 133.451C525.787 133.895 525.719 134.419 525.401 134.792ZM524.783 107.37H502.835C500.205 107.37 498.065 109.509 498.065 112.138V163.182C498.065 165.811 500.205 167.951 502.835 167.951H524.783C527.412 167.951 529.552 165.811 529.552 163.182V112.138C529.552 109.509 527.412 107.37 524.783 107.37Z" fill="#7ECB29"/>
<path d="M533.683 163.182C533.683 168.089 529.689 172.082 524.783 172.082H502.835C497.928 172.082 493.935 168.089 493.935 163.182V112.138C493.935 107.231 497.928 103.239 502.835 103.239H507.704V102.484C507.704 100.371 509.433 98.6413 511.548 98.6413H516.069C518.183 98.6413 519.912 100.371 519.912 102.484V103.239H524.783C529.689 103.239 533.683 107.231 533.683 112.138V163.182ZM513.711 80.0826C482.287 80.0826 456.812 105.557 456.812 136.983C456.812 168.407 482.287 193.882 513.711 193.882C545.135 193.882 570.609 168.407 570.609 136.983C570.609 105.557 545.135 80.0826 513.711 80.0826Z" fill="#7ECB29"/>
</svg>
