<svg viewBox="0 0 441 240" fill="black" xmlns="http://www.w3.org/2000/svg">
<path fill-rule="evenodd" clip-rule="evenodd" d="M196.407 1.07138L195.853 4.28071C185.439 5.65137 177.208 8.50338 173.121 18.9327C172.064 21.6327 170.423 26.43 168.792 33.5207L157.963 80.206C156.612 86.1527 155.949 90.0154 155.948 91.8207C155.94 105.381 181.331 102.158 188.657 96.6687C192.708 93.634 198.855 86.838 206.741 75.8367L260.139 1.10871L272.539 1.11537L272.497 86.9007C273.001 98.394 281.877 102.083 290.881 102.091L313.509 102.101L313.508 106.222L233.015 106.173L234.172 102.21C242.755 100.898 253.265 96.57 253.273 84.186L253.311 23.0714L220.011 71.5234C210.944 84.4167 199.004 99.21 223.407 102.205L222.219 106.167L112.355 106.103L113.364 102.725C130.921 102.099 134.933 94.3647 138.748 78.1874L151.004 26.2154C151.993 22.018 152.607 18.7007 152.636 16.302C152.82 1.48604 128.696 4.45805 120.62 10.5087C116.569 13.5434 110.421 20.3394 102.536 31.3407L49.1387 106.07L36.7387 106.062L36.7801 20.2767C36.2761 8.78338 27.4001 5.09538 18.3961 5.08605L0.713379 5.07937L0.714722 0.958045L76.2627 1.00471L75.1054 4.96737C66.5227 6.27937 56.0107 10.6074 56.0041 22.9914L55.9667 84.106L89.2654 35.654C98.3334 22.7607 110.273 7.96738 85.8707 4.97271L87.0587 1.01005L196.407 1.07138Z" />
<path d="M43.0307 130.017L29.5734 151.105L19.9721 151.091L16.5454 129.975L23.0721 129.985L25.3707 147.248L35.9641 130.007L43.0307 130.017Z" />
<path d="M56.0105 127.885L49.3758 127.875L50.5145 123.051L57.1491 123.06L56.0105 127.885ZM50.4798 151.131L43.8451 151.12L48.8331 130.019L55.4678 130.029L50.4798 151.131Z" />
<path d="M82.3593 151.177L65.206 151.149C63.9473 151.148 62.8953 151.097 62.05 150.998C61.206 150.9 60.522 150.728 60.0006 150.482C59.4793 150.238 59.1033 149.905 58.87 149.482C58.6366 149.058 58.5206 148.506 58.5206 147.824C58.522 147.076 58.6486 146.198 58.902 145.192L59.1726 144.022C59.498 142.756 59.8593 141.732 60.2553 140.953C60.6513 140.173 61.1913 139.573 61.8753 139.152C62.5593 138.73 63.414 138.446 64.4393 138.302C65.4646 138.157 66.75 138.086 68.2966 138.089L76.01 138.101L74.8166 143.169L67.6433 143.158C66.9953 143.157 66.474 143.344 66.078 143.716C65.682 144.089 65.4833 144.504 65.4833 144.958C65.482 145.706 65.9673 146.081 66.938 146.082L76.9166 146.098L78.8153 138.106C78.9953 137.293 79.086 136.757 79.086 136.497C79.0873 135.945 78.8806 135.586 78.4673 135.424C78.054 135.261 77.218 135.178 75.9593 135.176L62.366 135.154L63.5593 130.086L79.634 130.112C80.8926 130.113 81.9446 130.164 82.7886 130.262C83.634 130.362 84.3166 130.533 84.838 130.778C85.3593 131.022 85.7366 131.357 85.97 131.78C86.2033 132.202 86.3193 132.756 86.318 133.437C86.318 134.185 86.19 135.062 85.938 136.069L82.3593 151.177Z" />
<path d="M111.075 135.227L103.307 135.215C102.48 135.213 101.824 135.244 101.339 135.309C100.852 135.373 100.465 135.511 100.177 135.721C99.8894 135.932 99.6654 136.232 99.5028 136.621C99.3401 137.012 99.1868 137.516 99.0428 138.132L95.9521 151.193L89.3174 151.183L94.3054 130.129L100.94 130.14L100.343 132.772C101.568 131.019 103.223 130.144 105.309 130.147L112.268 130.159L111.075 135.227Z" />
<path d="M139.2 143.259L123.772 143.235L124.965 138.166L133.973 138.181C134.191 137.271 134.299 136.767 134.299 136.67C134.3 135.695 133.439 135.206 131.712 135.203L126.425 135.195C125.707 135.194 125.104 135.225 124.619 135.29C124.133 135.354 123.737 135.491 123.431 135.702C123.125 135.913 122.873 136.213 122.675 136.603C122.477 136.993 122.305 137.513 122.16 138.162L120.968 143.23C120.823 143.881 120.751 144.399 120.749 144.79C120.749 145.342 120.956 145.709 121.369 145.887C121.783 146.067 122.619 146.158 123.877 146.161L137.471 146.182L136.277 151.201L120.149 151.175C118.855 151.174 117.776 151.123 116.912 151.025C116.049 150.925 115.367 150.746 114.864 150.485C114.36 150.223 114.001 149.89 113.785 149.483C113.571 149.077 113.463 148.549 113.464 147.898C113.464 147.541 113.501 147.143 113.573 146.705C113.645 146.266 113.755 145.77 113.899 145.218L116.013 136.105C116.52 133.961 117.484 132.426 118.905 131.502C120.327 130.578 122.404 130.118 125.137 130.122L134.631 130.138C137.112 130.142 138.839 130.371 139.808 130.829C140.779 131.285 141.263 132.163 141.261 133.463C141.261 134.211 141.133 135.105 140.881 136.145L139.2 143.259Z" />
<path d="M169.388 151.297L162.807 151.286L165.898 138.226C166.079 137.413 166.17 136.877 166.17 136.617C166.17 136.065 165.964 135.707 165.551 135.543C165.138 135.381 164.302 135.298 163.043 135.295L157.756 135.287C156.93 135.286 156.272 135.318 155.787 135.382C155.302 135.446 154.915 135.583 154.627 135.794C154.339 136.005 154.114 136.305 153.951 136.695C153.79 137.085 153.636 137.589 153.491 138.206L150.4 151.266L143.766 151.255L148.754 130.203L155.388 130.213L154.792 132.845C156.018 131.091 157.672 130.217 159.758 130.221L166.716 130.231C169.198 130.235 170.924 130.458 171.894 130.898C172.864 131.338 173.35 132.225 173.347 133.557C173.347 134.305 173.219 135.182 172.967 136.189L169.388 151.297Z" />
<path d="M188.627 151.32L183.287 151.312C180.806 151.308 179.079 151.085 178.11 150.645C177.139 150.205 176.654 149.319 176.656 147.985C176.656 147.239 176.784 146.361 177.036 145.353L182.242 123.277L188.876 123.288L187.196 130.257L193.615 130.267L192.368 135.335L186.058 135.325L184.159 143.317C183.979 144.129 183.888 144.665 183.888 144.925C183.887 145.479 184.094 145.836 184.507 145.999C184.92 146.163 185.756 146.245 187.015 146.247L189.82 146.252L188.627 151.32Z" />
<path d="M227.182 151.363L213.372 151.341C212.042 151.339 210.946 151.281 210.083 151.166C209.219 151.05 208.536 150.87 208.034 150.626C207.53 150.382 207.18 150.047 206.983 149.625C206.786 149.202 206.687 148.666 206.688 148.015C206.688 147.267 206.815 146.39 207.068 145.383L209.238 136.222C209.563 134.954 209.932 133.931 210.347 133.151C210.762 132.373 211.319 131.773 212.022 131.351C212.723 130.929 213.578 130.646 214.584 130.502C215.591 130.357 216.85 130.286 218.36 130.289L232.17 130.31L230.976 135.379L219.65 135.361C218.822 135.359 218.166 135.391 217.68 135.455C217.195 135.519 216.808 135.657 216.52 135.867C216.232 136.078 216.007 136.378 215.844 136.769C215.682 137.158 215.528 137.662 215.384 138.279L214.191 143.347C214.011 144.159 213.92 144.695 213.92 144.955C213.919 145.509 214.126 145.866 214.539 146.029C214.952 146.193 215.788 146.275 217.047 146.277L228.375 146.295L227.182 151.363Z" />
<path d="M253.546 143.402L254.74 138.334C254.92 137.522 255.01 136.985 255.01 136.725C255.012 136.173 254.805 135.816 254.392 135.652C253.978 135.489 253.142 135.406 251.884 135.404L246.597 135.396C245.842 135.394 245.222 135.418 244.737 135.466C244.25 135.514 243.856 135.636 243.549 135.829C243.244 136.024 243 136.317 242.82 136.706C242.64 137.096 242.477 137.632 242.333 138.314L241.14 143.382C240.958 144.194 240.868 144.73 240.868 144.99C240.868 145.544 241.073 145.901 241.488 146.065C241.901 146.228 242.737 146.31 243.996 146.312L249.281 146.321C250.109 146.322 250.765 146.29 251.25 146.226C251.736 146.162 252.122 146.025 252.41 145.814C252.698 145.602 252.924 145.31 253.086 144.937C253.248 144.564 253.402 144.052 253.546 143.402ZM259.64 145.46C259.35 146.726 258.998 147.742 258.584 148.505C258.169 149.268 257.629 149.869 256.964 150.306C256.297 150.744 255.444 151.034 254.4 151.18C253.357 151.324 252.062 151.396 250.516 151.393L240.266 151.377C237.785 151.373 236.06 151.15 235.089 150.71C234.118 150.269 233.634 149.384 233.636 148.05C233.637 147.302 233.764 146.426 234.017 145.418L236.186 136.257C236.51 134.99 236.881 133.966 237.296 133.186C237.71 132.408 238.25 131.808 238.916 131.386C239.581 130.965 240.426 130.681 241.452 130.537C242.477 130.392 243.745 130.321 245.256 130.324L255.504 130.34C256.834 130.342 257.932 130.401 258.794 130.516C259.657 130.63 260.34 130.81 260.844 131.056C261.346 131.3 261.697 131.642 261.894 132.081C262.092 132.52 262.189 133.048 262.189 133.665C262.188 134.413 262.061 135.29 261.808 136.297L259.64 145.46Z" />
<path d="M303.468 151.47L296.887 151.459L299.978 138.399C300.123 137.749 300.195 137.213 300.195 136.79C300.196 136.238 299.99 135.881 299.576 135.717C299.163 135.554 298.327 135.471 297.068 135.469L294.479 135.465C293.652 135.463 292.996 135.495 292.51 135.559C292.024 135.623 291.638 135.761 291.35 135.971C291.062 136.183 290.836 136.483 290.675 136.873C290.512 137.262 290.359 137.766 290.215 138.383L287.124 151.443L280.49 151.433L283.906 136.765C283.906 136.211 283.699 135.854 283.286 135.691C282.872 135.527 282.036 135.445 280.778 135.443L278.188 135.439C277.362 135.438 276.706 135.469 276.22 135.533C275.734 135.598 275.347 135.735 275.059 135.946C274.771 136.157 274.547 136.457 274.384 136.846C274.222 137.237 274.068 137.739 273.924 138.357L270.834 151.418L264.199 151.407L269.187 130.354L275.822 130.365L275.224 132.997C276.45 131.243 278.104 130.369 280.191 130.371L284.452 130.379C286.826 130.382 288.471 130.563 289.387 130.923C290.304 131.282 290.851 131.933 291.03 132.875C291.391 132.129 292.092 131.529 293.136 131.075C294.179 130.622 295.295 130.397 296.482 130.398L300.743 130.405C303.224 130.409 304.959 130.631 305.947 131.071C306.936 131.511 307.43 132.398 307.427 133.73C307.427 134.349 307.282 135.226 306.992 136.362L303.468 151.47Z" />
<path d="M200.537 151.425L194.356 151.417L195.418 146.169L201.601 146.177L200.537 151.425Z" />
<path d="M223.546 200.912H211.763L214.64 189.85H225.524C230.831 189.85 233.079 191.648 233.079 194.526C233.079 198.484 229.752 200.912 223.546 200.912ZM218.508 224.748H205.287L208.435 213.144H220.488C225.615 213.144 228.223 214.854 228.223 218.092C228.223 222.05 224.535 224.748 218.508 224.748ZM236.228 207.028C245.043 204.87 250.35 198.934 250.35 190.928C250.35 182.923 244.772 175.818 227.594 175.818H201.419L184.51 238.779H217.159C236.678 238.779 245.763 230.504 245.763 219.622C245.763 213.144 241.804 209.007 236.228 207.028Z" />
<path d="M278.504 213.955L290.287 195.875L292.535 213.955H278.504ZM286.959 175.368L243.155 238.78H262.133L269.689 227.536H293.975L295.504 238.78H313.852L304.048 175.368H286.959Z" />
<path d="M361.797 210.447C360.448 215.484 358.829 218.632 356.49 220.88C354.332 223.039 351.364 224.208 348.036 224.208C341.74 224.208 338.232 220.7 338.232 215.033C338.232 212.965 338.592 211.076 339.13 209.097L345.936 183.663C342.985 181.296 340.254 178.669 337.772 175.817H330.406L321.772 207.837C320.872 211.256 320.332 214.764 320.332 217.912C320.332 231.764 329.597 239.948 345.786 239.948C355.501 239.948 363.416 237.431 368.993 231.853C373.4 227.447 376.548 221.331 378.797 213.055L382.976 197.469C377.11 197.247 371.45 196.231 366.101 194.515L361.797 210.447Z" />
<path d="M401.779 109.061C400.329 110.018 399.039 111.181 397.931 112.584C396.537 114.348 395.415 116.505 394.605 119.124C394.372 119.88 393.611 120.341 392.844 120.149L392.719 120.117C391.92 119.916 391.423 119.088 391.665 118.3C392.589 115.289 393.9 112.776 395.543 110.698C396.233 109.824 396.98 109.028 397.779 108.308C398.523 107.636 398.395 106.442 397.527 105.942C394.005 103.917 389.903 102.753 385.521 102.753C381.353 102.753 377.441 103.804 374.04 105.646C373.14 106.134 373.011 107.369 373.784 108.04C374.697 108.83 375.545 109.714 376.323 110.698C377.967 112.777 379.279 115.289 380.201 118.3C380.443 119.088 379.945 119.916 379.147 120.117L379.023 120.149C378.256 120.341 377.495 119.88 377.261 119.124C376.452 116.505 375.329 114.348 373.935 112.584C372.705 111.025 371.251 109.762 369.604 108.749C369.3 109.018 369.001 109.296 368.711 109.586C365.041 113.19 362.571 117.97 361.937 123.309C361.832 124.194 362.5 124.982 363.391 124.982H407.651C408.543 124.982 409.211 124.193 409.105 123.309C408.471 117.97 406 113.19 402.329 109.586C402.148 109.401 401.965 109.232 401.779 109.061Z" fill="#F6921E"/>
<path d="M417.143 129.061C417.143 129.869 416.487 130.525 415.679 130.525H355.126C354.318 130.525 353.662 129.869 353.662 129.061V125.939H355.779C356.566 125.939 357.187 125.313 357.23 124.527C357.615 117.433 360.706 111.04 365.503 106.325C370.635 101.285 377.71 98.1667 385.522 98.1667C393.33 98.1667 400.407 101.285 405.536 106.325C410.336 111.04 413.426 117.433 413.811 124.527C413.854 125.313 414.475 125.939 415.262 125.939H415.679C416.487 125.939 417.143 126.595 417.143 127.403V129.061ZM376.635 141.248C375.103 141.248 373.862 140.007 373.862 138.476C373.862 136.944 375.103 135.703 376.635 135.703C378.167 135.703 379.408 136.944 379.408 138.476C379.408 140.007 378.167 141.248 376.635 141.248ZM391.634 138.476C391.634 136.944 392.876 135.703 394.407 135.703C395.939 135.703 397.18 136.944 397.18 138.476C397.18 140.007 395.939 141.248 394.407 141.248C392.876 141.248 391.634 140.007 391.634 138.476ZM394.407 149.727C394.407 149.727 391.094 153.465 385.19 153.465C379.286 153.465 376.635 149.727 376.635 149.727H394.407ZM413.159 139.293V139.301C413.071 139.676 412.99 140.095 412.907 140.52C412.511 142.597 412.076 144.851 410.347 145.248C409.951 145.34 409.462 145.4 408.99 145.439C408.475 145.481 408.02 145.781 407.792 146.245C407.527 146.787 407.263 147.335 406.998 147.885C404.796 152.449 402.498 157.213 397.872 160.169L399.98 168.424C400.18 169.208 399.707 170.007 398.922 170.205L398.798 170.237C398.015 170.436 397.219 169.963 397.019 169.18L395.48 163.147C395.275 162.345 394.451 161.863 393.66 162.108C391.322 162.833 388.542 163.203 385.188 163.096C382.384 163.184 379.982 162.94 377.902 162.435C377.136 162.248 376.371 162.737 376.176 163.5L374.727 169.18C374.528 169.963 373.732 170.436 372.948 170.237L372.826 170.205C372.042 170.007 371.567 169.209 371.767 168.424L373.422 161.939C373.584 161.303 373.288 160.657 372.731 160.313C367.952 157.368 365.616 152.523 363.38 147.877C363.115 147.332 362.851 146.787 362.584 146.245C362.356 145.783 361.903 145.481 361.388 145.439C360.916 145.4 360.426 145.34 360.031 145.248C358.302 144.851 357.867 142.597 357.468 140.52C357.382 140.073 357.299 139.641 357.219 139.293C356.739 137.224 358.314 136.012 359.519 135.409L362.436 134.261L362.714 136.16L362.902 137.465L361.634 137.84C361.628 137.84 360.112 138.28 360.192 138.613C360.292 139.045 360.379 139.492 360.463 139.945C360.683 141.087 360.499 142.228 360.712 142.277C361.499 142.463 363.142 142.463 363.147 142.463H364.063L364.495 143.277C365.056 144.34 365.588 145.44 366.127 146.56C369.324 153.195 372.751 160.304 384.816 160.063L384.818 160.041C384.943 160.041 385.066 160.049 385.188 160.049C385.312 160.049 385.436 160.041 385.56 160.041V160.063C397.626 160.304 401.052 153.195 404.252 146.56C404.788 145.44 405.319 144.34 405.883 143.277L406.315 142.463H407.231C407.236 142.463 408.878 142.463 409.668 142.277C409.878 142.228 409.694 141.087 409.912 139.945C410.002 139.471 410.091 139.011 410.186 138.607C410.246 138.273 408.748 137.84 408.743 137.84L407.474 137.465L407.942 134.261L410.858 135.409C412.064 136.012 413.642 137.224 413.159 139.293ZM385.403 78.9214C354.774 78.9214 329.943 103.752 329.943 134.381C329.943 158.971 345.951 179.808 368.11 187.076C373.439 188.824 379.119 189.792 385.023 189.831C385.151 189.832 385.275 189.841 385.403 189.841C416.032 189.841 440.862 165.011 440.862 134.381C440.862 103.752 416.032 78.9214 385.403 78.9214Z" fill="#F6921E"/>
</svg>
