<svg viewBox="0 0 35 24" fill="black" xmlns="http://www.w3.org/2000/svg">
<path d="M8 20.7C8 20.9 8.00001 21.2 8.10001 21.4H8C6.7 21.4 5.70001 20.4 5.70001 19.1V12.2C6.10001 12.3 6.49999 12.3 6.89999 12.3C6.99999 12.3 7.00001 12.3 7.10001 12.3V19.1C7.10001 19.6 7.5 20 8 20H8.10001C8.10001 20.2 8 20.5 8 20.7Z"/>
<path d="M34.7 15.6V19.1C34.7 20.3 33.7 21.3 32.5 21.4C32.5 21.2 32.6 21 32.6 20.7C32.6 20.4 32.6 20.2 32.5 20C32.9 19.9 33.3 19.6 33.3 19.1V15.6C33 15.1 32.8 14.6 32.5 14.2H25.8C23.8 14.2 23.1 12.5 23.1 11.4V8.7C23.1 8.3 23.4 8 23.8 8C24.2 8 24.5 8.3 24.5 8.7V11.4C24.5 11.7 24.6 12.8 25.8 12.8H31.6C27.2 6.1 23.6 6.49999 23.5 6.39999C23.4 6.39999 23.4 6.39999 23.3 6.39999H13.7C13.7 6.09999 13.8 5.8 13.8 5.5C13.8 5.3 13.8 5.2 13.8 5H23.4C23.4 5 23.5 5 23.6 5C24.4 5 29.5 5 34.7 15C34.8 15.1 34.8 15.3 34.8 15.4C34.6 15.5 34.7 15.6 34.7 15.6Z"/>
<path d="M28 17.4C26.4 17.4 25.1 18.5 24.8 20H15.8C15.5 18.5 14.2 17.4 12.6 17.4C10.8 17.4 9.29999 18.9 9.29999 20.7C9.29999 22.5 10.8 24 12.6 24C14.2 24 15.5 22.9 15.8 21.4H24.8C25.1 22.9 26.4 24 28 24C29.8 24 31.3 22.5 31.3 20.7C31.3 18.9 29.8 17.4 28 17.4ZM12.6 22.6C11.6 22.6 10.7 21.8 10.7 20.7C10.7 19.7 11.5 18.8 12.6 18.8C13.7 18.8 14.5 19.6 14.5 20.7C14.5 21.8 13.6 22.6 12.6 22.6ZM28 22.6C27 22.6 26.1 21.8 26.1 20.7C26.1 19.7 26.9 18.8 28 18.8C29 18.8 29.9 19.6 29.9 20.7C29.9 21.8 29 22.6 28 22.6Z"/>
<path d="M5.5 3.19999C4.4 3.69999 3.70001 4.9 3.70001 6.1C3.70001 6.4 3.99999 6.69999 4.29999 6.69999C4.59999 6.69999 4.89999 6.4 4.89999 6.1C4.89999 5.4 5.3 4.69999 6 4.39999C6.3 4.29999 6.39999 3.9 6.29999 3.6C6.09999 3.2 5.8 3.09999 5.5 3.19999Z"/>
<path d="M1.20002 13.1C1.30002 13.2 1.50002 13.3 1.70002 13.3C1.90002 13.3 2.10002 13.2 2.20002 13.1L4.10002 10.9C4.90002 11.4 5.90001 11.7 6.90001 11.8C7.00001 11.8 7.10002 11.8 7.20002 11.8C10.3 11.8 12.8 9.4 12.9 6.3C13.1 3.1 10.6 0.400003 7.40001 0.300003C4.20001 0.100003 1.50001 2.6 1.40001 5.8C1.30001 7.3 1.80001 8.79999 2.90001 9.89999L3.00001 10L1.10002 12.2C0.900017 12.4 0.900024 12.8 1.20002 13.1ZM3.90001 8.89999C3.10001 7.99999 2.7 6.9 2.8 5.8C2.9 3.5 4.80002 1.7 7.10002 1.7C7.20002 1.7 7.2 1.7 7.3 1.7C9.7 1.8 11.5 3.9 11.4 6.2C11.3 8.6 9.30001 10.4 6.90001 10.3C5.80001 10.2 4.70001 9.69999 3.90001 8.89999Z"/>
</svg>
