<svg viewBox="0 0 89 61" fill="black" xmlns="http://www.w3.org/2000/svg">
<path d="M22.99 50.62C22.9 51.2 22.83 51.8 22.83 52.41C22.83 52.99 22.89 53.56 22.98 54.12H22.74C19.57 54.12 16.99 51.54 16.99 48.37V33.59C17.49 34.03 18.17 34.48 18.82 34.48C19.39 34.48 19.91 34.28 20.49 33.81V48.37C20.49 49.61 21.5 50.62 22.74 50.62H22.99Z" />
<path d="M88.76 39.7799V48.3699C88.76 51.4299 86.36 53.9299 83.35 54.0999C83.43 53.5499 83.49 52.99 83.49 52.41C83.49 51.79 83.43 51.1799 83.33 50.5899C84.42 50.4299 85.26 49.4999 85.26 48.3699V39.7199C84.62 38.4899 83.98 37.3399 83.34 36.2399C83.32 36.2399 83.3 36.2499 83.28 36.2499H66.76C61.77 36.2499 59.96 32.0299 59.96 29.1999V22.5499C59.96 21.5799 60.74 20.7999 61.71 20.7999C62.67 20.7999 63.46 21.5799 63.46 22.5499V29.1999C63.47 30.0199 63.74 32.7499 66.76 32.7499H81.19C70.38 16.2099 61.38 17.0399 61.08 17.0099C60.81 16.9899 60.75 17.0199 60.49 17.0099H37.23C38.06 15.9499 38.69 14.7599 39.13 13.5099H60.5C60.62 13.5099 60.81 13.4999 60.92 13.5199C63.02 13.4099 75.64 13.6299 88.52 38.3999C88.69 38.7199 88.75 39.0699 88.71 39.3999C88.74 39.5299 88.76 39.6499 88.76 39.7799Z" />
<path d="M72.2301 44.25C68.3501 44.25 65.1001 46.98 64.2801 50.62H42.0501C41.2301 46.98 37.9801 44.25 34.0901 44.25C29.5901 44.25 25.9301 47.91 25.9301 52.41C25.9301 56.9 29.5901 60.56 34.0901 60.56C38.0001 60.56 41.2701 57.8 42.0601 54.12H64.2601C65.0501 57.8 68.3201 60.56 72.2301 60.56C76.7301 60.56 80.3901 56.9 80.3901 52.41C80.3901 47.91 76.7301 44.25 72.2301 44.25ZM34.0901 57.06C31.5201 57.06 29.4301 54.97 29.4301 52.41C29.4301 49.84 31.5201 47.75 34.0901 47.75C36.6601 47.75 38.7501 49.84 38.7501 52.41C38.7501 54.97 36.6601 57.06 34.0901 57.06ZM72.2301 57.06C69.6601 57.06 67.5801 54.97 67.5801 52.41C67.5801 49.84 69.6601 47.75 72.2301 47.75C74.8001 47.75 76.8901 49.84 76.8901 52.41C76.8901 54.97 74.8001 57.06 72.2301 57.06Z" />
<path d="M34.25 3.60996C32.46 1.81996 30.03 0.829956 27.41 0.829956C24.62 0.829956 21.86 1.98996 19.83 4.00996L15.98 8.12996L15.86 8.28996C15.83 8.32996 15.8 8.36996 15.77 8.40996C15.36 9.08996 15.49 9.96995 16.07 10.51C16.38 10.8 16.79 10.96 17.22 10.96C17.37 10.96 17.53 10.93 17.71 10.88C18.01 10.79 18.26 10.63 18.46 10.42L21.83 6.77995L22.23 6.37996C23.62 4.98996 25.51 4.18996 27.42 4.18996C29.14 4.18996 30.72 4.82996 31.88 5.97996C33.09 7.18996 33.73 8.85996 33.67 10.66C33.61 12.51 32.83 14.27 31.49 15.62L18.83 28.27L6.19003 15.63C4.84003 14.28 4.07003 12.52 4.01003 10.67C3.95003 8.85995 4.59003 7.19996 5.80003 5.98996C6.96003 4.82996 8.54003 4.19996 10.25 4.19996C11.66 4.19996 13.06 4.65996 14.28 5.47996L16.64 2.99996C14.77 1.59996 12.53 0.829956 10.25 0.829956C7.63003 0.829956 5.20003 1.81996 3.41003 3.60996C1.53003 5.48996 0.540028 8.03996 0.630028 10.79C0.720028 13.5 1.85003 16.07 3.80003 18.02L16.91 31.02L16.9 31.03L17.06 31.18C17.51 31.6 18.17 32.1 18.81 32.1C19.37 32.1 19.87 31.87 20.46 31.36L33.84 18.02C35.8 16.06 36.92 13.5 37.01 10.79C37.12 8.03996 36.13 5.48996 34.25 3.60996Z" />
</svg>
