<svg viewBox="0 0 30 19" fill="black" xmlns="http://www.w3.org/2000/svg">
<path d="M29.1 10.5C29.1 10.4 29.1 10.2 29 10.1C23.8 0.100014 18.7 1.33486e-05 17.9 0.100013C17.9 0.100013 17.8 0.100013 17.7 0.100013H2.5C1.2 0.100013 0.199997 1.1 0.199997 2.4V14.1C0.199997 15.4 1.2 16.4 2.5 16.4H2.60001C2.60001 16.2 2.5 15.9 2.5 15.7C2.5 15.5 2.50001 15.2 2.60001 15H2.5C2 15 1.60001 14.6 1.60001 14.1V2.4C1.60001 1.9 2 1.50001 2.5 1.50001H17.7C17.8 1.50001 17.8 1.50001 17.9 1.50001C18 1.50001 21.7 1.2 26 7.9H20.2C19 7.9 18.9 6.80001 18.9 6.50001V3.80001C18.9 3.40001 18.6 3.10001 18.2 3.10001C17.8 3.10001 17.5 3.40001 17.5 3.80001V6.50001C17.5 7.60001 18.2 9.30001 20.2 9.30001H26.9C27.2 9.70001 27.4 10.2 27.7 10.7V14.2C27.7 14.7 27.4 15 26.9 15.1C26.9 15.3 27 15.6 27 15.8C27 16 27 16.3 26.9 16.5C28.1 16.4 29.1 15.4 29.1 14.2V10.7C29.1 10.6 29.1 10.5 29.1 10.5Z"/>
<path d="M4.39999 8.50001L6.3 10.4C6.4 10.5 6.6 10.6 6.7 10.6C6.8 10.6 7.00001 10.5 7.10001 10.4C7.30001 10.2 7.30001 9.80001 7.10001 9.50001L6.3 8.7H9.8C10.1 8.7 10.4 8.40001 10.4 8.10001C10.4 7.80001 10.1 7.50001 9.8 7.50001H6.3L7.10001 6.7C7.30001 6.5 7.30001 6.10001 7.10001 5.80001C6.90001 5.60001 6.5 5.60001 6.2 5.80001L4.3 7.7C4.2 7.8 4.10001 8.00001 4.10001 8.10001C4.20001 8.20001 4.19999 8.30001 4.39999 8.50001Z"/>
<path d="M8.60001 5.80001C8.60001 6.10001 8.9 6.4 9.2 6.4H12.7L11.9 7.2C11.7 7.4 11.7 7.80001 11.9 8.10001C12 8.20001 12.2 8.30001 12.3 8.30001C12.5 8.30001 12.6 8.20001 12.7 8.10001L14.6 6.2C14.6 6.2 14.6 6.20001 14.6 6.10001C14.6 6.10001 14.6 6.10001 14.7 6.00001V5.9C14.7 5.8 14.7 5.8 14.7 5.7C14.7 5.6 14.7 5.50001 14.7 5.50001C14.7 5.40001 14.6 5.40001 14.6 5.30001L12.7 3.4C12.5 3.2 12.1 3.2 11.8 3.4C11.6 3.6 11.6 4.00001 11.8 4.30001L12.6 5.10001H9.10001C8.90001 5.20001 8.60001 5.40001 8.60001 5.80001Z"/>
<path d="M22.5 12.4C20.9 12.4 19.6 13.5 19.3 15H10.3C10 13.5 8.70001 12.4 7.10001 12.4C5.30001 12.4 3.8 13.9 3.8 15.7C3.8 17.5 5.30001 19 7.10001 19C8.70001 19 10 17.9 10.3 16.4H19.3C19.6 17.9 20.9 19 22.5 19C24.3 19 25.8 17.5 25.8 15.7C25.8 13.9 24.3 12.4 22.5 12.4ZM7.10001 17.6C6.10001 17.6 5.2 16.8 5.2 15.7C5.2 14.7 6.00001 13.8 7.10001 13.8C8.10001 13.8 9 14.6 9 15.7C9 16.8 8.10001 17.6 7.10001 17.6ZM22.5 17.6C21.5 17.6 20.6 16.8 20.6 15.7C20.6 14.7 21.4 13.8 22.5 13.8C23.5 13.8 24.4 14.6 24.4 15.7C24.4 16.8 23.5 17.6 22.5 17.6Z"/>
</svg>
