<svg viewBox="0 0 501 507" fill="black" xmlns="http://www.w3.org/2000/svg">
<path d="M226.761 76.3584C225.884 76.3584 225.009 76.0862 224.267 75.5438C222.789 74.4631 222.174 72.5556 222.743 70.8155L230.225 47.9458L210.779 33.8373C209.295 32.7606 208.674 30.8531 209.241 29.1089C209.808 27.3668 211.431 26.1852 213.264 26.1852H237.281L244.757 3.25508C245.324 1.51496 246.947 0.337402 248.778 0.337402C248.78 0.337402 248.782 0.337402 248.782 0.337402C250.615 0.339419 252.236 1.52101 252.801 3.26516L260.215 26.1852H284.23C286.063 26.1852 287.686 27.3648 288.252 29.1089C288.817 30.8531 288.196 32.7606 286.712 33.8373L267.248 47.9478L274.668 70.8054C275.233 72.5475 274.614 74.455 273.132 75.5317C271.65 76.6085 269.643 76.6085 268.161 75.5338L248.78 61.4656L229.235 75.558C228.495 76.0923 227.628 76.3584 226.761 76.3584ZM226.289 34.6439L237.684 42.911C239.17 43.9897 239.791 45.9033 239.22 47.6494L234.817 61.1107L246.314 52.8194C247.794 51.7507 249.794 51.7547 251.27 52.8274L262.608 61.0562L258.253 47.6373C257.686 45.8932 258.309 43.9837 259.793 42.9089L271.192 34.6459H257.138C255.303 34.6459 253.68 33.4643 253.115 31.7181L248.762 18.2589L244.37 31.7282C243.804 33.4683 242.18 34.6459 240.349 34.6459H226.289V34.6439Z" />
<path d="M226.765 506.996C225.89 506.996 225.017 506.726 224.275 506.185C222.795 505.106 222.176 503.197 222.745 501.455L230.225 478.551L210.786 464.461C209.301 463.386 208.68 461.476 209.245 459.732C209.81 457.988 211.435 456.808 213.268 456.808H237.281L244.757 433.909C245.326 432.168 246.947 430.993 248.778 430.993C248.78 430.993 248.782 430.993 248.782 430.993C250.613 430.995 252.236 432.177 252.801 433.919L260.215 456.81H284.222C286.054 456.81 287.68 457.992 288.244 459.736C288.809 461.48 288.186 463.39 286.702 464.465L267.244 478.557L274.662 501.451C275.227 503.195 274.603 505.102 273.119 506.179C271.635 507.254 269.627 507.252 268.147 506.171L248.778 492.042L229.245 506.197C228.505 506.728 227.634 506.996 226.765 506.996ZM226.305 465.263L237.684 473.51C239.17 474.587 239.791 476.5 239.222 478.246L234.829 491.702L246.308 483.382C247.792 482.307 249.8 482.309 251.282 483.39L262.602 491.647L258.255 478.232C257.69 476.488 258.313 474.579 259.797 473.504L271.178 465.261H257.14C255.307 465.261 253.682 464.079 253.117 462.335L248.762 448.89L244.368 462.345C243.799 464.085 242.178 465.261 240.347 465.261H226.305V465.263Z" />
<path d="M167.43 481.761C166.559 481.761 165.687 481.493 164.945 480.954L145.5 466.846L126.06 480.952C124.576 482.029 122.567 482.027 121.085 480.948C119.603 479.87 118.986 477.958 119.557 476.216L127.03 453.381L107.507 439.234C106.023 438.159 105.4 436.25 105.967 434.505C106.531 432.761 108.156 431.582 109.989 431.582H134.071L141.477 408.698C142.042 406.954 143.667 405.772 145.5 405.772C147.332 405.772 148.958 406.954 149.522 408.698L156.936 431.582H181.026C182.859 431.582 184.484 432.763 185.049 434.507C185.613 436.252 184.99 438.161 183.506 439.236L163.974 453.383L171.446 476.22C172.017 477.962 171.4 479.874 169.918 480.952C169.178 481.491 168.303 481.761 167.43 481.761ZM145.5 457.393C146.371 457.393 147.242 457.661 147.984 458.2L159.352 466.449L154.979 453.08C154.408 451.334 155.029 449.418 156.517 448.34L167.98 440.038H153.863C152.031 440.038 150.405 438.857 149.841 437.113L145.504 423.726L141.17 437.113C140.606 438.857 138.981 440.038 137.148 440.038H123.031L134.49 448.342C135.978 449.421 136.599 451.334 136.029 453.08L131.655 466.445L143.017 458.2C143.757 457.661 144.629 457.393 145.5 457.393Z" />
<path d="M89.3519 406.258C88.4788 406.258 87.6057 405.988 86.8657 405.45L67.4098 391.303L47.97 405.435C46.4879 406.514 44.4776 406.512 42.9956 405.433C41.5136 404.355 40.8945 402.443 41.4652 400.699L48.9338 377.862L29.5162 363.636C28.0402 362.555 27.4272 360.648 27.9958 358.91C28.5645 357.172 30.1856 355.996 32.0145 355.996H56.0616L63.4012 333.197C63.9618 331.453 65.5829 330.269 67.4158 330.263C67.4198 330.263 67.4239 330.263 67.4259 330.263C69.2527 330.263 70.8759 331.437 71.4445 333.175L78.9212 355.996H102.954C104.785 355.996 106.406 357.174 106.975 358.914C107.542 360.654 106.927 362.562 105.449 363.64L85.9603 377.868L93.3765 400.723C93.9411 402.465 93.3201 404.375 91.838 405.45C91.096 405.988 90.2229 406.258 89.3519 406.258ZM67.4098 381.846C68.2828 381.846 69.1559 382.116 69.8959 382.655L81.3126 390.956L76.9673 377.563C76.4028 375.825 77.0198 373.922 78.4957 372.843L89.987 364.453H75.8543C74.0255 364.453 72.4043 363.277 71.8357 361.541L67.4602 348.183L63.1673 361.521C62.6048 363.269 60.9775 364.455 59.1427 364.455H44.9414L56.4044 372.853C57.8804 373.934 58.4934 375.841 57.9248 377.579L53.5634 390.914L64.9236 382.655C65.6656 382.116 66.5367 381.846 67.4098 381.846Z" />
<path d="M17.8071 295.467C16.9361 295.467 16.065 295.199 15.323 294.66C13.841 293.586 13.2199 291.678 13.7845 289.936L21.2027 267.016L1.75486 252.903C0.272831 251.827 -0.350227 249.919 0.216372 248.175C0.78297 246.433 2.40614 245.251 4.23902 245.251H28.2439L35.7347 222.329C36.3033 220.589 37.9204 219.41 39.7593 219.414C41.5902 219.416 43.2134 220.597 43.7759 222.339L51.1921 245.249H75.2817C77.1145 245.249 78.7377 246.429 79.3043 248.173C79.8709 249.915 79.2499 251.825 77.7658 252.901L58.318 267.014L65.7321 289.934C66.2947 291.676 65.6737 293.584 64.1916 294.658C62.7096 295.733 60.7033 295.733 59.2233 294.656L39.7634 280.518L20.2933 294.658C19.5513 295.199 18.6782 295.467 17.8071 295.467ZM17.2647 253.71L28.6532 261.975C30.1352 263.05 30.7563 264.957 30.1937 266.699L25.8283 280.187L37.2772 271.871C38.7592 270.795 40.7655 270.795 42.2475 271.871L53.6864 280.183L49.323 266.697C48.7604 264.955 49.3814 263.048 50.8635 261.973L62.2519 253.708H48.1131C46.2803 253.708 44.6551 252.526 44.0905 250.782L39.7311 237.317L35.3274 250.794C34.7587 252.532 33.1376 253.71 31.3087 253.71H17.2647Z" />
<path d="M86.8959 184.674C86.0249 184.674 85.1538 184.405 84.4138 183.869L64.9377 169.755L45.4656 183.869C43.9836 184.944 41.9773 184.942 40.4973 183.865C39.0173 182.788 38.3963 180.881 38.9609 179.141L46.3831 156.251L26.9937 142.118C25.5137 141.039 24.8967 139.132 25.4633 137.392C26.0299 135.652 27.6531 134.474 29.4839 134.474H53.4182L60.9171 111.526C61.4857 109.788 63.1068 108.61 64.9357 108.61C66.7645 108.61 68.3877 109.786 68.9543 111.526L76.4532 134.474H100.46C102.293 134.474 103.916 135.654 104.481 137.396C105.047 139.138 104.426 141.048 102.944 142.124L83.4903 156.257L90.9145 179.145C91.4791 180.887 90.8601 182.792 89.3781 183.869C88.6421 184.403 87.769 184.674 86.8959 184.674ZM64.9397 160.302C65.8108 160.302 66.6819 160.57 67.4219 161.106L78.8728 169.404L74.5054 155.938C73.9408 154.196 74.5598 152.289 76.0418 151.212L87.4504 142.925H73.3903C71.5615 142.925 69.9383 141.749 69.3717 140.009L64.9397 126.445L60.5077 140.009C59.9391 141.747 58.318 142.925 56.4891 142.925H42.4673L53.8437 151.218C55.3216 152.295 55.9387 154.2 55.3761 155.938L51.0107 169.402L62.4576 161.104C63.1976 160.57 64.0686 160.302 64.9397 160.302Z" />
<path d="M118.527 109.161C117.656 109.161 116.785 108.893 116.042 108.354C114.56 107.279 113.939 105.372 114.502 103.63L121.924 80.6694L102.484 66.577C101 65.5023 100.379 63.5928 100.944 61.8487C101.509 60.1045 103.134 58.9249 104.967 58.9249H129.06L136.462 36.0452C137.027 34.3011 138.652 33.1195 140.485 33.1175C142.318 33.1175 143.943 34.2991 144.508 36.0432L151.918 58.9249H175.985C177.82 58.9249 179.445 60.1065 180.008 61.8527C180.572 63.5989 179.947 65.5084 178.459 66.5811L158.945 80.6735L166.363 103.612C166.928 105.356 166.304 107.263 164.82 108.338C163.336 109.413 161.33 109.411 159.85 108.33L140.481 94.2114L121.011 108.352C120.271 108.891 119.4 109.161 118.527 109.161ZM118.004 67.3816L129.377 75.6245C130.859 76.6992 131.482 78.6067 130.919 80.3488L126.544 93.8827L138.003 85.5611C139.487 84.4824 141.497 84.4844 142.979 85.5652L154.313 93.8282L149.954 80.3488C149.389 78.6027 150.014 76.6932 151.502 75.6184L162.909 67.3816H148.843C147.01 67.3816 145.385 66.2 144.82 64.4558L140.487 51.0772L136.16 64.4538C135.595 66.198 133.97 67.3816 132.137 67.3816H118.004Z" />
<path d="M373.922 109.145C373.051 109.145 372.177 108.876 371.437 108.338L351.973 94.2114L332.532 108.334C331.048 109.411 329.041 109.411 327.557 108.332C326.075 107.253 325.456 105.342 326.027 103.6L333.516 80.6715L314.005 66.5831C312.517 65.5084 311.892 63.5989 312.457 61.8547C313.021 60.1085 314.646 58.927 316.479 58.927H340.551L347.947 36.0513C348.511 34.3071 350.137 33.1235 351.969 33.1235C353.802 33.1235 355.43 34.3051 355.994 36.0513L363.394 58.927H387.474C389.309 58.927 390.932 60.1085 391.496 61.8547C392.061 63.5989 391.436 65.5104 389.95 66.5831L370.447 80.6715L377.936 103.604C378.505 105.346 377.886 107.255 376.406 108.334C375.668 108.874 374.795 109.145 373.922 109.145ZM351.973 84.7546C352.845 84.7546 353.718 85.0228 354.458 85.5611L365.856 93.8343L361.456 80.3609C360.886 78.6127 361.509 76.6972 362.999 75.6205L374.404 67.3816H360.321C358.488 67.3816 356.863 66.2 356.299 64.4538L351.976 51.0893L347.654 64.4518C347.09 66.198 345.465 67.3796 343.632 67.3796H329.562L340.972 75.6184C342.462 76.6952 343.087 78.6107 342.517 80.3589L338.121 93.8182L349.491 85.5591C350.229 85.0248 351.1 84.7546 351.973 84.7546Z" />
<path d="M410.607 184.676C409.732 184.676 408.857 184.405 408.115 183.863C406.637 182.784 406.02 180.875 406.589 179.135L414.061 156.251L394.549 142.122C393.065 141.048 392.442 139.138 393.007 137.394C393.571 135.65 395.196 134.468 397.029 134.468H421.125L428.61 111.55C429.178 109.81 430.799 108.634 432.628 108.634C432.63 108.634 432.632 108.634 432.634 108.634C434.465 108.636 436.088 109.818 436.651 111.56L444.065 134.468H468.076C469.909 134.468 471.532 135.648 472.099 137.39C472.665 139.132 472.044 141.041 470.562 142.118L451.108 156.251L458.514 179.125C459.079 180.867 458.456 182.774 456.974 183.851C455.492 184.926 453.485 184.926 452.003 183.847L432.634 169.753L413.086 183.873C412.344 184.409 411.474 184.676 410.607 184.676ZM410.077 142.927L421.516 151.21C423.004 152.287 423.625 154.202 423.056 155.948L418.659 169.418L430.166 161.104C431.648 160.034 433.652 160.038 435.13 161.112L446.462 169.357L442.117 155.938C441.553 154.196 442.174 152.291 443.656 151.214L455.062 142.927H440.992C439.159 142.927 437.534 141.745 436.969 140.001L432.612 126.54L428.212 140.011C427.644 141.749 426.022 142.927 424.194 142.927H410.077Z" />
<path d="M438.336 290.38C437.465 290.38 436.594 290.111 435.852 289.573C434.368 288.496 433.747 286.589 434.314 284.845L441.728 262.001L422.264 247.871C420.782 246.794 420.161 244.886 420.728 243.142C421.294 241.4 422.917 240.22 424.75 240.22H448.757L456.242 217.315C456.81 215.576 458.432 214.399 460.26 214.399C460.262 214.399 460.264 214.399 460.264 214.399C462.095 214.401 463.716 215.582 464.281 217.323L471.703 240.22H495.781C497.614 240.22 499.239 241.402 499.803 243.146C500.368 244.89 499.745 246.8 498.261 247.875L478.748 262.003L486.217 284.827C486.788 286.569 486.169 288.482 484.687 289.561C483.205 290.64 481.194 290.64 479.71 289.561L460.264 275.414L440.819 289.571C440.085 290.109 439.212 290.38 438.336 290.38ZM437.772 248.675L449.185 256.96C450.667 258.037 451.288 259.945 450.723 261.687L446.382 275.061L457.782 266.762C459.264 265.683 461.275 265.681 462.759 266.762L474.121 275.027L469.76 261.699C469.189 259.953 469.81 258.037 471.298 256.958L482.737 248.675H468.634C466.802 248.675 465.176 247.494 464.612 245.751L460.246 232.288L455.843 245.761C455.274 247.5 453.653 248.677 451.824 248.677H437.772V248.675Z" />
<path d="M410.605 398.721C409.73 398.721 408.857 398.451 408.115 397.91C406.635 396.832 406.018 394.924 406.585 393.182L414.059 370.25L394.559 356.16C393.073 355.085 392.448 353.175 393.013 351.431C393.577 349.687 395.202 348.503 397.035 348.503H421.123L428.608 325.642C429.176 323.904 430.797 322.728 432.626 322.728C432.628 322.728 432.63 322.728 432.632 322.728C434.463 322.73 436.084 323.91 436.649 325.652L444.063 348.503H468.064C469.897 348.503 471.52 349.683 472.086 351.427C472.651 353.171 472.03 355.079 470.546 356.155L451.104 370.25L458.512 393.174C459.075 394.918 458.452 396.826 456.968 397.9C455.484 398.975 453.477 398.971 451.997 397.892L432.628 383.772L413.081 397.921C412.346 398.455 411.474 398.721 410.605 398.721ZM410.107 356.96L421.512 365.201C423.002 366.278 423.625 368.191 423.056 369.939L418.653 383.449L430.162 375.119C431.646 374.045 433.652 374.049 435.132 375.127L446.466 383.391L442.115 369.931C441.553 368.189 442.174 366.282 443.658 365.207L455.03 356.962H440.992C439.159 356.962 437.536 355.782 436.969 354.038L432.61 340.603L428.208 354.048C427.64 355.787 426.018 356.962 424.19 356.962H410.107V356.96Z" />
<path d="M376.486 476.775C375.617 476.775 374.746 476.506 374.008 475.972L354.444 461.815L335.082 475.932C333.6 477.01 331.594 477.014 330.11 475.94C328.626 474.865 328.003 472.956 328.57 471.213L335.97 448.368L316.496 434.179C315.016 433.1 314.398 431.193 314.965 429.452C315.532 427.712 317.155 426.533 318.986 426.533H343.013L350.429 403.667C350.994 401.925 352.615 400.745 354.446 400.743C354.448 400.743 354.45 400.743 354.452 400.743C356.28 400.743 357.902 401.919 358.47 403.657L365.959 426.535H390.01C391.839 426.535 393.462 427.712 394.031 429.45C394.599 431.189 393.982 433.098 392.506 434.177L373.089 448.366L380.511 471.246C381.076 472.986 380.457 474.893 378.977 475.97C378.233 476.504 377.36 476.775 376.486 476.775ZM354.433 452.358C355.302 452.358 356.172 452.627 356.912 453.161L368.461 461.519L364.094 448.057C363.529 446.319 364.146 444.416 365.62 443.339L377.051 434.985H362.888C361.059 434.985 359.438 433.81 358.869 432.072L354.464 418.614L350.104 432.06C349.54 433.804 347.915 434.983 346.082 434.983H331.965L343.422 443.331C344.9 444.408 345.519 446.313 344.955 448.051L340.625 461.416L351.939 453.167C352.685 452.629 353.56 452.358 354.433 452.358Z" />
<path d="M174.945 377.842C174.864 377.842 174.785 377.839 174.705 377.835L174.43 377.819C174.162 377.805 173.888 377.789 173.61 377.769C173.487 377.771 173.362 377.765 173.239 377.755C171.099 377.579 169.027 377.255 167.075 376.791C165.901 376.565 165.197 376.382 165.121 376.359C164.314 376.144 163.607 375.702 163.068 375.101C162.536 374.563 162.149 373.885 161.963 373.127C161.614 371.698 162.03 370.187 163.068 369.143L190.709 341.361L169.331 320.077L141.675 347.846C140.624 348.901 139.098 349.32 137.654 348.959C136.87 348.763 136.172 348.35 135.629 347.786C135.113 347.3 134.72 346.687 134.498 345.989C134.383 345.63 133.371 342.333 133.067 337.27C133.063 337.214 133.061 337.155 133.061 337.099C133.053 336.974 133.044 336.817 133.034 336.617L132.994 335.879C132.978 335.585 132.992 335.292 133.036 335.006C132.885 326.406 135.037 314.193 145.721 303.466C157.293 291.841 170.134 290.075 178.866 290.642C184.672 291.019 189.446 292.448 192.308 293.517L223.924 261.826C222.224 259.914 220.351 258.475 218.329 257.529C216.401 256.628 214.631 255.829 213.068 255.123C205.41 251.665 200.786 249.578 193.995 243.215C186.484 236.176 149.151 197.812 146.419 195.003C145.834 194.473 144.102 192.785 142.677 190.239C140.334 186.057 139.896 181.585 141.408 177.304C142.227 174.985 145.411 166.871 151.97 159.935C152.025 159.878 152.081 159.822 152.137 159.767C159.072 153.212 167.188 150.022 169.51 149.2C170.529 148.837 171.599 148.581 172.694 148.442C172.87 148.401 173.049 148.373 173.231 148.357C180.828 147.651 186.212 153.057 187.232 154.168C189.962 156.824 228.402 194.233 235.45 201.75C241.227 207.92 243.555 212.499 246.213 218.295C246.298 218.478 246.366 218.666 246.423 218.853C246.703 219.47 246.991 220.107 247.29 220.771C248.004 222.353 248.814 224.15 249.736 226.114C250.677 228.124 252.103 229.987 253.994 231.679L282.733 202.873C281.411 199.318 279.673 193.225 279.745 185.906C279.796 180.796 280.723 175.868 282.504 171.255C284.625 165.758 287.97 160.691 292.446 156.196C302.468 146.133 313.507 143.6 321.006 143.245C329.142 142.862 334.982 144.905 335.228 144.992C335.937 145.244 336.552 145.675 337.026 146.232C337.54 146.778 337.911 147.46 338.079 148.212C338.391 149.619 337.98 151.093 336.964 152.115L309.21 180.008L330.59 201.292L358.353 173.41C359.392 172.368 360.904 171.956 362.338 172.299C363.027 172.465 363.652 172.799 364.166 173.259C364.802 173.771 365.284 174.467 365.54 175.269C365.655 175.628 366.663 178.925 366.963 183.992C366.965 184.012 366.965 184.03 366.965 184.051L367.042 185.361C367.07 185.835 367.018 186.303 366.891 186.75C366.866 195.419 364.447 207.612 353.647 218.458C342.339 229.814 329.646 231.405 320.988 230.738C315.272 230.298 310.553 228.84 307.712 227.755L282.106 253.444C282.3 256.543 281.469 260.086 279.626 264.018C279.578 264.122 279.523 264.223 279.467 264.324C278.168 267.052 276.598 269.528 275.216 271.476C306.841 303.214 316.248 312.33 318.516 314.332C322.018 317.425 325.093 319.669 327.805 321.651C330.852 323.878 333.731 325.979 336.488 328.739L358.267 350.514C359.059 351.306 359.505 352.383 359.505 353.504C359.505 354.625 359.059 355.702 358.265 356.494L348.705 366.05C347.054 367.701 344.376 367.699 342.724 366.05L320.95 344.273C318.191 341.511 316.09 338.635 313.864 335.589C311.882 332.877 309.636 329.802 306.547 326.299C305.591 325.214 298.671 318.113 263.513 283.127C263.372 283.226 263.227 283.326 263.08 283.427C263.076 283.431 263.07 283.433 263.066 283.437C263.058 283.443 263.05 283.449 263.042 283.455C260.977 284.877 258.91 286.099 256.896 287.091C256.841 287.119 256.787 287.147 256.732 287.174C252.649 289.15 248.98 290.057 245.788 289.882L217.484 318.28C219.123 322.333 220.381 328.547 220.095 335.669C219.772 343.666 217.341 355.254 207.586 365.05C197.383 375.309 185.153 377.608 176.292 377.62C175.856 377.767 175.404 377.842 174.945 377.842ZM175.172 369.155C175.203 369.155 175.235 369.155 175.265 369.157C182.542 369.316 193.019 367.699 201.583 359.089C216.504 344.11 211.114 323.073 208.874 319.921C207.68 318.242 207.87 315.945 209.326 314.485L241.293 282.411C242.364 281.338 243.926 280.919 245.39 281.314C247.018 281.754 249.752 281.141 252.907 279.632C252.95 279.61 252.992 279.588 253.034 279.568C254.7 278.757 256.432 277.737 258.182 276.535C258.247 276.489 258.313 276.442 258.38 276.4C258.743 276.15 259.102 275.892 259.434 275.648C259.455 275.632 259.477 275.616 259.497 275.6C259.892 275.307 260.215 275.063 260.505 274.833C260.559 274.789 260.614 274.749 260.67 274.706C260.868 274.549 261.064 274.394 261.255 274.243C262.596 273.174 264.409 273.043 265.859 273.807C265.098 272.343 265.244 270.518 266.338 269.182C268.611 266.401 270.653 263.215 271.944 260.439C271.99 260.338 272.041 260.239 272.095 260.142C273.432 257.204 273.95 254.658 273.521 253.121C273.109 251.653 273.521 250.076 274.597 248.996L303.738 219.76C305.039 218.456 307.035 218.143 308.672 218.988C308.716 219.01 314.298 221.809 321.928 222.333C322.77 222.392 323.605 222.42 324.43 222.42C333.282 222.42 341.079 219.089 347.644 212.495C356.801 203.301 358.557 192.935 358.416 185.857C358.412 185.672 358.42 185.486 358.442 185.303L333.588 210.263C332.794 211.06 331.717 211.507 330.592 211.507C330.59 211.507 330.59 211.507 330.588 211.507C329.463 211.505 328.382 211.056 327.59 210.257L327.18 209.844L300.24 183.022C298.584 181.375 298.578 178.699 300.225 177.044L325.402 151.74C324.085 151.652 322.625 151.629 321.063 151.718C312.467 152.206 304.855 155.723 298.435 162.171C281.487 179.195 290.464 199.776 291.543 202.067C292.303 203.68 291.97 205.593 290.71 206.856L257.351 240.291C255.922 241.723 253.678 241.942 251.998 240.813C247.421 237.736 244.082 234 242.073 229.709C241.126 227.689 240.303 225.864 239.577 224.253C239.198 223.41 238.835 222.61 238.484 221.841C238.404 221.664 238.335 221.482 238.279 221.299C235.928 216.204 234.036 212.626 229.274 207.539C222.257 200.052 181.643 160.54 181.234 160.14C181.129 160.038 181.07 159.979 180.98 159.872C180.784 159.657 177.955 156.636 174.36 156.761C174.243 156.781 174.124 156.799 174.001 156.809C173.416 156.864 172.872 156.983 172.335 157.174C168.381 158.574 162.568 161.578 158.029 165.837C153.769 170.376 150.768 176.185 149.379 180.125C147.754 184.722 151.777 188.454 152.097 188.743C152.208 188.835 152.269 188.894 152.373 189.003C152.773 189.412 192.285 230.028 199.776 237.047C205.545 242.451 209.221 244.112 216.546 247.419C218.131 248.135 219.93 248.945 221.908 249.871C226.213 251.885 229.959 255.24 233.04 259.844C234.161 261.519 233.943 263.756 232.52 265.183L196.282 301.508C194.987 302.806 193.003 303.121 191.368 302.29C191.326 302.268 185.72 299.502 178.005 299.066C167.974 298.502 159.124 301.99 151.71 309.438C142.858 318.326 141.273 328.489 141.503 335.451C141.509 335.655 141.501 335.859 141.479 336.06L166.319 311.118C167.966 309.463 170.644 309.458 172.299 311.106L199.667 338.357C201.323 340.004 201.329 342.68 199.681 344.336L174.979 369.163C175.045 369.157 175.11 369.155 175.172 369.155ZM312.6 320.397C312.715 320.522 312.81 320.625 312.884 320.71C316.231 324.505 318.601 327.745 320.69 330.604C322.805 333.5 324.632 336 326.928 338.299L345.711 357.083L349.29 353.506L330.499 334.72C328.205 332.423 325.704 330.596 322.809 328.483C319.948 326.394 316.705 324.025 312.91 320.673C312.816 320.591 312.711 320.498 312.6 320.397ZM262.59 283.718C262.588 283.72 262.586 283.72 262.584 283.722C262.586 283.72 262.588 283.718 262.59 283.718ZM259.354 275.709C259.352 275.711 259.348 275.713 259.346 275.717C259.35 275.713 259.352 275.711 259.354 275.709ZM259.374 275.692C259.368 275.696 259.362 275.702 259.356 275.707C259.362 275.702 259.368 275.698 259.374 275.692ZM259.465 275.622C259.461 275.626 259.457 275.628 259.453 275.632L259.465 275.622ZM260.993 274.493C260.991 274.495 260.989 274.495 260.987 274.497C260.989 274.497 260.991 274.495 260.993 274.493ZM243.862 224.017C243.858 224.019 243.856 224.019 243.852 224.021C243.856 224.021 243.86 224.019 243.862 224.017ZM244.031 223.948C243.975 223.973 243.92 223.995 243.864 224.017C243.92 223.995 243.977 223.973 244.031 223.948ZM366.957 184.067C366.959 184.125 366.961 184.186 366.961 184.246C366.961 184.222 366.963 184.172 366.957 184.067ZM177.84 152.623C177.84 152.625 177.84 152.625 177.84 152.628C177.84 152.625 177.84 152.623 177.84 152.623Z" />
</svg>
