<svg viewBox="0 0 16 16" fill="black" xmlns="http://www.w3.org/2000/svg">
<path d="M8.32679 0C9.16339 0 9.89542 0.732026 9.89542 1.56863V10.6667L12.0915 8.47059C12.719 7.84314 13.6601 7.84314 14.2876 8.47059C14.6013 8.78431 14.7059 9.20262 14.7059 9.62092C14.7059 10.0392 14.6013 10.4575 14.2876 10.7712L9.47712 15.5817C9.37255 15.6863 9.37255 15.6863 9.26797 15.6863C9.1634 15.6863 9.1634 15.7909 9.05883 15.7909C8.95425 15.7909 8.84966 15.8954 8.84966 15.8954C8.74509 15.8954 8.53594 16 8.43137 16C8.43137 16 8.43136 16 8.32679 16C8.11764 16 7.90849 16 7.80391 15.8954C7.59476 15.7908 7.38561 15.6863 7.28104 15.5817L2.47059 10.7712C1.84314 10.1438 1.84314 9.20262 2.47059 8.57516C3.09804 7.94771 4.03921 7.94771 4.66666 8.57516L6.75816 10.6667V1.56863C6.75816 0.627451 7.49019 0 8.32679 0Z"/>
</svg>
