<svg viewBox="0 0 16 16" fill="black" xmlns="http://www.w3.org/2000/svg">
<path d="M16 8.37908C16 7.54248 15.268 6.81046 14.4314 6.81046H5.33332L7.52941 4.61438C8.15686 3.98693 8.15686 3.04575 7.52941 2.4183C7.21568 2.10458 6.79737 2 6.37907 2C5.96077 2 5.54248 2.10458 5.22876 2.4183L0.418294 7.22876C0.313719 7.33333 0.313729 7.33333 0.313729 7.43791C0.313729 7.54248 0.209147 7.54248 0.209147 7.64706C0.209147 7.75163 0.104566 7.85621 0.104566 7.85621C0.104566 7.96078 0 8.16993 0 8.27451C0 8.27451 0 8.27451 0 8.37908C0 8.58823 -9.58145e-06 8.79738 0.104566 8.90196C0.209141 9.11111 0.313719 9.32026 0.418294 9.42484L5.22876 14.2353C5.85621 14.8627 6.79737 14.8627 7.42483 14.2353C8.05228 13.6078 8.05228 12.6667 7.42483 12.0392L5.33332 9.94771H14.3268C15.268 9.94771 16 9.32026 16 8.37908Z"/>
</svg>
