<svg viewBox="0 0 95 95" fill="black" xmlns="http://www.w3.org/2000/svg"><path d="M69 5zM60 2zM60 2zM77 11zM78 12zM60 2zM77 11zM73 8zM88 28zM20 22h-1 1zM55 8zM65 4h1-1zM54 93h-1 1zM63 3h0zM52 4zM61 2zM89 25a48 48 0 01-1-1l1 1zM46 14zM93 58v0z"/><path d="M90 66l1-1v-1-1-1l1-1v-1h-2v1h-1l-1 1v-1h-1v-1h-1v-1h1-1v-1h-1v-1-1l1-1v-1-1-1-1-1h1v-1-1l1-1 1-1-1-1h1v-1l1-1v-1 1h1v-1h2v3h1v-2-2-1l-1-1v-1-1 3h1v1h-1v-1-1-1h-1v-1 1h-1l1 1h-1v3h-1-1v-1-1h-1 1l-1-1h1v-1h-1 1-1v-1h2v-1h1-1v-1-1h-1v-1l1 1v-1-1h1-1 1-1v-1h1v0a1 1 0 000 1v-1-1h-1v-1 1h1-1v-1 0h1v3a5 5 0 011 0l-1-1v-1-1 0h-1v-1h-1v-1 1h1-1v-1-1-1 0h-1 1-1 1-1v-1 0a304244835454 304244835454 0 00-10-12v-1 0a65 65 0 010 1h1v0h-1 1-1 1v1h-1 1v0h-1 0v-1 0h-1l1 1h-1 1v0l1 1h1v1h-1 1-1v-1h-1v-1 1h0v1h2v1h-1-2v-1 1h-1v0h-1v1l-1-1v1h1-1v1h-1 1-1v1h1-1v1h-1v-1 0h-1v0h-1 1-1v-1-1h-1 1-1 1-1v-1h1-1 1-1 1l-1-1h1v0h-1v1h0v-1 0h1-1-1 1v-1 1l-1-1h2-1-1 0v-1l1 1v-1h-1 2a8 8 0 010 1v-1h-1 1-1 0-1 1-1 2-1 0v-1 1l1-1h-1 1v-1h-1-1v-1l1 1h1-1 1-1a8 8 0 011 0h-1 0v-1-1 1h-1V9 8h-1 1l-1-1V6h-2V5v0h-1v0h-1V4v0h-1 1a28 28 0 001 1l-1-1h1v0h-1 1-2V3v0l1 1h3-1V3h-1 1v0h-1l1 1V3h-1-1 1-1 1-3 1-1 1-1a331 331 0 011 0h-1 1-1 0-1-1-1 2v1l-1-1v1h1-2V3v0h-1 1-3 1-1 2V2v1h2-1V2v0h-1 1-1 2v0h1-1-1 2a58 58 0 001 0h1v0h-1 0-2 0-1V1l1 1h0l-1-1h1v0h-1 1v1a47 47 0 1031 64zm2-5v-1 1zm2-19zm0 0zm0 0zm0-1zm-1-4v0zm0 1zm0 0zm0 4h1v0h-1zm0-2v-1 1zm0-2zm0 0v1h-1l1-1zm-3-9zm1 2zm0 0v-1a10 10 0 000 1zm0 0zm0 0zm0 0zm0-1v0zm0 0v0zm-2-3zm0 0zm0-1v0zm0 0zm0 0zm0 0zm0 0zm0 0zm0 0v-1 1zm-1-1h0zm1 0h-1 1zm0 0h-1 1zm-1 0zm0 0zm0 0zm1 0h-1 1zm0 0zm0 0zm0 0zm0 0h-1c1 0 1 0 0 0h1zm-1 0zm0 0zm0 0zm0-1zm0 0zm0 2zm0 0zm-1 1v-1l1 1v2h1v1l1 1-1-1 1 1v1h-1v-1h-1 1v-1l-1-1h1-1v-1 0h-1 1v-1h-1 1-1 0zm1 3h1-1zm0-1v-1 1zm0-1v0zm0 0zm0 0zm0 0h-1 1zm0 0zm-1-1h1-1zm0 0zm0-1v0zm0 1zm0 0zm0 2v-1l1 1v2h-1v-1-1zm-9-17zm0 0zm0 0zm0 0zm0 0zm1 0h-1 1zm0 1zm0 0zm0 0zm0 1zm-1-1zm0 0h1-1 1v0h-1zm1 1v-1h-1 1v1zm0-1zm0 0zm0 1zm0 1zm0 0h-1v-1h1v1zm-9 2v0zm-1-1zm0 0zm0-4h1-1zm0-1zm0 0zm0-1zm0 0zm0 0h-1 1zm-3-6zm-1 0zm9 13zm0 1zm-1 1v-1h1v1h-1zm0 1zm0 1v-1 1zm0 0zm0-1v1h-1l1-1zm-1 0zm-1 0h0zm0-1v0zm0 0v0zm-1 0zm0 0zm0-1zm0 0zm-1-1h1-1zm0-2h-1 1zm-1-1v0zm0 0zm0 0h1-1zm0 0zm0 0zm0-1zm1 0v-1 1zm0-1zm0 0zm0 0zm0 0zm-1-1zm0 0h1v1h-1v-1zm0-1V9v1zm0-1zm0 0zm0 0zm0 0zm0 0zm0 0zm0 0zm0-1zm0 0h-1 1zm-1 0h0zm0-1l1 1-1-1zm-1 22h1v1h-1 1v1h-1l1-1h-1v1h-1 1v-1 1h-1v-1h-1-1 1v-1h-1 1v-1h1v-1h1v1h-1v0h1l-1 1h1-1 1zm0 38zm1 0v1h-1l1-1zm0 0zm0 1zm-3-56zm-1 0zm0-8zm-1 0h0zm0-1zm-2 0zm0 5zm0 0zm-1-1h1-1v1l1-1v1h-1 2v1h-1 2-1 1-1v0h1v1h-1 2-1-1 1v0h-1 1v1h-1c1 0 1 0 0 0h1v0h1v1h1-1 0v1h1v-1 1h1-1a46 46 0 000 1v-1 1h-1v-1 1h-1 1-1l1-1h-1 0v-1h-1 1v1h-1v-1 1a16 16 0 011 0h-1v-1 1h-1 1v1h1v2l-1-1v0h-1 1v1h-1-1v-1 0h-1 1l-1-1h-1v-1 0h-1v0h-1 1v-1 1h2v-1h2-1v1l1-1v0h1-1-1v-1h0v-1 0h-1 1l-1-1v0h-1 0V8h-1-1-1-1V7h-1V6v1h1V6h-1 1V5h2l-1 1v1h-1 2V6h-1 1V5l1 1h-1V5h1-1 2v1h1v1h-1 1V6v0h1v1zm2 1h-1 1zm1 2zm0 0zm0 1zm2 3zm-1 2l-1-1h0l1 1zm-1-1zm0 0zm0-1zm0 3h-1 1zm0 0zm0-1zm-3 0v-1 1zm-2-1zm-1-1h-1 1zm1-4h1v1h-1v-1zm0-1h0zm0 0zm0 0h-1 1zm-1 0V8v1zm3 1v1h-1v-1h1zm0 0c-1 0-1 0 0 0zm-1 0zm-3-1zm0-1zm0 0zm-1 0zm-1 0V7v1zm-2-3h-1l1-1h2v1h-1 1-1-1zm-1 0h-1 1-2 1-1v0h-1V4h2-1 2v1zm-2 2v0zm-1 1h-1V7h2v1h-1zm-1-1h-1V6v1h-1 0-2-1-2-1V6h3V5h-2 1-1V4h2l1-1h0v1h2v0h1V3v1h1v1h-1v1h1v1zm-1 0h1-1zm0 0h1v1h-1V7zm-4 1zm-1-1zm0 1h-1 1zm-1-1zm0 0zm0 0zm4-5V1v1zm0 0h1V1v1h-1zm2 1h0zm2 1h-1V3h1v1zm1 3zm0-5h1v1h-1V2zm2 0h-1 1zm0-1zm-1 1h1-1zm0 0zm0 0h0zm1 2h-1 1zm0-2zm0 2zm0 0v0zm0 0zm2-1zm0 0zm0 0zm0 0zm0 0h1v1l-1-1zm1 0zm0 0zm0-1zm0 0h-1 1zm-1 7v0zm5-3zm1 0zm1-2zm0 2h-2c1 0 1 0 0 0V5h1v1h1zm-1-2zm0-2zm-2-1zm-1 0h3-1 1c0 1 0 1 0 0v1h-2 1-1-1 1-1V1h1v1h0V1h-1zm0 1h1-1zm0 0zm0 1zm0 0h-1 1-1 2v1h2v1h1-1V4v1h-1V4h-2-1 1-1 1-1-1V3h0V2h1v1l1-1v1zm-2-1zm2 0h-1-1 2zm0 0zm0-1zm-1 0h1-1zm-1 0l1 1V1h-1 2v1h-1 1-1-1 0V1zm-2 0a5 5 0 001 0h1-1 1-2zm1 0zm0 0h-1 1zm0 1zm0-1zm-1 1zm0 0h1v1h-1 1-2l1-1v0h-1-1 2zm-1 0zm0-1zm0 1zm-2-1h1-1zm-1 0h2-1 1-1-1 1-1zm0 0zm0 1V1h1v1h-1 2-1-3v1h-1V2h1-1-1 2-1 0l1-1h1v1h1zm-1-1zm-4 0h4-1-1 0-2zm0 0zm0 0zm-5 3h1V3h1l1-1h1v1h1-1v1h-1-2v0l-1 1V4zm-21 8zm0 1zm-1 1zm-1 0h1-1zm0 0h-1 1zm-2 3zM5 27zm0 0zm0 0v-1 1zm0-1zm0 0zm0 0zm0 0zm0 0zm1 0H5l1-1v1zm0-1v0zm0 0zm0 0zm0 0zm0-1zm1 0zm0 0zm0 0zm1-1l-1 1v-1 0h1zm0 0zm0 0zm0 0zm0 0zm0 0zm1-1H8h1zm0 0zm1 0H9l1-1v1zm0-1v0zm0 0zm0 0zm0 0zm0 1zm0-1zm0 0zm2-1zm1-1v0zm0 1v-1 1zm0-1zm1-1v1h-1 1-1v-1 0h1c-1 0-1 0 0 0zm0 0zm0 0v-1 1zm0-1h1-1zm1 0zm0 0zm2-1l1-1h-1 1l-1 1zm0 0zm0-1h1-1v0zm1 0h-1 1zm0 0zm0 0zm0 0zm0 0zm2 26zm0 0zm24 22zm7 30h1-1zm1 0zm0-1zm0 1zm0 0h-1 1zm-1 0h1-1zm1 0h-1 1zm-1 0h0zm1 0zm0 0zm0 0zm0 0zm0 0zm0 0zm0 0zm0 0zm1 0h-1 1-1 1zm0 0h-1 1zm0 0h-1 1zm-1 0zm0 0zm0 1v-1 1zm1 0zm0 0h-1 1zm0 0zm1 0zm0 0h-1 1zm0 0zm0 0zm0 0zm0 0h1-1zm1 0zm1-1h-1 1-1v0h1zm0 0zm1 0h-1-1l-1 1v-1h1l-1 1v-1 0h2-1-1 3zm-3 0zm3 0zm18-22v1l-1 1-1 1v1h-1v3h-1v2h-2-1l1 1c-1 0-1 0 0 0h-1-1v1h-1v2h-1v1h-1 0v-1 2h-1v1h-2-1 1v1l-1 1h-1-1v1h-2 1v1h-1 0v1h-1 1l-1 1h-1v1h-1l1-1h-1 1l-1 1v-1 0h-1 1-1 1-1 1-1v-1h-1 2-1v-1h1-1v-1-1h-1 1v-1-1-1-1h1l-1-1h1v-1h-1v-1h1v-1-1h-1v-1h-2v-1h-1v-1h-1 1-1v-1h-1v-1-1h-1v-1h-1v-1-1h1v-1h-1v-1l1-1h-1 1v-1h1l1-1v-1 1l-1-1h1l-1-1h1-1v-1-1 0h-1l-1 1h-1v-1 0l-1 1v-1 0h-1v-1 0h-1 1-1v-1-1h-2l-1-1h-1l-1-1h-1 0v-1 1h-2-1v-1h-1-1v-1h-1v-1h-1v-1-1-1h-1v-1h-1v-1-1h-1v-1l-1-1v-1-1h-1v-1 3h1v2l1 1h-1 1v1h-1v-1-1h-1v-1 1l-1-1h1v-1h-1v-1-1-1h-1v-1-1h-1v-1l-1-1v-1-1-1-1-1-1l1-1v-1-1h1v-1-1-1h1a39 39 0 010 1v-1h1-1v-1h1-1v-1h-1 0v-1 0h1-1v-1h1v0h-1v-1h1-1v-1h0l1-1-1 1 1-1-1 1v-1 0h0l1-1-1 1v-1 0h1-1v-1h1v-1h-1l1-1h-1v1h-1 1-1v-1-1 1h-1 1-1 1v-1l-1 1v-1 1h-1 1v-1h-1v-1 1h-1v1h-1 1-1v1h-1v-1 0h1v-1h1v-1h0v1h-1v1h-1v1h-1v1c-1 0-1 0 0 0h-1v1h-1v1h-1v1h-1 1-1-1v0h1v-1h1v-1 0h1v-1h1v-1h1-1v1h-1 1v-1l-1 1 1-1h-1v0h1v-1 1h-1v-1 0h1v-1h1v-1h1v-1h1v-1h1-1v0l1-1h1v-1 0h1l-1 1v-1h1-1 1V9h1V8h1l1-1h2V6h2-1c1 0 1 0 0 0h2-1 3v1h1V6h1-1v0h3V5v1h-2v1h-1 1V6h3V5v1h2l1 1h2-1v1h-1 3v1h1-1v0h1V8h2V7l-1 1V7v1h-1 1-1V7h2v1h1v1h1V8v1h1V8v1h0V8v0h1v1-1 2l-1-1 1 1V9h1V8h1V7h-1V6h1l1-1v1h1-1 0v1h1-1v1h1-1v1h1V8v0h1v1h-1v1h1V9h2-1V8h1-1 2v1h-1v1h1-1 1-1v1h-1v-1h-1 1v1h-1-1 1-1v1h-1v-1h-2 1l1 1h1-1l-1 1v-1l-1 1h-1v-1h-1v1h2v1h-1v-1h-1l1 1h-1 1-1v1l-1-1v2h-1v1h-1 1l-1 1h1-1 1-1 1v2l1-1v1h2v1h1v1h2l-1 1h1-1v1l1 1h-1 1v1h1v-1 0h1-1v-1-1h1-1 1-1 1-1v-1h2v-1h1v-1-1h-1v-1h1v-1-1h1-1v-1h1a50 50 0 011 0v0l1 1v-1 1h1v1h1v1h-1 1v1h-1 1-1 1v1h1v-1l1 1v-1l1-1v2h1-1v0l1 1h-1 1-1 1a17 17 0 000 1h-1 1-1 1v1h1-1v0h1-1v1l1-1v1h1-1v1h-1 2v-1 1h1v1h-1 1v1h-2v0l-1 1h-1-1-1v-1 0h-1v1h-1v1l-1-1v1h-1v1h-1 1l1-1h3l-1 1v-1 0l-1 1h2-1 1v1h-1 1v1h1l-1 1h-1v1l-1-1h1-1 1v-1h-1v1h-2l-1 1v1h-2v1h-1v1h-1v1h-1 1v-1h-1 0v3h1v1h-1-1v1h-1v1h-1-1v6h-1 0v-1-1h-1 1v-1h-1v-1h-1v0h-3v1h-1-1 1-1v-1 1h-1v-1 1h-1v-1 1h-1v0h-1v4h-1v3h1v1l1 1h3v-1-1h2v-1h1v2h-1 1l-1 1v2h-1 4l1 1h-1 1-1v3l1 1h4v0h1v-1l1-1v0h2v-1 2h-1l1 1v-1-1h2v1h5v1h1-1 2v1l1 1h3v1h1v1h1-1 1v1h-1v1h-1v0h1v0h1v1h-1 1v0l1-1h1v1l1-1v1h3l1 1h1v1zM51 92zm1-1h-1 1zm0 1zm0 0zm0 0zm0 0zm0 0zm0 0zm0 0zm0 0zm0 0zm0 0zm0 0zm0 0zm0-1l-1 1 1-1zm0 0zm0 0v0zm0 1zm0 0zm0 0zm-6-29v-1 1zM24 46zm-1 0v-1 1zm-4-23l1-1v1h-1 0zm0-1l1-1v1h-1zm1-3v-1h1c-1 0-1 0 0 0h-1v1zm0-1v0zm0 0v-1h1v1h-1 1-1zm0-1v0zm1 0v1h-1 1v-1zm0 2zm0 0zm0 1zm0 2v0zm0 0zm0 1zm0 1zm0 1zm0 0zm0 0zm0 0h1l-1 1h1v1h-1v-1h-1 0v-1h1-1 1zm0 0h1-1zm1 1v-1 1zm0 0zm0-1zm0 0v0zm-1-3h-1 1zm0 0zm0 1v-1 1zm0 0zm0 0zm0 1zm0 0v-1 1zm0-2zm0 0zm0 0h-1l1-1v1zm0-1zm0 0zm0 0v-1 1zm0-1h-1 1l-1 1v-1l1-1h-1 1v1zm-1 0zm0 0zm0-1zm0 0h1-1zm0 0v0zm0 1zm1-1zm0 0zm0 0v0zm0 0v-1 1zm-1 1zm0 0zm0 1zm0 2h-1 1zm0 0zm0 1h-1 1zm2 3zm0 0zm0 1v-1 1zm0-1zm0 0zm-1-4zm0 0v0zm0 0h1-1v0zm0-3zm0-2v-1 1zm-5-2v-1 1zm3-6zm22-2zm9-1zm1 1zm0 0zm4 6v0zm-1 1l-1 1v-1h1zm-3 0l1-1h1l-1 1h-1zm2-1h-1l1-1h-1v1l-1-1v0h-1 1v-1-1h1v1h1v1h1c-1 0-1 0 0 0v1h-1zm-3 10h-1 1zm2-13v0zm1 1v-1h-1 1v1zm10 20h-1v-1 0h1v1zm-2-1v0h-1v-1 1h1zm0-2v-1h-1 1l1 1h-1zm-5 26h-1 2-1zm-3 0h-1v0h-2 1v-1a64 64 0 011 0h2v0l1 1h-1-1zm-4-1h-1v-1h-1v-1h-1-1l-1-1v1h-1-1 1v-1h3v1h2v0l1 1h1v1h-1zm-1 1v0h-1 1zm-2-5zm0 0v-1 1zm1 2h0zm4 3v-1 1zm3-19h-1 1zm12 32zm0 0zm0 0zm9-51v-1 1h1-1zm1 0zm8 4l-1-1 1 1h-2v-1h-1 1-1v-1h-1v-1l1 1-1-1h1-1 1v1h2v1h1-1 1v1zM67 4zM91 29zM94 50v0zM92 62zM91 65zM93 35zM92 33zM93 37zM92 32z"/><path d="M78 11a2 2 0 000 1v-1zM94 42zM94 42z"/></svg>
