<svg viewBox="0 0 16 16" fill="black" xmlns="http://www.w3.org/2000/svg">
<path d="M11.4023 0H4.5977C2.02299 0 0 1.95556 0 4.44444V11.0222C0 13.5111 2.02299 15.4667 4.5977 15.4667H11.4023C13.977 15.4667 16 13.5111 16 11.0222V4.44444C16 1.95556 13.977 0 11.4023 0ZM14.5287 11.1111C14.5287 12.7111 13.1494 14.0444 11.4943 14.0444H4.5977C2.94253 14.0444 1.56323 12.7111 1.56323 11.1111V4.44444C1.56323 2.84444 2.94253 1.51111 4.5977 1.51111H11.4943C13.1494 1.51111 14.5287 2.84444 14.5287 4.44444V11.1111Z"/>
<path d="M8.00001 3.73333C5.70116 3.73333 3.86208 5.51111 3.86208 7.73333C3.86208 9.95555 5.70116 11.7333 8.00001 11.7333C10.2989 11.7333 12.1379 9.95555 12.1379 7.73333C12.1379 5.51111 10.2989 3.73333 8.00001 3.73333ZM8.00001 10.4C6.52875 10.4 5.33332 9.24445 5.33332 7.82222C5.33332 6.4 6.52875 5.24445 8.00001 5.24445C9.47128 5.24445 10.6667 6.4 10.6667 7.82222C10.7586 9.24445 9.47128 10.4 8.00001 10.4Z"/>
<path d="M12.3218 4.53333C12.8805 4.53333 13.3333 4.09557 13.3333 3.55556C13.3333 3.01554 12.8805 2.57778 12.3218 2.57778C11.7632 2.57778 11.3103 3.01554 11.3103 3.55556C11.3103 4.09557 11.7632 4.53333 12.3218 4.53333Z"/>
</svg>
