<svg viewBox="0 0 12 12" fill="black" xmlns="http://www.w3.org/2000/svg">
<path fill-rule="evenodd" clip-rule="evenodd" d="M11.6394 6.26415C11.6394 5.58491 11.1111 3.84906 10.696 2.60377C10.5828 2.30189 10.5073 2 10.4319 1.77358C10.1677 0.90566 9.52622 0.641509 8.50736 0.566038L6.09225 0.377358L4.35641 0L4.31866 0.150943C4.16772 0.716981 4.09225 1.96226 4.01678 2.60377C3.86584 4.41509 3.86585 6.07547 3.86585 7.43396V7.62264L4.20546 7.88679V8.41509H4.58282C4.46961 8.64151 4.43189 8.90566 4.43189 9.16981V10.6415H5.18661C5.26208 10.9434 5.45074 11.2453 5.63942 11.4717C5.97904 11.8113 6.43188 12 6.92245 12C7.41301 12 7.90359 11.8113 8.20547 11.4717C8.43189 11.2453 8.58281 11.0189 8.65829 10.717H10.3564L11.6017 10.3774V8.75472L11.4507 8.22641H11.6017V6.26415H11.6394ZM4.20546 7.4717C4.20546 6.11321 4.20547 4.45283 4.35641 2.67925C4.39415 2.07547 4.50736 1.01887 4.62057 0.45283L6.09225 0.716981L8.54508 0.90566C9.56395 1.01887 9.94131 1.24528 10.13 1.88679C10.2055 2.07547 10.2432 2.33962 10.3564 2.60377H5.14886V2.83019H10.2055L10.8092 5.62264C10.8092 5.62264 10.9979 5.66038 11.2621 5.73585C11.2998 5.96226 11.3375 6.15094 11.3375 6.30189V6.41509H11.0734V7.54717H11.3375V7.92453H11.0357L11.3375 8.79245H10.847V9.20755H9.67716C9.45074 8.03774 8.28093 7.01887 7.03565 7.01887H6.65829C6.01678 7.01887 5.37527 7.35849 4.96018 7.84906L4.6583 7.73585L4.20546 7.4717ZM9.63943 9.77358V9.58491C9.63943 9.54717 9.63943 9.50943 9.63943 9.4717H10.8092V9.77358H9.63943ZM4.96018 10.4528H4.6583V9.20755C4.6583 8.18868 5.6017 7.24528 6.62056 7.24528H6.99792C8.24321 7.24528 9.413 8.37736 9.413 9.54717V10.3774H9.1866V9.88679C9.1866 8.71698 8.24321 7.77359 7.0734 7.77359H6.73377C5.75263 7.77359 4.92245 8.56604 4.92245 9.58491V10.4528H4.96018ZM6.92245 11.0943C6.43188 11.0943 6.01678 10.6792 6.01678 10.1887C6.01678 9.69811 6.43188 9.28302 6.92245 9.28302C7.41301 9.28302 7.82812 9.69811 7.82812 10.1887C7.82812 10.6792 7.41301 11.0943 6.92245 11.0943ZM10.3564 10.3774H9.63943V10H11.2621V10.1132L10.3564 10.3774Z"/>
<path d="M8.09225 6.41509H7.33753V6.64151H8.09225V6.41509Z"/>
<path fill-rule="evenodd" clip-rule="evenodd" d="M9.79036 4.98113H9.90359C10.0168 4.98113 10.0923 4.90566 10.0923 4.79245V3.20755C10.0923 3.09434 10.0168 3.01887 9.90359 3.01887H9.79036C9.67715 3.01887 9.60168 3.09434 9.60168 3.20755V4.79245C9.63942 4.90566 9.71489 4.98113 9.79036 4.98113Z"/>
<path fill-rule="evenodd" clip-rule="evenodd" d="M7.71489 5.01887L10.1677 5.43396L10.0923 5.0566C10.0168 5.09434 9.97906 5.13208 9.90359 5.13208H9.79036C9.60168 5.13208 9.45075 4.98113 9.45075 4.79245V3.20755C9.45075 3.13208 9.45074 3.09434 9.48848 3.0566H7.41301V4.67925C7.41301 4.86792 7.52621 5.01887 7.71489 5.01887Z"/>
<path fill-rule="evenodd" clip-rule="evenodd" d="M6.92245 9.69811C6.6583 9.69811 6.43188 9.92453 6.43188 10.1887C6.43188 10.4528 6.6583 10.6792 6.92245 10.6792C7.1866 10.6792 7.41301 10.4528 7.41301 10.1887C7.41301 9.92453 7.1866 9.69811 6.92245 9.69811Z"/>
<path fill-rule="evenodd" clip-rule="evenodd" d="M0.318673 5.54717C0.318673 5.81132 0.469611 6 0.620555 6.11321H0.356399V6.79245H2.24319V6.15094H1.22434C1.03566 6.15094 0.922437 6.03774 0.922437 5.88679C0.922437 5.73585 1.03566 5.62264 1.22434 5.62264H2.24319V4.98113H1.22434C1.03566 4.98113 0.922437 4.86792 0.922437 4.71698C0.922437 4.56604 1.03566 4.45283 1.22434 4.45283H2.24319V3.77358H0.997913C0.545083 3.77358 0.318673 4 0.318673 4.41509C0.318673 4.67925 0.431876 4.86792 0.620555 5.0566C0.431876 5.13208 0.318673 5.32075 0.318673 5.54717Z"/>
<path fill-rule="evenodd" clip-rule="evenodd" d="M1.41301 1.35849C1.33754 1.28302 1.26206 1.28302 1.18658 1.35849L0.0545085 2.49057C-0.058699 2.60377 0.0167681 2.75472 0.167711 2.75472H2.43186C2.58281 2.75472 2.6583 2.56604 2.54509 2.49057L1.41301 1.35849Z"/>
<path fill-rule="evenodd" clip-rule="evenodd" d="M2.43186 7.73585H0.167711C0.0167681 7.73585 -0.058699 7.92453 0.0545085 8L1.18658 9.13208C1.26206 9.20755 1.33754 9.20755 1.41301 9.13208L2.54509 8C2.6583 7.92453 2.58281 7.73585 2.43186 7.73585Z"/>
</svg>
