<svg viewBox="0 0 17 12" fill="black" xmlns="http://www.w3.org/2000/svg">
<path fill-rule="evenodd" clip-rule="evenodd" d="M14.9455 1.74545H3.65455V0.763637H1.69091V1.8H1.58181C0.709088 1.8 0 2.50909 0 3.38182V10.4182C0 11.2909 0.709088 12 1.58181 12H14.9455C15.8182 12 16.5273 11.2909 16.5273 10.4182V3.32727C16.5273 2.45455 15.8182 1.74545 14.9455 1.74545ZM1.58181 2.78182H14.9455C15.2727 2.78182 15.4909 3.05455 15.4909 3.32727V6.92727C15.0545 7.58182 13.9091 8.56364 11.4545 8.56364C8.12727 8.56364 7.30909 6.16364 4.36364 6.16364C2.67273 6.16364 1.63636 6.81818 0.981812 7.41818V3.32727C0.981812 3.05455 1.25454 2.78182 1.58181 2.78182Z"/>
<path d="M3.87273 0H1.47273V0.490909H3.87273V0Z"/>
<path d="M8.4 6.21818L9.70908 5.23636C10.0364 4.96364 10.1455 4.8 10.1455 4.63636C10.1455 4.41818 9.98182 4.30909 9.76363 4.30909C9.54545 4.30909 9.32728 4.47273 9.05455 4.74546L8.4 4.2C8.78182 3.70909 9.16364 3.43636 9.81818 3.43636C10.5818 3.43636 11.0727 3.87273 11.0727 4.52727C11.0727 5.07273 10.8 5.34546 10.2545 5.72727L9.65455 6.16364H11.0727V6.92727H8.34545V6.21818H8.4Z"/>
<path d="M12.7636 4.90909L13.1455 4.25455H14.1273L13.2545 5.56364L14.1273 6.92727H13.1455L12.7091 6.21818L12.2727 6.92727H11.2909L12.1636 5.56364L11.2909 4.25455H12.2727L12.7636 4.90909Z"/>
</svg>
