<svg viewBox="0 0 18 12" fill="black" xmlns="http://www.w3.org/2000/svg">
<path fill-rule="evenodd" clip-rule="evenodd" d="M9.97647 2.62116H9.46252C9.41112 2.62116 9.35974 2.67256 9.35974 2.72396C9.35974 2.77535 9.41112 2.82675 9.46252 2.82675H9.97647C10.0279 2.82675 10.0793 2.77535 10.0793 2.72396C10.1307 2.67256 10.0793 2.62116 9.97647 2.62116Z"/>
<path fill-rule="evenodd" clip-rule="evenodd" d="M8.38323 2.62116H7.86927C7.81788 2.62116 7.76648 2.67256 7.76648 2.72396C7.76648 2.77535 7.81788 2.82675 7.86927 2.82675H8.38323C8.43462 2.82675 8.48601 2.77535 8.48601 2.72396C8.48601 2.67256 8.43462 2.62116 8.38323 2.62116Z"/>
<path d="M5.29951 2.31279H1.85601V2.56977H5.29951V2.31279Z"/>
<path fill-rule="evenodd" clip-rule="evenodd" d="M14.1395 4.93396C13.9853 4.93396 13.8311 5.08814 13.8311 5.24233C13.8311 5.39651 13.9853 5.5507 14.1395 5.5507C14.2937 5.5507 14.4479 5.39651 14.4479 5.24233C14.3965 5.03675 14.2937 4.93396 14.1395 4.93396Z"/>
<path fill-rule="evenodd" clip-rule="evenodd" d="M3.65485 4.93396C3.50066 4.93396 3.34647 5.08814 3.34647 5.24233C3.34647 5.39651 3.50066 5.5507 3.65485 5.5507C3.80903 5.5507 3.96322 5.39651 3.96322 5.24233C3.96322 5.03675 3.80903 4.93396 3.65485 4.93396Z"/>
<path fill-rule="evenodd" clip-rule="evenodd" d="M16.9149 4.93396C16.9149 4.93396 16.9149 4.88256 16.8635 4.83117L16.9149 4.77977C16.9662 4.72837 17.0177 4.67698 17.0177 4.62558C17.0177 4.57419 17.0177 4.52279 17.0177 4.21442C17.0177 4.00884 17.0177 3.75186 17.0177 3.59768C17.0177 3.3407 16.8121 3.18651 16.6579 3.08372C16.6579 3.03233 16.6579 2.98093 16.6579 2.92954C16.6065 2.72396 16.4523 2.46698 15.7842 2.21C15.1674 1.95302 14.2423 1.85023 14.0367 1.79884C13.8311 1.69605 12.8032 1.02791 12.2379 0.719535C11.5697 0.308372 10.8502 0.0513953 10.3877 0.0513953C9.92509 0.0513953 2.113 0 1.70184 0C1.13649 0 0.879496 -9.95606e-08 0.72531 0.102791C0.62252 0.154186 0.519732 0.205582 0.262755 2.46698L0.314154 4.26582C0.262758 4.31721 0.211369 4.36861 0.159974 4.4714C0.108578 4.57419 0.0571767 4.67698 0.0571767 4.77977C0.0571767 4.83117 0.0571736 4.88256 0.00577818 4.93396C-0.0456172 5.24233 0.262755 5.44791 0.262755 5.49931C0.31415 5.49931 0.314157 5.5507 0.365552 5.5507L2.16439 5.65349C2.21579 5.65349 2.21578 5.65349 2.26717 5.6021H2.52415C2.57554 5.80768 2.67834 5.96186 2.83252 6.11605C3.03811 6.32163 3.34648 6.47582 3.65485 6.47582C3.96323 6.47582 4.2716 6.32163 4.47718 6.11605C4.63137 5.96186 4.73416 5.80768 4.78556 5.6021H13.0088C13.0602 5.80768 13.163 5.96186 13.3172 6.11605C13.5228 6.32163 13.8311 6.47582 14.1395 6.47582C14.4479 6.47582 14.7563 6.32163 14.9618 6.11605C15.116 5.96186 15.2188 5.80768 15.2702 5.6021H15.373C15.373 5.6021 15.5272 5.6021 15.8356 5.6021C15.9898 5.6021 16.1953 5.6021 16.4009 5.6021C16.8635 5.6021 17.0691 5.49931 17.1204 5.24233C17.0691 5.08814 17.0176 4.98535 16.9149 4.93396ZM3.65485 5.91047C3.24369 5.91047 2.93532 5.6021 2.93532 5.19093C2.93532 4.77977 3.24369 4.4714 3.65485 4.4714C4.06602 4.4714 4.37439 4.77977 4.37439 5.19093C4.37439 5.6021 4.06602 5.91047 3.65485 5.91047ZM14.1395 5.91047C13.7283 5.91047 13.42 5.6021 13.42 5.19093C13.42 4.77977 13.7283 4.4714 14.1395 4.4714C14.5507 4.4714 14.859 4.77977 14.859 5.19093C14.859 5.6021 14.4993 5.91047 14.1395 5.91047ZM16.3495 5.19093C15.9384 5.19093 15.63 5.19093 15.5272 5.19093V5.13954C15.5272 4.77977 15.373 4.42 15.116 4.16303C14.859 3.90605 14.4993 3.75186 14.1395 3.75186C13.7797 3.75186 13.42 3.90605 13.163 4.16303C12.906 4.42 12.7518 4.77977 12.7518 5.13954V5.19093H5.04254V5.13954C5.04254 4.77977 4.88834 4.42 4.63136 4.16303C4.37439 3.90605 4.01462 3.75186 3.65485 3.75186C3.29509 3.75186 2.93532 3.90605 2.67834 4.16303C2.42137 4.42 2.26717 4.77977 2.26717 5.13954V5.24233C2.21578 5.24233 2.21579 5.19093 2.16439 5.19093L0.416951 5.08814C0.365555 5.03675 0.314154 4.93396 0.314154 4.93396C0.314154 4.88256 0.365552 4.77977 0.365552 4.72837C0.365552 4.62558 0.365555 4.57419 0.416951 4.57419C0.468346 4.4714 0.571131 4.36861 0.571131 4.36861C0.571131 4.31721 0.622529 4.31721 0.622529 4.26582V3.70047H0.673928C0.776718 3.70047 0.879506 3.59768 0.879506 3.49489V2.46698C0.879506 2.36419 0.776718 2.2614 0.673928 2.2614H0.622529C0.72532 1.43907 0.828114 0.565349 0.930904 0.359768C1.0337 0.308372 1.34207 0.308372 1.70184 0.308372C2.113 0.308372 9.92509 0.308372 10.3877 0.359768C10.7988 0.359768 11.4669 0.616745 12.0837 0.976512C12.7004 1.33628 13.8825 2.05582 13.8825 2.10721H13.9339C13.9339 2.10721 14.9104 2.21 15.5786 2.46698C15.3216 2.46698 14.9618 2.41558 14.9618 2.51837C14.9618 2.62116 14.9104 2.67256 15.116 2.77535C15.3216 2.87814 15.9383 3.08372 16.2467 3.13512C16.2981 3.13512 16.3495 3.13512 16.3495 3.13512C16.2981 3.23791 16.3495 3.3407 16.4523 3.3407C16.5551 3.3921 16.7093 3.49489 16.7093 3.59768C16.7093 3.70047 16.7093 3.85465 16.7093 4.00884C16.6579 3.95744 16.6065 3.90605 16.5037 3.90605C16.2981 3.80326 16.1439 3.80326 16.0925 3.80326C16.0411 3.80326 15.9897 3.95744 16.0411 4.36861C16.0925 4.77977 16.0411 4.93396 16.1953 5.03675C16.2981 5.08814 16.5037 5.13954 16.5037 5.13954H16.6065C16.6065 5.19093 16.6579 5.24233 16.6579 5.24233C16.6065 5.19093 16.5037 5.19093 16.3495 5.19093Z"/>
<path fill-rule="evenodd" clip-rule="evenodd" d="M10.953 0.66814C10.1821 0.411163 9.25694 0.565349 9.25694 0.565349C9.25694 0.565349 9.10276 0.66814 9.10276 0.976512C9.10276 1.33628 9.25694 1.85023 9.25694 1.85023C9.25694 1.85023 9.51392 2.2614 9.82229 2.31279C10.0793 2.31279 12.4949 2.36419 12.4949 2.36419C12.4949 2.36419 13.3172 2.2614 12.9574 1.85023C12.9574 1.85023 11.7239 0.925117 10.953 0.66814Z"/>
<path fill-rule="evenodd" clip-rule="evenodd" d="M1.95881 8.01768L0.211353 9.76512C0.108563 9.86791 0.108563 10.0221 0.211353 10.1249L1.95881 11.8723C2.113 12.0265 2.42136 11.9237 2.42136 11.6668V8.12047C2.36997 7.96628 2.113 7.86349 1.95881 8.01768Z"/>
<path fill-rule="evenodd" clip-rule="evenodd" d="M15.116 11.9237L16.8635 10.1763C16.9663 10.0735 16.9663 9.91931 16.8635 9.81652L15.116 8.06907C14.9618 7.91489 14.6535 8.01768 14.6535 8.27466V11.8209C14.7049 11.9751 14.9618 12.0779 15.116 11.9237Z"/>
<path d="M7.30392 8.73721V9.09698C7.45811 8.8914 7.71509 8.63442 8.12625 8.63442C8.48602 8.63442 8.79439 8.78861 8.89718 9.09698C9.15416 8.84001 9.41113 8.63442 9.82229 8.63442C10.3876 8.63442 10.7474 8.99419 10.7474 9.66233V11.4612H9.77089V9.9707C9.77089 9.66233 9.61672 9.50815 9.41114 9.50815C9.20555 9.50815 8.99996 9.66233 8.99996 9.9707V11.4612H8.02345V9.9707C8.02345 9.66233 7.86926 9.50815 7.66368 9.50815C7.4581 9.50815 7.25252 9.66233 7.25252 9.9707V11.4612H6.27601V8.73721H7.30392Z"/>
</svg>
