<svg viewBox="0 0 18 12" fill="black" xmlns="http://www.w3.org/2000/svg">
<path d="M6.9055 10.1638L3.56153 10.3875L3.58317 10.7111L6.92715 10.4874L6.9055 10.1638Z"/>
<path d="M16.5405 11.027H16V10.7027H16.5405C16.8649 10.7027 17.2973 10.7027 17.4054 10.7027H17.5135C17.6216 10.7027 17.6216 10.5946 17.6216 10.4865V9.83784C17.6216 9.72973 17.6216 9.72973 17.5135 9.62162H17.4054V9.51351C17.4054 8.97297 17.4054 8.86487 17.2973 8.43243C17.1892 8.21622 15.4595 7.56757 14.9189 7.35135C14.5946 7.13514 13.9459 6.59459 13.4054 6.05405C13.1892 5.83784 13.0811 5.72973 12.8649 5.62162C12.3243 5.08108 11.4595 4.86487 10.3784 4.86487V10.8108H13.9459V11.1351H9.94594V4.54054H10.1622C11.4595 4.54054 12.4324 4.86487 13.0811 5.40541C13.2973 5.51351 13.4054 5.72973 13.6216 5.83784C14.1622 6.27027 14.7027 6.81081 15.027 7.02703C15.3513 7.13514 17.5135 7.89189 17.6216 8.32432C17.7297 8.86486 17.7297 8.97297 17.7297 9.4054C17.8378 9.51351 17.9459 9.62162 17.9459 9.83784V10.4865C17.9459 10.7027 17.7297 10.9189 17.5135 11.027H17.4054C17.2973 11.027 16.8649 11.027 16.5405 11.027Z"/>
<path fill-rule="evenodd" clip-rule="evenodd" d="M12.4324 5.51351C12.7568 5.72973 12.973 6.05406 13.1892 6.27027C13.4054 6.48649 13.7297 6.7027 13.9459 7.02703C13.8378 7.02703 13.7297 7.02703 13.7297 7.13514C13.6216 7.24324 13.5135 7.67568 13.5135 7.89189C13.5135 8 13.5135 8 13.5135 8.10811H13.1892C12.4324 8.10811 11.027 7.56757 11.027 7.56757V5.62162H12.1081C12.3243 5.4054 12.4324 5.40541 12.4324 5.51351Z"/>
<path fill-rule="evenodd" clip-rule="evenodd" d="M13.9459 7.24324C13.8378 7.35135 13.8378 7.67568 13.8378 7.89189V8H14.3784C14.8108 8 14.2703 7.24324 14.1622 7.13513C14.0541 7.13513 13.9459 7.13513 13.9459 7.24324Z"/>
<path fill-rule="evenodd" clip-rule="evenodd" d="M14.9189 9.08108C15.3513 9.08108 15.6757 9.2973 16 9.51351C16.3243 9.83784 16.4324 10.1622 16.4324 10.5946V11.027H16.1081C16 11.2432 15.8919 11.4595 15.7838 11.5676C15.5676 11.7838 15.2432 12 14.9189 12C14.5946 12 14.2703 11.8919 14.0541 11.5676C13.9459 11.4595 13.7297 11.2432 13.7297 11.027H13.4054V10.5946C13.4054 10.1622 13.6216 9.83784 13.8378 9.51351C14.0541 9.18919 14.4865 9.08108 14.9189 9.08108ZM14.9189 9.83784C14.4865 9.83784 14.1622 10.1622 14.1622 10.5946C14.1622 11.027 14.4865 11.3514 14.9189 11.3514C15.3513 11.3514 15.6757 11.027 15.6757 10.5946C15.6757 10.1622 15.3513 9.83784 14.9189 9.83784Z"/>
<path fill-rule="evenodd" clip-rule="evenodd" d="M14.9189 10.2703C14.7027 10.2703 14.5946 10.3784 14.5946 10.5946C14.5946 10.8108 14.7027 10.9189 14.9189 10.9189C15.1351 10.9189 15.2432 10.8108 15.2432 10.5946C15.2432 10.3784 15.1351 10.2703 14.9189 10.2703Z"/>
<path d="M11.7838 8H10.9189V8.21622H11.7838V8Z"/>
<path fill-rule="evenodd" clip-rule="evenodd" d="M17.5135 8.97297C17.0811 8.75676 16.3243 8.32432 16.2162 8.21622C16.2162 8.21622 16.1081 7.78379 16.2162 7.56757C16.7568 7.78379 17.4054 8.10811 17.4054 8.32432C17.5135 8.64865 17.5135 8.75676 17.5135 8.97297Z"/>
<path fill-rule="evenodd" clip-rule="evenodd" d="M10.0541 9.51351H3.13513C2.91891 9.40541 2.7027 9.2973 2.48648 9.2973C2.27027 9.2973 2.05405 9.40541 1.83783 9.51351H0C0 9.94595 0 10.2703 0 10.7027H0.540541V10.1622H1.29729C1.18919 10.2703 1.18919 10.4865 1.18919 10.7027C1.18919 11.027 1.2973 11.3513 1.62162 11.5676C1.83784 11.7838 2.16216 12 2.48648 12C2.81081 12 3.13513 11.8919 3.35135 11.5676C3.56757 11.3513 3.78378 11.027 3.78378 10.7027C3.78378 10.4865 3.78378 10.3784 3.67567 10.1622H5.18919L6.81081 10.8108H10.0541V10.7027C10.0541 10.2703 10.0541 9.83784 10.0541 9.51351ZM2.48648 9.83784C2.91891 9.83784 3.24324 10.1622 3.24324 10.5946C3.24324 11.027 2.91891 11.3514 2.48648 11.3514C2.05405 11.3514 1.72973 11.027 1.72973 10.5946C1.72973 10.1622 2.05405 9.83784 2.48648 9.83784Z"/>
<path fill-rule="evenodd" clip-rule="evenodd" d="M2.48648 10.2703C2.27027 10.2703 2.16216 10.3784 2.16216 10.5946C2.16216 10.8108 2.27027 10.9189 2.48648 10.9189C2.7027 10.9189 2.81081 10.8108 2.81081 10.5946C2.81081 10.4865 2.7027 10.2703 2.48648 10.2703Z"/>
<path fill-rule="evenodd" clip-rule="evenodd" d="M3.2585 1.83783C3.24846 1.76781 3.24325 1.69569 3.24325 1.62162C3.24325 0.637933 4.16254 0 5.08109 0C5.99963 0 6.91892 0.637933 6.91892 1.62162C6.91892 1.69569 6.91371 1.76781 6.90368 1.83783H7.67568L8.64866 9.08108H1.40541L2.48649 1.83783H3.2585ZM4.32433 1.62162C4.32433 1.41118 4.56668 1.08108 5.08109 1.08108C5.5955 1.08108 5.83784 1.41118 5.83784 1.62162C5.83784 1.68669 5.81467 1.76319 5.76746 1.83783H4.39471C4.3475 1.76319 4.32433 1.68669 4.32433 1.62162ZM5.87837 7.03881C6.01891 6.99557 6.13783 6.95233 6.23512 6.90908L6.08918 6.33611C6.04593 6.35413 5.98828 6.37575 5.9162 6.40097C5.84413 6.4262 5.77026 6.43881 5.69458 6.43881C5.61891 6.43881 5.55404 6.41899 5.49999 6.37935C5.44954 6.33611 5.42431 6.26404 5.42431 6.16314V4.77935H6.01891V4.2226H5.42431V3.30368H4.69999V4.2226H4.32701V4.77935H4.69999V6.40638C4.69999 6.53251 4.71981 6.64061 4.75945 6.7307C4.79909 6.81719 4.85134 6.88926 4.9162 6.94692C4.98467 7.00098 5.06215 7.04061 5.14864 7.06584C5.23873 7.09107 5.33422 7.10368 5.43512 7.10368C5.59008 7.10368 5.73782 7.08206 5.87837 7.03881Z"/>
</svg>
