<svg viewBox="0 0 23 12" fill="black" xmlns="http://www.w3.org/2000/svg">
<path d="M21.8932 10.8491H20.662L20.6085 10.7956C20.5282 10.7421 20.4747 10.6618 20.3944 10.635L20.5817 10.3941C20.6353 10.4477 20.7156 10.5012 20.7691 10.5547H21.8397L22.6694 10.3406V9.18975L22.4017 8.38682H22.6694V6.91478C22.6694 6.3795 22.3214 5.20187 22.0538 4.34541C21.9735 4.07777 21.8932 3.81012 21.8397 3.62277C21.7326 3.24807 21.117 3.03396 20.1 3.03396H17.8518V7.8783H17.5306V2.71279H20.1C21.3044 2.71279 22.0003 2.98043 22.1341 3.51572C22.1876 3.70307 22.2679 3.97071 22.3482 4.23835C22.6426 5.14834 22.9905 6.2992 22.9905 6.88802V8.65446H22.8299L22.9905 9.10946V10.528L21.8932 10.8491Z"/>
<path fill-rule="evenodd" clip-rule="evenodd" d="M22.7764 6.45979C22.6426 5.68363 22.2679 4.53276 22.0538 3.81012H21.6791L22.2144 6.32597C22.2144 6.32597 22.482 6.35273 22.7764 6.45979Z"/>
<path fill-rule="evenodd" clip-rule="evenodd" d="M17.2094 10.6886V9.83209C17.2094 9.02916 17.8786 8.36006 18.6815 8.36006H18.9491C19.9126 8.36006 20.6888 9.13622 20.6888 10.0997V10.6618H20.4212C20.3676 10.983 20.207 11.2506 19.9929 11.4915C19.6985 11.7859 19.2971 11.9732 18.8421 11.9732C18.3871 11.9732 17.9856 11.7859 17.6912 11.4915C17.4771 11.2774 17.3165 10.983 17.263 10.6618H17.2094V10.6886ZM18.8421 9.59121C18.4138 9.59121 18.0659 9.93915 18.0659 10.3674C18.0659 10.7956 18.4138 11.1435 18.8421 11.1435C19.2703 11.1435 19.6182 10.7956 19.6182 10.3674C19.6182 9.93915 19.2703 9.59121 18.8421 9.59121Z"/>
<path d="M20.6085 10.7956V10.1265C20.6085 9.21651 19.8591 8.49388 18.9759 8.49388H18.7082C17.9588 8.49388 17.3433 9.10946 17.3433 9.85886V10.8224H16.6474V9.53768C16.6474 8.52064 17.5574 7.61066 18.5744 7.61066H18.8956C20.1 7.61066 21.2509 8.70799 21.2509 9.85886V10.7956H20.6085ZM21.01 10.5815V9.80533C21.01 8.78828 19.9394 7.77124 18.8688 7.77124H18.5477C17.6644 7.77124 16.8347 8.60093 16.8347 9.48416V10.5815H17.1024V9.83209C17.1024 8.97563 17.7983 8.253 18.6815 8.253H18.9491C19.9662 8.253 20.7959 9.08269 20.7959 10.0997V10.5815H21.01Z"/>
<path fill-rule="evenodd" clip-rule="evenodd" d="M18.8421 9.93915C18.6012 9.93915 18.4138 10.1265 18.4138 10.3674C18.4138 10.6083 18.6012 10.7956 18.8421 10.7956C19.0829 10.7956 19.2703 10.6083 19.2703 10.3674C19.2703 10.1265 19.0829 9.93915 18.8421 9.93915Z"/>
<path fill-rule="evenodd" clip-rule="evenodd" d="M19.6718 2.87337C18.8153 2.39162 18.28 2.2578 17.5039 2.23103C17.3433 2.23103 17.2094 2.36485 17.1827 2.52544C17.0756 4.02424 16.9686 5.52304 16.8615 6.99508V9.18975C16.9418 8.65446 17.2897 8.17271 17.718 7.90506L17.6644 7.8783C17.6644 6.21891 17.6644 4.53276 17.6644 2.87337H19.6718Z"/>
<path d="M22.8299 9.13622H22.2144V10.2068H22.8299V9.13622Z"/>
<path d="M22.4285 9.48416H21.0903V9.69827H22.4285V9.48416Z"/>
<path d="M19.8859 7.02184H19.2168V7.23596H19.8859V7.02184Z"/>
<path d="M22.4017 9.99268H21.0903V10.2068H22.4017V9.99268Z"/>
<path fill-rule="evenodd" clip-rule="evenodd" d="M17.0221 8.68123H2.00732V9.7518H4.06817L5.9952 9.05593C6.15579 8.94887 6.42343 9.56445 6.63755 9.56445C6.85166 9.56445 7.01225 8.94887 7.17283 9.05593L9.18015 9.7518H16.7812V9.48416C16.7812 9.21651 16.8883 8.92211 17.0221 8.68123Z"/>
<path fill-rule="evenodd" clip-rule="evenodd" d="M9.98308 10.528C9.95632 10.9027 9.76897 11.2506 9.52809 11.5182C9.23368 11.8127 8.83222 12 8.37723 12C7.92223 12 7.52077 11.8127 7.22636 11.5182C6.95872 11.2506 6.79813 10.9027 6.77137 10.528H6.42343V10.3674C6.42343 9.80533 6.61078 9.29681 6.95872 8.92211C7.27989 8.60093 7.76165 8.38682 8.40399 8.38682C9.04633 8.38682 9.50133 8.60093 9.84926 8.92211C10.224 9.29681 10.3845 9.80533 10.3845 10.3674V10.528H9.98308ZM8.37723 9.59121C7.949 9.59121 7.60106 9.93915 7.60106 10.3674C7.60106 10.7956 7.949 11.1435 8.37723 11.1435C8.80545 11.1435 9.15339 10.7956 9.15339 10.3674C9.18016 9.93915 8.83222 9.59121 8.37723 9.59121Z"/>
<path fill-rule="evenodd" clip-rule="evenodd" d="M8.37723 9.93915C8.13635 9.93915 7.949 10.1265 7.949 10.3674C7.949 10.6083 8.13635 10.7956 8.37723 10.7956C8.6181 10.7956 8.80546 10.6083 8.80546 10.3674C8.80546 10.1265 8.6181 9.93915 8.37723 9.93915Z"/>
<path fill-rule="evenodd" clip-rule="evenodd" d="M13.5695 9.3771H10.7592V10.2603C10.7592 10.4209 10.8931 10.5815 11.0804 10.5815H13.2751C13.4357 10.5815 13.5963 10.4477 13.5963 10.2603V10.0997H13.8104V10.1265C13.8104 10.3674 13.9977 10.528 14.2118 10.528C14.3724 10.528 14.533 10.4209 14.5865 10.2871H15.0951C15.1486 10.4209 15.3092 10.528 15.4698 10.528C15.7106 10.528 15.8712 10.3406 15.8712 10.1265V10.0997H16.0051V10.528H16.8347V9.3771H16.0051V9.56445H13.5695V9.3771Z"/>
<path d="M22.8299 7.02184H22.4285V8.03888H22.8299V7.02184Z"/>
<path fill-rule="evenodd" clip-rule="evenodd" d="M21.0903 4.07777H19.2703V5.52304C19.2703 5.68363 19.3774 5.79068 19.5379 5.81745L21.7058 6.19215L21.6523 5.87098C21.5988 5.89774 21.5453 5.9245 21.465 5.9245H21.3847C21.2241 5.9245 21.0903 5.79068 21.0903 5.6301V4.23835C21.0635 4.18482 21.0635 4.1313 21.0903 4.07777ZM21.4382 4.07777C21.5185 4.07777 21.5988 4.15806 21.5988 4.23835V5.6301C21.5988 5.71039 21.5185 5.79068 21.4382 5.79068H21.3579C21.2776 5.79068 21.1973 5.71039 21.1973 5.6301V4.23835C21.1973 4.15806 21.2776 4.07777 21.3579 4.07777H21.4382Z"/>
<path d="M5.86138 8.65446C5.56697 8.49388 5.21904 8.38682 4.79081 8.38682C4.14847 8.38682 3.69347 8.60093 3.34554 8.92211C2.97084 9.29681 2.81025 9.80533 2.81025 10.3674V10.528H3.18495C3.21172 10.9027 3.39907 11.2506 3.63994 11.5182C3.93435 11.8127 4.33582 12 4.79081 12C5.2458 12 5.64727 11.8127 5.94167 11.5182C6.20932 11.2506 6.3699 10.9027 6.39667 10.528H6.77137V10.3674C6.77137 9.83209 6.61078 9.32357 6.26285 8.97563H5.86138V8.65446ZM4.79081 11.1435C4.36258 11.1435 4.01465 10.7956 4.01465 10.3674C4.01465 9.93915 4.36258 9.59121 4.79081 9.59121C5.21904 9.59121 5.56697 9.93915 5.56697 10.3674C5.59374 10.7956 5.2458 11.1435 4.79081 11.1435Z"/>
<path d="M4.79081 9.93915C4.54993 9.93915 4.36258 10.1265 4.36258 10.3674C4.36258 10.6083 4.54993 10.7956 4.79081 10.7956C5.03169 10.7956 5.21904 10.6083 5.21904 10.3674C5.21904 10.1265 5.03169 9.93915 4.79081 9.93915Z"/>
<path d="M12.713 8.97563H15.1218V8.30653H12.713V8.97563Z"/>
<path d="M3.58642 7.74448H12.713L14.2921 3.16778H15.4162V7.90506L14.9345 8.38682H2.03409L0.454993 3.70307H0V2.71279H1.25792L3.58642 7.74448Z"/>
<path fill-rule="evenodd" clip-rule="evenodd" d="M5.2999 0.0807627C5.91248 0.0408115 6.60277 5.24193e-05 6.87843 5.24193e-05C6.96434 5.24193e-05 7.08734 0.0168302 7.22672 0.0415522C7.37009 0.0669823 7.54373 0.103269 7.73704 0.147115C8.12387 0.234861 8.59571 0.354317 9.07365 0.481767C10.0255 0.7356 11.0124 1.02405 11.4094 1.16071C11.6298 1.22969 11.8882 1.37373 12.1427 1.53958C12.4017 1.7084 12.6703 1.90893 12.9121 2.09997C13.1542 2.2913 13.3715 2.47477 13.5281 2.61031C13.6065 2.67814 13.6699 2.73408 13.7137 2.77317C13.7357 2.79271 13.7527 2.80805 13.7644 2.81856L13.7777 2.83062L13.7812 2.83379L13.7824 2.83487C13.7824 2.83489 13.7825 2.83497 13.6498 2.98043L13.8403 3.03015L13.826 3.08488C13.8167 3.12028 13.8032 3.17178 13.7863 3.23626C13.7524 3.36521 13.7046 3.54606 13.6494 3.7537C13.5389 4.16879 13.3981 4.69176 13.2773 5.12135C13.155 5.55598 12.9923 6.0373 12.8361 6.43481C12.758 6.63345 12.6805 6.81367 12.6095 6.95785C12.5439 7.09101 12.4726 7.21764 12.401 7.2911C12.3602 7.33503 12.3086 7.36053 12.2739 7.37544C12.2324 7.39328 12.1848 7.40827 12.1355 7.42124C12.0365 7.4473 11.9115 7.47009 11.7732 7.49018C11.4955 7.53054 11.1444 7.56273 10.796 7.58629C10.4469 7.6099 10.0967 7.6251 9.8196 7.63102C9.68118 7.63398 9.55961 7.63466 9.46482 7.63281C9.41754 7.63189 9.37536 7.63031 9.34031 7.6279C9.31021 7.62583 9.27362 7.62249 9.2424 7.61504C9.10701 7.58437 8.4093 7.37415 7.62747 7.13663C7.36103 7.05569 7.0831 6.97103 6.81118 6.88821C6.27314 6.72433 5.75864 6.56762 5.40334 6.46103C5.10767 6.37233 4.7873 6.19398 4.47992 5.98649C4.17023 5.77745 3.86275 5.53126 3.59164 5.29744C3.32018 5.0633 3.08297 4.83963 2.91368 4.67457C2.82897 4.59198 2.7611 4.5239 2.71426 4.47632C2.69084 4.45252 2.67267 4.43385 2.66027 4.42103L2.64607 4.40629L2.64233 4.4024L2.64105 4.40105C2.64102 4.40102 2.64091 4.4009 2.78349 4.26512L2.64105 4.40105C2.59011 4.34756 2.57325 4.26992 2.59761 4.20019L3.96259 0.2926C3.98846 0.218528 4.05585 0.166889 4.1341 0.161163L4.14847 0.35753C4.1341 0.161163 4.13408 0.161165 4.1341 0.161163L4.22969 0.154245C4.29084 0.149848 4.37876 0.143567 4.48594 0.136032C4.70027 0.120962 4.99168 0.100864 5.2999 0.0807627ZM4.29168 0.544591L3.00957 4.21495C3.05388 4.2598 3.11455 4.32045 3.18858 4.39262C3.35384 4.55375 3.58501 4.77169 3.84883 4.99924C4.11301 5.2271 4.40773 5.46267 4.70023 5.66011C4.99505 5.85911 5.27688 6.01197 5.51649 6.08385C5.87257 6.19067 6.38852 6.34783 6.92712 6.51188C7.19883 6.59464 7.47631 6.67915 7.74193 6.75985C8.54175 7.00283 9.21916 7.20649 9.32992 7.2311L9.33497 7.23229C9.33399 7.23205 9.33347 7.23192 9.33347 7.23189C9.3335 7.23177 9.34289 7.23337 9.3673 7.23504C9.3935 7.23684 9.42866 7.23825 9.4725 7.2391C9.55993 7.24081 9.67568 7.24023 9.81118 7.23733C10.0819 7.23155 10.426 7.21663 10.7694 7.19341C11.1135 7.17014 11.4532 7.13876 11.7166 7.10049C11.8489 7.08128 11.9571 7.06099 12.0353 7.04042C12.0746 7.03008 12.1016 7.02086 12.1184 7.01365C12.1204 7.0128 12.1221 7.01203 12.1235 7.01136C12.1464 6.98529 12.1922 6.9139 12.2562 6.7839C12.3207 6.6529 12.3938 6.48352 12.4696 6.29073C12.6211 5.90539 12.7796 5.43657 12.8982 5.01474C13.0183 4.58787 13.1585 4.06704 13.2688 3.65243C13.324 3.44523 13.3716 3.26476 13.4054 3.1361C13.4142 3.10271 13.4221 3.0728 13.4289 3.04683C13.3881 3.01067 13.3345 2.96347 13.2705 2.9081C13.1168 2.77517 12.9042 2.59565 12.6679 2.40893C12.4313 2.22193 12.1729 2.02935 11.9276 1.86948C11.6789 1.70738 11.4567 1.58769 11.2897 1.53585C11.2878 1.53525 11.2858 1.53461 11.2839 1.53394C10.9029 1.40256 9.92502 1.11634 8.97218 0.862254C8.49664 0.735443 8.03005 0.617366 7.64993 0.531143C7.45975 0.488006 7.29278 0.4532 7.15794 0.429283C7.01912 0.404658 6.92634 0.393836 6.87843 0.393836C6.61879 0.393836 5.9441 0.433369 5.32553 0.473711C5.01817 0.493756 4.72746 0.513805 4.51356 0.528845C4.42499 0.535073 4.3496 0.54044 4.29168 0.544591ZM13.6498 2.98043L13.8403 3.03015C13.8588 2.95941 13.8364 2.88414 13.7824 2.83487L13.6498 2.98043Z"/>
<path fill-rule="evenodd" clip-rule="evenodd" d="M3.42186 0.559373C3.46196 0.612013 3.47294 0.681281 3.45108 0.743745L2.51433 3.42017C2.49056 3.48809 2.43164 3.53763 2.36065 3.54938C2.28966 3.56113 2.21792 3.53322 2.17353 3.47659L1.39736 2.48631C1.35659 2.43429 1.34464 2.36529 1.36554 2.30259L1.90083 0.696732C1.92608 0.620988 1.99457 0.56799 2.07422 0.562559L3.25185 0.482266C3.31788 0.477764 3.38175 0.506733 3.42186 0.559373ZM2.23267 0.946453L1.77259 2.3267L2.26151 2.9505L2.98078 0.895445L2.23267 0.946453Z"/>
<path fill-rule="evenodd" clip-rule="evenodd" d="M6.93657 0.00883327C7.04046 0.0409449 7.09865 0.151197 7.06654 0.255087L5.24656 6.14323C5.21445 6.24712 5.1042 6.30531 5.00031 6.2732C4.89642 6.24109 4.83823 6.13084 4.87034 6.02695L6.69031 0.138801C6.72243 0.03491 6.83268 -0.0232784 6.93657 0.00883327Z"/>
<path fill-rule="evenodd" clip-rule="evenodd" d="M11.2463 1.13313C11.35 1.16559 11.4079 1.27604 11.3754 1.37982L9.47513 7.45532C9.44267 7.5591 9.33222 7.61692 9.22844 7.58446C9.12465 7.552 9.06684 7.44155 9.0993 7.33777L10.9996 1.26227C11.032 1.15849 11.1425 1.10067 11.2463 1.13313Z"/>
<path d="M6.47696 3.43542H6.90519V3.64954C7.03901 3.48895 7.17283 3.40866 7.36018 3.40866C7.5743 3.40866 7.70812 3.48895 7.78841 3.64954C7.92223 3.48895 8.08282 3.40866 8.29693 3.40866C8.45752 3.40866 8.59134 3.46219 8.67163 3.54248C8.75193 3.64954 8.80546 3.78336 8.80546 3.94395V4.93423H8.37723V4.07777C8.37723 3.86365 8.29693 3.78336 8.13635 3.78336C8.05605 3.78336 8.00253 3.81012 7.949 3.86365C7.89547 3.91718 7.8687 3.99747 7.8687 4.10453V4.96099H7.44048V4.10453C7.44048 3.89042 7.36018 3.81012 7.1996 3.81012C7.1193 3.81012 7.06578 3.83689 7.01225 3.89042C6.95872 3.94395 6.93195 4.02424 6.93195 4.1313V4.98775H6.47696V3.43542Z"/>
<path d="M9.52809 3.78336C9.3675 3.78336 9.20692 3.72983 9.09986 3.62277L9.23368 3.43542C9.34074 3.51572 9.42103 3.56925 9.52809 3.56925C9.58162 3.56925 9.60838 3.56925 9.63515 3.54248C9.66191 3.51572 9.68868 3.48895 9.68868 3.43542C9.68868 3.35513 9.60838 3.3016 9.47456 3.3016H9.36751L9.34074 3.14102L9.63515 2.87337H9.18015V2.65926H9.92956V2.84661L9.60838 3.11425C9.71544 3.11425 9.79573 3.14102 9.84926 3.19455C9.90279 3.24807 9.92956 3.32837 9.92956 3.40866C9.92956 3.51572 9.90279 3.59601 9.8225 3.6763C9.76897 3.7566 9.66191 3.78336 9.52809 3.78336Z"/>
</svg>
