<svg viewBox="0 0 25 12" fill="black" xmlns="http://www.w3.org/2000/svg">
<path fill-rule="evenodd" clip-rule="evenodd" d="M12.817 7.71063H10.2638C9.44681 7.71063 9.24255 8.01702 9.24255 8.01702L9.54893 8.22127C9.54893 8.22127 9.65106 8.11915 10.1617 8.11915V8.62978H12.2043V8.11915H12.817V7.71063Z"/>
<path fill-rule="evenodd" clip-rule="evenodd" d="M18.1277 8.3234H0.970217V9.54893H1.17447L0.663831 9.85531V9.54893H0.255319V10.5702H0.663831V10.2638L1.37872 9.75319H2.60426V9.34468H4.03405C4.13617 9.24255 4.34043 9.14042 4.54468 9.14042C4.74894 9.14042 4.95319 9.24255 5.05532 9.34468H7.91489C8.01702 9.24255 8.22127 9.14042 8.42553 9.14042C8.62978 9.14042 8.83404 9.24255 8.93617 9.34468H17.617V9.14042C17.8213 8.83404 17.9234 8.52765 18.1277 8.3234Z"/>
<path fill-rule="evenodd" clip-rule="evenodd" d="M14.3489 9.0383H11.2851V9.95745C11.2851 10.1617 11.3872 10.2638 11.5915 10.2638H13.9404C14.1447 10.2638 14.2468 10.1617 14.2468 9.95745V9.75319H14.4511C14.4511 9.95744 14.6553 10.1617 14.8596 10.1617C15.0638 10.1617 15.166 10.0596 15.2681 9.85531H15.983C16.0851 10.0596 16.1872 10.1617 16.3915 10.1617C16.5957 10.1617 16.8 9.95744 16.8 9.75319H17.0043V10.2638H17.9234V9.0383H17.0043V9.24255H14.3489V9.0383Z"/>
<path fill-rule="evenodd" clip-rule="evenodd" d="M3.42127 11.3872C3.11489 11.0808 2.91064 10.7745 2.91064 10.2638H2.50213V10.1617C2.50213 9.54893 2.70639 8.93617 3.1149 8.62978C3.52341 8.22127 4.03404 8.01702 4.64681 8.01702C5.3617 8.01702 5.87234 8.22127 6.17872 8.62978C6.38298 8.83404 6.48511 9.03829 6.58724 9.24255C6.68936 9.03829 6.79149 8.73191 6.99574 8.62978C7.40425 8.22127 7.91489 8.01702 8.52765 8.01702C9.24255 8.01702 9.75319 8.22127 10.0596 8.62978C10.4681 9.0383 10.6723 9.54893 10.6723 10.1617V10.366H10.2638C10.2638 10.7745 10.0596 11.183 9.75319 11.4894C9.44681 11.7957 9.03829 12 8.52765 12C8.01702 12 7.60851 11.7957 7.30213 11.4894C6.99574 11.183 6.79149 10.8766 6.79149 10.366H6.28085C6.28085 10.7745 6.0766 11.183 5.77021 11.4894C5.46383 11.7957 5.05532 12 4.54468 12C4.13617 11.8979 3.72766 11.6936 3.42127 11.3872ZM8.62979 9.24255C8.11915 9.24255 7.81276 9.65106 7.81276 10.0596C7.81276 10.5702 8.22128 10.8766 8.62979 10.8766C9.14043 10.8766 9.44681 10.4681 9.44681 10.0596C9.44681 9.65106 9.14043 9.24255 8.62979 9.24255ZM4.64681 9.24255C4.13617 9.24255 3.82979 9.65106 3.82979 10.0596C3.82979 10.5702 4.2383 10.8766 4.64681 10.8766C5.05532 10.8766 5.46383 10.4681 5.46383 10.0596C5.46383 9.65106 5.15745 9.24255 4.64681 9.24255Z"/>
<path d="M23.4383 10.6723H22.1106C22.0085 10.5702 21.9064 10.5702 21.9064 10.4681L22.1106 10.1617C22.2128 10.1617 22.2128 10.2638 22.3149 10.366H23.4383L24.3574 10.1617V8.93617L24.0511 8.11915H24.3574V6.48511C24.3574 5.87234 23.9489 4.6468 23.6425 3.72766C23.5404 3.42127 23.4383 3.11489 23.4383 2.91064C23.3362 2.50213 22.6213 2.29787 21.4979 2.29787H19.0468V7.60851H18.7404V1.99149H21.4979C22.8255 1.99149 23.5404 2.29787 23.7447 2.91064C23.8468 3.11489 23.8468 3.42127 23.9489 3.72766C24.2553 4.74893 24.6638 5.97447 24.6638 6.58723V8.52766H24.4596L24.6638 9.0383V10.5702L23.4383 10.6723Z"/>
<path fill-rule="evenodd" clip-rule="evenodd" d="M24.3574 5.87234C24.2553 5.05532 23.8468 3.72766 23.5404 3.01277H23.1319L23.7447 5.77021C23.7447 5.66808 24.0511 5.77021 24.3574 5.87234Z"/>
<path fill-rule="evenodd" clip-rule="evenodd" d="M18.3319 10.4681V9.54893C18.3319 8.62979 19.0468 7.91489 19.966 7.91489H20.2723C21.2936 7.91489 22.2128 8.73191 22.2128 9.85531V10.4681H21.9064C21.8043 10.7745 21.7021 11.0808 21.3957 11.3872C21.0894 11.6936 20.6808 11.8979 20.1702 11.8979C19.6596 11.8979 19.2511 11.6936 18.9447 11.3872C18.5362 11.183 18.434 10.8766 18.3319 10.4681ZM20.0681 9.24255C19.5574 9.24255 19.2511 9.65106 19.2511 10.0596C19.2511 10.5702 19.6596 10.8766 20.0681 10.8766C20.5787 10.8766 20.8851 10.4681 20.8851 10.0596C20.8851 9.65106 20.5787 9.24255 20.0681 9.24255Z"/>
<path d="M22.6213 10.5702H22.0085V9.85531C22.0085 8.83404 21.1915 8.01702 20.1702 8.01702H19.8638C19.0468 8.01702 18.3319 8.73191 18.3319 9.54893V10.5702H17.617V9.14042C17.617 8.01702 18.6383 6.99574 19.7617 6.99574H20.0681C21.3957 6.99574 22.6213 8.22128 22.6213 9.44681V10.5702ZM22.2128 10.366H22.417V9.54893C22.417 8.42553 21.2936 7.30212 20.0681 7.30212H19.7617C18.8425 7.30212 17.9234 8.22127 17.9234 9.14042V10.366H18.2298V9.54893C18.2298 8.62979 19.0468 7.81276 19.966 7.81276H20.2723C21.3957 7.81276 22.3149 8.73191 22.3149 9.85531V10.366H22.2128Z"/>
<path fill-rule="evenodd" clip-rule="evenodd" d="M20.0681 9.65106C19.7617 9.65106 19.5574 9.85532 19.5574 10.1617C19.5574 10.4681 19.7617 10.6723 20.0681 10.6723C20.3745 10.6723 20.5787 10.4681 20.5787 10.1617C20.5787 9.85532 20.3745 9.65106 20.0681 9.65106Z"/>
<path fill-rule="evenodd" clip-rule="evenodd" d="M20.9872 1.99149C20.0681 1.48085 19.4553 1.2766 18.6383 1.2766C18.434 1.2766 18.3319 1.37872 18.3319 1.58298C18.2298 3.21702 18.1277 4.85106 18.0255 6.48511V8.93617C18.1277 8.32341 18.434 7.81277 18.9447 7.50638C18.9447 5.66809 18.9447 3.82979 18.9447 1.99149H20.9872Z"/>
<path d="M24.3574 8.83404H23.7447V9.95745H24.3574V8.83404Z"/>
<path d="M23.9489 9.14042H22.5191V9.34468H23.9489V9.14042Z"/>
<path d="M21.1915 6.48511H20.4766V6.68936H21.1915V6.48511Z"/>
<path d="M23.9489 9.75319H22.5191V9.95745H23.9489V9.75319Z"/>
<path d="M24.3574 6.48511H23.9489V7.60851H24.3574V6.48511Z"/>
<path fill-rule="evenodd" clip-rule="evenodd" d="M22.5191 3.21702H20.4766V4.74893C20.4766 4.95319 20.5787 5.05532 20.783 5.05532L23.1319 5.46383V5.25957C23.0298 5.25957 23.0298 5.3617 22.9277 5.3617H22.8255C22.6213 5.3617 22.5191 5.25957 22.5191 5.05532V3.5234C22.5191 3.31915 22.5191 3.31915 22.5191 3.21702ZM22.9277 3.21702C23.0298 3.21702 23.1319 3.31915 23.1319 3.42128V4.95319C23.1319 5.05532 23.0298 5.15744 22.9277 5.15744H22.8255C22.7234 5.15744 22.6213 5.05532 22.6213 4.95319V3.42128C22.6213 3.31915 22.7234 3.21702 22.9277 3.21702Z"/>
<path d="M8.62979 10.6723C8.91181 10.6723 9.14043 10.4437 9.14043 10.1617C9.14043 9.87968 8.91181 9.65106 8.62979 9.65106C8.34777 9.65106 8.11915 9.87968 8.11915 10.1617C8.11915 10.4437 8.34777 10.6723 8.62979 10.6723Z"/>
<path fill-rule="evenodd" clip-rule="evenodd" d="M4.64681 9.65106C4.34043 9.65106 4.13617 9.85532 4.13617 10.1617C4.13617 10.4681 4.34043 10.6723 4.64681 10.6723C4.95319 10.6723 5.15745 10.4681 5.15745 10.1617C5.15745 9.85532 4.85107 9.65106 4.64681 9.65106Z"/>
<path fill-rule="evenodd" clip-rule="evenodd" d="M16.5447 7.14894V6.89362H17.0553V7.65958H16.2894V7.14894H16.5447Z"/>
<path fill-rule="evenodd" clip-rule="evenodd" d="M1.77629 7.65958H1.2766V7.14894H1.77629V7.65958ZM3.77508 7.65958H2.77568V7.14894H3.77508V7.65958ZM5.77386 7.65958H4.77447V7.14894H5.77386V7.65958ZM7.77264 7.65958H6.77325V7.14894H7.77264V7.65958ZM9.77143 7.65958H8.77204V7.14894H9.77143V7.65958ZM11.7702 7.65958H10.7708V7.14894H11.7702V7.65958ZM13.769 7.65958H12.7696V7.14894H13.769V7.65958ZM15.2681 7.65958H14.7684V7.14894H15.2681V7.65958Z"/>
<path fill-rule="evenodd" clip-rule="evenodd" d="M0.510638 7.14894V6.89362H0V7.65958H0.765957V7.14894H0.510638Z"/>
<path fill-rule="evenodd" clip-rule="evenodd" d="M0 1.57447V1.17447H0.510638V1.57447H0ZM0 3.17447V2.37447H0.510638V3.17447H0ZM0 4.77447V3.97447H0.510638V4.77447H0ZM0 5.97447V5.57447H0.510638V5.97447H0Z"/>
<path fill-rule="evenodd" clip-rule="evenodd" d="M0 0H0.765957V0.510638H0.510638V0.765957H0V0Z"/>
<path fill-rule="evenodd" clip-rule="evenodd" d="M2.28693 0.510638H1.78723V0H2.28693V0.510638ZM4.28571 0.510638H3.28632V0H4.28571V0.510638ZM6.2845 0.510638H5.28511V0H6.2845V0.510638ZM8.28328 0.510638H7.28389V0H8.28328V0.510638ZM10.2821 0.510638H9.28267V0H10.2821V0.510638ZM12.2809 0.510638H11.2815V0H12.2809V0.510638ZM14.2796 0.510638H13.2802V0H14.2796V0.510638ZM15.7787 0.510638H15.279V0H15.7787V0.510638Z"/>
<path fill-rule="evenodd" clip-rule="evenodd" d="M16.5447 0.510638H16.2894V0H17.0553V0.765957H16.5447V0.510638Z"/>
<path fill-rule="evenodd" clip-rule="evenodd" d="M16.5447 1.98298V1.58298H17.0553V1.98298H16.5447ZM16.5447 3.58298V2.78298H17.0553V3.58298H16.5447ZM16.5447 5.18298V4.38298H17.0553V5.18298H16.5447ZM16.5447 6.38298V5.98298H17.0553V6.38298H16.5447Z"/>
</svg>
