<svg viewBox="0 0 8 12" fill="black" xmlns="http://www.w3.org/2000/svg">
<path d="M3.81016 1.88852C3.81016 1.88852 4.69251 1.88852 4.97326 1.88852C5.29412 1.88852 5.53476 1.92787 5.45454 1.02295C5.37433 0.118033 3.85026 0 3.85026 0H3.60963C3.60963 0 2.08556 0.118033 2.00535 1.02295C1.92513 1.92787 2.20588 1.88852 2.48663 1.88852C2.80749 1.88852 3.64973 1.88852 3.64973 1.88852" />
<path d="M3.85026 9.28525C3.85026 9.28525 4.0508 9.32459 5.2139 9.12787C6.37701 8.93115 6.81818 8.57705 6.97861 8.14426C7.09893 7.67213 6.97861 5.39016 6.69786 3.93443C6.41711 2.47869 5.17379 2.32131 5.17379 2.32131H2.36631C2.36631 2.32131 1.08288 2.47869 0.842242 3.93443C0.6016 5.39016 0.441174 7.67213 0.561495 8.14426C0.681815 8.61639 1.1631 8.97049 2.3262 9.12787C3.4893 9.32459 3.68984 9.28525 3.68984 9.28525H3.85026Z" />
<path d="M3.85026 12C5.29411 12 7.09893 11.7639 7.29947 11.6852C7.5 11.6066 7.5 10.4656 7.5 10.1115C7.5 9.71803 7.21925 9.44262 6.41711 9.48197C5.61497 9.52131 3.85026 9.67869 3.85026 9.67869H3.64973C3.64973 9.67869 1.92513 9.56066 1.08289 9.48197C0.240641 9.40328 0 9.75738 0 10.1115C0 10.5049 0 11.6066 0.200535 11.6852C0.40107 11.7639 2.20588 12 3.64973 12H3.85026Z" />
</svg>
