<svg viewBox="0 0 238 128" fill="black" xmlns="http://www.w3.org/2000/svg">
<path d="M118.6 0C53.1 0 0 28.53 0 63.72C0 98.91 53.1 127.45 118.6 127.45C184.1 127.45 237.21 98.92 237.21 63.72C237.21 28.52 184.11 0 118.6 0ZM114.82 4.7C162.88 1.9 204.49 18.09 218 42.58H59C57.2581 42.5684 55.5269 42.8524 53.88 43.42C50.8804 44.4684 48.2969 46.4525 46.51 49.08C45.6975 50.2905 45.0611 51.6104 44.62 53C44.2824 54.0281 44.0446 55.0863 43.91 56.16C43.7587 57.1061 43.8064 58.0734 44.05 59C44.321 59.9353 44.7842 60.8039 45.41 61.55C46.2216 62.4793 47.1853 63.2639 48.26 63.87L71.09 77.62H16.2C15.4133 75.075 14.9234 72.4475 14.74 69.79C12.66 37.2 57.47 8.05 114.82 4.7ZM122.38 122.75C74.32 125.56 32.72 109.37 19.25 84.86H80C83.3638 84.9222 86.6457 83.82 89.29 81.74C90.5092 80.7955 91.5722 79.665 92.44 78.39C93.265 77.1766 93.9084 75.8493 94.35 74.45C94.6819 73.4089 94.9261 72.3418 95.08 71.26C95.2286 70.3099 95.1775 69.3393 94.93 68.41C94.6754 67.4772 94.2217 66.6106 93.6 65.87C92.7926 64.9243 91.8159 64.1375 90.72 63.55L67.93 49.84H140.11C141.129 49.8028 142.147 49.9554 143.11 50.29C143.471 50.4157 143.8 50.6186 144.075 50.8846C144.35 51.1505 144.563 51.4732 144.7 51.83C145.024 52.796 145.096 53.8284 144.91 54.83C144.672 56.4347 144.3 58.0168 143.8 59.56L141.67 66.33C141.144 68.1499 140.476 69.9255 139.67 71.64C139.086 72.9084 138.314 74.0816 137.38 75.12C136.628 75.9491 135.708 76.6073 134.68 77.05C133.675 77.4488 132.602 77.6491 131.52 77.64H119.85L124.7 62L105.63 50.09L95.34 83.19C94.99 84.31 95.34 84.86 96.34 84.86H142.57C145.338 84.8568 148.078 84.3168 150.64 83.27C153.309 82.2069 155.793 80.7287 158 78.89C160.305 76.9533 162.325 74.7011 164 72.2C165.73 69.5818 167.077 66.7296 168 63.73C168.89 61.021 169.316 58.181 169.26 55.33C169.207 53.4441 168.81 51.5837 168.09 49.84H176.25L165.67 84.06C165.51 84.6 165.79 84.86 166.52 84.86H187.16C187.436 84.9002 187.718 84.8421 187.955 84.6959C188.193 84.5497 188.371 84.3246 188.46 84.06L197.06 56.38L186.71 49.84H221C221.783 52.382 222.27 55.0061 222.45 57.66C224.55 90.26 179.74 119.4 122.38 122.75Z"/>
<path d="M71.6 110.53H68.24L71.6 91.53H77.6C78.4024 91.4595 79.2105 91.5624 79.9696 91.8315C80.7288 92.1007 81.4212 92.5299 82 93.09C82.4961 93.6557 82.8465 94.334 83.0208 95.066C83.1951 95.798 83.1879 96.5614 83 97.29L82.78 98.55C82.6231 99.5322 82.2245 100.46 81.62 101.25C81.0073 102.029 80.2002 102.632 79.28 103C79.82 104.25 80.28 105.5 80.72 106.76C81.16 108.02 81.5 109.29 81.8 110.55H78.16C77.9 109.38 77.59 108.2 77.25 107.03C76.91 105.86 76.5 104.69 76.06 103.55H72.84L71.6 110.53ZM77.43 94.53H74.43L73.43 100.41H76.43C77.1368 100.444 77.8363 100.255 78.43 99.87C78.6911 99.6908 78.9139 99.4614 79.0856 99.1954C79.2572 98.9293 79.3743 98.6317 79.43 98.32L79.66 97.11C79.7477 96.7907 79.7646 96.4561 79.7093 96.1296C79.654 95.8031 79.528 95.4926 79.34 95.22C79.0991 94.9637 78.799 94.7704 78.466 94.657C78.133 94.5437 77.7772 94.5138 77.43 94.57V94.53Z"/>
<path d="M87.82 107.32H95.49L94.93 110.53H83.93L87.29 91.53H98L97.44 94.75H90.06L89.24 99.32H95.8L95.24 102.54H88.68L87.82 107.32Z"/>
<path d="M100.72 110.53H97.5L100.86 91.53H103.94C105.18 94.02 106.21 96.26 107.05 98.27C107.89 100.28 108.7 102.43 109.49 104.72L110.22 98.82L111.5 91.53H114.72L111.36 110.53H108.28C107.54 108.05 106.733 105.677 105.86 103.41C104.99 101.14 104.03 98.84 102.96 96.51L102.01 103.25L100.72 110.53Z"/>
<path d="M121.08 94.71H115.76L116.32 91.49H130.32L129.76 94.71H124.44L121.64 110.53H118.28L121.08 94.71Z"/>
<path d="M135.28 91.49L131.92 110.49H128.56L131.92 91.49H135.28Z"/>
<path d="M139 110.53H135.78L139.14 91.53H142.22C143.45 94.02 144.49 96.26 145.33 98.27C146.17 100.28 146.98 102.43 147.76 104.72L148.49 98.82L149.78 91.53H153L149.64 110.53H146.56C145.81 108.05 145.01 105.68 144.14 103.41C143.27 101.14 142.3 98.84 141.24 96.51L140.24 103.25L139 110.53Z"/>
<path d="M168.4 100.06L166.78 109.33C165.827 109.817 164.82 110.189 163.78 110.44C162.832 110.683 161.858 110.81 160.88 110.82C159.892 110.886 158.902 110.714 157.994 110.319C157.086 109.925 156.286 109.318 155.66 108.55C155.066 107.711 154.656 106.757 154.456 105.749C154.256 104.741 154.271 103.702 154.5 102.7L155.06 99.28C155.3 97.0066 156.284 94.8762 157.86 93.22C159.447 91.8223 161.519 91.104 163.63 91.22C164.519 91.2193 165.404 91.3199 166.27 91.52C167.18 91.727 168.067 92.0218 168.92 92.4L167.66 95.34C166.931 95.0372 166.178 94.7931 165.41 94.61C164.78 94.4662 164.136 94.3924 163.49 94.39C162.881 94.3665 162.274 94.467 161.705 94.6853C161.136 94.9036 160.617 95.2352 160.18 95.66C159.251 96.6616 158.666 97.9332 158.51 99.29L158 102.7C157.69 103.936 157.858 105.243 158.47 106.36C158.795 106.805 159.231 107.159 159.734 107.385C160.237 107.611 160.791 107.702 161.34 107.65C161.769 107.648 162.198 107.608 162.62 107.53C163.07 107.44 163.62 107.32 164.14 107.15L164.86 103H161.76L162.29 100.06H168.4Z"/>
</svg>
