<svg viewBox="0 0 27 19" fill="black" xmlns="http://www.w3.org/2000/svg">
<path d="M3.10001 14.5L7.10001 9.8C7.30001 9.5 7.3 9.1 7 8.9C6.7 8.7 6.30001 8.7 6.10001 9L2.29999 13.6V2.9L10.7 9.3C10.7 9.3 10.8 9.4 10.9 9.4C11 9.4 11 9.4 11.1 9.4C11.2 9.4 11.2 9.4 11.3 9.4C11.4 9.4 11.4 9.3 11.5 9.3L19.9 2.59999V5.5C20.1 5.4 20.3 5.4 20.5 5.4C20.7 5.4 21 5.4 21.2 5.5V2.59999C21.2 1.59999 20.3 0.699997 19.3 0.699997H2.79999C1.79999 0.699997 0.899994 1.59999 0.899994 2.59999V14C0.899994 15 1.79999 15.9 2.79999 15.9H16.3V14.6H3.10001V14.5ZM11 7.9L3.20001 1.9H18.5L11 7.9Z"/>
<path d="M25.9 11.7L21 6.8C20.8 6.6 20.6 6.5 20.4 6.5C20.2 6.5 20 6.6 19.8 6.8L14.9 11.7C14.7 11.9 14.7 12.2 14.8 12.5C14.9 12.6 15 12.9 15.3 12.9H17.5V17.6C17.5 18.1 17.9 18.5 18.4 18.5H22.3C22.8 18.5 23.2 18.1 23.2 17.6V12.9H25.5C25.8 12.9 26 12.8 26.1 12.5C26.2 12.2 26.1 11.9 25.9 11.7ZM21.9 11.5V17H18.9V11.5H17L20.5 8L24 11.5H21.9Z"/>
</svg>
