<svg viewBox="0 0 148 70" fill="black" xmlns="http://www.w3.org/2000/svg">
<path d="M140.334 62.6938H132.379C131.861 62.175 131.342 61.6562 130.823 61.3103L132.034 59.754C132.725 61.3103 138.951 60.6186 140.161 60.7916L145.522 59.4081V51.7993L143.793 46.6114H145.522C146.56 36.7545 143.62 26.2059 140.161 15.8302C138.778 10.2965 119.756 12.5446 114.395 12.0258V43.3258H112.32V10.2965C118.891 10.8153 140.334 7.87549 141.891 15.4843C145.868 26.7247 148.289 37.965 147.424 48.6866H146.387C147.77 50.5888 147.251 58.5435 147.424 60.7916L140.334 62.6938Z" />
<path fill-rule="evenodd" clip-rule="evenodd" d="M146.041 34.3335C145.176 29.3186 142.755 21.8827 141.372 17.2136H138.951L142.409 33.4689C142.409 33.4689 144.139 33.6418 146.041 34.3335Z" />
<path fill-rule="evenodd" clip-rule="evenodd" d="M110.072 61.6562C106.44 40.9048 135.146 42.1153 132.725 61.6562H130.996C130.65 63.7313 129.613 65.4606 128.229 67.017C124.598 70.9943 117.162 70.9943 113.53 67.017C112.147 65.6336 111.109 63.7313 110.763 61.6562H110.072ZM120.62 54.5661C114.049 54.3932 114.049 64.7689 120.62 64.7689C127.192 64.7689 127.192 54.3932 120.62 54.5661Z" />
<path d="M135.838 62.3479H131.861C133.071 54.3932 128.229 46.2656 119.41 47.3032C111.282 47.1302 109.899 55.9496 110.591 62.3479H106.094C105.057 53.3556 107.305 41.7694 118.545 41.5965C130.823 40.5589 137.74 51.6264 135.838 62.3479ZM133.417 61.1374H134.628C137.567 37.965 103.5 35.8899 107.651 61.1374H109.38C105.921 40.386 135.665 41.5965 133.417 61.1374Z" />
<path fill-rule="evenodd" clip-rule="evenodd" d="M120.62 56.8142C116.989 56.8142 116.989 62.3479 120.62 62.3479C124.252 62.5208 124.252 56.8142 120.62 56.8142Z" />
<path fill-rule="evenodd" clip-rule="evenodd" d="M125.981 11.3341C121.312 8.91306 112.32 4.41692 109.899 9.08599C109.034 22.9203 107.478 38.1379 107.824 52.1451C108.342 48.6866 110.591 45.5739 113.357 43.8446L113.012 43.6717C113.012 32.9501 113.012 22.0556 113.012 11.3341H125.981Z" />
<path d="M146.387 51.6264H142.409V58.5435H146.387V51.6264Z" />
<path d="M143.793 54.0474H135.146V55.4308H143.793V54.0474Z" />
<path d="M127.365 38.138H123.041V39.5214H127.365V38.138Z" />
<path d="M143.62 57.333H135.146V58.7164H143.62V57.333Z" />
<path fill-rule="evenodd" clip-rule="evenodd" d="M108.861 48.6866H11.8484V55.6037H25.1639L37.6148 51.1076C38.6523 50.4159 40.3816 54.3932 41.765 54.3932C43.1485 54.3932 44.186 50.4159 45.2236 51.1076L58.1932 55.6037H107.305C107.305 53.3556 107.651 50.7617 108.861 48.6866Z" />
<path fill-rule="evenodd" clip-rule="evenodd" d="M63.3811 60.6186C63.2081 63.0396 61.9976 65.2877 60.4413 67.017C56.8098 70.9943 49.3739 70.9943 45.7424 67.017C44.0131 65.2877 42.9755 63.0396 42.8026 60.6186C42.2838 60.6186 41.0733 60.6186 40.3816 60.6186C38.6523 48.5136 54.5617 42.4612 62.3435 50.2429C64.9374 52.8369 65.975 56.6413 65.8021 60.6186C65.2833 60.6186 64.0728 60.6186 63.3811 60.6186ZM53.0054 54.5661C46.4341 54.3932 46.4341 64.7689 53.0054 64.7689C59.5767 64.7689 59.5767 54.3932 53.0054 54.5661Z" />
<path fill-rule="evenodd" clip-rule="evenodd" d="M53.0054 56.8142C49.3739 56.8142 49.3739 62.3479 53.0054 62.3479C56.6369 62.5208 56.6369 56.8142 53.0054 56.8142Z" />
<path fill-rule="evenodd" clip-rule="evenodd" d="M86.5535 53.1827H68.396C68.7419 54.912 67.1855 60.9645 70.4711 60.7916H84.6513C86.2076 60.7916 86.8993 59.0623 86.7264 57.6789H88.1098C87.764 60.6186 92.0872 61.6562 93.2977 58.8893H96.5833C97.6209 61.6562 101.944 60.6186 101.771 57.6789H102.636V60.4457H107.997V53.0098H102.636V54.2203H86.5535V53.1827Z" />
<path d="M146.387 37.965H143.793V44.5363H146.387V37.965Z" />
<path fill-rule="evenodd" clip-rule="evenodd" d="M135.146 18.9429H123.214C122.695 34.6794 123.041 28.7998 138.778 32.6042L138.432 30.5291C137.049 31.3937 134.8 30.702 134.8 28.9727C134.973 28.454 134.628 19.1158 135.146 18.9429ZM137.394 18.9429C139.297 18.597 137.913 28.1081 138.432 28.9727C138.432 30.3562 135.838 30.3562 136.011 28.9727C136.357 27.7622 134.628 17.9053 137.394 18.9429Z" />
<path d="M36.923 48.5137C27.9308 43.4987 15.8258 49.7242 17.2092 60.6186C17.728 60.6186 18.9385 60.6186 19.6302 60.6186C19.8031 63.0396 21.0136 65.2877 22.57 67.017C26.2015 70.9943 33.6374 70.9943 37.2689 67.017C38.9982 65.2877 40.0357 63.0396 40.2087 60.6186C40.7275 60.6186 41.938 60.6186 42.6297 60.6186C42.8026 56.8142 41.765 53.0098 39.344 50.5888H36.7501V48.5137H36.923ZM29.833 64.7689C23.2617 64.9419 23.2617 54.5661 29.833 54.5661C36.5772 54.3932 36.5772 64.7689 29.833 64.7689Z" />
<path d="M29.833 56.8142C26.2015 56.8142 26.2015 62.3479 29.833 62.3479C33.4645 62.5208 33.4645 56.8142 29.833 56.8142Z" />
<path d="M81.0198 50.5888H96.5833V46.2656H81.0198V50.5888Z" />
<path d="M99.1772 46.6114C98.1397 46.0927 4.23958 47.649 3.54787 46.0927C3.37494 45.7468 3.20201 45.4009 3.37494 44.8822L15.307 9.7777C15.4799 9.25892 15.9987 8.91306 16.5175 8.91306C17.3821 9.43184 102.982 8.22135 103.673 9.43184C103.846 9.7777 104.019 10.1236 104.019 10.4694L100.388 45.4009C100.388 46.0927 99.869 46.6114 99.1772 46.6114ZM6.48765 44.0175H97.9667L101.252 11.6799H17.3821L6.48765 44.0175Z" />
<path d="M102.636 12.0258C97.6209 11.507 105.921 2.68764 106.267 0.958355C106.613 -0.770928 117.508 0.43957 118.545 0.0937137C120.793 0.0937137 120.793 3.55228 118.545 3.55228H108.688C107.824 4.41692 104.365 12.3716 102.636 12.0258Z" />
<path d="M99.869 37.7921C98.4855 36.5816 6.83351 40.2131 7.00643 36.5816C6.83351 32.9501 98.4855 36.4087 99.696 35.1982C101.425 35.1982 101.425 37.7921 99.869 37.7921Z" />
<path d="M21.3595 10.2965L20.149 14.6197H15.8258L17.2092 10.2965H21.3595Z" />
<path d="M20.149 15.8302C18.9385 15.4843 13.9236 16.8678 14.6153 14.1009C15.1341 13.2363 15.4799 8.5672 17.0363 8.74013C18.2468 9.08599 22.9158 7.87549 22.3971 10.2965C22.0512 11.507 22.0512 16.176 20.149 15.8302ZM17.5551 13.2363H19.1114L19.4573 11.507H17.9009L17.5551 13.2363Z" />
<path d="M1.2998 49.7241C-2.50462 49.0324 3.20201 44.8822 3.7208 43.6717C4.75837 42.4612 6.83351 44.1904 5.62301 45.4009C5.10422 45.9197 2.33737 49.8971 1.2998 49.7241Z" />
<path d="M98.6585 46.9573C96.2375 45.228 2.33737 50.4159 3.54787 44.7092C4.75837 44.0175 13.9236 7.35671 17.0363 10.1236C21.0136 9.95063 7.00644 42.4612 7.52522 43.6717C7.69815 45.228 113.357 39.5214 98.6585 46.9573Z" />
</svg>
