<svg viewBox="0 0 371 70" fill="black" xmlns="http://www.w3.org/2000/svg">
<path fill-rule="evenodd" clip-rule="evenodd" d="M7.0925 28.0618V44.0971H8.94272L4.31717 48.4142V45.9473H0V56.4318H4.31717V53.6565L12.3348 48.1059H25.2863L30.5286 41.3217L147.401 41.6301L152.335 34.846H370.044V28.0618H7.0925Z"/>
<path d="M271.982 29.9123H268.282V53.9651H271.982V29.9123Z"/>
<path d="M201.365 29.9123H197.665V53.9651H201.365V29.9123Z"/>
<path d="M279.383 49.9563H190.572V57.3572H279.383V49.9563Z"/>
<path d="M279.383 36.6963H190.572V44.0972H279.383V36.6963Z"/>
<path fill-rule="evenodd" clip-rule="evenodd" d="M67.8413 53.0397H65.9911H65.3744C65.066 57.6652 62.9074 61.674 59.8237 64.4493C56.4316 67.8414 51.8061 70 46.5638 70C41.3215 70 36.696 67.8414 33.3039 64.4493C30.2202 61.3656 28.37 57.3568 27.7533 53.0397H23.4361V51.1895C23.4361 44.7137 25.5947 38.5463 29.9119 34.2291C31.4537 32.6873 33.3039 31.1454 35.7709 30.2203H57.9735C60.1321 31.1454 61.9823 32.6873 63.8325 34.2291C65.6827 36.0793 67.2246 38.5463 68.4581 41.0133V53.0397H67.8413ZM46.5638 42.2467C41.3215 42.2467 37.3127 46.2555 37.3127 51.4978C37.3127 56.4317 41.3215 60.7489 46.5638 60.7489C51.8061 60.7489 55.8149 56.7401 55.8149 51.4978C55.8149 46.2555 51.8061 42.2467 46.5638 42.2467Z"/>
<path fill-rule="evenodd" clip-rule="evenodd" d="M46.5638 46.2554C43.7885 46.2554 41.6299 48.414 41.6299 51.1894C41.6299 53.9647 43.7885 56.1233 46.5638 56.1233C49.3391 56.1233 51.4977 53.9647 51.4977 51.1894C51.8061 48.7224 49.3391 46.2554 46.5638 46.2554Z"/>
<path fill-rule="evenodd" clip-rule="evenodd" d="M110.705 53.0397H108.238C107.929 57.6652 105.771 61.674 102.687 64.4493C99.295 67.8414 94.6695 70 89.4272 70C84.1849 70 79.5594 67.8414 76.1673 64.4493C73.0836 61.3656 71.2334 57.3568 70.6166 53.0397H67.8413H65.9911L65.9911 51.1895C65.9911 44.7137 68.1497 38.5463 72.1585 34.2291C73.7003 32.6873 75.5505 31.1454 78.0175 30.2203H100.22C102.379 31.1454 104.229 32.6873 106.079 34.2291C107.929 36.0793 109.471 38.5463 110.705 41.0133V53.0397ZM89.4272 42.2467C84.1849 42.2467 80.1761 46.2555 80.1761 51.4978C80.1761 56.4317 84.1849 60.7489 89.4272 60.7489C94.6695 60.7489 98.6783 56.7401 98.6783 51.4978C98.3699 46.2555 94.3611 42.2467 89.4272 42.2467Z"/>
<path fill-rule="evenodd" clip-rule="evenodd" d="M89.4272 46.2554C86.6518 46.2554 84.4933 48.414 84.4933 51.1894C84.4933 53.9647 86.6518 56.1233 89.4272 56.1233C92.2025 56.1233 94.3611 53.9647 94.3611 51.1894C94.3611 48.7224 92.2025 46.2554 89.4272 46.2554Z"/>
<path fill-rule="evenodd" clip-rule="evenodd" d="M110.705 53.0397H113.172C113.48 57.6652 115.639 61.674 118.722 64.4493C122.114 67.8414 126.74 70 131.982 70C137.225 70 141.85 67.8414 145.242 64.4493C148.326 61.3656 150.176 57.3568 150.793 53.0397H155.11V51.1895C155.11 44.7137 152.951 38.5463 148.943 34.2291C147.401 32.6873 145.55 31.1454 143.084 30.2203H120.881C118.722 31.1454 116.872 32.6873 115.022 34.2291C113.172 36.0793 111.63 38.5463 110.396 41.0133V53.0397H110.705ZM131.982 42.2467C137.225 42.2467 141.233 46.2555 141.233 51.4978C141.233 56.4317 137.225 60.7489 131.982 60.7489C126.74 60.7489 122.731 56.7401 122.731 51.4978C122.731 46.2555 126.74 42.2467 131.982 42.2467Z"/>
<path fill-rule="evenodd" clip-rule="evenodd" d="M131.982 46.2554C134.758 46.2554 136.916 48.414 136.916 51.1894C136.916 53.9647 134.758 56.1233 131.982 56.1233C129.207 56.1233 127.048 53.9647 127.048 51.1894C126.74 48.7224 129.207 46.2554 131.982 46.2554Z"/>
<path d="M316.696 34.2292H312.687V66.608H316.696V34.2292Z"/>
<path d="M367.577 0H362.026V29.6035H367.577V0Z"/>
</svg>
