<svg viewBox="0 0 187 70" fill="black" xmlns="http://www.w3.org/2000/svg">
<path fill-rule="evenodd" clip-rule="evenodd" d="M108.939 28.2456H103.097C102.482 28.2456 101.866 28.8597 101.866 29.4737C101.866 30.0877 102.482 30.7018 103.097 30.7018H108.939C109.554 30.7018 110.169 30.0877 110.169 29.4737C110.169 28.8597 109.554 28.2456 108.939 28.2456Z"/>
<path fill-rule="evenodd" clip-rule="evenodd" d="M91.4112 28.2456H85.876C85.261 28.2456 84.646 28.8597 84.646 29.4737C84.646 30.0877 85.261 30.7018 85.876 30.7018H91.7187C92.3337 30.7018 92.9487 30.0877 92.9487 29.4737C92.6412 28.8597 92.0262 28.2456 91.4112 28.2456Z"/>
<path d="M58.5076 24.8684H20.9915V27.9386H58.5076V24.8684Z"/>
<path fill-rule="evenodd" clip-rule="evenodd" d="M153.836 53.4211C151.991 53.4211 150.76 54.9562 150.76 56.4912C150.76 58.3333 152.298 59.5614 153.836 59.5614C155.681 59.5614 156.911 58.0263 156.911 56.4912C156.911 54.6491 155.681 53.4211 153.836 53.4211Z"/>
<path fill-rule="evenodd" clip-rule="evenodd" d="M40.3646 53.4211C38.5195 53.4211 37.2895 54.9562 37.2895 56.4912C37.2895 58.3333 38.827 59.5614 40.3646 59.5614C42.2096 59.5614 43.4396 58.0263 43.4396 56.4912C43.4396 54.6491 41.9021 53.4211 40.3646 53.4211Z"/>
<path fill-rule="evenodd" clip-rule="evenodd" d="M184.279 53.4211C184.279 53.114 183.971 52.807 183.971 52.193C183.971 51.886 184.279 51.5789 184.587 51.5789C184.894 50.9649 185.509 50.6579 185.509 50.0439C185.509 49.7368 185.509 49.1228 185.509 45.4386C185.509 42.9825 185.509 40.2193 185.509 38.9912C185.509 36.2281 183.356 34.386 181.511 33.4649C181.511 32.8509 181.511 32.2368 181.204 31.6228C180.589 29.1667 179.051 26.7105 171.671 23.6404C164.906 20.8772 154.758 19.6491 152.606 19.3421C150.453 18.114 139.075 11.0526 133.232 7.67544C125.852 3.37719 117.857 0.307017 112.937 0.307017C108.017 -3.04623e-07 23.1441 0 18.5314 0C12.3812 0 9.61366 -1.21849e-06 7.7686 1.22807C6.84608 1.8421 5.30854 2.45614 2.54095 26.7105V27.0175L3.15596 46.3597C2.84845 46.9737 2.23343 47.5877 1.61842 48.5088C1.0034 49.7368 0.695883 50.6579 0.388374 51.886C0.388374 52.5 0.0808689 53.114 0.0808689 53.7281C-0.53415 56.7983 2.54094 59.5614 3.15596 59.8684C3.46347 60.1754 3.77099 60.1754 4.0785 60.1754L23.7591 61.0965C24.0666 61.0965 24.6816 61.0965 24.9891 60.7895H27.7567C28.3717 62.9386 29.6018 64.7807 31.1393 66.3158C33.2919 68.4649 36.6745 70 40.0571 70C43.4397 70 46.8223 68.4649 48.9749 66.3158C50.5124 64.7807 51.7424 62.9386 52.3575 60.7895H141.535C142.15 62.9386 143.38 64.7807 144.918 66.3158C147.07 68.4649 150.453 70 153.836 70C157.218 70 160.601 68.4649 162.753 66.3158C164.291 64.7807 165.521 62.9386 166.136 60.7895H166.443C166.751 60.7895 167.058 61.0965 167.366 61.0965C167.366 61.0965 168.904 61.0965 172.286 61.0965C173.824 61.0965 175.976 61.0965 178.436 61.0965C183.356 61.0965 185.817 59.8684 186.124 57.4123C185.817 55.2632 185.202 54.0351 184.279 53.4211ZM40.3646 64.1667C36.0595 64.1667 32.6769 60.7895 32.6769 56.4912C32.6769 52.193 36.0595 48.8158 40.3646 48.8158C44.6697 48.8158 48.0523 52.193 48.0523 56.4912C48.0523 60.7895 44.6697 64.1667 40.3646 64.1667ZM153.836 64.1667C149.53 64.1667 146.148 60.7895 146.148 56.4912C146.148 52.193 149.53 48.8158 153.836 48.8158C158.141 48.8158 161.523 52.193 161.523 56.4912C161.523 60.7895 158.141 64.1667 153.836 64.1667ZM177.821 56.4912C173.209 56.4912 170.134 56.4912 168.596 56.4912V56.1842C168.596 52.193 167.058 48.2018 164.291 45.7456C161.523 42.9825 157.833 41.4474 153.836 41.4474C149.838 41.4474 145.84 42.9825 143.38 45.7456C140.613 48.5088 139.075 52.193 139.075 56.1842V56.4912H55.1251V56.1842C55.1251 52.193 53.5875 48.2018 50.8199 45.7456C48.0523 42.9825 44.3622 41.4474 40.3646 41.4474C36.367 41.4474 32.3694 42.9825 29.9093 45.7456C27.1417 48.5088 25.6042 52.193 25.6042 56.1842V56.7983C25.2966 56.4912 24.9891 56.4912 24.6816 56.4912L5.61605 55.5702C5.00103 54.9561 4.386 54.0351 4.386 53.7281C4.69351 52.807 4.69351 52.193 4.69351 51.5789C4.69351 50.6579 5.00103 50.0439 5.30854 49.7368C6.23107 48.5088 7.15359 47.2807 7.15359 47.2807C7.4611 46.9737 7.4611 46.6667 7.4611 46.0526V39.9123H8.07611C9.30615 39.9123 10.5362 38.9912 10.5362 37.4561V26.0965C10.5362 24.8684 9.61366 23.6404 8.07611 23.6404H7.4611C8.69114 14.7368 9.92117 5.52632 10.8437 3.37719C12.0737 3.07018 15.1488 2.76316 19.454 2.76316C24.0666 2.76316 108.632 3.07018 113.552 3.07018C117.857 3.07018 125.237 6.14035 132.002 10.1316C138.46 14.1228 151.683 22.1053 151.683 22.1053C151.99 22.1053 152.298 22.4123 152.606 22.4123C152.606 22.4123 163.368 23.3333 170.441 26.0965C167.366 25.7895 163.368 25.7895 163.676 26.4035C163.676 27.6316 163.061 27.9386 165.213 29.4737C167.366 31.0088 174.439 32.5439 177.514 33.1579C178.129 33.1579 178.436 33.1579 178.744 33.1579C178.436 34.079 179.051 35 179.974 35.614C180.896 35.9211 182.741 37.1491 182.741 38.0702C182.741 38.9912 182.741 40.8333 182.741 42.3684C182.126 42.0614 181.511 41.4474 180.281 41.1404C178.436 40.2193 176.591 39.9123 175.669 39.9123C174.746 39.9123 174.439 41.4474 175.054 45.7456C175.669 50.0439 175.361 52.193 176.591 52.807C177.821 53.4211 180.281 54.0351 180.281 54.0351L181.511 54.3421C181.819 54.6491 181.819 55.2632 182.126 55.5702C180.896 56.1842 179.666 56.4912 177.821 56.4912Z"/>
<path fill-rule="evenodd" clip-rule="evenodd" d="M119.394 7.36842C110.784 4.60526 101.251 6.14035 101.251 6.14035C101.251 6.14035 99.4063 7.0614 99.7138 10.7456C99.7138 14.4298 101.251 19.9561 101.251 19.9561C101.251 19.9561 104.326 24.5614 107.094 24.8684C109.862 25.1754 136.307 25.4825 136.307 25.4825C136.307 25.4825 144.918 24.5614 141.228 19.9561C141.228 19.9561 128.005 9.82456 119.394 7.36842Z"/>
</svg>
