<svg viewBox="0 0 149 70" fill="black" xmlns="http://www.w3.org/2000/svg">
<path d="M89.1973 50.1003H0V4.21405C0 1.87291 1.87291 0 4.21405 0H84.9833C85.4515 0 86.1539 0 86.6221 0.234114C87.0903 0.468227 87.5585 0.702341 88.0268 1.17057C88.495 1.6388 88.7291 2.10702 88.9632 2.57525C89.1973 3.04348 89.1973 3.51171 89.1973 4.21405V50.1003ZM2.80936 47.291H86.388V4.21405C86.388 3.97993 86.388 3.74582 86.388 3.74582C86.388 3.51171 86.1538 3.51171 86.1538 3.27759C85.9197 3.04348 85.9197 3.04348 85.6856 3.04348C85.4515 3.04348 85.2174 3.04348 85.2174 3.04348H4.21405C3.51171 3.04348 2.80936 3.74582 2.80936 4.44816V47.291Z"/>
<path fill-rule="evenodd" clip-rule="evenodd" d="M63.913 56.4214L64.1472 59.2308L39.5652 60.8696C39.3311 63.4448 38.3946 65.5518 36.7559 67.1906C34.8829 69.0635 32.5418 70 29.7324 70C26.9231 70 24.5819 68.8294 22.709 67.1906C20.8361 65.5518 19.8997 62.9766 19.8997 60.1672C19.8997 57.3579 21.0702 55.0167 22.709 53.1438C24.5819 51.2709 26.9231 50.3344 29.7324 50.3344C32.5418 50.3344 34.8829 51.505 36.7559 53.1438C38.1605 54.5485 39.097 56.1873 39.5652 58.0602L63.913 56.4214ZM29.7324 54.0803C26.4548 54.0803 23.6455 56.8896 23.6455 60.1672C23.6455 63.4448 26.4548 66.2542 29.7324 66.2542C33.01 66.2542 35.8194 63.4448 35.8194 60.1672C35.8194 56.8896 33.01 54.0803 29.7324 54.0803Z"/>
<path d="M137.425 62.9766H132.977V60.1672H137.425C140.234 60.1672 143.043 60.1672 143.98 59.9331H144.448C145.151 59.9331 145.619 59.2308 145.619 58.5284V53.8462C145.619 53.3779 145.385 52.6756 144.682 52.4415L143.746 51.9732V51.0368C143.98 46.5886 143.98 46.3545 142.809 42.3746C141.873 40.5017 128.763 35.3512 124.314 34.1806L124.08 33.9465C121.271 32.3077 116.823 28.0936 112.609 24.3478C111.204 23.1773 109.799 21.7726 108.629 20.602C104.415 16.8562 97.8595 14.7492 89.1973 14.7492V60.1672H116.823V62.9766H86.388V11.9398H87.7926C97.8595 11.9398 105.351 14.2809 110.502 18.495C111.906 19.6656 113.077 20.8361 114.482 22.2408C118.462 25.9866 122.91 29.7324 125.485 31.3712C127.592 32.0736 144.916 37.6923 145.619 41.4381C146.789 45.4181 146.789 46.1204 146.789 50.1003C147.96 50.8027 148.662 52.2074 148.662 53.612V58.2943C148.662 60.1672 147.258 62.0401 145.15 62.2743H144.448C143.278 62.7425 140 62.9766 137.425 62.9766Z"/>
<path fill-rule="evenodd" clip-rule="evenodd" d="M106.054 20.8361C108.161 22.709 110.268 24.8161 112.14 26.4549C114.013 28.0936 116.12 30.2007 118.462 32.0736C117.759 32.0736 117.291 32.3077 116.589 32.7759C115.418 33.9465 114.95 36.7559 114.95 38.3946C114.95 38.8629 114.95 39.3311 115.418 39.7993H112.843C106.99 39.7993 95.9866 35.3512 95.9866 35.3512V20.1338H104.181C104.883 20.1338 105.585 20.3679 106.054 20.8361Z"/>
<path fill-rule="evenodd" clip-rule="evenodd" d="M117.525 33.7124C116.823 34.4147 116.355 37.2241 116.355 38.3946C116.355 38.8629 116.355 39.097 116.823 39.3311C117.057 39.5652 117.525 39.7993 117.759 39.7993H120.803C124.08 39.7993 120.334 33.9465 118.93 33.4783C118.462 33.2442 117.993 33.4783 117.525 33.7124Z"/>
<path fill-rule="evenodd" clip-rule="evenodd" d="M124.783 47.9933C128.06 47.9933 130.87 49.398 132.977 51.505C135.084 53.612 136.488 56.6555 136.488 59.699V62.7425H134.381C133.913 64.3813 132.977 66.0201 131.806 67.1906C129.933 69.0635 127.592 70 124.783 70C121.973 70 119.632 68.8294 117.759 67.1906C116.589 66.0201 115.652 64.6154 115.184 62.7425H113.077V59.699C113.077 56.4214 114.482 53.612 116.589 51.2709C118.696 49.398 121.739 47.9933 124.783 47.9933ZM124.783 54.0803C121.505 54.0803 118.696 56.8896 118.696 60.1672C118.696 63.4448 121.505 66.2542 124.783 66.2542C128.06 66.2542 130.87 63.4448 130.87 60.1672C130.87 56.8896 128.294 54.0803 124.783 54.0803Z"/>
<path fill-rule="evenodd" clip-rule="evenodd" d="M124.783 57.592C123.378 57.592 122.207 58.7625 122.207 60.1672C122.207 61.5719 123.378 62.7425 124.783 62.7425C126.187 62.7425 127.358 61.5719 127.358 60.1672C127.358 58.7625 126.187 57.592 124.783 57.592Z"/>
<path fill-rule="evenodd" clip-rule="evenodd" d="M87.7926 48.6957H35.1171C36.7559 48.6957 38.1605 49.6321 39.097 51.0368C40.0334 53.3779 40.7358 54.5485 40.9699 56.4214H50.5686L62.9766 61.1037H87.7926V59.9331C87.7926 57.8261 87.7926 50.8027 87.7926 48.6957ZM24.1137 48.6957H10.7692C10.7692 51.7391 10.7692 57.592 10.7692 60.6355H14.515V56.4214H18.2609C18.495 54.5485 18.9632 53.3779 20.1338 51.0368C21.0702 49.6321 22.4749 48.6957 24.1137 48.6957Z"/>
<path fill-rule="evenodd" clip-rule="evenodd" d="M20.3679 51.0368C18.9632 54.3144 18.495 55.7191 18.495 59.4649H22.709C22.9431 55.9532 25.9866 53.1438 29.7324 53.1438C33.4783 53.1438 36.5217 55.9532 36.7559 59.4649H40.9699C40.9699 55.4849 40.5017 54.3144 39.097 51.0368C38.3947 49.6321 36.7559 48.6957 35.1171 48.6957H24.3478C22.4749 48.6957 21.0702 49.6321 20.3679 51.0368Z"/>
<path d="M41.9064 60.4013H35.8194V59.4649C35.5853 56.4214 33.01 53.8462 29.7324 53.8462C26.4548 53.8462 23.8796 56.1873 23.6455 59.4649V60.4013H17.3244V59.4649C17.3244 55.4849 18.0268 54.0803 19.4314 50.5686C20.3679 48.6957 22.2408 47.7592 24.1137 47.7592H35.1171C37.2241 47.7592 38.8629 48.6957 39.7993 50.5686C41.204 54.0803 41.9064 55.4849 41.9064 59.4649V60.4013ZM37.4582 58.5284H40.0334C40.0334 55.485 39.3311 54.3144 38.1605 51.2709C37.4582 50.1003 36.5217 49.398 35.1171 49.398H24.1137C22.709 49.398 21.5385 50.1003 21.0702 51.2709C19.8997 54.3144 19.1973 55.485 19.1973 58.2943H21.7726C22.4749 54.5485 25.7525 51.9732 29.4983 51.9732C33.4783 52.2074 36.7559 55.0167 37.4582 58.5284Z"/>
<path fill-rule="evenodd" clip-rule="evenodd" d="M29.7324 57.592C28.3278 57.592 27.1572 58.7625 27.1572 60.1672C27.1572 61.5719 28.3278 62.7425 29.7324 62.7425C31.1371 62.7425 32.3077 61.5719 32.3077 60.1672C32.0736 58.7625 30.903 57.592 29.7324 57.592Z"/>
<path d="M19.1973 59.4649H17.3244V66.2542H19.1973V59.4649Z"/>
<path d="M100.669 39.7993H94.3478V41.6722H100.669V39.7993Z"/>
<path fill-rule="evenodd" clip-rule="evenodd" d="M145.385 47.5251C142.341 45.8863 136.254 42.6087 135.552 41.6722C135.318 41.4381 135.084 38.6288 135.084 36.5217C139.532 38.3946 143.98 40.5017 144.214 41.9064C145.151 44.7157 145.385 45.8863 145.385 47.5251Z"/>
</svg>
