<svg viewBox="0 0 131 70" fill="black" xmlns="http://www.w3.org/2000/svg">
<path fill-rule="evenodd" clip-rule="evenodd" d="M58.2 58.2L58.4 60.6L37.4 62C37.2 64.2 36.4 66 35 67.4C33.4 69 31.4 69.8 29 69.8C26.6 69.8 24.6 68.8 23 67.4C21.4 65.8 20.6 63.8 20.6 61.4C20.6 59 21.6 57 23 55.4C24.6 53.8 26.6 53 29 53C31.4 53 33.4 54 35 55.4C36.2 56.6 37 58 37.4 59.6L58.2 58.2ZM28.8 56.2C26 56.2 23.6 58.6 23.6 61.4C23.6 64.2 26 66.6 28.8 66.6C31.6 66.6 34 64.2 34 61.4C34 58.6 31.8 56.2 28.8 56.2Z"/>
<path d="M120.8 63.6H117V61.2H120.8C123.2 61.2 125.6 61.2 126.4 61H126.8C127.4 61 127.8 60.4 127.8 59.8V55.8C127.8 55.4 127.6 54.8 127 54.6L126.2 54.2V53.4C126.4 49.6 126.4 49.4 125.4 46C124.6 44.4 113.4 40 109.6 39L109.4 38.8C107 37.4 103.2 33.8 99.6 30.6C98.4 29.6 97.2 28.4 96.2 27.4C92.6 24.2 87 22.4 79.6 22.4V61.2H103.4V63.6H77.4V20.2H78.6C87.2 20.2 93.6 22.2 98 25.8C99.2 26.8 100.2 27.8 101.4 29C104.8 32.2 108.6 35.4 110.8 36.8C112.6 37.4 127.4 42.2 128 45.4C129 48.8 129 49.4 129 52.8C130 53.4 130.6 54.6 130.6 55.8V59.8C130.6 61.4 129.4 63 127.6 63.2H127C125.8 63.6 123 63.6 120.8 63.6Z"/>
<path fill-rule="evenodd" clip-rule="evenodd" d="M94 27.8C95.8 29.4 97.6 31.2 99.2 32.6C100.8 34 102.6 35.8 104.6 37.4C104 37.4 103.6 37.6 103 38C102 39 101.6 41.4 101.6 42.8C101.6 43.2 101.6 43.6 101.8 44H99.6C94.6 44 85.2 40.2 85.2 40.2V27.2H92.2C93.2 27.2 93.6 27.4 94 27.8Z"/>
<path fill-rule="evenodd" clip-rule="evenodd" d="M104 38.8C103.4 39.4 103 41.8 103 42.8C103 43.2 103 43.4 103.4 43.6C103.6 43.8 104 44 104.2 44H106.8C109.6 44 106.4 39 105.2 38.6C104.8 38.4 104.2 38.6 104 38.8Z"/>
<path fill-rule="evenodd" clip-rule="evenodd" d="M110.2 51C113 51 115.4 52.2 117.2 54C119 55.8 120.2 58.4 120.2 61.2V63.8H118.4C118 65.2 117.2 66.6 116.2 67.6C114.6 69.2 112.6 70 110.2 70C107.8 70 105.8 69 104.2 67.6C103.2 66.6 102.4 65.4 102 63.8H100.2V61.2C100.2 58.4 101.4 56 103.2 54C105 52.2 107.4 51 110.2 51ZM110.2 56.2C107.4 56.2 105 58.6 105 61.4C105 64.2 107.4 66.6 110.2 66.6C113 66.6 115.4 64.2 115.4 61.4C115.4 58.6 113 56.2 110.2 56.2Z"/>
<path fill-rule="evenodd" clip-rule="evenodd" d="M110.2 59.2C109 59.2 108 60.2 108 61.4C108 62.6 109 63.6 110.2 63.6C111.4 63.6 112.4 62.6 112.4 61.4C112.4 60.2 111.4 59.2 110.2 59.2Z"/>
<path fill-rule="evenodd" clip-rule="evenodd" d="M78.4 51.6H33.4C34.8 51.6 36 52.4 36.8 53.6C37.6 55.6 38.2 56.6 38.4 58.2H46.6L57.2 62.2H78.4V51.6ZM24.2 51.6H12.8V61.8H16V58.2H19.4C19.6 56.6 20 55.6 21 53.6C21.6 52.4 22.8 51.6 24.2 51.6Z"/>
<path fill-rule="evenodd" clip-rule="evenodd" d="M20.8 53.6C19.6 56.4 19.2 57.6 19.2 60.8H22.8C23 57.8 25.6 55.4 28.8 55.4C32 55.4 34.6 57.8 34.8 60.8H38.4C38.4 57.6 38 56.4 36.8 53.6C36.2 52.4 34.8 51.6 33.4 51.6H24.2C22.8 51.6 21.6 52.4 20.8 53.6Z"/>
<path d="M39.4 61.6H34.2V60.8C34 58.2 31.8 56 29 56C26.2 56 24 58 23.8 60.8V61.6H18.4V60.8C18.4 57.4 19 56.2 20.2 53.2C21 51.6 22.6 50.8 24.2 50.8H33.4C35.2 50.8 36.6 51.6 37.4 53.2C38.6 56.2 39.2 57.4 39.2 60.8V61.6H39.4ZM35.6 60H37.8C37.8 57.4 37.2 56.4 36.2 53.8C35.6 52.8 34.8 52.2 33.6 52.2H24.2C23 52.2 22 52.8 21.6 53.8C20.6 56.2 20 57.4 20 59.8H22.2C22.8 56.6 25.6 54.4 28.8 54.4C32.2 54.6 34.8 56.8 35.6 60Z"/>
<path fill-rule="evenodd" clip-rule="evenodd" d="M28.8 59.2C27.6 59.2 26.6 60.2 26.6 61.4C26.6 62.6 27.6 63.6 28.8 63.6C30 63.6 31 62.6 31 61.4C31 60.2 30 59.2 28.8 59.2Z"/>
<path d="M20 60.8H18.4V66.6H20V60.8Z"/>
<path d="M89.6 44H84.2V45.6H89.6V44Z"/>
<path fill-rule="evenodd" clip-rule="evenodd" d="M127.6 50.6C124.8 49.2 119.8 46.4 119.2 45.6C119 45.4 118.8 43 118.8 41.2C122.6 42.8 126.4 44.6 126.6 45.8C127.4 48.2 127.6 49.2 127.6 50.6Z"/>
<path d="M65.6 0L76.2 30L4.2 55L0 42.8L2.2 42L5.8 52L73.2 28.6L63.4 0.800018L65.6 0Z"/>
<path d="M70.874 18.1641L1.1404 42.3188L1.66408 43.8307L71.3977 19.6759L70.874 18.1641Z"/>
<path fill-rule="evenodd" clip-rule="evenodd" d="M62.8 22.8C62.2 23 61.8 23.8 62 24.4C62.2 25 63 25.4 63.6 25.2C64.2 25 64.6 24.2 64.4 23.6C64.2 23 63.4 22.6 62.8 22.8Z"/>
<path fill-rule="evenodd" clip-rule="evenodd" d="M52.2 26.4C51.6 26.6 51.2 27.4 51.4 28C51.6 28.6 52.4 29 53 28.8C53.6 28.6 54 27.8 53.8 27.2C53.8 26.6 53 26.2 52.2 26.4Z"/>
<path fill-rule="evenodd" clip-rule="evenodd" d="M41.8 30.2C41.2 30.4 40.8 31.2 41 31.8C41.2 32.4 42 32.8 42.6 32.6C43.2 32.4 43.6 31.6 43.4 31C43.2 30.2 42.6 29.8 41.8 30.2Z"/>
<path fill-rule="evenodd" clip-rule="evenodd" d="M31.4 33.8C30.8 34 30.4 34.8 30.6 35.4C30.8 36 31.6 36.4 32.2 36.2C32.8 36 33.2 35.2 33 34.6C32.8 33.8 32 33.4 31.4 33.8Z"/>
<path fill-rule="evenodd" clip-rule="evenodd" d="M20.8 37.4C20.2 37.6 19.8 38.4 20 39C20.2 39.6 21 40 21.6 39.8C22.2 39.6 22.6 38.8 22.4 38.2C22.4 37.4 21.6 37.2 20.8 37.4Z"/>
<path fill-rule="evenodd" clip-rule="evenodd" d="M10.4 41C9.8 41.2 9.4 42 9.6 42.6C9.8 43.2 10.6 43.6 11.2 43.4C11.8 43.2 12.2 42.4 12 41.8C11.8 41.2 11 40.8 10.4 41Z"/>
<path fill-rule="evenodd" clip-rule="evenodd" d="M110.2 51C113 51 115.4 52.2 117.2 54C119 55.8 120.2 58.4 120.2 61.2V63.8H118.4C118 65.2 117.2 66.6 116.2 67.6C114.6 69.2 112.6 70 110.2 70C107.8 70 105.8 69 104.2 67.6C103.2 66.6 102.4 65.4 102 63.8H100.2V61.2C100.2 58.4 101.4 56 103.2 54C105 52.2 107.4 51 110.2 51ZM110.2 56.2C107.4 56.2 105 58.6 105 61.4C105 64.2 107.4 66.6 110.2 66.6C113 66.6 115.4 64.2 115.4 61.4C115.4 58.6 113 56.2 110.2 56.2Z"/>
<path d="M62.4 33.6H60.4V52.4H62.4V33.6Z"/>
</svg>
