<svg viewBox="0 0 143 70" fill="black" xmlns="http://www.w3.org/2000/svg">
<path fill-rule="evenodd" clip-rule="evenodd" d="M135.655 63.0744H128.14L127.869 62.8233C127.433 62.4181 127.008 62.0698 126.596 61.7691L127.708 60.2411C128.088 60.5176 128.476 60.831 128.876 61.1845H135.408L140.455 59.8338V52.8185L138.787 48.0002H140.455V39.0771C140.455 35.7415 138.272 28.6671 136.678 23.4996C136.156 21.8059 135.684 20.2779 135.348 19.0791C134.714 16.8198 130.955 15.5768 124.759 15.5768H111.036V45.0477H109.146V13.6868H124.759C132.086 13.6868 136.261 15.3288 137.169 18.5694C137.501 19.7566 137.968 21.2677 138.485 22.9434C140.206 28.5194 142.344 35.4576 142.344 39.0771V49.8902H141.441L142.344 52.6602V61.2837L135.655 63.0744Z"/>
<path fill-rule="evenodd" clip-rule="evenodd" d="M141.127 36.4068C140.335 31.7257 138.003 24.6936 136.681 20.2742H134.433L137.701 35.5499C137.701 35.5499 139.308 35.7335 141.127 36.4068Z"/>
<path fill-rule="evenodd" clip-rule="evenodd" d="M117.164 55.3806C114.518 55.3806 112.374 57.5238 112.374 60.1662C112.374 62.8106 114.518 64.9528 117.164 64.9528C119.808 64.9528 121.953 62.8106 121.953 60.1662C121.953 57.5238 119.808 55.3806 117.164 55.3806ZM107.225 62.13V56.973C107.225 52.045 111.259 48.015 116.19 48.015H117.868C123.721 48.015 128.51 52.7995 128.51 58.6487V62.13H126.809C126.418 64.0558 125.461 65.779 124.123 67.116V67.1202C122.342 68.8983 119.88 70 117.164 70C114.449 70 111.989 68.8983 110.206 67.1181L110.204 67.1202C108.864 65.7811 107.909 64.059 107.518 62.13H107.225Z"/>
<path fill-rule="evenodd" clip-rule="evenodd" d="M129.141 61.4987H130.306V56.824C130.306 50.5864 123.864 44.4639 117.302 44.4639H115.353C109.995 44.4639 104.931 49.5238 104.931 54.876V61.4987H106.595V56.9738C106.595 51.686 110.901 47.3838 116.19 47.3838H117.867C124.082 47.3838 129.141 52.4384 129.141 58.6485V61.4987ZM131.565 62.7598H127.881V58.6485C127.881 53.1317 123.389 48.6448 117.867 48.6448H116.19C111.594 48.6448 107.855 52.3804 107.855 56.9738V62.7598H103.671V54.876C103.671 48.7683 109.239 43.2029 115.353 43.2029H117.302C124.635 43.2029 131.565 49.8235 131.565 56.824V62.7598Z"/>
<path fill-rule="evenodd" clip-rule="evenodd" d="M117.164 57.5524C115.719 57.5524 114.547 58.7227 114.547 60.1673C114.547 61.6109 115.719 62.7822 117.164 62.7822C118.609 62.7822 119.781 61.6109 119.781 60.1673C119.781 58.7227 118.609 57.5524 117.164 57.5524Z"/>
<path fill-rule="evenodd" clip-rule="evenodd" d="M122.179 14.6311C117.043 11.6901 113.764 10.8892 108.912 10.7573C107.899 10.7298 107.044 11.5044 106.974 12.5142C106.343 21.5735 105.713 30.6317 105.082 39.691V53.0916C105.629 49.8594 107.617 46.9385 110.34 45.2764L110.093 45.0475V14.6311H122.179Z"/>
<path fill-rule="evenodd" clip-rule="evenodd" d="M137.717 59.1786H141.398V52.6614H137.717V59.1786Z"/>
<path fill-rule="evenodd" clip-rule="evenodd" d="M130.902 56.1279H138.97V54.8679H130.902V56.1279Z"/>
<path fill-rule="evenodd" clip-rule="evenodd" d="M119.37 41.1296H123.471V39.8686H119.37V41.1296Z"/>
<path fill-rule="evenodd" clip-rule="evenodd" d="M130.904 59.1786H138.969V57.9186H130.904V59.1786Z"/>
<path fill-rule="evenodd" clip-rule="evenodd" d="M106.124 49.9173H14.6751V56.4451H27.2602L38.9445 52.222C39.932 51.5572 41.5236 55.3803 42.8945 55.3803C44.2644 55.3803 45.1917 51.5572 46.1792 52.222L58.4169 56.4451H104.691V54.8759C104.691 53.14 105.21 51.4411 106.124 49.9173Z"/>
<path fill-rule="evenodd" clip-rule="evenodd" d="M53.4993 55.3806C50.8536 55.3806 48.7096 57.5238 48.7096 60.1662C48.7096 62.8106 50.8536 64.9528 53.4993 64.9528C56.145 64.9528 58.289 62.8106 58.289 60.1662C58.289 57.5238 56.145 55.3806 53.4993 55.3806ZM63.2941 61.1117C63.0713 63.448 62.0278 65.5469 60.4583 67.116V67.1202C58.6776 68.8983 56.2157 70 53.4993 70C50.785 70 48.3241 68.8983 46.5413 67.1181L46.5392 67.1202C44.9687 65.55 43.9263 63.4501 43.7034 61.1117H41.476V60.1662C41.476 56.7155 42.5522 53.5878 44.7628 51.3791L44.7638 51.3781L44.7649 51.376C46.7663 49.3784 49.6676 48.1554 53.4993 48.1554C57.3342 48.1554 60.2365 49.3763 62.2358 51.3749V51.3791C64.4443 53.5857 65.5205 56.7134 65.5205 60.1662V61.1117H63.2941Z"/>
<path fill-rule="evenodd" clip-rule="evenodd" d="M53.4993 57.5524C52.0545 57.5524 50.8822 58.7227 50.8822 60.1673C50.8822 61.6109 52.0545 62.7822 53.4993 62.7822C54.9441 62.7822 56.1165 61.6109 56.1165 60.1673C56.1165 58.7227 54.9441 57.5524 53.4993 57.5524Z"/>
<path fill-rule="evenodd" clip-rule="evenodd" d="M85.0964 54.1533H67.9296V59.4865C67.9296 60.527 68.7798 61.3754 69.8212 61.3754H83.2058C84.2472 61.3754 85.0964 60.527 85.0964 59.4865V58.522H86.443C86.4387 58.5821 86.4366 58.6423 86.4366 58.7035C86.4366 60.0933 87.5636 61.2213 88.9545 61.2213C89.9906 61.2213 90.882 60.5956 91.2686 59.7018H94.3219C94.7095 60.5956 95.5988 61.2213 96.6349 61.2213C98.0269 61.2213 99.1549 60.0933 99.1549 58.7035C99.1549 58.6423 99.1517 58.5821 99.1475 58.522H99.9787V61.178H104.951V54.2293H99.9787V55.4312H85.0964V54.1533Z"/>
<path fill-rule="evenodd" clip-rule="evenodd" d="M138.995 45.9975H141.398V39.7473H138.995V45.9975Z"/>
<path fill-rule="evenodd" clip-rule="evenodd" d="M133.023 21.9023C133.528 21.9023 133.944 22.317 133.944 22.8225V31.274C133.944 31.7794 133.528 32.1931 133.023 32.1931H132.505C131.999 32.1931 131.585 31.7784 131.585 31.274V22.8225C131.585 22.317 131.998 21.9023 132.505 21.9023H133.023ZM130.875 21.9161H119.7V30.6598C119.7 31.5895 120.359 32.3693 121.277 32.5234L134.408 34.7373L134.098 32.7967C133.793 33.0109 133.422 33.1375 133.023 33.1375H132.505C131.477 33.1375 130.639 32.3007 130.639 31.274V22.8225C130.639 22.4933 130.724 22.1841 130.875 21.9161Z"/>
<path fill-rule="evenodd" clip-rule="evenodd" d="M31.6717 64.9526C29.026 64.9526 26.882 62.8104 26.882 60.166C26.882 57.5236 29.026 55.3804 31.6717 55.3804C34.3174 55.3804 36.4614 57.5236 36.4614 60.166C36.4614 62.8104 34.3174 64.9526 31.6717 64.9526ZM38.2167 49.7296C36.4593 48.7345 34.2878 48.1552 31.6717 48.1552C27.841 48.1552 24.9387 49.3782 22.9373 51.3758L22.9362 51.3779L22.9352 51.3789C20.7246 53.5876 19.6495 56.7143 19.6495 60.166V61.1115H21.8758C22.0987 63.4499 23.1411 65.5498 24.7127 67.12L24.7137 67.1179C26.4965 68.8981 28.9584 69.9998 31.6717 69.9998C34.3881 69.9998 36.85 68.8981 38.6318 67.12V67.1158C40.2012 65.5456 41.2437 63.4478 41.4676 61.1115H43.6939V60.166C43.6939 56.8535 42.6917 53.8503 40.6617 51.6617H38.2167V49.7296Z"/>
<path fill-rule="evenodd" clip-rule="evenodd" d="M31.6717 57.5524C30.2269 57.5524 29.0545 58.7227 29.0545 60.1684C29.0545 61.6109 30.2269 62.7822 31.6717 62.7822C33.1176 62.7822 34.2889 61.6109 34.2889 60.1684C34.2889 58.7227 33.1176 57.5524 31.6717 57.5524Z"/>
<path fill-rule="evenodd" clip-rule="evenodd" d="M79.7784 51.6619H94.4431V47.6309L79.7784 47.6552V51.6619Z"/>
<path fill-rule="evenodd" clip-rule="evenodd" d="M38.2167 49.7296C39.0352 50.1939 39.7738 50.7402 40.4086 51.3744V51.3786C40.4983 51.4683 40.5744 51.5696 40.661 51.6625H52.8818V47.7011L38.217 47.7254L38.2167 49.7296Z"/>
<path fill-rule="evenodd" clip-rule="evenodd" d="M40.4086 51.3744C39.7727 50.7391 39.0352 50.1939 38.2167 49.7296V51.6617H40.6617C40.5751 51.5699 40.4983 51.4683 40.4086 51.3786V51.3744Z"/>
<path fill-rule="evenodd" clip-rule="evenodd" d="M40.2675 7.09228V44.1715C40.2675 44.2454 40.2073 44.3055 40.1333 44.3055L20.9535 44.3361C20.8574 44.3361 20.793 44.239 20.8299 44.1504L36.3892 7.04057C36.4104 6.99097 36.4589 6.95826 36.5128 6.95826H40.1333C40.2073 6.95826 40.2675 7.01841 40.2675 7.09228ZM43.4856 6.95826H59.5096C59.5835 6.95826 59.6437 7.01841 59.6437 7.09228V44.1398C59.6437 44.2137 59.5835 44.2739 59.5096 44.2739L43.4856 44.2992C43.4116 44.2992 43.3514 44.239 43.3514 44.1652V7.09228C43.3514 7.01841 43.4116 6.95826 43.4856 6.95826ZM62.8618 6.95826H78.8837C78.9587 6.95826 79.0179 7.01841 79.0179 7.09228V44.1082C79.0179 44.1821 78.9587 44.2422 78.8837 44.2422L62.8618 44.2675C62.7868 44.2675 62.7277 44.2074 62.7277 44.1335V7.09228C62.7277 7.01841 62.7868 6.95826 62.8618 6.95826ZM82.236 6.95826H98.1618C98.2368 6.95826 98.2959 7.01841 98.2959 7.09228V44.0765C98.2959 44.1504 98.2368 44.2105 98.1618 44.2105L82.236 44.2369C82.162 44.2369 82.1018 44.1768 82.1018 44.1019V7.09228C82.1018 7.01841 82.162 6.95826 82.236 6.95826ZM8.24159 25.9664L13.4664 15.492C13.4991 15.4256 13.5794 15.3992 13.647 15.4319L23.3013 20.2491C23.3637 20.2807 23.3911 20.3557 23.3647 20.4211L18.8285 31.2395C18.7989 31.3112 18.7144 31.3429 18.6447 31.3081L8.30073 26.1468C8.23525 26.1131 8.20885 26.0329 8.24159 25.9664ZM13.8107 42.8356L2.73478 37.3071C2.66824 37.2744 2.64184 37.1932 2.67458 37.1267L7.62902 27.1968C7.66176 27.1303 7.74202 27.1029 7.80962 27.1367L18.2328 32.338C18.2952 32.3696 18.3237 32.4446 18.2962 32.51L13.9945 42.767C13.9649 42.8387 13.8804 42.8693 13.8107 42.8356ZM13.2678 57.2101L5.8589 54.2955C5.81665 54.2797 5.78602 54.2438 5.77652 54.1995L2.3947 38.6167C2.36935 38.5069 2.48447 38.4183 2.58481 38.4679L13.3999 43.8655C13.4622 43.8971 13.4896 43.9721 13.4632 44.0375L12.1113 47.2613C12.1018 47.2834 12.0987 47.3077 12.1018 47.332L13.4495 57.0666C13.4632 57.1679 13.3629 57.247 13.2678 57.2101ZM17.804 6.96143H28.8039C28.9 6.96143 28.9655 7.05851 28.9285 7.14715L23.897 19.1506C23.8674 19.2223 23.7829 19.254 23.7132 19.2192L14.1392 14.4421C14.0726 14.4094 14.0462 14.3281 14.079 14.2616L17.6836 7.03529C17.7069 6.98992 17.7533 6.96143 17.804 6.96143ZM36.8656 3.54982C36.8656 1.38129 34.9117 -0.338763 32.6705 0.0569539C30.9395 0.36192 29.7608 1.99861 29.7608 3.75453V4.47105C29.7608 4.54491 29.7006 4.60506 29.6267 4.60506H18.0607C16.9581 4.60506 15.9515 5.22766 15.4594 6.21326L0.458763 36.2878C0.0151764 37.1773 -0.111562 38.1904 0.099669 39.1612L3.2787 53.8038C3.57548 55.1767 4.54081 56.311 5.84833 56.825L14.004 60.0318C15.0623 60.4487 16.1776 59.5718 16.0223 58.4458L15.2059 52.5428C14.7771 49.4509 17.1788 46.6935 20.3019 46.6883L100.515 46.5648C100.589 46.5648 100.649 46.5046 100.649 46.4308V6.21642C100.649 5.32685 99.9266 4.60506 99.0363 4.60506H36.8656V3.54982Z"/>
</svg>
