<svg viewBox="0 0 209 70" fill="black" xmlns="http://www.w3.org/2000/svg">
<path d="M201.6 62.475H193.375L193.025 62.125C192.5 61.6 192.15 61.25 191.625 60.9L192.85 59.15C193.2 59.5 193.725 59.85 194.075 60.2H201.25L206.675 58.8V51.1L204.925 45.85H206.675V36.05C206.675 32.375 204.225 24.675 202.65 19.075C202.125 17.15 201.6 15.575 201.25 14.175C200.55 11.725 196.525 10.325 189.7 10.325H174.825V42.875H172.725V8.75H189.7C197.75 8.75 202.3 10.5 203.175 14C203.525 15.225 204.05 16.975 204.575 18.725C206.5 24.85 208.775 32.375 208.775 36.225V47.95H207.725L208.775 50.925V60.375L201.6 62.475Z"/>
<path fill-rule="evenodd" clip-rule="evenodd" d="M207.55 33.425C206.675 28.35 204.225 20.65 202.65 15.925H200.2L203.7 32.55C203.7 32.55 205.45 32.725 207.55 33.425Z"/>
<path fill-rule="evenodd" clip-rule="evenodd" d="M170.625 61.425V55.825C170.625 50.4 175 46.025 180.425 46.025H182.175C188.475 46.025 193.725 51.275 193.725 57.575V61.425H191.8C191.45 63.525 190.4 65.45 188.825 66.85C186.9 68.775 184.275 70 181.3 70C178.325 70 175.7 68.775 173.775 66.85C172.375 65.45 171.325 63.525 170.8 61.425H170.625ZM181.475 54.075C178.675 54.075 176.225 56.35 176.225 59.325C176.225 62.3 178.5 64.575 181.475 64.575C184.45 64.575 186.725 62.3 186.725 59.325C186.725 56.35 184.275 54.075 181.475 54.075Z"/>
<path d="M193.025 62.125V57.575C193.025 51.625 188.125 46.725 182.175 46.725H180.425C175.35 46.725 171.325 50.75 171.325 55.825V62.125H166.775V53.55C166.775 46.9 172.9 40.775 179.55 40.775H181.65C189.7 40.775 197.225 47.95 197.225 55.65V62.125H193.025ZM195.65 60.725V55.65C195.65 48.825 188.65 42.175 181.475 42.175H179.375C173.6 42.175 168 47.6 168 53.55V60.725H169.75V55.825C169.75 50.05 174.475 45.325 180.25 45.325H182C188.825 45.325 194.25 50.75 194.25 57.575V60.725H195.65Z"/>
<path fill-rule="evenodd" clip-rule="evenodd" d="M181.475 56.525C179.9 56.525 178.675 57.75 178.675 59.325C178.675 60.9 179.9 62.125 181.475 62.125C183.05 62.125 184.275 60.9 184.275 59.325C184.275 57.75 183.05 56.525 181.475 56.525Z"/>
<path fill-rule="evenodd" clip-rule="evenodd" d="M186.9 9.625C181.3 6.475 177.8 5.60001 172.375 5.42501C171.325 5.42501 170.275 6.29999 170.275 7.34999C169.575 17.15 168.875 27.125 168.175 36.925V51.45C168.7 47.95 170.975 44.8 173.95 42.875H173.775V9.625H186.9Z"/>
<path d="M207.725 51.1H203.7V58.275H207.725V51.1Z"/>
<path d="M205.1 53.55H196.35V54.95H205.1V53.55Z"/>
<path d="M188.3 37.275H183.75V38.675H188.3V37.275Z"/>
<path d="M205.1 56.875H196.35V58.275H205.1V56.875Z"/>
<path fill-rule="evenodd" clip-rule="evenodd" d="M169.4 48.125H68.6V55.3H84.35C85.4 54.6 86.8 53.725 88.375 53.725C89.95 53.725 91.525 54.425 92.575 55.3H108.15C108.15 55.3 110.075 53.9 112 53.9C113.925 53.9 116.2 55.3 116.2 55.3H167.825V53.55C167.825 51.625 168.35 49.875 169.4 48.125Z"/>
<path fill-rule="evenodd" clip-rule="evenodd" d="M122.85 60.375C122.675 63 121.45 65.275 119.7 66.85C117.775 68.775 115.15 70 112.175 70C109.2 70 106.575 68.775 104.65 66.85C102.9 65.1 101.85 62.825 101.5 60.375H99.05V59.325C99.05 55.65 100.275 52.15 102.55 49.7C104.65 47.6 107.8 46.2 112 46.2C116.2 46.2 119.35 47.6 121.45 49.7C123.9 52.15 124.95 55.475 124.95 59.325V60.375H122.85ZM112.175 54.075C109.375 54.075 106.925 56.35 106.925 59.325C106.925 62.3 109.2 64.575 112.175 64.575C114.975 64.575 117.425 62.3 117.425 59.325C117.425 56.35 114.975 54.075 112.175 54.075Z"/>
<path fill-rule="evenodd" clip-rule="evenodd" d="M112.175 56.525C110.6 56.525 109.375 57.75 109.375 59.325C109.375 60.9 110.6 62.125 112.175 62.125C113.75 62.125 114.975 60.9 114.975 59.325C114.975 57.75 113.75 56.525 112.175 56.525Z"/>
<path fill-rule="evenodd" clip-rule="evenodd" d="M99.05 60.375C98.875 63 97.65 65.275 95.9 66.85C93.975 68.775 91.35 70 88.375 70C85.4 70 82.775 68.775 80.85 66.85C79.1 65.1 78.05 62.825 77.7 60.375H75.25V59.325C75.25 55.65 76.475 52.15 78.75 49.7C80.85 47.6 84 46.2 88.2 46.2C92.4 46.2 95.55 47.6 97.65 49.7C100.1 52.15 101.15 55.475 101.15 59.325V60.375H99.05ZM88.375 54.075C85.575 54.075 83.125 56.35 83.125 59.325C83.125 62.3 85.4 64.575 88.375 64.575C91.175 64.575 93.625 62.3 93.625 59.325C93.625 56.35 91.175 54.075 88.375 54.075Z"/>
<path fill-rule="evenodd" clip-rule="evenodd" d="M88.375 56.525C86.8 56.525 85.575 57.75 85.575 59.325C85.575 60.9 86.8 62.125 88.375 62.125C89.95 62.125 91.175 60.9 91.175 59.325C91.175 57.75 89.95 56.525 88.375 56.525Z"/>
<path fill-rule="evenodd" clip-rule="evenodd" d="M146.475 52.675H127.75V58.45C127.75 59.5 128.625 60.55 129.85 60.55H144.375C145.425 60.55 146.475 59.675 146.475 58.45V57.4H147.875V57.575C147.875 59.15 149.1 60.375 150.675 60.375C151.725 60.375 152.775 59.675 153.125 58.8H156.45C156.8 59.85 157.85 60.375 158.9 60.375C160.475 60.375 161.7 59.15 161.7 57.575V57.4H162.575V60.375H168V52.85H162.575V54.075H146.3V52.675H146.475Z"/>
<path fill-rule="evenodd" clip-rule="evenodd" d="M66.5 56.175H64.225V62.3H66.5V60.55L71.225 57.575H78.575V53.025H69.825V54.95H69.65L66.5 57.75V56.175Z"/>
<path d="M207.725 37.1H205.1V43.925H207.725V37.1Z"/>
<path d="M156.625 45.325H140.7V50.05H156.625V45.325Z"/>
<path d="M89.95 45.325H74.025V50.05H89.95V45.325Z"/>
<path fill-rule="evenodd" clip-rule="evenodd" d="M196.35 17.675H184.275V27.125C184.275 28.175 184.975 29.05 186.025 29.225L200.375 31.675L200.025 29.575C199.675 29.75 199.325 29.925 198.8 29.925H198.275C197.225 29.925 196.175 29.05 196.175 27.825V18.55C196 18.2 196.175 17.85 196.35 17.675ZM198.625 17.675C199.15 17.675 199.675 18.2 199.675 18.725V28C199.675 28.525 199.15 29.05 198.625 29.05H198.1C197.575 29.05 197.05 28.525 197.05 28V18.725C197.05 18.2 197.575 17.675 198.1 17.675H198.625Z"/>
<path d="M117.954 13.113L111.547 14.8919L119.646 44.0619L126.053 42.283L117.954 13.113Z"/>
<path d="M117.814 13.0327L95.2204 19.3056L96.2971 23.1837L118.891 16.9108L117.814 13.0327Z"/>
<path fill-rule="evenodd" clip-rule="evenodd" d="M164.5 45.5H80.15L86.625 42.175H164.5V45.5Z"/>
<path d="M9.80001 63.525L0 21.525L92.05 0L101.85 42L100.975 42.175L9.80001 63.525ZM1.92501 22.75L11.025 61.425L99.575 40.775L90.475 2.09999L1.92501 22.75Z"/>
<path d="M18.2724 23.0059L16.9092 23.3245L24.0387 53.8257L25.4019 53.507L18.2724 23.0059Z"/>
<path d="M33.1742 19.8342L31.811 20.1529L38.9437 50.6541L40.3069 50.3353L33.1742 19.8342Z"/>
<path d="M47.8752 16.5301L46.512 16.8489L53.6447 47.35L55.0079 47.0313L47.8752 16.5301Z"/>
<path d="M62.7251 13.0073L61.3619 13.3261L68.4946 43.8272L69.8578 43.5084L62.7251 13.0073Z"/>
<path d="M77.429 9.70887L76.0658 10.0275L83.1954 40.5287L84.5586 40.21L77.429 9.70887Z"/>
</svg>
