<svg viewBox="0 0 164 70" fill="black" xmlns="http://www.w3.org/2000/svg">
<path fill-rule="evenodd" clip-rule="evenodd" d="M128.256 28.0078C128.775 27.4893 129.554 27.2301 130.333 27.2301C127.736 25.1564 125.4 22.8235 123.323 21.0091C121.246 19.1946 118.909 16.8617 116.313 14.788C115.793 14.2696 115.015 14.0104 114.236 14.0104H104.889V31.1183C104.889 31.1183 117.351 36.0433 123.842 36.0433H126.698C126.438 35.5249 126.179 35.0065 126.179 34.488C126.438 32.4144 126.957 29.3038 128.256 28.0078Z"/>
<path fill-rule="evenodd" clip-rule="evenodd" d="M130.852 28.7854C130.332 28.5262 129.813 28.7854 129.294 29.0446C128.515 29.8222 127.996 32.9328 127.996 34.2288C127.996 34.7473 127.996 35.0065 128.515 35.2657C128.775 35.5249 129.294 35.7841 129.554 35.7841H132.929C136.564 35.7841 132.15 29.3038 130.852 28.7854Z"/>
<path fill-rule="evenodd" clip-rule="evenodd" d="M96.3214 10.8998C78.1476 10.8998 83.5997 10.8998 65.4259 10.8998C63.6085 10.8998 62.3104 12.1959 62.3104 14.0104V27.7486C62.3104 29.563 63.6085 30.8591 65.4259 30.8591C83.5997 30.8591 78.1476 30.8591 96.3214 30.8591C98.1388 30.8591 99.437 29.563 99.437 27.7486V14.0104C99.437 12.1959 98.1388 10.8998 96.3214 10.8998Z"/>
<path fill-rule="evenodd" clip-rule="evenodd" d="M23.6261 30.8591C41.7999 30.8591 36.3478 30.8591 54.5216 30.8591C56.339 30.8591 57.6371 29.563 57.6371 27.7486V14.0104C57.6371 12.1959 56.339 10.8998 54.5216 10.8998C36.3478 10.8998 41.7999 10.8998 23.6261 10.8998C21.8087 10.8998 20.5106 12.1959 20.5106 14.0104V27.7486C20.5106 29.3038 21.8087 30.8591 23.6261 30.8591Z"/>
<path d="M110.341 35.7841H103.072V37.8578H110.341V35.7841Z"/>
<path d="M98.9177 33.9696H91.6481V36.0433H98.9177V33.9696Z"/>
<path d="M59.9737 35.2657H18.1739V37.3394H59.9737V35.2657Z"/>
<path fill-rule="evenodd" clip-rule="evenodd" d="M162.267 47.7078C162.267 43.3012 162.267 42.5236 160.968 38.117C159.93 33.7104 140.458 27.4893 138.121 26.7117C135.265 24.8972 130.333 20.4906 125.659 16.3433C121.246 12.4551 117.351 8.56692 114.495 7.01165C109.822 3.90111 103.331 0.272153 95.2829 0.0129414H8.8273C5.71178 -0.24627 3.8944 3.38269 2.59627 11.4182C2.07701 15.5656 1.81739 28.7854 1.55776 36.5617C1.55776 39.1539 1.55776 40.9683 1.29813 41.746C1.29813 42.5236 1.03851 43.3012 0.77888 44.3381C0.519253 45.1157 0.259627 45.6341 0.259627 45.6341L0 45.8934V56.2618C0 56.521 0.77888 57.8171 2.33664 59.1131C3.63477 60.4092 6.23104 61.7052 9.86581 61.7052C9.86581 61.7052 10.1254 61.7052 10.3851 61.7052H21.8086C22.3279 63.5197 23.3664 65.3342 24.6645 66.6303C26.7415 68.704 29.5974 70 32.7129 70C35.8285 70 38.6844 68.704 40.7614 66.6303C42.0595 65.3342 43.098 63.5197 43.6173 61.7052H126.438C126.957 63.5197 127.996 65.3342 129.294 66.6303C131.371 68.704 134.227 70 137.342 70C140.458 70 143.314 68.704 145.391 66.6303C146.689 65.3342 147.728 63.5197 148.247 61.7052H151.362C153.699 61.7052 157.853 61.7052 159.151 61.446H159.93C162.267 60.9276 163.824 59.1131 163.824 57.0394V51.596C164.084 50.0407 163.305 48.7447 162.267 47.7078ZM32.7129 65.5934C28.8185 65.5934 25.9627 62.4829 25.9627 58.8539C25.9627 54.9657 29.0782 52.1144 32.7129 52.1144C36.6073 52.1144 39.4632 55.225 39.4632 58.8539C39.7229 62.7421 36.6073 65.5934 32.7129 65.5934ZM137.602 65.5934C133.708 65.5934 130.852 62.4829 130.852 58.8539C130.852 54.9657 133.967 52.1144 137.602 52.1144C141.496 52.1144 144.352 55.225 144.352 58.8539C144.352 62.7421 141.237 65.5934 137.602 65.5934ZM160.968 57.0394C160.968 57.8171 160.449 58.3355 159.67 58.5947H159.151C158.113 58.8539 154.737 58.8539 151.622 58.8539H150.843V58.5947C150.843 54.9657 149.285 51.596 146.949 49.2631C144.612 46.9302 141.237 45.3749 137.602 45.3749C133.967 45.3749 130.592 46.9302 128.256 49.2631C125.919 51.596 124.361 54.9657 124.361 58.5947V58.8539H46.2135V58.5947C46.2135 54.9657 44.6558 51.596 42.3191 49.2631C39.9825 46.9302 36.6073 45.3749 32.9726 45.3749C29.3378 45.3749 25.9627 46.9302 23.626 49.2631C21.2894 51.596 19.7316 54.9657 19.7316 58.5947V58.8539H10.3851C8.04842 58.8539 5.97141 58.3355 4.41365 57.0394C3.63477 56.521 3.37515 55.7434 3.11552 55.4842V46.9302C3.37515 46.671 3.63477 46.1526 3.63477 45.6341C4.15402 44.3381 4.41365 43.042 4.41365 42.0052C4.41365 41.746 4.41365 41.746 4.41365 41.4868C6.75029 40.7091 8.56768 38.8946 8.56768 37.0802V18.1577H5.45216C5.71178 15.5656 5.71178 13.2327 5.97141 11.9367C7.26954 3.12348 9.08693 2.86427 9.08693 2.86427H95.5426C101.254 3.12348 106.447 5.19717 113.197 9.34455C115.793 10.8998 119.947 14.788 123.842 18.4169C128.775 22.8235 133.708 27.2301 136.823 29.3038L137.083 29.563C139.679 30.3407 144.612 32.1551 149.026 33.9696C149.026 36.0433 149.026 37.8578 149.545 38.117C150.324 38.8946 155.516 41.746 159.151 43.8197C159.151 44.8565 159.151 46.4118 159.151 48.4855V49.5223L160.19 50.0407C160.709 50.2999 161.228 50.8184 161.228 51.596L160.968 57.0394Z"/>
<path fill-rule="evenodd" clip-rule="evenodd" d="M137.602 56.0026C136.044 56.0026 134.746 57.2986 134.746 58.8539C134.746 60.4092 136.044 61.7052 137.602 61.7052C139.16 61.7052 140.458 60.4092 140.458 58.8539C140.458 57.2986 139.16 56.0026 137.602 56.0026Z"/>
<path fill-rule="evenodd" clip-rule="evenodd" d="M32.7129 56.0026C31.1552 56.0026 29.8571 57.2986 29.8571 58.8539C29.8571 60.4092 31.1552 61.7052 32.7129 61.7052C34.2707 61.7052 35.5688 60.4092 35.5688 58.8539C35.5688 57.2986 34.2707 56.0026 32.7129 56.0026Z"/>
</svg>
