<svg viewBox="0 0 106 70" fill="black" xmlns="http://www.w3.org/2000/svg">
<path fill-rule="evenodd" clip-rule="evenodd" d="M39.7381 45.447H24.1837C19.4001 45.447 18.2389 47.2633 18.2366 47.2679L19.9451 48.4084C19.9451 48.4084 20.4741 47.5617 23.8245 47.5043V49.0762H36.056V47.5008H39.7381V45.447Z"/>
<path fill-rule="evenodd" clip-rule="evenodd" d="M5.24485 50.0512H0V57.1491H4.61148V55.4429C4.61148 53.5554 4.84096 51.7069 5.24485 50.0512Z"/>
<path fill-rule="evenodd" clip-rule="evenodd" d="M14.0343 54.1037C11.16 54.1037 8.83076 56.4341 8.83076 59.3072C8.83076 62.1815 11.16 64.5119 14.0343 64.5119C16.9086 64.5119 19.2379 62.1815 19.2379 59.3072C19.2379 56.4341 16.9086 54.1037 14.0343 54.1037ZM0.973241 59.3072C0.973241 55.5551 2.14246 52.1542 4.54286 49.7527L4.54401 49.7504L4.54515 49.7492C6.72066 47.576 9.87262 46.2473 14.0343 46.2473C18.2017 46.2473 21.3537 47.5748 23.5258 49.7481V49.7515C25.925 52.1519 27.0954 55.5529 27.0954 59.3072V62.4695H24.2463C23.6061 64.5417 22.3519 66.3455 20.6997 67.6662C18.8707 69.1268 16.5529 70 14.0343 70C11.0866 70 8.41196 68.8021 6.47511 66.8664L6.47397 66.8687C4.76661 65.1613 3.6341 62.878 3.392 60.3353H0.973241V59.3072Z"/>
<path fill-rule="evenodd" clip-rule="evenodd" d="M14.0343 56.4652C12.4646 56.4652 11.191 57.7377 11.191 59.3085C11.191 60.8781 12.4646 62.1518 14.0343 62.1518C15.6051 62.1518 16.8776 60.8781 16.8776 59.3085C16.8776 57.7377 15.6051 56.4652 14.0343 56.4652Z"/>
<path fill-rule="evenodd" clip-rule="evenodd" d="M98.1477 62.4666H86.9615V60.4139H97.8792L103.363 58.9463V51.3183L101.551 46.0803H103.363V36.3766C103.363 32.7955 100.158 22.463 98.0398 15.6278C97.4581 13.7587 96.9417 12.0904 96.5596 10.7949C95.4811 7.12547 93.2207 5.76234 87.261 5.17715L73.0571 3.97122L64.5616 2.38204C63.9076 5.83921 63.3786 11.9859 63.0826 15.4316C62.1933 25.8181 62.1933 35.5367 62.1933 43.3449V43.3988L66.5787 46.5898L65.3717 48.2501L60.1394 44.4464V43.3449C60.1371 35.4977 60.1371 25.7309 61.0333 15.2561C61.3672 11.4088 61.9822 4.2466 62.7613 0.953505L62.9873 0L73.3325 1.93684L87.4468 3.13131C93.1736 3.69239 97.0209 5.07044 98.5332 10.2143C98.9096 11.5029 99.4236 13.1586 99.9996 15.0186C102.286 22.3896 105.415 32.4846 105.415 36.3766V48.1331H104.434L105.415 51.1462V60.5229L98.1477 62.4666Z"/>
<path fill-rule="evenodd" clip-rule="evenodd" d="M20.6185 62.4695L21.2714 61.0203C21.3598 60.8264 21.4412 60.2653 21.5066 59.5539C21.5916 58.6589 21.6363 57.5425 21.6363 56.5683C21.6363 56.309 20.8366 55.8317 19.8131 55.3371C16.3731 53.678 16.1287 51.2317 13.3577 53.1915V48.0487H65.5939C65.2095 48.728 64.8905 49.4417 64.6461 50.1772V50.1038H15.4127V51.7767C16.707 51.9855 18.9594 52.6499 20.7023 53.4909C22.3821 54.3022 23.6902 55.3601 23.6902 56.5683C23.6902 57.5471 23.6397 58.7289 23.5456 59.7398C23.5238 59.9739 23.4986 60.201 23.4699 60.4145H68.194V61.4414H70.1251V62.4695H20.6185Z"/>
<path fill-rule="evenodd" clip-rule="evenodd" d="M104.094 33.4725C103.234 28.3826 100.7 20.7362 99.2638 15.9308H96.8221L100.371 32.5408C100.371 32.5408 102.117 32.7404 104.094 33.4725Z"/>
<path fill-rule="evenodd" clip-rule="evenodd" d="M91.0717 60.7562H92.3373V55.6743C92.3373 48.8907 85.338 42.2311 78.2091 42.2311H76.0932C70.2724 42.2311 64.7694 47.733 64.7694 53.555V60.7562H66.5766V55.8349C66.5766 50.0863 71.2534 45.4094 77.0009 45.4094H78.823C85.5767 45.4094 91.0717 50.9056 91.0717 57.6581V60.7562ZM93.705 62.125H89.7039V57.6581C89.7039 51.6606 84.8217 46.7783 78.823 46.7783H77.0009C72.0084 46.7783 67.9454 50.8413 67.9454 55.8349V62.125H63.4017V53.555C63.4017 46.9137 69.4508 40.8622 76.0932 40.8622H78.2091C86.1745 40.8622 93.705 48.06 93.705 55.6743V62.125Z"/>
<path fill-rule="evenodd" clip-rule="evenodd" d="M100.391 58.2333H104.389V51.1469H100.391V58.2333Z"/>
<path fill-rule="evenodd" clip-rule="evenodd" d="M92.9874 54.9161H101.749V53.5473H92.9874V54.9161Z"/>
<path fill-rule="evenodd" clip-rule="evenodd" d="M80.4553 38.6044H84.9107V37.2367H80.4553V38.6044Z"/>
<path fill-rule="evenodd" clip-rule="evenodd" d="M92.9862 58.2333H101.748V56.8633H92.9862V58.2333Z"/>
<path fill-rule="evenodd" clip-rule="evenodd" d="M101.778 43.8998H104.389V37.1048H101.778V43.8998Z"/>
<path fill-rule="evenodd" clip-rule="evenodd" d="M67.556 16.2527H99.1054V14.8839H67.556V16.2527Z"/>
<path fill-rule="evenodd" clip-rule="evenodd" d="M62.1755 44.2861V49.0754H65.0751C65.5673 47.9797 66.2248 46.9493 67.0119 46.0233L67.0107 46.0222L62.1755 44.2861Z"/>
<path fill-rule="evenodd" clip-rule="evenodd" d="M95.2892 17.7011C95.8388 17.7011 96.2886 18.1521 96.2886 18.7017V27.8913C96.2886 28.441 95.8388 28.8907 95.2892 28.8907H94.7258C94.1762 28.8907 93.7264 28.4398 93.7264 27.8913V18.7017C93.7264 18.1521 94.1762 17.7011 94.7258 17.7011H95.2892ZM92.9554 17.716H80.8145V27.2235C80.8145 28.2344 81.5317 29.0824 82.5276 29.2499L96.7946 31.6572L96.4561 29.5471C96.1257 29.78 95.7229 29.9177 95.2892 29.9177H94.7258C93.6094 29.9177 92.6984 29.0078 92.6984 27.8913V18.7017C92.6984 18.3437 92.7913 18.0075 92.9554 17.716Z"/>
<path fill-rule="evenodd" clip-rule="evenodd" d="M78.0589 54.1037C75.1846 54.1037 72.8554 56.4341 72.8554 59.3072C72.8554 62.1815 75.1846 64.5119 78.0589 64.5119C80.9332 64.5119 83.2624 62.1815 83.2624 59.3072C83.2624 56.4341 80.9332 54.1037 78.0589 54.1037ZM67.2617 61.4426V55.8351C67.2617 50.4767 71.6437 46.0947 77.0021 46.0947H78.8242C85.1832 46.0947 90.3856 51.2971 90.3856 57.6572V61.4426H88.5371C88.1126 63.5366 87.0742 65.4103 85.6192 66.8641V66.8687C83.6847 68.8021 81.0112 70 78.0589 70C75.11 70 72.4365 68.8021 70.4997 66.8664L70.4974 66.8687C69.0436 65.4126 68.0041 63.54 67.5795 61.4426H67.2617Z"/>
<path fill-rule="evenodd" clip-rule="evenodd" d="M78.0589 56.4652C76.4892 56.4652 75.2156 57.7377 75.2156 59.3085C75.2156 60.8781 76.4892 62.1518 78.0589 62.1518C79.6297 62.1518 80.9022 60.8781 80.9022 59.3085C80.9022 57.7377 79.6297 56.4652 78.0589 56.4652Z"/>
<path fill-rule="evenodd" clip-rule="evenodd" d="M58.7232 51.899H52.9953C52.6958 51.899 52.4411 52.0826 52.347 52.366L51.8157 53.9403C51.7434 54.156 51.7756 54.374 51.9098 54.5576C52.0429 54.7423 52.238 54.8433 52.4651 54.8433H58.1931C58.4925 54.8433 58.7473 54.6608 58.8425 54.3774L59.3715 52.802C59.4449 52.5875 59.4128 52.3683 59.2785 52.1847C59.1466 51.9988 58.9504 51.899 58.7232 51.899Z"/>
<path fill-rule="evenodd" clip-rule="evenodd" d="M57.2889 55.674H51.561C51.2615 55.674 51.0068 55.8565 50.9115 56.141L50.3803 57.7153C50.3091 57.931 50.3413 58.149 50.4744 58.3326C50.6075 58.5185 50.8037 58.6183 51.0309 58.6183H56.7576C57.0583 58.6183 57.313 58.4359 57.4071 58.1524L57.936 56.5782C58.0095 56.3613 57.9785 56.1445 57.8442 55.9597C57.7111 55.775 57.5149 55.674 57.2889 55.674Z"/>
</svg>
