<svg viewBox="0 0 122 70" fill="black" xmlns="http://www.w3.org/2000/svg">
<path d="M81.7705 47.972H0V0H81.7705V47.972ZM1.79537 46.014H79.812V1.79487H1.79537V46.014Z"/>
<path d="M115.066 62.8205H107.395L107.069 62.4942C106.579 62.0047 106.253 61.6783 105.763 61.352L106.906 59.7203C107.232 60.0466 107.722 60.373 108.048 60.6993H114.74L119.8 59.394V52.2145L118.167 47.3194H119.8V38.1818C119.8 34.7553 117.515 27.5758 116.046 22.3543C115.556 20.5594 115.066 19.0909 114.74 17.7856C114.087 15.5012 110.333 14.1958 103.968 14.1958H90.0945V44.056H88.1359V12.7273H103.968C111.476 12.7273 115.719 14.359 116.535 17.6224C116.862 18.7646 117.351 20.3963 117.841 22.028C119.636 27.7389 121.758 34.7553 121.758 38.345V49.2774H120.942L121.921 52.0513V60.8625L115.066 62.8205Z"/>
<path fill-rule="evenodd" clip-rule="evenodd" d="M120.616 35.7343C119.8 31.0023 117.515 23.8228 116.046 19.4172H113.761L117.025 34.9184C117.188 34.9184 118.82 35.0816 120.616 35.7343Z"/>
<path fill-rule="evenodd" clip-rule="evenodd" d="M86.1773 62.0047V56.7832C86.1773 51.725 90.2577 47.6457 95.3173 47.6457H96.9495C102.825 47.6457 107.722 52.5408 107.722 58.4149V62.0047H105.926C105.6 63.9627 104.621 65.7576 103.152 67.0629C101.356 68.8578 98.9081 70 96.1334 70C93.3588 70 90.9105 68.8578 89.1152 67.0629C87.8095 65.7576 86.8302 63.9627 86.3405 62.0047H86.1773ZM96.2966 55.1515C93.6852 55.1515 91.4002 57.2727 91.4002 60.0466C91.4002 62.6573 93.522 64.9417 96.2966 64.9417C98.908 64.9417 101.193 62.8205 101.193 60.0466C101.193 57.2727 99.0713 55.1515 96.2966 55.1515Z"/>
<path d="M107.232 62.4942V58.2518C107.232 52.704 102.662 48.1352 97.1127 48.1352H95.4806C90.7474 48.1352 86.9934 51.8881 86.9934 56.62V62.4942H82.7499V54.4988C82.7499 48.2984 88.4624 42.5874 94.6645 42.5874H96.6231C104.131 42.5874 111.149 49.2774 111.149 56.4569V62.4942H107.232ZM109.68 61.352V56.62C109.68 50.2564 103.152 44.0559 96.4599 44.0559H94.5013C89.1152 44.0559 83.8924 49.1142 83.8924 54.662V61.352H85.5245V56.7832C85.5245 51.3986 89.9313 46.993 95.3174 46.993H96.9495C103.315 46.993 108.375 52.0513 108.375 58.4149V61.352H109.68Z"/>
<path fill-rule="evenodd" clip-rule="evenodd" d="M96.2967 57.2727C94.8277 57.2727 93.6852 58.4149 93.6852 59.8835C93.6852 61.352 94.8277 62.4942 96.2967 62.4942C97.7656 62.4942 98.9081 61.352 98.9081 59.8835C98.9081 58.4149 97.7656 57.2727 96.2967 57.2727Z"/>
<path fill-rule="evenodd" clip-rule="evenodd" d="M101.356 13.7063C96.1335 10.7692 92.8692 9.95338 87.8095 9.79021C86.8302 9.79021 85.851 10.6061 85.851 11.5851C85.1981 20.7226 84.5452 30.0233 83.8924 39.1608V52.704C84.382 49.4406 86.5038 46.5035 89.2785 44.7086L88.952 44.5455C88.952 34.2657 88.952 23.986 88.952 13.7063H101.356Z"/>
<path d="M120.942 52.3776H117.188V59.0676H120.942V52.3776Z"/>
<path d="M118.494 54.4988H110.333V55.8042H118.494V54.4988Z"/>
<path d="M102.662 39.324H98.5817V40.6294H102.662V39.324Z"/>
<path d="M118.494 57.5991H110.333V58.9044H118.494V57.5991Z"/>
<path fill-rule="evenodd" clip-rule="evenodd" d="M85.0349 49.6037H10.6089V56.2937H28.5625C29.3786 55.641 30.5211 55.1515 31.6636 55.1515C32.8061 55.1515 33.9486 55.4778 34.7647 56.2937H83.8923L83.8924 54.662C83.8924 52.8671 84.382 51.0723 85.0349 49.6037Z"/>
<path fill-rule="evenodd" clip-rule="evenodd" d="M41.6198 60.8625C41.4565 63.31 40.3141 65.4312 38.6819 66.8998C36.8865 68.6946 34.4383 69.8368 31.6637 69.8368C28.889 69.8368 26.4408 68.6946 24.6454 66.8998C23.0133 65.2681 22.034 63.1469 21.7075 60.8625H19.4225V59.8834C19.4225 56.4569 20.5651 53.1935 22.6868 50.9091C24.6454 48.951 27.5833 47.6457 31.5004 47.6457C35.4176 47.6457 38.3555 48.951 40.3141 50.9091C42.5991 53.1935 43.5784 56.2937 43.5784 59.8834V60.8625H41.6198ZM31.6636 55.1515C29.0522 55.1515 26.7672 57.2727 26.7672 60.0466C26.7672 62.6573 28.889 64.9417 31.6637 64.9417C34.2751 64.9417 36.5601 62.8205 36.5601 60.0466C36.5601 57.2727 34.4383 55.1515 31.6636 55.1515Z"/>
<path fill-rule="evenodd" clip-rule="evenodd" d="M31.6636 57.2727C30.1947 57.2727 29.0522 58.4149 29.0522 59.8835C29.0522 61.352 30.1947 62.4942 31.6636 62.4942C33.1326 62.4942 34.275 61.352 34.275 59.8835C34.275 58.4149 33.1326 57.2727 31.6636 57.2727Z"/>
<path fill-rule="evenodd" clip-rule="evenodd" d="M63.817 53.8462H46.353V59.2308C46.353 60.2098 47.169 61.1888 48.3116 61.1888H61.8584C62.8377 61.1888 63.817 60.373 63.817 59.2308V58.2517H65.1227V58.4149C65.1227 59.8835 66.2652 61.0256 67.7341 61.0256C68.7134 61.0256 69.6927 60.373 70.0191 59.5571H73.1202C73.4466 60.5361 74.4259 61.0256 75.4052 61.0256C76.8742 61.0256 78.0166 59.8835 78.0166 58.4149V58.2517H78.8327V61.0256H83.8924V53.8462H78.8327V54.9883H63.817V53.8462Z"/>
<path fill-rule="evenodd" clip-rule="evenodd" d="M9.14001 56.9464H7.01821V62.6574H9.14001V61.0257L13.3836 58.2518H20.4018V54.0093H12.0779V55.8042L9.14001 58.4149V56.9464Z"/>
<path d="M120.942 39.1609H118.494V45.5245H120.942V39.1609Z"/>
<path d="M73.2834 46.993H58.4308V51.3986H73.2834V46.993Z"/>
<path d="M31.0108 46.993H16.1583V51.3986H31.0108V46.993Z"/>
<path fill-rule="evenodd" clip-rule="evenodd" d="M110.17 21.049H98.9081V29.8601C98.9081 30.8392 99.5609 31.655 100.54 31.8182L113.924 34.1026L113.597 32.1445C113.271 32.3077 112.944 32.4709 112.455 32.4709H111.965C110.986 32.4709 110.007 31.655 110.007 30.5128V21.8648C110.007 21.7016 110.007 21.3753 110.17 21.049ZM112.455 21.049C112.944 21.049 113.434 21.5385 113.434 22.028V30.676C113.434 31.1655 112.944 31.655 112.455 31.655H111.965C111.476 31.655 110.986 31.1655 110.986 30.676V22.028C110.986 21.5385 111.476 21.049 111.965 21.049H112.455Z"/>
<path d="M80.628 36.387H1.30571V37.6923H80.628V36.387Z"/>
<path d="M54.6768 35.2448H53.3711V38.8345H54.6768V35.2448Z"/>
<path d="M63.8169 35.2448H62.5112V38.8345H63.8169V35.2448Z"/>
<path fill-rule="evenodd" clip-rule="evenodd" d="M54.024 34.1026C53.3711 34.1026 52.8815 34.5921 52.8815 35.2448C52.8815 35.8974 53.3711 36.387 54.024 36.387C54.6769 36.387 55.1665 35.8974 55.1665 35.2448C55.1665 34.5921 54.5136 34.1026 54.024 34.1026Z"/>
<path fill-rule="evenodd" clip-rule="evenodd" d="M54.024 37.6923C53.3711 37.6923 52.8815 38.1818 52.8815 38.8345C52.8815 39.4872 53.3711 39.9767 54.024 39.9767C54.6769 39.9767 55.1665 39.4872 55.1665 38.8345C55.1665 38.1818 54.5136 37.6923 54.024 37.6923Z"/>
<path fill-rule="evenodd" clip-rule="evenodd" d="M63.1641 34.1026C62.5112 34.1026 62.0215 34.5921 62.0215 35.2448C62.0215 35.8974 62.5112 36.387 63.1641 36.387C63.8169 36.387 64.3066 35.8974 64.3066 35.2448C64.3066 34.5921 63.6537 34.1026 63.1641 34.1026Z"/>
<path fill-rule="evenodd" clip-rule="evenodd" d="M63.1641 37.6923C62.5112 37.6923 62.0215 38.1818 62.0215 38.8345C62.0215 39.4872 62.5112 39.9767 63.1641 39.9767C63.8169 39.9767 64.3066 39.4872 64.3066 38.8345C64.3066 38.1818 63.6537 37.6923 63.1641 37.6923Z"/>
<path d="M72.7937 35.2448H71.488V38.8345H72.7937V35.2448Z"/>
<path fill-rule="evenodd" clip-rule="evenodd" d="M72.1409 34.1026C71.488 34.1026 70.9984 34.5921 70.9984 35.2448C70.9984 35.8974 71.488 36.387 72.1409 36.387C72.7938 36.387 73.2834 35.8974 73.2834 35.2448C73.2834 34.5921 72.7938 34.1026 72.1409 34.1026Z"/>
<path fill-rule="evenodd" clip-rule="evenodd" d="M72.1409 37.6923C71.488 37.6923 70.9984 38.1818 70.9984 38.8345C70.9984 39.4872 71.488 39.9767 72.1409 39.9767C72.7938 39.9767 73.2834 39.4872 73.2834 38.8345C73.2834 38.1818 72.7938 37.6923 72.1409 37.6923Z"/>
<path d="M45.5369 35.2448H44.2311V38.8345H45.5369V35.2448Z"/>
<path fill-rule="evenodd" clip-rule="evenodd" d="M44.884 34.1026C44.2311 34.1026 43.7415 34.5921 43.7415 35.2448C43.7415 35.8974 44.2311 36.387 44.884 36.387C45.5369 36.387 46.0265 35.8974 46.0265 35.2448C46.0265 34.5921 45.5369 34.1026 44.884 34.1026Z"/>
<path fill-rule="evenodd" clip-rule="evenodd" d="M44.884 37.6923C44.2311 37.6923 43.7415 38.1818 43.7415 38.8345C43.7415 39.4872 44.2311 39.9767 44.884 39.9767C45.5369 39.9767 46.0265 39.4872 46.0265 38.8345C46.0265 38.1818 45.5369 37.6923 44.884 37.6923Z"/>
<path d="M36.56 35.2448H35.2543V38.8345H36.56V35.2448Z"/>
<path fill-rule="evenodd" clip-rule="evenodd" d="M35.9072 34.1026C35.2543 34.1026 34.7647 34.5921 34.7647 35.2448C34.7647 35.8974 35.2543 36.387 35.9072 36.387C36.5601 36.387 37.0497 35.8974 37.0497 35.2448C37.0497 34.5921 36.5601 34.1026 35.9072 34.1026Z"/>
<path fill-rule="evenodd" clip-rule="evenodd" d="M35.9072 37.6923C35.2543 37.6923 34.7647 38.1818 34.7647 38.8345C34.7647 39.4872 35.2543 39.9767 35.9072 39.9767C36.5601 39.9767 37.0497 39.4872 37.0497 38.8345C37.0497 38.1818 36.5601 37.6923 35.9072 37.6923Z"/>
<path d="M27.5833 35.2448H26.2775V38.8345H27.5833V35.2448Z"/>
<path fill-rule="evenodd" clip-rule="evenodd" d="M26.9304 34.1026C26.2776 34.1026 25.7879 34.5921 25.7879 35.2448C25.7879 35.8974 26.2776 36.387 26.9304 36.387C27.5833 36.387 28.0729 35.8974 28.0729 35.2448C28.0729 34.5921 27.42 34.1026 26.9304 34.1026Z"/>
<path fill-rule="evenodd" clip-rule="evenodd" d="M26.9304 37.6923C26.2776 37.6923 25.7879 38.1818 25.7879 38.8345C25.7879 39.4872 26.2776 39.9767 26.9304 39.9767C27.5833 39.9767 28.0729 39.4872 28.0729 38.8345C28.0729 38.1818 27.42 37.6923 26.9304 37.6923Z"/>
<path d="M18.4433 35.2448H17.1375V38.8345H18.4433V35.2448Z"/>
<path d="M17.7903 36.387C18.4213 36.387 18.9328 35.8756 18.9328 35.2448C18.9328 34.6139 18.4213 34.1026 17.7903 34.1026C17.1594 34.1026 16.6479 34.6139 16.6479 35.2448C16.6479 35.8756 17.1594 36.387 17.7903 36.387Z"/>
<path d="M17.7903 39.9767C18.4213 39.9767 18.9328 39.4653 18.9328 38.8345C18.9328 38.2037 18.4213 37.6923 17.7903 37.6923C17.1594 37.6923 16.6479 38.2037 16.6479 38.8345C16.6479 39.4653 17.1594 39.9767 17.7903 39.9767Z"/>
<path d="M9.46642 35.2448H8.16073V38.8345H9.46642V35.2448Z"/>
<path fill-rule="evenodd" clip-rule="evenodd" d="M8.8135 34.1026C8.16065 34.1026 7.67101 34.5921 7.67101 35.2448C7.67101 35.8974 8.16065 36.387 8.8135 36.387C9.46635 36.387 9.95599 35.8974 9.95599 35.2448C9.95599 34.5921 9.30314 34.1026 8.8135 34.1026Z"/>
<path fill-rule="evenodd" clip-rule="evenodd" d="M8.8135 37.6923C8.16065 37.6923 7.67101 38.1818 7.67101 38.8345C7.67101 39.4872 8.16065 39.9767 8.8135 39.9767C9.46635 39.9767 9.95599 39.4872 9.95599 38.8345C9.95599 38.1818 9.30314 37.6923 8.8135 37.6923Z"/>
</svg>
