<svg xmlns="http://www.w3.org/2000/svg" viewBox="0 0 112.4 96.3">
  <g>
    <ellipse cx="56.2" cy="94" rx="56.2" ry="2.4" fill="#e2e0e0"/>
    <g>
      <g>
        <g>
          <rect x="29.5" y="65.1" width="42.1" height="28.51" fill="#db6827"/>
          <rect x="63.3" y="65.1" width="2.6" height="5.03" fill="#fff"/>
          <rect x="15.5" y="65.1" width="42.1" height="28.51" fill="#f7aa59"/>
          <rect x="35.8" y="65.1" width="2.6" height="5.03" fill="#fff"/>
        </g>
        <g>
          <rect x="49.7" y="86.9" width="5" height="0.93" rx="0.3" fill="#db6827"/>
          <rect x="49.7" y="88.5" width="5" height="0.93" rx="0.3" fill="#db6827"/>
          <rect x="49.7" y="90.2" width="5" height="0.93" rx="0.3" fill="#db6827"/>
        </g>
      </g>
      <g>
        <g>
          <rect x="46.8" y="30.1" width="27.7" height="35.01" fill="#db6827"/>
          <rect x="64.3" y="30.1" width="2.6" height="5.03" fill="#fff"/>
          <rect x="24.8" y="30.1" width="30.9" height="35.01" fill="#f7aa59"/>
          <rect x="24.8" y="30.1" width="30.9" height="2.51" fill="#db6827"/>
          <rect x="36.5" y="30.1" width="2.6" height="5.03" fill="#fff"/>
        </g>
        <g>
          <rect x="47.2" y="54.3" width="5" height="0.51" rx="0.1" fill="#db6827"/>
          <rect x="47.2" y="55.9" width="5" height="0.51" rx="0.1" fill="#db6827"/>
          <rect x="47.2" y="57.6" width="5" height="0.51" rx="0.1" fill="#db6827"/>
        </g>
      </g>
      <g>
        <g>
          <rect x="22.3" y="9.6" width="28" height="20.48" transform="translate(72.7 39.7) rotate(180)" fill="#f7aa59"/>
          <rect x="29.3" y="9.6" width="3.2" height="6.16" transform="translate(61.8 25.4) rotate(180)" fill="#fff"/>
          <rect x="39.5" y="9.6" width="22.6" height="20.48" transform="translate(101.6 39.7) rotate(180)" fill="#db6827"/>
          <rect x="49.2" y="9.6" width="3.2" height="6.16" transform="translate(101.6 25.4) rotate(180)" fill="#fff"/>
        </g>
        <g>
          <rect x="33" y="23" width="4.6" height="0.65" rx="0.2" fill="#db6827"/>
          <rect x="33" y="25" width="4.6" height="0.65" rx="0.2" fill="#db6827"/>
          <rect x="33" y="27" width="4.6" height="0.65" rx="0.2" fill="#db6827"/>
        </g>
      </g>
    </g>
    <g>
      <path d="M105.8,41.8c.8-1.1-2.9-10.5-3.5-11.2s-5.2,1.1-6.1,3.2,3.6,5.4,3.9,6.2a15.8,15.8,0,0,1-3.9,6.5s-.9,3.9-.7,4.9C99.6,49.7,104.5,44.2,105.8,41.8Z" fill="#f9bb7f"/>
      <path d="M70,22.1c-3.8.4-7.7.8-7.1,4.5s12,2.1,12.9,2.2a26.3,26.3,0,0,0-.5-6.7Z" fill="#f9bb7f"/>
      <path d="M70,22.1c0,.6.1,9.3.2,9.4s4.6.4,6.5.4c.1,2.7.4,13.6.9,15.5,3.3,1.7,8.9,5.1,8.9,2.4V20.3C77.7,20.7,72.9,21.4,70,22.1Z" fill="#df281c"/>
      <path d="M100.3,24.7a59.7,59.7,0,0,1,3.9,8.8c-.7,1.3-4.5,3.4-6.7,3.6l-1.3-1.5c-.1,2.7-.4,9.9-.9,11.8-3.3,1.7-8.8,5.1-8.8,2.4V20.3C95.2,20.3,99.6,23.5,100.3,24.7Z" fill="#df281c"/>
      <path d="M95.3,47c-.7,7.5-5,37.7-5,37.7H85.2l.6-27.9s-8.9-.7-8.9-9.4C76.9,43.2,91.6,42.2,95.3,47Z" fill="#5e82ae"/>
      <g>
        <path d="M90.5,91h.6l.2,1.8c-3.1.9-8.4.3-9.1-.2l.8-2A25.8,25.8,0,0,0,90.5,91Z" fill="#462215"/>
        <path d="M90.3,84.2c-.4,3.5.5,4.9.4,7.1-2.1.7-6.1.4-7.4-.3a6.6,6.6,0,0,1,.7-3c.7-1.2,1.7-1.7,1.8-4.1v-.4Z" fill="#7c4c41"/>
        <polygon points="90.7 85.6 84.8 85.6 84.9 83.2 90.8 83.2 90.7 85.6" fill="#47698f"/>
        <path d="M89,87.4a.3.3,0,0,0,.3.3.3.3,0,0,0,.4-.2c0-.2-.1-.4-.3-.4S89.1,87.2,89,87.4Z" fill="#462215"/>
        <path d="M89.1,85.8c0,.2.1.4.3.4s.4-.1.4-.3a.3.3,0,0,0-.3-.3C89.3,85.5,89.2,85.7,89.1,85.8Z" fill="#462215"/>
        <path d="M85.7,87.2c.1.2-.1.3-.2.3a.3.3,0,0,1-.4-.2c0-.2.1-.4.3-.4A.3.3,0,0,1,85.7,87.2Z" fill="#462215"/>
        <path d="M86.8,85.6c0,.2-.1.3-.3.4s-.4-.1-.4-.3.1-.4.3-.4S86.8,85.4,86.8,85.6Z" fill="#462215"/>
      </g>
      <g>
        <path d="M76.9,47.4l.3-8,3.8-11h9.7l3.8,10.2.6,8.4S89.6,55.3,76.9,47.4Z" fill="#5e82ae"/>
        <g>
          <polygon points="80.3 20.5 83.3 29.9 80.7 31.1 77 20.9 80.3 20.5" fill="#47698f"/>
          <polygon points="92.2 20.3 88.9 29.9 91.3 31.1 95.4 21 92.2 20.3" fill="#47698f"/>
        </g>
        <polygon points="86.2 38.4 81.3 38.3 82 46.3 86.2 48.8 90.4 46.3 91.1 38.3 86.2 38.4" fill="#47698f"/>
      </g>
      <path d="M70.1,26.5s-2.8-2.5-5.4-2.4a26,26,0,0,1,5.4,3.4Z" fill="#e29269"/>
      <g>
        <g>
          <path d="M82.3,20.5v-4h8.1v4C90.4,23.5,82.3,23.5,82.3,20.5Z" fill="#f9bb7f"/>
          <path d="M82.3,17.6c2.1,3.6,5.8,4,8.1,0Z" fill="#e29269"/>
        </g>
        <path d="M91.9,8.2a36.6,36.6,0,0,1-5.1-.6c1-.7,5.1-.7,5.1-.7C101.8,7,98.6,8.1,91.9,8.2Z" fill="#5e82ae"/>
        <g>
          <path d="M80.8,13.5c-.8-3.7-1.5-7,.8-8.7.4-2,7.4-4.3,9.8.7,1.4,1.6,1.4,4.3.4,7.6C88.9,12.1,80.8,13.5,80.8,13.5Z" fill="#462215"/>
          <path d="M91.9,12.4c-.2-.8,1-8.3-5.6-8.3s-5.3,7.5-5.6,8.3c-1,3.5,2.5,7.3,5.6,7.4S92.9,15.9,91.9,12.4Z" fill="#f9bb7f"/>
          <path d="M87.3,14.8a1.1,1.1,0,0,0-.7-1.3,1.1,1.1,0,0,0-1.3.8,1,1,0,0,0,.8,1.3A1.1,1.1,0,0,0,87.3,14.8Z" fill="#e29269"/>
          <path d="M87.5,14.2a1.3,1.3,0,0,0-.9-1.6,1.2,1.2,0,0,0-1.5,1,1.2,1.2,0,0,0,.9,1.5A1.2,1.2,0,0,0,87.5,14.2Z" fill="#f9bb7f"/>
          <g>
            <g>
              <path d="M81,11c-1.2-1.7-3.2.5-1,3.2S81.9,12.3,81,11Z" fill="#f9bb7f"/>
              <path d="M80.4,12.4c-.1-1.2-.5-1.4-.9-1S80.4,12.4,80.4,12.4Z" fill="#e29269"/>
            </g>
            <g>
              <path d="M91.6,11c1.2-1.7,3.2.5,1,3.2S90.7,12.3,91.6,11Z" fill="#f9bb7f"/>
              <path d="M92.2,12.4c.1-1.2.5-1.4.9-1S92.2,12.4,92.2,12.4Z" fill="#e29269"/>
            </g>
          </g>
          <polygon points="85.3 9 85.2 10.3 82.9 10.5 82.6 9.6 85.3 9" fill="#462215"/>
          <polygon points="87.8 8.3 87.7 9.6 90 10.2 90.4 9.3 87.8 8.3" fill="#462215"/>
          <g>
            <path d="M84,12.8a.8.8,0,0,0,.8-.7v-.8a.8.8,0,0,0-.8-.7.7.7,0,0,0-.7.7v.8A.7.7,0,0,0,84,12.8Z" fill="#462215"/>
            <path d="M83.4,11.5c0,.2.2.3.4.3s.3-.2.3-.4a.4.4,0,0,0-.4-.4C83.5,11.1,83.3,11.3,83.4,11.5Z" fill="#fff"/>
          </g>
          <g>
            <path d="M88.6,12.8a.7.7,0,0,0,.7-.7v-.8a.7.7,0,0,0-1.4,0v.8A.7.7,0,0,0,88.6,12.8Z" fill="#462215"/>
            <path d="M87.9,11.5c.1.2.2.3.4.3a.4.4,0,0,0,0-.8A.7.7,0,0,0,87.9,11.5Z" fill="#fff"/>
          </g>
          <path d="M84.1,16.1a2.3,2.3,0,0,0,4.4,0Z" fill="#c2171d"/>
          <path d="M87.7,17.4a2.6,2.6,0,0,1-2.8,0,2.2,2.2,0,0,1,2.8,0Z" fill="#e0091c"/>
          <path d="M87.2,18c-.5.2-1.8.2-2-.1A1.1,1.1,0,0,0,87.2,18Z" fill="#e29269"/>
          <path d="M88.5,16.1l-.2.5h-4c-.1-.2-.1-.4-.2-.5h4.4Z" fill="#fff"/>
        </g>
        <path d="M91.4,5.9c0-.1-.1-.1-.1-.2a4.3,4.3,0,0,0-1.2-1.1,6.5,6.5,0,0,0-3.8-1.2,7,7,0,0,0-3.9,1.2,5.7,5.7,0,0,0-1.1,1.1l-.2.2c-1.6,2.6-.3,6.6-.3,6.6.3-4.2,1.6-5.9,1.6-5.9a33.9,33.9,0,0,0,7.8,0s1.2,1.7,1.6,5.9C91.8,12.5,93,8.5,91.4,5.9Z" fill="#462215"/>
        <g>
          <rect x="81.2" y="6.6" width="7.5" height="1.65" fill="#5e82ae"/>
          <path d="M86.3,6.6H81.2V8.2h5.1a.9.9,0,0,0,.9-.8A.8.8,0,0,0,86.3,6.6Z" fill="#47698f"/>
          <path d="M91.9,2.1C91.4,1.4,88.3,0,86.3,0A15.7,15.7,0,0,0,81,1.7c-.9.6-1.4,4.9-.9,6.5h2c0-.5-.3-2.1.4-3.1s5.1-1.2,5.4.4A6.3,6.3,0,0,1,88,8.2h4.5S92.6,3,91.9,2.1Z" fill="#df281c"/>
        </g>
        <path d="M82.4,5.9a2.6,2.6,0,0,1-.3-4,15.5,15.5,0,0,0,1.1,1.9,1.7,1.7,0,0,1,.6-1.5c.1,1.2,2.5,2.5,2.5,2.5S83.4,6.5,82.4,5.9Z" fill="#462215"/>
      </g>
      <path d="M63.6,23.9c1.7.1,4.1,1.7,6.4,3.6a78.2,78.2,0,0,1,7.9,7.8c1.5,6.8-3.7,12.1-4.2,10.8s.3-8.9.3-8.9C65.4,33.5,59.9,27.9,63.6,23.9Z" fill="#f9bb7f"/>
      <polygon points="85.5 71.6 91.6 75.4 90.6 82.8 85.3 81.4 85.5 71.6" fill="#47698f"/>
      <g>
        <path d="M96.1,91.8c.1.5,1.6.9,1.6.9,2-2.4,5.3-11,5-11.8a18.3,18.3,0,0,0-2.1-.2A39.5,39.5,0,0,1,96.1,91.8Z" fill="#462215"/>
        <path d="M92.7,82.7c1.8.8,2.8,1.5,3,2.4s-2.5,3.7-.7,5.5a6.2,6.2,0,0,0,1.7,1.1c1.5-1.7,4.2-9,4.1-10.5-1.9-1.1-3.9-.7-6.1-2.6Z" fill="#7c4c41"/>
        <path d="M95.6,87.5c.2.1.2.2.2.4a.4.4,0,0,1-.5.2.4.4,0,0,1-.1-.5C95.2,87.5,95.4,87.4,95.6,87.5Z" fill="#462215"/>
        <path d="M96.2,85.9a.4.4,0,0,1,.2.5c-.1.1-.3.2-.4.1s-.3-.2-.2-.4A.4.4,0,0,1,96.2,85.9Z" fill="#462215"/>
        <path d="M96.4,84a.4.4,0,0,1,.1.5c-.1.1-.2.2-.4.1s-.3-.3-.2-.4A.4.4,0,0,1,96.4,84Z" fill="#462215"/>
        <path d="M95.1,83a.4.4,0,0,1,.2.5.4.4,0,0,1-.5.1c-.1,0-.2-.2-.1-.4S94.9,83,95.1,83Z" fill="#462215"/>
      </g>
      <path d="M87,56.7a36.9,36.9,0,0,0-4.1,14.1l11.4,7-1.9,5.1s-16.9-4.8-17.9-7.3-1-15.3,2.4-28.2C82.6,47.7,87,56.7,87,56.7Z" fill="#5e82ae"/>
      <polygon points="93.6 83.9 95.8 78 93.4 76.9 91 83 93.6 83.9" fill="#47698f"/>
      <rect x="83.8" y="40.6" width="11.3" height="17.27" rx="0.6" transform="translate(-1.4 2.6) rotate(-1.7)" fill="#332e2b"/>
      <path d="M85.2,43a.7.7,0,0,1,.7-.7l9-.2v-1a.6.6,0,0,0-.6-.6l-10,.3a.7.7,0,0,0-.7.6l.5,16c0,.4.3.6.7.6h1Z" fill="#4c4744"/>
      <path d="M94.9,44.4c.8.3,1,1.7,1.3,2.1s.8,4.2-.7,4.9-5.7,1.3-5.6-.6,1-2.3,5.1-3.6C95,46.6,94.9,44.4,94.9,44.4Z" fill="#f9bb7f"/>
    </g>
  </g>
</svg>
