<svg xmlns="http://www.w3.org/2000/svg" viewBox="0 0 24.2 46.8">
  <g>
    <g>
      <path d="M20.7,6.7,19,1.2A1.6,1.6,0,0,0,17.5,0H6.6A1.6,1.6,0,0,0,5.1,1.2L3.6,6.7Z" fill="#575756"/>
      <path d="M20.9,6.5H3.2a.7.7,0,0,0-.7.8v7.4a.8.8,0,0,0,.7.8H20.9a.9.9,0,0,0,.8-.8V7.3a.8.8,0,0,0-.8-.8" fill="#575756"/>
      <path d="M8.7,0h0c0,.4-.1.8-.3.8H6.8C6.7.8,6.5.4,6.5,0h0" fill="#fff"/>
      <path d="M17.6,0h0c0,.4-.1.8-.3.8H15.7c-.1,0-.3-.4-.3-.8h0" fill="#fff"/>
    </g>
    <rect y="16.5" width="24.2" height="30.38" rx="1.1" fill="#575756"/>
    <rect x="1.2" y="17.9" width="21.5" height="7.4" rx="1.1" fill="#fff"/>
  </g>
</svg>
