<svg xmlns="http://www.w3.org/2000/svg" viewBox="0 0 24.6 33.2">
  <g>
    <path d="M15.8,18.8a2.3,2.3,0,0,1-1.3-2.2,2.3,2.3,0,0,1,1.3-2.2c1.6-1,4.6-1.1,6.5-4.1s1.1-7,1.1-7H1.4s-.7,4,1.2,7,4.9,3.1,6.5,4.1a2.4,2.4,0,0,1,1.2,2.2,2.4,2.4,0,0,1-1.2,2.2c-1.6.9-4.6,1.1-6.5,4.1s-1.2,7-1.2,7h22s.7-4-1.1-7S17.4,19.7,15.8,18.8Z" fill="#addce9"/>
    <path d="M15.7,14.4c1.7-1,4.7-1.1,6.6-4.1s1.1-7,1.1-7h-11V29.9h11s.7-4-1.1-7-4.9-3.2-6.6-4.1a2.4,2.4,0,0,1-1.2-2.2A2.4,2.4,0,0,1,15.7,14.4Z" fill="#89d0e6"/>
    <path d="M10.5,14.1a2.4,2.4,0,0,1,.9,2.1c0,.5-.1,2.2-.9,2.7h3.8c-.6-.5-.8-2.2-.8-2.7a2.7,2.7,0,0,1,.9-2.1c1.2-.8,3.5-.8,5.7-3.2.2-.2.2-6.4.3-6.6H2c.1,0,.1,1.6.3,2.8a6.4,6.4,0,0,0,1.9,3.8C6.2,13.1,9.4,13.3,10.5,14.1Z" fill="#ffe27f"/>
    <path d="M12.4,18.9h1.9c-.6-.5-.8-2.2-.8-2.7s.1-1.7.9-2.1,3.5-1.1,5.9-2.9,1.9-2.5,2.3-4.8a11.6,11.6,0,0,0,.1-2.1H12.4Z" fill="#f4b92e"/>
    <g>
      <path d="M14.5,19.6a2,2,0,0,1-2,2.1,2.1,2.1,0,0,1-2.1-2.1,2,2,0,0,1,2.1-2A2,2,0,0,1,14.5,19.6Z" fill="#f4b92e"/>
      <path d="M14,19.6a1.5,1.5,0,0,1-1.5,1.5A1.4,1.4,0,0,1,11,19.6a1.5,1.5,0,0,1,1.5-1.5A1.5,1.5,0,0,1,14,19.6Z" fill="#ffe27f"/>
    </g>
    <g>
      <path d="M14.5,24.3a2,2,0,0,1-2,2.1,2.1,2.1,0,0,1-2.1-2.1,2,2,0,0,1,2.1-2A2,2,0,0,1,14.5,24.3Z" fill="#f4b92e"/>
      <path d="M14,24.3a1.5,1.5,0,0,1-1.5,1.5A1.4,1.4,0,0,1,11,24.3a1.5,1.5,0,0,1,1.5-1.5A1.5,1.5,0,0,1,14,24.3Z" fill="#ffe27f"/>
    </g>
    <g>
      <path d="M9.4,20.1a2.1,2.1,0,0,1,.7,2.9,2.1,2.1,0,0,1-2.8.7,2,2,0,0,1-.7-2.8A2.1,2.1,0,0,1,9.4,20.1Z" fill="#f4b92e"/>
      <path d="M9.1,20.6a1.5,1.5,0,0,1,.5,2.1,1.4,1.4,0,0,1-2,.5,1.5,1.5,0,0,1-.6-2A1.5,1.5,0,0,1,9.1,20.6Z" fill="#ffe27f"/>
    </g>
    <g>
      <path d="M7.2,24.9a2,2,0,1,1-.7,2.8A2,2,0,0,1,7.2,24.9Z" fill="#f4b92e"/>
      <path d="M7.5,25.3a1.6,1.6,0,0,1,2.1.6A1.6,1.6,0,0,1,9,28a1.6,1.6,0,0,1-2.1-.6A1.6,1.6,0,0,1,7.5,25.3Z" fill="#ffe27f"/>
    </g>
    <g>
      <path d="M10.2,29.1a2.1,2.1,0,1,1,2.1,2A2.1,2.1,0,0,1,10.2,29.1Z" fill="#f4b92e"/>
      <path d="M10.8,29.1a1.5,1.5,0,1,1,1.5,1.5A1.5,1.5,0,0,1,10.8,29.1Z" fill="#ffe27f"/>
    </g>
    <g>
      <path d="M15.4,28.6a2.1,2.1,0,1,1,2.8-.8A2.1,2.1,0,0,1,15.4,28.6Z" fill="#f4b92e"/>
      <path d="M15.7,28.1a1.5,1.5,0,1,1,1.5-2.6,1.5,1.5,0,0,1-1.5,2.6Z" fill="#ffe27f"/>
    </g>
    <path d="M13,29.4c0,.2,0,.3-.1.4l-.5.2v.3h-.2V30h-.7v-.4h.7v-.4h-.1a.7.7,0,0,1-.6-.6c0-.1.1-.2.2-.3l.5-.2v-.2h.2V28l.6.2v.3h-.5v.4l.4.2.2.2Zm-1-.9v.2h.2v-.3Zm.6,1c0-.1,0-.1-.1-.1h-.1v.3C12.5,29.6,12.6,29.6,12.6,29.5Z" fill="#f4b92e"/>
    <g>
      <path d="M17.6,23.9a2.2,2.2,0,0,1-2.9-.8,2.1,2.1,0,0,1,.8-2.8,2.1,2.1,0,0,1,2.8.7A2.2,2.2,0,0,1,17.6,23.9Z" fill="#f4b92e"/>
      <path d="M17.3,23.4a1.6,1.6,0,0,1-2.1-.6,1.4,1.4,0,0,1,.6-2,1.4,1.4,0,0,1,2,.5A1.6,1.6,0,0,1,17.3,23.4Z" fill="#ffe27f"/>
    </g>
    <rect width="24.6" height="2.47" fill="#ef7c84"/>
    <path d="M13.3,20c0,.1-.1.2-.2.3l-.5.2v.3h-.2v-.3h-.6V20h.6v-.5h-.1l-.4-.3a.4.4,0,0,1-.1-.3c0-.2,0-.3.1-.4l.5-.2v-.2h.2v.2l.6.2V19h-.5v.5H13l.2.2A.4.4,0,0,1,13.3,20Zm-1.1-.9h.2v-.4A.2.2,0,0,0,12.2,19.1Zm.6.9h-.2v.4C12.8,20.1,12.8,20.1,12.8,20Z" fill="#f4b92e"/>
    <path d="M9.1,22.3c0,.1,0,.3-.2.3l-.4.2v.3H8.3v-.3H7.6v-.4h.7V22H8.2l-.5-.3c0-.1-.1-.2-.1-.3a.5.5,0,0,1,.2-.4h.5v-.3h.2v.2l.6.2-.2.3H8.5v.5l.4.2h.2Zm-1-.9h.2v-.4C8.1,21.2,8.1,21.3,8.1,21.4Zm.6.9a.1.1,0,0,0-.1-.1H8.5v.4Z" fill="#f4b92e"/>
    <path d="M13.2,24.7c0,.2,0,.3-.1.4l-.5.2v.3h-.2v-.3h-.7v-.4h.7v-.4h-.1c-.2,0-.4-.1-.4-.2s-.2-.2-.2-.3a.5.5,0,0,1,.2-.4l.5-.2v-.2h.2v.2l.6.2v.3h-.5v.4l.4.2.2.2Zm-1-.8h.2v-.3C12.2,23.7,12.2,23.8,12.2,23.9Zm.6.9c0-.1,0-.1-.1-.1h-.1v.3Z" fill="#f4b92e"/>
    <path d="M17.3,22.4c0,.2,0,.3-.1.4l-.5.2v.3h-.2V23h-.7v-.4h.7v-.4h-.1c-.2,0-.4-.1-.4-.2a.5.5,0,0,1-.2-.4c0-.1.1-.2.2-.3l.5-.2v-.2h.2V21h.6v.4h-.5v.4l.4.2.2.2Zm-1-.9v.2h.2v-.3C16.3,21.4,16.3,21.5,16.3,21.5Zm.6,1c0-.1,0-.1-.1-.2h-.1v.3Z" fill="#f4b92e"/>
    <path d="M17.2,27.2a.6.6,0,0,1-.1.4h-.5v.4h-.2v-.4h-.7v-.4h.7v-.5h-.1l-.4-.3c-.1,0-.2-.2-.2-.3a.8.8,0,0,1,.2-.4h.5v-.3h.2v.3h.6v.4l-.5-.2v.5l.4.2c.1,0,.1.1.2.2Zm-1-.9h.2v-.4C16.2,26.2,16.2,26.2,16.2,26.3Zm.6.9h-.2v.4A.2.2,0,0,0,16.8,27.2Z" fill="#f4b92e"/>
    <path d="M9,27a.5.5,0,0,1-.2.4l-.5.2v.3H8.1v-.3l-.6-.2V27l.3.2h.3v-.5H8l-.4-.2c-.1-.1-.1-.2-.1-.4s0-.2.2-.3l.4-.2v-.2h.2v.2H9l-.2.4H8.3v.4c.2.1.4.1.4.2a.2.2,0,0,1,.2.2C9,26.8,9,26.9,9,27Zm-1.1-.9H8a.1.1,0,0,0,.1.1V26C8,26,7.9,26,7.9,26.1Zm.6.9H8.3v.4C8.5,27.2,8.5,27.1,8.5,27Z" fill="#f4b92e"/>
    <g>
      <circle cx="12.4" cy="9.2" r="4.5" fill="#ee7048"/>
      <g>
        <circle cx="12.4" cy="9.2" r="4.3" transform="translate(1.3 19.9) rotate(-80.9)" fill="#f2916f"/>
        <path d="M16.2,9.2a3.9,3.9,0,1,1-7.7,0,3.9,3.9,0,1,1,7.7,0Z" fill="#ee7048"/>
        <path d="M16,9.2a3.7,3.7,0,0,1-7.3,0,3.7,3.7,0,1,1,7.3,0Z" fill="#343e4e"/>
        <polygon points="12.4 9.5 10.6 8.5 10.8 8.2 12.4 9.1 14.6 7.8 14.8 8 12.4 9.5" fill="#fff"/>
        <path d="M12.8,9.2a.4.4,0,0,1-.4.4.5.5,0,0,1-.5-.4.5.5,0,0,1,.5-.4A.4.4,0,0,1,12.8,9.2Z" fill="#ee7048"/>
        <path d="M12.5,6.2h-.3a.2.2,0,0,1,.2-.2A.3.3,0,0,1,12.5,6.2Z" fill="#fff"/>
        <path d="M11,6.5v.2c-.1,0-.2,0-.2-.1V6.4Z" fill="#fff"/>
        <path d="M9.8,7.6c.1,0,.1.1,0,.1H9.6V7.6Z" fill="#fff"/>
        <path d="M9.3,9.1h.1c0,.1,0,.1-.1.1s-.1,0-.1-.1Z" fill="#fff"/>
        <path d="M9.6,10.6h.2c.1.1.1.2,0,.2H9.6Z" fill="#fff"/>
        <path d="M10.7,11.8c0-.1.1-.1.2-.1s.1.1.1.2h-.2Z" fill="#fff"/>
        <path d="M12.2,12.2h.3a.3.3,0,0,1-.1.2A.2.2,0,0,1,12.2,12.2Z" fill="#fff"/>
        <path d="M13.8,11.9c-.1-.1-.1-.2,0-.2s.2,0,.2.1V12Z" fill="#fff"/>
        <path d="M14.9,10.8c-.1,0-.1-.1,0-.2h.2v.2Z" fill="#fff"/>
        <path d="M15.4,9.3c-.1,0-.1,0-.1-.1h.2C15.5,9.3,15.5,9.3,15.4,9.3Z" fill="#fff"/>
        <path d="M15.1,7.8h-.2c-.1,0-.1-.1,0-.1h.2Z" fill="#fff"/>
        <path d="M14,6.6c0,.1-.1.1-.2.1s-.1-.1,0-.2h.1Z" fill="#fff"/>
      </g>
    </g>
    <rect y="30.9" width="24.6" height="2.34" fill="#ef7c84"/>
  </g>
</svg>
