<svg xmlns="http://www.w3.org/2000/svg" xmlns:xlink="http://www.w3.org/1999/xlink" viewBox="0 0 429.3 237.5">
  <defs>
    <clipPath id="a">
      <rect x="51.8" y="119.7" width="28.7" height="24.03" fill="none"/>
    </clipPath>
    <clipPath id="b">
      <rect x="45.6" y="114.8" width="51.4" height="41.65" fill="none"/>
    </clipPath>
    <clipPath id="c">
      <rect x="74.4" y="114.8" width="12.9" height="9.02" fill="none"/>
    </clipPath>
    <clipPath id="d">
      <rect x="45.6" y="127.3" width="6.8" height="13.98" fill="none"/>
    </clipPath>
    <clipPath id="e">
      <rect x="47.5" y="141.6" width="31" height="14.89" fill="none"/>
    </clipPath>
    <clipPath id="f">
      <rect x="78.7" y="124.1" width="18.3" height="29.88" fill="none"/>
    </clipPath>
    <clipPath id="g">
      <rect x="305.4" y="109.1" width="20.8" height="19.76" fill="none"/>
    </clipPath>
    <clipPath id="h">
      <rect x="335.4" y="115.5" width="16.9" height="11.07" fill="none"/>
    </clipPath>
    <clipPath id="i">
      <rect x="332.9" y="90.1" width="13.2" height="23.53" fill="none"/>
    </clipPath>
    <clipPath id="j">
      <rect x="312.4" y="96.2" width="28.1" height="86.76" fill="none"/>
    </clipPath>
    <clipPath id="k">
      <rect x="336.5" y="43.7" width="35" height="34" fill="none"/>
    </clipPath>
    <clipPath id="l">
      <rect x="285.2" y="36.8" width="81.7" height="61.39" fill="none"/>
    </clipPath>
    <clipPath id="m">
      <rect x="285.2" y="39.7" width="74.5" height="58.46" fill="none"/>
    </clipPath>
    <clipPath id="n">
      <rect x="356.9" y="98.3" width="14.4" height="14" fill="none"/>
    </clipPath>
    <clipPath id="o">
      <rect x="335.8" y="95.4" width="33.6" height="25.28" fill="none"/>
    </clipPath>
    <clipPath id="p">
      <rect x="335.8" y="96.6" width="30.7" height="24.07" fill="none"/>
    </clipPath>
    <clipPath id="q">
      <rect x="307.8" y="91.5" width="16.9" height="16.41" fill="none"/>
    </clipPath>
    <clipPath id="r">
      <rect x="283.1" y="88.1" width="39.4" height="29.62" fill="none"/>
    </clipPath>
    <clipPath id="s">
      <rect x="283.1" y="89.5" width="36" height="28.21" fill="none"/>
    </clipPath>
    <clipPath id="t">
      <rect x="235.4" y="72.4" width="20.8" height="19.76" fill="none"/>
    </clipPath>
    <clipPath id="u">
      <rect x="265.4" y="78.8" width="16.8" height="11.07" fill="none"/>
    </clipPath>
    <clipPath id="v">
      <rect x="262.9" y="53.3" width="13.2" height="23.53" fill="none"/>
    </clipPath>
    <clipPath id="w">
      <rect x="242.4" y="59.4" width="28.1" height="86.77" fill="none"/>
    </clipPath>
    <clipPath id="x">
      <rect x="266.5" y="7" width="35" height="34" fill="none"/>
    </clipPath>
    <clipPath id="y">
      <rect x="215.2" width="81.7" height="61.39" fill="none"/>
    </clipPath>
    <clipPath id="z">
      <rect x="215.2" y="3" width="74.5" height="58.45" fill="none"/>
    </clipPath>
    <clipPath id="aa">
      <rect x="286.9" y="61.5" width="14.4" height="14" fill="none"/>
    </clipPath>
    <clipPath id="ab">
      <rect x="265.8" y="58.7" width="33.6" height="25.28" fill="none"/>
    </clipPath>
    <clipPath id="ac">
      <rect x="265.8" y="59.9" width="30.7" height="24.07" fill="none"/>
    </clipPath>
    <clipPath id="ad">
      <rect x="237.9" y="54.7" width="16.9" height="16.4" fill="none"/>
    </clipPath>
    <clipPath id="ae">
      <rect x="213.1" y="51.4" width="39.4" height="29.61" fill="none"/>
    </clipPath>
    <clipPath id="af">
      <rect x="213.1" y="52.8" width="36" height="28.2" fill="none"/>
    </clipPath>
    <clipPath id="ag">
      <rect x="155.5" y="118.3" width="20.8" height="19.76" fill="none"/>
    </clipPath>
    <clipPath id="ah">
      <rect x="185.5" y="124.7" width="16.9" height="11.07" fill="none"/>
    </clipPath>
    <clipPath id="ai">
      <rect x="183" y="99.3" width="13.2" height="23.53" fill="none"/>
    </clipPath>
    <clipPath id="aj">
      <rect x="162.6" y="105.3" width="28.1" height="86.77" fill="none"/>
    </clipPath>
    <clipPath id="ak">
      <rect x="186.6" y="52.9" width="35" height="34" fill="none"/>
    </clipPath>
    <clipPath id="al">
      <rect x="135.3" y="46" width="81.7" height="61.39" fill="none"/>
    </clipPath>
    <clipPath id="am">
      <rect x="135.3" y="48.9" width="74.5" height="58.46" fill="none"/>
    </clipPath>
    <clipPath id="an">
      <rect x="207" y="107.4" width="14.4" height="14.01" fill="none"/>
    </clipPath>
    <clipPath id="ao">
      <rect x="185.9" y="104.6" width="33.6" height="25.28" fill="none"/>
    </clipPath>
    <clipPath id="ap">
      <rect x="185.9" y="105.8" width="30.7" height="24.07" fill="none"/>
    </clipPath>
    <clipPath id="aq">
      <rect x="158" y="100.7" width="16.9" height="16.4" fill="none"/>
    </clipPath>
    <clipPath id="ar">
      <rect x="133.2" y="97.3" width="39.4" height="29.61" fill="none"/>
    </clipPath>
    <clipPath id="as">
      <rect x="133.2" y="98.7" width="36" height="28.2" fill="none"/>
    </clipPath>
    <clipPath id="at">
      <rect x="180.1" y="179.8" width="151.2" height="12.66" fill="none"/>
    </clipPath>
    <clipPath id="au">
      <rect x="264.6" y="156.9" width="2.7" height="2.7" fill="none"/>
    </clipPath>
    <clipPath id="av">
      <rect x="215.3" y="139.3" width="13.5" height="25.93" fill="none"/>
    </clipPath>
    <clipPath id="aw">
      <rect x="285.2" y="139.3" width="13.5" height="25.93" fill="none"/>
    </clipPath>
    <clipPath id="ax">
      <rect x="252.8" y="118.7" width="4" height="5.11" fill="none"/>
    </clipPath>
    <clipPath id="ay">
      <rect x="62.8" y="188.7" width="102.5" height="4.31" fill="none"/>
    </clipPath>
    <clipPath id="az">
      <rect x="120.3" y="110.1" width="19.5" height="40.57" fill="none"/>
    </clipPath>
    <clipPath id="ba">
      <rect x="119.9" y="138.8" width="19.5" height="11.82" fill="none"/>
    </clipPath>
    <clipPath id="bb">
      <rect x="110.9" y="127.3" width="2" height="13.72" fill="none"/>
    </clipPath>
    <clipPath id="bc">
      <rect x="104.1" y="127.3" width="15.6" height="0.37" fill="none"/>
    </clipPath>
    <clipPath id="bd">
      <rect x="106.1" y="127.3" width="3.1" height="13.72" fill="none"/>
    </clipPath>
    <clipPath id="be">
      <rect x="132.3" y="145.5" width="2" height="13.72" fill="none"/>
    </clipPath>
    <clipPath id="bf">
      <rect x="125.4" y="145.5" width="15.6" height="0.37" fill="none"/>
    </clipPath>
    <clipPath id="bg">
      <rect x="95.7" y="145.5" width="2" height="13.73" fill="none"/>
    </clipPath>
    <clipPath id="bh">
      <rect x="88.9" y="145.5" width="15.6" height="0.37" fill="none"/>
    </clipPath>
    <clipPath id="bi">
      <rect x="127.4" y="145.5" width="3.1" height="13.72" fill="none"/>
    </clipPath>
    <clipPath id="bj">
      <rect x="95.7" y="124.1" width="2" height="21.33" fill="none"/>
    </clipPath>
    <clipPath id="bk">
      <rect x="88.9" y="124.1" width="15.6" height="0.57" fill="none"/>
    </clipPath>
    <clipPath id="bl">
      <rect x="115.8" y="141" width="2.7" height="18.16" fill="none"/>
    </clipPath>
    <clipPath id="bm">
      <rect x="104.5" y="141" width="3.8" height="18.16" fill="none"/>
    </clipPath>
    <clipPath id="bn">
      <rect x="106.8" y="141" width="20.7" height="0.49" fill="none"/>
    </clipPath>
    <clipPath id="bo">
      <rect x="161.2" y="191" width="43.7" height="3.51" fill="none"/>
    </clipPath>
    <clipPath id="bp">
      <rect x="212" y="181.3" width="159.7" height="3.86" fill="none"/>
    </clipPath>
    <clipPath id="bq">
      <rect x="241.7" y="189" width="105.3" height="3.86" fill="none"/>
    </clipPath>
    <clipPath id="br">
      <rect x="268.4" y="192.9" width="45.6" height="3.86" fill="none"/>
    </clipPath>
    <clipPath id="bs">
      <rect x="254.4" y="192.3" width="16.9" height="2.21" fill="none"/>
    </clipPath>
    <clipPath id="bt">
      <rect x="317.5" y="192.5" width="16.9" height="2.22" fill="none"/>
    </clipPath>
    <clipPath id="bu">
      <rect x="295.8" y="150.8" width="4.7" height="4.89" fill="none"/>
    </clipPath>
    <clipPath id="bv">
      <rect x="288.1" y="148.8" width="8.5" height="14.42" fill="none"/>
    </clipPath>
    <clipPath id="bw">
      <rect x="323.9" y="160.5" width="4.5" height="30.49" fill="none"/>
    </clipPath>
    <clipPath id="bx">
      <rect x="310.6" y="176.2" width="5.2" height="14.82" fill="none"/>
    </clipPath>
    <clipPath id="by">
      <rect x="285.6" y="169.8" width="18" height="0.72" fill="none"/>
    </clipPath>
    <clipPath id="bz">
      <rect x="285.6" y="173.2" width="18" height="0.72" fill="none"/>
    </clipPath>
    <clipPath id="ca">
      <rect x="285.6" y="176.5" width="18" height="0.73" fill="none"/>
    </clipPath>
    <clipPath id="cb">
      <rect x="291" y="176.2" width="4.5" height="18.68" fill="none"/>
    </clipPath>
    <clipPath id="cc">
      <rect x="275.9" y="176.2" width="34.7" height="10.28" fill="none"/>
    </clipPath>
  </defs>
  <g style="isolation: isolate">
    <g>
      <path d="M429.3,183.5c0,5.7-7.1,10.3-15.9,10.3H87.7c-8.7,0-15.8-4.6-15.8-10.3v-2c0-5.7,7.1-10.3,15.8-10.3H413.4c8.8,0,15.9,4.6,15.9,10.3Z" fill="#8fba40"/>
      <path d="M321,233.3a4.5,4.5,0,0,1,0-9h67.1a6.2,6.2,0,0,0-3-11.6h24.3a6.2,6.2,0,1,0,0-12.4H99.7a6.2,6.2,0,1,0,0,12.4h110a3,3,0,0,1,3,3,2.9,2.9,0,0,1-3,3h-92v.2a6.2,6.2,0,0,0,6.2,6.2h31.5a6.2,6.2,0,0,0,0,12.4H353.6a6.4,6.4,0,0,0,5.9-4.2Z" fill="#8fba40"/>
      <path d="M411.3,196.9a3.1,3.1,0,0,1-3.1,3.1H254.7a3.1,3.1,0,0,1,0-6.2H408.2a3.1,3.1,0,0,1,3.1,3.1" fill="#5f963a"/>
      <path d="M192.6,196.9a3.1,3.1,0,0,1-3.1,3.1H97.3a3.1,3.1,0,1,1,0-6.2h92.2a3.1,3.1,0,0,1,3.1,3.1" fill="#5f963a"/>
      <polygon points="74 190.6 68.6 190.6 70 139.3 72.9 139.3 74 190.6" fill="#7c4d2a"/>
      <polygon points="71.3 155.3 70.3 159.4 59.6 139.1 62 137.8 71.3 155.3" fill="#7c4d2a"/>
      <rect x="67.6" y="152.1" width="19.8" height="2.72" transform="translate(-94.1 142.8) rotate(-59.7)" fill="#7c4d2a"/>
      <path d="M96.8,129.5c-1.4-6.2-7.5-6.3-12.2-4.2,9.8-8.4-10.9-16.8-10.9-3.6-2.6-5.2-8.8-9.3-14-4.4s-1.1,10.4,2.2,13.5c-3.5-4.9-6.6-9.1-13.1-3.7a8.3,8.3,0,0,0-.7,12.4,7.5,7.5,0,0,0,1.6,1.5l1.5.3a5.2,5.2,0,0,0-3.7,5.6c.1,3.3,1.8,7.1,7.1,6.8a6.7,6.7,0,0,0,6.1-3.2,7.1,7.1,0,0,0,3.6,4.7c9.4,4.1,15.3-2.5,14.1-9.9.6,6.3,4.2,11.2,12.1,7.3s2.1-14-2.8-16.8c4.6.8,10.5-.2,9.1-6.3" fill="#97bb4d"/>
      <g opacity="0.5" style="mix-blend-mode: soft-light">
        <g clip-path="url(#a)">
          <path d="M53.3,127c2.4-1.8,4.5,1,6.1,2.5s3.6,2.7,4.5.3-.7-3.2-1.5-4.8,1.1-5.5,3.9-5.3a9.2,9.2,0,0,1,7,5.5h.3c.2-1.1,1-3,2.1-3.3s2.8.6,3.5,1.6,0,3.6-.8,5.5a3.1,3.1,0,0,1,2.1,2.8c.2,4.3-4,4.5-7,2.9-.1,0-.3.1-.2.2a5.2,5.2,0,0,1-1.1,6.5,3.9,3.9,0,0,1-2.7,1.1,4,4,0,0,1-3-2.2c0-.1-.2-.1-.2.1a3.7,3.7,0,0,1-2.8,3.3,6.8,6.8,0,0,1-4.4-1,5.7,5.7,0,0,1-2.7-3.4c-.5-1.7.8-3.1,2.1-4s.1-.3,0-.3c-2.9,0-5.6-.9-6.5-3.9a3.5,3.5,0,0,1,1.3-4.1" fill="#fff"/>
        </g>
      </g>
      <g style="mix-blend-mode: multiply">
        <g clip-path="url(#b)">
          <path d="M96.8,129.5c-1.4-6.2-7.5-6.3-12.2-4.2,9.1-7.8-7.9-15.5-10.6-6.2,1.6-3,5.8-2.9,8.1-.6s2.2,7.3.6,10.7c1.8-.6,3.6,1.1,4,2.8s-.9,3.8-2.7,4.8c3.2,2.2,5.5,7.1,1.6,9.5a5.1,5.1,0,0,1-6.2-.4,11.9,11.9,0,0,1-2.5-3.8c.2.7-.5,2.5-.8,3.2a9.4,9.4,0,0,1-1.4,2.6c-2.6,3.3-8.6,3.4-11.4.2a6.9,6.9,0,0,1-1.5-3.1c.1.5-2,1.7-2.4,1.9a4.4,4.4,0,0,1-3,.6c-2.4-.6-3.4-3.4-2.9-5.7a6.8,6.8,0,0,1,2-3.7c-3.2-.4-6.1-2.2-6.7-5.7a7.9,7.9,0,0,1,1.8-6.6l-1.8,1.3a8.3,8.3,0,0,0-.7,12.4,7.5,7.5,0,0,0,1.6,1.5l1.5.3a5.2,5.2,0,0,0-3.7,5.6c.1,3.3,1.8,7.1,7.1,6.8a6.7,6.7,0,0,0,6.1-3.2,7.1,7.1,0,0,0,3.6,4.7c9,4,14.8-2,14.2-9,.8,5.8,4.4,10.1,12,6.4,9.1-4.3,2.1-14-2.8-16.8,4.6.8,10.5-.2,9.1-6.3" fill="#ccdd4f"/>
        </g>
      </g>
      <g style="mix-blend-mode: multiply">
        <g clip-path="url(#c)">
          <path d="M77.5,115.5a5.7,5.7,0,0,1,4.6.3,8,8,0,0,1,3.8,4.1,5.8,5.8,0,0,1,.1,3.9c5.4-6.9-8.3-13-11.6-5.7a7.1,7.1,0,0,1,3.1-2.6" fill="#ccdd4f"/>
        </g>
      </g>
      <g style="mix-blend-mode: multiply">
        <g clip-path="url(#d)">
          <path d="M49.7,141a3.5,3.5,0,0,0,1.1.3,10.7,10.7,0,0,1,1.6-2.5c-5.5-1.1-5.8-7.1-3.8-11.5-3.7,3.3-4.1,8.8-.5,12.2a7.5,7.5,0,0,0,1.6,1.5" fill="#ccdd4f"/>
        </g>
      </g>
      <g style="mix-blend-mode: multiply">
        <g clip-path="url(#e)">
          <path d="M77.7,146.2a9.5,9.5,0,0,1-7.5,7.3,6.5,6.5,0,0,1-4.9-.6,7.2,7.2,0,0,1-3.3-4.3c-2.5,3.1-7.5,4.4-10.7,1.6s-2.1-5.7-.7-8.6a5.1,5.1,0,0,0-3.1,5.3c.1,3.3,1.8,7.1,7.1,6.8a6.7,6.7,0,0,0,6.1-3.2,7.1,7.1,0,0,0,3.6,4.7c8.6,3.8,14.3-1.5,14.2-8.1l-.8-.9" fill="#ccdd4f"/>
        </g>
      </g>
      <g style="mix-blend-mode: multiply">
        <g clip-path="url(#f)">
          <path d="M96.8,129.5c-1.3-5.5-6.2-6.2-10.6-4.8,5.9.5,3.7,9.9,0,12.5a9,9,0,0,1,4.5,5.1c.8,2.1,1.2,4.9-.4,6.8-3.1,3.7-8.6,1.4-11.6-1.8,1.1,5.2,4.7,8.7,11.8,5.3,9.1-4.3,2.1-14-2.8-16.8,4.6.8,10.5-.2,9.1-6.3" fill="#ccdd4f"/>
        </g>
      </g>
      <path d="M82.8,173.2c.6-.7-.5-1.5-1.1-1-4.5,3.4-7.3,9.2-7.8,14.9-.1-1.5-.1-2.9-.1-4.4.1-3.1,1.2-5.7,2.5-8.5.3-.6-.7-1.1-1.1-.5-3.2,5-3.2,11.3-1.9,17a.5.5,0,0,0,.9-.1h0a.7.7,0,0,0,1.2-.4.3.3,0,0,1,.1.2.6.6,0,0,0,1.1-.4c-.6-3.5,2.4-5.6,3.7-8.4.3-.6-.6-1-1-.6a13.9,13.9,0,0,0-3.2,4.4,19,19,0,0,1,1.1-3.9c1.2-3.2,3.6-5.5,5.6-8.2" fill="#5f963a"/>
      <path d="M66.1,175.3c-.3-.5-1.3-.2-1,.4a24.6,24.6,0,0,1,1.3,8.4,15.8,15.8,0,0,0-4-5.4c-.5-.4-1.2.2-.8.7a16.9,16.9,0,0,1,4.7,11c.1,1.1,1.7,1.2,1.6.1v-.2c0-.1.1-.1.1-.2.4-4.8.8-10.5-1.9-14.8" fill="#5f963a"/>
      <path d="M70.3,176a.6.6,0,0,0-1.2-.4c-1.8,4.4-.3,9.7-.2,14.3,0,.9,1.5,1,1.5.1-.1-4.7-1.1-9.3-.1-14" fill="#5f963a"/>
      <path d="M72.1,190.1h0v-1.2c.4-2.9-.5-6.2-.8-9.1,0-.5-.9-.4-.9.1A34.6,34.6,0,0,0,71,189h0v.2a1.1,1.1,0,0,0-.1.5v.2s-.1.1,0,.1.2.8.5.8a.7.7,0,0,0,.7-.8" fill="#5f963a"/>
      <path d="M329,196.9a3.1,3.1,0,0,1-3.1,3.1H172.5a3.1,3.1,0,1,1,0-6.2H325.9a3.1,3.1,0,0,1,3.1,3.1" fill="#8fba40"/>
      <path d="M323.6,128.8l-18.2-17.9,2-1.8s15.7,16.4,17.9,14-.6,5.8-.6,5.8" fill="#603913"/>
      <g style="mix-blend-mode: multiply">
        <g clip-path="url(#g)">
          <path d="M325.8,122.6v.2c-1.5,2.2-3.8,1.4-5.7.2a26.9,26.9,0,0,1-7-6,28,28,0,0,1-3.2-5.2l-2.5-2.7-2,1.8,18.2,17.9h1.1s2.2-6.6,1.1-6.3" fill="#bcbec0"/>
        </g>
      </g>
      <path d="M312.4,180.1a12.2,12.2,0,0,0,5.8-5.1c2.2-3.7.7-20.8,1.6-29.8,1.2-12.8,8-23.6,6.3-32.2s-7.2-15.8-7.2-15.8l3.1-1.7,10.6,18.2,11.6-23.6,2,.5s-6.5,13.8-9.3,23-1.8,10.9.6,12.2,11.4-8.3,13.1-10,2.1,3.9,2.1,3.9S338.1,128.4,336,134c-3.7,9.7-2.9,36.7-1.6,41.6s6.2,7.3,6.2,7.3Z" fill="#603913"/>
      <g style="mix-blend-mode: multiply">
        <g clip-path="url(#h)">
          <path d="M337.5,125.8a3.8,3.8,0,0,1-1.9-2.9,3.5,3.5,0,0,0,.1,2.7c1.8,3.2,7.6-2.3,9.2-3.5s4.7-3.4,7.3-5c-.3-1.1-.8-2.1-1.6-1.3s-10.6,11.4-13.1,10" fill="#bcbec0"/>
        </g>
      </g>
      <g style="mix-blend-mode: multiply">
        <g clip-path="url(#i)">
          <path d="M333.4,113.6c2.7-8.4,7.9-15.6,12.7-23l-1.9-.5-11.3,23,.5.5" fill="#bcbec0"/>
        </g>
      </g>
      <g style="mix-blend-mode: multiply">
        <g clip-path="url(#j)">
          <path d="M336.3,179.3a10.8,10.8,0,0,1-5.6-2c-2.8-1.9-4.4-5.2-5.1-8.4-2.2-9.4-1.1-19.4.4-28.8.8-5.3,1.7-10.6,2.3-16s.9-10.2-.9-15-4.8-8.5-6.6-13l-1.9,1.1s5.6,8,7.2,15.8-5.1,19.4-6.3,32.2c-.9,9,.6,26.1-1.6,29.8a12.2,12.2,0,0,1-5.8,5.1l28.2,2.8a14.3,14.3,0,0,1-4.3-3.6" fill="#bcbec0"/>
        </g>
      </g>
      <path d="M371.4,75a10.6,10.6,0,0,0-9.6-11.7,9.4,9.4,0,0,0-4.1.4,6.6,6.6,0,0,0-5.8-5.4h-.5a11.2,11.2,0,0,0-10-14.5,12,12,0,0,0-6.3,1.1,6.9,6.9,0,0,0-4.4-2.2,6.5,6.5,0,0,0-3.4.6,10.3,10.3,0,0,0-8.5-6.5,10.1,10.1,0,0,0-11.1,9.1,5.7,5.7,0,0,0-.1,1.3,5.2,5.2,0,0,0-2.3,3.7,5.5,5.5,0,0,0,.2,1.8,5.4,5.4,0,0,0-3.6,4.6,6.3,6.3,0,0,0,.4,2.7,3.4,3.4,0,0,0-1.6,2.6V63h0a4.9,4.9,0,0,0-5.4,4.4v.3a10.4,10.4,0,0,0-10,9.4,10.5,10.5,0,0,0,9.4,11.5,10.7,10.7,0,0,0,5-.7,7.8,7.8,0,0,0,6.4,5,8.3,8.3,0,0,0,3.5-.5,11.6,11.6,0,0,0,8.9,5.7,12.1,12.1,0,0,0,9-3,11.4,11.4,0,0,0,4.6,1.5,11.8,11.8,0,0,0,10.8-5.1,4.8,4.8,0,0,0,3.5,2.3,4.4,4.4,0,0,0,3.2-1,6.6,6.6,0,0,0,4,1.7,7.3,7.3,0,0,0,8.1-6.6,7.2,7.2,0,0,0-.4-3.3A10.6,10.6,0,0,0,371.4,75" fill="#5d9539"/>
      <g opacity="0.5" style="mix-blend-mode: soft-light">
        <g clip-path="url(#k)">
          <path d="M338.7,45.3c2.8,1.3,5.6,2.5,7.2,5.3s1.7,5.7,3.3,8.3a23.5,23.5,0,0,0,8.2,8.1,18.9,18.9,0,0,0,5.1,2.1,18.3,18.3,0,0,1,3.3,1.1c2.3,1,3.5,3.1,4.3,5.4a17.2,17.2,0,0,0,.7,2.1,11.8,11.8,0,0,0,.6-2.7,10.6,10.6,0,0,0-9.6-11.7,9.4,9.4,0,0,0-4.1.4,6.6,6.6,0,0,0-5.8-5.4h-.5a11.2,11.2,0,0,0-10-14.5,11.4,11.4,0,0,0-4.9.5l2.2,1" fill="#fff"/>
        </g>
      </g>
      <g style="mix-blend-mode: multiply">
        <g clip-path="url(#l)">
          <path d="M366.9,82.7c-4.7-1.2-9.3-2.4-14.2-1.2s-7.2,2.7-11,3.4a38.8,38.8,0,0,1-10.2.5c-3.3-.3-6.3-1.2-9.5-1.8l-6.8-1.1c-3.8-.6-8.3-1.4-11.2-4.2-5.9-5.7,1-13.3,4.9-17.8a20.4,20.4,0,0,0,4.2-6.3,25.6,25.6,0,0,0,1.3-6.7A32.9,32.9,0,0,1,317,36.8a10.1,10.1,0,0,0-9.3,9.1,5.7,5.7,0,0,0-.1,1.3,5.2,5.2,0,0,0-2.3,3.7,5.5,5.5,0,0,0,.2,1.8,5.4,5.4,0,0,0-3.6,4.6,6.3,6.3,0,0,0,.4,2.7,3.4,3.4,0,0,0-1.6,2.6V63h0a4.9,4.9,0,0,0-5.4,4.4v.3a10.4,10.4,0,0,0-10,9.4,10.5,10.5,0,0,0,9.4,11.5,10.7,10.7,0,0,0,5-.7,7.8,7.8,0,0,0,6.4,5,8.3,8.3,0,0,0,3.5-.5,11.6,11.6,0,0,0,8.9,5.7,12.1,12.1,0,0,0,9-3,11.4,11.4,0,0,0,4.6,1.5,11.8,11.8,0,0,0,10.8-5.1,4.8,4.8,0,0,0,3.5,2.3,4.4,4.4,0,0,0,3.2-1,6.6,6.6,0,0,0,4,1.7,7.3,7.3,0,0,0,8.1-6.6,7.2,7.2,0,0,0-.4-3.3,11,11,0,0,0,5.6-1.9" fill="#cfd9d0"/>
        </g>
      </g>
      <g style="mix-blend-mode: multiply">
        <g clip-path="url(#m)">
          <path d="M358.4,91.8c-4-1.5-8.4-2.9-12.8-2.5s-8.2,3.9-12.3,2.9-5.1-2.9-7.9-2.2-3.5,1.3-5.4.9a11.1,11.1,0,0,1-4.5-2.2c-2.1-1.4-4.5-1.4-6.9-2a8.1,8.1,0,0,1-4.4-3.3,15.1,15.1,0,0,0-2.2-2.8,6.7,6.7,0,0,0-3-1c-1.5-.3-2.9-.7-3.5-2.2a4.3,4.3,0,0,1,0-4,12.6,12.6,0,0,1,3.1-3.8,11.5,11.5,0,0,0,3.7-4.8c.9-2.6,1.4-5.4,2.5-7.9S307,53,308,51s3.6-7.5,2.6-11.3a9.8,9.8,0,0,0-2.9,6.2,5.7,5.7,0,0,0-.1,1.3,5.2,5.2,0,0,0-2.3,3.7,5.5,5.5,0,0,0,.2,1.8,5.4,5.4,0,0,0-3.6,4.6,6.3,6.3,0,0,0,.4,2.7,3.4,3.4,0,0,0-1.6,2.6V63h0a4.9,4.9,0,0,0-5.4,4.4v.3a10.4,10.4,0,0,0-10,9.4,10.5,10.5,0,0,0,9.4,11.5,10.7,10.7,0,0,0,5-.7,7.8,7.8,0,0,0,6.4,5,8.3,8.3,0,0,0,3.5-.5,11.6,11.6,0,0,0,8.9,5.7,12.1,12.1,0,0,0,9-3,11.4,11.4,0,0,0,4.6,1.5,11.8,11.8,0,0,0,10.8-5.1,4.8,4.8,0,0,0,3.5,2.3,4.4,4.4,0,0,0,3.2-1,6.6,6.6,0,0,0,4,1.7,7.4,7.4,0,0,0,6.1-2.2l-1.3-.5" fill="#cfd9d0"/>
        </g>
      </g>
      <path d="M371.3,111.1a4.5,4.5,0,0,0-4-4.8,3.3,3.3,0,0,0-1.7.2,2.6,2.6,0,0,0-2.4-2.2H363a6.4,6.4,0,0,0,.2-.7,4.8,4.8,0,0,0-4.3-5.2,5.7,5.7,0,0,0-2.6.4,2.8,2.8,0,0,0-1.8-.9,3.2,3.2,0,0,0-1.4.3,4.3,4.3,0,0,0-3.5-2.7,4.2,4.2,0,0,0-4.6,3.7v.6a1.9,1.9,0,0,0-.9,1.5,1.6,1.6,0,0,0,0,.7,2.3,2.3,0,0,0-1.5,1.9,3.6,3.6,0,0,0,.2,1.1,1.5,1.5,0,0,0-.6,1.1v.2h-.1a2,2,0,0,0-2.2,1.8h0a4.3,4.3,0,0,0-4.1,3.9,4.2,4.2,0,0,0,3.9,4.7,3.4,3.4,0,0,0,2-.3,3.1,3.1,0,0,0,4.1,1.9,4.7,4.7,0,0,0,3.7,2.3,4.5,4.5,0,0,0,3.7-1.2,3.9,3.9,0,0,0,1.9.6,4.7,4.7,0,0,0,4.4-2.1,2.1,2.1,0,0,0,1.5,1,2,2,0,0,0,1.3-.4,3.3,3.3,0,0,0,1.6.7,3.2,3.2,0,0,0,3.4-2.8,3,3,0,0,0-.2-1.3,4.5,4.5,0,0,0,4.2-4" fill="#5d9539"/>
      <g opacity="0.5" style="mix-blend-mode: soft-light">
        <g clip-path="url(#n)">
          <path d="M357.8,98.9a5.9,5.9,0,0,1,3,2.2c.6,1,.7,2.3,1.3,3.4a9,9,0,0,0,3.4,3.3,7.8,7.8,0,0,0,2.1.9l1.4.4a3.6,3.6,0,0,1,1.7,2.3l.3.8.3-1.1a4.5,4.5,0,0,0-4-4.8,3.3,3.3,0,0,0-1.7.2,2.6,2.6,0,0,0-2.4-2.2H363a6.4,6.4,0,0,0,.2-.7,4.8,4.8,0,0,0-4.3-5.2,4.4,4.4,0,0,0-2,.2l.9.4" fill="#fff"/>
        </g>
      </g>
      <g style="mix-blend-mode: multiply">
        <g clip-path="url(#o)">
          <path d="M369.4,114.3a11.4,11.4,0,0,0-5.8-.5c-1.6.4-3,1.1-4.6,1.4a19.7,19.7,0,0,1-4.2.2c-1.3-.1-2.6-.5-3.9-.7l-2.8-.5a8.6,8.6,0,0,1-4.6-1.7c-2.4-2.4.4-5.5,2-7.3a8.3,8.3,0,0,0,1.7-2.6,8.8,8.8,0,0,0,.6-2.8,13.6,13.6,0,0,1,1.1-4.4,4.2,4.2,0,0,0-3.9,3.7v.6a1.9,1.9,0,0,0-.9,1.5,1.6,1.6,0,0,0,0,.7,2.3,2.3,0,0,0-1.5,1.9,3.6,3.6,0,0,0,.2,1.1,1.5,1.5,0,0,0-.6,1.1v.2h-.1a2,2,0,0,0-2.2,1.8h0a4.3,4.3,0,0,0-4.1,3.9,4.2,4.2,0,0,0,3.9,4.7,3.4,3.4,0,0,0,2-.3,3.1,3.1,0,0,0,4.1,1.9,4.7,4.7,0,0,0,3.7,2.3,4.5,4.5,0,0,0,3.7-1.2,3.9,3.9,0,0,0,1.9.6,4.7,4.7,0,0,0,4.4-2.1,2.1,2.1,0,0,0,1.5,1,2,2,0,0,0,1.3-.4,3.3,3.3,0,0,0,1.6.7,3.2,3.2,0,0,0,3.4-2.8,3,3,0,0,0-.2-1.3,4.9,4.9,0,0,0,2.3-.8" fill="#cfd9d0"/>
        </g>
      </g>
      <g style="mix-blend-mode: multiply">
        <g clip-path="url(#p)">
          <path d="M365.9,118a11.9,11.9,0,0,0-5.3-1c-1.6.2-3.3,1.6-5,1.2s-2.1-1.2-3.3-.9a5.4,5.4,0,0,1-2.2.4,6.1,6.1,0,0,1-1.8-.9,9.8,9.8,0,0,0-2.9-.9,2.7,2.7,0,0,1-1.8-1.3,5.3,5.3,0,0,0-.9-1.1,2.9,2.9,0,0,0-1.3-.5c-.6-.1-1.2-.3-1.4-.9a1.8,1.8,0,0,1,0-1.6,5.1,5.1,0,0,1,1.3-1.6,4.3,4.3,0,0,0,1.5-2c.4-1,.6-2.2,1-3.2a18.8,18.8,0,0,1,1.4-2.4c.7-1.5,1.4-3.1,1-4.7a4.5,4.5,0,0,0-1.2,2.5v.6a1.9,1.9,0,0,0-.9,1.5,1.6,1.6,0,0,0,0,.7,2.3,2.3,0,0,0-1.5,1.9,3.6,3.6,0,0,0,.2,1.1,1.7,1.7,0,0,0-.6,1.1v.2h-.1a2,2,0,0,0-2.2,1.8h0a4.3,4.3,0,0,0-4.1,3.9,4.2,4.2,0,0,0,3.9,4.7,3.4,3.4,0,0,0,2-.3,3.1,3.1,0,0,0,4.1,1.9,4.7,4.7,0,0,0,3.7,2.3,4.5,4.5,0,0,0,3.7-1.2,3.9,3.9,0,0,0,1.9.6,4.7,4.7,0,0,0,4.4-2.1,2.1,2.1,0,0,0,1.5,1,2,2,0,0,0,1.3-.4,3.3,3.3,0,0,0,1.6.7,3.2,3.2,0,0,0,2.6-1l-.6-.2" fill="#cfd9d0"/>
        </g>
      </g>
      <path d="M324.7,106.5a5.1,5.1,0,0,0-4.6-5.6,4.4,4.4,0,0,0-2,.2,3.2,3.2,0,0,0-2.8-2.6h-.2c0-.3.1-.6.1-.9a5.5,5.5,0,0,0-5-6.1,6,6,0,0,0-3,.5,4.1,4.1,0,0,0-2.1-1,2.5,2.5,0,0,0-1.7.3,4.9,4.9,0,0,0-9.5,1.2v.7a2.3,2.3,0,0,0-1.1,1.7,2.8,2.8,0,0,0,.1.9,2.5,2.5,0,0,0-1.7,2.2,2,2,0,0,0,.2,1.3,1.4,1.4,0,0,0-.8,1.2v.3h0a2.3,2.3,0,0,0-2.6,2.1h0a5.1,5.1,0,0,0-.3,10.1,5,5,0,0,0,2.4-.3,3.9,3.9,0,0,0,3.1,2.4,5.1,5.1,0,0,0,1.7-.3,5.5,5.5,0,0,0,4.3,2.8,5.2,5.2,0,0,0,4.3-1.5,5.8,5.8,0,0,0,2.2.8,5.5,5.5,0,0,0,5.2-2.5,2.5,2.5,0,0,0,1.7,1.1,2.2,2.2,0,0,0,1.6-.4,4.1,4.1,0,0,0,1.9.8,3.6,3.6,0,0,0,3.9-3.2,2.9,2.9,0,0,0-.2-1.6,5.2,5.2,0,0,0,4.9-4.7" fill="#5d9539"/>
      <g opacity="0.5" style="mix-blend-mode: soft-light">
        <g clip-path="url(#q)">
          <path d="M308.9,92.2a6.9,6.9,0,0,1,3.5,2.6c.8,1.2.8,2.7,1.6,4a10.4,10.4,0,0,0,3.9,3.9,10.9,10.9,0,0,0,2.5,1l1.6.5a3.8,3.8,0,0,1,2,2.6,4.9,4.9,0,0,1,.4,1.1,3.5,3.5,0,0,0,.3-1.4,5.1,5.1,0,0,0-4.6-5.6,4.4,4.4,0,0,0-2,.2,3.2,3.2,0,0,0-2.8-2.6h-.2c0-.3.1-.6.1-.9a5.5,5.5,0,0,0-5-6.1,5,5,0,0,0-2.4.3l1.1.4" fill="#fff"/>
        </g>
      </g>
      <g style="mix-blend-mode: multiply">
        <g clip-path="url(#r)">
          <path d="M322.5,110.3c-2.2-.6-4.5-1.2-6.8-.6s-3.5,1.3-5.4,1.6a19.9,19.9,0,0,1-4.9.3l-4.6-.9-3.2-.5c-1.8-.3-4-.7-5.4-2.1s.5-6.4,2.4-8.5a12.7,12.7,0,0,0,2-3.1,16.5,16.5,0,0,0,.6-3.2,13.3,13.3,0,0,1,1.3-5.2,5,5,0,0,0-4.6,4.4v.7a2.3,2.3,0,0,0-1.1,1.7,2.8,2.8,0,0,0,.1.9,2.5,2.5,0,0,0-1.7,2.2,2,2,0,0,0,.2,1.3,1.4,1.4,0,0,0-.8,1.2v.3h0a2.3,2.3,0,0,0-2.6,2.1h0a5.1,5.1,0,0,0-.3,10.1,5,5,0,0,0,2.4-.3,3.9,3.9,0,0,0,3.1,2.4,5.1,5.1,0,0,0,1.7-.3,5.5,5.5,0,0,0,4.3,2.8,5.2,5.2,0,0,0,4.3-1.5,5.8,5.8,0,0,0,2.2.8,5.5,5.5,0,0,0,5.2-2.5,2.5,2.5,0,0,0,1.7,1.1,2.2,2.2,0,0,0,1.6-.4,4.1,4.1,0,0,0,1.9.8,3.6,3.6,0,0,0,3.9-3.2,2.9,2.9,0,0,0-.2-1.6,6.2,6.2,0,0,0,2.7-.9" fill="#cfd9d0"/>
        </g>
      </g>
      <g style="mix-blend-mode: multiply">
        <g clip-path="url(#s)">
          <path d="M318.4,114.6a13,13,0,0,0-6.1-1.1c-2,.2-4,1.8-6,1.4s-2.4-1.5-3.8-1.1a5.9,5.9,0,0,1-2.6.4,6.2,6.2,0,0,1-2.2-1,9.1,9.1,0,0,0-3.3-1,3.7,3.7,0,0,1-2.1-1.6,7.5,7.5,0,0,0-1.1-1.3,2.1,2.1,0,0,0-1.5-.5c-.7-.2-1.4-.4-1.6-1.1a1.9,1.9,0,0,1,0-1.9,5.5,5.5,0,0,1,1.5-1.9,4.4,4.4,0,0,0,1.7-2.3c.5-1.2.7-2.6,1.3-3.8a24.9,24.9,0,0,1,1.5-2.8c.9-1.7,1.7-3.6,1.3-5.5a5.4,5.4,0,0,0-1.5,3v.7a2.3,2.3,0,0,0-1.1,1.7,2.8,2.8,0,0,0,.1.9,2.5,2.5,0,0,0-1.7,2.2,2,2,0,0,0,.2,1.3,1.4,1.4,0,0,0-.8,1.2v.3h0a2.3,2.3,0,0,0-2.6,2.1h0a5.1,5.1,0,0,0-.3,10.1,5,5,0,0,0,2.4-.3,3.9,3.9,0,0,0,3.1,2.4,5.1,5.1,0,0,0,1.7-.3,5.5,5.5,0,0,0,4.3,2.8,5.2,5.2,0,0,0,4.3-1.5,5.8,5.8,0,0,0,2.2.8,5.5,5.5,0,0,0,5.2-2.5,2.5,2.5,0,0,0,1.7,1.1,2.2,2.2,0,0,0,1.6-.4,4.1,4.1,0,0,0,1.9.8,4,4,0,0,0,3-1.1l-.7-.3" fill="#cfd9d0"/>
        </g>
      </g>
      <path d="M253.6,92.1,235.4,74.2l2-1.8s15.7,16.4,17.9,14-.6,5.8-.6,5.8" fill="#603913"/>
      <g style="mix-blend-mode: multiply">
        <g clip-path="url(#t)">
          <path d="M255.8,85.9v.2c-1.5,2.2-3.8,1.4-5.7.2a26.9,26.9,0,0,1-7-6,28.7,28.7,0,0,1-3.2-5.3l-2.5-2.6-2,1.8,18.2,17.9h1.1s2.2-6.6,1.1-6.3" fill="#bcbec0"/>
        </g>
      </g>
      <path d="M242.4,143.4a12.2,12.2,0,0,0,5.8-5.1c2.2-3.8.7-20.8,1.6-29.9,1.2-12.8,8-23.6,6.3-32.1s-7.2-15.9-7.2-15.9l3.1-1.6,10.6,18.1,11.6-23.6,2,.6s-6.5,13.7-9.3,22.9-1.8,11,.6,12.3,11.4-8.3,13.1-10,2.1,3.9,2.1,3.9S268.1,91.7,266,97.2c-3.7,9.7-2.9,36.8-1.6,41.7s6.2,7.3,6.2,7.3Z" fill="#603913"/>
      <g style="mix-blend-mode: multiply">
        <g clip-path="url(#u)">
          <path d="M267.5,89.1a3.8,3.8,0,0,1-1.9-3,3.8,3.8,0,0,0,.1,2.8c1.8,3.1,7.6-2.3,9.2-3.5s4.7-3.5,7.3-5c-.3-1.2-.8-2.1-1.6-1.3s-10.6,11.3-13.1,10" fill="#bcbec0"/>
        </g>
      </g>
      <g style="mix-blend-mode: multiply">
        <g clip-path="url(#v)">
          <path d="M263.4,76.9c2.7-8.5,7.9-15.6,12.7-23l-1.9-.6-11.3,23,.5.6" fill="#bcbec0"/>
        </g>
      </g>
      <g style="mix-blend-mode: multiply">
        <g clip-path="url(#w)">
          <path d="M266.3,142.6a11.8,11.8,0,0,1-5.6-2c-2.8-1.9-4.4-5.2-5.1-8.4-2.2-9.5-1.1-19.4.3-28.8.9-5.4,1.8-10.7,2.4-16s.9-10.2-.9-15.1-4.8-8.5-6.6-12.9l-1.9,1s5.6,8.1,7.2,15.9-5.1,19.3-6.3,32.1c-.9,9.1.6,26.1-1.6,29.9a12.2,12.2,0,0,1-5.8,5.1l28.2,2.8a14.3,14.3,0,0,1-4.3-3.6" fill="#bcbec0"/>
        </g>
      </g>
      <path d="M301.4,38.2a10.7,10.7,0,0,0-9.6-11.7,11.2,11.2,0,0,0-4.1.4,6.5,6.5,0,0,0-5.8-5.3h-.5a8,8,0,0,0,.4-1.8A11.8,11.8,0,0,0,271.4,7a12.1,12.1,0,0,0-6.3,1.2A6.9,6.9,0,0,0,260.7,6a6.5,6.5,0,0,0-3.4.6A10.2,10.2,0,0,0,248.8.1a10.1,10.1,0,0,0-11.1,9,7.1,7.1,0,0,0-.1,1.4,5.2,5.2,0,0,0-2.3,3.7,5.5,5.5,0,0,0,.2,1.8,5.3,5.3,0,0,0-3.6,4.5,5.9,5.9,0,0,0,.4,2.7,3.8,3.8,0,0,0-1.6,2.6v.5h0a4.9,4.9,0,0,0-5.4,4.4v.2a10.5,10.5,0,0,0-.6,21,10.7,10.7,0,0,0,5-.7,7.7,7.7,0,0,0,6.4,4.9,7,7,0,0,0,3.5-.5,11.7,11.7,0,0,0,8.9,5.8,12.1,12.1,0,0,0,9-3,11.4,11.4,0,0,0,4.6,1.5,11.8,11.8,0,0,0,10.8-5.1,4.8,4.8,0,0,0,3.5,2.3,4.4,4.4,0,0,0,3.2-1,8,8,0,0,0,4,1.7,7.4,7.4,0,0,0,8.1-6.6,7.2,7.2,0,0,0-.4-3.3,10.7,10.7,0,0,0,10.1-9.7" fill="#5d9539"/>
      <g opacity="0.5" style="mix-blend-mode: soft-light">
        <g clip-path="url(#x)">
          <path d="M268.7,8.6c2.8,1.2,5.6,2.5,7.2,5.2s1.7,5.8,3.3,8.4a24.4,24.4,0,0,0,8.2,8.1,22.8,22.8,0,0,0,5.1,2.1,18,18,0,0,1,3.3,1c2.3,1.1,3.5,3.2,4.3,5.5a17.2,17.2,0,0,0,.7,2.1,12.7,12.7,0,0,0,.6-2.8,10.7,10.7,0,0,0-9.6-11.7,11.2,11.2,0,0,0-4.1.4,6.5,6.5,0,0,0-5.8-5.3h-.5a8,8,0,0,0,.4-1.8A11.7,11.7,0,0,0,271.4,7a13.2,13.2,0,0,0-4.9.6l2.2,1" fill="#fff"/>
        </g>
      </g>
      <g style="mix-blend-mode: multiply">
        <g clip-path="url(#y)">
          <path d="M296.9,46c-4.7-1.3-9.3-2.4-14.2-1.2s-7.2,2.6-11,3.3a35,35,0,0,1-10.2.6c-3.3-.3-6.3-1.2-9.5-1.8l-6.8-1.1c-3.8-.7-8.3-1.4-11.2-4.2-5.9-5.8,1-13.3,5-17.8a22.1,22.1,0,0,0,4.1-6.3,25.6,25.6,0,0,0,1.3-6.7A33.5,33.5,0,0,1,247,0a10.2,10.2,0,0,0-9.3,9.1,7.1,7.1,0,0,0-.1,1.4,5.2,5.2,0,0,0-2.3,3.7,5.5,5.5,0,0,0,.2,1.8,5.3,5.3,0,0,0-3.6,4.5,5.9,5.9,0,0,0,.4,2.7,3.8,3.8,0,0,0-1.6,2.6v.5h0a4.9,4.9,0,0,0-5.4,4.4v.2a10.5,10.5,0,0,0-.6,21,10.7,10.7,0,0,0,5-.7,7.7,7.7,0,0,0,6.4,4.9,7,7,0,0,0,3.5-.5,11.7,11.7,0,0,0,8.9,5.8,12.1,12.1,0,0,0,9-3,11.4,11.4,0,0,0,4.6,1.5,11.8,11.8,0,0,0,10.8-5.1,4.8,4.8,0,0,0,3.5,2.3,4.4,4.4,0,0,0,3.2-1,8,8,0,0,0,4,1.7,7.4,7.4,0,0,0,8.1-6.6,7.2,7.2,0,0,0-.4-3.3,11,11,0,0,0,5.6-1.9" fill="#cfd9d0"/>
        </g>
      </g>
      <g style="mix-blend-mode: multiply">
        <g clip-path="url(#z)">
          <path d="M288.4,55c-4-1.4-8.4-2.9-12.8-2.4s-8.2,3.9-12.3,2.9-5.1-2.9-7.9-2.2-3.5,1.3-5.4.9a12.6,12.6,0,0,1-4.5-2.2c-2.1-1.4-4.5-1.5-6.9-2.1a7.3,7.3,0,0,1-4.4-3.3,11.8,11.8,0,0,0-2.3-2.7,6.1,6.1,0,0,0-2.9-1.1c-1.5-.2-2.9-.7-3.5-2.2a4.3,4.3,0,0,1,0-4,12.3,12.3,0,0,1,3.1-3.7c1.6-1.5,2.9-2.7,3.7-4.9s1.4-5.3,2.5-7.8,2.2-3.9,3.2-5.9,3.6-7.5,2.6-11.3a9.8,9.8,0,0,0-2.9,6.1,7.1,7.1,0,0,0-.1,1.4,5.2,5.2,0,0,0-2.3,3.7,5.5,5.5,0,0,0,.2,1.8,5.3,5.3,0,0,0-3.6,4.5,5.9,5.9,0,0,0,.4,2.7,3.8,3.8,0,0,0-1.6,2.6v.5h0a4.9,4.9,0,0,0-5.4,4.4v.2a10.5,10.5,0,0,0-.6,21,10.7,10.7,0,0,0,5-.7,7.7,7.7,0,0,0,6.4,4.9,7,7,0,0,0,3.5-.5,11.7,11.7,0,0,0,8.9,5.8,12.1,12.1,0,0,0,9-3,11.4,11.4,0,0,0,4.6,1.5,11.8,11.8,0,0,0,10.8-5.1,4.8,4.8,0,0,0,3.5,2.3,4.4,4.4,0,0,0,3.2-1,8,8,0,0,0,4,1.7,7.4,7.4,0,0,0,6.1-2.3l-1.3-.5" fill="#cfd9d0"/>
        </g>
      </g>
      <path d="M301.3,74.4a4.4,4.4,0,0,0-4-4.8,4.9,4.9,0,0,0-1.7.1,2.7,2.7,0,0,0-2.4-2.2H293c.1-.2.1-.5.2-.7a4.9,4.9,0,0,0-4.3-5.3,4.7,4.7,0,0,0-2.6.5,2.8,2.8,0,0,0-1.8-.9,3.2,3.2,0,0,0-1.4.2,4.2,4.2,0,0,0-8.1,1.1V63a1.7,1.7,0,0,0-.9,1.5c-.1.2,0,.5,0,.7a2.3,2.3,0,0,0-1.5,1.9,3.6,3.6,0,0,0,.2,1.1,1.4,1.4,0,0,0-.6,1.1v.2h-.1a2,2,0,0,0-2.2,1.8h0a4.3,4.3,0,0,0-.2,8.6,3.4,3.4,0,0,0,2-.3,3.1,3.1,0,0,0,2.7,2,2.2,2.2,0,0,0,1.4-.2,5,5,0,0,0,3.7,2.4,4.9,4.9,0,0,0,3.7-1.2,5.3,5.3,0,0,0,1.9.6,4.7,4.7,0,0,0,4.4-2.1,1.7,1.7,0,0,0,1.5.9,1.6,1.6,0,0,0,1.3-.4,2.6,2.6,0,0,0,1.6.7,3,3,0,0,0,3.4-2.7,3.4,3.4,0,0,0-.2-1.4,4.4,4.4,0,0,0,4.2-3.9" fill="#5d9539"/>
      <g opacity="0.5" style="mix-blend-mode: soft-light">
        <g clip-path="url(#aa)">
          <path d="M287.8,62.2a6.3,6.3,0,0,1,3,2.1c.6,1.1.7,2.4,1.3,3.5a9.8,9.8,0,0,0,3.4,3.3,7.8,7.8,0,0,0,2.1.9l1.4.4a3.4,3.4,0,0,1,1.7,2.2l.3.9.3-1.1a4.4,4.4,0,0,0-4-4.8,4.9,4.9,0,0,0-1.7.1,2.7,2.7,0,0,0-2.4-2.2H293c.1-.2.1-.5.2-.7a4.9,4.9,0,0,0-4.3-5.3,6.4,6.4,0,0,0-2,.3l.9.4" fill="#fff"/>
        </g>
      </g>
      <g style="mix-blend-mode: multiply">
        <g clip-path="url(#ab)">
          <path d="M299.4,77.6a11.4,11.4,0,0,0-5.8-.5c-1.6.4-3,1.1-4.6,1.4a19.7,19.7,0,0,1-4.2.2c-1.3-.1-2.6-.5-3.9-.7l-2.8-.5c-1.5-.3-3.4-.6-4.6-1.7s.4-5.5,2-7.4a7.3,7.3,0,0,0,1.7-2.6,8.8,8.8,0,0,0,.6-2.7,12.9,12.9,0,0,1,1.1-4.4,4.1,4.1,0,0,0-3.9,3.7V63a1.7,1.7,0,0,0-.9,1.5c-.1.2,0,.5,0,.7a2.3,2.3,0,0,0-1.5,1.9,3.6,3.6,0,0,0,.2,1.1,1.4,1.4,0,0,0-.6,1.1v.2h-.1a2,2,0,0,0-2.2,1.8h0a4.3,4.3,0,0,0-.2,8.6,3.4,3.4,0,0,0,2-.3,3.3,3.3,0,0,0,2.7,2.1,3.2,3.2,0,0,0,1.4-.3,4.8,4.8,0,0,0,3.7,2.4,4.9,4.9,0,0,0,3.7-1.2,5.3,5.3,0,0,0,1.9.6,4.7,4.7,0,0,0,4.4-2.1,1.7,1.7,0,0,0,1.5.9,1.6,1.6,0,0,0,1.3-.4,2.6,2.6,0,0,0,1.6.7,3,3,0,0,0,3.4-2.7,3.4,3.4,0,0,0-.2-1.4,4.8,4.8,0,0,0,2.3-.7" fill="#cfd9d0"/>
        </g>
      </g>
      <g style="mix-blend-mode: multiply">
        <g clip-path="url(#ac)">
          <path d="M295.9,81.3a11.9,11.9,0,0,0-5.3-1c-1.6.2-3.3,1.6-5,1.2s-2.1-1.2-3.3-.9a5.4,5.4,0,0,1-2.2.4,6.1,6.1,0,0,1-1.8-.9,7.5,7.5,0,0,0-2.9-.9,2.8,2.8,0,0,1-1.8-1.4l-.9-1.1a2.8,2.8,0,0,0-1.3-.4c-.6-.1-1.2-.3-1.4-.9a2,2,0,0,1,0-1.7,4.7,4.7,0,0,1,1.3-1.5,4.3,4.3,0,0,0,1.5-2c.4-1.1.6-2.2,1-3.2a20.1,20.1,0,0,1,1.4-2.5c.7-1.4,1.4-3.1,1-4.6a4.2,4.2,0,0,0-1.2,2.5V63a1.7,1.7,0,0,0-.9,1.5c-.1.2,0,.5,0,.7a2.3,2.3,0,0,0-1.5,1.9,3.6,3.6,0,0,0,.2,1.1,1.4,1.4,0,0,0-.6,1.1c-.1,0,0,.1,0,.2h-.1a2,2,0,0,0-2.2,1.8h0a4.3,4.3,0,0,0-.2,8.6,3.4,3.4,0,0,0,2-.3,3.1,3.1,0,0,0,2.7,2,2.2,2.2,0,0,0,1.4-.2,5,5,0,0,0,3.7,2.4,4.9,4.9,0,0,0,3.7-1.2,5.3,5.3,0,0,0,1.9.6,4.7,4.7,0,0,0,4.4-2.1,1.7,1.7,0,0,0,1.5.9,1.6,1.6,0,0,0,1.3-.4,2.6,2.6,0,0,0,1.6.7,2.8,2.8,0,0,0,2.5-.9l-.5-.2" fill="#cfd9d0"/>
        </g>
      </g>
      <path d="M254.7,69.8a5.2,5.2,0,0,0-4.6-5.7l-2,.2a3.2,3.2,0,0,0-2.8-2.5h-.2c0-.2.1-.5.1-.8a5.7,5.7,0,0,0-5-6.2,6,6,0,0,0-3,.6,3.6,3.6,0,0,0-2.1-1.1,4.7,4.7,0,0,0-1.7.3,4.8,4.8,0,0,0-4.1-3.1,4.9,4.9,0,0,0-5.4,4.4v.6a2.5,2.5,0,0,0-1.1,1.8,2.8,2.8,0,0,0,.1.9,2.5,2.5,0,0,0-1.7,2.2,2,2,0,0,0,.2,1.3,1.3,1.3,0,0,0-.8,1.2V64h0a2.4,2.4,0,0,0-2.6,2.1v.2a5.1,5.1,0,0,0-.3,10.1,5.1,5.1,0,0,0,2.4-.4,3.6,3.6,0,0,0,3.1,2.4,3.2,3.2,0,0,0,1.7-.2,5.5,5.5,0,0,0,4.3,2.8,6,6,0,0,0,4.3-1.5,5.7,5.7,0,0,0,2.2.7,5.6,5.6,0,0,0,5.2-2.4,2.5,2.5,0,0,0,1.7,1.1,2.2,2.2,0,0,0,1.6-.5,2.7,2.7,0,0,0,1.9.8A3.5,3.5,0,0,0,250,76a3,3,0,0,0-.2-1.6,5.1,5.1,0,0,0,4.9-4.6" fill="#5d9539"/>
      <g opacity="0.5" style="mix-blend-mode: soft-light">
        <g clip-path="url(#ad)">
          <path d="M238.9,55.5a7.3,7.3,0,0,1,3.5,2.5c.8,1.3.8,2.8,1.6,4.1a11.2,11.2,0,0,0,3.9,3.9,10.9,10.9,0,0,0,2.5,1,4.9,4.9,0,0,1,1.6.5,3.8,3.8,0,0,1,2,2.6,4.2,4.2,0,0,1,.4,1,2.8,2.8,0,0,0,.3-1.3,5.2,5.2,0,0,0-4.6-5.7l-2,.2a3.2,3.2,0,0,0-2.8-2.5h-.2c0-.2.1-.5.1-.8a5.7,5.7,0,0,0-5-6.2,8.5,8.5,0,0,0-2.3.3l1,.5" fill="#fff"/>
        </g>
      </g>
      <g style="mix-blend-mode: multiply">
        <g clip-path="url(#ae)">
          <path d="M252.5,73.5a13.1,13.1,0,0,0-6.8-.5c-1.8.4-3.5,1.2-5.4,1.6a16,16,0,0,1-4.9.2,40.4,40.4,0,0,1-4.6-.8l-3.2-.5c-1.8-.4-4-.7-5.4-2.1s.5-6.4,2.4-8.6a9.5,9.5,0,0,0,1.9-3,12.3,12.3,0,0,0,.7-3.2,15.3,15.3,0,0,1,1.3-5.2,4.9,4.9,0,0,0-4.6,4.4v.6a2.5,2.5,0,0,0-1.1,1.8,2.8,2.8,0,0,0,.1.9,2.5,2.5,0,0,0-1.7,2.2,2,2,0,0,0,.2,1.3,1.5,1.5,0,0,0-.8,1.2V64h0a2.4,2.4,0,0,0-2.6,2.1v.2a5.1,5.1,0,0,0-.3,10.1,5.1,5.1,0,0,0,2.4-.4,3.6,3.6,0,0,0,3.1,2.4,3.2,3.2,0,0,0,1.7-.2,5.5,5.5,0,0,0,4.3,2.8,6,6,0,0,0,4.3-1.5,5.7,5.7,0,0,0,2.2.7,5.6,5.6,0,0,0,5.2-2.4,2.5,2.5,0,0,0,1.7,1.1,2.2,2.2,0,0,0,1.6-.5,2.7,2.7,0,0,0,1.9.8A3.5,3.5,0,0,0,250,76a3,3,0,0,0-.2-1.6,4.4,4.4,0,0,0,2.7-.9" fill="#cfd9d0"/>
        </g>
      </g>
      <g style="mix-blend-mode: multiply">
        <g clip-path="url(#af)">
          <path d="M248.4,77.9a14.2,14.2,0,0,0-6.1-1.2c-2,.2-4,1.9-6,1.4s-2.4-1.4-3.8-1a5.9,5.9,0,0,1-2.6.4,6.5,6.5,0,0,1-2.2-1.1,11.5,11.5,0,0,0-3.3-1,3.6,3.6,0,0,1-2.1-1.5,17.1,17.1,0,0,0-1.1-1.4,3.8,3.8,0,0,0-1.5-.5c-.7-.1-1.4-.3-1.6-1a2,2,0,0,1,0-2,5.2,5.2,0,0,1,1.5-1.8,5.8,5.8,0,0,0,1.8-2.3,24,24,0,0,1,1.2-3.8c.4-1,1-1.9,1.5-2.9s1.7-3.6,1.3-5.4a5.4,5.4,0,0,0-1.5,3v.6a2.5,2.5,0,0,0-1.1,1.8,2.8,2.8,0,0,0,.1.9,2.5,2.5,0,0,0-1.7,2.2,2,2,0,0,0,.2,1.3,1.5,1.5,0,0,0-.8,1.2V64h0a2.4,2.4,0,0,0-2.6,2.1v.2a5.1,5.1,0,0,0-.3,10.1,5.1,5.1,0,0,0,2.4-.4,3.6,3.6,0,0,0,3.1,2.4,3.2,3.2,0,0,0,1.7-.2,5.5,5.5,0,0,0,4.3,2.8,6,6,0,0,0,4.3-1.5,5.7,5.7,0,0,0,2.2.7,5.6,5.6,0,0,0,5.2-2.4,2.5,2.5,0,0,0,1.7,1.1,2.2,2.2,0,0,0,1.6-.5,2.7,2.7,0,0,0,1.9.8,3.6,3.6,0,0,0,3-1.1l-.7-.2" fill="#cfd9d0"/>
        </g>
      </g>
      <path d="M173.8,138l-18.3-17.9,2-1.8s15.7,16.4,17.9,14-.6,5.8-.6,5.8" fill="#603913"/>
      <g style="mix-blend-mode: multiply">
        <g clip-path="url(#ag)">
          <path d="M176,131.8v.2c-1.4,2.2-3.8,1.4-5.7.2a26.9,26.9,0,0,1-7-6,27.5,27.5,0,0,1-3.1-5.2l-2.6-2.7-2,1.8L173.8,138h1s2.3-6.6,1.2-6.3" fill="#bcbec0"/>
        </g>
      </g>
      <path d="M162.6,189.3a12.2,12.2,0,0,0,5.8-5.1c2.2-3.7.6-20.8,1.5-29.8,1.3-12.8,8-23.6,6.3-32.2s-7.1-15.8-7.1-15.8l3-1.7,10.6,18.2,11.6-23.6,2,.5s-6.5,13.8-9.2,23-1.8,10.9.6,12.2,11.4-8.3,13-10,2.1,3.9,2.1,3.9-14.6,8.7-16.7,14.3c-3.7,9.7-2.9,36.7-1.6,41.6s6.2,7.3,6.2,7.3Z" fill="#603913"/>
      <g style="mix-blend-mode: multiply">
        <g clip-path="url(#ah)">
          <path d="M187.7,135a3.9,3.9,0,0,1-2-2.9,4.1,4.1,0,0,0,.1,2.7c1.8,3.2,7.6-2.3,9.3-3.5s4.7-3.4,7.3-5c-.4-1.1-.9-2.1-1.7-1.3s-10.6,11.4-13,10" fill="#bcbec0"/>
        </g>
      </g>
      <g style="mix-blend-mode: multiply">
        <g clip-path="url(#ai)">
          <path d="M183.5,122.8c2.7-8.4,8-15.6,12.7-23l-1.9-.5-11.3,23,.5.5" fill="#bcbec0"/>
        </g>
      </g>
      <g style="mix-blend-mode: multiply">
        <g clip-path="url(#aj)">
          <path d="M186.4,188.5a10.8,10.8,0,0,1-5.6-2c-2.8-1.9-4.3-5.2-5.1-8.4-2.2-9.4-1.1-19.4.4-28.8.8-5.3,1.7-10.6,2.3-16s1-10.2-.8-15-4.8-8.5-6.7-13l-1.8,1.1s5.6,8,7.1,15.8-5,19.4-6.3,32.2c-.9,9,.7,26.1-1.5,29.8a12.2,12.2,0,0,1-5.8,5.1l28.1,2.8a14.3,14.3,0,0,1-4.3-3.6" fill="#bcbec0"/>
        </g>
      </g>
      <path d="M221.6,84.2A10.6,10.6,0,0,0,212,72.5a9.7,9.7,0,0,0-4.2.4,6.6,6.6,0,0,0-5.7-5.4h-.5l.3-1.8A11.6,11.6,0,0,0,191.5,53a12.2,12.2,0,0,0-6.3,1.1,6.9,6.9,0,0,0-4.3-2.2,6.7,6.7,0,0,0-3.5.6,10.2,10.2,0,0,0-19.6,2.6v1.3a4.7,4.7,0,0,0-2.3,3.7,5.5,5.5,0,0,0,.1,1.8,5.4,5.4,0,0,0-3.6,4.6,5.2,5.2,0,0,0,.5,2.7,3.2,3.2,0,0,0-1.6,2.6c-.1.1,0,.3,0,.4h-.1a4.8,4.8,0,0,0-5.3,4.4.4.4,0,0,1-.1.3,10.5,10.5,0,1,0,4.4,20.2,7.8,7.8,0,0,0,6.4,5,8.3,8.3,0,0,0,3.5-.5,11.6,11.6,0,0,0,8.9,5.7,12.1,12.1,0,0,0,9-3,11.5,11.5,0,0,0,15.4-3.6,4.5,4.5,0,0,0,6.8,1.3,6.3,6.3,0,0,0,4,1.7,7.5,7.5,0,0,0,8.1-6.6,7.2,7.2,0,0,0-.5-3.3,10.8,10.8,0,0,0,10.2-9.6" fill="#5d9539"/>
      <g opacity="0.5" style="mix-blend-mode: soft-light">
        <g clip-path="url(#ak)">
          <path d="M188.8,54.5c2.8,1.3,5.6,2.5,7.3,5.3s1.6,5.7,3.2,8.3a23.5,23.5,0,0,0,8.2,8.1,18.9,18.9,0,0,0,5.1,2.1,22.4,22.4,0,0,1,3.4,1.1c2.2,1,3.4,3.1,4.2,5.4l.7,2.1a11.9,11.9,0,0,0,.7-2.7A10.6,10.6,0,0,0,212,72.5a9.7,9.7,0,0,0-4.2.4,6.6,6.6,0,0,0-5.7-5.4h-.5l.3-1.8A11.6,11.6,0,0,0,191.5,53a11.4,11.4,0,0,0-4.9.5l2.2,1" fill="#fff"/>
        </g>
      </g>
      <g style="mix-blend-mode: multiply">
        <g clip-path="url(#al)">
          <path d="M217,91.9c-4.6-1.2-9.2-2.4-14.1-1.2s-7.3,2.7-11.1,3.4a38.8,38.8,0,0,1-10.2.5c-3.3-.3-6.3-1.2-9.5-1.8l-6.7-1.1c-3.8-.6-8.4-1.4-11.2-4.2-6-5.7,1-13.3,4.9-17.8a22.1,22.1,0,0,0,4.1-6.3,30.7,30.7,0,0,0,1.4-6.7A28.5,28.5,0,0,1,167.2,46a10.1,10.1,0,0,0-9.4,9.1v1.3a4.7,4.7,0,0,0-2.3,3.7,5.5,5.5,0,0,0,.1,1.8,5.4,5.4,0,0,0-3.6,4.6,5.2,5.2,0,0,0,.5,2.7,3.2,3.2,0,0,0-1.6,2.6c-.1.1,0,.3,0,.4h-.1a4.8,4.8,0,0,0-5.3,4.4.4.4,0,0,1-.1.3,10.5,10.5,0,1,0,4.4,20.2,7.8,7.8,0,0,0,6.4,5,8.3,8.3,0,0,0,3.5-.5,11.6,11.6,0,0,0,8.9,5.7,12.1,12.1,0,0,0,9-3,11.5,11.5,0,0,0,15.4-3.6,4.5,4.5,0,0,0,6.8,1.3,6.3,6.3,0,0,0,4,1.7,7.5,7.5,0,0,0,8.1-6.6,7.2,7.2,0,0,0-.5-3.3,10.7,10.7,0,0,0,5.6-1.9" fill="#cfd9d0"/>
        </g>
      </g>
      <g style="mix-blend-mode: multiply">
        <g clip-path="url(#am)">
          <path d="M208.6,101c-4.1-1.5-8.5-2.9-12.8-2.5s-8.3,3.9-12.4,2.9c-2.6-.6-5-2.9-7.9-2.2s-3.5,1.3-5.3.9a11.1,11.1,0,0,1-4.5-2.2c-2.2-1.4-4.6-1.4-7-2a8.1,8.1,0,0,1-4.4-3.3,11.8,11.8,0,0,0-2.2-2.8,6.7,6.7,0,0,0-3-1c-1.5-.3-2.9-.7-3.5-2.2a4.7,4.7,0,0,1,0-4,12.6,12.6,0,0,1,3.1-3.8,11.5,11.5,0,0,0,3.7-4.8c1-2.6,1.4-5.4,2.5-7.9s2.2-3.9,3.2-5.9,3.6-7.5,2.6-11.3a10.3,10.3,0,0,0-2.9,6.2v1.3a4.7,4.7,0,0,0-2.3,3.7,5.5,5.5,0,0,0,.1,1.8,5.4,5.4,0,0,0-3.6,4.6,5.2,5.2,0,0,0,.5,2.7,3.2,3.2,0,0,0-1.6,2.6c-.1.1,0,.3,0,.4h-.1a4.8,4.8,0,0,0-5.3,4.4.4.4,0,0,1-.1.3,10.5,10.5,0,1,0,4.4,20.2,7.8,7.8,0,0,0,6.4,5,8.3,8.3,0,0,0,3.5-.5,11.6,11.6,0,0,0,8.9,5.7,12.1,12.1,0,0,0,9-3,11.5,11.5,0,0,0,15.4-3.6,4.5,4.5,0,0,0,6.8,1.3,6.3,6.3,0,0,0,4,1.7,7.6,7.6,0,0,0,6.1-2.2l-1.3-.5" fill="#cfd9d0"/>
        </g>
      </g>
      <path d="M221.4,120.3a4.3,4.3,0,0,0-3.9-4.8,3.2,3.2,0,0,0-1.7.2,2.8,2.8,0,0,0-2.4-2.2h-.2c0-.2.1-.4.1-.7a4.7,4.7,0,0,0-4.3-5.2,5.7,5.7,0,0,0-2.6.4,2.6,2.6,0,0,0-1.7-.9,3.7,3.7,0,0,0-1.5.3,4,4,0,0,0-3.5-2.7,4.1,4.1,0,0,0-4.5,3.7,1.3,1.3,0,0,0-.1.6,2.1,2.1,0,0,0-.9,1.5,1.5,1.5,0,0,0,.1.7,2.3,2.3,0,0,0-1.5,1.9,1.4,1.4,0,0,0,.2,1.1,1.4,1.4,0,0,0-.7,1.1v.2h0a2,2,0,0,0-2.2,1.8h0a4.3,4.3,0,0,0-.3,8.6,3.9,3.9,0,0,0,2.1-.3,3,3,0,0,0,4,1.9,4.7,4.7,0,0,0,3.7,2.3,4.5,4.5,0,0,0,3.7-1.2,4.2,4.2,0,0,0,1.9.6,4.9,4.9,0,0,0,4.5-2.1,1.9,1.9,0,0,0,1.4,1,1.8,1.8,0,0,0,1.3-.4,3.3,3.3,0,0,0,1.7.7,3.1,3.1,0,0,0,3.3-2.8,2,2,0,0,0-.2-1.3,4.4,4.4,0,0,0,4.2-4" fill="#5d9539"/>
      <g opacity="0.5" style="mix-blend-mode: soft-light">
        <g clip-path="url(#an)">
          <path d="M207.9,108.1a5.5,5.5,0,0,1,3,2.2c.7,1,.7,2.3,1.4,3.4a9.5,9.5,0,0,0,3.3,3.3l2.1.9,1.4.4a3.6,3.6,0,0,1,1.7,2.3l.3.8a2,2,0,0,0,.3-1.1,4.3,4.3,0,0,0-3.9-4.8,3.2,3.2,0,0,0-1.7.2,2.8,2.8,0,0,0-2.4-2.2h-.2c0-.2.1-.4.1-.7a4.7,4.7,0,0,0-4.3-5.2,4.4,4.4,0,0,0-2,.2l.9.4" fill="#fff"/>
        </g>
      </g>
      <g style="mix-blend-mode: multiply">
        <g clip-path="url(#ao)">
          <path d="M219.5,123.5a11.4,11.4,0,0,0-5.8-.5c-1.5.4-3,1.1-4.6,1.4a19.4,19.4,0,0,1-4.2.2c-1.3-.1-2.5-.5-3.9-.7l-2.7-.5a8.7,8.7,0,0,1-4.7-1.7c-2.4-2.4.5-5.5,2.1-7.3a10.6,10.6,0,0,0,1.7-2.6,12.6,12.6,0,0,0,.5-2.8,13.6,13.6,0,0,1,1.1-4.4,4.1,4.1,0,0,0-3.8,3.7,1.3,1.3,0,0,0-.1.6,2.1,2.1,0,0,0-.9,1.5,1.5,1.5,0,0,0,.1.7,2.3,2.3,0,0,0-1.5,1.9,1.4,1.4,0,0,0,.2,1.1,1.4,1.4,0,0,0-.7,1.1v.2h0a2,2,0,0,0-2.2,1.8h0a4.3,4.3,0,0,0-.3,8.6,3.9,3.9,0,0,0,2.1-.3,3,3,0,0,0,4,1.9,4.7,4.7,0,0,0,3.7,2.3,4.5,4.5,0,0,0,3.7-1.2,4.2,4.2,0,0,0,1.9.6,4.9,4.9,0,0,0,4.5-2.1,1.9,1.9,0,0,0,1.4,1,1.8,1.8,0,0,0,1.3-.4,3.3,3.3,0,0,0,1.7.7,3.1,3.1,0,0,0,3.3-2.8,2,2,0,0,0-.2-1.3,4.2,4.2,0,0,0,2.3-.8" fill="#cfd9d0"/>
        </g>
      </g>
      <g style="mix-blend-mode: multiply">
        <g clip-path="url(#ap)">
          <path d="M216.1,127.2a12.2,12.2,0,0,0-5.3-1c-1.7.2-3.4,1.6-5.1,1.2s-2.1-1.2-3.2-.9a6.2,6.2,0,0,1-2.3.4,6.1,6.1,0,0,1-1.8-.9,9.8,9.8,0,0,0-2.9-.9,2.9,2.9,0,0,1-1.8-1.3c-.3-.4-.5-.9-.9-1.1a3.1,3.1,0,0,0-1.2-.5,1.9,1.9,0,0,1-1.5-.9,2.2,2.2,0,0,1,0-1.6,5.1,5.1,0,0,1,1.3-1.6,4.3,4.3,0,0,0,1.5-2c.4-1,.6-2.2,1.1-3.2a18.3,18.3,0,0,1,1.3-2.4c.7-1.5,1.5-3.1,1.1-4.7a3.9,3.9,0,0,0-1.2,2.5,1.3,1.3,0,0,0-.1.6,2.1,2.1,0,0,0-.9,1.5,1.5,1.5,0,0,0,.1.7,2.3,2.3,0,0,0-1.5,1.9,1.4,1.4,0,0,0,.2,1.1,1.4,1.4,0,0,0-.7,1.1v.2h0a2,2,0,0,0-2.2,1.8h0a4.3,4.3,0,0,0-.3,8.6,3.9,3.9,0,0,0,2.1-.3,3,3,0,0,0,4,1.9,4.7,4.7,0,0,0,3.7,2.3,4.5,4.5,0,0,0,3.7-1.2,4.2,4.2,0,0,0,1.9.6,4.9,4.9,0,0,0,4.5-2.1,1.9,1.9,0,0,0,1.4,1,1.8,1.8,0,0,0,1.3-.4,3.3,3.3,0,0,0,1.7.7,2.9,2.9,0,0,0,2.5-1l-.5-.2" fill="#cfd9d0"/>
        </g>
      </g>
      <path d="M174.8,115.7a5.1,5.1,0,0,0-4.6-5.6,4.4,4.4,0,0,0-2,.2,3,3,0,0,0-2.8-2.6h-.2c.1-.3.1-.6.2-.9a5.6,5.6,0,0,0-5.1-6.1,6.1,6.1,0,0,0-3,.5,3.5,3.5,0,0,0-2.1-1,2.5,2.5,0,0,0-1.7.3,4.9,4.9,0,0,0-9.4,1.2v.7a2,2,0,0,0-1.1,1.7,2.7,2.7,0,0,0,0,.9,2.5,2.5,0,0,0-1.7,2.2,2,2,0,0,0,.2,1.3,2,2,0,0,0-.8,1.2v.3h0a2.4,2.4,0,0,0-2.6,2.1h0a5.1,5.1,0,0,0-.3,10.1,4.7,4.7,0,0,0,2.4-.3,4.1,4.1,0,0,0,3.1,2.4,4.7,4.7,0,0,0,1.7-.3,5.7,5.7,0,0,0,4.3,2.8,5.2,5.2,0,0,0,4.3-1.5,5.7,5.7,0,0,0,2.3.8,5.6,5.6,0,0,0,5.2-2.5,2.1,2.1,0,0,0,1.7,1.1,2,2,0,0,0,1.5-.4,4.4,4.4,0,0,0,2,.8,3.6,3.6,0,0,0,3.9-3.2,4.1,4.1,0,0,0-.3-1.6,5.1,5.1,0,0,0,4.9-4.7" fill="#5d9539"/>
      <g opacity="0.5" style="mix-blend-mode: soft-light">
        <g clip-path="url(#aq)">
          <path d="M159,101.4c1.4.6,2.8,1.2,3.5,2.6s.8,2.7,1.6,4a11.5,11.5,0,0,0,4,3.9,12.2,12.2,0,0,0,2.4,1l1.6.5a4.2,4.2,0,0,1,2.1,2.6l.3,1.1a3.5,3.5,0,0,0,.3-1.4,5.1,5.1,0,0,0-4.6-5.6,4.4,4.4,0,0,0-2,.2,3,3,0,0,0-2.8-2.6h-.2c.1-.3.1-.6.2-.9a5.6,5.6,0,0,0-5.1-6.1,4.5,4.5,0,0,0-2.3.3l1,.4" fill="#fff"/>
        </g>
      </g>
      <g style="mix-blend-mode: multiply">
        <g clip-path="url(#ar)">
          <path d="M172.6,119.5c-2.2-.6-4.4-1.2-6.8-.6s-3.5,1.3-5.3,1.6a20.2,20.2,0,0,1-4.9.3c-1.6-.2-3.1-.6-4.6-.9l-3.3-.5c-1.8-.3-4-.7-5.4-2.1s.5-6.4,2.4-8.5a10.3,10.3,0,0,0,2-3.1,11.3,11.3,0,0,0,.6-3.2,15.3,15.3,0,0,1,1.3-5.2,4.9,4.9,0,0,0-4.5,4.4v.7a2,2,0,0,0-1.1,1.7,2.7,2.7,0,0,0,0,.9,2.5,2.5,0,0,0-1.7,2.2,2,2,0,0,0,.2,1.3,2,2,0,0,0-.8,1.2v.3h0a2.4,2.4,0,0,0-2.6,2.1h0a5.1,5.1,0,0,0-.3,10.1,4.7,4.7,0,0,0,2.4-.3,4.1,4.1,0,0,0,3.1,2.4,4.7,4.7,0,0,0,1.7-.3,5.7,5.7,0,0,0,4.3,2.8,5.2,5.2,0,0,0,4.3-1.5,5.7,5.7,0,0,0,2.3.8,5.6,5.6,0,0,0,5.2-2.5,2.1,2.1,0,0,0,1.7,1.1,2,2,0,0,0,1.5-.4,4.4,4.4,0,0,0,2,.8,3.6,3.6,0,0,0,3.9-3.2,4.1,4.1,0,0,0-.3-1.6,5.8,5.8,0,0,0,2.7-.9" fill="#cfd9d0"/>
        </g>
      </g>
      <g style="mix-blend-mode: multiply">
        <g clip-path="url(#as)">
          <path d="M168.6,123.8a13.4,13.4,0,0,0-6.2-1.1c-1.9.2-4,1.8-6,1.4s-2.4-1.5-3.8-1.1a5.7,5.7,0,0,1-2.6.4,5.8,5.8,0,0,1-2.1-1,10.2,10.2,0,0,0-3.4-1,3.7,3.7,0,0,1-2.1-1.6,3.5,3.5,0,0,0-1.1-1.3,1.9,1.9,0,0,0-1.4-.5c-.7-.2-1.4-.4-1.7-1.1a2.1,2.1,0,0,1,0-1.9,5.5,5.5,0,0,1,1.5-1.9,5.2,5.2,0,0,0,1.8-2.3c.4-1.2.7-2.6,1.2-3.8a24.9,24.9,0,0,1,1.5-2.8c.9-1.7,1.8-3.6,1.3-5.5a4.7,4.7,0,0,0-1.4,3v.7a2,2,0,0,0-1.1,1.7,2.7,2.7,0,0,0,0,.9,2.5,2.5,0,0,0-1.7,2.2,2,2,0,0,0,.2,1.3,2,2,0,0,0-.8,1.2v.3h0a2.4,2.4,0,0,0-2.6,2.1h0a5.1,5.1,0,0,0-.3,10.1,4.7,4.7,0,0,0,2.4-.3,4.1,4.1,0,0,0,3.1,2.4,4.7,4.7,0,0,0,1.7-.3,5.7,5.7,0,0,0,4.3,2.8,5.2,5.2,0,0,0,4.3-1.5,5.7,5.7,0,0,0,2.3.8,5.6,5.6,0,0,0,5.2-2.5,2.1,2.1,0,0,0,1.7,1.1,2,2,0,0,0,1.5-.4,4.4,4.4,0,0,0,2,.8,3.8,3.8,0,0,0,2.9-1.1l-.6-.3" fill="#cfd9d0"/>
        </g>
      </g>
      <g style="mix-blend-mode: multiply">
        <g clip-path="url(#at)">
          <path d="M331.2,186.1c0,3.5-33.8,6.4-75.5,6.4s-75.6-2.9-75.6-6.4,33.8-6.3,75.6-6.3,75.5,2.8,75.5,6.3" fill="#a9abae"/>
        </g>
      </g>
      <polygon points="232.3 70.8 217.7 70.8 217.7 95.6 232.3 86.4 232.3 70.8" fill="#cb4c21"/>
      <polygon points="225.5 70.8 225.5 90.7 232.3 86.4 232.3 70.8 225.5 70.8" fill="#b7441c"/>
      <polygon points="309.5 185.4 202.5 185.4 202.5 109.6 256 73.3 309.5 109.6 309.5 185.4" fill="#d1d3d4"/>
      <polygon points="308.1 185.4 203.9 185.4 203.9 114.9 256 81.1 308.1 114.9 308.1 185.4" fill="#e6e7e8"/>
      <polygon points="256 65.1 190.3 109.7 190.3 117.9 256 73.3 321.8 117.9 321.8 109.7 256 65.1" fill="#f15a29"/>
      <polygon points="256 69.2 190.3 113.8 190.3 117.9 256 73.3 321.8 117.9 321.8 113.8 256 69.2" fill="#b7441c"/>
      <rect x="239.6" y="128.3" width="32.8" height="57.09" fill="#bcbec0"/>
      <rect x="241.2" y="130.3" width="29.6" height="55.08" fill="#2a1402"/>
      <rect x="242.3" y="131.7" width="27.5" height="53.74" fill="#603913"/>
      <rect x="245.5" y="138" width="21" height="41.15" fill="none" stroke="#512e08" stroke-miterlimit="10" stroke-width="1.57"/>
      <rect x="265.4" y="158.8" width="2.1" height="5.63" fill="#f47521"/>
      <path d="M268.9,158.8a2.4,2.4,0,1,1-2.4-2.4,2.5,2.5,0,0,1,2.4,2.4" fill="#f7941d"/>
      <g style="mix-blend-mode: soft-light">
        <g clip-path="url(#au)">
          <path d="M264.6,159.3a2.3,2.3,0,0,1,2.4-2.4c1.3,0-2.4,3.7-2.4,2.4" fill="#fff"/>
        </g>
      </g>
      <rect x="211" y="133" width="22.2" height="38.55" fill="#bcbec0"/>
      <rect x="212.4" y="135" width="19.3" height="34.59" fill="#603913"/>
      <rect x="214.2" y="138.2" width="15.7" height="28.03" fill="#4a2902"/>
      <rect x="215.3" y="139.3" width="13.5" height="25.93" fill="#56b9d6"/>
      <g style="mix-blend-mode: soft-light">
        <g clip-path="url(#av)">
          <polygon points="228.8 139.3 215.3 139.3 215.3 165.2 228.8 139.3" fill="#fff"/>
        </g>
      </g>
      <rect x="214.6" y="148.8" width="14.8" height="3.15" fill="#4a2902"/>
      <rect x="213.2" y="149.9" width="17.6" height="3.15" fill="#603913"/>
      <rect x="280.8" y="133" width="22.2" height="38.55" fill="#bcbec0"/>
      <rect x="282.3" y="135" width="19.3" height="34.59" fill="#603913"/>
      <rect x="284.1" y="138.2" width="15.7" height="28.03" fill="#4a2902"/>
      <rect x="285.2" y="139.3" width="13.5" height="25.93" fill="#56b9d6"/>
      <g style="mix-blend-mode: soft-light">
        <g clip-path="url(#aw)">
          <polygon points="298.7 139.3 285.2 139.3 285.2 165.2 298.7 139.3" fill="#fff"/>
        </g>
      </g>
      <rect x="284.5" y="148.8" width="14.8" height="3.15" fill="#4a2902"/>
      <rect x="283" y="149.9" width="17.6" height="3.15" fill="#603913"/>
      <path d="M256.7,116.3a4.2,4.2,0,0,1,3.4,4.7,4.1,4.1,0,1,1-8.1-1.2,4.2,4.2,0,0,1,4.7-3.5" fill="#f7941d"/>
      <g style="mix-blend-mode: soft-light">
        <g clip-path="url(#ax)">
          <path d="M256.3,123.8a4.2,4.2,0,0,1-3.5-4.7c.3-2.2,5.7,5,3.5,4.7" fill="#fff"/>
        </g>
      </g>
      <path d="M262.5,121.1a6.5,6.5,0,0,0-6.5-5.8,6.4,6.4,0,0,0-6.4,5.8Z" fill="#939598"/>
      <path d="M257.8,116l.6-.3a6.1,6.1,0,0,0-2.4-.4,6.4,6.4,0,0,0-6.4,5.8h3.3c-1-2.9,1.2-5.1,4.9-5.1" fill="#808285"/>
      <path d="M219.2,26.4c-.6-4.6-3.7-7-8-7s-6.6,4.7-6.6,4.7-2.2-5.6-6.7-6.1-7.2,5-7.2,5-2.5-3.4-6.2-.5-2.8,10,2.5,10h26.2c3.5,0,6.4-2.5,6-6.1" fill="#fff"/>
      <path d="M84.9,38.8c-1.2-10.6-8.5-16.3-18.5-16.3s-15,11-15,11-5.1-13.1-15.6-14C23.4,18.3,19.4,30.8,19.4,30.8s-5.9-7.6-14.5-.9-6.4,22.9,6,22.9H71.2c8,0,14.7-5.8,13.7-14" fill="#fff"/>
      <g style="mix-blend-mode: multiply">
        <g clip-path="url(#ay)">
          <path d="M165.4,190.9c0,1.2-23,2.1-51.3,2.1s-51.3-.9-51.3-2.1,23-2.2,51.3-2.2,51.3,1,51.3,2.2" fill="#b3b3b3"/>
        </g>
      </g>
      <rect x="85.2" y="168.1" width="57.7" height="8.72" fill="#06090a"/>
      <rect x="84.4" y="176.8" width="9" height="14.12" rx="2" fill="#312d2c"/>
      <rect x="86.4" y="178.6" width="0.3" height="12.27" fill="#010101"/>
      <rect x="87.3" y="178.6" width="0.3" height="12.27" fill="#010101"/>
      <rect x="91.1" y="178.6" width="0.3" height="12.27" fill="#010101"/>
      <rect x="90.2" y="178.6" width="0.3" height="12.27" fill="#010101"/>
      <rect x="134.7" y="176.8" width="9" height="14.12" rx="2" fill="#312d2c"/>
      <rect x="141.4" y="178.6" width="0.3" height="12.27" fill="#010101"/>
      <rect x="140.5" y="178.6" width="0.3" height="12.27" fill="#010101"/>
      <rect x="136.8" y="178.6" width="0.3" height="12.27" fill="#010101"/>
      <rect x="137.7" y="178.6" width="0.3" height="12.27" fill="#010101"/>
      <rect x="83.6" y="95.9" width="60.9" height="64.96" fill="#26130b"/>
      <rect x="83.6" y="95.9" width="1.6" height="64.96" fill="#eaba1f"/>
      <rect x="142.9" y="95.9" width="1.6" height="64.96" fill="#eaba1f"/>
      <rect x="83.6" y="160.9" width="60.9" height="8.82" fill="#4f5a59"/>
      <rect x="85.2" y="177.8" width="57.7" height="8.82" fill="#6f6664"/>
      <rect x="86.7" y="172.8" width="12.6" height="4.01" fill="#bf2031"/>
      <rect x="107" y="171.3" width="14.3" height="3.95" fill="#fff8da"/>
      <rect x="84" y="176.8" width="60.1" height="3.13" fill="#60534f"/>
      <rect x="83.6" y="159.2" width="60.9" height="1.7" fill="#eaba1f"/>
      <rect x="83.6" y="95.9" width="60.9" height="1.7" fill="#eaba1f"/>
      <rect x="101.7" y="95.9" width="24.7" height="1.7" fill="#7d8991"/>
      <rect x="83.6" y="94.1" width="60.9" height="1.87" fill="#4f5a59"/>
      <rect x="83.6" y="168.1" width="5.1" height="2.4" fill="#302724"/>
      <rect x="139.4" y="168.1" width="5.1" height="2.4" fill="#302724"/>
      <rect x="95.8" y="172.8" width="3.6" height="4.01" fill="#f9ecee"/>
      <rect x="128.9" y="172.8" width="12.6" height="4.01" fill="#bf2031"/>
      <rect x="128.9" y="172.8" width="3.6" height="4.01" fill="#f9ecee"/>
      <rect x="83.6" y="125" width="3.4" height="5.34" fill="#7d8991"/>
      <rect x="83.6" y="100.3" width="3.4" height="5.34" fill="#7d8991"/>
      <rect x="83.6" y="149.8" width="3.4" height="5.34" fill="#7d8991"/>
      <rect x="141.1" y="125" width="3.4" height="5.34" fill="#7d8991"/>
      <rect x="141.1" y="100.3" width="3.4" height="5.34" fill="#7d8991"/>
      <rect x="141.1" y="149.8" width="3.4" height="5.34" fill="#7d8991"/>
      <polygon points="85.2 159.2 67.3 162.5 67.3 91.2 85.2 97.6 85.2 159.2" fill="#265965"/>
      <rect x="66.1" y="91.2" width="1.2" height="71.28" fill="#84b7c2"/>
      <polygon points="142.9 159.2 160.8 162.5 160.8 91.2 142.9 97.6 142.9 159.2" fill="#265965"/>
      <rect x="160.8" y="91.2" width="1.2" height="71.28" fill="#84b7c2"/>
      <g style="mix-blend-mode: multiply">
        <g clip-path="url(#az)">
          <path d="M136.9,110.1H123.1c-1.6,0-2.8.9-2.8,2.1v35.5h0v2.9h19.5v-2.9h0V112.2c0-1.2-1.3-2.1-2.9-2.1" fill="#dbdada"/>
        </g>
      </g>
      <rect x="119.9" y="147.7" width="19.5" height="2.91" fill="#a3b7b1"/>
      <path d="M139.4,126V112.2c0-1.2-1.3-2.1-2.9-2.1H122.7c-1.6,0-2.8.9-2.8,2.1V126Z" fill="#f0f7f4"/>
      <path d="M139.4,126.2v21.1a3.1,3.1,0,0,1-2.9,3.3H122.7a2,2,0,0,1-1.5-.5,3.4,3.4,0,0,1-1.3-2.8V126.2Z" fill="#f0f7f4"/>
      <path d="M122,149.7a.4.4,0,0,1-.4.3.3.3,0,0,1-.3-.3V111.6a.3.3,0,0,1,.3-.3c.2,0,.4.1.4.3Z" fill="#fff"/>
      <rect x="119.9" y="126" width="19.5" height="0.2" fill="#91a69e"/>
      <path d="M127.8,124.7c0,.2-.3.4-.5.4h-5.6a.4.4,0,0,1-.4-.4.5.5,0,0,1,.4-.5h5.6a.5.5,0,0,1,.5.5" fill="#b7d1d0"/>
      <path d="M122.2,124.9l-.2.2c-.2,0-.3-.1-.3-.2v-.5c0-.1.1-.2.3-.2a.2.2,0,0,1,.2.2Z" fill="#fff"/>
      <path d="M127.8,127.5c0,.2-.3.4-.5.4h-5.6a.4.4,0,0,1-.4-.4.5.5,0,0,1,.4-.5h5.6a.5.5,0,0,1,.5.5" fill="#b7d1d0"/>
      <path d="M122.2,127.7l-.2.2c-.2,0-.3-.1-.3-.2v-.5c0-.1.1-.2.3-.2a.2.2,0,0,1,.2.2Z" fill="#fff"/>
      <g style="mix-blend-mode: multiply">
        <g clip-path="url(#ba)">
          <path d="M139.4,142v5.3a3.1,3.1,0,0,1-2.9,3.3h-5.3l-10-.5a3.4,3.4,0,0,1-1.3-2.8v-8.5h9.7V142Z" fill="#c7c6c5"/>
        </g>
      </g>
      <rect x="104.1" y="127.3" width="15.6" height="13.72" fill="#ecc579"/>
      <polygon points="114.1 137.7 113.9 138 114 138 114 139 114.2 139 114.2 138 114.3 138 114.1 137.7" fill="#676767"/>
      <polygon points="114.8 137.7 114.6 138 114.6 138 114.6 139 114.9 139 114.9 138 115 138 114.8 137.7" fill="#676767"/>
      <rect x="113.7" y="139.2" width="1.5" height="0.15" fill="#676767"/>
      <path d="M116.1,139.3c-.1,0-.2-.1-.2-.3h.1c0,.1,0,.2.1.2s.2,0,.2-.3v-1.2h.1v1.2c0,.3,0,.4-.3.4" fill="#676767"/>
      <path d="M117.1,138.3h0a.2.2,0,0,0-.2-.2c-.1,0-.1.1-.2.2H116l-.2-.2-.2.2h0a.7.7,0,0,1,.7-.5c.5,0,.8.3.8.5" fill="#676767"/>
      <path d="M118,138.1l-.2.3a1.9,1.9,0,0,1-.2-.7h.4l-.3.5Z" fill="#676767"/>
      <path d="M118.8,137.7c0,.3-.1,1-.6,1l-.4-.2.5-.6h-.4l.3-.3h.6" fill="#676767"/>
      <rect x="118.1" y="138.5" width="0.1" height="0.71" fill="#676767"/>
      <rect x="118" y="139.2" width="0.5" height="0.15" fill="#676767"/>
      <g style="mix-blend-mode: multiply">
        <g clip-path="url(#bb)">
          <rect x="110.9" y="127.3" width="2" height="13.72" fill="#f6e3a7"/>
        </g>
      </g>
      <rect x="102.4" y="127.3" width="1.7" height="13.71" fill="#d6a55d"/>
      <g opacity="0.6" style="mix-blend-mode: screen">
        <g clip-path="url(#bc)">
          <rect x="104.1" y="127.3" width="15.6" height="0.37" fill="#ecc579"/>
        </g>
      </g>
      <g style="mix-blend-mode: multiply">
        <g clip-path="url(#bd)">
          <polygon points="106.1 127.3 107.2 127.3 109.1 141 106.1 141 106.1 127.3" fill="#c7c6c5"/>
        </g>
      </g>
      <rect x="125.4" y="145.5" width="15.6" height="13.72" fill="#ecc579"/>
      <polygon points="135.5 155.8 135.3 156.2 135.3 156.2 135.3 157.2 135.6 157.2 135.6 156.2 135.7 156.2 135.5 155.8" fill="#676767"/>
      <polygon points="136.1 155.8 135.9 156.2 136 156.2 136 157.2 136.3 157.2 136.3 156.2 136.3 156.2 136.1 155.8" fill="#676767"/>
      <rect x="135.1" y="157.3" width="1.5" height="0.15" fill="#676767"/>
      <path d="M137.5,157.5a.3.3,0,0,1-.3-.3h.2a.1.1,0,0,0,.1.1c.1,0,.2,0,.2-.2v-1.2h.1v1.2c0,.2-.1.4-.3.4" fill="#676767"/>
      <path d="M138.5,156.5h-1.6c0-.3.4-.6.8-.6s.8.3.8.6" fill="#676767"/>
      <path d="M139.4,156.2l-.3.3a1.7,1.7,0,0,1-.1-.7h.4l-.3.4Z" fill="#676767"/>
      <path d="M140.2,155.8c0,.4-.2,1-.6,1s-.3,0-.4-.2l.4-.5h-.3l.2-.3Z" fill="#676767"/>
      <rect x="139.5" y="156.7" width="0.1" height="0.71" fill="#676767"/>
      <rect x="139.3" y="157.3" width="0.5" height="0.15" fill="#676767"/>
      <g style="mix-blend-mode: multiply">
        <g clip-path="url(#be)">
          <rect x="132.3" y="145.5" width="2" height="13.72" fill="#f6e3a7"/>
        </g>
      </g>
      <rect x="123.8" y="145.5" width="1.7" height="13.71" fill="#d6a55d"/>
      <g opacity="0.6" style="mix-blend-mode: screen">
        <g clip-path="url(#bf)">
          <rect x="125.4" y="145.5" width="15.6" height="0.37" fill="#ecc579"/>
        </g>
      </g>
      <rect x="88.9" y="145.5" width="15.6" height="13.72" fill="#ecc579"/>
      <polygon points="98.9 155.8 98.7 156.2 98.8 156.2 98.8 157.2 99.1 157.2 99.1 156.2 99.1 156.2 98.9 155.8" fill="#676767"/>
      <polygon points="99.6 155.8 99.4 156.2 99.5 156.2 99.5 157.2 99.7 157.2 99.7 156.2 99.8 156.2 99.6 155.8" fill="#676767"/>
      <rect x="98.5" y="157.3" width="1.5" height="0.15" fill="#676767"/>
      <path d="M101,157.4c-.2,0-.3-.1-.3-.2h.1s0,.1.2.1.1,0,.1-.2v-1.2h.1v1.2c0,.2,0,.3-.2.3" fill="#676767"/>
      <path d="M102,156.5h-1.6c0-.3.3-.6.8-.6s.8.3.8.6" fill="#676767"/>
      <path d="M102.9,156.2l-.3.3a1.7,1.7,0,0,1-.1-.7h.3l-.2.4Z" fill="#676767"/>
      <path d="M103.6,155.8c0,.4-.1,1-.6,1s-.2,0-.3-.2l.4-.5h-.3l.2-.3h.6" fill="#676767"/>
      <rect x="103" y="156.7" width="0.1" height="0.71" fill="#676767"/>
      <rect x="102.8" y="157.3" width="0.5" height="0.15" fill="#676767"/>
      <g style="mix-blend-mode: multiply">
        <g clip-path="url(#bg)">
          <rect x="95.7" y="145.5" width="2" height="13.72" fill="#f6e3a7"/>
        </g>
      </g>
      <rect x="87.2" y="145.5" width="1.7" height="13.72" fill="#d6a55d"/>
      <g opacity="0.6" style="mix-blend-mode: screen">
        <g clip-path="url(#bh)">
          <rect x="88.9" y="145.5" width="15.6" height="0.37" fill="#ecc579"/>
        </g>
      </g>
      <g style="mix-blend-mode: multiply">
        <g clip-path="url(#bi)">
          <polygon points="127.4 145.5 128.6 145.5 130.5 159.2 127.4 159.2 127.4 145.5" fill="#c7c6c5"/>
        </g>
      </g>
      <rect x="88.9" y="124.1" width="15.6" height="21.34" fill="#ecc579"/>
      <polygon points="90.3 126.9 90.1 127.2 90.1 127.2 90.1 128.2 90.4 128.2 90.4 127.2 90.5 127.2 90.3 126.9" fill="#676767"/>
      <polygon points="90.9 126.9 90.7 127.2 90.8 127.2 90.8 128.2 91.1 128.2 91.1 127.2 91.1 127.2 90.9 126.9" fill="#676767"/>
      <rect x="89.9" y="128.4" width="1.5" height="0.15" fill="#676767"/>
      <path d="M92.3,128.5a.3.3,0,0,1-.3-.3h.1a.2.2,0,0,0,.2.2c.1,0,.1,0,.1-.2v-1.3h.2v1.3a.3.3,0,0,1-.3.3" fill="#676767"/>
      <path d="M93.3,127.6H91.7c0-.3.4-.6.8-.6s.8.3.8.6" fill="#676767"/>
      <path d="M94.2,127.3l-.3.3a1.7,1.7,0,0,1-.1-.7h.4l-.3.4Z" fill="#676767"/>
      <path d="M94.9,126.9c0,.4-.1,1-.5,1l-.4-.2.4-.5h-.3l.2-.3h.6" fill="#676767"/>
      <rect x="94.3" y="127.7" width="0.1" height="0.71" fill="#676767"/>
      <rect x="94.1" y="128.4" width="0.5" height="0.15" fill="#676767"/>
      <g style="mix-blend-mode: multiply">
        <g clip-path="url(#bj)">
          <rect x="95.7" y="124.1" width="2" height="21.34" fill="#f6e3a7"/>
        </g>
      </g>
      <rect x="87.2" y="124.1" width="1.7" height="21.33" fill="#d6a55d"/>
      <g opacity="0.6" style="mix-blend-mode: screen">
        <g clip-path="url(#bk)">
          <rect x="88.9" y="124.1" width="15.6" height="0.58" fill="#ecc579"/>
        </g>
      </g>
      <rect x="106.8" y="141" width="20.7" height="18.15" fill="#ecc579"/>
      <polygon points="120 154.8 119.8 155.2 119.9 155.2 119.9 156.5 120.2 156.5 120.2 155.2 120.3 155.2 120 154.8" fill="#676767"/>
      <polygon points="120.9 154.8 120.6 155.2 120.7 155.2 120.7 156.5 121.1 156.5 121.1 155.2 121.2 155.2 120.9 154.8" fill="#676767"/>
      <rect x="119.5" y="156.7" width="1.9" height="0.19" fill="#676767"/>
      <path d="M122.7,156.9c-.2,0-.3-.2-.3-.4h.1l.2.2c.2,0,.2,0,.2-.3v-1.6h.2v1.6c0,.3-.1.5-.4.5" fill="#676767"/>
      <path d="M124,155.6h0l-.2-.2c-.2,0-.3.1-.3.2s-.1-.2-.3-.2l-.2.2-.3-.2-.2.2-.3-.2-.2.2h0c0-.3.4-.7,1-.7s1,.4,1,.7" fill="#676767"/>
      <path d="M125.2,155.3l-.3.4a1.8,1.8,0,0,1-.2-1h.5l-.4.6Z" fill="#676767"/>
      <path d="M126.2,154.7c0,.5-.1,1.4-.7,1.4a.5.5,0,0,1-.5-.3l.5-.7h-.4l.3-.4h.8" fill="#676767"/>
      <rect x="125.4" y="155.8" width="0.2" height="0.94" fill="#676767"/>
      <rect x="125.2" y="156.7" width="0.6" height="0.19" fill="#676767"/>
      <g style="mix-blend-mode: multiply">
        <g clip-path="url(#bl)">
          <rect x="115.8" y="141" width="2.7" height="18.15" fill="#f6e3a7"/>
        </g>
      </g>
      <rect x="104.5" y="141" width="2.2" height="18.15" fill="#ecc579"/>
      <g style="mix-blend-mode: multiply">
        <g clip-path="url(#bm)">
          <polygon points="104.5 159.2 108.3 159.2 106.8 141 104.5 141 104.5 159.2" fill="#c7c6c5"/>
        </g>
      </g>
      <g opacity="0.6" style="mix-blend-mode: screen">
        <g clip-path="url(#bn)">
          <rect x="106.8" y="141" width="20.7" height="0.49" fill="#ecc579"/>
        </g>
      </g>
      <g style="mix-blend-mode: multiply">
        <g clip-path="url(#bo)">
          <path d="M161.2,192.7c0,1,9.7,1.8,21.8,1.8s21.9-.8,21.9-1.8S195.1,191,183,191s-21.8.8-21.8,1.7" fill="#d9d9d9"/>
        </g>
      </g>
      <path d="M175.7,191.5h.4l.2,1.4c-2.3.7-5.9.3-6.4-.1l.5-1.5a18.6,18.6,0,0,0,5.3.3" fill="#401b12"/>
      <path d="M195.1,160.4c2.7,0,4.1-4.5.5-8.7s-7.2-4.2-7.2-4.2l-1.5,5.1Z" fill="#e5352a"/>
      <path d="M191.4,152.1c.7-5.5-6.3-11.9-7.6-11.9-.7,6.2,4.1,11.4,4.1,11.4Z" fill="#e5352a"/>
      <path d="M184,140.3c5.2,5.9,1.8,10.2,1.8,10.2-3-.3-8.6,3.5-10.2,2.9s-4.1-5.3-3-9.9c.2-.9-.2-2.2.4-2.7a8.4,8.4,0,0,1,4.8-2.3,11.2,11.2,0,0,1,6.2,1.8" fill="#e5352a"/>
      <path d="M186.2,147.8c3.3,3,5.5,7.5,1.7,13.7s-15.5-1.5-15.5-1.5a48.5,48.5,0,0,0,0-12.8l1.1,2.1a23.6,23.6,0,0,0,3.8-7.1,66.4,66.4,0,0,1,7.6-.1,8.6,8.6,0,0,1,1.3,5.7" fill="#5c82ab"/>
      <path d="M186.9,162.1c-.5,5.6,3.8,24.5,3.8,24.5l-4.5.6s-6.2-21.5-6.7-21.5a1.1,1.1,0,0,0-.7.3l-3.3,20.8-3.8-.3s-.4-23.5.7-26.5,15.5-2.1,14.5,2.1" fill="#5c82ab"/>
      <polygon points="186.5 149.3 181.1 149.7 181.7 155.9 185.5 156.8 187.3 155 186.5 149.3" fill="#486b8e"/>
      <path d="M175.3,133.3c-.2.3.5,3.1.1,4.9s6.3,2.8,6.3,0l-.2-5.1Z" fill="#fbb67d"/>
      <path d="M175.3,133.3a6.6,6.6,0,0,0,.1,1.1c1.7,5.2,6.3,3.8,6.3,3.7s-.2-5-.2-5Z" fill="#e0906b"/>
      <path d="M185.3,143.1a4.6,4.6,0,0,0-1.1-3.1l-1.3-.4a7.7,7.7,0,0,1,.9,3.2l1.5.3" fill="#486b8e"/>
      <path d="M178.6,142.8a6.5,6.5,0,0,0-4-3.4l-1.2.6a8.9,8.9,0,0,1,3.5,3.8,9.3,9.3,0,0,0,1.7-1" fill="#486b8e"/>
      <polygon points="182.7 139.3 181.7 138.1 180.6 139.3 181.8 141.1 182.7 139.3" fill="#c42c27"/>
      <path d="M174.8,139.3a6.6,6.6,0,0,1,.6-2.4,12.3,12.3,0,0,0,5.6,2.4c-.3.5-1.4,1.8-1.4,1.8Z" fill="#c42c27"/>
      <rect x="176.3" y="144.3" width="11.9" height="14.76" fill="#dc6e34"/>
      <rect x="179.3" y="144.3" width="1.3" height="2.6" fill="#fff"/>
      <rect x="183.6" y="144.3" width="11.9" height="14.76" fill="#faa75e"/>
      <rect x="189.3" y="144.3" width="1.3" height="2.6" fill="#fff"/>
      <path d="M185.2,155h3c.1,0,.1.1.1.2h-3.2V155" fill="#dc6e34"/>
      <path d="M185.2,155.9h3.1c0,.1,0,.2-.1.2h-3v-.2h.1" fill="#dc6e34"/>
      <path d="M185.2,156.7h3a.1.1,0,0,1,.1.1v.2h-3.2v-.2h.1" fill="#dc6e34"/>
      <path d="M184.4,129.6a7.8,7.8,0,0,0,.2,2.2c.4,1.9-.8,6.2-3.5,6.2-7.6,0-10.8-15.3-.9-13.6,3,.5,4.6,2,4.2,5.2" fill="#fbb67d"/>
      <path d="M184.4,129.6a7.8,7.8,0,0,0,.2,2.2c.4,1.9.1,6.2-3.5,6.2s-4.7-1.9-5.9-4.2c-2.3-4.4-1.4-10.5,5-9.4,3,.5,4.6,2,4.2,5.2" fill="#fbb67d"/>
      <path d="M182.6,134c.8,0,2.1-.3,1.8,1.2s1.3,3.5.7,4.2-5.6,1.6-6.5.2a43.8,43.8,0,0,1-2.9-4.9,2.1,2.1,0,0,0,1.8-2.2h.5c.1.6.1,2.6,1.3,2.5s.5-1.1,3.3-1.1" fill="#401b12"/>
      <path d="M182.6,136.7a2.2,2.2,0,0,1-1.4,0c.8.6,1.1.2,1.4,0" fill="#2f1214"/>
      <path d="M183.4,135h-3.2c.6,1.7,3,1.7,3.2-.1" fill="#c3202a"/>
      <path d="M180.6,135.8a1.8,1.8,0,0,0,1.8.5,1.6,1.6,0,0,0-1.8-.5" fill="#e81d2b"/>
      <path d="M180.2,135.1a.8.8,0,0,0,.2.5h2.9a4.3,4.3,0,0,1,.1-.5h-3.2" fill="#fff"/>
      <path d="M183.4,131.9a.7.7,0,0,0,.6-.7v-.6a.6.6,0,0,0-.6-.6.7.7,0,0,0-.7.6v.6a.7.7,0,0,0,.7.7" fill="#401b12"/>
      <path d="M180,132.3a.6.6,0,0,0,.6-.6V131a.6.6,0,0,0-.6-.6.6.6,0,0,0-.6.6v.7a.6.6,0,0,0,.6.6" fill="#401b12"/>
      <path d="M183.3,133.1a.9.9,0,1,0-.9.9.9.9,0,0,0,.9-.9" fill="#e0906b"/>
      <path d="M183.2,132.6a1.1,1.1,0,1,0-1.1,1.1,1.1,1.1,0,0,0,1.1-1.1" fill="#fbb67d"/>
      <path d="M177.6,129.3l.4,3.3-1.8-.4-.9,1.8a8.2,8.2,0,0,1-.7-7.6c.5-1.6,4.1.1,3,2.9" fill="#401b12"/>
      <path d="M176.9,131c-1.4-1.4-3,1.3-.6,3.4s1.7-2.3.6-3.4" fill="#fbb67d"/>
      <path d="M176.8,132.4c-.4-1.1-1-1.2-1.2-.7s1.2.7,1.2.7" fill="#e0906b"/>
      <path d="M176,132.6l-.3.4c.3.1.5,0,.3-.4" fill="#e0906b"/>
      <path d="M184.4,127.4c-.1-2.7,0-3.7-2.1-4.3s-3.4-1.2-3.8-1-4.1,2-4.3,2.8a27.7,27.7,0,0,0-.2,3.7,10.6,10.6,0,0,0,3.7,1.2,26.3,26.3,0,0,0,6.7-2.4" fill="#e5352a"/>
      <path d="M190.4,129.1c-3.5-1.4-8.4,1.5-8.4,1.5s-4.3-.8-4.3-.8c.9-2,6.7-2.8,6.7-2.8,2.6.4,6.8,1.4,6,2.1" fill="#5c82ab"/>
      <polygon points="183.9 126.4 183.7 124.5 180.7 124.9 180.9 127.2 183.9 126.4" fill="#c3202a"/>
      <path d="M178,122.2c0-.2.3-.4.7-.4s.6.1.6.3-1.3.3-1.3.1" fill="#5c82ab"/>
      <path d="M179.4,131.1l.3.3a.3.3,0,0,0,.3-.3.3.3,0,0,0-.3-.3.3.3,0,0,0-.3.3" fill="#fff"/>
      <path d="M182.8,130.7a.3.3,0,1,0,.6,0c0-.2-.1-.4-.3-.4s-.3.2-.3.4" fill="#fff"/>
      <path d="M176.2,144.3c-.8,3.3-4.6,8.2-4.6,8.2l7.8,3.2-.9,4.1c-7.5,0-12.4-5.6-12.4-5.6-.2-3.2,2.7-12.4,7.6-14.1a15.3,15.3,0,0,1,2.5,4.2" fill="#e5352a"/>
      <path d="M186.3,159.1c-1.5,2.7-7.8.5-7.8.5-1.6-.3-1.2-4,.8-3.8s4.1-1.1,4.1-1.1c.5,1.9-2.7,2.3-2.7,2.3s1,1.6,1.9,1.8l3.7.3" fill="#fbb67d"/>
      <path d="M189.6,159.1c1.6,2.7,5.7,1.2,5.7,1.2a2.4,2.4,0,0,0,.2-4,7.7,7.7,0,0,1-2.9-1c-.4,1.2.8,1.9,1.6,2.1a.7.7,0,0,1,.3,1.1,1.8,1.8,0,0,1-1,.6Z" fill="#fbb67d"/>
      <path d="M174.9,186.4c-.3,2.6,1,3.8.9,5.5a8.4,8.4,0,0,1-5.1-.4,5.6,5.6,0,0,1,.5-2.3,7.6,7.6,0,0,0,1-3v-.3Z" fill="#724a42"/>
      <path d="M195.5,191.4c.3.3.1,1.4.1,1.4-2.2.7-9.1.3-9.5-.1s.2-1.2.5-1.5a28,28,0,0,0,8.9.2" fill="#401b12"/>
      <path d="M190.3,186.4c.1,1.5.2,2.4.8,2.8s3.2-.6,3.9,1.1a2.9,2.9,0,0,1,.2,1.6c-1.6.5-7.4.1-8.3-.4s0-2.8-.7-4.8Z" fill="#724a42"/>
      <polygon points="171.3 187.1 175.8 187.3 176 185.3 171.2 185.3 171.3 187.1" fill="#486b8e"/>
      <polygon points="191.2 187.1 185.5 187.8 185.5 186 190.7 185.4 191.2 187.1" fill="#486b8e"/>
      <path d="M192.7,189.8c0,.2.1.3.2.3a.3.3,0,0,0,.3-.3c0-.1-.1-.2-.3-.2a.2.2,0,0,0-.2.2" fill="#401b12"/>
      <path d="M191.5,189.8l.2.2.3-.2a.3.3,0,0,0-.3-.3c-.1,0-.2.1-.2.3" fill="#401b12"/>
      <path d="M190.1,189.3c0,.1.1.2.3.2l.2-.2c0-.2-.1-.3-.2-.3a.3.3,0,0,0-.3.3" fill="#401b12"/>
      <path d="M189.8,188.1a.3.3,0,0,0,.3.3c.1,0,.2-.1.2-.3l-.2-.2c-.2,0-.3.1-.3.2" fill="#401b12"/>
      <path d="M174.4,188.8c0,.2.1.3.2.3s.3-.1.3-.2-.1-.3-.2-.3-.3.1-.3.2" fill="#401b12"/>
      <path d="M174.3,187.7a.2.2,0,0,0,.2.2c.1.1.3,0,.3-.2l-.2-.2c-.2-.1-.3,0-.3.2" fill="#401b12"/>
      <path d="M172.3,188.7c0,.1-.1.2-.2.3a.3.3,0,0,1-.3-.3l.2-.2c.2,0,.3,0,.3.2" fill="#401b12"/>
      <path d="M172.5,187.5a.3.3,0,0,1-.3.3.2.2,0,0,1-.2-.2c-.1-.2,0-.3.2-.3l.3.2" fill="#401b12"/>
      <g style="mix-blend-mode: multiply">
        <g clip-path="url(#bp)">
          <path d="M371.7,183.2c0,1.1-35.8,1.9-79.9,1.9s-79.8-.8-79.8-1.9,35.7-1.9,79.8-1.9,79.9.8,79.9,1.9" fill="#b3b3b3"/>
        </g>
      </g>
      <g style="mix-blend-mode: multiply">
        <g clip-path="url(#bq)">
          <path d="M347,190.9c0,1-23.6,1.9-52.6,1.9s-52.7-.9-52.7-1.9,23.6-1.9,52.7-1.9,52.6.8,52.6,1.9" fill="#b3b3b3"/>
        </g>
      </g>
      <g style="mix-blend-mode: multiply">
        <g clip-path="url(#br)">
          <path d="M314,194.9c0,1-10.2,1.9-22.8,1.9s-22.8-.9-22.8-1.9,10.2-2,22.8-2,22.8.9,22.8,2" fill="#b3b3b3"/>
        </g>
      </g>
      <g style="mix-blend-mode: multiply">
        <g clip-path="url(#bs)">
          <path d="M271.2,193.4c0,.7-3.8,1.2-8.4,1.2s-8.4-.5-8.4-1.2,3.7-1.1,8.4-1.1,8.4.5,8.4,1.1" fill="#b3b3b3"/>
        </g>
      </g>
      <g style="mix-blend-mode: multiply">
        <g clip-path="url(#bt)">
          <path d="M334.4,193.6c0,.6-3.8,1.1-8.5,1.1s-8.4-.5-8.4-1.1,3.8-1.1,8.4-1.1,8.5.5,8.5,1.1" fill="#b3b3b3"/>
        </g>
      </g>
      <polygon points="291.4 162.6 291.3 162.5 299 149 299.1 149.1 291.4 162.6" fill="#98774d"/>
      <path d="M302.5,156a7.2,7.2,0,1,1-12.2-5.3,7.4,7.4,0,0,1,4.1-1.9h.9a7.2,7.2,0,0,1,7.2,7.2" fill="#dbdada"/>
      <path d="M298.5,148.3l-1,.4a7.7,7.7,0,0,1,5.4,7.3,7.6,7.6,0,0,1-7.6,7.6,7.2,7.2,0,0,1-5.9-2.9l-.3.8a8.3,8.3,0,0,0,14.5-5.5,8.3,8.3,0,0,0-5.1-7.7" fill="#815e25"/>
      <path d="M302.5,156a7.2,7.2,0,1,1-12.2-5.3,7.4,7.4,0,0,1,4.1-1.9h.9a7.2,7.2,0,0,1,7.2,7.2" fill="#dbdada"/>
      <path d="M302.5,156a7.2,7.2,0,1,1-12.2-5.3,7.4,7.4,0,0,1,4.1-1.9h2.1a7.2,7.2,0,0,1,6,7.1" fill="#27a6a9"/>
      <path d="M296.4,149.9c-.2-.1-.3-.4-.5-.3s.2.3.2.5,0,.6-.3.6-.2-.2-.4-.1l-.6.3h-.9c-.2.2-.1.4-.4.4s0,0-.2-.3-.4.1-.7.3-.1.8-.3.7-.1-.4,0-.7-.3-.2-.5-.3a1.3,1.3,0,0,0-.9.4c-.1.2-.3.6,0,.6s.4.1.4.2l-.4.2c0,.1.4.3.2.5a.5.5,0,0,0-.1.6l.3.2c.2,0,.8-.1.9.1s.2.3.4.3a2.4,2.4,0,0,1,.6.8l.5.4c.2.1,0,.7,0,.9s-.1.3.2.4a4.1,4.1,0,0,1,1.2.9.6.6,0,0,1,0,.7l-.7.3c-.1.1,0,.3.2.4s.2.4.1.4h-1.5l-.4.2-.6.5h-.9c-.2,0-.3.2-.4.3s-.1.2-.1.3l.2.2c0,.1,0,.4-.3.3s-.3-.5-.4-.7a4.7,4.7,0,0,1,.1-1.7l.2-.6c0-.2.3-.6.1-.9s-.5-.5-.5-.7a5.6,5.6,0,0,1,0-1.3l.2-.3a.5.5,0,0,1,.2-.4l.4-.2c.2-.1.5-.4.3-.4s-.4-1-.6-1.1-.1-.5-.2-.6a.6.6,0,0,1-.3-.8c0-.3.8-.8.7-1s-.5.6-.6.5-.1-.1,0-.3a7.4,7.4,0,0,1,4.1-1.9h1c.1.1.6.2.5.4s-.9-.1-1.2,0,.1.3,0,.5-.2.2-.1.3l1.1-.5.9-.3c.2,0,.1.7-.2.7" fill="#fbac18"/>
      <path d="M298.7,162.2s-.4.1-.5,0,.4-.4.6-.7.7-1.1,1-1.2.2-1,.3-1.2.4-.5.4-.7-.2-.2-.4-.4-.6,0-.8-.2-.2.1-.5-.2-.1-.4-.2-.7-.3-.4-.3-.7.2-.4.3-.6l.8-1c.2-.3.2-.5.4-.6l.5.2c.2,0,.1-.1.3-.2s.4.2.4.5.2.5.5.6.1-.3.2-.2.1.1.3.2.4-.1.4-.3-.4-.2-.7-.5-.2-.4-.5-.6-.4-.5-.6-.4-.2.4-.4.5-.4.1-.6-.2a.6.6,0,0,1,.2-.7c.2,0,.2.2.3.1s0-.1,0-.3a.4.4,0,0,1,.2-.5c.2-.1.3.2.5,0s.1-.3-.3-.6-.5,0-.6-.3a3.8,3.8,0,0,1-.1-1,11.3,11.3,0,0,1,1.4,1.5,4.7,4.7,0,0,1,.5,1,6.1,6.1,0,0,1,.7,1.8,6.9,6.9,0,0,1-3.7,7.6" fill="#fbac18"/>
      <path d="M298.9,150.6c-.2-.1,0,.2,0,.4s-.1.1-.1.3-.1.3.1.3.2-.2.3-.2-.1.4,0,.5.5,0,.5-.2-.5-1.1-.8-1.1" fill="#fbac18"/>
      <path d="M297.2,149.1c-.2,0,.1.3.1.4s-.2.2-.2.4-.2.4,0,.5.4.2.5,0h.4c.3,0,.4-.1.4-.3l-.2-.4a1.7,1.7,0,0,0-1-.5" fill="#fbac18"/>
      <g style="mix-blend-mode: soft-light">
        <g clip-path="url(#bu)">
          <path d="M300.5,153.2a2.4,2.4,0,1,1-4.7,0,2.4,2.4,0,1,1,4.7,0" fill="#b3b3b3"/>
        </g>
      </g>
      <rect x="294.8" y="163.9" width="1.1" height="2.18" fill="#815e25"/>
      <rect x="292" y="165.8" width="6.6" height="1.24" rx="0.3" fill="#815e25"/>
      <g style="mix-blend-mode: multiply">
        <g clip-path="url(#bv)">
          <path d="M295.3,163.2a7.3,7.3,0,0,1-5-12.5,7.4,7.4,0,0,1,4.1-1.9h2.1c-4.6.2-11,9.1-1.2,14.3" fill="#dbdada"/>
        </g>
      </g>
      <rect x="308.7" y="160.5" width="34.7" height="30.49" fill="#ecc579"/>
      <polygon points="331 183.6 330.6 184.3 330.7 184.3 330.7 186.5 331.3 186.5 331.3 184.3 331.5 184.3 331 183.6" fill="#676767"/>
      <polygon points="332.5 183.6 332.1 184.3 332.2 184.3 332.2 186.5 332.8 186.5 332.8 184.3 332.9 184.3 332.5 183.6" fill="#676767"/>
      <rect x="330.1" y="186.8" width="3.3" height="0.32" fill="#676767"/>
      <path d="M335.5,187.1a.6.6,0,0,1-.6-.6h.3c0,.2.1.4.3.4s.4-.1.4-.6v-2.7h.2v2.7c0,.6-.1.8-.6.8" fill="#676767"/>
      <path d="M337.7,185h0c0-.2-.2-.3-.4-.3a.5.5,0,0,0-.5.3c0-.2-.2-.3-.4-.3s-.3.1-.4.3-.2-.3-.4-.3-.3.1-.4.3a.5.5,0,0,0-.5-.3c-.2,0-.3.1-.4.3h0c0-.6.7-1.2,1.7-1.2s1.7.6,1.7,1.2" fill="#676767"/>
      <path d="M339.7,184.4l-.5.7a3,3,0,0,1-.3-1.6h.8l-.6.9Z" fill="#676767"/>
      <path d="M341.4,183.5c0,.8-.2,2.3-1.3,2.3a1,1,0,0,1-.8-.5l1-1.2h-.7l.4-.6h1.4" fill="#676767"/>
      <rect x="340" y="185.4" width="0.3" height="1.57" fill="#676767"/>
      <rect x="339.6" y="186.8" width="1" height="0.32" fill="#676767"/>
      <g style="mix-blend-mode: multiply">
        <g clip-path="url(#bw)">
          <rect x="323.9" y="160.5" width="4.5" height="30.49" fill="#f6e3a7"/>
        </g>
      </g>
      <rect x="305" y="160.5" width="3.7" height="30.47" fill="#d6a55d"/>
      <g opacity="0.5" style="mix-blend-mode: multiply">
        <g clip-path="url(#bx)">
          <polygon points="310.6 176.2 315.8 191 310.6 191 310.6 176.2" fill="#c9984d"/>
        </g>
      </g>
      <rect x="285.6" y="167.5" width="18" height="3.02" fill="#27a6a9"/>
      <g opacity="0.5" style="mix-blend-mode: multiply">
        <g clip-path="url(#by)">
          <rect x="285.6" y="169.8" width="18" height="0.72" fill="#27a6a9"/>
        </g>
      </g>
      <rect x="298.5" y="168" width="0.4" height="2.03" fill="#bce4e9"/>
      <rect x="297.1" y="168" width="0.4" height="2.03" fill="#bce4e9"/>
      <rect x="286.3" y="168" width="3.8" height="2.03" fill="#bce4e9"/>
      <rect x="284.3" y="167.5" width="1.4" height="3.02" fill="#f2fafa"/>
      <rect x="285.6" y="170.9" width="18" height="3.02" fill="#fbac18"/>
      <g opacity="0.5" style="mix-blend-mode: multiply">
        <g clip-path="url(#bz)">
          <rect x="285.6" y="173.2" width="18" height="0.72" fill="#ebc84f"/>
        </g>
      </g>
      <rect x="298.5" y="171.4" width="0.4" height="2.03" fill="#ffde9c"/>
      <rect x="297.1" y="171.4" width="0.4" height="2.03" fill="#ffde9c"/>
      <rect x="286.3" y="171.4" width="3.8" height="2.03" fill="#ffde9c"/>
      <rect x="284.3" y="170.9" width="1.4" height="3.02" fill="#f2fafa"/>
      <rect x="285.6" y="174.2" width="18" height="3.02" fill="#f05b33"/>
      <g opacity="0.5" style="mix-blend-mode: multiply">
        <g clip-path="url(#ca)">
          <rect x="285.6" y="176.5" width="18" height="0.72" fill="#ebc84f"/>
        </g>
      </g>
      <rect x="298.5" y="174.7" width="0.4" height="2.03" fill="#f6b5c1"/>
      <rect x="297.1" y="174.7" width="0.4" height="2.03" fill="#f6b5c1"/>
      <rect x="286.3" y="174.7" width="3.8" height="2.03" fill="#f6b5c1"/>
      <rect x="284.3" y="174.2" width="1.4" height="3.02" fill="#f2fafa"/>
      <rect x="275.9" y="176.2" width="34.7" height="18.68" fill="#ffd28e"/>
      <g style="mix-blend-mode: multiply">
        <g clip-path="url(#cb)">
          <rect x="291" y="176.2" width="4.5" height="18.68" fill="#f6e3a7"/>
        </g>
      </g>
      <polygon points="298.2 187.4 297.7 188.1 297.9 188.1 297.9 190.3 298.5 190.3 298.5 188.1 298.6 188.1 298.2 187.4" fill="#676767"/>
      <polygon points="299.6 187.4 299.2 188.1 299.3 188.1 299.3 190.3 299.9 190.3 299.9 188.1 300.1 188.1 299.6 187.4" fill="#676767"/>
      <rect x="297.3" y="190.7" width="3.3" height="0.32" fill="#676767"/>
      <path d="M302.6,191c-.3,0-.5-.2-.5-.6h.3c0,.1,0,.3.2.3s.4,0,.4-.5v-2.8h.3v2.8c0,.5-.1.8-.7.8" fill="#676767"/>
      <path d="M304.9,188.9h0l-.5-.2a.5.5,0,0,0-.4.2l-.4-.2-.5.2-.4-.2a.5.5,0,0,0-.4.2l-.4-.2-.5.2h0c0-.6.8-1.3,1.7-1.3s1.8.7,1.8,1.3" fill="#676767"/>
      <path d="M306.9,188.3l-.6.7a5,5,0,0,1-.3-1.6h.8l-.6,1Z" fill="#676767"/>
      <path d="M308.6,187.4c0,.8-.3,2.2-1.3,2.2a.8.8,0,0,1-.8-.4l.9-1.2h-.7l.5-.7h1.4" fill="#676767"/>
      <rect x="307.1" y="189.2" width="0.3" height="1.57" fill="#676767"/>
      <rect x="306.8" y="190.7" width="1" height="0.32" fill="#676767"/>
      <rect x="272.1" y="176.2" width="3.7" height="18.67" fill="#deaf69"/>
      <g opacity="0.5" style="mix-blend-mode: multiply">
        <g clip-path="url(#cc)">
          <polygon points="275.9 176.2 281.1 186.5 310.6 186.5 310.6 176.2 275.9 176.2" fill="#d6a55d"/>
        </g>
      </g>
      <polygon points="275.9 176.2 280.6 183.4 315.8 183.4 310.6 176.2 275.9 176.2" fill="#ffe1b5"/>
    </g>
  </g>
</svg>
