<svg xmlns="http://www.w3.org/2000/svg" viewBox="0 0 23.5 35.2">
  <path d="M1.2,9.5l4.2,1.7,1,.4V28a3.2,3.2,0,0,1,1.4-.3,4.7,4.7,0,0,1,2,.6H20.1v3.3H11.5a4.1,4.1,0,0,1-1.1,2.5,4.1,4.1,0,0,1-2.6,1.1,3.9,3.9,0,0,1-2.6-1.1,3.6,3.6,0,0,1-1.1-2.5H3.2V13.8L0,12.5l1.2-3Zm15.4,9.3v2H15v-2H9.8v6.5H21.9V18.8ZM14.7,8.1v2.2H13.1V8.1H10V16h7.9V8.1Zm2.1-6.4V3.6H15.2V1.7H12.6V5.2h6.9V1.7ZM11.8,0H11V6.4H8.4V17.1H8.1V27H23.5V17.1h-4V6.9h1.6V0H11.8ZM8.9,30.4a1.6,1.6,0,0,0-1.1-.5,1.4,1.4,0,0,0-1.1.5,1.3,1.3,0,0,0-.5,1.1,1.6,1.6,0,0,0,.5,1.1,1.8,1.8,0,0,0,1.1.4,2.1,2.1,0,0,0,1.1-.4,1.5,1.5,0,0,0,.4-1.1A1.2,1.2,0,0,0,8.9,30.4Z" fill="#aa8e82" fill-rule="evenodd"/>
</svg>
