<svg xmlns="http://www.w3.org/2000/svg" xmlns:xlink="http://www.w3.org/1999/xlink" viewBox="0 0 61 70.6">
  <defs>
    <radialGradient id="a" cx="30.51" cy="35.3" r="32.99" gradientUnits="userSpaceOnUse">
      <stop offset="0" stop-color="#fad0c8"/>
      <stop offset="0.12" stop-color="#e8beba"/>
      <stop offset="0.53" stop-color="#ad808c"/>
      <stop offset="0.84" stop-color="#885a70"/>
      <stop offset="1" stop-color="#7a4b65"/>
    </radialGradient>
  </defs>
  <g style="isolation: isolate">
    <g>
      <g>
        <g>
          <g>
            <g>
              <path d="M48.2,23.9c-.8-2.5-4.2,1.5-4.3,1.6s-.5,2.3-.7,3.5-.3,2-.4,3A6.5,6.5,0,0,0,48.2,23.9Z" fill="#f9bc82"/>
              <path d="M17.3,25.5c-.1-.1-3.4-4.1-4.3-1.6A6.5,6.5,0,0,0,18.4,32c-.1-1-.2-2-.4-3S17.5,26.7,17.3,25.5Z" fill="#f9bc82"/>
            </g>
            <path d="M38,36.9l-7.4.4-7.3-.4s1.2,8-1.7,11.1c0,0,4,10.7,9,10.5s9-10.5,9-10.5C36.7,44.9,38,36.9,38,36.9Z" fill="#f6a35d"/>
            <path d="M44.9,10.8C43.3,8.9,38.4,7.1,34.7,6a14.3,14.3,0,0,0-8.2,0c-3.6,1.1-8.6,2.9-10.2,4.8s.8,16.3,1.3,20.4,9,13.6,13,13.6,12.6-9.5,13.1-13.6S47.5,14,44.9,10.8Z" fill="#f9bc82"/>
            <path d="M41.4,2.4C34.1-2.5,27,1.6,24.9,2.3S19,.8,14.9,7.5s.4,17.3,2.1,21.8h1c-.1-2.1-.7-6.3-.7-7.9.1-3.6.6-5,2.1-7.4s7.2-5.4,7.2-5.4c6.3-2,10.6,2.6,14.5,4.2S42.9,28.6,43,29.3h1.2c.3-1.8,1.9-4.4,3-8.9C49.4,11.2,47,6.1,41.4,2.4Z" fill="#7d3712"/>
            <path d="M21,6.4s4.7,14,24.5,14c0,0,1.4-13.9-7.2-16.3S21,6.4,21,6.4Z" fill="#7d3712"/>
            <g>
              <g>
                <path d="M24.8,20.8a8.7,8.7,0,0,0-4.1,1.1c-.1.4.2.8.4.8a23,23,0,0,0,2.3-.1,20.2,20.2,0,0,1,3.6.3c.7.1.9-.4.9-1.2S27,20.9,24.8,20.8Z" fill="#7d3712"/>
                <path d="M40.5,21.9a8.5,8.5,0,0,0-4-1.1c-2.3.1-3.3.2-3.2.9s.3,1.3.9,1.2a21.3,21.3,0,0,1,3.7-.3,20.3,20.3,0,0,0,2.2.1A.5.5,0,0,0,40.5,21.9Z" fill="#7d3712"/>
              </g>
              <g>
                <g>
                  <path d="M27.9,26.7a4.4,4.4,0,0,0-3.3-1.8A5.2,5.2,0,0,0,21,26s1.6,2.2,3.5,2.2A4.3,4.3,0,0,0,27.9,26.7Z" fill="#fff"/>
                  <path d="M26.3,26.4a1.7,1.7,0,0,1-1.7,1.7,1.7,1.7,0,0,1,0-3.4A1.7,1.7,0,0,1,26.3,26.4Z" fill="#533014"/>
                  <path d="M27.9,26.7a5.5,5.5,0,0,0-3.4-1.3A11.1,11.1,0,0,0,21,26s.7-1.7,3.5-1.6A3.3,3.3,0,0,1,27.9,26.7Z" fill="#cf6d24"/>
                </g>
                <g>
                  <path d="M33.3,26.7a4.4,4.4,0,0,1,3.4-1.8A5.1,5.1,0,0,1,40.2,26s-1.6,2.2-3.5,2.2A4.3,4.3,0,0,1,33.3,26.7Z" fill="#fff"/>
                  <path d="M34.9,26.4a1.7,1.7,0,1,0,1.7-1.7A1.8,1.8,0,0,0,34.9,26.4Z" fill="#533014"/>
                  <path d="M33.3,26.7a5.5,5.5,0,0,1,3.4-1.3,11.1,11.1,0,0,1,3.5.6s-.7-1.7-3.5-1.6A3.5,3.5,0,0,0,33.3,26.7Z" fill="#cf6d24"/>
                </g>
              </g>
              <path d="M30.5,33.3H30a1.1,1.1,0,0,1-.8-.9c-.4-1.2.8-5.7.9-6.2s.2-.3.4-.2.3.2.2.4c-.5,1.9-1.2,5-.9,5.8s.2.4.4.5a1.7,1.7,0,0,0,1.2-.3h.5c.1.2.1.4-.1.5A1.9,1.9,0,0,1,30.5,33.3Z" fill="#d87547"/>
              <path d="M34.6,34.9a11.1,11.1,0,0,1-8,.2,4.3,4.3,0,0,0,4.2,2.5A4.4,4.4,0,0,0,34.6,34.9Z" fill="#fff"/>
            </g>
          </g>
          <g>
            <path d="M30.5,1.5C9.9,1.5,12.4,22.1,12.4,22.1h2.2s-.3-7.7,2.9-12.7a11.7,11.7,0,0,1,4.6-3.9,24,24,0,0,1,8.4-1.7A24.4,24.4,0,0,1,39,5.5a11.4,11.4,0,0,1,4.5,3.9c3.2,5,3,12.7,3,12.7h2.1S51.2,1.5,30.5,1.5Z" fill="#3c2c3c"/>
            <g>
              <g>
                <path d="M12.8,20.4S9.1,20.2,10,26s3,6.1,4.4,5.9,1.8-2.8,1.4-6C15,20.1,12.8,20.4,12.8,20.4Z" fill="#645565"/>
                <path d="M12.8,20.4a2.9,2.9,0,0,0-2.1,1,19.2,19.2,0,0,1,1.2,5,22.9,22.9,0,0,1,.3,4.9,2.4,2.4,0,0,0,2.2.6c1.3-.2,1.8-2.8,1.4-6C15,20.1,12.8,20.4,12.8,20.4Z" fill="#3c2c3c"/>
              </g>
              <g>
                <path d="M48.2,20.4s3.7-.2,2.8,5.5-2.9,6.2-4.3,6.1-1.8-2.9-1.4-6.1C46,20.1,48.2,20.4,48.2,20.4Z" fill="#645565"/>
                <path d="M48.2,20.4a3.1,3.1,0,0,1,2.1,1c-.4.6-.8,2-1.2,5a29.9,29.9,0,0,0-.2,4.9,2.8,2.8,0,0,1-2.2.7c-1.3-.2-1.8-2.9-1.4-6.1C46,20.1,48.2,20.4,48.2,20.4Z" fill="#3c2c3c"/>
              </g>
            </g>
            <path d="M12.9,31.2S12.8,38,14.5,39s11.1.7,11.1.7v-.9s-9.9.5-10.8-1.2-.9-6.4-.9-6.4Z" fill="#3c2c3c"/>
            <path d="M29.2,39.1c0,.8-1.1,1.5-2.5,1.5s-2.4-.7-2.4-1.5,1.1-1.5,2.4-1.5S29.2,38.2,29.2,39.1Z" fill="#3c2c3c"/>
          </g>
        </g>
        <g>
          <path d="M58.5,55.7c-.9-4.6-4.6-6-11.7-6.6S38.9,47,38.9,47l-8.4,7.5L22.4,47s-1,1.5-8.2,2.1-10.8,2-11.7,6.6S0,70.6,0,70.6H61S59.4,60.2,58.5,55.7Z" fill="#d2d4d9"/>
          <g>
            <path d="M13.1,60.9c-1,2.4-1.5,7.6-2.9,9.7h11l-.7-.4C15.9,67.6,13.6,64.6,13.1,60.9Z" fill="#d2d4d9" opacity="0.32" style="mix-blend-mode: multiply"/>
            <path d="M47.9,60.9c-.4,3.7-2.8,6.7-7.4,9.3l-.6.4H50.8C49.4,68.5,48.9,63.3,47.9,60.9Z" fill="#d2d4d9" opacity="0.32" style="mix-blend-mode: multiply"/>
          </g>
          <path d="M25.6,70.6h9.8L31.5,58.4c0-.2,0-.3.1-.4l2.6-3.6a.4.4,0,0,0-.1-.6L32.3,52H28.7l-1.8,1.9c-.2.1-.2.4-.1.6L29.4,58c.1.1.1.2.1.4Z" fill="#3c2c3c"/>
          <polygon points="43.1 48.5 38.2 45.7 30.5 51.8 22.8 45.7 17.9 48.5 24.2 57.2 30.5 52.1 36.8 57.2 43.1 48.5" fill="#e8eaec"/>
          <g>
            <polygon points="13.3 70.6 13 66 12.1 70.6 13.3 70.6" fill="#89919a"/>
            <polygon points="49 70.6 48.1 66 47.7 70.6 49 70.6" fill="#89919a"/>
          </g>
        </g>
      </g>
      <path d="M58.5,55.7c-.9-4.6-4.6-6-11.7-6.6a27.8,27.8,0,0,1-3.7-.5h0l-4.7-2.7a17.3,17.3,0,0,1-.7-5.5c2.8-2.7,5.3-6.2,5.9-8.5a7.2,7.2,0,0,0,2-.9c.3.6.6,1,1.1,1.1H47c1.4.1,3.2-.6,4-6.1.4-2.4-.1-3.8-.7-4.5h0a2.4,2.4,0,0,0-1.6-.9,30.7,30.7,0,0,0-.7-6.6c-.1-5.3-2.5-8.8-6.6-11.5C34.9-2,28.6.8,25.8,2l-2.2.5c-2.2,0-5.4-.4-8.7,5a10.1,10.1,0,0,0-1.4,5,24.1,24.1,0,0,0-1.2,8h0a2.4,2.4,0,0,0-1.6.9h0c-.6.8-1.1,2.1-.7,4.6s1.3,4.5,2.2,5.3h0a1.8,1.8,0,0,0,.7.5c0,1.6.2,6.3,1.6,7.2s5.6.8,8.5.8c.2.1.3.3.5.5a17.2,17.2,0,0,1-.6,5.5h-.1l-4.9,2.8h0a27.8,27.8,0,0,1-3.7.5c-7.1.6-10.8,2-11.7,6.6S0,70.6,0,70.6H61S59.4,60.2,58.5,55.7ZM14.8,37.6c-.6-1.1-.8-4.2-.9-5.6h.5c.4,0,.7-.3,1-.8s.1-.2.1-.3a5,5,0,0,0,2.2,1c.5,1.9,2.3,4.6,4.4,7.1C19.2,38.8,15.3,38.6,14.8,37.6Z" opacity="0.32" fill="url(#a)" style="mix-blend-mode: overlay"/>
    </g>
  </g>
</svg>
