<svg xmlns="http://www.w3.org/2000/svg" viewBox="0 0 32.8 32">
  <g>
    <path d="M25,16.3l-3,1.4-5.9,2.8a1.6,1.6,0,0,0-.8.6c-.1.1-.1.2-.2.4a1.7,1.7,0,0,0,.2.5l.5.3H21l-.7.3-2.8,1.6c-3.6,2-7.8,4.8-11.5,6.9l1.9.4,10.3-6.2,2.7-1.7.7-.4.4-.3.3-.4a.8.8,0,0,0,.2-.5l-.3-.5-.6-.3H16.4c-.2,0-.3-.1-.2-.2h.2l5.9-3,2.9-1.5,1.5-.8.7-.4a1.5,1.5,0,0,0,.7-.5l-.8.2-.8.4Z" fill="#f28d00"/>
    <g>
      <path d="M10,31.4c0,.3-1.4.6-3.1.6s-3.1-.3-3.1-.6,1.4-.7,3.1-.7S10,31,10,31.4Z" fill="#b03731"/>
      <g>
        <path d="M13.9,16.4c0,5.6-7,15-7,15S0,22,0,16.4a7,7,0,0,1,13.9,0Z" fill="#e73939"/>
        <path d="M11.4,16.4a4.5,4.5,0,1,1-4.5-4.5A4.5,4.5,0,0,1,11.4,16.4Z" fill="#ed6d55"/>
        <path d="M3,17.1a4.6,4.6,0,0,1,4.5-4.6,4.4,4.4,0,0,1,2.9,1.1,4.6,4.6,0,0,0-3.5-1.7,4.5,4.5,0,0,0-4.5,4.5,4.6,4.6,0,0,0,1.7,3.5A4.3,4.3,0,0,1,3,17.1Z" fill="#13110c" opacity="0.3"/>
      </g>
    </g>
    <g>
      <path d="M30.2,15c0,.2-1,.4-2.1.4S26,15.2,26,15s.9-.4,2.1-.4S30.2,14.8,30.2,15Z" fill="#b03731"/>
      <g>
        <path d="M32.8,4.8c0,3.8-4.7,10.2-4.7,10.2S23.3,8.6,23.3,4.8a4.8,4.8,0,1,1,9.5,0Z" fill="#e73939"/>
        <path d="M31.2,4.8a3.1,3.1,0,1,1-6.2,0,3.1,3.1,0,1,1,6.2,0Z" fill="#ed6d55"/>
        <path d="M25.4,5.2a3.1,3.1,0,0,1,3.1-3.1,3.1,3.1,0,0,1,2,.7,3.2,3.2,0,0,0-2.4-1.1A3.1,3.1,0,0,0,25,4.8a2.8,2.8,0,0,0,1.1,2.3A3.2,3.2,0,0,1,25.4,5.2Z" fill="#13110c" opacity="0.3"/>
      </g>
    </g>
  </g>
</svg>
