<svg viewBox="0 0 361.36 227.78" xmlns="http://www.w3.org/2000/svg" xmlns:xlink="http://www.w3.org/1999/xlink"><filter id="a" color-interpolation-filters="sRGB" filterUnits="userSpaceOnUse" height="32766" width="15.22" x="107.26" y="-7120.23"><feFlood flood-color="#fff" result="bg"/><feBlend in="SourceGraphic" in2="bg"/></filter><mask id="b" height="32766" maskUnits="userSpaceOnUse" width="15.22" x="107.26" y="-7120.23"><g filter="url(#a)"/></mask><linearGradient id="c" gradientTransform="matrix(-1 0 0 1 -1177.4 .95)" gradientUnits="userSpaceOnUse" x1="-1299.42" x2="-1282.58" y1="108.96" y2="108.96"><stop offset="0"/><stop offset=".52" stop-color="#fff"/><stop offset="1"/></linearGradient><filter id="d" color-interpolation-filters="sRGB" filterUnits="userSpaceOnUse" height="32766" width="4.91" x="133.1" y="-7120.23"><feFlood flood-color="#fff" result="bg"/><feBlend in="SourceGraphic" in2="bg"/></filter><mask id="e" height="32766" maskUnits="userSpaceOnUse" width="4.91" x="133.1" y="-7120.23"><g filter="url(#d)"/></mask><linearGradient id="f" gradientTransform="matrix(-1 0 0 1 -1177.4 .95)" gradientUnits="userSpaceOnUse" x1="-1313.25" x2="-1312.32" y1="117.91" y2="120.08"><stop offset="0" stop-color="#fff"/><stop offset=".36" stop-color="#fff"/><stop offset="1"/></linearGradient><filter id="g" color-interpolation-filters="sRGB" filterUnits="userSpaceOnUse" height="32766" width="4.7" x="150.23" y="-7120.23"><feFlood flood-color="#fff" result="bg"/><feBlend in="SourceGraphic" in2="bg"/></filter><mask id="h" height="32766" maskUnits="userSpaceOnUse" width="4.7" x="150.23" y="-7120.23"><g filter="url(#g)"/></mask><linearGradient id="i" gradientTransform="matrix(-1 0 0 1 -1177.4 .95)" gradientUnits="userSpaceOnUse" x1="-1329.4" x2="-1329.81" y1="90.86" y2="96.35"><stop offset="0" stop-color="#fff"/><stop offset="1"/></linearGradient><filter id="j" color-interpolation-filters="sRGB" filterUnits="userSpaceOnUse" height="32766" width="12.29" x="121.31" y="-7120.23"><feFlood flood-color="#fff" result="bg"/><feBlend in="SourceGraphic" in2="bg"/></filter><mask id="k" height="32766" maskUnits="userSpaceOnUse" width="12.29" x="121.31" y="-7120.23"><g filter="url(#j)"/></mask><linearGradient id="l" x1="-1305.68" x2="-1302.53" xlink:href="#i" y1="104.01" y2="110.76"/><filter id="m" color-interpolation-filters="sRGB" filterUnits="userSpaceOnUse" height="32766" width=".01" x="107.26" y="-7120.23"><feFlood flood-color="#fff" result="bg"/><feBlend in="SourceGraphic" in2="bg"/></filter><mask id="n" height="32766" maskUnits="userSpaceOnUse" width=".01" x="107.26" y="-7120.23"><g filter="url(#m)"/></mask><filter id="o" color-interpolation-filters="sRGB" filterUnits="userSpaceOnUse" height="32766" width="14.93" x="43.98" y="-7120.23"><feFlood flood-color="#fff" result="bg"/><feBlend in="SourceGraphic" in2="bg"/></filter><mask id="p" height="32766" maskUnits="userSpaceOnUse" width="14.93" x="43.98" y="-7120.23"><g filter="url(#o)"/></mask><linearGradient id="q" x1="-1235.95" x2="-1221.09" xlink:href="#c" y1="77.7" y2="77.7"/><filter id="r" color-interpolation-filters="sRGB" filterUnits="userSpaceOnUse" height="32766" width="15.23" x="103.82" y="-7120.23"><feFlood flood-color="#fff" result="bg"/><feBlend in="SourceGraphic" in2="bg"/></filter><mask id="s" height="32766" maskUnits="userSpaceOnUse" width="15.23" x="103.82" y="-7120.23"><g filter="url(#r)"/></mask><linearGradient id="t" gradientTransform="matrix(-1 0 0 1 -1177.4 .95)" gradientUnits="userSpaceOnUse" x1="-1292.21" x2="-1284.56" y1="69.78" y2="74.22"><stop offset="0"/><stop offset="1" stop-color="#fff"/></linearGradient><filter id="u" color-interpolation-filters="sRGB" filterUnits="userSpaceOnUse" height="32766" width="15.23" x="118.31" y="-7120.23"><feFlood flood-color="#fff" result="bg"/><feBlend in="SourceGraphic" in2="bg"/></filter><mask id="v" height="32766" maskUnits="userSpaceOnUse" width="15.23" x="118.31" y="-7120.23"><g filter="url(#u)"/></mask><linearGradient id="w" x1="-1306.74" x2="-1299.09" xlink:href="#t" y1="61.04" y2="65.48"/><clipPath id="x"><path d="m343.64 38.23-321.2-38.09a20.07 20.07 0 0 0 -22.17 23.16l30.52 187.63a20.06 20.06 0 0 0 23.29 16.55l260.63-45.95a20.08 20.08 0 0 0 15.79-14.18l30.05-103.59a20.07 20.07 0 0 0 -16.91-25.53z"/></clipPath><linearGradient id="y" gradientTransform="matrix(-1 0 0 1 -1177.4 .95)" gradientUnits="userSpaceOnUse" x1="-1294.22" x2="-1292.27" y1="122.75" y2="115.6"><stop offset="0" stop-color="#c1c0c0"/><stop offset="1" stop-color="#dfdddb"/></linearGradient><linearGradient id="z" gradientTransform="matrix(-1 0 0 1 -1177.4 .95)" gradientUnits="userSpaceOnUse" x1="-1293.93" x2="-1291.72" y1="121.72" y2="114.29"><stop offset="0" stop-color="#b7b6b6"/><stop offset="1" stop-color="#dfdddb"/></linearGradient><linearGradient id="A" x1="-1292.13" x2="-1293.62" xlink:href="#y" y1="116.52" y2="122.36"/><linearGradient id="B" x1="-1293.56" x2="-1292.31" xlink:href="#y" y1="119.81" y2="119.81"/><linearGradient id="C" x1="-1227.79" x2="-1225.84" xlink:href="#y" y1="84.56" y2="77.42"/><linearGradient id="D" x1="-1227.5" x2="-1225.29" xlink:href="#z" y1="83.54" y2="76.11"/><linearGradient id="E" x1="-1225.7" x2="-1227.19" xlink:href="#y" y1="78.34" y2="84.17"/><linearGradient id="F" x1="-1227.13" x2="-1225.88" xlink:href="#y" y1="81.62" y2="81.62"/><filter id="G" color-interpolation-filters="sRGB" filterUnits="userSpaceOnUse" height="7.36" width="15.22" x="107.26" y="100.71"><feFlood flood-color="#fff" result="bg"/><feBlend in="SourceGraphic" in2="bg"/></filter><mask id="H" height="7.36" maskUnits="userSpaceOnUse" width="15.22" x="107.26" y="100.71"><g filter="url(#G)" mask="url(#b)"><path d="m110.28 101.08 1.83-.37 10.37 5.38-.65.76s-5.11-2.73-7.45-3.94-5.14-2-6.15.93a21 21 0 0 0 -1 4.23c.09-1.07.52-6.31 3.05-6.99z" fill="url(#c)"/></g></mask><linearGradient id="I" gradientTransform="matrix(-1 0 0 1 -1177.4 .95)" gradientUnits="userSpaceOnUse" x1="-1299.42" x2="-1282.58" y1="108.96" y2="108.96"><stop offset="0" stop-color="#fff"/><stop offset=".52" stop-color="#fff"/><stop offset="1" stop-color="#fff"/></linearGradient><filter id="J" color-interpolation-filters="sRGB" filterUnits="userSpaceOnUse" height=".19" width=".01" x="107.26" y="108.07"><feFlood flood-color="#fff" result="bg"/><feBlend in="SourceGraphic" in2="bg"/></filter><mask height=".19" maskUnits="userSpaceOnUse" width=".01" x="107.26" y="108.07"><g filter="url(#J)" mask="url(#n)"/></mask><filter id="K" color-interpolation-filters="sRGB" filterUnits="userSpaceOnUse" height="15.65" width="14.93" x="43.98" y="65.55"><feFlood flood-color="#fff" result="bg"/><feBlend in="SourceGraphic" in2="bg"/></filter><mask id="L" height="15.65" maskUnits="userSpaceOnUse" width="14.93" x="43.98" y="65.55"><g filter="url(#K)" mask="url(#p)"><path d="m58.9 81.2s.07-1.32-1.26-5.42c-1.39-4.27-3.75-6.4-7.35-8.62s-6.21-1.48-6.29-1.44l.14.42s2.42-.77 5.93 1.4 5.81 4.24 7.16 8.38c1.29 4 1.25 5.24 1.24 5.25z" fill="url(#q)"/></g></mask><linearGradient id="M" x1="-1235.95" x2="-1221.09" xlink:href="#I" y1="77.7" y2="77.7"/><filter id="N" color-interpolation-filters="sRGB" filterUnits="userSpaceOnUse" height="15.47" width="15.23" x="103.82" y="59.41"><feFlood flood-color="#fff" result="bg"/><feBlend in="SourceGraphic" in2="bg"/></filter><mask id="O" height="15.47" maskUnits="userSpaceOnUse" width="15.23" x="103.82" y="59.41"><g filter="url(#N)" mask="url(#s)"><path d="m110.61 59.41 6.65 9.59a1 1 0 0 1 -.15 1.54c-.92.64-4.28 2.52-4.28 2.52s-1.39.42-2-.53-7-9.61-7-9.61l6.9 11a2.44 2.44 0 0 0 3 .78 23.71 23.71 0 0 0 4.36-2.46s1.93-.89.18-3.21-7.66-9.62-7.66-9.62z" fill="url(#t)"/></g></mask><linearGradient id="P" gradientTransform="matrix(-1 0 0 1 -1177.4 .95)" gradientUnits="userSpaceOnUse" x1="-1292.21" x2="-1284.56" y1="69.78" y2="74.22"><stop offset="0" stop-color="#fff"/><stop offset="1" stop-color="#fff"/></linearGradient><linearGradient id="Q" x1="-1286.96" x2="-1294.55" xlink:href="#i" y1="72.8" y2="69.04"/><filter id="R" color-interpolation-filters="sRGB" filterUnits="userSpaceOnUse" height="15.47" width="15.23" x="118.31" y="50.6"><feFlood flood-color="#fff" result="bg"/><feBlend in="SourceGraphic" in2="bg"/></filter><mask id="S" height="15.47" maskUnits="userSpaceOnUse" width="15.23" x="118.31" y="50.6"><g filter="url(#R)" mask="url(#v)"><path d="m125.1 50.6 6.65 9.58a1 1 0 0 1 -.15 1.54c-.91.63-4.28 2.52-4.28 2.52s-1.39.41-2-.53-7-9.61-7-9.61l6.9 11a2.44 2.44 0 0 0 3 .78 23.71 23.71 0 0 0 4.36-2.46s1.93-.9.18-3.21-7.66-9.61-7.66-9.61z" fill="url(#w)"/></g></mask><linearGradient id="T" x1="-1306.74" x2="-1299.09" xlink:href="#P" y1="61.04" y2="65.48"/><linearGradient id="U" x1="-1301.49" x2="-1309.08" xlink:href="#i" y1="64.06" y2="60.3"/><filter id="V" color-interpolation-filters="sRGB" filterUnits="userSpaceOnUse" height="3.05" width="4.91" x="133.1" y="113.18"><feFlood flood-color="#fff" result="bg"/><feBlend in="SourceGraphic" in2="bg"/></filter><mask id="W" height="3.05" maskUnits="userSpaceOnUse" width="4.91" x="133.1" y="113.18"><g filter="url(#V)" mask="url(#e)"><path d="m136.39 113.25c1-.22 1.18.09 1.37.55s.44 1.14 0 1.45a19.16 19.16 0 0 1 -4.35 1l-.33-1z" fill="url(#f)"/></g></mask><linearGradient id="X" gradientTransform="matrix(-1 0 0 1 -1177.4 .95)" gradientUnits="userSpaceOnUse" x1="-1313.25" x2="-1312.32" y1="117.91" y2="120.08"><stop offset="0" stop-color="#394142"/><stop offset=".36" stop-color="#7a8a8e"/><stop offset="1" stop-color="#515c5f"/></linearGradient><filter id="Y" color-interpolation-filters="sRGB" filterUnits="userSpaceOnUse" height="10" width="4.7" x="150.23" y="83.38"><feFlood flood-color="#fff" result="bg"/><feBlend in="SourceGraphic" in2="bg"/></filter><mask id="Z" height="10" maskUnits="userSpaceOnUse" width="4.7" x="150.23" y="83.38"><g filter="url(#Y)" mask="url(#h)"><path d="m151.37 85.88a6.25 6.25 0 0 0 -.15-2.09c0 .07 0-.16 0-.41 1.17 2 3.07 5.39 3.69 6.51-.06.16-.1.28-.08.31a5.46 5.46 0 0 1 -2 3.18 27 27 0 0 0 -2.66-5.79 2.54 2.54 0 0 0 1.2-1.71z" fill="url(#i)"/></g></mask><linearGradient id="aa" x1="-1329.4" x2="-1329.81" xlink:href="#P" y1="90.86" y2="96.35"/><filter id="ab" color-interpolation-filters="sRGB" filterUnits="userSpaceOnUse" height="8.57" width="12.29" x="121.31" y="97.7"><feFlood flood-color="#fff" result="bg"/><feBlend in="SourceGraphic" in2="bg"/></filter><mask id="ac" height="8.57" maskUnits="userSpaceOnUse" width="12.29" x="121.31" y="97.7"><g filter="url(#ab)" mask="url(#k)"><path d="m122.06 97.7a7.28 7.28 0 0 0 2.94 2.18 6.16 6.16 0 0 0 2.21.33 15.92 15.92 0 0 0 3-.34 44.49 44.49 0 0 1 3.48 5.29 17.76 17.76 0 0 1 -5.27 1.11 6.19 6.19 0 0 1 -1-.07 5.47 5.47 0 0 1 -3.52-2.53c-.11-.14-.2-.27-.28-.36-1.44-1.69-2.23-3-2.23-3.79a2.87 2.87 0 0 1 .67-1.82z" fill="url(#l)"/></g></mask><linearGradient id="ad" x1="-1305.68" x2="-1302.53" xlink:href="#P" y1="104.01" y2="110.76"/><g clip-path="url(#x)"><path d="m343.64 38.23-321.2-38.09a20.07 20.07 0 0 0 -22.17 23.16l30.52 187.63a20.06 20.06 0 0 0 23.29 16.55l260.63-45.95a20.08 20.08 0 0 0 15.79-14.18l30.05-103.59a20.07 20.07 0 0 0 -16.91-25.53z" fill="#c8e6ef"/><g clip-path="url(#x)"><path d="m328 68.87-253-38.53a25.13 25.13 0 0 0 -28.72 28l24.36 192.66a25.14 25.14 0 0 0 30.49 21.36l204.31-46.25a25.15 25.15 0 0 0 19-19l24.34-107.84a25.15 25.15 0 0 0 -20.78-30.4z" fill="#a4d5e4"/></g><path d="m-54.28 28.32 75.53-43.6 188.81 109.01-75.53 43.6z" fill="#6e6466" fill-rule="evenodd"/><path d="m161.57 111.38 5.11-2.94 8.95 5.17-5.11 2.94-9-5.17zm-179.86-103.84 5.11-2.94 8.6 5-5.1 2.95-8.61-5zm17.77 10.26 5.1-3 17.74 10.29-5.11 2.91zm27 15.59 5.1-2.94 17.75 10.24-5.11 2.94-17.73-10.24zm26.6 15.36 5.11-3 17.73 10.25-5.1 3zm26.64 15.38 5.1-2.95 17.74 10.24-5.1 3zm26.81 15.47 5.1-2.94 17.74 10.24-5.11 2.94zm26.88 15.52 5.11-2.94 17.73 10.24-5.1 3z" fill="#fff" fill-rule="evenodd"/><path d="m134.38 137.22 75.52-43.6 188.81 109.01-75.52 43.6z" fill="#6e6466" fill-rule="evenodd"/><path d="m350.22 220.28 5.11-2.95 8.95 5.17-5.11 2.95zm-179.85-103.84 5.1-3 8.6 5-5.1 3zm17.76 10.26 5.1-3 17.77 10.3-5.11 2.95zm27 15.59 5.1-2.95 17.77 10.24-5.11 2.95-17.73-10.24zm26.59 15.35 5.11-2.94 17.73 10.24-5.1 2.94zm26.65 15.36 5.11-2.94 17.73 10.24-5.1 2.94zm26.81 15.48 5.1-2.95 17.72 10.26-5.11 3-17.71-10.29zm26.88 15.52 5.11-2.94 17.73 10.24-5.1 2.94z" fill="#fff" fill-rule="evenodd"/><path d="m216.98 97.17 1.02-.59v-23l-1.02.59z" fill="#b9b5ac" fill-rule="evenodd"/><path d="m216.98 97.17-1.03-.59v-21.81l1.03-.6z" fill="#8d8980" fill-rule="evenodd"/><path d="m221.43 47.18c5.53 0 8.34 6.27 6.27 14s-8.24 14-13.78 14-8.33-6.26-6.26-14 8.24-14 13.77-14z" fill="#f8302f" fill-rule="evenodd"/><path d="m221.43 49.55c-2.43 0-4.86 1.73-6.49 3.39a20.34 20.34 0 0 0 -5 8.85 14.45 14.45 0 0 0 -.32 6.88 5.62 5.62 0 0 0 2.22 3.58 3.85 3.85 0 0 0 2.07.55c2.43 0 4.86-1.73 6.5-3.39a20.48 20.48 0 0 0 5-8.85 14.52 14.52 0 0 0 .32-6.87 5.61 5.61 0 0 0 -2.23-3.58 3.86 3.86 0 0 0 -2.07-.56z" fill="#fff" fill-rule="evenodd"/><path d="m211.54 66.69 1.64-1.11a.72.72 0 0 0 .37.69.86.86 0 0 0 .76-.11 2.47 2.47 0 0 0 .89-.92 3.15 3.15 0 0 0 .43-1.52c0-.56-.06-.9-.29-1a.86.86 0 0 0 -.89.11 3.84 3.84 0 0 0 -1.3 1.37l-1.32.55 1.09-5.13 4.32-2.45-.09 1.6-3.06 1.73-.36 1.68a4.85 4.85 0 0 1 1.14-.92 1.9 1.9 0 0 1 1.67-.29c.56.25.82.85.77 1.8a6.41 6.41 0 0 1 -3.08 4.8 2.57 2.57 0 0 1 -1.86.44c-.49-.14-.76-.57-.83-1.29zm9.72-12q1.25-.7 2-.12c.48.39.67 1.42.58 3.11a9.23 9.23 0 0 1 -.95 4 5.5 5.5 0 0 1 -2.05 2.14c-.83.47-1.48.52-2 .14s-.67-1.43-.58-3.14a9.06 9.06 0 0 1 1-4 5.46 5.46 0 0 1 2-2.15zm-.07 1.42a2.05 2.05 0 0 0 -.8 1 9 9 0 0 0 -.42 2.75 5.7 5.7 0 0 0 .15 2.42c.17.26.42.29.74.11a2 2 0 0 0 .8-1 9.7 9.7 0 0 0 .42-2.75 5.7 5.7 0 0 0 -.15-2.42c-.17-.26-.42-.3-.74-.12z" fill-rule="evenodd"/><path d="m29.93 70.1c-.95.45-1 1.25-.06 1.77l93.85 53.37a9.56 9.56 0 0 0 3.57 1.05l4.53.25a10.61 10.61 0 0 0 3.7-.58l6.66-2.56a25.22 25.22 0 0 0 3.43-1.66l8.52-5.08a16.44 16.44 0 0 0 2.94-2.39l1.69-1.84a4.39 4.39 0 0 0 1-3.3l-.31-1.76a4.48 4.48 0 0 0 -2-2.8l-91.45-50.07a4.24 4.24 0 0 0 -3.4-.09z" opacity=".2"/><path d="m112.67 107.54 2.33-1.34c.69.38 1.41.78 2.13 1.12a12.81 12.81 0 0 1 5.44 5.55 66.94 66.94 0 0 1 2.46 6.55h-.06l-4.36 2.44a4.27 4.27 0 0 1 -3.81-.54 12.84 12.84 0 0 1 -5.86-10c.06-1.87.68-3.18 1.73-3.78z" fill="#3a3939"/><path d="m111 111.31a12.84 12.84 0 0 0 5.86 10c3.22 1.84 5.82.33 5.8-3.38a12.87 12.87 0 0 0 -5.86-10c-3.24-1.84-5.8-.33-5.8 3.38z" fill="#575656"/><path d="m111.29 111.91a11.65 11.65 0 0 0 5.32 9.13c2.92 1.67 5.28.29 5.27-3.07a11.7 11.7 0 0 0 -5.32-9.13c-2.93-1.67-5.29-.29-5.27 3.07z" fill="#3a3939"/><path d="m113 113a7.75 7.75 0 0 0 3.53 6c1.94 1.11 3.5.2 3.49-2a7.75 7.75 0 0 0 -3.53-6c-1.99-1.17-3.55-.25-3.49 2z" fill="url(#y)"/><path d="m116.44 110.94a5.47 5.47 0 0 1 .76.53l-.26-.16c-1.65-.94-3-.17-3 1.73a6.59 6.59 0 0 0 3 5.15c1.64.93 3 .18 3-1.7a4.32 4.32 0 0 1 0 .5c0 2.24-1.55 3.15-3.49 2a7.75 7.75 0 0 1 -3.53-6c.02-2.24 1.58-3.16 3.52-2.05z" fill="url(#z)"/><path d="m116.2 110.82c-1.54-.56-2.7.33-2.69 2.2a7.3 7.3 0 0 0 3.32 5.7c1.2.68 2.24.55 2.82-.22-.55 1.07-1.76 1.33-3.17.53a7.75 7.75 0 0 1 -3.53-6c-.01-2.19 1.43-3.11 3.25-2.21z" fill="url(#A)"/><path d="m114.43 114.1a4.08 4.08 0 0 0 1.88 3.22c1 .59 1.86.11 1.86-1.08a4.14 4.14 0 0 0 -1.88-3.22c-1.03-.59-1.87-.11-1.86 1.08z" fill="#dadbd9"/><path d="m115.41 114.85a1.42 1.42 0 0 0 .63 1.08c.35.19.63 0 .62-.37a1.38 1.38 0 0 0 -.62-1.07c-.35-.2-.63-.04-.63.36z" fill="url(#B)"/><path d="m116.54 114.43a.56.56 0 0 0 .27.45c.14.09.26 0 .26-.15a.56.56 0 0 0 -.27-.45c-.14-.09-.26-.02-.26.15z" fill="#343433"/><path d="m115.19 113.63a.59.59 0 0 0 .27.46c.14.08.26 0 .26-.16a.57.57 0 0 0 -.27-.45.16.16 0 0 0 -.26.15z" fill="#343433"/><path d="m114.75 114.9a.61.61 0 0 0 .26.46c.15.08.27 0 .27-.16a.56.56 0 0 0 -.27-.45c-.14-.09-.26-.02-.26.15z" fill="#343433"/><path d="m115.83 116.43a.59.59 0 0 0 .26.46c.15.08.27 0 .27-.15a.57.57 0 0 0 -.27-.46.16.16 0 0 0 -.26.15z" fill="#343433"/><path d="m116.9 116.13a.57.57 0 0 0 .27.45.16.16 0 0 0 .26-.15.59.59 0 0 0 -.27-.46c-.16-.08-.26.03-.26.16z" fill="#343433"/><path d="m116.17 112a.44.44 0 0 0 .17.6.49.49 0 0 0 .39-.88.44.44 0 0 0 -.56.28z" fill="#343433"/><path d="m114.75 112c0 .27.09.49.24.5s.29-.19.31-.46-.08-.49-.24-.5-.29.15-.31.46z" fill="#343433"/><path d="m117.8 113.15a.45.45 0 1 0 .48.76.48.48 0 0 0 .17-.64.48.48 0 0 0 -.65-.12z" fill="#343433"/><path d="m118.89 115.16a.46.46 0 0 0 -.45.44.49.49 0 0 0 1-.08.44.44 0 0 0 -.55-.36z" fill="#343433"/><path d="m119 117a.41.41 0 0 0 -.55.2c-.06.18.11.39.36.46s.51 0 .56-.2-.13-.41-.37-.46z" fill="#343433"/><path d="m117.77 118c-.17-.14-.34-.2-.4-.14s0 .23.2.37.34.2.4.14-.04-.22-.2-.37z" fill="#343433"/><path d="m110.52 105.48c.75-1.24 2.51-.36 4.52.72l-2.37 1.34c-1 .6-1.7 1.91-1.69 3.77v.16l-1.42.49c-.19-3.54-.01-4.88.96-6.48z" fill="#212020"/><path d="m46.08 69.64 1.82-1a7.82 7.82 0 0 1 2.09 1c3.74 2.34 6.49 4.7 6.77 12.42l.44.25-3.15 1.69a4.27 4.27 0 0 1 -3.81-.54 12.87 12.87 0 0 1 -5.86-10c-.01-1.91.62-3.21 1.7-3.82z" fill="#3a3939"/><path d="m44.38 73.41a12.87 12.87 0 0 0 5.86 10c3.22 1.84 5.82.33 5.8-3.38a12.84 12.84 0 0 0 -5.86-10c-3.18-1.84-5.81-.33-5.8 3.38z" fill="#575656"/><path d="m44.69 74a11.7 11.7 0 0 0 5.31 9.14c2.93 1.67 5.29.29 5.27-3.07a11.68 11.68 0 0 0 -5.27-9.13c-3-1.67-5.32-.29-5.31 3.06z" fill="#3a3939"/><path d="m46.35 75.08a7.75 7.75 0 0 0 3.53 6c1.94 1.11 3.5.2 3.49-2a7.74 7.74 0 0 0 -3.52-6c-1.94-1.14-3.51-.23-3.5 2z" fill="url(#C)"/><path d="m49.85 73a5.3 5.3 0 0 1 .76.54l-.26-.17c-1.65-.94-3-.17-3 1.73a6.6 6.6 0 0 0 3 5.15c1.63.94 2.95.18 3-1.7a4.32 4.32 0 0 1 0 .5c0 2.24-1.55 3.15-3.49 2a7.75 7.75 0 0 1 -3.53-6c.01-2.2 1.58-3.11 3.52-2.05z" fill="url(#D)"/><path d="m49.6 72.92c-1.54-.56-2.7.33-2.69 2.2a7.29 7.29 0 0 0 3.33 5.7c1.2.68 2.24.55 2.81-.22-.55 1.07-1.76 1.34-3.17.53a7.75 7.75 0 0 1 -3.53-6c-.01-2.19 1.43-3.13 3.25-2.21z" fill="url(#E)"/><path d="m47.83 76.2a4.14 4.14 0 0 0 1.88 3.22c1 .59 1.87.11 1.86-1.08a4.08 4.08 0 0 0 -1.88-3.22c-1.03-.59-1.86-.12-1.86 1.08z" fill="#dadbd9"/><path d="m48.82 77a1.37 1.37 0 0 0 .63 1c.34.19.62 0 .62-.37a1.39 1.39 0 0 0 -.63-1.07c-.35-.17-.62-.01-.62.44z" fill="url(#F)"/><path d="m50 76.53a.55.55 0 0 0 .26.45c.15.09.26 0 .26-.15a.57.57 0 0 0 -.26-.45c-.2-.09-.32-.02-.26.15z" fill="#343433"/><path d="m48.6 75.73a.56.56 0 0 0 .26.46c.15.08.26 0 .26-.15a.59.59 0 0 0 -.26-.46c-.15-.08-.26-.01-.26.15z" fill="#343433"/><path d="m48.15 77a.59.59 0 0 0 .27.46c.14.08.26 0 .26-.16a.59.59 0 0 0 -.26-.45c-.15-.08-.27-.02-.27.15z" fill="#343433"/><path d="m49.23 78.54a.57.57 0 0 0 .27.45.16.16 0 0 0 .26-.15.61.61 0 0 0 -.26-.46c-.15-.08-.27-.01-.27.16z" fill="#343433"/><path d="m50.3 78.23a.6.6 0 0 0 .27.45c.15.08.26 0 .26-.15a.61.61 0 0 0 -.26-.46c-.15-.07-.27-.01-.27.16z" fill="#343433"/><path d="m49.57 74.09a.45.45 0 0 0 .17.6.49.49 0 1 0 -.17-.6z" fill="#343433"/><path d="m48.15 74.05c0 .27.09.49.24.5s.3-.19.32-.46-.09-.48-.24-.5-.3.2-.32.46z" fill="#343433"/><path d="m51.2 75.25a.47.47 0 0 0 -.16.64.48.48 0 0 0 .81-.51.47.47 0 0 0 -.65-.13z" fill="#343433"/><path d="m52.29 77.26a.44.44 0 0 0 -.44.45.49.49 0 0 0 1-.09.45.45 0 0 0 -.56-.36z" fill="#343433"/><path d="m52.39 79.08c-.26-.08-.51 0-.56.2s.11.39.37.46a.45.45 0 0 0 .56-.2c.05-.18-.12-.39-.37-.46z" fill="#343433"/><path d="m51.17 80.11c-.16-.14-.34-.2-.39-.14s0 .23.2.37.34.2.39.14-.03-.23-.2-.37z" fill="#343433"/><path d="m43.8 70.39c.32-1.07 1.68-2.43 4.1-1.78l-1.82 1a3.85 3.85 0 0 0 -1.69 3.39l-.63.1a6.61 6.61 0 0 1 .04-2.71z" fill="#212020"/><path d="m29.63 55.79v-10.46s1.53-12.69 1.95-16.45 1.35-3.88 2.42-4.53l23.62-14.22.85-.48a3.11 3.11 0 0 1 2.16-.05l62.43 35.71c3.66 2.12 4.77 3 5.84 4.51l8.44 11.88s12.08 18.8 13.16 20.62 4.56 8 4.56 8a12.34 12.34 0 0 1 2.44 6.07c.33 2.78.57 6.49-.6 9.45s-4.17 5.13-9.25 8.22-11.16 6.15-15.38 6.48a15.05 15.05 0 0 1 -7.08-1l-.11-.05a66.21 66.21 0 0 0 -2.47-6.59 12.81 12.81 0 0 0 -5.44-5.55c-2.82-1.35-5.64-3.51-6.65-1.84s-1.15 3-1 6.49l-52.75-30c-.28-7.72-3-10.08-6.77-12.42s-5.79-.51-6.19.83a7.21 7.21 0 0 0 0 2.77c-2.63-1.54-12.19-7.18-13.21-8.27-1.17-1.28-1.45-5.76-1.53-7.2s.56-1.92.56-1.92z" fill="#dfe5e9"/><path d="m30.6 64.91c-1.17-1.28-1.45-5.76-1.53-7.2s.56-1.92.56-1.92v-10.46s1.53-12.69 1.95-16.45a9.56 9.56 0 0 1 .7-3s.44-.91 2.74.49 62.19 35.63 62.19 35.63a23.55 23.55 0 0 1 6.44 7c2.93 4.75 6 10.69 6 10.69l9.58 16.61s3.74 5.36 4.74 6.76 4.93 2.33 4.93 2.33 1.54 9.58 1.27 15.19a14 14 0 0 1 -5-1.08l-.11-.05a66.21 66.21 0 0 0 -2.47-6.59 12.81 12.81 0 0 0 -5.44-5.55c-2.82-1.35-5.64-3.51-6.65-1.84s-1.15 3-1 6.49l-52.73-29.96c-.28-7.72-3-10.08-6.77-12.42s-5.79-.51-6.19.83a7.21 7.21 0 0 0 0 2.77c-2.63-1.54-12.19-7.18-13.21-8.27z" opacity=".1"/><path d="m128.94 105.4a19.85 19.85 0 0 1 -2.32-.72l-.25-.87a7.93 7.93 0 0 1 -1.41.08 4.57 4.57 0 0 1 -.7-.53c.25-.54 1.71-1.6 5.9-3.61a113.76 113.76 0 0 0 19.84-12.09 7.83 7.83 0 0 0 2.17-2.51c1.36 2.39 2.93 5.19 2.93 5.19a12.34 12.34 0 0 1 2.44 6.07 33.44 33.44 0 0 1 .26 4.63 118.57 118.57 0 0 1 -13.8 9.83c-8.33 5.09-12.33 3.88-14.11 2.39-.36-4.15-.95-7.86-.95-7.86z" opacity=".03"/><g mask="url(#H)"><path d="m110.28 101.08 1.83-.37 10.37 5.38-.65.76s-5.11-2.73-7.45-3.94-5.14-2-6.15.93a21 21 0 0 0 -1 4.23c.09-1.07.52-6.31 3.05-6.99z" fill="url(#I)" opacity=".5"/></g><path d="m31.9 54.57 72.12 41s16.65 8.76 18.29 9.54a12.87 12.87 0 0 0 8.05 1.45c3.68-.6 9.34-3.5 13.61-6.1s8.31-5.58 9.92-7.36a6.71 6.71 0 0 0 1.39-2.48l.19.26a7.07 7.07 0 0 1 -1.58 3.12c-1.61 1.78-5.66 4.75-9.92 7.36s-9.93 5.5-13.61 6.1a12.9 12.9 0 0 1 -8.05-1.45c-1.63-.78-18.29-9.54-18.29-9.54l-71.09-40.64z" opacity=".1"/><g fill="#fff" opacity=".5"><path d="m59.43 13.26a.27.27 0 0 0 .08.07l58.36 33.48a.65.65 0 0 0 .56 0l.79-.37.09-.06c.06.08 0 .17-.09.23l-.78.37a.67.67 0 0 1 -.57 0l-58.36-33.48c-.11-.07-.14-.16-.08-.24z"/><path d="m57.22 14.59.08.06 58.36 33.49a.73.73 0 0 0 .56 0l.79-.38.09-.06c.06.08 0 .17-.09.23l-.79.38a.73.73 0 0 1 -.56 0l-58.36-33.49c-.12-.07-.14-.16-.08-.23z"/><path d="m55.05 16 .08.06 58.36 33.44a.65.65 0 0 0 .56 0l.79-.37.08-.07c.07.08 0 .18-.08.23l-.79.38a.65.65 0 0 1 -.56 0l-58.36-33.49c-.13-.06-.13-.18-.08-.18z"/><path d="m52.79 17.27.07.06 58.37 33.49a.72.72 0 0 0 .56 0l.78-.38.09-.06c.07.08 0 .17-.08.23l-.79.38a.72.72 0 0 1 -.56 0l-58.37-33.49c-.11-.07-.14-.16-.07-.23z"/><path d="m50.54 18.59.08.06 58.38 33.48a.69.69 0 0 0 .56 0l.79-.38.09-.06c.06.08 0 .17-.09.23l-.78.38a.71.71 0 0 1 -.57 0l-58.38-33.48c-.12-.07-.14-.16-.08-.23z"/><path d="m48.23 20 .07.07 58.37 33.48a.65.65 0 0 0 .56 0l.79-.37a.27.27 0 0 0 .08-.07c.07.08 0 .18-.08.24l-.79.37a.65.65 0 0 1 -.56 0l-58.37-33.51c-.11-.07-.13-.16-.07-.21z"/><path d="m46 21.29a.14.14 0 0 0 .07.06l58.36 33.49a.67.67 0 0 0 .57 0l.78-.37a.22.22 0 0 0 .09-.07c.07.08 0 .18-.09.24l-.78.36a.67.67 0 0 1 -.57 0l-58.32-33.48c-.11-.06-.11-.16-.11-.23z"/><path d="m43.68 22.7a.29.29 0 0 0 .08.07l58.36 33.48a.65.65 0 0 0 .56 0l.79-.37a.22.22 0 0 0 .09-.07c.06.08 0 .18-.09.24l-.79.37a.65.65 0 0 1 -.56 0l-58.36-33.49c-.12-.06-.14-.15-.08-.23z"/><path d="m41.35 24a.27.27 0 0 0 .08.07l58.36 33.5a.71.71 0 0 0 .57 0l.78-.38.09-.06c.06.08 0 .17-.09.23l-.78.37a.67.67 0 0 1 -.57 0l-58.36-33.47c-.11-.07-.14-.16-.08-.26z"/><path d="m39 25.32a.19.19 0 0 0 .08.07l58.4 33.48a.65.65 0 0 0 .56 0l.79-.37a.22.22 0 0 0 .09-.07c.06.08 0 .18-.09.24l-.79.37a.65.65 0 0 1 -.56 0l-58.36-33.48c-.12-.07-.12-.16-.12-.24z"/></g><g opacity=".05"><path d="m119.31 46.4a.27.27 0 0 0 -.08-.07l-58.36-33.48a.65.65 0 0 0 -.56 0l-.79.37-.09.06c-.06-.08 0-.17.09-.23l.79-.37a.65.65 0 0 1 .56 0l58.36 33.48c.12.07.14.16.08.24z"/><path d="m117.1 47.72a.24.24 0 0 0 -.08-.06l-58.36-33.49a.67.67 0 0 0 -.57 0l-.78.37a.22.22 0 0 0 -.09.07c-.06-.08 0-.18.09-.24l.78-.37a.67.67 0 0 1 .57 0l58.34 33.49c.14.06.16.15.1.23z"/><path d="m114.92 49.08a.22.22 0 0 0 -.07-.06l-58.36-33.49a.75.75 0 0 0 -.57 0l-.78.38a.2.2 0 0 0 -.09.06c-.07-.08 0-.17.09-.23l.78-.38a.75.75 0 0 1 .57 0l58.36 33.49c.15.07.15.15.07.23z"/><path d="m112.66 50.4s0 0-.07-.06l-58.37-33.49a.65.65 0 0 0 -.56 0l-.78.37a.22.22 0 0 0 -.09.07c-.07-.08 0-.18.08-.24l.79-.37a.65.65 0 0 1 .56 0l58.37 33.49c.11.06.13.15.07.23z"/><path d="m110.42 51.72a.27.27 0 0 0 -.08-.07l-58.34-33.48a.65.65 0 0 0 -.56 0l-.79.37a.22.22 0 0 0 -.09.07c-.06-.08 0-.18.09-.24l.78-.37a.67.67 0 0 1 .57-0l58.36 33.48c.1.07.12.16.06.24z"/><path d="m108.1 53.1-.1-.1-58.33-33.44a.71.71 0 0 0 -.57 0l-.78.38-.09.06c-.07-.08 0-.17.09-.23l.78-.38a.68.68 0 0 1 .56 0l58.34 33.48c.14.07.17.13.1.23z"/><path d="m105.91 54.42a.28.28 0 0 0 -.08-.06l-58.36-33.49a.72.72 0 0 0 -.56 0l-.79.38-.08.06c-.07-.08 0-.17.08-.23l.79-.38a.72.72 0 0 1 .56 0l58.36 33.49c.17.07.17.16.08.23z"/><path d="m103.56 55.83-.08-.06-58.36-33.49a.75.75 0 0 0 -.57 0l-.78.38-.09.06c-.06-.08 0-.17.09-.23l.78-.38a.71.71 0 0 1 .57 0l58.36 33.49c.11.07.14.16.08.23z"/><path d="m101.23 57.16a.19.19 0 0 0 -.08-.07l-58.36-33.48a.65.65 0 0 0 -.56 0l-.79.37-.09.06c-.06-.08 0-.17.09-.23l.79-.37a.65.65 0 0 1 .56 0l58.36 33.48c.12.08.14.16.08.24z"/><path d="m98.92 58.45-.08-.06-58.36-33.49a.75.75 0 0 0 -.57 0l-.78.38-.09.06c-.06-.08 0-.17.09-.23l.78-.38a.71.71 0 0 1 .57 0l58.36 33.49c.16.07.16.16.08.23z"/></g><path d="m95.25 85.31.49-13a1.15 1.15 0 0 0 -.53-1l-61.95-35.12a.5.5 0 0 0 -.25-.07.37.37 0 0 1 .56-.12l62 35.18a1.12 1.12 0 0 1 .53.95l-.49 13c0 .26-.16.41-.36.4a1.17 1.17 0 0 0 0-.22z" opacity=".1"/><path d="m33 36.32c0-.27.19-.42.41-.39a.32.32 0 0 0 0 .14l-.66 12.82a1.08 1.08 0 0 0 .51 1l62.09 35.3a.76.76 0 0 0 .18.06c-.07.25-.29.33-.55.19l-62.17-35.35a1.09 1.09 0 0 1 -.5-1z" fill="#fff" opacity=".4"/><path d="m34.61 29.48 17.18 9.85 17.21 9.8 17.21 9.8 8.6 4.9 2.19 1.23a9.73 9.73 0 0 1 1.9 1.5 19 19 0 0 1 3 3.89 15 15 0 0 0 -2.77-4.11 9.36 9.36 0 0 0 -.92-.86 6.42 6.42 0 0 0 -1-.74l-2.21-1.22-8.61-4.92-17.2-9.82-17.19-9.78-17.22-9.81z" fill="#fff" opacity=".2"/><path d="m104 96.47 8.09 4.24-1.83.37-78.35-44.62 1-.63z" fill="#fff" opacity=".2"/><g mask="url(#L)" opacity=".5"><path d="m58.9 81.2s.07-1.32-1.26-5.42c-1.39-4.27-3.75-6.4-7.35-8.62s-6.21-1.48-6.29-1.44l.14.42s2.42-.77 5.93 1.4 5.81 4.24 7.16 8.38c1.29 4 1.25 5.24 1.24 5.25z" fill="url(#M)"/></g><path d="m99 74.93a2.46 2.46 0 0 0 0 .7c.08 1.68.32 8.59 1.4 10.85 1.66 3.47 6.41 7 13 9.88l3.14 1.64a1.26 1.26 0 0 0 .31 0c.34 0 .82-.16.66-1.1.22.79.5 2.1 0 2.57-.67.67-3.18-1-5.46-2.24s-10.63-5-12.34-9.66-.88-12.42-.71-12.64z" fill="#fff" opacity=".3"/><path d="m82.82 68.11h.23v55.25h-.23z" opacity=".1" transform="matrix(.4937901 -.86958113 .86958113 .4937901 -41.27 120.59)"/><g mask="url(#O)"><path d="m110.61 59.41 6.65 9.59a1 1 0 0 1 -.15 1.54c-.92.64-4.28 2.52-4.28 2.52s-1.39.42-2-.53-7-9.61-7-9.61l6.9 11a2.44 2.44 0 0 0 3 .78 23.71 23.71 0 0 0 4.36-2.46s1.93-.89.18-3.21-7.66-9.62-7.66-9.62z" fill="url(#P)" opacity=".3"/></g><path d="m110.61 59.41 6.65 9.59a1 1 0 0 1 -.15 1.54c-.92.64-4.28 2.52-4.28 2.52s-1.39.42-2-.53-7-9.61-7-9.61l6.9 11a2.44 2.44 0 0 0 3 .78 23.71 23.71 0 0 0 4.36-2.46s1.93-.89.18-3.21-7.66-9.62-7.66-9.62z" fill="url(#Q)" opacity=".1"/><g mask="url(#S)"><path d="m125.1 50.6 6.65 9.58a1 1 0 0 1 -.15 1.54c-.91.63-4.28 2.52-4.28 2.52s-1.39.41-2-.53-7-9.61-7-9.61l6.9 11a2.44 2.44 0 0 0 3 .78 23.71 23.71 0 0 0 4.36-2.46s1.93-.9.18-3.21-7.66-9.61-7.66-9.61z" fill="url(#T)" opacity=".3"/></g><path d="m125.1 50.6 6.65 9.58a1 1 0 0 1 -.15 1.54c-.91.63-4.28 2.52-4.28 2.52s-1.39.41-2-.53-7-9.61-7-9.61l6.9 11a2.44 2.44 0 0 0 3 .78 23.71 23.71 0 0 0 4.36-2.46s1.93-.9.18-3.21-7.66-9.61-7.66-9.61z" fill="url(#U)" opacity=".1"/><path d="m99.62 74.37a.8.8 0 0 1 .28 0s3.86 2 5.67 3.19a13.22 13.22 0 0 1 3.24 3.22s7.87 13.46 8.56 15.53c.48 1.45-.12 1.67-.52 1.67a1.26 1.26 0 0 1 -.31 0l-3.21-1.61c-6.54-2.85-11.29-6.41-13-9.88-1.08-2.26-1.32-9.17-1.4-10.85-.01-1.08.4-1.27.69-1.27z" fill="#131b1d"/><path d="m107.08 79.62a15.81 15.81 0 0 1 1.26 1.51c1.18 2 2.83 4.89 4.37 7.62v6.75a44.13 44.13 0 0 1 -5.16-2.76z" fill="#303e42"/><path d="m99.63 74.93c.4.21 3.92 2.09 5.6 3.15a8.27 8.27 0 0 1 1.1.85l.52 13.35c-3-2-5-4-6-6s-1.2-8.28-1.29-10.28v-.39a1.12 1.12 0 0 1 .07-.68z" fill="#303e42"/><path d="m111.59 77.88c1.31-.65 11.25-6.25 14.76-8.59s10-6.44 10-6.44a1.09 1.09 0 0 1 .65-.23c.34 0 .77.18 1.18.86.86 1.45 9.86 15.59 9.86 15.59a10.42 10.42 0 0 1 -3.52 4.83 90.32 90.32 0 0 1 -16.22 10.18 16 16 0 0 1 -6.53 1.79 3.8 3.8 0 0 1 -1.44-.19l-9.59-16.2s-.47-.96.85-1.6z" fill="#131b1d"/><path d="m111.83 78.38c1.39-.68 11.33-6.29 14.83-8.62s9.94-6.39 10-6.44a.53.53 0 0 1 .29-.1c.28 0 .53.32.7.59.8 1.36 8 12.78 9.18 14.65a13.1 13.1 0 0 1 -3.6 4 88.79 88.79 0 0 1 -15.87 9.8c-3.08 1.42-5.07 2-6.24 2a4.66 4.66 0 0 1 -1.24-.27l-8.69-14.74c0-.18-.04-.54.64-.87z" fill="#303e42"/><path d="m128.31 94.08a90.32 90.32 0 0 0 16.22-10.18 10.42 10.42 0 0 0 3.52-4.83s1.28 2.63 0 4.49-7.58 6.07-10.1 7.68-10.5 5.63-12.41 5.92-4.87-.89-5.22-1.48c.02 0 2.38 1 7.99-1.6z" fill="#4d595b"/><g fill="#c4cfd2" opacity=".7"><path d="m136.31 63.55.35-.23a.53.53 0 0 1 .29-.1c.28 0 .53.32.7.59.39.66 2.3 3.72 4.29 6.89l.28 5.48s.13.6-3.48-1.65z"/><path d="m135.63 64 2.26 9.93-.1-.07a18.26 18.26 0 0 1 -6.2-7.29z"/></g><path d="m143.29 82.41a88.79 88.79 0 0 1 -15.87 9.8c-3.08 1.42-5.07 2-6.24 2a4.66 4.66 0 0 1 -1.24-.27l-2.28-3.88a87.23 87.23 0 0 1 12.43-8.84 133.48 133.48 0 0 1 12.15-6.12l4.65 3.29a13.1 13.1 0 0 1 -3.6 4.02z" fill="#39474b"/><path d="m115.89 87.09c.42-1.33 1.82-2.39 3.29-3.14a3.48 3.48 0 0 1 4 .65 36 36 0 0 1 3 4c1 1.4-4.15 3.64-5.68 3.32a7.64 7.64 0 0 1 -2.39-1.09z" fill="#3d4b50"/><path d="m126.66 69.76c3.46-2.3 9.94-6.39 10-6.44a.53.53 0 0 1 .29-.1c.28 0 .53.32.7.59.8 1.36 8 12.78 9.18 14.65a11.21 11.21 0 0 1 -2.82 3.31 39.68 39.68 0 0 0 -19.01-10.95c.63-.39 1.2-.76 1.66-1.06z" fill="#fff" opacity=".2"/><path d="m122.48 106.09a12.74 12.74 0 0 0 7.88 1.37c3.68-.6 9.35-3.5 13.61-6.1s8.31-5.58 9.92-7.36a7.07 7.07 0 0 0 1.58-3.14 13.18 13.18 0 0 1 2 5.55c.33 2.78.57 6.49-.6 9.45s-4.17 5.13-9.25 8.22-11.16 6.15-15.38 6.48a15.05 15.05 0 0 1 -7.08-1l-.11-.05a66.21 66.21 0 0 0 -2.47-6.59 14.5 14.5 0 0 0 -2.6-3.52l1.21-2.16.19-.34z" fill="#404b4d"/><path d="m121.41 106.85 1.07-.76a12.74 12.74 0 0 0 7.88 1.37c3.68-.6 9.35-3.5 13.61-6.1s8.31-5.58 9.92-7.36a7.07 7.07 0 0 0 1.58-3.14 12.57 12.57 0 0 1 1.27 2.51 7.47 7.47 0 0 1 -3.81 5.87s-3.12 2.13-6.43 4.15c-2.87 1.76-5.89 3.39-7.15 4a18.72 18.72 0 0 1 -8.63 2.43c-3.89.34-8.27-2-9.49-2.68z" fill="#5a6567"/><path d="m144 101.36a66.73 66.73 0 0 0 8.82-6.29 8.07 8.07 0 0 1 2 2.57 41.05 41.05 0 0 1 .48 6 64.82 64.82 0 0 1 -7.24 5 69.32 69.32 0 0 1 -9.46 5.07l-2.18-4.87-2.42-2.43a64.62 64.62 0 0 0 10-5.05z" fill="#c4cace"/><path d="m139.41 107.9c1.26-.63 4.28-2.26 7.15-4 3.31-2 6.43-4.16 6.43-4.16.91-.54.91.84.91.84l.1 3.58c-1.33 1-3.21 2.19-6.2 4.16a74.91 74.91 0 0 1 -7.66 4.22l-1.18-3a1.16 1.16 0 0 1 .45-1.64z" fill="#4d595b"/><path d="m140 112.05-1-2.52a1.16 1.16 0 0 1 .45-1.63c1.26-.63 4.28-2.26 7.15-4 3.31-2 6.43-4.16 6.43-4.16l.14-.07a1.84 1.84 0 0 1 .13.66l.11 3.58c-1.33 1-3.21 2.2-6.2 4.16a72.69 72.69 0 0 1 -7.21 3.98z" fill="#1b2628"/><path d="m152.86 104.27-.32.22-.34-4.24.32-.21z" fill="#333e40"/><path d="m151.29 105.34-.32.21-.42-4.2.32-.21z" fill="#333e40"/><path d="m149.33 106.63-.32.21-.56-4.14.31-.2z" fill="#333e40"/><path d="m147.23 108h-.06l-.25.15-.82-4 .31-.19z" fill="#333e40"/><path d="m141.24 111.41-.3.15-1.3-3.78.31-.15z" fill="#333e40"/><path d="m143.07 110.45-.3.17-1.21-3.85.3-.17z" fill="#333e40"/><path d="m145.12 109.31-.3.17-1-4 .3-.18z" fill="#333e40"/><path d="m105.69 104.56-.16 2a.54.54 0 0 1 -.74.52l-44.65-25.4-.85-3.58z" fill="#5a6567"/><path d="m44.3 65.52 1.32 3.09a2.8 2.8 0 0 0 -1.82 1.78 7.21 7.21 0 0 0 0 2.77c-2.62-1.52-12.18-7.16-13.2-8.25-1.17-1.28-1.45-5.76-1.53-7.2s.56-1.92.56-1.92l.62 1.82z" fill="#5a6567"/><path d="m152.79 95.07a8.07 8.07 0 0 1 2 2.57.24.24 0 0 1 0 .09 7.8 7.8 0 0 1 -1.9 1.51s-3.12 2.13-6.43 4.15c-2.87 1.76-5.89 3.39-7.15 4a31.73 31.73 0 0 1 -2.95 1.35l-2.36-2.33a64.62 64.62 0 0 0 9.95-5 66.73 66.73 0 0 0 8.84-6.34z" fill="#dfe5e9"/><path d="m139.67 111.32a71.52 71.52 0 0 0 7.36-4.1l1.75-1.14c2.06-1.35 3.47-2.27 4.56-3.07v.41c-1.07.77-2.44 1.67-4.39 2.94l-1.74 1.14a72 72 0 0 1 -7.42 4.14z" fill="#404b4d"/><path d="m153.33 102.53c-1.08.77-2.47 1.68-4.45 3l-1.75 1.14a74.28 74.28 0 0 1 -7.63 4.24l-.12-.31a76 76 0 0 0 7.57-4.21l1.75-1.15c2.09-1.37 3.52-2.3 4.62-3.1z" fill="#404b4d"/><path d="m153.3 101.59c-1.08.78-2.47 1.69-4.45 3l-1.75 1.14a76.47 76.47 0 0 1 -7.91 4.38l-.13-.32a75 75 0 0 0 7.85-4.34l1.75-1.15c2.1-1.37 3.53-2.3 4.63-3.11z" fill="#404b4d"/><path d="m148.73 103.6-1.73 1.15a83.38 83.38 0 0 1 -8.14 4.5 1.7 1.7 0 0 1 -.06-.35 79.87 79.87 0 0 0 8-4.43l1.75-1.15c2.15-1.41 3.59-2.35 4.7-3.17v.16.25c-1.07.79-2.48 1.71-4.52 3.04z" fill="#404b4d"/><g mask="url(#W)"><path d="m136.39 113.25c1-.22 1.18.09 1.37.55s.44 1.14 0 1.45a19.16 19.16 0 0 1 -4.35 1l-.33-1z" fill="url(#X)"/></g><path d="m133.2 116a28.44 28.44 0 0 1 -5.21-.33 2.34 2.34 0 0 1 -1.73-1s.1.84 1.42 1.13a20.55 20.55 0 0 0 5.75.44 19.16 19.16 0 0 0 4.35-1 32.81 32.81 0 0 1 -4.58.76z" fill="#4d595b"/><path d="m133.37 118.1-3.92-.09s-.76 0-.47.58a2.19 2.19 0 0 0 1 1.15 12.52 12.52 0 0 0 4 .08c1.93-.2 6.35-2.13 7.63-2.78v-.57a40.93 40.93 0 0 1 -7.08 2.61s-.3-1.02-1.16-.98z" fill="#4d595b"/><path d="m132.65 119a8.88 8.88 0 0 1 -1.65-1l2.33.06c.86 0 1.08 1 1.08 1a40.93 40.93 0 0 0 7.08-2.61v.57a37.7 37.7 0 0 1 -7.21 2.72c-.28-.18-1.02-.52-1.63-.74z" fill="#333e40"/><path d="m129 118.18a.85.85 0 0 1 .46-.17h1.58a1.08 1.08 0 0 1 -1 1.1 1.07 1.07 0 0 1 -1.04-.93z" fill="#f0eff0"/><path d="m132.8 113.91a26.42 26.42 0 0 0 3.59-.66c.05.28.13.79 0 .91s-3.26 1.15-3.26 1.15z" fill="#333e40"/><path d="m143.68 112.68 7.69-4.68a.32.32 0 0 1 .18-.06.27.27 0 0 1 .27.3l.05 1.5a.77.77 0 0 1 -.32.59l-7.65 4.61a.49.49 0 0 1 -.19 0 .28.28 0 0 1 -.27-.3l-.07-1.43a.69.69 0 0 1 .31-.53z" opacity=".2"/><path d="m143.79 112.87 7.7-4.68a.1.1 0 0 1 .06 0s0 0 0 .08v1.5a.47.47 0 0 1 -.21.38l-7.65 4.61h-.07s-.05-.06-.05-.09l-.07-1.43a.48.48 0 0 1 .29-.37z" fill="#fff"/><path d="m154.11 105.16v-.62c-1.31 1-3.15 2.19-6.06 4a76.13 76.13 0 0 1 -7.77 4.31v.64c0 .58.62.27.62.27a77.8 77.8 0 0 0 7.16-4c2.59-1.64 4.34-2.78 5.61-3.71a1.09 1.09 0 0 0 .44-.89z" fill="#4d595b"/><path d="m153.5 105a1.12 1.12 0 0 1 -.44.92c-1.27.92-3 2.06-5.61 3.7a73.06 73.06 0 0 1 -7.16 4s0-.06 0-.1v-.64a76.13 76.13 0 0 0 7.77-4.31c2.48-1.57 4.18-2.68 5.44-3.57z" fill="#1b2628"/><path d="m151.41 107.05c-.1.08-.22.15-.33.23v-.65l.33-.22z" fill="#404b4d"/><path d="m152.94 106-.33.24v-.62l.33-.23z" fill="#404b4d"/><path d="m149.54 108.29-.34.21v-.66l.33-.21z" fill="#404b4d"/><path d="m147.45 109.62-.34.21v-.67l.33-.21z" fill="#404b4d"/><path d="m145.42 110.86-.34.19v-.69l.33-.19z" fill="#404b4d"/><path d="m143.29 112.06-.33.19v-.72l.33-.18z" fill="#404b4d"/><path d="m141.57 113-.34.17v-.73l.33-.17z" fill="#404b4d"/><path d="m129.26 118a.74.74 0 0 1 .19 0h1.34a.83.83 0 0 1 -.76.76.84.84 0 0 1 -.77-.76z" fill="#fff"/><path d="m146.1 106.74a.84.84 0 0 0 1.29.54 1.54 1.54 0 0 0 .55-1.71.86.86 0 0 0 -1.3-.54 1.53 1.53 0 0 0 -.54 1.71z" fill="#4d595b"/><path d="m146.24 106.66a.73.73 0 0 0 1.12.47 1.32 1.32 0 0 0 .47-1.48.74.74 0 0 0 -1.12-.47 1.33 1.33 0 0 0 -.47 1.48z" fill="#d1d4d6"/><path d="m156.05 103.76-.11-1.73a.82.82 0 0 1 .28-.49 12.73 12.73 0 0 0 1.48-3 24.61 24.61 0 0 1 0 3.33l-1.31 2s-.39.51-.34-.11z" fill="#333e40"/><path d="m111.76 95.18a6.2 6.2 0 0 0 -.32-2.69 1.83 1.83 0 0 0 -2.06-.82c-1 .15-2.91.73-3 1.76s-.1 4.21-.1 4.21a1.4 1.4 0 0 0 .95 1.18 13.32 13.32 0 0 0 3.38.37s1.22-.09 1.21-1.22-.06-2.79-.06-2.79z" fill="#404b4d"/><path d="m109.38 91.67a1.83 1.83 0 0 1 2.06.82 1.63 1.63 0 0 1 .21.53c-1 .33-2.3.77-2.83.88a2.68 2.68 0 0 1 -2.34-.84c.52-.8 2.05-1.26 2.9-1.39z" fill="#5a6567"/><path d="m113.92 91.34a8.94 8.94 0 0 1 -2 2.58 15.15 15.15 0 0 1 -3.1.76v3.95h1.89a2.4 2.4 0 0 0 2-.88c.3-.46 1.2-1.9 1.2-1.9l.12-1.11a11.9 11.9 0 0 1 -1.94 2.77 6.75 6.75 0 0 1 -2.76.46v-2.68s1.89-.28 2.6-.5 2-2.2 2-2.2z" fill="#333e40"/><path d="m111.54 92.68a14.69 14.69 0 0 0 1.29-1.68l1.09.3a8.94 8.94 0 0 1 -2 2.58l-.2.08a4.14 4.14 0 0 0 -.18-1.28z" fill="#5a6567"/><path d="m106.31 94.18a3.6 3.6 0 0 0 1.46 1v2.47a6.6 6.6 0 0 1 -1.48-.55c-.03-.69-.02-1.99.02-2.92z" fill="#c4cace"/><path d="m111.8 97.66c0-1.1 0-2.48 0-2.48s0-.13 0-.34h.16a1.59 1.59 0 0 0 .56-.4l1.55.34a11.9 11.9 0 0 1 -1.94 2.77 1.37 1.37 0 0 1 -.32.16z" fill="#4d595b"/><path d="m146.65 76.23v-6a6.36 6.36 0 0 1 .37-1.77c.24-.38.73-.48 1.5 0a2.83 2.83 0 0 1 1.47 2.8 27.35 27.35 0 0 1 -.18 3.32 7.5 7.5 0 0 1 -.89 1.85 5.67 5.67 0 0 1 -1.94.26z" fill="#404b4d"/><path d="m147 76.71-.31-.48v-6s0-.13 0-.32c.59.07 1.55.42 1.64 1.18.11.92.23 4.07.18 5.48a10.55 10.55 0 0 1 -1.51.14z" fill="#333e40"/><path d="m148.3 71.12c-.09-.76-1.05-1.11-1.64-1.18a4.69 4.69 0 0 1 .34-1.45c.24-.38.73-.48 1.5 0a2.64 2.64 0 0 1 1.17 1.23 8.66 8.66 0 0 1 -1.35 1.59c-.01-.07-.01-.14-.02-.19z" fill="#5a6567"/><path d="m148.62 76.17a4.73 4.73 0 0 1 -1.71.47l-.54-.85a4.34 4.34 0 0 0 2.12-.64l-.08-2.47-3.52.78c-.14-.21-.28-.42-.41-.63l4-1 1.21-1.45a12 12 0 0 1 0 4 13.23 13.23 0 0 1 -1.07 1.79z" fill="#404b4d"/><path d="m146.63 71.61 1.73.29-3.88.93-.39-.61z" fill="#5a6567"/><path d="m146.65 75.11h1.84s-.33.43-2.12.64l-.22-.34z" fill="#5a6567"/><path d="m99.27 92.73s.79.39.83-.42.12-1.62.12-2 0-1.08-.4-1.33-1.13-.7-1.13-.7-.47-.36-.58.59a13.37 13.37 0 0 0 .11 2.88c.06.35.5.66 1.05.98z" fill="#5a6567"/><path d="m98.7 92.06.82.44c.12 0 .34-.07.38-.78a7.79 7.79 0 0 0 0-2.14 3.15 3.15 0 0 0 -1.07-.75c-.24-.09-.52-.21-.53.44s.07 1.82.07 2.09a.83.83 0 0 0 .33.7z" fill="#4e5a5c"/><path d="m98.29 89.27c0-.65.29-.53.53-.44a3.15 3.15 0 0 1 1.07.75v.08a4 4 0 0 0 -.85-.52c-.24-.09-.52-.21-.53.44s.07 1.82.07 2.09a1 1 0 0 0 .08.38.8.8 0 0 1 -.33-.69c.03-.27-.04-1.44-.04-2.09z" fill="#414c4e"/><path d="m99.05 92.25s0-1.59 0-2.29a1.88 1.88 0 0 1 .22-1l.15.17a3.06 3.06 0 0 0 -.2.8v2.19z" fill="#414c4e"/><path d="m99.05 92.25s0-1.59 0-2.29a1.88 1.88 0 0 1 .22-1l-.27-.15a5.34 5.34 0 0 0 -.27.92v2.33z" fill="#5a6567"/><g opacity=".2"><path d="m138.12 92.75 1.15 1.19-.08.08-1.15-1.19z"/><path d="m139.83 91.76 1.16 1.19-.09.08-1.15-1.19z"/><path d="m140.27 91.5 1.15 1.19-.08.08-1.15-1.19z"/><path d="m140.66 91.26 1.15 1.19-.08.08-1.15-1.19z"/><path d="m141.54 90.82h.11v1.66h-.11z" transform="matrix(.71861196 -.69541128 .69541128 .71861196 -23.89 124.27)"/><path d="m141.89 90.55h.11v1.65h-.11z" transform="matrix(.71824775 -.69578745 .69578745 .71824775 -23.59 124.5)"/><path d="m141.8 90.46 1.15 1.19-.08.07-1.15-1.19z"/><path d="m142.68 90.01h.11v1.66h-.11z" transform="matrix(.71873332 -.69528585 .69528585 .71873332 -23.01 124.8)"/><path d="m142.64 89.93 1.15 1.19-.08.07-1.15-1.19z"/><path d="m143.02 89.68 1.16 1.19-.09.08-1.15-1.19z"/><path d="m143.4 89.39 1.15 1.19-.08.08-1.15-1.19z"/><path d="m144.32 88.92h.11v1.66h-.11z" transform="matrix(.71849058 -.69553669 .69553669 .71849058 -21.78 125.69)"/><path d="m144.23 88.88 1.15 1.19-.08.07-1.15-1.19z"/><path d="m145.02 88.36h.11v1.66h-.11z" transform="matrix(.71885466 -.6951604 .6951604 .71885466 -21.21 125.94)"/><path d="m145.46 88.08h.11v1.65h-.11z" transform="matrix(.71873332 -.69528585 .69528585 .71873332 -20.89 126.18)"/><path d="m145.85 87.76h.11v1.65h-.11z" transform="matrix(.71861196 -.69541128 .69541128 .71861196 -20.55 126.4)"/><path d="m138.18 92.83h.11v1.66h-.11z" transform="matrix(.71836917 -.69566208 .69566208 .71836917 -26.22 122.55)"/><path d="m137.31 93.26 1.16 1.19-.09.08-1.15-1.19z"/><path d="m137.31 93.31h.11v1.65h-.11z" transform="matrix(.71861196 -.69541128 .69541128 .71861196 -26.8 122.03)"/><path d="m136.46 93.71 1.15 1.19-.08.08-1.16-1.19z"/><path d="m136.48 93.76h.11v1.66h-.11z" transform="matrix(.71849058 -.69553669 .69553669 .71849058 -27.36 121.6)"/><path d="m135.55 94.23 1.15 1.19-.08.08-1.15-1.19z"/><path d="m135.1 94.46 1.15 1.19-.09.08-1.15-1.19z"/><path d="m134.63 94.7 1.15 1.19-.08.08-1.15-1.19z"/><path d="m134.2 94.92 1.15 1.19-.08.08-1.15-1.19z"/><path d="m133.76 95.11 1.15 1.19-.08.08-1.15-1.19z"/><path d="m133.83 95.18h.11v1.66h-.11z" transform="matrix(.71873332 -.69528585 .69528585 .71873332 -29.1 120.1)"/><path d="m132.86 95.62 1.15 1.19-.08.07-1.15-1.19z"/><path d="m132.42 95.83 1.15 1.19-.08.08-1.15-1.19z"/><path d="m132 96.05 1.15 1.19-.08.08-1.15-1.19z"/></g><path d="m99.19 104 .21-.08a68.5 68.5 0 0 1 -2.29-15.61c-.14-6.22.55-15.3.56-15.39h-.23c0 .09-.7 9.17-.56 15.4a67.46 67.46 0 0 0 2.31 15.68z" opacity=".1"/><path d="m150 87.45a2.33 2.33 0 0 0 1.11-1.61 8 8 0 0 0 -.3-2.72l-.18-.74.37.62c1.24 2.14 3.57 6.28 4 7.09a5.61 5.61 0 0 1 -2.21 3.47l-.14.09v-.17c-.37-2-2.69-5.94-2.72-6l-.06-.11z" fill="#86959e"/><path d="m151.37 85.88a6.25 6.25 0 0 0 -.15-2.09c0 .07 0-.16 0-.41 1.17 2 3.07 5.39 3.69 6.51-.06.16-.1.28-.08.31a5.46 5.46 0 0 1 -2 3.18 27 27 0 0 0 -2.66-5.79 2.54 2.54 0 0 0 1.2-1.71z" fill="#e3e2e3"/><path d="m122 97.44.1-.08.07.1a7.08 7.08 0 0 0 2.83 2.21 5.72 5.72 0 0 0 2.12.31 15.7 15.7 0 0 0 3-.34h.07v.06a43.71 43.71 0 0 1 3.6 5.49l.06.11h-.11a18.81 18.81 0 0 1 -5.47 1.17 6.76 6.76 0 0 1 -1-.08 5.69 5.69 0 0 1 -3.66-2.61c-.11-.15-.2-.27-.27-.35-1-1.22-2.29-2.9-2.28-3.94a3.09 3.09 0 0 1 .94-2.05z" fill="#86959e"/><path d="m122.06 97.7a7.28 7.28 0 0 0 2.94 2.18 6.16 6.16 0 0 0 2.21.33 15.92 15.92 0 0 0 3-.34 44.49 44.49 0 0 1 3.48 5.29 17.76 17.76 0 0 1 -5.27 1.11 6.19 6.19 0 0 1 -1-.07 5.47 5.47 0 0 1 -3.52-2.53c-.11-.14-.2-.27-.28-.36-1.44-1.69-2.23-3-2.23-3.79a2.87 2.87 0 0 1 .67-1.82z" fill="#e3e2e3"/><path d="m122.24 100.68c0 .43.31.6.69.39a1.52 1.52 0 0 0 .67-1.18c0-.44-.31-.61-.68-.39a1.48 1.48 0 0 0 -.68 1.18z" fill="#ef9042"/><path d="m124 103.07c0 .85.6 1.19 1.33.77a3 3 0 0 0 1.33-2.32c0-.85-.6-1.19-1.34-.76a2.92 2.92 0 0 0 -1.32 2.31z" fill="#fff"/><path d="m127.13 104.37c0 1.15.82 1.61 1.81 1a4 4 0 0 0 1.79-3.13c0-1.14-.82-1.61-1.81-1a4 4 0 0 0 -1.79 3.13z" fill="#fff"/><path d="m151.34 89.61a3.42 3.42 0 0 1 .85-1.41c.63-.56 1.15-.11 1.15 1a4.8 4.8 0 0 1 -.91 2.77 25.41 25.41 0 0 0 -1.09-2.36z" fill="#fff"/><path d="m151 87a2.46 2.46 0 0 1 .56-.84c.5-.44.91-.08.92.8a3.73 3.73 0 0 1 -.1.8z" fill="#fff"/><g mask="url(#Z)"><path d="m151.37 85.88a6.25 6.25 0 0 0 -.15-2.09c0 .07 0-.16 0-.41 1.17 2 3.07 5.39 3.69 6.51-.06.16-.1.28-.08.31a5.46 5.46 0 0 1 -2 3.18 27 27 0 0 0 -2.66-5.79 2.54 2.54 0 0 0 1.2-1.71z" fill="url(#aa)"/></g><g mask="url(#ac)"><path d="m122.06 97.7a7.28 7.28 0 0 0 2.94 2.18 6.16 6.16 0 0 0 2.21.33 15.92 15.92 0 0 0 3-.34 44.49 44.49 0 0 1 3.48 5.29 17.76 17.76 0 0 1 -5.27 1.11 6.19 6.19 0 0 1 -1-.07 5.47 5.47 0 0 1 -3.52-2.53c-.11-.14-.2-.27-.28-.36-1.44-1.69-2.23-3-2.23-3.79a2.87 2.87 0 0 1 .67-1.82z" fill="url(#ad)"/></g><path d="m30.25 57.61-.62-1.82.03-9.65 1.09 3.13.04 8.65z" fill="#bc202e"/><path d="m29.65 50.03.53.59.02 4.73-.57-.76z" fill="#e3e2e3"/><path d="m142.83 94.88v.08a.79.79 0 0 0 -.38.66c0 .08 0 .21.05.4l.21 1.22a2.46 2.46 0 0 0 .06.3c.13.31.68-.13.79-.36a3.54 3.54 0 0 0 .21-.74l.48-2.48.28-.18.83 2c.13.25.36.21.57.08l.51-.32v.09l-1.82 1.16v-.11a.6.6 0 0 0 .26-.69l-.59-1.4-.28 1.59c-.08.43-.21.94.37.65v.11l-2.38 1.55v-.09c.39-.27.4-.5.33-.93l-.33-1.37a1.09 1.09 0 0 0 0-.25c-.14-.34-.66.08-.79.33a3.51 3.51 0 0 0 -.2.74l-.49 2.48-.28.18-.83-2c-.12-.26-.36-.21-.56-.08l-.4.25v-.09l1.71-1.09v.11a.61.61 0 0 0 -.26.69l.6 1.4.28-1.59c.08-.43.21-.94-.38-.66v-.1l2.48-1.57z" fill="#ab0033" fill-rule="evenodd"/><path d="m140.61 100.03-.1.68-.22.14-.28-.44.15-.09.22.36.07-.54z" fill="#221f20"/><path d="m141 100.41-.15.1-.09-.56.15-.1zm-.1-.61-.15.09v-.12l.15-.1z" fill="#221f20"/><path d="m141.7 100-.38.25h-.08-.05a.64.64 0 0 1 0-.07.25.25 0 0 1 0-.08.64.64 0 0 1 0-.07.12.12 0 0 1 0 0l.09-.06.17-.12v.14l-.17.1s0 0 .05 0l.22-.15v-.21a.08.08 0 0 1 0 0h-.06l-.3.19v-.13l.37-.23h.07.05s0 0 0 0a.64.64 0 0 1 0 .07l.06.39z" fill="#221f20"/><path d="m142.2 99.17-.18.12a0 0 0 0 0 0 0l.06.35-.15.09-.09-.55.15-.1v.07a.18.18 0 0 1 .09-.13l.16-.1v.13z" fill="#221f20"/><path d="m142.91 99-.35.23v-.14l.21-.13a.08.08 0 0 1 0 0s0 0-.07 0l-.12.07a0 0 0 0 1 0 0s0 0 0 0v.14a.1.1 0 0 0 0 0s0 0 0 0h.05l.31-.19v.13l-.36.23h-.08s0 0 0 0a0 0 0 0 1 0 0s0 0 0 0v-.24a.22.22 0 0 1 0-.14.31.31 0 0 1 .13-.12l.21-.14a.28.28 0 0 1 .13-.06.07.07 0 0 1 .06 0s0 0 0 .07v.18z" fill="#221f20"/><path d="m143.67 98.7-.14.1-.06-.34a.2.2 0 0 0 0 0 .09.09 0 0 0 -.06 0l-.12.08a0 0 0 0 0 0 0s0 0 0 0l.05.35-.15.09-.09-.55.15-.1v.07a.2.2 0 0 1 .08-.13l.16-.1a.62.62 0 0 1 .12-.06.05.05 0 0 1 .06 0 .14.14 0 0 1 0 .07l.06.39z" fill="#221f20"/><path d="m144.11 98.43-.12.08h-.12s-.05 0-.06 0a.08.08 0 0 1 0-.06l-.1-.58.15-.1v.19l.15-.1v.14l-.14.09v.21a.08.08 0 0 1 0 0s0 0 0 0h.05.07v.13z" fill="#221f20"/><path d="m145 97.88-.31.19-.08.05h-.05s0 0 0 0a.05.05 0 0 1 0 0 .11.11 0 0 1 0-.06v-.24s0-.07 0-.09a.1.1 0 0 1 0-.07h.05l.08-.06.31-.2v.13l-.25.17v.08.13a.08.08 0 0 1 0 0s0 0 0 0l.26-.16v.14z" fill="#221f20"/><path d="m145.66 97.27a.34.34 0 0 1 0 .09s0 0 0 .06l-.05.06-.09.06-.23.15-.12.06a.05.05 0 0 1 -.06 0 .14.14 0 0 1 0-.07v-.24a.27.27 0 0 1 0-.09.07.07 0 0 1 0-.06v-.06a.35.35 0 0 0 .09-.06l.23-.14h.08.05s0 0 0 0a.05.05 0 0 1 0 0 .11.11 0 0 1 0 .06v.24zm-.16 0v-.13s0 0 0 0a0 0 0 0 0 0 0h-.06l-.12.08v.08.13a.1.1 0 0 1 0 0s0 0 0 0h.06l.11-.08a0 0 0 0 0 0 0 .09.09 0 0 0 0 0z" fill="#221f20"/><path d="m146.71 96.78-.15.1-.05-.35s0 0 0 0h-.06-.06a0 0 0 0 0 0 0l.06.35-.15.09-.06-.38s0 0 0 0h-.06-.06a0 0 0 0 0 0 0 .09.09 0 0 0 0 0l.05.34-.15.09-.09-.55.15-.09v.06a.2.2 0 0 1 .09-.13l.1-.06.11-.06a.08.08 0 0 1 .06 0 .13.13 0 0 1 0-.07l.07-.06.1-.06a.22.22 0 0 1 .12-.06s.05 0 .06 0a.35.35 0 0 1 0 .06l.07.4z" fill="#221f20"/><path d="m144.38 98.26-.14.09-.03-.14.14-.09z" fill="#221f20"/><g fill-rule="evenodd"><path d="m72.57 73.44v77.85l28.6-16.51-19.99-14.51 17.47-10.09-18.57-13.48 13.67-7.88z" fill="#173140"/><path d="m43.97 167.8 19.99-37.59-17.47 10.08 18.56-34.91-13.66 7.89 21.18-39.83 21.18 15.38-13.67 7.88 18.57 13.48-17.47 10.09 19.99 14.51z" fill="#8aaf55"/><path d="m72.57 73.44 21.18 15.38-13.67 7.88 18.57 13.48-17.47 10.09 19.99 14.51-28.6 16.51z" fill="#668d2f"/><path d="m89.87 92.29v49.01l18.01-10.39-12.59-9.14 11-6.35-11.68-8.49 8.6-4.96z" fill="#173140"/><path d="m71.87 151.7 12.58-23.67-11 6.35 11.69-21.98-8.6 4.96 13.33-25.07 13.34 9.68-8.6 4.96 11.68 8.49-11 6.35 12.59 9.14z" fill="#8aaf55"/><path d="m89.87 92.29 13.34 9.68-8.6 4.96 11.68 8.49-11 6.35 12.59 9.14-18.01 10.39z" fill="#668d2f"/><path d="m316.33 39.93v77.86l28.6-16.51-19.99-14.52 17.47-10.08-18.56-13.48 13.66-7.89z" fill="#173140"/><path d="m287.74 134.3 19.98-37.6-17.47 10.09 18.57-34.92-13.66 7.89 21.17-39.83 21.18 15.38-13.66 7.89 18.56 13.48-17.47 10.08 19.99 14.52z" fill="#8aaf55"/><path d="m316.33 39.93 21.18 15.38-13.66 7.89 18.56 13.48-17.47 10.08 19.99 14.52-28.6 16.51z" fill="#668d2f"/><path d="m333.64 58.78v49.02l18-10.4-12.58-9.14 11-6.34-11.69-8.49 8.6-4.97z" fill="#173140"/><path d="m315.63 118.19 12.59-23.67-11 6.35 11.69-21.98-8.61 4.97 13.34-25.08 13.33 9.68-8.6 4.97 11.69 8.49-11 6.34 12.58 9.14z" fill="#8aaf55"/><path d="m333.64 58.78 13.33 9.68-8.6 4.97 11.69 8.49-11 6.34 12.58 9.14-18 10.4z" fill="#668d2f"/></g></g><path d="m341.09 170.21-55.88-9.85a6.18 6.18 0 0 0 -7.23 6.76l5.53 50.49a6.19 6.19 0 0 0 7.72 5.32l44.71-11.73a6.2 6.2 0 0 0 4.51-4.8l5.64-28.91a6.19 6.19 0 0 0 -5-7.28z" fill="#49acca"/><path d="m314.73 181.8v2.54h-16.48a.91.91 0 0 0 -.91.91v9.34a.91.91 0 0 0 .91.91h16.48v2.5a.92.92 0 0 0 .53.83.9.9 0 0 0 1-.13l9.62-8.12a.94.94 0 0 0 .32-.7.9.9 0 0 0 -.32-.69l-9.62-8.13a.93.93 0 0 0 -.59-.21 1 1 0 0 0 -.38.08.93.93 0 0 0 -.56.87zm.91 4.36a.91.91 0 0 0 .91-.91v-1.49l7.3 6.16-7.3 6.16v-1.49a.91.91 0 0 0 -.91-.91h-16.48v-7.52z" fill="#fff"/></svg>