<svg viewBox="0 0 361.36 227.78" xmlns="http://www.w3.org/2000/svg" xmlns:xlink="http://www.w3.org/1999/xlink"><clipPath id="a"><path d="m17.72 38.23 321.2-38.09a20.07 20.07 0 0 1 22.17 23.16l-30.52 187.63a20.07 20.07 0 0 1 -23.3 16.55l-260.62-45.95a20.07 20.07 0 0 1 -15.79-14.18l-30.06-103.59a20.08 20.08 0 0 1 16.92-25.53z"/></clipPath><clipPath id="b"><path clip-path="url(#a)" d="m17.72 38.23 321.2-38.09a20.07 20.07 0 0 1 22.17 23.16l-30.52 187.63a20.07 20.07 0 0 1 -23.3 16.55l-260.62-45.95a20.07 20.07 0 0 1 -15.79-14.18l-30.06-103.59a20.08 20.08 0 0 1 16.92-25.53z"/></clipPath><clipPath id="c"><path d="m278 138.72-119.12-68.8a7.58 7.58 0 0 0 -6.82 0l-59.14 34.15a2.8 2.8 0 0 0 -1.22 1.22 2.58 2.58 0 0 0 1.36 1.6l119.15 68.79a7.55 7.55 0 0 0 6.82 0l59.14-34.14a2.8 2.8 0 0 0 1.22-1.22 2.58 2.58 0 0 0 -1.39-1.6z"/></clipPath><path d="m17.72 38.23 321.2-38.09a20.07 20.07 0 0 1 22.17 23.16l-30.52 187.63a20.07 20.07 0 0 1 -23.3 16.55l-260.62-45.95a20.07 20.07 0 0 1 -15.79-14.18l-30.06-103.59a20.08 20.08 0 0 1 16.92-25.53z" fill="#c8e6ef"/><g clip-path="url(#b)"><path d="m33.32 68.87 253.08-38.53a25.13 25.13 0 0 1 28.72 28l-24.4 192.66a25.14 25.14 0 0 1 -30.49 21.36l-204.32-46.28a25.16 25.16 0 0 1 -19-19l-24.33-107.81a25.15 25.15 0 0 1 20.74-30.4z" fill="#a4d5e4"/></g><path d="m280.17 141.84-119.36-68.91a13.07 13.07 0 0 0 -11.87 0l-56.3 32.5-5.3-1v6.09c0 1.24.82 2.48 2.46 3.43l127.33 73.51a13.13 13.13 0 0 0 11.87 0l59.14-34.15a4.21 4.21 0 0 0 2.45-3.34s0-6.09 0-6.09z"/><path d="m89.8 101.22 59.14-34.14a13.13 13.13 0 0 1 11.87 0l127.33 73.51c3.28 1.89 3.28 5 0 6.85l-59.14 34.15a13.13 13.13 0 0 1 -11.87 0l-127.33-73.51c-3.28-1.89-3.28-4.96 0-6.86z" fill="#4d4d4d"/><path d="m278.17 137.6-119.17-68.79a7.54 7.54 0 0 0 -6.83 0l-59.11 34.19c-1.1.63-1.56 1.5-1.36 2.33a2.58 2.58 0 0 0 1.36 1.6l119.15 68.79a7.55 7.55 0 0 0 6.82 0l59.14-34.14a2.8 2.8 0 0 0 1.22-1.22c.47-.98.05-2.02-1.22-2.76z" fill="#fff"/><path d="m278 138.72-119.12-68.8a7.58 7.58 0 0 0 -6.82 0l-59.14 34.15a2.8 2.8 0 0 0 -1.22 1.22 2.58 2.58 0 0 0 1.36 1.6l119.15 68.79a7.55 7.55 0 0 0 6.82 0l59.14-34.14a2.8 2.8 0 0 0 1.22-1.22 2.58 2.58 0 0 0 -1.39-1.6z" fill="#49acca"/><g fill="#fff"><path d="m256.85 152.34-18.09 10.44-52.47-3.58-21.32-12.31z" opacity=".3"/><path d="m135.02 129.6-12.32-7.11 136.32 6.77 12.04 6.95z" opacity=".3"/><path d="m117.81 119.67-24.09-13.91a2.88 2.88 0 0 1 -.47-.34 2.66 2.66 0 0 1 .33-.21l15.53-9 105.76 7.53 40.2 23.2z" opacity=".3"/><path d="m245.16 163.76 14.34-8.28a6.12 6.12 0 0 1 5.47 0c1.51.87 1.51 2.29 0 3.16l-14.34 8.28a6.06 6.06 0 0 1 -5.47 0c-1.5-.87-1.5-2.29-0-3.16z"/></g><g clip-path="url(#c)"><path d="m154.8 65.33-68.22 39.38 134.86 77.86 68.22-39.38z" fill="#49acca"/><path d="m213.61 99.28v38.02l43.12 24.9 5.25-3.04-40.94-23.64v-31.95z" fill="#fff"/><path d="m141.14 73.21-5.26 3.04 78.82 45.5 5.25-3.03z" fill="#fff"/><path d="m173.41 76.07-68.22 39.39 5.25 3.03 68.22-39.39z" fill="#fff"/><path d="m129.53 104.43-5.25 3.04 113.62 65.6 5.26-3.04z" fill="#fff"/><path d="m265.14 129.03-30.3 17.49 5.25 3.04 30.3-17.5z" fill="#fff"/><path d="m196.53 108.23-51.93 29.98 5.25 3.03 51.93-29.98z" fill="#fff"/><path d="m209 153.35-19.09 11.02 5.26 3.04 19.09-11.03z" fill="#fff"/><g fill="#1e7ba3"><path d="m228.06 136.79 9.04 5.23 11.97-6.91-9.05-5.23z"/><path d="m247.32 147.92 17.07 9.85 6.62-3.82-17.07-9.86z"/><path d="m229.56 158.17 14.66 8.47 6.63-3.83-14.67-8.46z"/><path d="m195.11 138.28 14.67 8.47 6.62-3.83-14.67-8.46z"/><path d="m175.25 149.75 14.66 8.46 6.63-3.82-14.67-8.47z"/><path d="m207.51 168.37 14.66 8.47 6.62-3.83-14.66-8.46z"/><path d="m158.06 139.82 11.53 6.66 6.63-3.82-11.53-6.66z"/><path d="m225.94 118.21 11.53 6.65 6.62-3.82-11.53-6.65z"/><path d="m135.48 126.79 11.39 6.57 6.62-3.82-11.39-6.58z"/><path d="m118.87 117.2 11.53 6.65 6.62-3.82-11.53-6.66z"/><path d="m177.93 128.36 8.39 4.85 21.07-12.17-8.39-4.85z"/><path d="m158.33 117.05 8.39 4.84 21.08-12.16-8.4-4.85z"/><path d="m163.25 119.89 8.39-4.85-24.51-14.15-8.4 4.84z"/><path d="m242.72 128.33 9.04 5.22 7-4.04-9.04-5.22z"/><path d="m170.97 87.12 9.05 5.22 7.74-4.47-9.05-5.22z"/><path d="m97.8 104.64 9.05 5.22 7.74-4.47-9.04-5.22z"/><path d="m152.62 97.71 9.05 5.23 7.74-4.47-9.05-5.23z"/><path d="m135.73 87.96 4.53 2.61 7.74-4.47-4.52-2.61z"/><path d="m122.17 95.79 4.52 2.62 7.75-4.47-4.53-2.62z"/><path d="m108.61 103.62 4.52 2.61 7.74-4.46-4.52-2.62z"/><path d="m149.56 74.76 9.05 5.22 7.74-4.47-9.05-5.22z"/><path d="m181.67 93.29 23.2 13.4 3.88-2.23-23.21-13.4z"/></g></g><path d="m160.39 78.44c.08 28 27.58 47.86 28.74 48.8 1.17-2.28 28.5-42.39 28.42-69 0-7.29-2.6-12.41-6.76-14.8l-11-6.42c-4.19-2.44-10-2.1-16.4 1.6-12.76 7.38-23.04 25.2-23 39.82z" fill="#ab0033"/><path d="m217.55 58.28c.08 26.57-27.25 66.68-28.4 69-1.16-.94-17.6-14.44-17.68-42.42 0-14.62 10.24-32.43 23-39.78s23.04-1.43 23.08 13.2z" fill="#c44c70"/><ellipse cx="195.36" cy="72.58" fill="#fff" rx="16.15" ry="9.99" transform="matrix(.39810874 -.91733823 .91733823 .39810874 51.02 222.9)"/><path d="m78.3 170.21-55.88-9.85a6.18 6.18 0 0 0 -7.23 6.76l5.52 50.49a6.2 6.2 0 0 0 7.72 5.32l44.72-11.73a6.2 6.2 0 0 0 4.51-4.8l5.64-28.91a6.19 6.19 0 0 0 -5-7.28z" fill="#49acca"/><path d="m59.05 185.86a10.89 10.89 0 0 0 .32-2.6 11 11 0 0 0 -22 0 11.41 11.41 0 0 0 .31 2.6 16.43 16.43 0 0 0 1.21 4.29c1.08 2.28 5.64 9.79 7.73 13.21-2.83.36-4.14 1.58-4.14 2.72 0 1.37 1.85 2.84 5.91 2.84s5.92-1.47 5.92-2.84c0-1.14-1.32-2.36-4.14-2.72 2.09-3.42 6.65-10.93 7.73-13.21a16.46 16.46 0 0 0 1.15-4.29zm-6.5 20.22c-.11.33-1.53 1.13-4.21 1.13s-4.13-.82-4.21-1.12c.08-.28 1.24-1 3.43-1.11l.06.09a.84.84 0 0 0 .72.4.86.86 0 0 0 .73-.4v-.09c2.22.13 3.38.81 3.48 1.1zm4.84-20.59s0 0 0 .07a15.4 15.4 0 0 1 -1.07 3.86c-1.09 2.3-6.08 10.49-8 13.57-1.88-3.08-6.87-11.27-8-13.57a15 15 0 0 1 -1.06-3.86.64.64 0 0 0 0-.07 9.32 9.32 0 1 1 18.1 0z" fill="#fff"/><path d="m48.34 177.06a5.92 5.92 0 1 0 5.92 5.94 5.92 5.92 0 0 0 -5.92-5.94zm0 10.13a4.22 4.22 0 1 1 4.22-4.19 4.22 4.22 0 0 1 -4.22 4.19z" fill="#fff"/></svg>