<svg viewBox="0 0 361.36 227.78" xmlns="http://www.w3.org/2000/svg" xmlns:xlink="http://www.w3.org/1999/xlink"><clipPath id="a"><path d="m343.64 38.23-321.2-38.09a20.07 20.07 0 0 0 -22.17 23.16l30.52 187.63a20.06 20.06 0 0 0 23.29 16.55l260.63-45.95a20.08 20.08 0 0 0 15.79-14.18l30.05-103.59a20.07 20.07 0 0 0 -16.91-25.53z"/></clipPath><clipPath id="b"><path clip-path="url(#a)" d="m343.64 38.23-321.2-38.09a20.07 20.07 0 0 0 -22.17 23.16l30.52 187.63a20.06 20.06 0 0 0 23.29 16.55l260.63-45.95a20.08 20.08 0 0 0 15.79-14.18l30.05-103.59a20.07 20.07 0 0 0 -16.91-25.53z"/></clipPath><clipPath id="c"><path d="m238.73 83.52 10.74-5.42a8.36 8.36 0 0 1 7.53 0l14.58 8a3.07 3.07 0 0 1 1.35 1.35 2.85 2.85 0 0 1 -1.51 1.77l-10.74 5.42a8.33 8.33 0 0 1 -7.53 0l-14.58-8a3.12 3.12 0 0 1 -1.35-1.35 2.85 2.85 0 0 1 1.51-1.77z"/></clipPath><path d="m343.64 38.23-321.2-38.09a20.07 20.07 0 0 0 -22.17 23.16l30.52 187.63a20.06 20.06 0 0 0 23.29 16.55l260.63-45.95a20.08 20.08 0 0 0 15.79-14.18l30.05-103.59a20.07 20.07 0 0 0 -16.91-25.53z" fill="#a4d5e4"/><g clip-path="url(#b)"><path d="m313.36-13.58-253.08-38.53a25.14 25.14 0 0 0 -28.73 28l24.45 192.63a25.14 25.14 0 0 0 30.49 21.36l204.32-46.25a25.13 25.13 0 0 0 19-19l24.29-107.81a25.15 25.15 0 0 0 -20.74-30.4z" fill="#80c5da"/><path d="m125.46 125.8 116.09-67a12.77 12.77 0 0 1 11.55 0l54.77 31.62 5.15-1v5.93c0 1.2-.8 2.41-2.39 3.33l-123.85 71.48a12.77 12.77 0 0 1 -11.55 0l-57.53-33.22a4.07 4.07 0 0 1 -2.38-3.25s0-5.92 0-5.92z"/><path d="m117.69 131.24 13.46 7.76 18.19 10.5 25.89 14.94a12.65 12.65 0 0 0 11.55 0l123.86-71.44c3.17-1.85 3.17-4.84 0-6.67l-57.54-33.25a12.86 12.86 0 0 0 -11.56 0l-123.85 71.52c-3.17 1.83-3.17 4.81 0 6.64z" fill="#4d4d4d"/><path d="m127.4 121.68 115.9-66.91a7.33 7.33 0 0 1 6.64 0l57.52 33.23c1.07.62 1.52 1.46 1.32 2.27a2.48 2.48 0 0 1 -1.32 1.56l-115.9 66.91a7.34 7.34 0 0 1 -6.63 0l-57.53-33.23a2.71 2.71 0 0 1 -1.19-1.19c-.45-.91-.05-1.92 1.19-2.64z" fill="#fff"/><path d="m127.54 122.76 115.9-66.91a7.34 7.34 0 0 1 6.63 0l57.52 33.21a2.66 2.66 0 0 1 1.19 1.19 2.48 2.48 0 0 1 -1.32 1.56l-115.9 66.91a7.34 7.34 0 0 1 -6.63 0l-57.53-33.21a2.71 2.71 0 0 1 -1.19-1.19 2.52 2.52 0 0 1 1.33-1.56z" fill="#49acca"/><g fill="#fff"><path d="m148.14 136.01 17.59 10.16 51.04-3.48 20.75-11.97z" opacity=".15"/><path d="m266.64 113.9 11.98-6.92-132.59 6.58-11.71 6.76z" opacity=".15"/><path d="m283.38 104.24 23.44-13.54a2.64 2.64 0 0 0 .45-.32 2.4 2.4 0 0 0 -.31-.21l-15.11-8.73-102.85 7.33-39.1 22.57z" opacity=".15"/><path d="m159.51 147.13-13.95-8a5.87 5.87 0 0 0 -5.32 0c-1.47.84-1.47 2.22 0 3.07l13.95 8a5.87 5.87 0 0 0 5.32 0c1.49-.84 1.49-2.2 0-3.07z"/></g><path d="m148.63 127.06 30 17.33a5.64 5.64 0 0 0 5.12 0l5.39-3.11c1.41-.82 1.41-2.14 0-3l-30-17.33a5.7 5.7 0 0 0 -5.12 0l-5.39 3.12c-1.42.85-1.42 2.18 0 2.99z" fill="#ab0033"/><path d="m131.15 139 18.19 10.5 3.73-2 3.08-2.16a159 159 0 0 0 13.91-10.67s0-.07.09-.09a10.93 10.93 0 0 0 3.36-6.32.56.56 0 0 1 0-.17v-.37c0-.17 0-.33 0-.5-.21-5.4-6.67-8.74-14-3.54l-12.01 7.32-14 6.84z" fill="#49acca" opacity=".4"/><path d="m174.08 105.43 6.73-3.4a5.23 5.23 0 0 1 4.72 0l40.95 23.64a1.88 1.88 0 0 1 .85.85 1.8 1.8 0 0 1 -.94 1.11l-6.73 3.37a5.23 5.23 0 0 1 -4.72 0l-41-23.65a1.88 1.88 0 0 1 -.84-.84 1.78 1.78 0 0 1 .98-1.08z" fill="#fff" opacity=".3"/><path d="m190.36 97.24 6.73-3.39a5.2 5.2 0 0 1 4.72 0l41 23.64a1.9 1.9 0 0 1 .84.85 1.8 1.8 0 0 1 -.94 1.11l-6.73 3.39a5.2 5.2 0 0 1 -4.72 0l-41-23.64a2 2 0 0 1 -.84-.85 1.78 1.78 0 0 1 .94-1.11z" fill="#fff" opacity=".3"/><path d="m206.55 89.24 6.73-3.39a5.2 5.2 0 0 1 4.72 0l41 23.64a1.9 1.9 0 0 1 .84.85 1.8 1.8 0 0 1 -.94 1.11l-6.73 3.39a5.2 5.2 0 0 1 -4.72 0l-41-23.64a1.89 1.89 0 0 1 -.84-.85 1.78 1.78 0 0 1 .94-1.11z" fill="#fff" opacity=".8"/><path d="m238.73 83.52 10.74-5.42a8.36 8.36 0 0 1 7.53 0l14.58 8a3.07 3.07 0 0 1 1.35 1.35 2.85 2.85 0 0 1 -1.51 1.77l-10.74 5.42a8.33 8.33 0 0 1 -7.53 0l-14.58-8a3.12 3.12 0 0 1 -1.35-1.35 2.85 2.85 0 0 1 1.51-1.77z" fill="#fff"/><path d="m-20.64 165.06c-1.36 7.57 5.69 20.45 15.64 28.79 6.67 5.59 13 7.71 16.8 6.26a.46.46 0 0 0 .2-.11l.48-.23 20.62-11.3.87-.35 8.83 3.15 7.66-2.3 4.54-1.34 10.83-1.47 12.09-6.11 10.93-5.54 3.3-1.68 39.58-20.62 19.35-8.21a187.5 187.5 0 0 0 18.19-11.07c2.79-2.27 4.07-4.79 4.22-7.06.35-5.4-5.76-9.36-13.57-4.94l-12.73 6.12-14.61 5.42-11.52 4.38-2.23-2.15c-4.61-4.41-10.6-4.51-12.49-4.73l1.28-4.77c-1.16-3.86-3.68-6.88-9.35-8l-15-1.72a5 5 0 0 0 -.29-1.62c-.66-1.85-2.51-3.19-6.16-3.77l-17.52 1.55-27.3 12.44c-8.78 4.92-13.71 14.62-20.84 24.51l-27.83 11.51a4.54 4.54 0 0 0 -.75.31 8.22 8.22 0 0 0 -3.16 4.39 1 1 0 0 0 -.06.26z" fill="#ffb294"/><path d="m77.88 180 10.94-5.54 3.3-1.68 39.57-20.6 19.4-8.22a192.12 192.12 0 0 0 18.18-11.07c2.79-2.27 4.08-4.79 4.22-7.07-3.48 4.15-22.31 13.32-42.2 23-20.29 9.85-41.62 20.18-48.67 19.73z" fill="#6e4438" opacity=".3"/><path d="m29.48 186.5s1.37.81 3.58 2c5.59 3 16.58 8.35 25 9 11.73 1 25.13-3 25.13-3l20.55.45 19.41-2a9.29 9.29 0 0 0 7-3.52 7.63 7.63 0 0 0 -2.36-11.37 49.43 49.43 0 0 0 -21.5-2.63l-17.42-1-12.06-11.43-37.57 18.5z" fill="#ffb294"/><path d="m121.06 136.84-18.31 5.33-6.03-3.02z" fill="#6e4438" opacity=".3"/><path d="m84.14 126.09 9-.28 8.07 2.61 5.12 1.55 1.28-4.78c-2.5 2.06-8.53.31-14.38-1.17z" fill="#6e4438" opacity=".3"/><path d="m69 117.22c-.37.15 9.31-2.64 9.31-2.64l5 .87a5 5 0 0 0 -.3-1.62l-5.01-.83z" fill="#6e4438" opacity=".3"/><path d="m-20.58 164.8a5.76 5.76 0 0 1 3.16-4.39 4.54 4.54 0 0 1 .75-.31c3.86-1.22 10 1 16.47 6.37 8.32 7 14.56 17.07 15.64 24.63 19-7.43 15.05-10.37 15.05-10.37 5.22 2.12 12.7 5.84 19.94 8.26 4.94 1.66 9.76 2.69 13.66 2.2l22.67.19 24.81-.14 18.54-1.73a9.29 9.29 0 0 1 -7 3.51l-19.4 2-20.55-.44s-13.41 3.93-25.13 3c-8.41-.69-19.4-6-25-9l-21.03 11.42a.46.46 0 0 1 -.15.09c-3.85 1.47-10.16-.65-16.85-6.24-10-8.34-17-21.22-15.66-28.79a1 1 0 0 1 .08-.26z" fill="#6e4438" opacity=".3"/><ellipse cx="257.21" cy="83.74" fill="#49acca" rx="3.86" ry="1.93"/><g clip-path="url(#c)"><path d="m237.26 85.57s9.5-3.29 15.71.47 3.11 9.51 3.11 9.51-5.46 4.37-13.22-.71-15.86-9.84-5.6-9.08" fill="#49acca"/></g></g><path d="m335.8 166.82-55.88-9.82a6.18 6.18 0 0 0 -7.22 6.77l5.52 50.48a6.19 6.19 0 0 0 7.72 5.32l44.72-11.73a6.16 6.16 0 0 0 4.5-4.8l5.64-28.91a6.18 6.18 0 0 0 -5-7.31z" fill="#49acca"/><g fill="#fff"><path d="m304.17 176.35a7.64 7.64 0 0 0 -7.5 7.63v13.72a7.64 7.64 0 0 0 7.63 7.63h4.47a7.64 7.64 0 0 0 7.64-7.63v-13.7a7.65 7.65 0 0 0 -7.64-7.63h-1.11a.78.78 0 0 0 -.05-.14q-.09-.22-.18-.48l-.07-.15c-.05-.14-.12-.28-.18-.43l-.05-.1c-.08-.18-.17-.36-.26-.55l-.08-.15-.25-.44a.41.41 0 0 0 -.06-.11c-.13-.22-.24-.41-.37-.6l-.07-.11c-.11-.17-.22-.32-.33-.48l-.12-.16-.45-.58-.05-.05c-.14-.17-.3-.35-.46-.52l-.14-.15-.52-.51-.63-.55-.18-.14-.56-.42-.14-.1c-.24-.17-.48-.33-.74-.49l-.18-.1c-.21-.13-.43-.25-.66-.37l-.21-.11c-.3-.15-.58-.28-.87-.4l-.11-.05-.82-.32-.26-.09-1-.31a2 2 0 0 0 -.39-.05 1.59 1.59 0 0 0 -.6 3.06l.21.05h.11a11.66 11.66 0 0 1 7.23 6.08zm-6 13.72h16.73v7.63a6.13 6.13 0 0 1 -6.13 6.12h-4.47a6.13 6.13 0 0 1 -6.12-6.12zm-1-21.35h-.16a.08.08 0 0 1 0-.05.08.08 0 0 1 .07-.08c.29.08.6.17.94.29l.24.08.74.28.13.05.79.37.16.09.62.34.17.1c.22.13.45.28.66.42l.12.09.51.39.15.12.55.48.47.46.12.14c.15.15.29.31.42.46v.06c.14.16.27.33.4.51l.1.13.3.43.06.1c.12.17.22.34.32.51l.06.11c.09.15.16.29.23.42l.07.13.24.49v.09l.17.39.06.14c.05.15.11.29.16.43.08.22.14.42.2.62a.75.75 0 0 0 .72.53h1.66a6.14 6.14 0 0 1 6.28 6.16v4.57h-16.72v-4.57a6.13 6.13 0 0 1 6.12-6.12h1a.77.77 0 0 0 .63-.32.76.76 0 0 0 .08-.7 13.19 13.19 0 0 0 -8.8-8.14z"/><path d="m306.5 178.85a2.43 2.43 0 0 0 -2.39 2.42v4.47a2.43 2.43 0 0 0 4.85 0v-4.48a2.42 2.42 0 0 0 -2.42-2.42zm0 1.51a.92.92 0 0 1 .89.91v4.48a.92.92 0 0 1 -1.83 0v-4.47a.92.92 0 0 1 .98-.92z"/></g></svg>