<svg viewBox="0 0 361.36 227.78" xmlns="http://www.w3.org/2000/svg" xmlns:xlink="http://www.w3.org/1999/xlink"><filter id="a" color-interpolation-filters="sRGB" filterUnits="userSpaceOnUse" height="32766" width="21.65" x="279.86" y="-7396.06"><feFlood flood-color="#fff" result="bg"/><feBlend in="SourceGraphic" in2="bg"/></filter><mask id="b" height="32766" maskUnits="userSpaceOnUse" width="21.65" x="279.86" y="-7396.06"><g filter="url(#a)"/></mask><linearGradient id="c" gradientTransform="matrix(.99809194 .06174535 -.06174535 .99809194 -109 -5.6)" gradientUnits="userSpaceOnUse" x1="394.49" x2="418.68" y1="76.39" y2="76.39"><stop offset="0"/><stop offset=".52" stop-color="#fff"/><stop offset="1"/></linearGradient><filter id="d" color-interpolation-filters="sRGB" filterUnits="userSpaceOnUse" height="32766" width="6.93" x="234.67" y="-7396.06"><feFlood flood-color="#fff" result="bg"/><feBlend in="SourceGraphic" in2="bg"/></filter><mask id="e" height="32766" maskUnits="userSpaceOnUse" width="6.93" x="234.67" y="-7396.06"><g filter="url(#d)"/></mask><linearGradient id="f" gradientTransform="matrix(.99809194 .06174535 -.06174535 .99809194 -109 -5.6)" gradientUnits="userSpaceOnUse" x1="351.44" x2="350.85" y1="50.39" y2="58.27"><stop offset="0" stop-color="#fff"/><stop offset="1"/></linearGradient><filter id="g" color-interpolation-filters="sRGB" filterUnits="userSpaceOnUse" height="32766" width="18.1" x="263.98" y="-7396.06"><feFlood flood-color="#fff" result="bg"/><feBlend in="SourceGraphic" in2="bg"/></filter><mask id="h" height="32766" maskUnits="userSpaceOnUse" width="18.1" x="263.98" y="-7396.06"><g filter="url(#g)"/></mask><linearGradient id="i" x1="385.5" x2="390.02" xlink:href="#f" y1="69.28" y2="78.97"/><filter id="j" color-interpolation-filters="sRGB" filterUnits="userSpaceOnUse" height="32766" width=".01" x="301.51" y="-7396.06"><feFlood flood-color="#fff" result="bg"/><feBlend in="SourceGraphic" in2="bg"/></filter><mask id="k" height="32766" maskUnits="userSpaceOnUse" width=".01" x="301.51" y="-7396.06"><g filter="url(#j)"/></mask><linearGradient id="l" x1="416.36" x2="416.37" xlink:href="#c" y1="81.79" y2="81.79"/><filter id="m" color-interpolation-filters="sRGB" filterUnits="userSpaceOnUse" height="32766" width="22.48" x="287.7" y="-7396.06"><feFlood flood-color="#fff" result="bg"/><feBlend in="SourceGraphic" in2="bg"/></filter><mask id="n" height="32766" maskUnits="userSpaceOnUse" width="22.48" x="287.7" y="-7396.06"><g filter="url(#m)"/></mask><linearGradient id="o" gradientTransform="matrix(.99809194 .06174535 -.06174535 .99809194 -109 -5.6)" gradientUnits="userSpaceOnUse" x1="404.84" x2="415.82" y1="20.12" y2="26.5"><stop offset="0"/><stop offset="1" stop-color="#fff"/></linearGradient><filter id="p" color-interpolation-filters="sRGB" filterUnits="userSpaceOnUse" height="32766" width="22.48" x="267.66" y="-7396.06"><feFlood flood-color="#fff" result="bg"/><feBlend in="SourceGraphic" in2="bg"/></filter><mask id="q" height="32766" maskUnits="userSpaceOnUse" width="22.48" x="267.66" y="-7396.06"><g filter="url(#p)"/></mask><linearGradient id="r" x1="383.98" x2="394.96" xlink:href="#o" y1="7.57" y2="13.94"/><filter id="s" color-interpolation-filters="sRGB" filterUnits="userSpaceOnUse" height="32766" width="6.99" x="256.88" y="-7396.06"><feFlood flood-color="#fff" result="bg"/><feBlend in="SourceGraphic" in2="bg"/></filter><mask id="t" height="32766" maskUnits="userSpaceOnUse" width="6.99" x="256.88" y="-7396.06"><g filter="url(#s)"/></mask><linearGradient id="u" gradientTransform="matrix(.99809194 .06174535 -.06174535 .99809194 -109 -5.6)" gradientUnits="userSpaceOnUse" x1="374.63" x2="375.96" y1="89.23" y2="92.35"><stop offset="0" stop-color="#fff"/><stop offset=".36" stop-color="#fff"/><stop offset="1"/></linearGradient><clipPath id="v"><path d="m17.72 38.23 321.2-38.09a20.07 20.07 0 0 1 22.17 23.16l-30.52 187.63a20.07 20.07 0 0 1 -23.3 16.55l-260.62-45.95a20.07 20.07 0 0 1 -15.79-14.18l-30.06-103.59a20.08 20.08 0 0 1 16.92-25.53z"/></clipPath><linearGradient id="w" gradientTransform="matrix(.99809194 .06174535 -.06174535 .99809194 -109 -5.6)" gradientUnits="userSpaceOnUse" x1="401.95" x2="404.76" y1="96.18" y2="85.92"><stop offset="0" stop-color="#c1c0c0"/><stop offset="1" stop-color="#dfdddb"/></linearGradient><linearGradient id="x" gradientTransform="matrix(.99809194 .06174535 -.06174535 .99809194 -109 -5.6)" gradientUnits="userSpaceOnUse" x1="402.37" x2="405.55" y1="94.71" y2="84.04"><stop offset="0" stop-color="#b7b6b6"/><stop offset="1" stop-color="#dfdddb"/></linearGradient><linearGradient id="y" x1="404.96" x2="402.81" xlink:href="#w" y1="87.24" y2="95.62"/><linearGradient id="z" x1="402.91" x2="404.7" xlink:href="#w" y1="91.96" y2="91.96"/><filter id="A" color-interpolation-filters="sRGB" filterUnits="userSpaceOnUse" height="10.95" width="21.65" x="279.86" y="90.69"><feFlood flood-color="#fff" result="bg"/><feBlend in="SourceGraphic" in2="bg"/></filter><mask id="B" height="10.95" maskUnits="userSpaceOnUse" width="21.65" x="279.86" y="90.69"><g filter="url(#A)" mask="url(#b)"><path d="m297.77 91.36-2.6-.67-15.31 6.85.87 1.14s7.55-3.49 11-5 7.53-2.42 8.75 1.84a29.82 29.82 0 0 1 1 6.14c.03-1.56-.14-9.11-3.71-10.3z" fill="url(#c)"/></g></mask><linearGradient id="C" gradientTransform="matrix(.99809194 .06174535 -.06174535 .99809194 -109 -5.6)" gradientUnits="userSpaceOnUse" x1="394.49" x2="418.68" y1="76.39" y2="76.39"><stop offset="0" stop-color="#fff"/><stop offset=".52" stop-color="#fff"/><stop offset="1" stop-color="#fff"/></linearGradient><filter id="D" color-interpolation-filters="sRGB" filterUnits="userSpaceOnUse" height=".28" width=".01" x="301.51" y="101.63"><feFlood flood-color="#fff" result="bg"/><feBlend in="SourceGraphic" in2="bg"/></filter><mask id="E" height=".28" maskUnits="userSpaceOnUse" width=".01" x="301.51" y="101.63"><g filter="url(#D)" mask="url(#k)"><path d="m301.52 101.77a.79.79 0 0 1 0-.14z" fill="url(#l)"/></g></mask><linearGradient id="F" x1="416.36" x2="416.37" xlink:href="#C" y1="81.79" y2="81.79"/><filter id="G" color-interpolation-filters="sRGB" filterUnits="userSpaceOnUse" height="22.01" width="22.48" x="287.7" y="31.59"><feFlood flood-color="#fff" result="bg"/><feBlend in="SourceGraphic" in2="bg"/></filter><mask id="H" height="22.01" maskUnits="userSpaceOnUse" width="22.48" x="287.7" y="31.59"><g filter="url(#G)" mask="url(#n)"><path d="m300.74 31.59-10.33 13.18a1.46 1.46 0 0 0 .09 2.23c1.26 1 5.93 4 5.93 4s1.95.72 2.93-.59 10.83-13.19 10.83-13.19l-10.81 15.1a3.5 3.5 0 0 1 -4.44.86 33.87 33.87 0 0 1 -6-3.88s-2.69-1.44 0-4.62 11.8-13.09 11.8-13.09z" fill="url(#o)"/></g></mask><linearGradient id="I" gradientTransform="matrix(.99809194 .06174535 -.06174535 .99809194 -109 -5.6)" gradientUnits="userSpaceOnUse" x1="404.84" x2="415.82" y1="20.12" y2="26.5"><stop offset="0" stop-color="#fff"/><stop offset="1" stop-color="#fff"/></linearGradient><linearGradient id="J" x1="412.38" x2="401.49" xlink:href="#f" y1="24.45" y2="19.06"/><filter id="K" color-interpolation-filters="sRGB" filterUnits="userSpaceOnUse" height="22.01" width="22.48" x="267.66" y="17.77"><feFlood flood-color="#fff" result="bg"/><feBlend in="SourceGraphic" in2="bg"/></filter><mask id="L" height="22.01" maskUnits="userSpaceOnUse" width="22.48" x="267.66" y="17.77"><g filter="url(#K)" mask="url(#q)"><path d="m280.69 17.77-10.33 13.23a1.46 1.46 0 0 0 .09 2.22c1.26 1 5.93 4 5.93 4s1.95.72 2.93-.59 10.83-13.19 10.83-13.19l-10.81 15.06a3.5 3.5 0 0 1 -4.44.86 33.87 33.87 0 0 1 -6-3.88s-2.69-1.44 0-4.62 11.8-13.09 11.8-13.09z" fill="url(#r)"/></g></mask><linearGradient id="M" x1="383.98" x2="394.96" xlink:href="#I" y1="7.57" y2="13.94"/><linearGradient id="N" x1="391.52" x2="380.62" xlink:href="#f" y1="11.9" y2="6.5"/><filter id="O" color-interpolation-filters="sRGB" filterUnits="userSpaceOnUse" height="4.67" width="6.99" x="256.88" y="106.5"><feFlood flood-color="#fff" result="bg"/><feBlend in="SourceGraphic" in2="bg"/></filter><mask id="P" height="4.67" maskUnits="userSpaceOnUse" width="6.99" x="256.88" y="106.5"><g filter="url(#O)" mask="url(#t)"><path d="m259.33 106.65c-1.47-.4-1.71 0-2 .69s-.72 1.59-.14 2.06 4.41 1.49 6.15 1.77l.55-1.34z" fill="url(#u)"/></g></mask><linearGradient id="Q" gradientTransform="matrix(.99809194 .06174535 -.06174535 .99809194 -109 -5.6)" gradientUnits="userSpaceOnUse" x1="374.63" x2="375.96" y1="89.23" y2="92.35"><stop offset="0" stop-color="#394142"/><stop offset=".36" stop-color="#7a8a8e"/><stop offset="1" stop-color="#515c5f"/></linearGradient><filter id="R" color-interpolation-filters="sRGB" filterUnits="userSpaceOnUse" height="14.2" width="6.93" x="234.67" y="62.6"><feFlood flood-color="#fff" result="bg"/><feBlend in="SourceGraphic" in2="bg"/></filter><mask id="S" height="14.2" maskUnits="userSpaceOnUse" width="6.93" x="234.67" y="62.6"><g filter="url(#R)" mask="url(#e)"><path d="m240.11 66.18a8.65 8.65 0 0 1 .39-3c-.06.09 0-.23 0-.6-1.85 2.83-4.84 7.49-5.83 9a1 1 0 0 1 .09.45 7.8 7.8 0 0 0 2.56 4.71c.77-2.74 3.71-7.22 4.28-8.08a3.66 3.66 0 0 1 -1.49-2.48z" fill="url(#f)"/></g></mask><linearGradient id="T" x1="351.44" x2="350.85" xlink:href="#I" y1="50.39" y2="58.27"/><filter id="U" color-interpolation-filters="sRGB" filterUnits="userSpaceOnUse" height="11.79" width="18.1" x="263.98" y="85.55"><feFlood flood-color="#fff" result="bg"/><feBlend in="SourceGraphic" in2="bg"/></filter><mask id="V" height="11.79" maskUnits="userSpaceOnUse" width="18.1" x="263.98" y="85.55"><g filter="url(#U)" mask="url(#h)"><path d="m281.16 85.55a10.53 10.53 0 0 1 -4.32 2.88 8.76 8.76 0 0 1 -3.2.29 23.34 23.34 0 0 1 -4.23-.72 62.07 62.07 0 0 0 -5.41 7.29 25.43 25.43 0 0 0 7.46 2 8.58 8.58 0 0 0 1.44 0 7.93 7.93 0 0 0 5.24-3.29c.17-.2.31-.38.43-.5 2.2-2.3 3.45-4.17 3.5-5.25a4.11 4.11 0 0 0 -.91-2.7z" fill="url(#i)"/></g></mask><linearGradient id="W" x1="385.5" x2="390.02" xlink:href="#I" y1="69.28" y2="78.97"/><g clip-path="url(#v)"><path d="m17.72 38.23 321.2-38.09a20.07 20.07 0 0 1 22.17 23.16l-30.52 187.63a20.07 20.07 0 0 1 -23.3 16.55l-260.62-45.95a20.07 20.07 0 0 1 -15.79-14.18l-30.06-103.59a20.08 20.08 0 0 1 16.92-25.53z" fill="#a4d5e4"/><g clip-path="url(#v)"><path d="m119.15 64.35 253.08-38.53a25.14 25.14 0 0 1 28.73 28l-24.4 192.62a25.14 25.14 0 0 1 -30.49 21.36l-204.32-46.24a25.14 25.14 0 0 1 -19-19l-24.34-107.81a25.15 25.15 0 0 1 20.74-30.4z" fill="#80c5da"/></g><path d="m415.52 53.59c1.32.73 1.29 1.87-.06 2.54l-139 68.77a14 14 0 0 1 -5.21 1.21h-6.51a15.49 15.49 0 0 1 -5.25-1.14l-9.35-4.22a37.87 37.87 0 0 1 -4.78-2.67l-11.79-8a22.54 22.54 0 0 1 -4-3.67l-2.28-2.78a6.32 6.32 0 0 1 -1.12-4.8l.59-2.51a6.45 6.45 0 0 1 3.11-3.85l135.21-64.22a6 6 0 0 1 4.89.15z" opacity=".2"/><path d="m293.8 100.42-3.28-2.1c-1 .48-2.09 1-3.16 1.43a18.41 18.41 0 0 0 -8.25 7.51 95.18 95.18 0 0 0 -4.07 9.18l.08.06 6.06 3.86c1.42.71 3.34.62 5.51-.46 4.77-2.37 8.9-8.6 9.23-13.92.16-2.67-.66-4.6-2.12-5.56z" fill="#3a3939"/><path d="m295.92 106c-.33 5.32-4.46 11.55-9.23 13.92s-8.37 0-8-5.33 4.46-11.55 9.23-13.92 8.33-.01 8 5.33z" fill="#575656"/><path d="m295.42 106.81a16.75 16.75 0 0 1 -8.42 12.64c-4.33 2.16-7.6 0-7.3-4.83a16.78 16.78 0 0 1 8.42-12.62c4.33-2.18 7.6 0 7.3 4.81z" fill="#3a3939"/><path d="m293 108.2a11.13 11.13 0 0 1 -5.55 8.39c-2.87 1.42-5 0-4.84-3.21a11.07 11.07 0 0 1 5.55-8.38c2.84-1.43 4.99-0 4.84 3.2z" fill="url(#w)"/><path d="m288.11 105a8 8 0 0 0 -1.13.7l.39-.22c2.44-1.21 4.28 0 4.11 2.73a9.42 9.42 0 0 1 -4.72 7.13c-2.43 1.21-4.26 0-4.12-2.67a5.51 5.51 0 0 0 -.08.71c-.2 3.2 2 4.63 4.84 3.21a11.13 11.13 0 0 0 5.6-8.39c.15-3.2-2-4.63-4.89-3.2z" fill="url(#x)"/><path d="m288.47 104.84c2.26-.67 3.85.69 3.68 3.37a10.43 10.43 0 0 1 -5.24 7.9c-1.77.89-3.25.6-4-.54.7 1.57 2.42 2.06 4.51 1a11.13 11.13 0 0 0 5.58-8.37c.14-3.06-1.84-4.5-4.53-3.36z" fill="url(#y)"/><path d="m290.74 109.69a5.9 5.9 0 0 1 -3 4.46c-1.53.77-2.68 0-2.58-1.7a5.93 5.93 0 0 1 3-4.47c1.53-.76 2.69.02 2.58 1.71z" fill="#dadbd9"/><path d="m289.26 110.68a2 2 0 0 1 -1 1.49c-.51.26-.9 0-.86-.57a2 2 0 0 1 1-1.49c.52-.25.9-0 .86.57z" fill="url(#z)"/><g fill="#343433"><path d="m287.69 110a.87.87 0 0 1 -.42.63c-.22.1-.38 0-.37-.25a.85.85 0 0 1 .42-.63c.22-.11.38 0 .37.25z"/><path d="m289.68 109a.83.83 0 0 1 -.41.63c-.22.1-.38 0-.37-.24a.85.85 0 0 1 .42-.63c.22-.15.38-.04.36.24z"/><path d="m290.21 110.81a.83.83 0 0 1 -.41.63c-.22.11-.38 0-.37-.24a.87.87 0 0 1 .42-.63c.22-.11.38-0 .36.24z"/><path d="m288.54 112.92a.85.85 0 0 1 -.42.63c-.21.11-.38 0-.36-.24a.82.82 0 0 1 .42-.63c.21-.11.37 0 .36.24z"/><path d="m287 112.39a.85.85 0 0 1 -.42.63c-.21.11-.38 0-.36-.24a.8.8 0 0 1 .42-.63c.24-.15.36 0 .36.24z"/><path d="m288.42 106.52a.66.66 0 0 1 -.29.85.64.64 0 0 1 -.78-.45.63.63 0 0 1 .29-.85.65.65 0 0 1 .78.45z"/><path d="m290.46 106.58c0 .38-.17.7-.39.7s-.4-.3-.41-.68.17-.7.39-.7.4.3.41.68z"/><path d="m286 108.05a.67.67 0 0 1 .18.93.69.69 0 0 1 -1.12-.81.67.67 0 0 1 .94-.12z"/><path d="m284.26 110.84a.65.65 0 0 1 .6.67.64.64 0 0 1 -.77.48.63.63 0 0 1 -.6-.67.64.64 0 0 1 .77-.48z"/><path d="m284 113.44c.38-.09.73.06.79.33s-.2.55-.57.63-.72-.06-.78-.33.16-.55.56-.63z"/><path d="m285.63 115c.25-.19.5-.26.58-.16s-.07.32-.32.51-.5.25-.58.16.07-.31.32-.51z"/></g><path d="m297.06 97.65c-1-1.84-3.57-.73-6.54.67l3.28 2.1c1.46 1 2.28 2.89 2.12 5.56v.22l2 .82c.54-5.02.4-7.02-.86-9.37z" fill="#212020"/><path d="m417.13 33.1.82-15s-1.15-18.32-1.44-23.75-1.57-5.65-3.09-6.69l-32.64-22.34-1.19-.76a4.52 4.52 0 0 0 -3.08-.25l-92.46 46c-5.43 2.73-7.09 3.92-8.75 6l-13.08 16.36s-18.87 25.95-20.56 28.48-7.21 11.12-7.21 11.12a17.83 17.83 0 0 0 -4 8.49c-.69 4-1.35 9.27.09 13.6s5.55 7.71 12.57 12.56 15.49 9.74 21.52 10.55a21.4 21.4 0 0 0 10.23-.92l.16-.06a94.61 94.61 0 0 1 4.09-9.23 18.41 18.41 0 0 1 8.25-7.51c4.16-1.71 8.38-4.57 9.7-2.1s1.4 4.33.84 9.39l78.13-38.61c1-11 5.17-14.2 10.73-17.24s8.34-.26 8.8 1.7a9.94 9.94 0 0 1 -.18 4c3.84-2 18-9.25 19.55-10.74 1.8-1.73 2.56-8.13 2.79-10.19s-.59-2.86-.59-2.86z" fill="#dfe5e9"/><path d="m415 46.09c1.8-1.73 2.56-8.13 2.79-10.19s-.64-2.8-.64-2.8l.82-15s-1.17-18.32-1.46-23.75a13.12 13.12 0 0 0 -.76-4.35s-.55-1.32-4 .49-92.06 45.93-92.06 45.93a33.94 33.94 0 0 0 -9.81 9.51c-4.6 6.58-9.55 14.83-9.55 14.83l-15.1 23-7.35 9.3c-1.51 1.94-7.22 2.94-7.22 2.94s-3 13.6-3.08 21.67a20.09 20.09 0 0 0 7.28-1.14l.16-.06a94.61 94.61 0 0 1 4.09-9.23 18.41 18.41 0 0 1 8.25-7.51c4.16-1.71 8.38-4.57 9.7-2.1s1.4 4.33.84 9.39l78.13-38.61c1-11 5.17-14.2 10.73-17.24s8.34-.26 8.8 1.7a9.94 9.94 0 0 1 -.18 4c3.89-2 18.06-9.29 19.62-10.78z" opacity=".1"/><path d="m270.66 96a30 30 0 0 0 3.38-.85l.43-1.22a11 11 0 0 0 2 .23 5.43 5.43 0 0 0 1.06-.71c-.31-.79-2.33-2.43-8.16-5.65a163.57 163.57 0 0 1 -27.4-19 11.05 11.05 0 0 1 -2.89-3.78c-2.15 3.32-4.64 7.2-4.64 7.2a17.83 17.83 0 0 0 -4 8.49 46.23 46.23 0 0 0 -.75 6.63 168.59 168.59 0 0 0 18.88 15.22c11.51 8 17.34 6.58 20 4.59.93-5.87 2.09-11.15 2.09-11.15z" opacity=".03"/><g mask="url(#B)"><path d="m297.77 91.36-2.6-.67-15.31 6.85.87 1.14s7.55-3.49 11-5 7.53-2.42 8.75 1.84a29.82 29.82 0 0 1 1 6.14c.03-1.56-.14-9.11-3.71-10.3z" fill="url(#C)" opacity=".5"/></g><g mask="url(#E)"><path d="m301.52 101.77a.79.79 0 0 1 0-.14z" fill="url(#F)" opacity=".5"/></g><path d="m414 31.15-106.8 52.85s-24.6 11.18-27 12.17a18.58 18.58 0 0 1 -11.66 1.42c-5.23-1.17-13.11-5.79-19-9.88s-11.47-8.71-13.64-11.41a9.85 9.85 0 0 1 -1.79-3.67c-.09.1-.18.22-.28.35a10 10 0 0 0 2 4.63c2.17 2.69 7.71 7.28 13.61 11.39s13.78 8.7 19 9.88a18.5 18.5 0 0 0 11.66-1.43c2.41-1 27-12.16 27-12.16l105.3-52.41z" opacity=".1"/><g fill="#fff" opacity=".5"><path d="m377.92-30.33a.36.36 0 0 1 -.12.08l-86.43 43.19a1 1 0 0 1 -.82 0l-1.09-.6a.4.4 0 0 1 -.12-.1c-.1.11-.07.25.1.34l1.1.6a1 1 0 0 0 .81 0l86.44-43.18c.21-.09.21-.22.13-.33z"/><path d="m381-28.25a.36.36 0 0 1 -.12.08l-86.45 43.17a1 1 0 0 1 -.81 0l-1.1-.6a.63.63 0 0 1 -.12-.1c-.1.11-.07.25.11.34l1.09.6a1 1 0 0 0 .81 0l86.44-43.19c.15-.05.21-.19.15-.3z"/><path d="m384-26.12-.11.08-86.46 43.19a1 1 0 0 1 -.81 0l-1.1-.6a.4.4 0 0 1 -.12-.1c-.1.11-.06.25.11.34l1.09.61a1 1 0 0 0 .81 0l86.44-43.18c.15-.1.21-.22.15-.34z"/><path d="m387.11-24a.2.2 0 0 1 -.11 0l-86.44 43.23a1 1 0 0 1 -.81 0l-1.09-.6a.32.32 0 0 1 -.12-.1c-.1.11-.07.24.1.34l1.1.6a1 1 0 0 0 .81 0l86.45-43.19c.15-.08.2-.21.11-.28z"/><path d="m390.22-22a.31.31 0 0 1 -.11.08l-86.44 43.22a1 1 0 0 1 -.81 0l-1.09-.6a.25.25 0 0 1 -.12-.1c-.11.11-.07.25.1.34l1.1.61a1 1 0 0 0 .81 0l86.43-43.18c.17-.1.22-.23.13-.37z"/><path d="m393.43-19.79-.12.09-86.44 43.18a1 1 0 0 1 -.81 0l-1.06-.62a.4.4 0 0 1 -.12-.1c-.1.11-.07.25.1.35l1.1.6a1 1 0 0 0 .81 0l86.41-43.17c.17-.09.21-.22.13-.33z"/><path d="m396.46-17.72a.53.53 0 0 1 -.11.09l-86.44 43.18a1 1 0 0 1 -.81 0l-1.1-.61a.4.4 0 0 1 -.12-.1c-.1.11-.06.25.11.35l1.09.6a1 1 0 0 0 .81 0l86.44-43.19c.17-.08.22-.21.13-.32z"/><path d="m399.72-15.5a.31.31 0 0 1 -.11.08l-86.44 43.19a1 1 0 0 1 -.81 0l-1.1-.6a.4.4 0 0 1 -.12-.1c-.1.11-.06.25.11.34l1.09.61a1 1 0 0 0 .81 0l86.44-43.18c.17-.1.21-.23.13-.34z"/><path d="m403-13.41a.36.36 0 0 1 -.12.08l-86.48 43.19a1 1 0 0 1 -.82 0l-1.09-.6a.4.4 0 0 1 -.12-.1c-.1.11-.07.25.11.34l1.09.61a1 1 0 0 0 .81 0l86.44-43.19c.18-.09.18-.22.18-.33z"/><path d="m406.16-11.36a.36.36 0 0 1 -.12.08l-86.44 43.19a1 1 0 0 1 -.81 0l-1.09-.6a.4.4 0 0 1 -.12-.1c-.1.11-.07.25.11.34l1.09.61a1 1 0 0 0 .81 0l86.41-43.16c.2-.12.24-.25.16-.36z"/></g><g opacity=".05"><path d="m289.34 12.22a.31.31 0 0 1 .11-.08l86.44-43.14a1 1 0 0 1 .81 0l1.1.6a.4.4 0 0 1 .12.1c.1-.11.06-.25-.11-.34l-1.09-.61a1 1 0 0 0 -.81 0l-86.44 43.14c-.17.11-.22.22-.13.33z"/><path d="m292.4 14.3.11-.08 86.49-43.22a1 1 0 0 1 .81 0l1.1.6a.4.4 0 0 1 .12.1c.1-.11.06-.25-.11-.34l-1.09-.61a1 1 0 0 0 -.81 0l-86.49 43.25c-.17.06-.21.19-.13.3z"/><path d="m295.4 16.43a.36.36 0 0 1 .12-.08l86.48-43.19a1 1 0 0 1 .81 0l1.1.6a.63.63 0 0 1 .12.1c.1-.11.07-.25-.11-.34l-1.09-.6a1 1 0 0 0 -.81 0l-86.49 43.19c-.17.08-.21.21-.13.32z"/><path d="m298.54 18.51a.35.35 0 0 1 .11-.09l86.44-43.18a1 1 0 0 1 .81 0l1.09.61a.31.31 0 0 1 .12.09c.1-.1.07-.24-.1-.34l-1.1-.6a1 1 0 0 0 -.81 0l-86.44 43.18c-.17.09-.21.22-.12.33z"/><path d="m301.65 20.58a.24.24 0 0 1 .11-.08l86.44-43.19a1 1 0 0 1 .81 0l1.09.6a.31.31 0 0 1 .12.1c.1-.11.07-.25-.1-.34l-1.1-.6a1 1 0 0 0 -.81 0l-86.43 43.19c-.18.08-.22.21-.13.32z"/><path d="m304.85 22.76.11-.08 86.44-43.19a1 1 0 0 1 .81 0l1.1.6a.63.63 0 0 1 .12.1c.1-.11.06-.25-.11-.34l-1.09-.6a1 1 0 0 0 -.81 0l-86.42 43.19c-.19.08-.24.21-.15.32z"/><path d="m307.88 24.83.12-.08 86.43-43.18a1 1 0 0 1 .82 0l1.09.6a.63.63 0 0 1 .12.1c.1-.11.07-.24-.1-.34l-1.1-.6a1 1 0 0 0 -.81 0l-86.45 43.18c-.16.08-.2.21-.12.32z"/><path d="m311.14 27.05a.36.36 0 0 1 .12-.08l86.43-43.19a1 1 0 0 1 .81 0l1.1.6a.4.4 0 0 1 .12.1c.1-.11.07-.25-.11-.34l-1.09-.6a1 1 0 0 0 -.81 0l-86.44 43.19c-.17.08-.21.21-.13.32z"/><path d="m314.37 29.14a.31.31 0 0 1 .11-.08l86.44-43.19a1 1 0 0 1 .81 0l1.1.6a.4.4 0 0 1 .12.1c.1-.11.06-.25-.11-.34l-1.09-.61a1 1 0 0 0 -.81 0l-86.44 43.19c-.17.09-.21.19-.13.33z"/><path d="m317.58 31.19a.31.31 0 0 1 .11-.08l86.44-43.19a1 1 0 0 1 .81 0l1.1.6a.4.4 0 0 1 .12.1c.1-.11.06-.25-.11-.34l-1.05-.58a1 1 0 0 0 -.81 0l-86.48 43.17c-.17.13-.21.21-.13.32z"/></g><path d="m320.62 70 .38-18.66a1.66 1.66 0 0 1 .84-1.32l91.71-45.32a.7.7 0 0 1 .35-.08.51.51 0 0 0 -.78-.22l-91.73 45.32a1.66 1.66 0 0 0 -.84 1.32l-.36 18.65c0 .37.19.6.48.6a.9.9 0 0 1 -.05-.29z" opacity=".1"/><path d="m414 4.91c0-.39-.23-.62-.54-.6v.21l-.14 18.48a1.54 1.54 0 0 1 -.8 1.31l-92 45.55a.9.9 0 0 1 -.27.07c.08.36.4.5.79.31l92-45.54a1.56 1.56 0 0 0 .8-1.32z" fill="#fff" opacity=".4"/><path d="m412.17-5-25.45 12.67-25.47 12.63-25.48 12.63-12.77 6.31-3.18 1.58a14.23 14.23 0 0 0 -2.85 2 27.41 27.41 0 0 0 -4.62 5.33 21.45 21.45 0 0 1 4.31-5.67 13.91 13.91 0 0 1 1.39-1.15 9 9 0 0 1 1.53-1l3.19-1.59 12.73-6.33 25.5-12.63 25.45-12.66 25.55-12.59z" fill="#fff" opacity=".2"/><path d="m307.12 85.27-11.95 5.42 2.6.67 116-57.5-1.41-1z" fill="#fff" opacity=".2"/><path d="m316.14 54.82s0 0-.08 0a3.61 3.61 0 0 1 0 1c-.25 2.4-1.18 12.29-2.92 15.44-2.66 4.84-9.76 9.54-19.37 13.09l-4.73 2a1.59 1.59 0 0 1 -.46 0c-.49 0-1.16-.3-.85-1.63-.39 1.11-.89 3-.28 3.67.91 1 4.63-1.09 8-2.75s15.67-6.24 18.55-12.73 2.32-17.77 2.14-18.09z" fill="#fff" opacity=".3"/><path d="m297.74 85.81h79.34v.32h-79.34z" opacity=".1" transform="matrix(.89656375 -.44291472 .44291472 .89656375 -3.18 158.32)"/><g mask="url(#H)"><path d="m300.74 31.59-10.33 13.18a1.46 1.46 0 0 0 .09 2.23c1.26 1 5.93 4 5.93 4s1.95.72 2.93-.59 10.83-13.19 10.83-13.19l-10.81 15.1a3.5 3.5 0 0 1 -4.44.86 33.87 33.87 0 0 1 -6-3.88s-2.69-1.44 0-4.62 11.8-13.09 11.8-13.09z" fill="url(#I)" opacity=".3"/></g><path d="m300.74 31.59-10.33 13.18a1.46 1.46 0 0 0 .09 2.23c1.26 1 5.93 4 5.93 4s1.95.72 2.93-.59 10.83-13.19 10.83-13.19l-10.81 15.1a3.5 3.5 0 0 1 -4.44.86 33.87 33.87 0 0 1 -6-3.88s-2.69-1.44 0-4.62 11.8-13.09 11.8-13.09z" fill="url(#J)" opacity=".1"/><g mask="url(#L)"><path d="m280.69 17.77-10.33 13.23a1.46 1.46 0 0 0 .09 2.22c1.26 1 5.93 4 5.93 4s1.95.72 2.93-.59 10.83-13.19 10.83-13.19l-10.81 15.06a3.5 3.5 0 0 1 -4.44.86 33.87 33.87 0 0 1 -6-3.88s-2.69-1.44 0-4.62 11.8-13.09 11.8-13.09z" fill="url(#M)" opacity=".3"/></g><path d="m280.69 17.77-10.33 13.23a1.46 1.46 0 0 0 .09 2.22c1.26 1 5.93 4 5.93 4s1.95.72 2.93-.59 10.83-13.19 10.83-13.19l-10.81 15.06a3.5 3.5 0 0 1 -4.44.86 33.87 33.87 0 0 1 -6-3.88s-2.69-1.44 0-4.62 11.8-13.09 11.8-13.09z" fill="url(#N)" opacity=".1"/><path d="m315.25 54a1.11 1.11 0 0 0 -.41.06s-5.69 2.61-8.39 4.1a19.34 19.34 0 0 0 -4.91 4.34s-12.4 18.6-13.54 21.5c-.8 2 0 2.4.6 2.43a1.59 1.59 0 0 0 .46 0l4.73-2c9.61-3.55 16.71-8.25 19.37-13.09 1.74-3.15 2.67-13 2.92-15.44.16-1.61-.41-1.9-.83-1.9z" fill="#131b1d"/><path d="m304.13 60.86a19.46 19.46 0 0 0 -1.93 2.07c-1.86 2.79-4.47 6.76-6.91 10.55l-.6 9.69a63.48 63.48 0 0 0 7.64-3.54z" fill="#303e42"/><path d="m315.2 54.76h-.07c-.58.27-5.78 2.67-8.29 4.06a13 13 0 0 0 -1.65 1.12l-1.83 19.11c4.39-2.57 7.56-5.38 9.09-8.16s2.46-11.67 2.76-14.58l.06-.55a1.82 1.82 0 0 0 -.07-1z" fill="#303e42"/><path d="m297.81 58c-1.81-1-15.61-9.9-20.45-13.53s-13.83-10.07-13.83-10.07a1.53 1.53 0 0 0 -.91-.38c-.49 0-1.12.19-1.76 1.14-1.36 2-15.42 21.53-15.42 21.53a14.84 14.84 0 0 0 4.65 7.22 130.11 130.11 0 0 0 22.41 15.94c4.39 2.35 7.41 3 9.21 3.1a5.72 5.72 0 0 0 2.08-.15l15.09-22.44s.76-1.36-1.07-2.36z" fill="#131b1d"/><path d="m297.41 58.69c-1.93-1.09-15.71-9.95-20.54-13.58s-13.72-10-13.81-10l-.06-.11a.83.83 0 0 0 -.41-.17c-.41 0-.79.42-1 .79-1.27 1.88-12.51 17.66-14.38 20.24.28.92 1.82 3.23 4.83 6a127.17 127.17 0 0 0 22 15.36c4.3 2.29 7.09 3.33 8.77 3.43a6.08 6.08 0 0 0 1.8-.29l13.57-20.36c.1-.26.18-.77-.77-1.31z" fill="#303e42"/><path d="m272.5 79.85a130.11 130.11 0 0 1 -22.41-15.94 14.84 14.84 0 0 1 -4.65-7.22s-2.05 3.67-.4 6.44 10.36 9.33 13.84 11.87 14.58 8.94 17.3 9.52 7.06-.88 7.61-1.69c0-.03-3.46 1.17-11.29-2.98z" fill="#4d595b"/><g fill="#c4cfd2" opacity=".7"><path d="m263.55 35.4-.49-.34-.06-.06a.83.83 0 0 0 -.41-.17c-.41 0-.79.42-1 .79-.62.92-3.61 5.14-6.73 9.53l-.86 7.85s-.24.84 5.12-2.09z"/><path d="m264.48 36.08-4.05 14.05.15-.09a26.25 26.25 0 0 0 9.48-9.94z"/></g><path d="m252 61.87a127.17 127.17 0 0 0 22 15.36c4.3 2.29 7.09 3.33 8.77 3.43a6.08 6.08 0 0 0 1.8-.29l3.53-5.37a125.51 125.51 0 0 0 -17.1-13.7 191.54 191.54 0 0 0 -16.91-9.78l-6.94 4.33c.28.92 1.85 3.23 4.85 6.02z" fill="#39474b"/><path d="m290.88 70.85c-.5-1.95-2.41-3.59-4.46-4.78a5 5 0 0 0 -5.74.61c-1.14.82-4.69 5.54-4.69 5.54-1.49 1.92 5.64 5.56 7.86 5.23a11.39 11.39 0 0 0 3.52-1.36z" fill="#3d4b50"/><path d="m276.87 45.11c-4.78-3.59-13.72-10-13.81-10l-.06-.11a.83.83 0 0 0 -.41-.17c-.41 0-.79.42-1 .79-1.27 1.88-12.51 17.66-14.38 20.24a16.23 16.23 0 0 0 3.77 5 56.9 56.9 0 0 1 28.26-14.07c-.95-.64-1.74-1.21-2.37-1.68z" fill="#fff" opacity=".2"/><path d="m279.85 97.54a18.35 18.35 0 0 1 -11.4 1.32c-5.23-1.18-13.11-5.79-19-9.88s-11.45-8.68-13.63-11.37a10 10 0 0 1 -2-4.63 18.88 18.88 0 0 0 -3.38 7.78c-.69 4-1.35 9.27.09 13.6s5.55 7.71 12.57 12.56 15.49 9.74 21.52 10.55a21.4 21.4 0 0 0 10.23-.92l.16-.06a94.61 94.61 0 0 1 4.09-9.23 21.07 21.07 0 0 1 4-4.84l-1.56-3.21-.24-.49z" fill="#404b4d"/><path d="m281.33 98.72-1.48-1.18a18.35 18.35 0 0 1 -11.4 1.32c-5.23-1.18-13.11-5.79-19-9.88s-11.45-8.68-13.63-11.37a10 10 0 0 1 -2-4.63 17.49 17.49 0 0 0 -2 3.49c0 5.77 5 8.73 5 8.73s4.3 3.31 8.88 6.49c4 2.75 8.16 5.35 9.92 6.35 3.79 2.18 5.66 3.26 12.17 4.2 5.54.8 12-2.16 13.82-3.06z" fill="#5a6567"/><path d="m249.44 89a96 96 0 0 1 -12.13-9.74 11.55 11.55 0 0 0 -3.1 3.51c-.65 1.66-1.18 8.5-1.18 8.5 1.85 1.8 4.57 3.88 10 7.73a101 101 0 0 0 13.1 8l3.53-6.81 3.64-3.19a91.65 91.65 0 0 1 -13.86-8z" fill="#c4cace"/><path d="m255.44 98.74c-1.76-1-5.95-3.6-9.91-6.36-4.59-3.18-8.88-6.49-8.88-6.49-1.26-.89-1.37 1.11-1.37 1.11l-.45 5.14c1.83 1.53 4.43 3.4 8.55 6.47a105.88 105.88 0 0 0 10.62 6.69l1.93-4.19a1.66 1.66 0 0 0 -.49-2.37z" fill="#4d595b"/><path d="m254.31 104.64 1.63-3.53a1.66 1.66 0 0 0 -.5-2.37c-1.76-1-5.95-3.6-9.91-6.36-4.59-3.18-8.88-6.49-8.88-6.49a1.36 1.36 0 0 0 -.2-.11 2.72 2.72 0 0 0 -.25.93l-.44 5.13c1.82 1.53 4.42 3.41 8.55 6.47a101.17 101.17 0 0 0 10 6.33z" fill="#1b2628"/><path d="m236.46 92.41.44.36.83-6-.44-.34z" fill="#333e40"/><path d="m238.62 94.09.44.33.94-6-.43-.33z" fill="#333e40"/><path d="m241.33 96.1.43.32 1.15-5.88-.43-.31z" fill="#333e40"/><path d="m244.22 98.24.09.07.33.24 1.52-5.73-.43-.29z" fill="#333e40"/><path d="m252.52 103.61.42.25 2.18-5.31-.43-.25z" fill="#333e40"/><path d="m250 102.1.42.25 2-5.42-.41-.26z" fill="#333e40"/><path d="m247.13 100.28.42.28 1.81-5.6-.43-.28z" fill="#333e40"/><path d="m304.06 96.73.06 2.9a.76.76 0 0 0 1 .8l66.12-32.74 1.52-5.06z" fill="#5a6567"/><path d="m237.31 79.24a11.55 11.55 0 0 0 -3.1 3.51s0 .08-.05.13a11.39 11.39 0 0 0 2.61 2.32s4.3 3.31 8.88 6.49c4 2.75 8.16 5.35 9.92 6.35a40.93 40.93 0 0 0 4.11 2.18l3.62-3.22a91.65 91.65 0 0 1 -13.86-8 96 96 0 0 1 -12.13-9.76z" fill="#dfe5e9"/><path d="m254.78 103.62a105 105 0 0 1 -10.21-6.48l-2.41-1.79c-2.84-2.1-4.79-3.54-6.29-4.77l-.05.58c1.47 1.19 3.36 2.59 6.05 4.58l2.41 1.78a106.31 106.31 0 0 0 10.3 6.55z" fill="#404b4d"/><path d="m235.93 89.88c1.48 1.21 3.39 2.62 6.13 4.64l2.41 1.79a110.08 110.08 0 0 0 10.59 6.69l.21-.44a106.75 106.75 0 0 1 -10.51-6.66l-2.41-1.79c-2.89-2.14-4.86-3.59-6.37-4.83z" fill="#404b4d"/><path d="m236 88.54c1.49 1.21 3.4 2.62 6.15 4.65l2.45 1.81a108.12 108.12 0 0 0 11 6.92l.2-.44a110.14 110.14 0 0 1 -10.9-6.87c-.86-.65-1.66-1.24-2.41-1.79-2.89-2.14-4.86-3.6-6.38-4.85z" fill="#404b4d"/><path d="m242.42 91.81 2.41 1.78a116.82 116.82 0 0 0 11.3 7.12 2.21 2.21 0 0 0 .11-.49 117.42 117.42 0 0 1 -11.12-7l-2.41-1.78c-3-2.2-5-3.67-6.48-4.94v.23.35c1.44 1.21 3.38 2.65 6.19 4.73z" fill="#404b4d"/><g mask="url(#P)"><path d="m259.33 106.65c-1.47-.4-1.71 0-2 .69s-.72 1.59-.14 2.06 4.41 1.49 6.15 1.77l.55-1.34z" fill="url(#Q)"/></g><path d="m263.67 110.92a40.86 40.86 0 0 0 7.49 0 3.34 3.34 0 0 0 2.57-1.35s-.22 1.19-2.12 1.5a29.66 29.66 0 0 1 -8.29.15c-1.74-.28-5.58-1.3-6.15-1.77a46.88 46.88 0 0 0 6.5 1.47z" fill="#4d595b"/><path d="m263.25 113.86 5.63.19s1.09.13.63.88-.88 1.38-1.48 1.57a18.54 18.54 0 0 1 -5.73-.22c-2.75-.44-8.93-3.58-10.7-4.62l.09-.82s6.63 3.58 9.93 4.33c0 0 .38-1.43 1.63-1.31z" fill="#4d595b"/><path d="m264.21 115.17a12.67 12.67 0 0 0 2.39-1.2l-3.35-.11c-1.22-.12-1.63 1.31-1.63 1.31-3.3-.75-9.93-4.33-9.93-4.33l-.09.82c1.66 1 7.15 3.77 10.11 4.5.6-.26 1.61-.68 2.5-.99z" fill="#333e40"/><path d="m269.52 114.34a1.13 1.13 0 0 0 -.64-.29l-2.27-.08a1.55 1.55 0 0 0 1.37 1.65 1.51 1.51 0 0 0 1.54-1.28z" fill="#f0eff0"/><path d="m264.42 107.9a37 37 0 0 1 -5.09-1.25c-.11.39-.26 1.12 0 1.31s4.58 1.91 4.58 1.91z" fill="#333e40"/><path d="m248.93 105.23-10.65-7.34a.53.53 0 0 0 -.25-.1.39.39 0 0 0 -.41.41l-.19 2.15a1 1 0 0 0 .4.86l10.6 7.24a.53.53 0 0 0 .25.1.4.4 0 0 0 .42-.41l.22-2a1 1 0 0 0 -.39-.91z" opacity=".2"/><path d="m248.74 105.5-10.64-7.35h-.09c-.06 0-.07.08-.07.12l-.19 2.15a.69.69 0 0 0 .27.56l10.59 7.24a.14.14 0 0 0 .09 0c.06 0 .08-.07.08-.12l.22-2a.68.68 0 0 0 -.26-.6z" fill="#fff"/><path d="m234.59 93.59.06-.88c1.79 1.51 4.32 3.4 8.34 6.27a109 109 0 0 0 10.79 6.82l-.05.92c-.1.83-.91.34-.91.34a109.34 109.34 0 0 1 -9.94-6.35c-3.58-2.56-6-4.34-7.74-5.77a1.61 1.61 0 0 1 -.55-1.35z" fill="#4d595b"/><path d="m235.48 93.39a1.58 1.58 0 0 0 .55 1.34c1.75 1.44 4.15 3.21 7.74 5.78a112 112 0 0 0 9.93 6.34v-.15l.05-.92a109 109 0 0 1 -10.75-6.78c-3.45-2.48-5.79-4.21-7.52-5.61z" fill="#1b2628"/><path d="m238.3 96.53.46.35.05-.93-.46-.34z" fill="#404b4d"/><path d="m236.19 94.89.46.36v-.89l-.45-.36z" fill="#404b4d"/><path d="m240.89 98.45.46.34.06-.94-.46-.34z" fill="#404b4d"/><path d="m243.78 100.53.46.33.06-1-.47-.32z" fill="#404b4d"/><path d="m246.58 102.48.47.31.06-1-.47-.3z" fill="#404b4d"/><path d="m249.53 104.39.46.28.06-1-.46-.28z" fill="#404b4d"/><path d="m251.93 105.85.46.27.07-1.06-.47-.27z" fill="#404b4d"/><path d="m269.15 114.11a1.17 1.17 0 0 0 -.27-.06l-1.88-.05a1.1 1.1 0 0 0 2.19.13z" fill="#fff"/><path d="m245.94 96.52a1.22 1.22 0 0 1 -1.9.67 2.21 2.21 0 0 1 -.64-2.49 1.23 1.23 0 0 1 1.91-.68 2.2 2.2 0 0 1 .63 2.5z" fill="#4d595b"/><path d="m245.75 96.39a1.06 1.06 0 0 1 -1.64.59 1.88 1.88 0 0 1 -.55-2.16 1 1 0 0 1 1.64-.58 1.89 1.89 0 0 1 .55 2.15z" fill="#d1d4d6"/><path d="m231.92 91.43.3-2.48a1.15 1.15 0 0 0 -.35-.72 17.53 17.53 0 0 1 -1.87-4.43 35.41 35.41 0 0 0 -.3 4.77l1.71 3s.48.74.51-.14z" fill="#333e40"/><path d="m296.13 82.79s-.06-2.84.68-3.84a2.63 2.63 0 0 1 3-1c1.38.29 4.11 1.29 4.19 2.77s-.21 6-.21 6a2 2 0 0 1 -1.46 1.61 19.57 19.57 0 0 1 -4.88.25s-1.73-.23-1.63-1.85.31-3.94.31-3.94z" fill="#404b4d"/><path d="m299.83 78a2.63 2.63 0 0 0 -3 1 2.49 2.49 0 0 0 -.34.75c1.34.55 3.22 1.29 4 1.49a3.81 3.81 0 0 0 3.42-1c-.64-1.24-2.91-2.04-4.08-2.24z" fill="#5a6567"/><path d="m293.35 77.11s1.47 3.18 2.59 3.84a21.43 21.43 0 0 0 4.37 1.35l-.31 5.7-2.71-.17a3.42 3.42 0 0 1 -2.74-1.42c-.4-.67-1.56-2.82-1.56-2.82l-.08-1.61s1.54 3.37 2.55 4.14 3.92.89 3.92.89l.24-3.83s-2.69-.56-3.69-.93-2.62-3.32-2.62-3.32z" fill="#333e40"/><path d="m296.65 79.22a21.48 21.48 0 0 1 -1.72-2.46l-1.58.35s1.47 3.18 2.59 3.84l.27.15a6.11 6.11 0 0 1 .44-1.88z" fill="#5a6567"/><path d="m304 81.8a5.34 5.34 0 0 1 -2.19 1.36l-.16 3.54a9.3 9.3 0 0 0 2.18-.67c.08-1.03.17-2.9.17-4.23z" fill="#c4cace"/><path d="m295.87 86.34c.11-1.58.26-3.55.26-3.55v-.49l-.23-.08a2.43 2.43 0 0 1 -.77-.61l-2.25.34s1.54 3.37 2.55 4.14a2.13 2.13 0 0 0 .45.26z" fill="#4d595b"/><path d="m247.67 52.73.53-8.55a9.75 9.75 0 0 0 -.38-2.57c-.32-.57-1-.75-2.16-.14s-2.15 1.41-2.33 3.9a39.16 39.16 0 0 0 0 4.77 10.42 10.42 0 0 0 1.14 2.73 8.43 8.43 0 0 0 2.76.52z" fill="#404b4d"/><path d="m247.2 53.39.47-.66.53-8.55s0-.19 0-.47c-.86.06-2.26.48-2.45 1.56-.23 1.31-.66 5.81-.71 7.84a14.55 14.55 0 0 0 2.16.28z" fill="#333e40"/><path d="m245.73 45.27c.19-1.08 1.59-1.5 2.45-1.56a7 7 0 0 0 -.36-2.1c-.32-.57-1-.75-2.16-.14a3.81 3.81 0 0 0 -1.78 1.67 12.31 12.31 0 0 0 1.81 2.39c.02-.09.03-.18.04-.26z" fill="#5a6567"/><path d="m244.85 52.48a6.9 6.9 0 0 0 2.41.82l.86-1.18a6.14 6.14 0 0 1 -3-1.09l.32-3.53 5 1.42.64-.89-5.65-1.69-1.61-2.19a17.57 17.57 0 0 0 -.35 5.67 19 19 0 0 0 1.38 2.66z" fill="#404b4d"/><path d="m248.08 46.11-2.5.27 5.49 1.65.61-.84z" fill="#5a6567"/><path d="m247.77 51.12-2.64-.12s.43.64 3 1.09l.33-.47z" fill="#5a6567"/><path d="m314.25 80.3s-1.17.49-1.16-.66 0-2.34 0-2.89.11-1.55.68-1.87 1.68-.91 1.68-.91.7-.48.78.89a18.94 18.94 0 0 1 -.4 4.12c-.12.5-.78.91-1.58 1.32z" fill="#5a6567"/><path d="m315.11 79.39s-1 .49-1.21.56-.49-.12-.48-1.15a11.06 11.06 0 0 1 .19-3.07 4.58 4.58 0 0 1 1.59-1c.35-.11.77-.26.72.67s-.24 2.6-.26 3a1.19 1.19 0 0 1 -.55.99z" fill="#4e5a5c"/><path d="m315.92 75.42c.05-.93-.37-.78-.72-.67a4.58 4.58 0 0 0 -1.59 1 .33.33 0 0 0 -.05.12 5.62 5.62 0 0 1 1.26-.67c.35-.12.76-.26.72.67s-.24 2.6-.27 3a1.49 1.49 0 0 1 -.14.55 1.16 1.16 0 0 0 .53-1c.02-.42.22-2.07.26-3z" fill="#414c4e"/><path d="m314.6 79.64s.13-2.28.15-3.29a2.56 2.56 0 0 0 -.24-1.39l-.22.23a4.56 4.56 0 0 1 .22 1.16l-.2 3.14z" fill="#414c4e"/><path d="m314.6 79.64s.13-2.28.15-3.29a2.56 2.56 0 0 0 -.24-1.39l.52-.24a7.55 7.55 0 0 1 .31 1.33l-.23 3.34z" fill="#5a6567"/><g opacity=".2"><path d="m258.54 77.13-1.75 1.61.11.12 1.75-1.61z"/><path d="m256.16 75.57-1.75 1.61.12.11 1.74-1.61z"/><path d="m255.56 75.16-1.75 1.61.11.12 1.75-1.61z"/><path d="m255.02 74.78-1.75 1.61.11.12 1.75-1.61z"/><path d="m252.46 75.17h2.38v.16h-2.38z" transform="matrix(.73562436 -.6773897 .6773897 .73562436 16.08 191.7)"/><path d="m251.98 74.76h2.38v.16h-2.38z" transform="matrix(.73597894 -.67700443 .67700443 .73597894 16.18 191.17)"/><path d="m253.45 73.53-1.75 1.61.11.12 1.75-1.61z"/><path d="m250.89 73.92h2.38v.16h-2.38z" transform="matrix(.73550612 -.67751808 .67751808 .73550612 16.53 190.35)"/><path d="m252.29 72.7-1.75 1.61.11.12 1.75-1.61z"/><path d="m251.76 72.31-1.75 1.61.11.12 1.75-1.61z"/><path d="m251.25 71.87-1.75 1.61.11.12 1.74-1.61z"/><path d="m248.63 72.23h2.38v.16h-2.38z" transform="matrix(.73574257 -.6772613 .6772613 .73574257 17.04 188.3)"/><path d="m250.1 71.06-1.75 1.61.11.12 1.75-1.61z"/><path d="m247.67 71.36h2.38v.16h-2.38z" transform="matrix(.73538786 -.67764644 .67764644 .73538786 17.43 187.53)"/><path d="m247.06 70.93h2.38v.16h-2.38z" transform="matrix(.73538786 -.67764644 .67764644 .73538786 17.56 186.99)"/><path d="m246.53 70.43h2.38v.16h-2.38z" transform="matrix(.73562436 -.6773897 .6773897 .73562436 17.72 186.44)"/><path d="m257.1 78.34h2.38v.16h-2.38z" transform="matrix(.73586077 -.67713287 .67713287 .73586077 15.13 195.62)"/><path d="m259.65 77.92-1.75 1.61.11.12 1.75-1.61z"/><path d="m258.31 79.09h2.38v.16h-2.38z" transform="matrix(.73562436 -.6773897 .6773897 .73562436 14.97 196.7)"/><path d="m260.85 78.64-1.75 1.61.11.12 1.74-1.61z"/><path d="m259.48 79.81h2.38v.16h-2.38z" transform="matrix(.73574257 -.6772613 .6772613 .73574257 14.77 197.65)"/><path d="m262.1 79.46-1.75 1.61.11.12 1.75-1.61z"/><path d="m262.73 79.83-1.74 1.61.11.12 1.74-1.62z"/><path d="m263.38 80.21-1.75 1.61.11.12 1.75-1.61z"/><path d="m263.98 80.55-1.75 1.62.11.11 1.75-1.61z"/><path d="m264.6 80.87-1.75 1.61.11.12 1.75-1.61z"/><path d="m263.16 82.07h2.38v.16h-2.38z" transform="matrix(.73550612 -.67751808 .67751808 .73550612 14.26 200.82)"/><path d="m265.84 81.67-1.75 1.61.11.11 1.75-1.61z"/><path d="m266.45 82.01-1.74 1.61.11.12 1.74-1.61z"/><path d="m267.04 82.36-1.74 1.61.11.12 1.74-1.61z"/></g><path d="m313.42 96.47-.3-.13c1.22-2.89 3.89-13.52 4.59-22.2.71-8.9.46-22 .46-22.1h.32c0 .13.25 13.21-.46 22.13-.73 9.08-3.43 19.5-4.61 22.3z" opacity=".1"/><path d="m241.91 68.54a3.33 3.33 0 0 1 -1.47-2.4 11.22 11.22 0 0 1 .66-3.88l.31-1-.6.92c-1.95 3-5.63 8.71-6.35 9.83v.05.06a8.07 8.07 0 0 0 2.88 5.15l.2.14.06-.23c.69-2.88 4.35-8.31 4.39-8.36l.09-.14z" fill="#86959e"/><path d="m240.11 66.18a8.65 8.65 0 0 1 .39-3c-.06.09 0-.23 0-.6-1.85 2.83-4.84 7.49-5.83 9a1 1 0 0 1 .09.45 7.8 7.8 0 0 0 2.56 4.71c.77-2.74 3.71-7.22 4.28-8.08a3.66 3.66 0 0 1 -1.49-2.48z" fill="#e3e2e3"/><path d="m281.27 85.18-.12-.13-.12.15a10.15 10.15 0 0 1 -4.29 2.92 8.34 8.34 0 0 1 -3.08.28 21.76 21.76 0 0 1 -4.26-.74h-.1l-.06.08a61.49 61.49 0 0 0 -5.63 7.57l-.09.16.16.07a26.48 26.48 0 0 0 7.74 2.13 10.58 10.58 0 0 0 1.5 0 8.18 8.18 0 0 0 5.47-3.45l.41-.48c1.6-1.66 3.52-4 3.6-5.45a4.47 4.47 0 0 0 -1.13-3.11z" fill="#86959e"/><path d="m281.16 85.55a10.53 10.53 0 0 1 -4.32 2.88 8.76 8.76 0 0 1 -3.2.29 23.34 23.34 0 0 1 -4.23-.72 62.07 62.07 0 0 0 -5.41 7.29 25.43 25.43 0 0 0 7.46 2 8.58 8.58 0 0 0 1.44 0 7.93 7.93 0 0 0 5.24-3.29c.17-.2.31-.38.43-.5 2.2-2.3 3.45-4.17 3.5-5.25a4.11 4.11 0 0 0 -.91-2.7z" fill="#e3e2e3"/><path d="m280.65 89.8c0 .62-.49.85-1 .5a2.19 2.19 0 0 1 -.88-1.75c0-.62.5-.85 1-.5a2.21 2.21 0 0 1 .88 1.75z" fill="#ef9042"/><path d="m277.92 93.09c-.08 1.21-1 1.66-2 1a4.24 4.24 0 0 1 -1.71-3.43c.08-1.22 1-1.66 2-1a4.24 4.24 0 0 1 1.71 3.43z" fill="#fff"/><path d="m273.33 94.69c-.1 1.64-1.3 2.24-2.67 1.33a5.72 5.72 0 0 1 -2.31-4.63c.1-1.65 1.3-2.24 2.68-1.33a5.72 5.72 0 0 1 2.3 4.63z" fill="#fff"/><path d="m239.84 71.53a4.9 4.9 0 0 0 -1.09-2.09c-.86-.86-1.64-.26-1.74 1.33a6.92 6.92 0 0 0 1.07 4c.51-1.05 1.16-2.22 1.76-3.24z" fill="#fff"/><path d="m240.49 67.8a3.47 3.47 0 0 0 -.73-1.25c-.69-.67-1.3-.2-1.38 1.07a5 5 0 0 0 .07 1.15z" fill="#fff"/><g mask="url(#S)"><path d="m240.11 66.18a8.65 8.65 0 0 1 .39-3c-.06.09 0-.23 0-.6-1.85 2.83-4.84 7.49-5.83 9a1 1 0 0 1 .09.45 7.8 7.8 0 0 0 2.56 4.71c.77-2.74 3.71-7.22 4.28-8.08a3.66 3.66 0 0 1 -1.49-2.48z" fill="url(#T)"/></g><g mask="url(#V)"><path d="m281.16 85.55a10.53 10.53 0 0 1 -4.32 2.88 8.76 8.76 0 0 1 -3.2.29 23.34 23.34 0 0 1 -4.23-.72 62.07 62.07 0 0 0 -5.41 7.29 25.43 25.43 0 0 0 7.46 2 8.58 8.58 0 0 0 1.44 0 7.93 7.93 0 0 0 5.24-3.29c.17-.2.31-.38.43-.5 2.2-2.3 3.45-4.17 3.5-5.25a4.11 4.11 0 0 0 -.91-2.7z" fill="url(#W)"/></g><path d="m255.28 82.76-.1.07a1.12 1.12 0 0 0 -1.09-.07 3.44 3.44 0 0 0 -.48.3l-1.46 1a2.38 2.38 0 0 0 -.34.27c-.32.36.58.8.95.8a5.2 5.2 0 0 0 1.09-.19l3.51-.91.4.25-2 2.3c-.25.31 0 .59.24.78l.74.46-.09.11-2.65-1.61.13-.09a.88.88 0 0 0 1-.09l1.44-1.64-2.23.62c-.6.16-1.34.32-.61.9l-.13.08-3.59-2.24.11-.07a1.09 1.09 0 0 0 1.41-.14l1.63-1.15a2.24 2.24 0 0 0 .29-.23c.35-.39-.51-.8-.91-.81a5.2 5.2 0 0 0 -1.09.19l-3.51.92-.4-.26 2-2.29c.25-.32 0-.6-.24-.79l-.58-.36.1-.11 2.46 1.54-.13.09a.88.88 0 0 0 -1.05.09l-1.44 1.64 2.34-.62c.6-.16 1.34-.32.61-.89l.14-.09 3.57 2.24z" fill="#ab0033" fill-rule="evenodd"/><path d="m247.22 83.08-.94.29-.31-.19.38-.64.22.13-.34.51.76-.24z" fill="#221f20"/><path d="m247 83.8-.21-.14.66-.46.21.14zm.73-.51-.21-.14.15-.1.21.13z" fill="#221f20"/><path d="m248 84.45-.56-.35-.1-.07h-.05s0 0 0 0a.08.08 0 0 1 0-.05l.08-.07.11-.06a.18.18 0 0 1 .1 0h.1l.13.07.25.16-.15.11-.24-.14a.07.07 0 0 0 -.06 0h-.05s0 0 0 .06l.33.2.25-.17s0 0 0 0a0 0 0 0 0 0 0l-.08-.06-.44-.28.16-.11.52.33.1.07a.34.34 0 0 1 .06.06.07.07 0 0 1 0 .05.09.09 0 0 1 0 0l-.07.06-.48.33z" fill="#221f20"/><path d="m249.32 84.61-.26-.16h-.06-.09l-.41.29-.22-.14.66-.46.22.14h-.08a.25.25 0 0 1 .22 0l.23.14-.16.11z" fill="#221f20"/><path d="m250.05 85.4-.51-.32.16-.11.3.19s0-.06 0-.09l-.17-.11h-.06-.05l-.16.12s0 0 0 0a.18.18 0 0 0 .08.06l.44.28-.16.11-.52-.33a.52.52 0 0 1 -.11-.07v-.05a.11.11 0 0 1 0 0 .05.05 0 0 1 0 0s0 0 0 0l.29-.2a.39.39 0 0 1 .2-.06.45.45 0 0 1 .24.09l.31.19a.52.52 0 0 1 .15.13.08.08 0 0 1 0 .1l-.08.06-.22.16z" fill="#221f20"/><path d="m250.84 86.23-.21-.14.41-.28s0 0 0 0a0 0 0 0 0 0 0l-.08-.06-.17-.11h-.07-.05l-.41.29-.21-.13.66-.47.21.14-.08.06a.27.27 0 0 1 .23 0l.22.14a.64.64 0 0 1 .16.12.08.08 0 0 1 0 .1l-.07.07-.48.33z" fill="#221f20"/><path d="m251.47 86.62-.17-.11a.64.64 0 0 1 -.16-.12.08.08 0 0 1 0-.1l.07-.06.69-.49.22.14-.22.15.21.13-.16.11-.21-.13-.25.18s0 0 0 .05h.08l.09.06-.16.11z" fill="#221f20"/><path d="m252.73 87.41-.45-.28-.11-.07v-.06a.09.09 0 0 1 0 0l.07-.06.29-.2.11-.06h.1.1l.13.07.45.29-.16.11-.37-.23h-.07-.09l-.16.11s0 0 0 0a0 0 0 0 0 0 0l.08.06.37.23-.16.11z" fill="#221f20"/><path d="m253.93 87.91-.11.06h-.09a.23.23 0 0 1 -.11 0l-.13-.07-.33-.21a.61.61 0 0 1 -.16-.13s0-.06 0-.1l.07-.06.29-.2.11-.06h.09.11l.13.07.33.21a.44.44 0 0 1 .1.08s.05 0 .06 0a.09.09 0 0 1 0 0 .13.13 0 0 1 0 .05l-.07.06-.29.2zm-.15-.18.16-.11s0 0 0 0l-.08-.05-.17-.11h-.06-.09a.09.09 0 0 0 -.06 0l-.16.11a0 0 0 0 0 0 0l.08.06.17.1h.07.09z" fill="#221f20"/><path d="m255.22 89-.22-.14.41-.28h.05s0 0 0 0a.14.14 0 0 0 -.07-.06h-.09-.06-.05s0 0 0 0a.09.09 0 0 0 -.06 0l-.41.28-.21-.13.46-.33s0 0 0 0h-.07l-.09-.06h-.07-.09-.05l-.41.29-.21-.14.66-.46.21.14-.08.06a.24.24 0 0 1 .23 0l.14.08a.63.63 0 0 1 .14.12.06.06 0 0 1 0 .09.14.14 0 0 1 .11 0l.13.05.14.09a.54.54 0 0 1 .15.12.08.08 0 0 1 0 .1l-.08.06-.47.34z" fill="#221f20"/><path d="m251.86 86.87-.2-.13.15-.12.21.13z" fill="#221f20"/></g><path d="m78.69 166.82-55.88-9.82a6.18 6.18 0 0 0 -7.22 6.77l5.52 50.48a6.19 6.19 0 0 0 7.72 5.32l44.72-11.73a6.16 6.16 0 0 0 4.5-4.8l5.64-28.91a6.18 6.18 0 0 0 -5-7.31z" fill="#49acca"/><path d="m68.62 197.59v-19.65a.92.92 0 0 0 -.92-.92h-3.14v-.36a.92.92 0 0 0 -.92-.92h-2.59a.92.92 0 0 0 -.92.92v.34h-3.35v-3a.92.92 0 0 0 -.92-.92h-7.64a.92.92 0 0 0 -.92.92v3h-7.48a.92.92 0 0 0 -.92.92v19.65a.92.92 0 0 0 .92.92h27.88a.92.92 0 0 0 .92-.9zm-13.69-20.59h-5.78v-2.13h5.78zm11.84 19.65h-26v-17.79h26z" fill="#fff"/><path d="m42.54 187.84a7.12 7.12 0 1 0 7.12-7.12 7.12 7.12 0 0 0 -7.12 7.12zm1.84 0a5.28 5.28 0 1 1 5.28 5.27 5.28 5.28 0 0 1 -5.28-5.27z" fill="#fff"/><path d="m45.86 187.84a3.8 3.8 0 1 0 3.8-3.8 3.8 3.8 0 0 0 -3.8 3.8zm1.85 0a1.95 1.95 0 1 1 1.95 1.95 1.95 1.95 0 0 1 -1.95-1.95z" fill="#fff"/><path d="m58.65 180.73v3.12a.93.93 0 0 0 .93.92h5.17a.92.92 0 0 0 .92-.92v-3.12a.92.92 0 0 0 -.92-.92h-5.17a.93.93 0 0 0 -.93.92zm1.85.93h3.32v1.27h-3.32z" fill="#fff"/><path d="m166.29 36.74v94.69a9 9 0 0 0 4 7.06l37.81 22.34 1.18 3.5 3.55-2.09a2.87 2.87 0 0 0 1.17-2.64v-101a9 9 0 0 0 -4-7.06l-39.73-23.48a2.74 2.74 0 0 0 -2.76-.31s-3.51 2.09-3.51 2.09z"/><path d="m162.89 32.43v101a3 3 0 0 0 0 .43 9.11 9.11 0 0 0 4 6.64l32.44 19.16 7.28 4.3c2.2 1.31 4 .25 4-2.35v-101a9.11 9.11 0 0 0 -4-7.07l-39.74-23.47c-2.2-1.3-3.98-.24-3.98 2.36z" fill="#4d4d4d"/><path d="m164.58 33.43v94.57a5.23 5.23 0 0 0 2.29 4.06l39.72 23.45a1.43 1.43 0 0 0 1.81 0 1.79 1.79 0 0 0 .48-1.36v-94.56a5.2 5.2 0 0 0 -2.29-4.05l-39.72-23.46a1.76 1.76 0 0 0 -1.12-.31c-.7.04-1.17.65-1.17 1.66z" fill="#fff"/><path d="m165.28 33.13v94.53a5.2 5.2 0 0 0 2.29 4.05l39.72 23.46a1.75 1.75 0 0 0 1.12.31 1.82 1.82 0 0 0 .47-1.36v-94.53a5.21 5.21 0 0 0 -2.3-4.06l-17.24-10.19-22.46-13.27a1.92 1.92 0 0 0 -1.13-.3 1.82 1.82 0 0 0 -.47 1.36z" fill="#39b54a"/><g fill="#fff"><path d="m198 123-.6-24.71a2.1 2.1 0 0 0 -.78-1.6l-2.53-1.5v-.45a2.06 2.06 0 0 0 -.77-1.6l-2.09-1.24c-.41-.24-.73.08-.71.72v.44l-2.71-1.6-.09-3.83a2.11 2.11 0 0 0 -.72-1.63l-6.16-3.65c-.41-.25-.73.07-.72.71l.09 3.84-6-3.59c-.41-.24-.73.08-.72.72l.61 24.71a2.06 2.06 0 0 0 .77 1.6l22.49 13.36c.35.3.64-.04.64-.7zm-11.66-32.41-4.67-2.77-.06-2.67 4.67 2.77zm10.16 30.41-21-12.48-.5-22.4 6 3.58 6.15 3.66 8.85 5.23z"/><path d="m176.67 98.26c.12 4.94 2.8 10.49 6 12.37s5.64-.61 5.52-5.54-2.79-10.49-6-12.37-5.64.61-5.52 5.54zm1.49.89c-.09-3.66 1.75-5.5 4.1-4.11s4.32 5.51 4.41 9.16-1.74 5.5-4.09 4.11-4.33-5.51-4.42-9.16z"/><path d="m179.36 99.86c.06 2.63 1.49 5.59 3.17 6.59s3-.32 2.95-3-1.48-5.55-3.18-6.55-3.01.32-2.94 2.96zm1.49.88c0-1.35.64-2 1.51-1.52a4.41 4.41 0 0 1 1.63 3.39c0 1.35-.64 2-1.51 1.52a4.41 4.41 0 0 1 -1.63-3.39z"/><path d="m189.46 97.05.09 3.92a2.1 2.1 0 0 0 .78 1.6l4.17 2.48c.41.24.73-.08.72-.72l-.1-3.92a2.06 2.06 0 0 0 -.77-1.6l-4.17-2.48c-.42-.24-.74.08-.72.72zm1.52 2 2.68 1.6v1.6l-2.68-1.6z"/><path d="m191.54 152.81-9.63-5.69a4.17 4.17 0 0 1 -1.83-3.25c0-1.2.82-1.68 1.83-1.09l9.63 5.69a4.2 4.2 0 0 1 1.84 3.26c0 1.19-.83 1.68-1.84 1.08z"/></g><path d="m162.91 133.86a9.11 9.11 0 0 0 4 6.64l32.44 19.16 1.84-21.17-4.84-36.66 2.73-30.83-18.17-12.23-12.23 40.36z" fill="#49acca" opacity=".2"/><path d="m180.54 51.07 16 24.89 12.34-5.63v-10.74a5.21 5.21 0 0 0 -2.3-4.06l-17.24-10.19z" fill="#ffb294" opacity=".5"/><path d="m92.23 121.52a4.76 4.76 0 0 0 2.32-.65 66.74 66.74 0 0 0 11.61-11.47l-8.61 16.18a3.42 3.42 0 0 0 2.21 4.51l.39.1c1.63.34 3.78-.22 5.81-2.15a28 28 0 0 0 6.81-10c3.31-4 6.33-7.85 6.91-10.88l11.71-3.46-1.71 2.43a7.9 7.9 0 0 0 -1.31 6l3.62 20.1c1.4 4.5 8.18 5.22 8.18-2v-19.23a23.74 23.74 0 0 0 5.83-8l7.88-2.87a2.32 2.32 0 0 1 3 2.73l-.59 2.7-2.24 10.14-8.05 10.49c-1.87 3.9.91 8.3 5 5.95l1.16-.85 9.33-6.74a11.38 11.38 0 0 0 3.88-4.94 106.63 106.63 0 0 1 9.86-19l3.77-16.41 17.54-8.2a6.62 6.62 0 0 0 2.54-5c.83-9.24-10.41-24.65-18.54-19.92l-16.32 10.8-22 7.74-17.44 10.69-17.18 8a15.28 15.28 0 0 0 -4.66 3.36l-11.4 12c-1.75 1.82-1.61 4.26-.34 5.3a2.74 2.74 0 0 0 3.23 0l-2.43 3.09-2.54 3.21c-2.59 3.66-.11 6.3 2.77 6.25z" fill="#ffb294"/><path d="m152.2 131.27 9.3-6.72a11.38 11.38 0 0 0 3.88-4.94 106.63 106.63 0 0 1 9.86-19l3.76-16.41 17.54-8.2a6.62 6.62 0 0 0 2.54-5c-6.45 2.76-21.84 9.22-21.84 9.22l-4.32 18.78-11.3 21.2z" fill="#6e4438" opacity=".3"/><path d="m140.17 130.09v-19.09a23.74 23.74 0 0 0 5.83-8l7.88-2.87a2.32 2.32 0 0 1 3 2.73l-.59 2.7 3.83-11.56-15.12 6.53-7.06 9.18z" fill="#6e4438" opacity=".3"/><path d="m99.76 130.09.39.1c1.63.34 3.78-.22 5.81-2.15a28 28 0 0 0 6.81-10c3.31-4 6.33-7.85 6.91-10.88l11.71-3.46 6.5-9.63c-5.33 4.38-12.42 7.88-20.92 10.65l-6.26 11.63z" fill="#6e4438" opacity=".3"/><path d="m92.24 121.52a4.76 4.76 0 0 0 2.31-.65 66.74 66.74 0 0 0 11.61-11.47l5-10.14 16.84-10.6-18 8.91c-5 9.55-10.75 17.89-17.76 23.95z" fill="#6e4438" opacity=".3"/><path d="m91.2 109a2.74 2.74 0 0 0 3.23 0l10-14.93 16.77-9.72-17.07 8.56c-4.61 6.9-9.21 13.88-12.93 16.09z" fill="#6e4438" opacity=".3"/><path d="m142 154.18a.67.67 0 0 0 .31-.07l.36-.21a13.63 13.63 0 0 0 3.42-3 .65.65 0 1 0 -1-.83 12.05 12.05 0 0 1 -3.09 2.73l-.31.17a.65.65 0 0 0 -.26.88.64.64 0 0 0 .57.33z" fill="#666"/><path d="m145.56 151.17a.65.65 0 0 0 .49-.23 14.11 14.11 0 0 0 3.26-6.94.64.64 0 0 0 -.56-.72.66.66 0 0 0 -.72.56 12.86 12.86 0 0 1 -3 6.27.64.64 0 0 0 .5 1.06z" fill="#666"/><path d="m138.32 163.12a5.8 5.8 0 0 1 1.48 3.67v.92l.71 1.4-.72.59v1.51l.71 1.27v2.72l-.71.52v.75l.72 1.74-.72.8.66 1.73-.67.4v1.73a2.13 2.13 0 0 0 .21.88l1.21 2.57a2.25 2.25 0 0 0 .83 1 .69.69 0 0 0 .83 0 .24.24 0 0 1 -.08.06l.74-.44.09-.06 1.22-1.13a.87.87 0 0 0 .21-.63v-16.08a2.35 2.35 0 0 1 .42-1.46 1.82 1.82 0 0 1 .33 0 2 2 0 0 0 1.23-.25l.75-.44a2.76 2.76 0 0 0 1.11-2.51v-4.91a9.4 9.4 0 0 0 -4.16-7.37l-3.82-2.26a2.9 2.9 0 0 0 -3-.3l-.73.44a3 3 0 0 0 -1.17 2.72v4.91a8.68 8.68 0 0 0 2.32 5.51zm2.77-9.83a1.63 1.63 0 0 1 .2-.82 1.44 1.44 0 0 1 .81.24 4 4 0 0 1 1.76 3.09 1.64 1.64 0 0 1 -.21.83 1.58 1.58 0 0 1 -.82-.24 4 4 0 0 1 -1.74-3.1z" fill="#4d4d4d"/><path d="m144 152.51a9.4 9.4 0 0 1 4.16 7.37v4.92c0 1.86-1 2.88-2.35 2.75-.93-.08-1.49.73-1.5 1.91v16.08a.88.88 0 0 1 -.22.63l-1.22 1.13a.69.69 0 0 1 -.83 0 2.25 2.25 0 0 1 -.83-1l-1.21-2.55a2.13 2.13 0 0 1 -.21-.88v-1.73l.72-.29-.71-1.84.72-.8-.72-1.74v-.75l.71-.52v-2.72l-.71-1.27v-1.51l.72-.59-.71-1.4v-.92a5.8 5.8 0 0 0 -1.48-3.67 8.68 8.68 0 0 1 -2.32-5.51v-4.91c0-2.71 1.88-3.81 4.19-2.45zm-2.44 31.86a1 1 0 0 0 .43.78c.24.14.45 0 .45-.25v-18a1 1 0 0 0 -.45-.78c-.24-.14-.43 0-.43.26v18zm.51-27.54c1 .58 1.76.12 1.77-1a4 4 0 0 0 -1.76-3.09c-1-.57-1.75-.12-1.76 1a4 4 0 0 0 1.75 3.1z" fill="#fff"/><path d="m132.25 118.44a3.62 3.62 0 0 1 1.47-3.31l4.46-2.65a3.21 3.21 0 0 1 2.88 0 6.82 6.82 0 0 1 .71.36l5.74 3.38a8.6 8.6 0 0 1 .94.68 11.49 11.49 0 0 1 4.08 8.22v15.4a3.66 3.66 0 0 1 -1.47 3.31l-4.47 2.65a3.46 3.46 0 0 1 -3.59-.36l-5.73-3.38a11.39 11.39 0 0 1 -5-8.91z"/><path d="m137.3 115.5c-2.78-1.64-5.05-.33-5.05 2.94l-.05 15.4a11.39 11.39 0 0 0 5 8.91l5.73 3.38c2.79 1.65 5 .33 5.06-2.95v-15.39a11.37 11.37 0 0 0 -5-8.9z" fill="#3c3c3c"/><path d="m136.28 122.54a6.37 6.37 0 0 0 2.82 5 1.83 1.83 0 0 0 2.22 0l-.19.16.41-.25a2.05 2.05 0 0 0 .83-1.86 5.46 5.46 0 0 0 0-.57.44.44 0 0 0 0-.1s0-.07 0-.1a1.18 1.18 0 0 0 0-.2c0-.11 0-.22-.08-.33s0-.07 0-.17a.65.65 0 0 1 0-.13l-.1-.27c0-.09-.07-.18-.12-.3l-.1-.22-.12-.24a2.73 2.73 0 0 1 -.13-.25l-.15-.24c0-.09-.11-.17-.16-.25l-.08-.11v-.06a.36.36 0 0 1 -.07-.1l-.23-.28-.12-.13-.09-.1a1.14 1.14 0 0 0 -.11-.11 1.79 1.79 0 0 0 -.25-.23l-.16-.15a5.93 5.93 0 0 0 -.54-.38 3 3 0 0 0 -.4-.2h-.12-.1-.11l-.25-.06h-.4a1.59 1.59 0 0 0 -.23 0h-.1l-.15.06-.16.08-.4.24a2 2 0 0 0 -1.06 1.85zm2.1-2h.12zm-1.03.01a.67.67 0 0 1 .17-.06 1.15 1.15 0 0 0 -.17.09z"/><path d="m139.12 120.88c-1.57-.93-2.84-.18-2.84 1.66a6.37 6.37 0 0 0 2.82 5c1.58.93 2.85.19 2.86-1.66a6.41 6.41 0 0 0 -2.84-5z" fill="#666"/><path d="m136.28 132.67a6.39 6.39 0 0 0 2.82 5 1.83 1.83 0 0 0 2.22 0 1 1 0 0 1 -.19.16l.41-.24a2.07 2.07 0 0 0 .83-1.87 5.46 5.46 0 0 0 0-.56.3.3 0 0 0 0-.1s0-.07 0-.11a1.77 1.77 0 0 0 0-.2c0-.11 0-.22-.08-.33s0-.07 0-.16a.65.65 0 0 1 0-.13l-.1-.28-.12-.29a2.14 2.14 0 0 0 -.1-.22l-.12-.25-.13-.24-.15-.25c0-.08-.11-.16-.16-.25l-.08-.1v-.06a.61.61 0 0 1 -.07-.1c-.08-.1-.16-.19-.23-.29l-.12-.12-.09-.1-.11-.12-.25-.22-.16-.15a4.45 4.45 0 0 0 -.54-.38l-.4-.21h-.12-.1-.11l-.25-.06h-.4-.23-.1-.15l-.16.08-.4.24a2 2 0 0 0 -1.06 1.91zm2.1-2h.12zm-.56-.07a1 1 0 0 1 .18 0 1.09 1.09 0 0 0 -.18.03zm-.47.08.17-.07z"/><path d="m139.12 131c-1.57-.93-2.84-.19-2.84 1.66a6.39 6.39 0 0 0 2.82 5c1.58.93 2.85.18 2.86-1.66a6.41 6.41 0 0 0 -2.84-5z" fill="#666"/><path d="m139.09 155a6.91 6.91 0 0 0 3.18-.91.65.65 0 0 0 -.61-1.14c-1.54.83-3 1-3.91.42a3.1 3.1 0 0 1 -1.24-2.82c0-2.41 1.4-5.45 3.57-7.75a.65.65 0 0 0 0-.91.64.64 0 0 0 -.91 0 13.52 13.52 0 0 0 -3.92 8.64 4.32 4.32 0 0 0 1.87 3.92 3.86 3.86 0 0 0 1.97.55z" fill="#666"/><path d="m144.22 106.2a21 21 0 0 1 -4.05 4.84v19c0 7.27-6.78 6.55-8.18 2l-3.62-20.04a7.89 7.89 0 0 1 1.24-5.84z" fill="#ffb294"/><path d="m144.22 106.2a21 21 0 0 1 -4.05 4.84v19l-2.27-20.38 2.69-3.51z" fill="#6e4438" opacity=".3"/></svg>