<svg viewBox="0 0 361.36 227.78" xmlns="http://www.w3.org/2000/svg" xmlns:xlink="http://www.w3.org/1999/xlink"><filter id="a" color-interpolation-filters="sRGB" filterUnits="userSpaceOnUse" height="32766" width="23.56" x="78.47" y="-6548.51"><feFlood flood-color="#fff" result="bg"/><feBlend in="SourceGraphic" in2="bg"/></filter><mask id="b" height="32766" maskUnits="userSpaceOnUse" width="23.56" x="78.47" y="-6548.51"><g filter="url(#a)"/></mask><linearGradient id="c" gradientTransform="matrix(-1 0 0 1 -1174.94 .95)" gradientUnits="userSpaceOnUse" x1="-1276.56" x2="-1250.48" y1="96.69" y2="96.69"><stop offset="0"/><stop offset=".52" stop-color="#fff"/><stop offset="1"/></linearGradient><filter id="d" color-interpolation-filters="sRGB" filterUnits="userSpaceOnUse" height="32766" width="7.6" x="118.48" y="-6548.51"><feFlood flood-color="#fff" result="bg"/><feBlend in="SourceGraphic" in2="bg"/></filter><mask id="e" height="32766" maskUnits="userSpaceOnUse" width="7.6" x="118.48" y="-6548.51"><g filter="url(#d)"/></mask><linearGradient id="f" gradientTransform="matrix(-1 0 0 1 -1174.94 .95)" gradientUnits="userSpaceOnUse" x1="-1297.98" x2="-1296.54" y1="110.54" y2="113.9"><stop offset="0" stop-color="#fff"/><stop offset=".36" stop-color="#fff"/><stop offset="1"/></linearGradient><filter id="g" color-interpolation-filters="sRGB" filterUnits="userSpaceOnUse" height="32766" width="7.28" x="145" y="-6548.51"><feFlood flood-color="#fff" result="bg"/><feBlend in="SourceGraphic" in2="bg"/></filter><mask id="h" height="32766" maskUnits="userSpaceOnUse" width="7.28" x="145" y="-6548.51"><g filter="url(#g)"/></mask><linearGradient id="i" gradientTransform="matrix(-1 0 0 1 -1174.94 .95)" gradientUnits="userSpaceOnUse" x1="-1322.98" x2="-1323.61" y1="68.66" y2="77.16"><stop offset="0" stop-color="#fff"/><stop offset="1"/></linearGradient><filter id="j" color-interpolation-filters="sRGB" filterUnits="userSpaceOnUse" height="32766" width="19.04" x="100.22" y="-6548.51"><feFlood flood-color="#fff" result="bg"/><feBlend in="SourceGraphic" in2="bg"/></filter><mask id="k" height="32766" maskUnits="userSpaceOnUse" width="19.04" x="100.22" y="-6548.51"><g filter="url(#j)"/></mask><linearGradient id="l" x1="-1286.26" x2="-1281.38" xlink:href="#i" y1="89.02" y2="99.47"/><filter id="m" color-interpolation-filters="sRGB" filterUnits="userSpaceOnUse" height="32766" width=".01" x="78.45" y="-6548.51"><feFlood flood-color="#fff" result="bg"/><feBlend in="SourceGraphic" in2="bg"/></filter><mask id="n" height="32766" maskUnits="userSpaceOnUse" width=".01" x="78.45" y="-6548.51"><g filter="url(#m)"/></mask><linearGradient id="o" x1="-1252.99" x2="-1252.97" xlink:href="#c" y1="102.52" y2="102.52"/><filter id="p" color-interpolation-filters="sRGB" filterUnits="userSpaceOnUse" height="32766" width="23.11" x="-19.52" y="-6548.51"><feFlood flood-color="#fff" result="bg"/><feBlend in="SourceGraphic" in2="bg"/></filter><mask id="q" height="32766" maskUnits="userSpaceOnUse" width="23.11" x="-19.52" y="-6548.51"><g filter="url(#p)"/></mask><linearGradient id="r" x1="-1178.29" x2="-1155.27" xlink:href="#c" y1="48.28" y2="48.28"/><filter id="s" color-interpolation-filters="sRGB" filterUnits="userSpaceOnUse" height="32766" width="23.58" x="73.13" y="-6548.51"><feFlood flood-color="#fff" result="bg"/><feBlend in="SourceGraphic" in2="bg"/></filter><mask id="t" height="32766" maskUnits="userSpaceOnUse" width="23.58" x="73.13" y="-6548.51"><g filter="url(#s)"/></mask><linearGradient id="u" gradientTransform="matrix(-1 0 0 1 -1174.94 .95)" gradientUnits="userSpaceOnUse" x1="-1265.4" x2="-1253.56" y1="36.02" y2="42.89"><stop offset="0"/><stop offset="1" stop-color="#fff"/></linearGradient><filter id="v" color-interpolation-filters="sRGB" filterUnits="userSpaceOnUse" height="32766" width="23.58" x="95.57" y="-6548.51"><feFlood flood-color="#fff" result="bg"/><feBlend in="SourceGraphic" in2="bg"/></filter><mask id="w" height="32766" maskUnits="userSpaceOnUse" width="23.58" x="95.57" y="-6548.51"><g filter="url(#v)"/></mask><linearGradient id="x" x1="-1287.9" x2="-1276.06" xlink:href="#u" y1="22.48" y2="29.36"/><clipPath id="y"><path d="m343.64 38.23-321.2-38.09a20.07 20.07 0 0 0 -22.17 23.16l30.52 187.63a20.06 20.06 0 0 0 23.29 16.55l260.63-45.95a20.08 20.08 0 0 0 15.79-14.18l30.05-103.59a20.07 20.07 0 0 0 -16.91-25.53z"/></clipPath><linearGradient id="z" gradientTransform="matrix(-1 0 0 1 -1174.94 .95)" gradientUnits="userSpaceOnUse" x1="-1268.52" x2="-1265.49" y1="118.03" y2="106.97"><stop offset="0" stop-color="#c1c0c0"/><stop offset="1" stop-color="#dfdddb"/></linearGradient><linearGradient id="A" gradientTransform="matrix(-1 0 0 1 -1174.94 .95)" gradientUnits="userSpaceOnUse" x1="-1268.07" x2="-1264.64" y1="116.44" y2="104.94"><stop offset="0" stop-color="#b7b6b6"/><stop offset="1" stop-color="#dfdddb"/></linearGradient><linearGradient id="B" x1="-1265.27" x2="-1267.59" xlink:href="#z" y1="108.39" y2="117.43"/><linearGradient id="C" x1="-1267.49" x2="-1265.56" xlink:href="#z" y1="113.48" y2="113.48"/><filter id="D" color-interpolation-filters="sRGB" filterUnits="userSpaceOnUse" height="11.39" width="23.56" x="78.47" y="86.55"><feFlood flood-color="#fff" result="bg"/><feBlend in="SourceGraphic" in2="bg"/></filter><mask id="E" height="11.39" maskUnits="userSpaceOnUse" width="23.56" x="78.47" y="86.55"><g filter="url(#D)" mask="url(#b)"><path d="m83.13 87.11 2.87-.56 16 8.32-1 1.18s-7.89-4.23-11.51-6.05-8-3.07-9.53 1.43a32.29 32.29 0 0 0 -1.49 6.55c.09-1.7.74-9.81 4.66-10.87z" fill="url(#c)"/></g></mask><linearGradient id="F" gradientTransform="matrix(-1 0 0 1 -1174.94 .95)" gradientUnits="userSpaceOnUse" x1="-1276.56" x2="-1250.48" y1="96.69" y2="96.69"><stop offset="0" stop-color="#fff"/><stop offset=".52" stop-color="#fff"/><stop offset="1" stop-color="#fff"/></linearGradient><filter id="G" color-interpolation-filters="sRGB" filterUnits="userSpaceOnUse" height=".3" width=".01" x="78.45" y="97.93"><feFlood flood-color="#fff" result="bg"/><feBlend in="SourceGraphic" in2="bg"/></filter><mask id="H" height=".3" maskUnits="userSpaceOnUse" width=".01" x="78.45" y="97.93"><g filter="url(#G)" mask="url(#n)"><path d="m78.45 98.08s0 0 0-.15v.3z" fill="url(#o)"/></g></mask><linearGradient id="I" x1="-1252.99" x2="-1252.97" xlink:href="#F" y1="102.52" y2="102.52"/><filter id="J" color-interpolation-filters="sRGB" filterUnits="userSpaceOnUse" height="24.23" width="23.11" x="-19.52" y="32.09"><feFlood flood-color="#fff" result="bg"/><feBlend in="SourceGraphic" in2="bg"/></filter><mask id="K" height="24.23" maskUnits="userSpaceOnUse" width="23.11" x="-19.52" y="32.09"><g filter="url(#J)" mask="url(#q)"><path d="m3.59 56.33c0-.08.1-2-2-8.39-2.12-6.62-5.77-9.94-11.35-13.35-5.73-3.54-9.6-2.29-9.76-2.24l.22.66s3.75-1.19 9.18 2.17 9 6.56 11.08 13c2 6.17 1.93 8.12 1.93 8.14z" fill="url(#r)"/></g></mask><linearGradient id="L" x1="-1178.29" x2="-1155.27" xlink:href="#F" y1="48.28" y2="48.28"/><filter id="M" color-interpolation-filters="sRGB" filterUnits="userSpaceOnUse" height="23.95" width="23.58" x="73.13" y="22.59"><feFlood flood-color="#fff" result="bg"/><feBlend in="SourceGraphic" in2="bg"/></filter><mask id="N" height="23.95" maskUnits="userSpaceOnUse" width="23.58" x="73.13" y="22.59"><g filter="url(#M)" mask="url(#t)"><path d="m83.64 22.59 10.36 14.82a1.58 1.58 0 0 1 -.24 2.38c-1.41 1-6.63 3.9-6.63 3.9s-2.14.65-3.12-.82-10.88-14.87-10.88-14.87l10.69 17a3.79 3.79 0 0 0 4.73 1.21 36.87 36.87 0 0 0 6.74-3.81s3-1.38.28-5-11.93-14.81-11.93-14.81z" fill="url(#u)"/></g></mask><linearGradient id="O" gradientTransform="matrix(-1 0 0 1 -1174.94 .95)" gradientUnits="userSpaceOnUse" x1="-1265.4" x2="-1253.56" y1="36.02" y2="42.89"><stop offset="0" stop-color="#fff"/><stop offset="1" stop-color="#fff"/></linearGradient><linearGradient id="P" x1="-1257.27" x2="-1269.02" xlink:href="#i" y1="40.69" y2="34.87"/><filter id="Q" color-interpolation-filters="sRGB" filterUnits="userSpaceOnUse" height="23.95" width="23.58" x="95.57" y="8.95"><feFlood flood-color="#fff" result="bg"/><feBlend in="SourceGraphic" in2="bg"/></filter><mask id="R" height="23.95" maskUnits="userSpaceOnUse" width="23.58" x="95.57" y="8.95"><g filter="url(#Q)" mask="url(#w)"><path d="m106.08 9 10.31 14.83a1.58 1.58 0 0 1 -.24 2.38c-1.42 1-6.63 3.9-6.63 3.9s-2.14.65-3.12-.82-10.83-14.92-10.83-14.92l10.69 17a3.78 3.78 0 0 0 4.73 1.2 36.46 36.46 0 0 0 6.74-3.8s3-1.39.28-5-11.93-14.77-11.93-14.77z" fill="url(#x)"/></g></mask><linearGradient id="S" x1="-1287.9" x2="-1276.06" xlink:href="#O" y1="22.48" y2="29.36"/><linearGradient id="T" x1="-1279.77" x2="-1291.52" xlink:href="#i" y1="27.15" y2="21.33"/><filter id="U" color-interpolation-filters="sRGB" filterUnits="userSpaceOnUse" height="4.73" width="7.6" x="118.48" y="105.84"><feFlood flood-color="#fff" result="bg"/><feBlend in="SourceGraphic" in2="bg"/></filter><mask id="V" height="4.73" maskUnits="userSpaceOnUse" width="7.6" x="118.48" y="105.84"><g filter="url(#U)" mask="url(#e)"><path d="m123.57 106c1.6-.34 1.83.15 2.12.87s.68 1.76 0 2.23-4.85 1.32-6.73 1.52l-.51-1.48z" fill="url(#f)"/></g></mask><linearGradient id="W" gradientTransform="matrix(-1 0 0 1 -1174.94 .95)" gradientUnits="userSpaceOnUse" x1="-1297.98" x2="-1296.54" y1="110.54" y2="113.9"><stop offset="0" stop-color="#394142"/><stop offset=".36" stop-color="#7a8a8e"/><stop offset="1" stop-color="#515c5f"/></linearGradient><filter id="X" color-interpolation-filters="sRGB" filterUnits="userSpaceOnUse" height="15.48" width="7.28" x="145" y="59.7"><feFlood flood-color="#fff" result="bg"/><feBlend in="SourceGraphic" in2="bg"/></filter><mask id="Y" height="15.48" maskUnits="userSpaceOnUse" width="7.28" x="145" y="59.7"><g filter="url(#X)" mask="url(#h)"><path d="m146.76 63.57a9.37 9.37 0 0 0 -.23-3.22c.06.1.05-.25 0-.65 1.82 3.16 4.75 8.36 5.72 10.09a1.32 1.32 0 0 0 -.13.48 8.41 8.41 0 0 1 -3 4.91c-.66-3-3.55-8-4.11-9a4 4 0 0 0 1.75-2.61z" fill="url(#i)"/></g></mask><linearGradient id="Z" x1="-1322.98" x2="-1323.61" xlink:href="#O" y1="68.66" y2="77.16"/><filter id="aa" color-interpolation-filters="sRGB" filterUnits="userSpaceOnUse" height="13.27" width="19.04" x="100.22" y="81.88"><feFlood flood-color="#fff" result="bg"/><feBlend in="SourceGraphic" in2="bg"/></filter><mask id="ab" height="13.27" maskUnits="userSpaceOnUse" width="19.04" x="100.22" y="81.88"><g filter="url(#aa)" mask="url(#k)"><path d="m101.37 81.88a11.46 11.46 0 0 0 4.48 3.37 9.13 9.13 0 0 0 3.42.51 25.29 25.29 0 0 0 4.6-.51 67.44 67.44 0 0 1 5.39 8.18 27.16 27.16 0 0 1 -8.15 1.72 10.7 10.7 0 0 1 -1.56-.11c-2.94-.47-4.57-2.71-5.45-3.91-.17-.23-.31-.42-.43-.56-2.23-2.61-3.45-4.7-3.45-5.87a4.52 4.52 0 0 1 1.15-2.82z" fill="url(#l)"/></g></mask><linearGradient id="ac" x1="-1286.26" x2="-1281.38" xlink:href="#O" y1="89.02" y2="99.47"/><g clip-path="url(#y)"><path d="m343.64 38.23-321.2-38.09a20.07 20.07 0 0 0 -22.17 23.16l30.52 187.63a20.06 20.06 0 0 0 23.29 16.55l260.63-45.95a20.08 20.08 0 0 0 15.79-14.18l30.05-103.59a20.07 20.07 0 0 0 -16.91-25.53z" fill="#c8e6ef"/><g clip-path="url(#y)"><path d="m328 68.87-253-38.53a25.13 25.13 0 0 0 -28.72 28l24.36 192.66a25.14 25.14 0 0 0 30.49 21.36l204.31-46.25a25.15 25.15 0 0 0 19-19l24.34-107.84a25.15 25.15 0 0 0 -20.78-30.4z" fill="#a4d5e4"/></g><path d="m-41.28 39.14c-1.46.7-1.51 1.94-.09 2.75l145.37 82.64a15.14 15.14 0 0 0 5.53 1.62l7 .39a16.59 16.59 0 0 0 5.72-.9l10.33-4a43.35 43.35 0 0 0 5.31-2.58l13.11-7.83a24.36 24.36 0 0 0 4.54-3.69l2.63-2.86a6.81 6.81 0 0 0 1.5-5.1l-.48-2.73a7 7 0 0 0 -3.1-4.34l-141.5-77.51a6.49 6.49 0 0 0 -5.27-.14z" opacity=".2"/><path d="m86.85 97.11 3.65-2.06c1.08.58 2.2 1.19 3.31 1.73a19.81 19.81 0 0 1 8.42 8.6 104 104 0 0 1 3.77 10.13l-.09.06-6.75 3.78c-1.58.68-3.65.46-5.91-.83-5-2.85-9.05-9.82-9.07-15.56.03-2.88 1.03-4.91 2.67-5.85z" fill="#3a3939"/><path d="m84.22 103c0 5.74 4.08 12.71 9.07 15.56s9 .5 9-5.24-4.09-12.71-9.08-15.56-9.02-.55-8.99 5.24z" fill="#575656"/><path d="m84.7 103.89c0 5.21 3.71 11.54 8.24 14.12s8.18.46 8.15-4.75-3.71-11.54-8.23-14.13-8.18-.46-8.16 4.76z" fill="#3a3939"/><path d="m87.27 105.54a12 12 0 0 0 5.46 9.36c3 1.72 5.43.31 5.41-3.15a12 12 0 0 0 -5.46-9.37c-3-1.71-5.42-.3-5.41 3.16z" fill="url(#z)"/><path d="m92.68 102.38a8.16 8.16 0 0 1 1.18.83l-.41-.26c-2.55-1.46-4.61-.26-4.6 2.69a10.19 10.19 0 0 0 4.65 8c2.53 1.45 4.58.28 4.6-2.62v.77c0 3.46-2.4 4.87-5.41 3.15a12 12 0 0 1 -5.46-9.36c.03-3.5 2.45-4.91 5.45-3.2z" fill="url(#A)"/><path d="m92.3 102.19c-2.38-.86-4.18.51-4.17 3.4a11.32 11.32 0 0 0 5.16 8.84c1.85 1.06 3.46.84 4.36-.34-.86 1.65-2.73 2.06-4.92.81a12 12 0 0 1 -5.46-9.36c-.01-3.31 2.21-4.74 5.03-3.35z" fill="url(#B)"/><path d="m89.56 107.27a6.37 6.37 0 0 0 2.91 5c1.6.92 2.89.17 2.88-1.68a6.4 6.4 0 0 0 -2.91-5c-1.6-.91-2.89-.16-2.88 1.68z" fill="#dadbd9"/><path d="m91.09 108.44a2.12 2.12 0 0 0 1 1.66c.53.31 1 .06 1-.56a2.16 2.16 0 0 0 -1-1.67c-.57-.3-1-.05-1 .57z" fill="url(#C)"/><g fill="#343433"><path d="m92.83 107.78a.92.92 0 0 0 .41.71c.23.12.41 0 .41-.24a.9.9 0 0 0 -.41-.71c-.24-.12-.41-.02-.41.24z"/><path d="m90.74 106.55a.92.92 0 0 0 .41.7c.23.13.41 0 .41-.23a.92.92 0 0 0 -.41-.71c-.23-.12-.41-.02-.41.24z"/><path d="m90.06 108.51a.9.9 0 0 0 .41.71c.22.13.41 0 .4-.24a.88.88 0 0 0 -.41-.7c-.22-.13-.4-.03-.4.23z"/><path d="m91.73 110.89a.88.88 0 0 0 .41.7c.23.13.41 0 .41-.24a.92.92 0 0 0 -.41-.7c-.23-.13-.41-.02-.41.24z"/><path d="m93.39 110.41a.88.88 0 0 0 .41.7c.23.13.41 0 .41-.23a.92.92 0 0 0 -.41-.71c-.23-.17-.41-.02-.41.24z"/><path d="m92.26 104a.62.62 0 1 0 .86-.43.69.69 0 0 0 -.86.43z"/><path d="m90.06 104c0 .41.13.76.37.77s.46-.3.49-.71-.14-.76-.38-.77-.45.25-.48.71z"/><path d="m94.78 105.81a.69.69 0 1 0 1 .18.72.72 0 0 0 -1-.18z"/><path d="m96.47 108.91a.7.7 0 0 0 -.69.69.76.76 0 0 0 1.49-.12.7.7 0 0 0 -.8-.57z"/><path d="m96.61 111.73a.65.65 0 0 0 -.86.31c-.08.28.18.6.57.71s.78 0 .86-.31-.18-.6-.57-.71z"/><path d="m94.73 113.33c-.25-.22-.52-.31-.61-.21s.06.35.31.56.53.31.61.21-.04-.35-.31-.56z"/></g><path d="m83.51 93.92c1.16-1.92 3.88-.56 7 1.13l-3.66 2.06c-1.64.94-2.64 3-2.63 5.85v.24l-2.22.8c-.27-5.52 0-7.6 1.51-10.08z" fill="#212020"/><path d="m-16.27 38.42 2.82-1.58a11.81 11.81 0 0 1 3.23 1.47c5.79 3.61 10.06 7.28 10.48 19.23l.67.38-4.88 2.73c-1.58.68-3.64.46-5.91-.84-5-2.85-9-9.81-9.07-15.56.02-2.86 1.02-4.88 2.66-5.83z" fill="#3a3939"/><path d="m-41.74 17v-16.19s2.38-19.65 3-25.47 2-6 3.74-7l36.52-22 1.33-.74a4.84 4.84 0 0 1 3.33-.08l96.74 55.24c5.68 3.27 7.39 4.65 9 7l13.08 18.37s18.7 29.11 20.37 31.94 7.07 12.42 7.07 12.42a19.23 19.23 0 0 1 3.78 9.39c.5 4.31.87 10.05-.94 14.63s-6.45 7.95-14.31 12.73-17.28 9.53-23.83 10a23.25 23.25 0 0 1 -11-1.62l-.17-.08a103.05 103.05 0 0 0 -3.83-10.19 19.81 19.81 0 0 0 -8.42-8.6c-4.36-2.1-8.73-5.44-10.3-2.86s-1.69 4.6-1.42 10.11l-81.71-46.44c-.45-11.97-4.72-15.64-10.51-19.25s-9-.79-9.58 1.28a11.11 11.11 0 0 0 -.06 4.29c-4-2.35-18.8-11.07-20.38-12.78-1.82-2-2.24-8.91-2.37-11.14s.87-2.96.87-2.96z" fill="#dfe5e9"/><path d="m-40.24 31.1c-1.82-2-2.24-8.91-2.37-11.14s.87-3 .87-3v-16.19s2.38-19.65 3-25.47a14.6 14.6 0 0 1 1.08-4.64s.68-1.39 4.24.77 96.32 55.18 96.32 55.18a36.42 36.42 0 0 1 10 10.84c4.51 7.36 9.33 16.55 9.33 16.55l14.83 25.73s5.79 8.29 7.33 10.47 7.61 3.6 7.61 3.6 2.38 14.83 2 23.52a21.82 21.82 0 0 1 -7.76-1.67l-.17-.08a103.05 103.05 0 0 0 -3.83-10.19 19.81 19.81 0 0 0 -8.42-8.6c-4.36-2.1-8.73-5.44-10.3-2.86s-1.79 4.57-1.52 10.08l-81.71-46.44c-.45-11.97-4.72-15.64-10.51-19.25s-9-.79-9.58 1.28a11.11 11.11 0 0 0 -.06 4.29c-4-2.35-18.8-11.07-20.38-12.78z" opacity=".1"/><path d="m112 93.8a29.81 29.81 0 0 1 -3.59-1.12l-.39-1.34a11.59 11.59 0 0 1 -2.18.12 6.46 6.46 0 0 1 -1.09-.82c.38-.84 2.66-2.47 9.13-5.59a174.91 174.91 0 0 0 30.67-18.72 11.91 11.91 0 0 0 3.35-3.88c2.11 3.7 4.55 8 4.55 8a19.23 19.23 0 0 1 3.78 9.39 51.88 51.88 0 0 1 .4 7.17 182.3 182.3 0 0 1 -21.27 15.22c-12.89 7.88-19.08 6-21.84 3.7-.52-6.39-1.52-12.13-1.52-12.13z" opacity=".03"/><g mask="url(#E)"><path d="m83.13 87.11 2.87-.56 16 8.32-1 1.18s-7.89-4.23-11.51-6.05-8-3.07-9.53 1.43a32.29 32.29 0 0 0 -1.49 6.55c.09-1.7.74-9.81 4.66-10.87z" fill="url(#F)" opacity=".5"/></g><g mask="url(#H)"><path d="m78.45 98.08s0 0 0-.15v.3z" fill="url(#I)" opacity=".5"/></g><path d="m-38.22 15.09 111.66 63.46s25.79 13.56 28.32 14.77a20 20 0 0 0 12.46 2.25c5.7-.94 14.48-5.41 21.08-9.45s12.87-8.64 15.36-11.39a10.43 10.43 0 0 0 2.16-3.84l.28.39a10.75 10.75 0 0 1 -2.43 4.87c-2.5 2.75-8.76 7.36-15.36 11.39s-15.38 8.51-21.08 9.46a20 20 0 0 1 -12.46-2.25c-2.53-1.22-28.32-14.75-28.32-14.75l-110.08-62.95z" opacity=".1"/><g fill="#fff" opacity=".5"><path d="m4.41-48.86a.36.36 0 0 0 .11.1l90.37 51.85a1.06 1.06 0 0 0 .87 0l1.24-.55a.39.39 0 0 0 .14-.1c.1.12 0 .27-.14.36l-1.21.58a1.08 1.08 0 0 1 -.88 0l-90.39-51.88c-.17-.1-.21-.25-.11-.36z"/><path d="m1-46.81.12.09 90.35 51.85a1.06 1.06 0 0 0 .87 0l1.22-.58a.49.49 0 0 0 .13-.1c.1.12.06.27-.13.36l-1.22.58a1.06 1.06 0 0 1 -.87 0l-90.37-51.84c-.18-.11-.22-.25-.1-.36z"/><path d="m-2.38-44.7a.41.41 0 0 0 .12.09l90.36 51.85a1.08 1.08 0 0 0 .88 0l1.21-.58a.56.56 0 0 0 .14-.1c.1.12 0 .27-.14.36l-1.19.62a1.08 1.08 0 0 1 -.88 0l-90.38-51.88c-.18-.11-.22-.25-.12-.36z"/><path d="m-5.88-42.66a.35.35 0 0 0 .11.09l90.37 51.85a1.06 1.06 0 0 0 .87 0l1.22-.58a.85.85 0 0 0 .14-.1c.1.12 0 .27-.14.36l-1.21.58a1.08 1.08 0 0 1 -.88 0l-90.37-51.84c-.17-.11-.23-.25-.11-.36z"/><path d="m-9.36-40.62.12.09 90.37 51.85a1.06 1.06 0 0 0 .87 0l1.21-.58a.56.56 0 0 0 .14-.1c.1.12.06.27-.13.36l-1.22.62a1.06 1.06 0 0 1 -.87 0l-90.37-51.88c-.18-.11-.22-.25-.12-.36z"/><path d="m-12.94-38.47a.53.53 0 0 0 .11.09l90.37 51.85a1.06 1.06 0 0 0 .87 0l1.22-.58a.85.85 0 0 0 .14-.1c.1.12 0 .27-.14.36l-1.21.58a1.08 1.08 0 0 1 -.88 0l-90.36-51.84c-.18-.11-.18-.25-.12-.36z"/><path d="m-16.34-36.43.12.09 90.37 51.85a1.06 1.06 0 0 0 .87 0l1.22-.51.13-.1c.1.12.06.27-.13.36l-1.24.55a1.06 1.06 0 0 1 -.87 0l-90.35-51.88c-.18-.11-.22-.25-.12-.36z"/><path d="m-20-34.25a.27.27 0 0 0 .11.1l90.39 51.85a1.06 1.06 0 0 0 .87 0l1.22-.58a.5.5 0 0 0 .14-.1c.1.13 0 .27-.14.36l-1.21.62a1 1 0 0 1 -.88 0l-90.37-51.89c-.13-.11-.21-.24-.13-.36z"/><path d="m-23.59-32.2a.63.63 0 0 0 .12.1l90.37 51.85a1.06 1.06 0 0 0 .87 0l1.23-.55a.34.34 0 0 0 .13-.1c.1.12.06.27-.13.36l-1.23.54a1.06 1.06 0 0 1 -.87 0l-90.37-51.84c-.18-.1-.22-.25-.12-.36z"/><path d="m-27.17-30.19a.63.63 0 0 0 .12.1l90.37 51.85a1.06 1.06 0 0 0 .87 0l1.21-.58a.39.39 0 0 0 .14-.1c.1.12.06.27-.13.36l-1.22.58a1.06 1.06 0 0 1 -.87 0l-90.32-51.85c-.23-.1-.27-.25-.17-.36z"/></g><g opacity=".05"><path d="m97.12 2.44a.4.4 0 0 0 -.12-.1l-90.37-51.85a1.06 1.06 0 0 0 -.87 0l-1.22.51a.34.34 0 0 0 -.13.1c-.1-.13-.06-.27.13-.36l1.22-.58a1 1 0 0 1 .87 0l90.37 51.92c.18.1.21.24.12.36z"/><path d="m93.69 4.49a.31.31 0 0 0 -.12-.1l-90.36-51.85a1 1 0 0 0 -.88 0l-1.21.58a.39.39 0 0 0 -.14.1c-.1-.13 0-.27.14-.36l1.21-.59a1.08 1.08 0 0 1 .88 0l90.36 51.86c.18.1.22.24.12.36z"/><path d="m90.33 6.6a.4.4 0 0 0 -.12-.1l-90.37-51.85a1 1 0 0 0 -.87 0l-1.22.58a.34.34 0 0 0 -.13.1c-.1-.13-.06-.27.13-.36l1.25-.61a1 1 0 0 1 .87 0l90.34 51.88c.18.1.22.24.12.36z"/><path d="m86.83 8.64a.4.4 0 0 0 -.12-.1l-90.37-51.85a1 1 0 0 0 -.87 0l-1.22.58a.34.34 0 0 0 -.13.1c-.1-.13-.06-.27.13-.36l1.22-.59a1.06 1.06 0 0 1 .87 0l90.37 51.86c.18.1.21.24.12.36z"/><path d="m83.35 10.68a.4.4 0 0 0 -.12-.1l-90.36-51.85a1 1 0 0 0 -.88 0l-1.21.58a.39.39 0 0 0 -.14.1c-.1-.13-.06-.27.13-.36l1.23-.62a1.06 1.06 0 0 1 .87 0l90.36 51.89c.18.1.22.24.12.36z"/><path d="m79.77 12.83a.4.4 0 0 0 -.12-.1l-90.37-51.85a1 1 0 0 0 -.87 0l-1.22.58a.34.34 0 0 0 -.13.1c-.1-.13-.06-.27.13-.37l1.22-.58a1.06 1.06 0 0 1 .87 0l90.37 51.86c.18.1.22.24.12.36z"/><path d="m76.37 14.87a.31.31 0 0 0 -.12-.1l-90.36-51.85a1 1 0 0 0 -.88 0l-1.21.58a.39.39 0 0 0 -.14.1c-.1-.13-.06-.27.14-.36l1.21-.59a1.08 1.08 0 0 1 .88 0l90.36 51.86c.18.1.22.24.12.36z"/><path d="m72.73 17.05a.38.38 0 0 0 -.12-.09l-90.37-51.86a1.06 1.06 0 0 0 -.87 0l-1.22.58a.34.34 0 0 0 -.13.1c-.11-.12-.06-.27.13-.36l1.22-.58a1.06 1.06 0 0 1 .87 0l90.37 51.85c.18.11.21.25.12.36z"/><path d="m69.12 19.1a.55.55 0 0 0 -.12-.1l-90.36-51.85a1.08 1.08 0 0 0 -.88 0l-1.21.58a.39.39 0 0 0 -.14.1c-.1-.12-.05-.27.14-.36l1.21-.58a1 1 0 0 1 .88 0l90.36 51.85c.18.1.22.26.12.36z"/><path d="m65.54 21.11a.63.63 0 0 0 -.12-.1l-90.36-51.85a1.08 1.08 0 0 0 -.88 0l-1.21.58a.39.39 0 0 0 -.14.1c-.1-.13-.06-.27.13-.36l1.22-.58a1.06 1.06 0 0 1 .87 0l90.37 51.85c.18.1.22.25.12.36z"/></g><path d="m59.86 62.69.77-20.1a1.78 1.78 0 0 0 -.82-1.47l-95.94-54.49a.76.76 0 0 0 -.37-.1.56.56 0 0 1 .85-.19l95.94 54.48a1.78 1.78 0 0 1 .82 1.47l-.77 20.1c0 .4-.24.63-.55.61a.94.94 0 0 0 .07-.31z" opacity=".1"/><path d="m-36.58-13.17c0-.41.29-.64.62-.6a.78.78 0 0 0 0 .22l-1.04 19.85a1.65 1.65 0 0 0 .78 1.47l96.22 54.74a.83.83 0 0 0 .28.09c-.1.38-.46.52-.86.29l-96.24-54.73a1.71 1.71 0 0 1 -.78-1.47z" fill="#fff" opacity=".4"/><path d="m-34-23.75 26.57 15.25 26.64 15.17 26.64 15.18 13.32 7.59 3.33 1.89a15.61 15.61 0 0 1 2.94 2.33 30 30 0 0 1 4.65 6 23.36 23.36 0 0 0 -4.3-6.37 16.06 16.06 0 0 0 -1.41-1.29 9.65 9.65 0 0 0 -1.6-1.14l-3.33-1.86-13.31-7.66-26.62-15.2-26.63-15.21-26.66-15.14z" fill="#fff" opacity=".2"/><path d="m73.45 80s6 3.17 12.53 6.57l-2.85.56-121.34-69.13 1.58-1z" fill="#fff" opacity=".2"/><g mask="url(#K)" opacity=".5"><path d="m3.59 56.33c0-.08.1-2-2-8.39-2.12-6.62-5.77-9.94-11.35-13.35-5.73-3.54-9.6-2.29-9.76-2.24l.22.66s3.75-1.19 9.18 2.17 9 6.56 11.08 13c2 6.17 1.93 8.12 1.93 8.14z" fill="url(#L)"/></g><path d="m65.62 46.63s0 0 .09 0a4.12 4.12 0 0 0 -.08 1.08c.13 2.59.51 13.29 2.19 16.79 2.56 5.38 9.92 10.89 20 15.3l5 2.5a1.5 1.5 0 0 0 .48.06c.53 0 1.27-.25 1-1.7.34 1.22.77 3.25.06 4-1 1-4.91-1.46-8.45-3.46s-16.45-7.79-19.09-15-1.41-19.2-1.2-19.57z" fill="#fff" opacity=".3"/><path d="m40.62 36.07h.35v85.55h-.35z" opacity=".1" transform="matrix(.4937901 -.86958113 .86958113 .4937901 -47.91 75.39)"/><g mask="url(#N)"><path d="m83.64 22.59 10.36 14.82a1.58 1.58 0 0 1 -.24 2.38c-1.41 1-6.63 3.9-6.63 3.9s-2.14.65-3.12-.82-10.88-14.87-10.88-14.87l10.69 17a3.79 3.79 0 0 0 4.73 1.21 36.87 36.87 0 0 0 6.74-3.81s3-1.38.28-5-11.93-14.81-11.93-14.81z" fill="url(#O)" opacity=".3"/></g><path d="m83.64 22.59 10.36 14.82a1.58 1.58 0 0 1 -.24 2.38c-1.41 1-6.63 3.9-6.63 3.9s-2.14.65-3.12-.82-10.88-14.87-10.88-14.87l10.69 17a3.79 3.79 0 0 0 4.73 1.21 36.87 36.87 0 0 0 6.74-3.81s3-1.38.28-5-11.93-14.81-11.93-14.81z" fill="url(#P)" opacity=".1"/><g mask="url(#R)"><path d="m106.08 9 10.31 14.83a1.58 1.58 0 0 1 -.24 2.38c-1.42 1-6.63 3.9-6.63 3.9s-2.14.65-3.12-.82-10.83-14.92-10.83-14.92l10.69 17a3.78 3.78 0 0 0 4.73 1.2 36.46 36.46 0 0 0 6.74-3.8s3-1.39.28-5-11.93-14.77-11.93-14.77z" fill="url(#S)" opacity=".3"/></g><path d="m106.08 9 10.31 14.83a1.58 1.58 0 0 1 -.24 2.38c-1.42 1-6.63 3.9-6.63 3.9s-2.14.65-3.12-.82-10.83-14.92-10.83-14.92l10.69 17a3.78 3.78 0 0 0 4.73 1.2 36.46 36.46 0 0 0 6.74-3.8s3-1.39.28-5-11.93-14.77-11.93-14.77z" fill="url(#T)" opacity=".1"/><path d="m66.64 45.75a1.11 1.11 0 0 1 .43.09s6 3.16 8.78 4.94a20.42 20.42 0 0 1 5 5s12.2 20.82 13.26 24.03c.74 2.24-.17 2.58-.8 2.58a1.5 1.5 0 0 1 -.48-.06l-5-2.5c-10.12-4.41-17.48-9.92-20-15.3-1.68-3.5-2.06-14.2-2.19-16.79-.09-1.69.55-1.98 1-1.99z" fill="#131b1d"/><path d="m78.18 53.88a22.11 22.11 0 0 1 1.95 2.34c1.87 3.12 4.39 7.57 6.78 11.78v10.46a69.09 69.09 0 0 1 -8-4.28z" fill="#303e42"/><path d="m66.64 46.62h.08c.6.32 6 3.23 8.66 4.87a13.59 13.59 0 0 1 1.71 1.31l.79 20.69c-4.57-3-7.8-6.26-9.28-9.35s-1.92-12.72-2.07-15.87v-.59a2 2 0 0 1 .11-1.06z" fill="#303e42"/><path d="m85.16 51.18c2-1 17.42-9.67 22.85-13.29s15.51-10 15.51-10a1.72 1.72 0 0 1 1-.35c.52 0 1.19.28 1.82 1.34 1.35 2.26 15.28 24.12 15.28 24.12s-1 3.81-5.46 7.48a140.3 140.3 0 0 1 -25.11 15.77c-4.87 2.26-8.16 2.76-10.11 2.77a6.12 6.12 0 0 1 -2.23-.29l-14.85-25.06s-.74-1.49 1.3-2.49z" fill="#131b1d"/><path d="m85.54 52c2.15-1.06 17.54-9.75 23-13.35s15.39-9.91 15.49-10h.06a.88.88 0 0 1 .45-.15c.44 0 .83.5 1.07.91 1.24 2.03 12.39 19.71 14.21 22.59-.35 1-2.15 3.36-5.57 6.17a136.88 136.88 0 0 1 -24.58 15.17c-4.77 2.21-7.84 3.15-9.66 3.15a6.52 6.52 0 0 1 -1.91-.42l-13.46-22.79c-.09-.28-.15-.8.9-1.28z" fill="#303e42"/><path d="m111.05 76.28a140.3 140.3 0 0 0 25.11-15.77c4.48-3.67 5.46-7.48 5.46-7.48s2 4.08 0 6.95-11.7 9.41-15.62 11.9-16.25 8.72-19.21 9.17-7.55-1.38-8.09-2.29c.01 0 3.66 1.54 12.35-2.48z" fill="#4d595b"/><g fill="#c4cfd2" opacity=".7"><path d="m123.44 29 .55-.35h.06a.88.88 0 0 1 .45-.15c.44 0 .83.5 1.07.91.61 1 3.57 5.76 6.66 10.68l.42 8.48s.21.92-5.37-2.56z"/><path d="m122.39 29.66 3.49 15.34-.15-.1a28.43 28.43 0 0 1 -9.59-11.29z"/></g><path d="m134.25 58.2a136.88 136.88 0 0 1 -24.58 15.17c-4.77 2.21-7.84 3.15-9.66 3.15a6.52 6.52 0 0 1 -1.91-.42l-3.54-6a134.9 134.9 0 0 1 19.25-13.69 208.07 208.07 0 0 1 18.81-9.48l7.2 5.1c-.35.97-2.15 3.36-5.57 6.17z" fill="#39474b"/><path d="m91.82 65.45c.66-2.06 2.82-3.7 5.1-4.86a5.42 5.42 0 0 1 6.14 1c1.17 1 4.71 6.25 4.71 6.25 1.48 2.16-6.42 5.65-8.77 5.16a12.36 12.36 0 0 1 -3.7-1.68z" fill="#3d4b50"/><path d="m108.5 38.62c5.36-3.57 15.39-9.91 15.49-10h.06a.88.88 0 0 1 .45-.15c.44 0 .83.5 1.07.91 1.28 2.06 12.43 19.74 14.25 22.62-.31.85-1.72 2.78-4.36 5.13-5.23-5.52-14.67-13-29.55-16.9 1-.58 1.88-1.14 2.59-1.61z" fill="#fff" opacity=".2"/><path d="m102 94.87a19.75 19.75 0 0 0 12.23 2.13c5.7-.94 14.48-5.41 21.08-9.45s12.86-8.64 15.36-11.39a10.77 10.77 0 0 0 2.43-4.86 20.32 20.32 0 0 1 3.16 8.59c.5 4.31.87 10.05-.94 14.63s-6.45 7.95-14.31 12.73-17.28 9.53-23.83 10a23.25 23.25 0 0 1 -11-1.62l-.17-.08a103.05 103.05 0 0 0 -3.83-10.19 22.33 22.33 0 0 0 -4-5.46l1.88-3.35.29-.52z" fill="#404b4d"/><path d="m100.37 96.05 1.63-1.18a19.75 19.75 0 0 0 12.23 2.13c5.7-.94 14.48-5.41 21.08-9.45s12.86-8.64 15.36-11.39a10.77 10.77 0 0 0 2.43-4.86 18.37 18.37 0 0 1 2 3.88c-.31 6.21-5.9 9.09-5.9 9.09s-4.83 3.3-10 6.44c-4.45 2.71-9.12 5.24-11.07 6.22-4.22 2.1-6.3 3.15-13.37 3.76-6 .52-12.8-3.07-14.68-4.15z" fill="#5a6567"/><path d="m135.31 87.54a103.14 103.14 0 0 0 13.69-9.73c.85.78 2.67 2.58 3.12 4 .59 1.83.73 9.23.73 9.23-2.1 1.82-5.15 3.88-11.19 7.7a107.07 107.07 0 0 1 -14.66 7.82l-3.4-7.56-3.71-3.66a98.86 98.86 0 0 0 15.42-7.8z" fill="#c4cace"/><path d="m128.24 97.67c1.95-1 6.63-3.5 11.07-6.22 5.13-3.14 10-6.44 10-6.44 1.4-.84 1.4 1.29 1.4 1.29l.16 5.56c-2.06 1.53-5 3.39-9.6 6.43a115.35 115.35 0 0 1 -11.85 6.53l-1.83-4.63a1.8 1.8 0 0 1 .65-2.52z" fill="#4d595b"/><path d="m129.09 104.1-1.54-3.91a1.8 1.8 0 0 1 .69-2.52c1.95-1 6.63-3.5 11.07-6.22 5.13-3.14 10-6.44 10-6.44l.22-.11a3 3 0 0 1 .21 1l.15 5.55c-2.06 1.53-5 3.39-9.6 6.43a109.69 109.69 0 0 1 -11.2 6.22z" fill="#1b2628"/><path d="m149.06 92.05-.49.35-.52-6.56.5-.34z" fill="#333e40"/><path d="m146.64 93.71-.5.33-.64-6.52.49-.32z" fill="#333e40"/><path d="m143.6 95.71-.49.32-.88-6.4.49-.31z" fill="#333e40"/><path d="m140.35 97.84-.1.06-.37.24-1.28-6.26.48-.29z" fill="#333e40"/><path d="m131.08 103.1-.47.24-2-5.85.47-.24z" fill="#333e40"/><path d="m133.91 101.63-.47.25-1.87-6 .46-.26z" fill="#333e40"/><path d="m137.09 99.85-.47.27-1.62-6.12.47-.27z" fill="#333e40"/><path d="m76 92.5-.24 3.11a.84.84 0 0 1 -1.15.81l-69.11-39.35-1.32-5.54z" fill="#5a6567"/><path d="m149 77.81c.85.78 2.67 2.58 3.12 4a1 1 0 0 0 0 .14 12.24 12.24 0 0 1 -2.95 2.34s-4.83 3.3-10 6.44c-4.45 2.71-9.12 5.24-11.07 6.22a48.21 48.21 0 0 1 -4.51 2.05l-3.7-3.64a98.86 98.86 0 0 0 15.42-7.82 103.14 103.14 0 0 0 13.69-9.73z" fill="#dfe5e9"/><path d="m128.65 103a113.87 113.87 0 0 0 11.35-6.38l2.71-1.77c3.19-2.08 5.37-3.51 7.06-4.75v.64c-1.66 1.19-3.78 2.58-6.79 4.55l-2.71 1.77a113.85 113.85 0 0 1 -11.49 6.4z" fill="#404b4d"/><path d="m149.79 89.35c-1.67 1.21-3.79 2.65-6.88 4.65l-2.71 1.77a115.85 115.85 0 0 1 -11.82 6.56l-.19-.48a117.07 117.07 0 0 0 11.73-6.52l2.7-1.77c3.25-2.12 5.45-3.57 7.15-4.81z" fill="#404b4d"/><path d="m149.75 87.9c-1.67 1.21-3.82 2.61-6.9 4.62l-2.7 1.78a117.32 117.32 0 0 1 -12.25 6.77l-.19-.49a116.33 116.33 0 0 0 12.15-6.72l2.71-1.77c3.25-2.13 5.46-3.58 7.16-4.82z" fill="#404b4d"/><path d="m142.68 91-2.68 1.79a127.51 127.51 0 0 1 -12.6 7 3.73 3.73 0 0 1 -.1-.54 122.42 122.42 0 0 0 12.41-6.87l2.71-1.77c3.32-2.18 5.56-3.64 7.28-4.91v.25.38c-1.7 1.2-3.86 2.67-7.02 4.67z" fill="#404b4d"/><g mask="url(#V)"><path d="m123.57 106c1.6-.34 1.83.15 2.12.87s.68 1.76 0 2.23-4.85 1.32-6.73 1.52l-.51-1.48z" fill="url(#W)"/></g><path d="m118.63 110.28a45 45 0 0 1 -8.06-.52 3.6 3.6 0 0 1 -2.69-1.62s.16 1.3 2.2 1.76a32.44 32.44 0 0 0 8.91.67c1.88-.2 6.09-1 6.73-1.52a50.56 50.56 0 0 1 -7.09 1.23z" fill="#4d595b"/><path d="m118.9 113.47-6.08-.15s-1.18.08-.73.91.86 1.54 1.5 1.78a19.74 19.74 0 0 0 6.17.12c3-.3 9.84-3.3 11.82-4.31l-.05-.88s-7.36 3.43-11 4c.04.06-.31-1.53-1.63-1.47z" fill="#4d595b"/><path d="m117.78 114.82a13.5 13.5 0 0 1 -2.5-1.44l3.62.09c1.32-.06 1.67 1.51 1.67 1.51 3.6-.61 11-4 11-4l.05.88c-1.85 1-7.94 3.62-11.17 4.22-.67-.36-1.73-.88-2.67-1.26z" fill="#333e40"/><path d="m112.11 113.59a1.26 1.26 0 0 1 .71-.27l2.45.06a1.58 1.58 0 1 1 -3.16.21z" fill="#f0eff0"/><path d="m118 107a42.36 42.36 0 0 0 5.56-1c.09.42.21 1.21 0 1.4s-5 1.78-5 1.78z" fill="#333e40"/><path d="m134.85 105.07 11.91-7.25a.83.83 0 0 1 .28-.09.43.43 0 0 1 .42.47l.07 2.33a1.09 1.09 0 0 1 -.49.9l-11.85 7.14a.63.63 0 0 1 -.28.08.43.43 0 0 1 -.43-.46l-.11-2.21a1.06 1.06 0 0 1 .48-.91z" opacity=".2"/><path d="m135 105.37 11.91-7.25h.1c.06 0 .07.09.07.13l.07 2.33a.74.74 0 0 1 -.32.59l-11.83 7.1h-.11c-.06 0-.07-.08-.07-.13l-.11-2.21a.73.73 0 0 1 .29-.56z" fill="#fff"/><path d="m151 93.43v-1c-2 1.52-4.87 3.4-9.37 6.24a119.21 119.21 0 0 1 -12 6.67v1c0 .9.95.42.95.42a116 116 0 0 0 11.1-6.21c4-2.54 6.71-4.3 8.69-5.73a1.73 1.73 0 0 0 .63-1.39z" fill="#4d595b"/><path d="m150.06 93.16a1.73 1.73 0 0 1 -.68 1.42c-2 1.43-4.67 3.2-8.69 5.74a116.67 116.67 0 0 1 -11.08 6.2s0-.1 0-.16v-1a119.21 119.21 0 0 0 12-6.67c3.87-2.41 6.5-4.13 8.45-5.53z" fill="#1b2628"/><path d="m146.83 96.36-.52.35v-1l.52-.34z" fill="#404b4d"/><path d="m149.2 94.72-.51.37v-1l.52-.36z" fill="#404b4d"/><path d="m143.92 98.27-.51.33v-1l.52-.33z" fill="#404b4d"/><path d="m140.69 100.33-.52.33v-1c.18-.1.35-.21.52-.32z" fill="#404b4d"/><path d="m137.54 102.25-.51.3v-1.07l.52-.3z" fill="#404b4d"/><path d="m134.26 104.12-.52.28v-1.11l.51-.28z" fill="#404b4d"/><path d="m131.58 105.54-.52.27v-1.14l.52-.26z" fill="#404b4d"/><path d="m112.53 113.37a2 2 0 0 1 .29-.05l2.07.05a1.18 1.18 0 1 1 -2.36 0z" fill="#fff"/><path d="m138.6 95.87a1.32 1.32 0 0 0 2 .85 2.39 2.39 0 0 0 .84-2.65 1.33 1.33 0 0 0 -2-.85 2.39 2.39 0 0 0 -.84 2.65z" fill="#4d595b"/><path d="m138.82 95.75a1.13 1.13 0 0 0 1.73.73 2.06 2.06 0 0 0 .73-2.29 1.15 1.15 0 0 0 -1.74-.73 2 2 0 0 0 -.72 2.29z" fill="#d1d4d6"/><path d="m154 91.26-.16-2.68a1.25 1.25 0 0 1 .42-.76 19.37 19.37 0 0 0 2.3-4.65 38.57 38.57 0 0 1 0 5.16l-2 3.13s-.56.76-.56-.2z" fill="#333e40"/><path d="m85.43 78s.24-3-.5-4.18a2.85 2.85 0 0 0 -3.19-1.26c-1.5.23-4.5 1.13-4.67 2.72s-.16 6.53-.16 6.53a2.19 2.19 0 0 0 1.47 1.83c1.43.58 5.24.56 5.24.56s1.88-.13 1.87-1.88-.06-4.32-.06-4.32z" fill="#404b4d"/><path d="m81.74 72.54a2.8 2.8 0 0 1 3.52 2.1c-1.49.5-3.56 1.19-4.38 1.35a4.11 4.11 0 0 1 -3.62-1.3c.74-1.23 3.17-1.95 4.48-2.15z" fill="#5a6567"/><path d="m88.77 72s-1.78 3.33-3 4a23.33 23.33 0 0 1 -4.77 1.2v6.11h2.93a3.71 3.71 0 0 0 3-1.36c.47-.7 1.85-3 1.85-3l.22-1.68s-1.87 3.53-3 4.3-4.28.72-4.28.72v-4.14s2.93-.44 4-.78 3-3.41 3-3.41z" fill="#333e40"/><path d="m85.09 74.11a22.55 22.55 0 0 0 2-2.54l1.68.47s-1.78 3.33-3 4a2.08 2.08 0 0 1 -.3.13 6.63 6.63 0 0 0 -.38-2.06z" fill="#5a6567"/><path d="m77 76.43a5.71 5.71 0 0 0 2.25 1.57v3.82a10.38 10.38 0 0 1 -2.3-.86c-.04-1.07-.03-3.09.05-4.53z" fill="#c4cace"/><path d="m85.48 81.82c0-1.71 0-3.84 0-3.84s0-.2 0-.53l.25-.07a2.57 2.57 0 0 0 .87-.61l2.4.51s-1.87 3.53-3 4.3a2.12 2.12 0 0 1 -.5.25z" fill="#4d595b"/><path d="m139.46 48.63v-9.24a10 10 0 0 1 .57-2.74c.38-.59 1.13-.74 2.33 0s2.23 1.65 2.27 4.34a41.28 41.28 0 0 1 -.27 5.13 11.2 11.2 0 0 1 -1.43 2.88c-.52.41-3 .39-3 .39z" fill="#404b4d"/><path d="m139.93 49.37-.47-.74v-9.24s0-.2.05-.5c.92.11 2.4.66 2.54 1.83.16 1.42.35 6.3.27 8.48a14.88 14.88 0 0 1 -2.39.17z" fill="#333e40"/><path d="m142 40.72c-.14-1.17-1.62-1.72-2.54-1.83a7.46 7.46 0 0 1 .52-2.24c.38-.59 1.13-.74 2.33 0a4.15 4.15 0 0 1 1.82 1.9 13.57 13.57 0 0 1 -2.13 2.45c0-.1 0-.19 0-.28z" fill="#5a6567"/><path d="m142.51 48.54a7.54 7.54 0 0 1 -2.65.73l-.86-1.27a6.72 6.72 0 0 0 3.28-1l-.13-3.83-5.45 1.22-.63-1 6.19-1.48 1.86-2.25a18.64 18.64 0 0 1 0 6.12 20.59 20.59 0 0 1 -1.61 2.76z" fill="#404b4d"/><path d="m139.43 41.48 2.67.45-6.01 1.44-.6-.95z" fill="#5a6567"/><path d="m139.45 46.9 2.85.06s-.51.66-3.28 1l-.34-.53z" fill="#5a6567"/><path d="m66.08 74.18s1.23.6 1.29-.64.19-2.52.19-3.11 0-1.67-.62-2.06-1.75-1.08-1.75-1.08-.73-.56-.9.91a20.46 20.46 0 0 0 .18 4.46c.09.55.77 1.02 1.61 1.52z" fill="#5a6567"/><path d="m65.2 73.15s1.08.59 1.27.67.54-.1.6-1.2a12.25 12.25 0 0 0 0-3.32 4.74 4.74 0 0 0 -1.65-1.15c-.37-.15-.81-.33-.82.68s.1 2.81.1 3.23a1.27 1.27 0 0 0 .5 1.09z" fill="#4e5a5c"/><path d="m64.58 68.83c0-1 .45-.83.82-.68a4.74 4.74 0 0 1 1.65 1.15.5.5 0 0 1 0 .13 6.34 6.34 0 0 0 -1.32-.8c-.37-.14-.81-.33-.81.68s.09 2.81.1 3.23a1.61 1.61 0 0 0 .12.6 1.27 1.27 0 0 1 -.51-1.08c.05-.42-.06-2.23-.05-3.23z" fill="#414c4e"/><path d="m65.75 73.44s0-2.46 0-3.54a2.83 2.83 0 0 1 .34-1.49l.23.27a5 5 0 0 0 -.32 1.23v3.4z" fill="#414c4e"/><path d="m65.75 73.44s0-2.46 0-3.54a2.83 2.83 0 0 1 .34-1.49l-.53-.29a7.68 7.68 0 0 0 -.42 1.42v3.61z" fill="#5a6567"/><g opacity=".2"><path d="m126.25 74.22 1.78 1.84-.12.12-1.79-1.84z"/><path d="m128.9 72.69 1.78 1.84-.12.12-1.79-1.84z"/><path d="m129.57 72.28 1.78 1.84-.12.13-1.79-1.85z"/><path d="m130.18 71.91 1.78 1.84-.13.13-1.78-1.85z"/><path d="m131.54 71.23h.17v2.56h-.17z" transform="matrix(.71861196 -.69541128 .69541128 .71861196 -13.38 111.95)"/><path d="m132.08 70.81h.17v2.56h-.17z" transform="matrix(.71824775 -.69578745 .69578745 .71824775 -12.92 112.27)"/><path d="m131.94 70.66 1.79 1.84-.13.13-1.78-1.85z"/><path d="m133.31 69.97h.17v2.56h-.17z" transform="matrix(.71873332 -.69528585 .69528585 .71873332 -12.02 112.8)"/><path d="m133.25 69.84 1.78 1.85-.12.11-1.79-1.84z"/><path d="m133.84 69.46 1.78 1.84-.12.12-1.78-1.84z"/><path d="m134.42 69.02 1.79 1.84-.13.12-1.78-1.84z"/><path d="m135.85 68.29h.17v2.56h-.17z" transform="matrix(.71849058 -.69553669 .69553669 .71849058 -10.12 114.14)"/><path d="m135.71 68.22 1.78 1.84-.13.12-1.78-1.84z"/><path d="m136.93 67.42h.17v2.56h-.17z" transform="matrix(.71885466 -.6951604 .6951604 .71885466 -9.23 114.58)"/><path d="m137.62 66.99h.17v2.56h-.17z" transform="matrix(.71873332 -.69528585 .69528585 .71873332 -8.74 114.94)"/><path d="m138.22 66.49h.17v2.56h-.17z" transform="matrix(.71861196 -.69541128 .69541128 .71861196 -8.21 115.26)"/><path d="m126.34 74.34h.17v2.56h-.17z" transform="matrix(.71836917 -.69566208 .69566208 .71836917 -17 109.25)"/><path d="m125 75 1.78 1.84-.12.12-1.79-1.84z"/><path d="m125 75.07h.17v2.56h-.17z" transform="matrix(.71861196 -.69541128 .69541128 .71861196 -17.9 108.48)"/><path d="m123.67 75.71 1.78 1.84-.12.12-1.79-1.84z"/><path d="m123.7 75.78h.17v2.56h-.17z" transform="matrix(.71849058 -.69553669 .69553669 .71849058 -18.75 107.8)"/><path d="m122.27 76.51 1.78 1.84-.12.12-1.79-1.84z"/><path d="m121.56 76.86 1.78 1.85-.12.12-1.78-1.84z"/><path d="m120.84 77.24 1.78 1.84-.12.12-1.78-1.84z"/><path d="m120.17 77.57 1.78 1.84-.12.12-1.78-1.84z"/><path d="m119.49 77.88 1.78 1.84-.13.12-1.78-1.84z"/><path d="m119.6 77.98h.17v2.56h-.17z" transform="matrix(.71873332 -.69528585 .69528585 .71873332 -21.45 105.52)"/><path d="m118.11 78.65 1.78 1.84-.13.12-1.78-1.84z"/><path d="m117.42 78.98 1.78 1.85-.12.12-1.78-1.84z"/><path d="m116.77 79.32 1.78 1.84-.13.12-1.78-1.84z"/></g><path d="m66 91.63.33-.11c-1.14-3.19-3.35-14.8-3.56-24.19-.21-9.63.86-23.67.87-23.82h-.35c0 .14-1.08 14.2-.87 23.85.19 9.81 2.45 21.18 3.58 24.27z" opacity=".1"/><path d="m144.68 66a3.65 3.65 0 0 0 1.73-2.49 12.13 12.13 0 0 0 -.47-4.22l-.27-1.15.59 1c1.92 3.33 5.52 9.74 6.23 11v.06a8.62 8.62 0 0 1 -3.42 5.36l-.22.15-.05-.26c-.57-3.14-4.17-9.21-4.21-9.27l-.09-.16z" fill="#86959e"/><path d="m146.76 63.57a9.37 9.37 0 0 0 -.23-3.22c.06.1.05-.25 0-.65 1.82 3.16 4.75 8.36 5.72 10.09a1.32 1.32 0 0 0 -.13.48 8.41 8.41 0 0 1 -3 4.91c-.66-3-3.55-8-4.11-9a4 4 0 0 0 1.75-2.61z" fill="#e3e2e3"/><path d="m101.27 81.48.15-.13.11.16a11.1 11.1 0 0 0 4.47 3.42 8.87 8.87 0 0 0 3.29.48 23.86 23.86 0 0 0 4.63-.53h.11l.06.09a65.86 65.86 0 0 1 5.59 8.5l.09.17-.18.07a28.58 28.58 0 0 1 -8.46 1.81 10 10 0 0 1 -1.61-.12c-3.09-.49-4.78-2.8-5.68-4-.16-.23-.3-.42-.41-.55-1.62-1.89-3.54-4.48-3.54-6.09a4.81 4.81 0 0 1 1.38-3.28z" fill="#86959e"/><path d="m101.37 81.88a11.46 11.46 0 0 0 4.48 3.37 9.13 9.13 0 0 0 3.42.51 25.29 25.29 0 0 0 4.6-.51 67.44 67.44 0 0 1 5.39 8.18 27.16 27.16 0 0 1 -8.15 1.72 10.7 10.7 0 0 1 -1.56-.11c-2.94-.47-4.57-2.71-5.45-3.91-.17-.23-.31-.42-.43-.56-2.23-2.61-3.45-4.7-3.45-5.87a4.52 4.52 0 0 1 1.15-2.82z" fill="#e3e2e3"/><path d="m101.66 86.49c0 .67.48.94 1.06.6a2.35 2.35 0 0 0 1-1.83c0-.67-.48-.94-1.06-.6a2.35 2.35 0 0 0 -1 1.83z" fill="#ef9042"/><path d="m104.39 90.2c0 1.31.94 1.84 2.07 1.18a4.55 4.55 0 0 0 2.05-3.59c0-1.31-.93-1.84-2.07-1.18a4.61 4.61 0 0 0 -2.05 3.59z" fill="#fff"/><path d="m109.23 92.21c0 1.77 1.26 2.49 2.8 1.59a6.16 6.16 0 0 0 2.77-4.8c0-1.78-1.26-2.49-2.8-1.6a6.22 6.22 0 0 0 -2.77 4.81z" fill="#fff"/><path d="m146.72 69.35a5.28 5.28 0 0 1 1.28-2.18c1-.87 1.78-.17 1.79 1.54a7.51 7.51 0 0 1 -1.41 4.3c-.45-1.22-1.08-2.52-1.66-3.66z" fill="#fff"/><path d="m146.25 65.3a3.83 3.83 0 0 1 .87-1.3c.78-.68 1.41-.13 1.42 1.23a6 6 0 0 1 -.15 1.24z" fill="#fff"/><g mask="url(#Y)"><path d="m146.76 63.57a9.37 9.37 0 0 0 -.23-3.22c.06.1.05-.25 0-.65 1.82 3.16 4.75 8.36 5.72 10.09a1.32 1.32 0 0 0 -.13.48 8.41 8.41 0 0 1 -3 4.91c-.66-3-3.55-8-4.11-9a4 4 0 0 0 1.75-2.61z" fill="url(#Z)"/></g><g mask="url(#ab)"><path d="m101.37 81.88a11.46 11.46 0 0 0 4.48 3.37 9.13 9.13 0 0 0 3.42.51 25.29 25.29 0 0 0 4.6-.51 67.44 67.44 0 0 1 5.39 8.18 27.16 27.16 0 0 1 -8.15 1.72 10.7 10.7 0 0 1 -1.56-.11c-2.94-.47-4.57-2.71-5.45-3.91-.17-.23-.31-.42-.43-.56-2.23-2.61-3.45-4.7-3.45-5.87a4.52 4.52 0 0 1 1.15-2.82z" fill="url(#ac)"/></g><path d="m133.54 77.5v.13a1.22 1.22 0 0 0 -.57 1 4 4 0 0 0 .07.61l.32 1.9a2.22 2.22 0 0 0 .1.45c.21.49 1.05-.19 1.22-.55a5.09 5.09 0 0 0 .32-1.14l.75-3.84.43-.28 1.29 3c.19.39.56.33.88.13l.79-.51.06.15-2.82 1.79v-.17a1 1 0 0 0 .4-1.06l-.92-2.11-.44 2.46c-.12.66-.32 1.45.58 1v.17l-3.85 2.44v-.14c.61-.41.63-.78.52-1.44l-.35-2.11a1.74 1.74 0 0 0 -.09-.39c-.22-.53-1 .11-1.21.51a5.31 5.31 0 0 0 -.32 1.14l-.7 3.87-.43.27-1.29-3c-.19-.4-.56-.33-.87-.13l-.62.39-.06-.14 2.64-1.68v.16a1 1 0 0 0 -.4 1.07l.92 2.17.44-2.46c.12-.66.32-1.45-.58-1v-.16l3.84-2.44z" fill="#ab0033" fill-rule="evenodd"/><path d="m130.1 85.49-.16 1.05-.33.21-.44-.67.23-.14.34.56.11-.85z" fill="#221f20"/><path d="m130.68 86.08-.24.14-.14-.86.23-.14zm-.16-1-.23.14v-.19l.23-.15z" fill="#221f20"/><path d="m131.8 85.37-.61.38-.11.06h-.08a.1.1 0 0 1 0 0v-.1-.05a.56.56 0 0 1 0-.13.17.17 0 0 1 0-.1.28.28 0 0 1 .07-.09l.14-.09.27-.18v.21l-.25.16a.12.12 0 0 0 0 0s0 .05 0 .06 0 0 .07 0l.35-.22-.06-.33a.35.35 0 0 0 0-.06s0 0 0 0a.16.16 0 0 0 -.09 0l-.48.3v-.2l.56-.36a.45.45 0 0 1 .12-.06.13.13 0 0 1 .08 0v.05a.3.3 0 0 1 0 .1l.11.62z" fill="#221f20"/><path d="m132.56 84.16-.27.17h-.07s0 0 0 0a.09.09 0 0 0 0 0v.06l.09.54-.23.14-.14-.86.23-.14v.1a.31.31 0 0 1 .13-.2l.25-.15v.2z" fill="#221f20"/><path d="m133.67 83.82-.54.34v-.2l.32-.2a.28.28 0 0 1 0-.06s-.05 0-.12 0l-.18.12h-.06a.09.09 0 0 0 0 0v.18.21s0 0 0 .06a0 0 0 0 0 0 0h.09l.48-.31v.21l-.57.36-.12.06a.13.13 0 0 1 -.08 0s0 0 0 0a.35.35 0 0 1 0-.06l-.06-.37a.28.28 0 0 1 0-.22.53.53 0 0 1 .2-.19l.33-.21a.43.43 0 0 1 .19-.09s.07 0 .09.06a.62.62 0 0 1 0 .1v.29z" fill="#221f20"/><path d="m134.85 83.43-.23.15-.09-.53s0-.06 0-.06a0 0 0 0 0 0 0l-.1.05-.18.12h-.07a.09.09 0 0 0 0 .05v.06l.09.54-.27.19-.14-.85.14-.15v.1a.3.3 0 0 1 .13-.2l.25-.15a.39.39 0 0 1 .19-.09s.07 0 .09.06a.62.62 0 0 1 0 .1l.1.61z" fill="#221f20"/><path d="m135.52 83-.19.12a.75.75 0 0 1 -.19.09.1.1 0 0 1 -.09-.06.36.36 0 0 1 0-.11l-.15-.9.23-.14v.28l.22-.14v.21l-.22.14.05.32s0 .06 0 .07 0 0 0 0h.09l.1-.06v.21z" fill="#221f20"/><path d="m136.87 82.15-.48.31-.12.06h-.08-.05a.09.09 0 0 1 0-.05.29.29 0 0 1 0-.1l-.14-.37a.62.62 0 0 1 0-.13.17.17 0 0 1 0-.1l.08-.09a.48.48 0 0 1 .13-.09l.48-.31v.21l-.4.25h-.07s0 0 0 0a.07.07 0 0 0 0 0v.26.21a.35.35 0 0 0 0 .06s0 0 0 0h.09l.4-.26v.21z" fill="#221f20"/><path d="m137.92 81.22a.62.62 0 0 1 0 .13.17.17 0 0 1 0 .1.32.32 0 0 1 -.08.09.48.48 0 0 1 -.13.09l-.36.23a.51.51 0 0 1 -.19.09s-.07 0-.09-.06v-.1l-.06-.38a.62.62 0 0 1 0-.13v-.1l.08-.09.13-.09.36-.23.12-.06h.08.05s0 0 0 0a.29.29 0 0 1 0 .11l.06.37zm-.24.06v-.21a.35.35 0 0 0 0-.06s0 0 0 0h-.09l-.19.12h-.06a.08.08 0 0 0 0 0s0 0 0 0a.2.2 0 0 0 0 .07v.21s0 0 0 .06 0 0 0 0h.09l.18-.12h.07s0 0 0 0 0 0 0-.07z" fill="#221f20"/><path d="m139.55 80.46-.23.14-.09-.53a.08.08 0 0 0 0-.06 0 0 0 0 0 0 0h-.1l-.09.06s-.05 0-.06 0a.06.06 0 0 0 0 0 .2.2 0 0 0 0 .07l.09.53-.24.15-.1-.6s0 0 0 0h-.09l-.09.06h-.07a.06.06 0 0 0 0 0 .2.2 0 0 0 0 .07l.08.53-.23.15-.14-.86.23-.15v.11a.27.27 0 0 1 .14-.2l.15-.1a.73.73 0 0 1 .18-.09.07.07 0 0 1 .08 0 .34.34 0 0 1 0-.11.52.52 0 0 1 .11-.1l.15-.09a.39.39 0 0 1 .19-.09s.07 0 .09.06a.62.62 0 0 1 0 .1l.1.62z" fill="#221f20"/><path d="m135.94 82.75-.22.13-.04-.21.22-.13z" fill="#221f20"/></g><path d="m341.09 170.21-55.88-9.85a6.18 6.18 0 0 0 -7.23 6.76l5.53 50.49a6.19 6.19 0 0 0 7.72 5.32l44.71-11.73a6.2 6.2 0 0 0 4.51-4.8l5.64-28.91a6.19 6.19 0 0 0 -5-7.28z" fill="#49acca"/><path d="m313.34 172.87a2.71 2.71 0 0 0 -2.74 2.42v3.71a14.31 14.31 0 1 0 5.49 0v-3.66a2.72 2.72 0 0 0 -2.75-2.47zm-1.12 2.42c0-.37.61-.8 1.12-.8s1.13.43 1.13.8v14.25c0 .37-.61.81-1.13.81s-1.12-.44-1.12-.81zm1.12 16.71a2.71 2.71 0 0 0 2.75-2.42v-4.45a8.36 8.36 0 1 1 -5.49 0v4.45a2.71 2.71 0 0 0 2.74 2.42zm12.7 1a12.7 12.7 0 1 1 -15.44-12.4v2.8a10 10 0 1 0 5.49 0v-2.8a12.71 12.71 0 0 1 9.91 12.4z" fill="#fff"/><path d="m137.75 55.18a4.78 4.78 0 0 0 2.08 1.2 66.76 66.76 0 0 0 16.32.35l-17.61 5.09a3.42 3.42 0 0 0 -1.69 4.73l.2.34c.89 1.41 2.79 2.56 5.59 2.67a27.87 27.87 0 0 0 11.94-2.1c5.16-.4 10-.93 12.62-2.62l10.64 6-2.94.46a7.93 7.93 0 0 0 -5.18 3.2l-11.89 16.6c-2.26 4.14 1.94 9.5 7.16 4.44l13.67-13.27a23.73 23.73 0 0 0 9.8-1.37l7.54 3.65a2.33 2.33 0 0 1 .14 4.07l-2.35 1.45-8.79 5.46-13.15 1.47c-4.1 1.36-5.33 6.42-.78 7.73l1.42.24 11.33 2a11.34 11.34 0 0 0 6.25-.66 107.35 107.35 0 0 1 20.51-6.17l14.42-8.66 18.11 6.81a6.64 6.64 0 0 0 5.33-1.63c7.2-5.84 10.44-24.64 1.38-27.18l-19.13-4.18-20.85-10.38-19.84-5.09-17.7-6.76a15.16 15.16 0 0 0 -5.66-1l-16.55.18c-2.53 0-4.18 1.81-4 3.45a2.75 2.75 0 0 0 2.21 2.3l-3.94.39-4.08.41c-4.4.72-4.57 4.34-2.53 6.38z" fill="#ffb294"/><path d="m172.52 105 11.3 2a11.34 11.34 0 0 0 6.25-.66 107.35 107.35 0 0 1 20.51-6.17l14.42-8.69 18.11 6.81a6.64 6.64 0 0 0 5.33-1.63c-6.44-2.66-21.84-9.26-21.84-9.26l-16.46 10-23.08 6.6z" fill="#6e4438" opacity=".3"/><path d="m165 95.54 13.67-13.27a23.73 23.73 0 0 0 9.8-1.37l7.53 3.65a2.33 2.33 0 0 1 .14 4.07l-2.35 1.45 11-5.32-15.23-6.36-11.56 1.32z" fill="#6e4438" opacity=".3"/><path d="m136.85 66.55.2.34c.89 1.41 2.79 2.56 5.59 2.67a27.87 27.87 0 0 0 11.94-2.1c5.16-.4 10-.93 12.62-2.62l10.64 6 11.44-2c-6.86-.79-14.3-3.44-22.21-7.6l-12.71 3.61z" fill="#6e4438" opacity=".3"/><path d="m137.76 55.18a4.69 4.69 0 0 0 2.07 1.2 66.76 66.76 0 0 0 16.32.35l10.77-3.47 19.32 4.68-19-6.72c-10.3 3.05-20.24 4.78-29.48 3.96z" fill="#6e4438" opacity=".3"/><path d="m146.05 45.69a2.75 2.75 0 0 0 2.25 2.31l17.7-3.23 18.62 5.23-18-6.29c-8.21 1.57-16.43 3.13-20.57 1.98z" fill="#6e4438" opacity=".3"/><path d="m167 126.49a.68.68 0 0 0 .31-.08l.36-.2a13.9 13.9 0 0 0 3.4-3 .65.65 0 0 0 -.09-.91.63.63 0 0 0 -.9.09 12.23 12.23 0 0 1 -3.08 2.7 2.48 2.48 0 0 1 -.31.18.65.65 0 0 0 -.25.88.63.63 0 0 0 .56.34z" fill="#666"/><path d="m170.55 123.45a.66.66 0 0 0 .5-.23 14 14 0 0 0 3.21-7 .64.64 0 1 0 -1.28-.15 12.94 12.94 0 0 1 -2.92 6.29.64.64 0 0 0 .08.9.65.65 0 0 0 .41.19z" fill="#666"/><path d="m163.4 135.45a5.83 5.83 0 0 1 1.5 3.66v.89l.72 1.4-.71.59v1.51l.72 1.27v2.72l-.71.52v.75l.73 1.73-.72.81.68 1.72-.67.41v1.73a2 2 0 0 0 .22.88l1.22 2.56a2.3 2.3 0 0 0 .84 1 .66.66 0 0 0 .83 0 .24.24 0 0 1 -.08.06l.74-.44.09-.07 1.2-1.15a.85.85 0 0 0 .21-.62l-.06-16.08a2.28 2.28 0 0 1 .41-1.46 1.2 1.2 0 0 1 .33 0 2 2 0 0 0 1.23-.27l.74-.44a2.79 2.79 0 0 0 1.1-2.52v-4.91a9.42 9.42 0 0 0 -4.21-7.34l-3.84-2.23a2.87 2.87 0 0 0 -3-.28l-.73.44a3 3 0 0 0 -1.18 2.71v4.92a8.71 8.71 0 0 0 2.4 5.53zm2.7-9.85a1.53 1.53 0 0 1 .2-.82 1.5 1.5 0 0 1 .81.23 4 4 0 0 1 1.78 3.09 1.63 1.63 0 0 1 -.2.82 1.45 1.45 0 0 1 -.82-.23 4 4 0 0 1 -1.77-3.09z" fill="#4d4d4d"/><path d="m169 124.81a9.42 9.42 0 0 1 4.21 7.34v4.91c0 1.86-1 2.89-2.33 2.78-.93-.08-1.49.73-1.48 1.92l.06 16.07a.83.83 0 0 1 -.22.63l-1.21 1.14a.66.66 0 0 1 -.83 0 2.3 2.3 0 0 1 -.84-1l-1.22-2.56a2 2 0 0 1 -.22-.88v-1.73l.72-.29-.73-1.84.72-.81-.73-1.73v-.76l.71-.52v-2.68l-.72-1.27v-1.53l.71-.59-.72-1.4v-.92a5.83 5.83 0 0 0 -1.5-3.66 8.71 8.71 0 0 1 -2.38-5.43v-4.92c0-2.71 1.86-3.81 4.17-2.47zm-2.23 31.87a1 1 0 0 0 .44.77c.24.15.44 0 .44-.25l-.07-18a1 1 0 0 0 -.45-.77c-.24-.14-.44 0-.43.26l.07 18zm.33-27.54c1 .57 1.76.1 1.76-1a4 4 0 0 0 -1.78-3.09c-1-.56-1.75-.1-1.75 1a4 4 0 0 0 1.77 3.09z" fill="#fff"/><path d="m157 90.81a3.61 3.61 0 0 1 1.45-3.31l4.44-2.68a3.21 3.21 0 0 1 2.88 0c.15.06.49.23.71.35l5.76 3.36a6.49 6.49 0 0 1 .95.66 11.58 11.58 0 0 1 4.14 8.2l.06 15.4a3.65 3.65 0 0 1 -1.45 3.31l-4.45 2.69a3.47 3.47 0 0 1 -3.59-.34l-5.76-3.35a11.38 11.38 0 0 1 -5.08-8.87z"/><path d="m162.06 87.84c-2.79-1.63-5.05-.3-5 3l.06 15.4a11.38 11.38 0 0 0 5.08 8.87l5.76 3.35c2.8 1.63 5 .29 5-3l-.06-15.4a11.36 11.36 0 0 0 -5.09-8.86z" fill="#3c3c3c"/><path d="m161.08 94.89a6.43 6.43 0 0 0 2.87 5 1.81 1.81 0 0 0 2.21 0 1.46 1.46 0 0 1 -.19.16l.41-.24a2.08 2.08 0 0 0 .82-1.81c0-.18 0-.37 0-.56a.44.44 0 0 1 0-.1s0-.07 0-.11v-.2l-.09-.33-.11-.2a.65.65 0 0 0 0-.13l-.09-.28c0-.08-.07-.17-.13-.29l-.09-.22-.13-.24a2.73 2.73 0 0 1 -.13-.25l-.15-.24-.28-.25a.76.76 0 0 0 -.08-.11.36.36 0 0 0 -.07-.1 3.25 3.25 0 0 0 -.23-.29l-.12-.12-.09-.1-.11-.12-.25-.22-.17-.15a4.7 4.7 0 0 0 -.53-.38l-.41-.2h-.12-.1-.11l-.25-.06h-.4-.23-.1-.15l-.16.08-.4.25a2 2 0 0 0 -.84 1.81zm2.09-2a.5.5 0 0 0 .13 0zm-.55-.06a.47.47 0 0 1 .17 0 .49.49 0 0 0 -.17.01zm-.48.08.18-.07z"/><path d="m163.92 93.21c-1.58-.92-2.84-.17-2.84 1.68a6.43 6.43 0 0 0 2.87 5c1.57.92 2.85.16 2.84-1.68a6.41 6.41 0 0 0 -2.87-5z" fill="#666"/><path d="m161.15 105a6.45 6.45 0 0 0 2.86 5 1.84 1.84 0 0 0 2.22 0 1.54 1.54 0 0 1 -.19.17l.4-.25a2 2 0 0 0 .82-1.87 3.64 3.64 0 0 0 0-.57s0-.06 0-.1a.36.36 0 0 1 0-.1 1.42 1.42 0 0 0 0-.2c0-.11-.05-.22-.08-.33v-.16a.74.74 0 0 0 0-.14c0-.09-.06-.18-.1-.27s-.07-.17-.12-.29a2.14 2.14 0 0 0 -.1-.22l-.12-.25-.14-.24c0-.08-.09-.16-.14-.24l-.17-.26-.08-.1v-.06a.86.86 0 0 1 -.07-.1l-.23-.28-.12-.12-.09-.11a1.14 1.14 0 0 1 -.11-.11l-.25-.23-.17-.14a4 4 0 0 0 -.54-.38 2.49 2.49 0 0 0 -.4-.2h-.12-.1-.11-.25-.65-.23-.1l-.15.06a.79.79 0 0 0 -.16.08l-.4.24a2.06 2.06 0 0 0 -.81 1.77zm2.09-2h.12zm-1.03.02.17-.07a1.22 1.22 0 0 0 -.17.1z"/><path d="m164 103.34c-1.58-.92-2.85-.17-2.84 1.67a6.45 6.45 0 0 0 2.86 5c1.58.91 2.85.16 2.85-1.69a6.42 6.42 0 0 0 -2.87-4.98z" fill="#666"/><path d="m164.11 127.34a6.69 6.69 0 0 0 3.18-.93.64.64 0 0 0 -.62-1.13c-1.53.84-3 1-3.9.44a3.09 3.09 0 0 1 -1.27-2.81 12.42 12.42 0 0 1 3.52-7.77.64.64 0 1 0 -.94-.88 13.5 13.5 0 0 0 -3.86 8.66 4.3 4.3 0 0 0 1.89 3.91 3.77 3.77 0 0 0 2 .51z" fill="#666"/><path d="m185 81.82a21.59 21.59 0 0 1 -6.3.45l-13.7 13.27c-5.22 5.06-9.42-.3-7.16-4.44l11.89-16.6a7.94 7.94 0 0 1 5.05-3.17z" fill="#ffb294"/><path d="m185 81.82a21.59 21.59 0 0 1 -6.3.45l-13.7 13.27 13-15.83 4.39-.5z" fill="#6e4438" opacity=".3"/><path d="m266.66 52.79v94.69a9.07 9.07 0 0 1 -4 7.07l-37.81 22.33-1.18 3.51-3.55-2.1a2.89 2.89 0 0 1 -1.17-2.64v-101a9.06 9.06 0 0 1 4-7.07l39.72-23.46a2.79 2.79 0 0 1 2.76-.31l3.57 2.08z"/><path d="m270.06 48.48v101a3 3 0 0 1 0 .42 9.11 9.11 0 0 1 -4 6.64l-32.44 19.16-7.28 4.3c-2.2 1.31-4 .25-4-2.35v-101a9.07 9.07 0 0 1 4-7.06l39.72-23.46c2.22-1.31 4-.25 4 2.35z" fill="#4d4d4d"/><path d="m268.37 49.48v94.52a5.23 5.23 0 0 1 -2.29 4.06l-39.72 23.45a1.41 1.41 0 0 1 -1.81 0 1.79 1.79 0 0 1 -.48-1.36v-94.51a5.21 5.21 0 0 1 2.29-4l39.72-23.46a1.75 1.75 0 0 1 1.11-.31c.71 0 1.18.6 1.18 1.61z" fill="#fff"/><path d="m267.67 49.18v94.53a5.22 5.22 0 0 1 -2.29 4l-39.72 23.46a1.75 1.75 0 0 1 -1.12.31 1.82 1.82 0 0 1 -.47-1.35v-94.49a5.23 5.23 0 0 1 2.3-4.06l17.24-10.19 22.46-13.26a1.85 1.85 0 0 1 1.13-.3 1.78 1.78 0 0 1 .47 1.35z" fill="#ab0033"/><g fill="#fff"><path d="m235.83 132.48 22.49-13.36a2.07 2.07 0 0 0 .77-1.6l.6-24.71c0-.64-.3-1-.71-.72l-6 3.58.1-3.83c0-.64-.31-1-.72-.72l-6.16 3.66a2.06 2.06 0 0 0 -.77 1.6l-.1 3.83-2.7 1.61v-.45c0-.64-.3-1-.72-.71l-2.08 1.24a2.06 2.06 0 0 0 -.77 1.6v.44l-2.53 1.51a2.09 2.09 0 0 0 -.77 1.6l-.6 24.71c-.07.64.26.96.67.72zm11-35.82 4.67-2.77-.07 2.67-4.67 2.77zm-9.68 10.67 8.81-5.24 6.16-3.65 6-3.59-.54 22.39-21 12.47z"/><path d="m250.93 101.46c-3.17 1.88-5.85 7.43-6 12.36s2.36 7.42 5.53 5.54 5.84-7.42 6-12.36-2.37-7.42-5.53-5.54zm-.38 15.54c-2.35 1.4-4.19-.45-4.1-4.1s2.07-7.77 4.42-9.16 4.18.45 4.09 4.1-2.07 7.81-4.41 9.16z"/><path d="m250.82 105.64c-1.68 1-3.11 4-3.17 6.59s1.25 4 2.94 3 3.12-4 3.18-6.6-1.26-4-2.95-2.99zm-.17 7.22c-.87.52-1.55-.16-1.51-1.51a4.38 4.38 0 0 1 1.63-3.39c.87-.52 1.54.16 1.51 1.52a4.37 4.37 0 0 1 -1.63 3.38z"/><path d="m243 105.07-4.17 2.47a2.1 2.1 0 0 0 -.77 1.61l-.1 3.92c0 .64.31 1 .72.72l4.17-2.48a2.07 2.07 0 0 0 .77-1.6l.1-3.93c-.04-.64-.36-.96-.72-.71zm-.84 4.36-2.73 1.57v-1.6l2.68-1.59z"/><path d="m241.41 168.86 9.63-5.69a4.17 4.17 0 0 0 1.83-3.25c0-1.2-.82-1.68-1.83-1.09l-9.63 5.69a4.2 4.2 0 0 0 -1.84 3.26c0 1.22.83 1.68 1.84 1.08z"/></g></svg>