<svg viewBox="0 0 361.36 227.78" xmlns="http://www.w3.org/2000/svg" xmlns:xlink="http://www.w3.org/1999/xlink"><filter id="a" color-interpolation-filters="sRGB" filterUnits="userSpaceOnUse" height="32766" width="10.75" x="78.32" y="-7685.21"><feFlood flood-color="#fff" result="bg"/><feBlend in="SourceGraphic" in2="bg"/></filter><mask id="b" height="32766" maskUnits="userSpaceOnUse" width="10.75" x="78.32" y="-7685.21"><g filter="url(#a)"/></mask><linearGradient id="c" gradientTransform="matrix(-1 .06 .06 1 -271.43 18.72)" gradientUnits="userSpaceOnUse" x1="-355.52" x2="-343.51" y1="90.27" y2="90.27"><stop offset="0"/><stop offset=".52" stop-color="#fff"/><stop offset="1"/></linearGradient><filter id="d" color-interpolation-filters="sRGB" filterUnits="userSpaceOnUse" height="32766" width="3.47" x="97" y="-7685.21"><feFlood flood-color="#fff" result="bg"/><feBlend in="SourceGraphic" in2="bg"/></filter><mask id="e" height="32766" maskUnits="userSpaceOnUse" width="3.47" x="97" y="-7685.21"><g filter="url(#d)"/></mask><linearGradient id="f" gradientTransform="matrix(-1 .06 .06 1 -271.43 18.72)" gradientUnits="userSpaceOnUse" x1="-365.39" x2="-364.72" y1="96.65" y2="98.2"><stop offset="0" stop-color="#fff"/><stop offset=".36" stop-color="#fff"/><stop offset="1"/></linearGradient><filter id="g" color-interpolation-filters="sRGB" filterUnits="userSpaceOnUse" height="32766" width="3.44" x="108.06" y="-7685.21"><feFlood flood-color="#fff" result="bg"/><feBlend in="SourceGraphic" in2="bg"/></filter><mask id="h" height="32766" maskUnits="userSpaceOnUse" width="3.44" x="108.06" y="-7685.21"><g filter="url(#g)"/></mask><linearGradient id="i" gradientTransform="matrix(-1 .06 .06 1 -271.43 18.72)" gradientUnits="userSpaceOnUse" x1="-376.9" x2="-377.19" y1="77.36" y2="81.28"><stop offset="0" stop-color="#fff"/><stop offset="1"/></linearGradient><filter id="j" color-interpolation-filters="sRGB" filterUnits="userSpaceOnUse" height="32766" width="8.98" x="87.96" y="-7685.21"><feFlood flood-color="#fff" result="bg"/><feBlend in="SourceGraphic" in2="bg"/></filter><mask id="k" height="32766" maskUnits="userSpaceOnUse" width="8.98" x="87.96" y="-7685.21"><g filter="url(#j)"/></mask><linearGradient id="l" x1="-359.99" x2="-357.74" xlink:href="#i" y1="86.74" y2="91.55"/><filter id="m" color-interpolation-filters="sRGB" filterUnits="userSpaceOnUse" height="32766" width="0" x="78.31" y="-7685.21"><feFlood flood-color="#fff" result="bg"/><feBlend in="SourceGraphic" in2="bg"/></filter><mask id="n" height="32766" maskUnits="userSpaceOnUse" width="0" x="78.31" y="-7685.21"><g filter="url(#m)"/></mask><linearGradient id="o" x1="-344.67" x2="-344.66" xlink:href="#c" y1="92.96" y2="92.96"/><filter id="p" color-interpolation-filters="sRGB" filterUnits="userSpaceOnUse" height="32766" width="11.26" x="31.53" y="-7685.21"><feFlood flood-color="#fff" result="bg"/><feBlend in="SourceGraphic" in2="bg"/></filter><mask id="q" height="32766" maskUnits="userSpaceOnUse" width="11.26" x="31.53" y="-7685.21"><g filter="url(#p)"/></mask><linearGradient id="r" x1="-310.27" x2="-299.68" xlink:href="#c" y1="67.98" y2="67.98"/><filter id="s" color-interpolation-filters="sRGB" filterUnits="userSpaceOnUse" height="32766" width="11.16" x="74.01" y="-7685.21"><feFlood flood-color="#fff" result="bg"/><feBlend in="SourceGraphic" in2="bg"/></filter><mask id="t" height="32766" maskUnits="userSpaceOnUse" width="11.16" x="74.01" y="-7685.21"><g filter="url(#s)"/></mask><linearGradient id="u" gradientTransform="matrix(-1 .06 .06 1 -271.43 18.72)" gradientUnits="userSpaceOnUse" x1="-350.38" x2="-344.93" y1="62.34" y2="65.5"><stop offset="0"/><stop offset="1" stop-color="#fff"/></linearGradient><filter id="v" color-interpolation-filters="sRGB" filterUnits="userSpaceOnUse" height="32766" width="11.16" x="83.96" y="-7685.21"><feFlood flood-color="#fff" result="bg"/><feBlend in="SourceGraphic" in2="bg"/></filter><mask id="w" height="32766" maskUnits="userSpaceOnUse" width="11.16" x="83.96" y="-7685.21"><g filter="url(#v)"/></mask><linearGradient id="x" x1="-360.74" x2="-355.29" xlink:href="#u" y1="56.1" y2="59.27"/><clipPath id="y"><path d="m343.64 38.23-321.2-38.09a20.07 20.07 0 0 0 -22.17 23.16l30.52 187.63a20.06 20.06 0 0 0 23.29 16.55l260.63-45.95a20.08 20.08 0 0 0 15.79-14.18l30.05-103.59a20.07 20.07 0 0 0 -16.91-25.53z"/></clipPath><clipPath id="z"><path d="m168.55 116.38v4.42c0 3.39-2.24 6.78-6.69 9.37-9 5.2-23.55 5.2-32.57 0-4.54-2.62-6.8-6.07-6.79-9.5v-4.42c0 3.44 2.26 6.88 6.8 9.49 9 5.22 23.6 5.21 32.56 0 4.46-2.58 6.69-5.97 6.69-9.36z"/></clipPath><clipPath id="A"><path d="m168.4 37.83c0 5.58 0-1.16-.06 4.42 0 11.74-24.69 17.76-39.25 9.36-4.54-2.62-6.8-6.06-6.79-9.49v-4.42c0 11.81 24.83 17.93 39.36 9.49 4.5-2.58 6.73-5.97 6.74-9.36z"/></clipPath><linearGradient id="B" gradientTransform="matrix(-1 .06 .06 1 -271.43 18.72)" gradientUnits="userSpaceOnUse" x1="-351.82" x2="-350.43" y1="100.1" y2="95.01"><stop offset="0" stop-color="#c1c0c0"/><stop offset="1" stop-color="#dfdddb"/></linearGradient><linearGradient id="C" gradientTransform="matrix(-1 .06 .06 1 -271.43 18.72)" gradientUnits="userSpaceOnUse" x1="-351.61" x2="-350.03" y1="99.37" y2="94.07"><stop offset="0" stop-color="#b7b6b6"/><stop offset="1" stop-color="#dfdddb"/></linearGradient><linearGradient id="D" x1="-350.32" x2="-351.39" xlink:href="#B" y1="95.66" y2="99.82"/><linearGradient id="E" x1="-351.35" x2="-350.46" xlink:href="#B" y1="98" y2="98"/><linearGradient id="F" x1="-304.45" x2="-303.06" xlink:href="#B" y1="72.88" y2="67.78"/><linearGradient id="G" x1="-304.25" x2="-302.67" xlink:href="#C" y1="72.14" y2="66.85"/><linearGradient id="H" x1="-302.96" x2="-304.03" xlink:href="#B" y1="68.44" y2="72.6"/><linearGradient id="I" x1="-303.98" x2="-303.09" xlink:href="#B" y1="70.78" y2="70.78"/><filter id="J" color-interpolation-filters="sRGB" filterUnits="userSpaceOnUse" height="5.43" width="10.75" x="78.32" y="84.69"><feFlood flood-color="#fff" result="bg"/><feBlend in="SourceGraphic" in2="bg"/></filter><mask id="K" height="5.43" maskUnits="userSpaceOnUse" width="10.75" x="78.32" y="84.69"><g filter="url(#J)" mask="url(#b)"><path d="m80.17 85 1.3-.34 7.6 3.4-.44.57s-3.74-1.73-5.46-2.5-3.74-1.2-4.34.91a14 14 0 0 0 -.51 3.06c0-.74.08-4.48 1.85-5.1z" fill="url(#c)"/></g></mask><linearGradient id="L" gradientTransform="matrix(-1 .06 .06 1 -271.43 18.72)" gradientUnits="userSpaceOnUse" x1="-355.52" x2="-343.51" y1="90.27" y2="90.27"><stop offset="0" stop-color="#fff"/><stop offset=".52" stop-color="#fff"/><stop offset="1" stop-color="#fff"/></linearGradient><filter id="M" color-interpolation-filters="sRGB" filterUnits="userSpaceOnUse" height=".14" width="0" x="78.31" y="90.13"><feFlood flood-color="#fff" result="bg"/><feBlend in="SourceGraphic" in2="bg"/></filter><mask id="N" height=".14" maskUnits="userSpaceOnUse" width="0" x="78.31" y="90.13"><g filter="url(#M)" mask="url(#n)"><path d="m78.31 90.19a.28.28 0 0 1 0-.06z" fill="url(#o)"/></g></mask><linearGradient id="O" x1="-344.67" x2="-344.66" xlink:href="#L" y1="92.96" y2="92.96"/><filter id="P" color-interpolation-filters="sRGB" filterUnits="userSpaceOnUse" height="10.59" width="11.26" x="31.53" y="62.39"><feFlood flood-color="#fff" result="bg"/><feBlend in="SourceGraphic" in2="bg"/></filter><mask id="Q" height="10.59" maskUnits="userSpaceOnUse" width="11.26" x="31.53" y="62.39"><g filter="url(#P)" mask="url(#q)"><path d="m42.79 73a13.47 13.47 0 0 0 -1.12-3.8c-1.17-3-2.93-4.4-5.59-5.84s-4.48-.79-4.55-.76l.12.29s1.69-.64 4.28.75 4.31 2.78 5.44 5.67a13.73 13.73 0 0 1 1.1 3.69z" fill="url(#r)"/></g></mask><linearGradient id="R" x1="-310.27" x2="-299.68" xlink:href="#L" y1="67.98" y2="67.98"/><filter id="S" color-interpolation-filters="sRGB" filterUnits="userSpaceOnUse" height="10.93" width="11.16" x="74.01" y="55.35"><feFlood flood-color="#fff" result="bg"/><feBlend in="SourceGraphic" in2="bg"/></filter><mask id="T" height="10.93" maskUnits="userSpaceOnUse" width="11.16" x="74.01" y="55.35"><g filter="url(#S)" mask="url(#t)"><path d="m78.7 55.35 5.13 6.55a.72.72 0 0 1 0 1.1c-.62.49-2.94 2-2.94 2s-1 .36-1.46-.29-5.43-6.59-5.43-6.59l5.36 7.52a1.74 1.74 0 0 0 2.21.43 16.74 16.74 0 0 0 3-1.93s1.33-.71 0-2.29-5.87-6.5-5.87-6.5z" fill="url(#u)"/></g></mask><linearGradient id="U" gradientTransform="matrix(-1 .06 .06 1 -271.43 18.72)" gradientUnits="userSpaceOnUse" x1="-350.38" x2="-344.93" y1="62.34" y2="65.5"><stop offset="0" stop-color="#fff"/><stop offset="1" stop-color="#fff"/></linearGradient><linearGradient id="V" x1="-346.64" x2="-352.05" xlink:href="#i" y1="64.49" y2="61.81"/><filter id="W" color-interpolation-filters="sRGB" filterUnits="userSpaceOnUse" height="10.93" width="11.16" x="83.96" y="48.49"><feFlood flood-color="#fff" result="bg"/><feBlend in="SourceGraphic" in2="bg"/></filter><mask id="X" height="10.93" maskUnits="userSpaceOnUse" width="11.16" x="83.96" y="48.49"><g filter="url(#W)" mask="url(#w)"><path d="m88.65 48.49 5.13 6.51a.73.73 0 0 1 0 1.1c-.63.5-2.95 2-2.95 2s-1 .36-1.45-.29-5.38-6.55-5.38-6.55l5.37 7.52a1.74 1.74 0 0 0 2.2.43 16.74 16.74 0 0 0 3-1.93s1.34-.71 0-2.29-5.92-6.5-5.92-6.5z" fill="url(#x)"/></g></mask><linearGradient id="Y" x1="-360.74" x2="-355.29" xlink:href="#U" y1="56.1" y2="59.27"/><linearGradient id="Z" x1="-357" x2="-362.41" xlink:href="#i" y1="58.26" y2="55.58"/><filter id="aa" color-interpolation-filters="sRGB" filterUnits="userSpaceOnUse" height="2.32" width="3.47" x="97" y="92.54"><feFlood flood-color="#fff" result="bg"/><feBlend in="SourceGraphic" in2="bg"/></filter><mask id="ab" height="2.32" maskUnits="userSpaceOnUse" width="3.47" x="97" y="92.54"><g filter="url(#aa)" mask="url(#e)"><path d="m99.26 92.62c.73-.2.85 0 1 .34s.36.79.07 1a12.92 12.92 0 0 1 -3 .88l-.33-.64z" fill="url(#f)"/></g></mask><linearGradient id="ac" gradientTransform="matrix(-1 .06 .06 1 -271.43 18.72)" gradientUnits="userSpaceOnUse" x1="-365.39" x2="-364.72" y1="96.65" y2="98.2"><stop offset="0" stop-color="#394142"/><stop offset=".36" stop-color="#7a8a8e"/><stop offset="1" stop-color="#515c5f"/></linearGradient><filter id="ad" color-interpolation-filters="sRGB" filterUnits="userSpaceOnUse" height="7.05" width="3.44" x="108.06" y="70.75"><feFlood flood-color="#fff" result="bg"/><feBlend in="SourceGraphic" in2="bg"/></filter><mask id="ae" height="7.05" maskUnits="userSpaceOnUse" width="3.44" x="108.06" y="70.75"><g filter="url(#ad)" mask="url(#h)"><path d="m108.8 72.52a4.31 4.31 0 0 0 -.19-1.48s0-.11 0-.29c.92 1.4 2.4 3.71 2.89 4.48 0 .12-.06.21 0 .23a3.94 3.94 0 0 1 -1.27 2.34 19.63 19.63 0 0 0 -2.13-4 1.85 1.85 0 0 0 .7-1.28z" fill="url(#i)"/></g></mask><linearGradient id="af" x1="-376.9" x2="-377.19" xlink:href="#U" y1="77.36" y2="81.28"/><filter id="ag" color-interpolation-filters="sRGB" filterUnits="userSpaceOnUse" height="5.85" width="8.98" x="87.96" y="82.14"><feFlood flood-color="#fff" result="bg"/><feBlend in="SourceGraphic" in2="bg"/></filter><mask id="ah" height="5.85" maskUnits="userSpaceOnUse" width="8.98" x="87.96" y="82.14"><g filter="url(#ag)" mask="url(#k)"><path d="m88.42 82.14a5.17 5.17 0 0 0 2.15 1.43 4.15 4.15 0 0 0 1.58.15 11.33 11.33 0 0 0 2.1-.36 30.36 30.36 0 0 1 2.75 3.64 12.66 12.66 0 0 1 -3.7 1 4.26 4.26 0 0 1 -.72 0 3.87 3.87 0 0 1 -2.61-1.65c-.08-.1-.15-.19-.21-.25a5.55 5.55 0 0 1 -1.76-2.63 2 2 0 0 1 .42-1.33z" fill="url(#l)"/></g></mask><linearGradient id="ai" x1="-359.99" x2="-357.74" xlink:href="#U" y1="86.74" y2="91.55"/><g clip-path="url(#y)"><path d="m343.64 38.23-321.2-38.09a20.07 20.07 0 0 0 -22.17 23.16l30.52 187.63a20.06 20.06 0 0 0 23.29 16.55l260.63-45.95a20.08 20.08 0 0 0 15.79-14.18l30.05-103.59a20.07 20.07 0 0 0 -16.91-25.53z" fill="#a4d5e4"/><g clip-path="url(#y)"><path d="m242.21 64.35-253.09-38.53a25.13 25.13 0 0 0 -28.72 28l24.4 192.62a25.14 25.14 0 0 0 30.49 21.36l204.32-46.25a25.16 25.16 0 0 0 19-19l24.33-107.8a25.14 25.14 0 0 0 -20.73-30.4z" fill="#80c5da"/></g><path d="m231.81 134.15-116.1-67a12.77 12.77 0 0 0 -11.55 0l-54.77 31.59-5.15-1v5.93c0 1.2.8 2.41 2.39 3.33l123.86 71.51a12.77 12.77 0 0 0 11.55 0l57.52-33.22a4.11 4.11 0 0 0 2.44-3.29s0-5.92 0-5.92z"/><path d="m239.57 139.59-13.46 7.78-18.18 10.5-25.93 14.94a12.67 12.67 0 0 1 -11.56 0l-123.81-71.49c-3.17-1.85-3.17-4.84 0-6.67l57.53-33.22a12.86 12.86 0 0 1 11.56 0l123.85 71.57c3.17 1.78 3.17 4.76 0 6.59z" fill="#4d4d4d"/><path d="m229.87 130-115.87-66.88a7.33 7.33 0 0 0 -6.64 0l-57.55 33.21c-1.08.62-1.52 1.46-1.33 2.27a2.5 2.5 0 0 0 1.33 1.56l115.9 66.91a7.34 7.34 0 0 0 6.63 0l57.53-33.21a2.69 2.69 0 0 0 1.18-1.19c.46-.91.05-1.92-1.18-2.67z" fill="#fff"/><path d="m229.73 131.11-115.9-66.91a7.34 7.34 0 0 0 -6.63 0l-57.53 33.21a2.72 2.72 0 0 0 -1.19 1.19 2.5 2.5 0 0 0 1.33 1.56l115.9 66.91a7.34 7.34 0 0 0 6.63 0l57.53-33.21a2.69 2.69 0 0 0 1.18-1.19 2.5 2.5 0 0 0 -1.32-1.56z" fill="#49acca"/><g fill="#fff"><path d="m209.12 144.36-17.59 10.16-51.04-3.48-20.74-11.97z" opacity=".15"/><path d="m90.62 122.25-11.98-6.92 132.6 6.58 11.7 6.76z" opacity=".15"/><path d="m73.88 112.59-23.44-13.54a2.64 2.64 0 0 1 -.45-.32 2 2 0 0 1 .32-.21l15.11-8.73 102.87 7.33 39.1 22.57z" opacity=".15"/><path d="m197.76 155.48 13.94-8a5.89 5.89 0 0 1 5.33 0c1.46.84 1.46 2.22 0 3.07l-13.95 8.05a5.87 5.87 0 0 1 -5.32 0c-1.47-.89-1.47-2.28-0-3.12z"/></g><path d="m226.11 147.37-18.18 10.5-3.74-2c-1.05-.75-2.07-1.46-3.08-2.16a157.59 157.59 0 0 1 -13.9-10.71s-.05-.07-.1-.09a11 11 0 0 1 -3.36-6.32.56.56 0 0 0 0-.17v-.37c0-.17 0-.33 0-.5.21-5.4 6.67-8.74 14-3.54l12 7.35 14 6.84z" fill="#49acca" opacity=".4"/><path d="m377.91 173.41c1.32 7.57-5.7 20.45-15.67 28.79-6.66 5.59-12.95 7.71-16.8 6.26a.46.46 0 0 1 -.15-.09l-.48-.23-20.61-11.3-.87-.35-8.84 3.15-7.65-2.3-4.55-1.34-10.83-1.47-12.09-6.11-10.92-5.54-3.31-1.68-39.57-20.62-19.39-8.21a188.78 188.78 0 0 1 -18.18-11.09c-2.79-2.27-4.08-4.79-4.23-7.06-.34-5.4 5.76-9.36 13.58-4.94l12.72 6.12 14.62 5.42 11.51 4.38 2.23-2.15c4.61-4.41 10.6-4.51 12.49-4.73l-1.28-4.77c1.17-3.86 3.69-6.88 9.35-8l15-1.72a4.76 4.76 0 0 1 .3-1.62c.66-1.85 2.51-3.19 6.15-3.77l17.5 1.56 27.28 12.47c8.83 4.89 13.75 14.62 20.88 24.51l27.83 11.51a4.21 4.21 0 0 1 .75.31 8.17 8.17 0 0 1 3.16 4.39 1.63 1.63 0 0 1 .07.22z" fill="#ffb294"/><path d="m279.38 188.39-10.93-5.54-3.31-1.68-39.57-20.6-19.39-8.22a190.8 190.8 0 0 1 -18.18-11.07c-2.79-2.27-4.07-4.79-4.22-7.07 3.48 4.15 22.32 13.32 42.2 23 20.27 9.84 41.62 20.12 48.67 19.72z" fill="#6e4438" opacity=".3"/><path d="m327.78 194.85s-1.36.81-3.58 2c-5.58 3-16.58 8.35-25 9-11.74 1-25.14-3-25.14-3l-20.54.45-19.41-2a9.33 9.33 0 0 1 -7-3.52 7.64 7.64 0 0 1 2.36-11.37 49.46 49.46 0 0 1 21.53-2.55l17.42-1 12-11.52 37.58 18.49z" fill="#ffb294"/><path d="m236.21 145.19 18.3 5.33 6.03-3.02z" fill="#6e4438" opacity=".3"/><path d="m273.12 134.44-9-.28-8.12 2.61-5.12 1.55-1.28-4.78c2.49 2.06 8.52.31 14.38-1.17z" fill="#6e4438" opacity=".3"/><path d="m288.27 125.57c.36.15-9.32-2.64-9.32-2.64l-5 .87a5.29 5.29 0 0 1 .3-1.62l5-.87z" fill="#6e4438" opacity=".3"/><path d="m377.84 173.15a5.74 5.74 0 0 0 -3.16-4.39 4.21 4.21 0 0 0 -.75-.31c-3.86-1.22-10 1-16.47 6.37-8.32 7-14.56 17.07-15.64 24.63-19-7.43-15-10.37-15-10.37-5.23 2.12-12.7 5.84-19.94 8.26-4.94 1.66-9.76 2.69-13.67 2.2l-22.66.19-24.81-.14-18.54-1.73a9.27 9.27 0 0 0 7 3.51l19.4 2 20.55-.44s13.41 3.93 25.13 3c8.41-.69 19.4-6 25-9l21.09 11.53a.46.46 0 0 0 .15.09c3.85 1.45 10.14-.67 16.8-6.26 10-8.34 17-21.22 15.67-28.79a1.63 1.63 0 0 0 -.15-.35z" fill="#6e4438" opacity=".3"/></g><path d="m335.8 166.82-55.88-9.82a6.18 6.18 0 0 0 -7.22 6.77l5.52 50.48a6.19 6.19 0 0 0 7.72 5.32l44.72-11.73a6.16 6.16 0 0 0 4.5-4.8l5.64-28.91a6.18 6.18 0 0 0 -5-7.31z" fill="#49acca"/><path d="m169.64 120.47c0 8.14-10.53 14.74-23.53 14.74s-23.53-6.6-23.53-14.74 10.54-14.73 23.53-14.73 23.53 6.59 23.53 14.73z" fill="#011610" opacity=".28"/><g clip-path="url(#z)"><path d="m168.55 116.38v4.42c0 3.39-2.24 6.78-6.69 9.37-9 5.2-23.55 5.2-32.57 0-4.54-2.62-6.8-6.07-6.79-9.5v-4.42c0 3.44 2.26 6.88 6.8 9.49 9 5.22 23.6 5.21 32.56 0 4.46-2.58 6.69-6 6.69-9.36z" fill="#e21717"/></g><path d="m161.75 106.89c9 5.2 9.08 13.65.11 18.85s-23.54 5.22-32.56 0-9.07-13.65-.1-18.85 23.53-5.21 32.55-0z" fill="#c31414"/><path d="m151.34 82.36c-1.29-1.17-2.37-2.1-2.37-4.21 0-2.9 2.78-5 4.6-6-.92.52-4.64.54-8.18 1-3.55-.49-7.26-.51-8.18-1 1.82 1 4.73 2.61 4.66 6-.06 3.17-2.16 4.31-3.28 5.09-.14.15-.27.28-.36.39s0 0 0 0a2.94 2.94 0 0 0 -.51 1.61c0 1.17.79 2.34 2.35 3.21a12.1 12.1 0 0 0 11-.11 3.85 3.85 0 0 0 2.19-3.14 3.67 3.67 0 0 0 -1.92-2.84z" fill="#caedeb"/><path d="m160.09 104.66c-8.26-4.64-21.47-4.5-29.5.3-4 2.36-5.91 5.41-5.9 8.45a8.85 8.85 0 0 0 .07 1.1 10 10 0 0 0 1.84 4.54l.05.07.23.3a1.25 1.25 0 0 0 .09.12v.06q.33.41.63.72a16.28 16.28 0 0 0 4.48 3.32 22.92 22.92 0 0 0 3.38 1.44 32.61 32.61 0 0 0 16.49.94c13.89-2.51 20.13-14.63 8.14-21.36zm-1 17.84c-7.76 3.88-19.29 3.93-27.11.08-6-4-5.82-10.11.7-14 6.9-4.12 18.23-4.23 25.31-.25 6.86 3.81 7.26 10.04 1.14 14.17z" fill="#b9dbd8"/><path d="m166.41 113.3c0-10.76-22.76-16.15-35.82-8.34-4 2.36-5.91 5.41-5.9 8.45 0-4.81 0-9.61 0-14.43.59-21.51 29.6-25.38 38.84-10 3.57 6.02 2.84 8.73 2.88 24.32z" fill="#caedeb" opacity=".73"/><path d="m158 108.32c-7.08-4-18.41-3.87-25.31.25s-6.72 10.68.36 14.66 18.42 3.86 25.31-.26 6.75-10.68-.36-14.65z" fill="#caedeb" opacity=".73"/><path d="m133.08 123.23c-4.17-2.34-5.94-5.58-5.28-8.68.64 2 2.35 4 5.12 5.54 7.08 4 18.41 3.86 25.3-.26 2.84-1.69 4.48-3.8 4.93-6 3.15 9.93-17.63 16.38-30.07 9.4z" fill="#caedeb" opacity=".73"/><path d="m151 64.77a12.1 12.1 0 0 0 -11-.11c-1.56.87-2.35 2-2.35 3.21a3.83 3.83 0 0 0 2.26 3.13 8.18 8.18 0 0 0 2.71 1 14 14 0 0 0 5.72 0 9.53 9.53 0 0 0 2.53-.94c1.56-.88 2.34-2 2.35-3.21a3.85 3.85 0 0 0 -2.22-3.08zm-3 6.7a7.44 7.44 0 0 1 -1.75.35 8.17 8.17 0 0 1 -3.23-.37 4.1 4.1 0 0 1 4.98.02z" fill="#caedeb"/><path d="m164.05 104v9.31c0 2.73-1.8 5.45-5.38 7.54-11.64 6.76-31.7 1.89-31.67-7.65v-9.31c0 2.77 1.81 5.54 5.47 7.65 7.25 4.19 19 4.19 26.2 0 3.58-2.08 5.38-4.81 5.38-7.54z" fill="#f2a408"/><path d="m158.58 96.38c7.26 4.19 7.31 11 .09 15.18s-18.95 4.19-26.2 0-7.3-11-.09-15.18 18.94-4.19 26.2 0z" fill="#fcc342"/><path d="m166.41 39.89c0 3.15-2.12 6.28-6.32 8.64-13.29 7.45-35.43 1.83-35.4-8.75 0 15-.56 18.18 2 23 7.32 13.69 22.37 10.78 24 10.36 2.47-.6 9.34-3.35 12.79-8.93 3.74-6.04 2.89-9.1 2.93-24.32z" fill="#caedeb" opacity=".73"/><path d="m129.87 62c1.34 5.86 7.74 10.3 15.44 10.3s14.09-4.42 15.43-10.3z" fill="#fcc342"/><path d="m156.23 54.84c6.07 3.5 6.11 9.16.08 12.65s-15.86 3.49-21.93 0-6.1-9.15-.07-12.65 15.85-3.49 21.92-0z" fill="#ffdc7b"/><g clip-path="url(#A)"><path d="m168.4 37.83-.06 4.42c0 11.74-24.69 17.76-39.25 9.36-4.54-2.62-6.8-6.06-6.79-9.49v-4.42c0 11.81 24.83 17.93 39.36 9.49 4.45-2.58 6.68-6 6.69-9.36z" fill="#e21717"/></g><path d="m161.6 28.33c9 5.21 9.07 13.65.11 18.86s-23.55 5.21-32.57 0-9.07-13.65-.11-18.86 23.54-5.21 32.57 0z" fill="#c31414"/><path d="m144.83 86v-9.61a5 5 0 0 0 -1.15-3.09 7.68 7.68 0 0 0 -3.46-1.68l1.9-.89 3.27.35v15.6z" fill="#fcc342"/><path d="m145.91 86.44v-9.58s0-2.33 1.09-3.47a8.4 8.4 0 0 1 3.4-1.77l-1.91-.89-3.26.35v15.6z" fill="#fcc342"/><path d="m144.85 85.82s-10.4 8.56-14.27 11.73c-2.89 2.37-3.29 4.44-3.29 4.44s8.23 1.88 13.82 3.55a14.79 14.79 0 0 0 8.94.19c2.66-.7 13.88-2.38 13.88-3.36 0-.38-.19-1.84-3.55-4.82s-14.45-11.73-14.45-11.73a.78.78 0 0 1 -.57.29.55.55 0 0 1 -.51-.29z" fill="#fcc342"/><path d="m21.71 66.27c-.65.36-.64.93 0 1.27l69 34.14a7 7 0 0 0 2.59.6h3.23a7.55 7.55 0 0 0 2.61-.57l4.64-2.09a18.94 18.94 0 0 0 2.37-1.33l5.86-4a11.44 11.44 0 0 0 2-1.82l1.13-1.38a3.14 3.14 0 0 0 .56-2.39l-.3-1.24a3.19 3.19 0 0 0 -1.54-1.91l-67.11-31.86a3 3 0 0 0 -2.42.07z" opacity=".2"/><path d="m82.15 89.52 1.62-1c.51.24 1 .49 1.57.71a9.17 9.17 0 0 1 4.1 3.73 47 47 0 0 1 2 4.56l-3 1.91a3.06 3.06 0 0 1 -2.74-.22 9.21 9.21 0 0 1 -4.58-6.92 2.92 2.92 0 0 1 1.03-2.77z" fill="#3a3939"/><path d="m81.09 92.28a9.21 9.21 0 0 0 4.58 6.92c2.37 1.17 4.16 0 4-2.65a9.18 9.18 0 0 0 -4.59-6.91c-2.36-1.18-4.15 0-3.99 2.64z" fill="#575656"/><path d="m81.34 92.7a8.33 8.33 0 0 0 4.16 6.3c2.15 1.07 3.77 0 3.62-2.4a8.31 8.31 0 0 0 -4.12-6.3c-2.19-1.07-3.81 0-3.66 2.4z" fill="#3a3939"/><path d="m82.56 93.39a5.53 5.53 0 0 0 2.76 4.16c1.43.71 2.51 0 2.41-1.59a5.52 5.52 0 0 0 -2.73-4.16c-1.46-.71-2.53 0-2.44 1.59z" fill="url(#B)"/><path d="m85 91.8a3.64 3.64 0 0 1 .56.34l-.19-.1c-1.22-.61-2.13 0-2 1.35a4.72 4.72 0 0 0 2.35 3.54c1.2.6 2.11 0 2-1.33v.36c.1 1.59-1 2.3-2.41 1.59a5.53 5.53 0 0 1 -2.76-4.16c-.08-1.59.99-2.3 2.45-1.59z" fill="url(#C)"/><path d="m84.79 91.72c-1.12-.34-1.91.34-1.83 1.67a5.21 5.21 0 0 0 2.6 3.93c.88.43 1.62.29 2-.28-.35.79-1.2 1-2.24.51a5.53 5.53 0 0 1 -2.76-4.16c-.09-1.52.89-2.24 2.23-1.67z" fill="url(#D)"/><path d="m83.66 94.13a3 3 0 0 0 1.47 2.21c.76.38 1.33 0 1.28-.85a2.92 2.92 0 0 0 -1.47-2.21c-.76-.38-1.33 0-1.28.85z" fill="#dadbd9"/><path d="m84.4 94.62a1 1 0 0 0 .49.74c.25.13.44 0 .42-.28a.93.93 0 0 0 -.49-.74c-.25-.13-.44 0-.42.28z" fill="url(#E)"/><g fill="#343433"><path d="m85.18 94.27a.44.44 0 0 0 .21.32c.11 0 .19 0 .18-.12a.44.44 0 0 0 -.21-.32c-.11-.05-.19 0-.18.12z"/><path d="m84.19 93.76a.42.42 0 0 0 .2.31c.11.06.19 0 .19-.12a.47.47 0 0 0 -.21-.31c-.11-.05-.19 0-.18.12z"/><path d="m83.92 94.68a.41.41 0 0 0 .21.31c.11.06.19 0 .18-.11a.44.44 0 0 0 -.21-.32c-.1-.05-.18-0-.18.12z"/><path d="m84.76 95.73a.39.39 0 0 0 .24.27c.11.06.19 0 .18-.12a.39.39 0 0 0 -.2-.31c-.15-.01-.23.04-.22.16z"/><path d="m85.51 95.47a.43.43 0 0 0 .2.31c.11 0 .19 0 .18-.12a.39.39 0 0 0 -.2-.31c-.11-.06-.19 0-.18.12z"/><path d="m84.82 92.55a.31.31 0 0 0 .18.45.31.31 0 0 0 .39-.22.32.32 0 0 0 -.15-.42.3.3 0 0 0 -.42.19z"/><path d="m83.8 92.58c0 .19.09.35.19.35s.21-.15.21-.34-.08-.34-.19-.35-.2.15-.21.34z"/><path d="m86 93.31a.34.34 0 0 0 -.09.46.33.33 0 0 0 .47.06.34.34 0 0 0 .09-.46.34.34 0 0 0 -.47-.06z"/><path d="m86.88 94.7a.31.31 0 0 0 -.3.33.32.32 0 0 0 .38.24.32.32 0 0 0 .3-.34.32.32 0 0 0 -.38-.23z"/><path d="m87 96a.3.3 0 0 0 -.39.16c0 .13.1.27.29.32a.3.3 0 0 0 .38-.17c.05-.14-.07-.31-.28-.31z"/><path d="m86.2 96.77c-.12-.09-.25-.13-.29-.08s0 .16.16.25.25.13.29.08-.04-.16-.16-.25z"/></g><path d="m80.53 88.15c.48-.92 1.77-.36 3.24.33l-1.62 1a2.92 2.92 0 0 0 -1.06 2.76s0 .08 0 .11l-1 .41c-.26-2.47-.19-3.43.44-4.61z" fill="#212020"/><path d="m33.19 65.28 1.25-.81a6.23 6.23 0 0 1 1.53.59c2.75 1.51 4.81 3.08 5.32 8.57l.32.15-2.18 1.39a3 3 0 0 1 -2.71-.17 9.18 9.18 0 0 1 -4.59-7 2.91 2.91 0 0 1 1.06-2.72z" fill="#3a3939"/><path d="m32.13 68a9.18 9.18 0 0 0 4.59 7c2.36 1.18 4.15 0 4-2.64a9.19 9.19 0 0 0 -4.58-6.92c-2.38-1.23-4.14-.04-4.01 2.56z" fill="#575656"/><path d="m32.38 68.45a8.33 8.33 0 0 0 4.16 6.28c2.15 1.07 3.77 0 3.63-2.4a8.34 8.34 0 0 0 -4.17-6.28c-2.15-1.05-3.77.01-3.62 2.4z" fill="#3a3939"/><path d="m33.61 69.14a5.51 5.51 0 0 0 2.76 4.16c1.42.71 2.5 0 2.4-1.59a5.51 5.51 0 0 0 -2.77-4.16c-1.42-.71-2.49 0-2.39 1.59z" fill="url(#F)"/><path d="m36 67.55a3.71 3.71 0 0 1 .56.35l-.19-.11c-1.21-.6-2.13 0-2 1.36a4.7 4.7 0 0 0 2.34 3.54c1.21.6 2.12 0 2-1.33v.35c.1 1.59-1 2.3-2.4 1.59a5.51 5.51 0 0 1 -2.76-4.16c-.04-1.59 1.03-2.3 2.45-1.59z" fill="url(#G)"/><path d="m35.83 67.47c-1.12-.33-1.91.35-1.83 1.68a5.23 5.23 0 0 0 2.61 3.92c.88.44 1.61.3 2-.27-.35.78-1.2 1-2.23.5a5.51 5.51 0 0 1 -2.76-4.16c-.11-1.52.88-2.23 2.21-1.67z" fill="url(#H)"/><path d="m34.71 69.88a3 3 0 0 0 1.46 2.22c.76.38 1.34 0 1.29-.85a3 3 0 0 0 -1.46-2.25c-.77-.35-1.35 0-1.29.88z" fill="#dadbd9"/><path d="m35.44 70.37a1 1 0 0 0 .49.74c.25.13.44 0 .43-.28a1 1 0 0 0 -.49-.74c-.26-.09-.45 0-.43.28z" fill="url(#I)"/><path d="m36.22 70a.41.41 0 0 0 .21.31c.11 0 .19 0 .18-.12a.41.41 0 0 0 -.21-.31c-.1-.03-.18.03-.18.12z" fill="#343433"/><path d="m35.23 69.52a.41.41 0 0 0 .21.31c.1 0 .19 0 .18-.12a.41.41 0 0 0 -.21-.31c-.11-.06-.19 0-.18.12z" fill="#343433"/><path d="m35 70.44a.39.39 0 0 0 .2.31c.11 0 .19 0 .18-.12a.39.39 0 0 0 -.2-.31c-.18-.06-.18 0-.18.12z" fill="#343433"/><path d="m35.8 71.48a.44.44 0 0 0 .21.32c.1 0 .18 0 .18-.12a.44.44 0 0 0 -.21-.32c-.11-.05-.19.01-.18.12z" fill="#343433"/><path d="m36.55 71.22a.41.41 0 0 0 .21.31c.1.06.18 0 .18-.12a.41.41 0 0 0 -.21-.31c-.11-.05-.19 0-.18.12z" fill="#343433"/><path d="m35.86 68.31a.32.32 0 0 0 .14.42.36.36 0 1 0 -.14-.42z" fill="#343433"/><path d="m34.85 68.34c0 .19.08.34.19.35s.2-.16.2-.34-.08-.35-.19-.35-.2.15-.2.34z" fill="#343433"/><path d="m37.07 69.07a.33.33 0 0 0 -.1.46.34.34 0 0 0 .56-.4.32.32 0 0 0 -.46-.06z" fill="#343433"/><path d="m37.92 70.45a.29.29 0 1 0 .39.24.33.33 0 0 0 -.39-.24z" fill="#343433"/><path d="m38.07 71.74c-.19 0-.36 0-.39.17s.09.27.28.31.36 0 .39-.16-.1-.28-.28-.32z" fill="#343433"/><path d="m37.24 72.53c-.12-.1-.25-.13-.28-.08s0 .16.15.25.25.13.29.08-.03-.16-.16-.25z" fill="#343433"/><path d="m31.6 65.91a2.23 2.23 0 0 1 2.84-1.44l-1.25.81a2.73 2.73 0 0 0 -1.06 2.44l-.45.1a4.93 4.93 0 0 1 -.08-1.91z" fill="#212020"/><path d="m20.91 56.1-.41-7.45s.58-9.09.72-11.79.78-2.8 1.53-3.32l16.25-11.09.59-.38a2.22 2.22 0 0 1 1.49-.07l45.92 22.81c2.7 1.35 3.52 1.94 4.35 3l6.49 8.1s9.35 12.86 10.16 14.09 3.58 5.52 3.58 5.52a8.83 8.83 0 0 1 2 4.21 14.72 14.72 0 0 1 0 6.76c-.71 2.15-2.75 3.82-6.24 6.23s-7.72 4.87-10.72 5.28a10.68 10.68 0 0 1 -5.07-.46h-.08a48.5 48.5 0 0 0 -2-4.58 9.17 9.17 0 0 0 -4.1-3.73c-2.06-.85-4.16-2.27-4.81-1s-.7 2.15-.42 4.66l-38.83-19.25c-.51-5.49-2.57-7.06-5.32-8.57s-4.15-.12-4.37.85a5.1 5.1 0 0 0 .08 2c-1.9-1-8.93-4.59-9.7-5.33s-1.27-4-1.39-5.06.3-1.43.3-1.43z" fill="#dfe5e9"/><path d="m22 62.55c-.89-.86-1.27-4-1.39-5.06s.32-1.39.32-1.39l-.41-7.45s.58-9.09.72-11.79a7 7 0 0 1 .37-2.16s.28-.66 2 .24 45.66 22.81 45.66 22.81a16.88 16.88 0 0 1 4.87 4.72c2.28 3.26 4.74 7.36 4.74 7.36l7.5 11.43s2.88 3.66 3.65 4.62 3.6 1.46 3.6 1.46a69.48 69.48 0 0 1 1.53 10.76 10 10 0 0 1 -3.61-.57h-.08a48.5 48.5 0 0 0 -2-4.58 9.17 9.17 0 0 0 -4.1-3.73c-2.06-.85-4.16-2.27-4.81-1s-.7 2.15-.42 4.66l-38.83-19.24c-.51-5.49-2.57-7.06-5.32-8.57s-4.15-.12-4.37.85a5.1 5.1 0 0 0 .08 2c-1.92-1.01-8.95-4.63-9.7-5.37z" opacity=".1"/><path d="m93.63 87.34a14 14 0 0 1 -1.63-.42l-.22-.61a5.09 5.09 0 0 1 -1 .11 2.6 2.6 0 0 1 -.52-.34c.15-.4 1.16-1.21 4-2.81a80.79 80.79 0 0 0 13.6-9.42 5.61 5.61 0 0 0 1.45-1.85l2.3 3.58a8.83 8.83 0 0 1 2 4.21 24.47 24.47 0 0 1 .37 3.29 83.27 83.27 0 0 1 -9.37 7.56c-5.72 4-8.61 3.27-9.95 2.28-.45-2.92-1.03-5.58-1.03-5.58z" opacity=".03"/><g mask="url(#K)"><path d="m80.17 85 1.3-.34 7.6 3.4-.44.57s-3.74-1.73-5.46-2.5-3.74-1.2-4.34.91a14 14 0 0 0 -.51 3.06c0-.74.08-4.48 1.85-5.1z" fill="url(#L)" opacity=".5"/></g><g mask="url(#N)"><path d="m78.31 90.19a.28.28 0 0 1 0-.06z" fill="url(#O)" opacity=".5"/></g><path d="m22.48 55.13 53 26.22s12.22 5.55 13.41 6a9.16 9.16 0 0 0 5.79.7c2.6-.58 6.51-2.87 9.44-4.9a38.62 38.62 0 0 0 6.76-5.64 4.82 4.82 0 0 0 .89-1.83l.14.18a5 5 0 0 1 -1 2.3 38.62 38.62 0 0 1 -6.76 5.64c-2.93 2-6.84 4.32-9.44 4.91a9.22 9.22 0 0 1 -5.77-.71c-1.19-.49-13.41-6-13.41-6l-52.27-26z" opacity=".1"/><g fill="#fff" opacity=".5"><path d="m40.38 24.61a.15.15 0 0 0 .06 0l42.91 21.48a.49.49 0 0 0 .41 0l.54-.3a.1.1 0 0 0 .06-.05v.17l-.55.3a.47.47 0 0 1 -.4 0l-42.96-21.44c-.09-.04-.11-.11-.07-.16z"/><path d="m38.86 25.64s0 0 .06 0l42.91 21.48a.49.49 0 0 0 .41 0l.54-.3h.06s0 .12 0 .16l-.55.3a.47.47 0 0 1 -.4 0l-42.96-21.48c-.09-.04-.11-.11-.07-.16z"/><path d="m37.37 26.7a.15.15 0 0 0 .06 0l42.91 21.48a.49.49 0 0 0 .41 0l.54-.3s0 0 .06 0 0 .13 0 .17l-.55.3a.47.47 0 0 1 -.4 0l-42.97-21.49c-.08-.04-.1-.11-.06-.16z"/><path d="m35.82 27.73 42.97 21.48a.47.47 0 0 0 .4 0l.54-.3a.1.1 0 0 0 .06 0c0 .06 0 .13-.05.17l-.54.3a.49.49 0 0 1 -.41 0l-42.91-21.49c-.09-.04-.11-.11-.06-.16z"/><path d="m34.27 28.76s0 0 .06 0l42.91 21.48a.49.49 0 0 0 .41 0l.54-.3a.15.15 0 0 0 .06 0s0 .12 0 .16l-.55.3a.47.47 0 0 1 -.4 0l-42.96-21.48c-.09-.04-.11-.11-.07-.16z"/><path d="m32.68 29.84a.13.13 0 0 0 .06 0l42.91 21.48a.49.49 0 0 0 .41 0l.54-.3.06-.05v.17l-.55.3a.51.51 0 0 1 -.4 0l-42.97-21.44c-.08 0-.1-.1-.06-.16z"/><path d="m31.17 30.87h.06l42.92 21.48a.47.47 0 0 0 .4 0l.54-.29h.06s0 .12-.05.17l-.54.3a.49.49 0 0 1 -.41 0l-42.91-21.53c-.09 0-.11-.08-.07-.13z"/><path d="m29.56 32a.1.1 0 0 0 .05 0l42.92 21.45a.47.47 0 0 0 .4 0l.54-.3h.06s0 .12 0 .17l-.54.3a.47.47 0 0 1 -.4 0l-42.97-21.49c-.08-.04-.11-.13-.06-.13z"/><path d="m28 33h.06l42.87 21.49a.47.47 0 0 0 .4 0l.54-.3a.1.1 0 0 0 .06 0c0 .06 0 .13-.05.17l-.54.3a.49.49 0 0 1 -.41 0l-42.93-21.49c-.07-.04-.09-.11 0-.17z"/><path d="m26.36 34a.15.15 0 0 0 .06 0l42.91 21.51a.49.49 0 0 0 .41 0l.54-.3.06-.05v.17l-.55.3a.47.47 0 0 1 -.4 0l-42.97-21.44c-.08-.04-.1-.11-.06-.19z"/></g><g opacity=".05"><path d="m84.36 45.73h-.06l-42.91-21.48a.49.49 0 0 0 -.41 0l-.54.3a.1.1 0 0 0 -.06.05c-.05-.06 0-.13 0-.17l.55-.3a.47.47 0 0 1 .4 0l42.96 21.44c.09.04.11.11.07.16z"/><path d="m82.84 46.77s0 0-.06-.05l-42.91-21.44a.53.53 0 0 0 -.41 0l-.54.3s0 0-.06.05 0-.12 0-.17l.55-.3a.51.51 0 0 1 .4 0l42.96 21.44c.09.05.11.11.07.17z"/><path d="m81.35 47.82h-.06l-42.91-21.48a.53.53 0 0 0 -.41 0l-.54.3a.1.1 0 0 0 -.06.05c0-.06 0-.12.05-.17l.55-.3a.51.51 0 0 1 .4 0l42.91 21.44c.09.04.11.11.07.16z"/><path d="m79.79 48.85h-.05l-42.92-21.48a.51.51 0 0 0 -.4 0l-.55.3a.12.12 0 0 0 0 .05c0-.06 0-.12 0-.17l.54-.3a.51.51 0 0 1 .4 0l42.92 21.44c.08.04.1.11.06.16z"/><path d="m78.25 49.89h-.06l-42.91-21.49a.53.53 0 0 0 -.41 0l-.54.3s0 0-.06.05 0-.12 0-.17l.55-.3a.51.51 0 0 1 .4 0l42.96 21.44c.09.05.11.11.07.17z"/><path d="m76.66 51a.13.13 0 0 0 -.06 0l-42.91-21.51a.49.49 0 0 0 -.41 0l-.54.3s-.05 0-.06.05 0-.12 0-.17l.55-.3a.51.51 0 0 1 .4 0l42.96 21.44c.09.04.11.1.07.19z"/><path d="m75.15 52h-.05l-42.92-21.49a.51.51 0 0 0 -.4 0l-.55.3-.06.05c-.05-.05 0-.12.06-.17l.54-.3a.51.51 0 0 1 .4 0l42.92 21.44c.08.05.1.11.06.17z"/><path d="m73.53 53.1a.1.1 0 0 0 0 0l-42.97-21.49a.51.51 0 0 0 -.4 0l-.54.3s-.05 0-.06 0 0-.12.05-.17l.54-.3a.51.51 0 0 1 .4 0l42.92 21.5c.08.06.11.06.06.16z"/><path d="m71.93 54.13h-.06l-42.87-21.48a.47.47 0 0 0 -.4 0l-.6.35c-.05-.06 0-.13.06-.17l.54-.3a.47.47 0 0 1 .4 0l42.87 21.47c.13 0 .13.08.06.13z"/><path d="m70.34 55.15h-.06l-42.91-21.48a.49.49 0 0 0 -.41 0l-.54.3a.1.1 0 0 0 -.06.05c-.05-.06 0-.13.05-.17l.55-.3a.47.47 0 0 1 .4 0l42.91 21.45c.09 0 .11.1.07.15z"/></g><path d="m68.83 74.42-.18-9.26a.83.83 0 0 0 -.42-.66l-45.54-22.5a.39.39 0 0 0 -.18 0 .26.26 0 0 1 .39-.11l45.55 22.5a.82.82 0 0 1 .41.66l.14 9.22c0 .18-.09.29-.24.29a.32.32 0 0 0 .07-.14z" opacity=".1"/><path d="m22.48 42.1c0-.19.12-.3.28-.29a.3.3 0 0 0 0 .1l.06 9.15a.81.81 0 0 0 .4.66l45.68 22.61h.13c0 .17-.2.24-.39.15l-45.7-22.57a.81.81 0 0 1 -.4-.66z" fill="#fff" opacity=".4"/><path d="m23.38 37.17 12.62 6.3 12.65 6.27 12.66 6.26 6.32 3.14 1.58.78a6.82 6.82 0 0 1 1.41 1 13.51 13.51 0 0 1 2.3 2.64 10.63 10.63 0 0 0 -2.14-2.81 7.56 7.56 0 0 0 -.69-.58 5.41 5.41 0 0 0 -.76-.48l-1.58-.78-6.32-3.15-12.64-6.27-12.65-6.29-12.66-6.2z" fill="#fff" opacity=".2"/><path d="m75.53 82 5.94 2.69-1.3.34-57.61-28.55.7-.49z" fill="#fff" opacity=".2"/><g mask="url(#Q)" opacity=".5"><path d="m42.79 73a13.47 13.47 0 0 0 -1.12-3.8c-1.17-3-2.93-4.4-5.59-5.84s-4.48-.79-4.55-.76l.12.29s1.69-.64 4.28.75 4.31 2.78 5.44 5.67a13.73 13.73 0 0 1 1.1 3.69z" fill="url(#R)"/></g><path d="m71.05 66.88s0 0 0 0a1.65 1.65 0 0 0 0 .5c.12 1.19.58 6.1 1.44 7.66 1.33 2.41 4.85 4.74 9.62 6.51l2.35 1a.7.7 0 0 0 .23 0c.24 0 .58-.15.42-.81.19.55.45 1.47.14 1.82-.45.51-2.3-.54-4-1.36s-7.77-3.15-9.17-6.37-1.08-8.83-1.03-8.95z" fill="#fff" opacity=".3"/><path d="m60.41 62.65h.16v39.39h-.16z" opacity=".1" transform="matrix(.44291472 -.89656375 .89656375 .44291472 -40.13 100.11)"/><g mask="url(#T)"><path d="m78.7 55.35 5.13 6.55a.72.72 0 0 1 0 1.1c-.62.49-2.94 2-2.94 2s-1 .36-1.46-.29-5.43-6.59-5.43-6.59l5.36 7.52a1.74 1.74 0 0 0 2.21.43 16.74 16.74 0 0 0 3-1.93s1.33-.71 0-2.29-5.87-6.5-5.87-6.5z" fill="url(#U)" opacity=".3"/></g><path d="m78.7 55.35 5.13 6.55a.72.72 0 0 1 0 1.1c-.62.49-2.94 2-2.94 2s-1 .36-1.46-.29-5.43-6.59-5.43-6.59l5.36 7.52a1.74 1.74 0 0 0 2.21.43 16.74 16.74 0 0 0 3-1.93s1.33-.71 0-2.29-5.87-6.5-5.87-6.5z" fill="url(#V)" opacity=".1"/><g mask="url(#X)"><path d="m88.65 48.49 5.13 6.51a.73.73 0 0 1 0 1.1c-.63.5-2.95 2-2.95 2s-1 .36-1.45-.29-5.38-6.55-5.38-6.55l5.37 7.52a1.74 1.74 0 0 0 2.2.43 16.74 16.74 0 0 0 3-1.93s1.34-.71 0-2.29-5.92-6.5-5.92-6.5z" fill="url(#Y)" opacity=".3"/></g><path d="m88.65 48.49 5.13 6.51a.73.73 0 0 1 0 1.1c-.63.5-2.95 2-2.95 2s-1 .36-1.45-.29-5.38-6.55-5.38-6.55l5.37 7.52a1.74 1.74 0 0 0 2.2.43 16.74 16.74 0 0 0 3-1.93s1.34-.71 0-2.29-5.92-6.5-5.92-6.5z" fill="url(#Z)" opacity=".1"/><path d="m71.49 66.45a.73.73 0 0 1 .21 0s2.82 1.3 4.16 2a9.47 9.47 0 0 1 2.44 2.15s6.16 9.33 6.7 10.78c.4 1 0 1.19-.3 1.21a.7.7 0 0 1 -.23 0l-2.35-1c-4.77-1.77-8.29-4.1-9.62-6.51-.86-1.56-1.32-6.47-1.44-7.66-.06-.8.23-.95.43-.97z" fill="#131b1d"/><path d="m77 69.88a9.64 9.64 0 0 1 1 1c.92 1.38 2.21 3.36 3.42 5.24l.28 4.88a30.45 30.45 0 0 1 -3.79-1.76z" fill="#303e42"/><path d="m71.52 66.85s0 0 0 0c.29.13 2.87 1.32 4.12 2a6.26 6.26 0 0 1 .82.56l.91 9.48a11.91 11.91 0 0 1 -4.51-4c-.77-1.39-1.23-5.79-1.38-7.24v-.27c-.03-.38.02-.5.04-.53z" fill="#303e42"/><path d="m80.15 68.46c.91-.51 7.75-4.91 10.16-6.72s6.86-5 6.86-5a.75.75 0 0 1 .45-.18c.25 0 .56.09.88.56.67 1 7.66 10.69 7.66 10.69a7.4 7.4 0 0 1 -2.31 3.59 65.55 65.55 0 0 1 -11.13 7.91 11.5 11.5 0 0 1 -4.58 1.54 2.9 2.9 0 0 1 -1-.08l-7.52-11.13s-.38-.64.53-1.18z" fill="#131b1d"/><path d="m80.35 68.81c1-.54 7.8-5 10.2-6.75s6.81-5 6.86-5a.34.34 0 0 1 .2-.08c.2 0 .39.2.52.39.63.93 6.21 8.76 7.13 10.05a9.29 9.29 0 0 1 -2.39 3 63.42 63.42 0 0 1 -10.87 7.58 12.66 12.66 0 0 1 -4.36 1.7 3.09 3.09 0 0 1 -.89-.14l-6.75-10.13c-.08-.1-.12-.36.35-.62z" fill="#303e42"/><path d="m92.72 79.31a65.55 65.55 0 0 0 11.13-7.91 7.4 7.4 0 0 0 2.31-3.59s1 1.82.19 3.2-5.14 4.63-6.87 5.88-7.24 4.44-8.59 4.72a5.49 5.49 0 0 1 -3.78-.84s1.72.62 5.61-1.46z" fill="#4d595b"/><g fill="#c4cfd2" opacity=".7"><path d="m97.16 57.24.25-.17a.34.34 0 0 1 .2-.08c.2 0 .39.2.52.39.3.45 1.79 2.55 3.34 4.73l.42 3.88s.12.42-2.54-1z"/><path d="m96.7 57.58 2 7h-.07a13.07 13.07 0 0 1 -4.71-4.93c1.08-.87 2.13-1.65 2.78-2.07z"/></g><path d="m102.91 70.38a63.42 63.42 0 0 1 -10.91 7.62 12.66 12.66 0 0 1 -4.36 1.7 3.09 3.09 0 0 1 -.89-.14l-1.75-2.66a61.61 61.61 0 0 1 8.48-6.8 96.43 96.43 0 0 1 8.4-4.86l3.44 2.16a9.29 9.29 0 0 1 -2.41 2.98z" fill="#39474b"/><path d="m83.59 74.84a4.42 4.42 0 0 1 2.22-2.37 2.5 2.5 0 0 1 2.85.3 26.2 26.2 0 0 1 2.34 2.75c.74 1-2.8 2.76-3.91 2.6a5.66 5.66 0 0 1 -1.74-.68z" fill="#3d4b50"/><path d="m90.55 62.06c2.37-1.78 6.81-5 6.86-5a.34.34 0 0 1 .2-.08c.2 0 .39.2.52.39.63.93 6.21 8.76 7.13 10.05a7.91 7.91 0 0 1 -1.86 2.47 28.23 28.23 0 0 0 -14-7c.45-.31.84-.59 1.15-.83z" fill="#fff" opacity=".2"/><path d="m89.07 88.09a9.09 9.09 0 0 0 5.66.66c2.6-.59 6.51-2.88 9.44-4.91a38.62 38.62 0 0 0 6.76-5.64 5 5 0 0 0 1-2.3 9.49 9.49 0 0 1 1.68 3.86 14.72 14.72 0 0 1 0 6.76c-.71 2.15-2.75 3.82-6.24 6.23s-7.75 4.84-10.75 5.25a10.68 10.68 0 0 1 -5.07-.46h-.08a48.5 48.5 0 0 0 -2-4.58 10.57 10.57 0 0 0 -2-2.41l.78-1.59.12-.24z" fill="#404b4d"/><path d="m88.34 88.68.73-.59a9.09 9.09 0 0 0 5.66.66c2.6-.59 6.51-2.88 9.44-4.91a38.62 38.62 0 0 0 6.76-5.64 5 5 0 0 0 1-2.3 8.6 8.6 0 0 1 1 1.73 5.33 5.33 0 0 1 -2.47 4.37s-2.13 1.64-4.41 3.22c-2 1.37-4 2.65-4.92 3.15a13.45 13.45 0 0 1 -6 2.09c-2.75.4-6-1.07-6.86-1.52z" fill="#5a6567"/><path d="m104.17 83.84a47.59 47.59 0 0 0 6-4.83 5.57 5.57 0 0 1 1.54 1.74 28.82 28.82 0 0 1 .58 4.22 43.54 43.54 0 0 1 -4.94 3.84 49.73 49.73 0 0 1 -6.52 4l-1.76-3.38-1.8-1.58a45.47 45.47 0 0 0 6.9-4.01z" fill="#c4cace"/><path d="m101.19 88.69c.87-.5 3-1.79 4.92-3.16 2.28-1.58 4.41-3.22 4.41-3.22.62-.42.68.56.68.56l.22 2.55c-.91.76-2.2 1.69-4.24 3.21a53.79 53.79 0 0 1 -5.28 3.37l-1-2.09a.81.81 0 0 1 .29-1.22z" fill="#4d595b"/><path d="m101.75 91.62-.81-1.76a.81.81 0 0 1 .25-1.17c.87-.5 3-1.79 4.92-3.16 2.28-1.58 4.41-3.22 4.41-3.22l.1-.06a1.48 1.48 0 0 1 .12.47l.22 2.54c-.91.76-2.19 1.7-4.24 3.22a50.19 50.19 0 0 1 -4.97 3.14z" fill="#1b2628"/><path d="m110.61 85.55-.22.17-.41-3 .22-.17z" fill="#333e40"/><path d="m109.54 86.38-.22.16-.47-3 .22-.17z" fill="#333e40"/><path d="m108.2 87.38-.22.16-.57-2.92.21-.16z" fill="#333e40"/><path d="m106.76 88.44-.17.12-.75-2.85.21-.15z" fill="#333e40"/><path d="m102.64 91.11-.21.12-1.08-2.64a2.25 2.25 0 0 0 .21-.12z" fill="#333e40"/><path d="m103.9 90.36-.21.12-1-2.69.21-.13z" fill="#333e40"/><path d="m105.31 89.45-.21.14-.89-2.78.21-.14z" fill="#333e40"/><path d="m77.05 87.69v1.44a.38.38 0 0 1 -.5.4l-32.86-16.26-.75-2.51z" fill="#5a6567"/><path d="m31.75 62.42 1.07 2.15a2 2 0 0 0 -1.22 1.34 5.1 5.1 0 0 0 .08 2c-1.9-1-8.93-4.59-9.7-5.33s-1.27-4-1.39-5.06.32-1.39.32-1.39l.52 1.27z" fill="#5a6567"/><path d="m110.19 79a5.57 5.57 0 0 1 1.54 1.74.14.14 0 0 1 0 .06 5.47 5.47 0 0 1 -1.27 1.2s-2.13 1.64-4.41 3.22c-2 1.37-4 2.65-4.92 3.15a21.85 21.85 0 0 1 -2 1.08l-1.8-1.57a45.47 45.47 0 0 0 6.88-4 47.59 47.59 0 0 0 5.98-4.88z" fill="#dfe5e9"/><path d="m101.52 91.11a50.54 50.54 0 0 0 5.07-3.22l1.19-.88c1.41-1.05 2.38-1.76 3.13-2.37v.29c-.73.59-1.67 1.28-3 2.27l-1.2.89a54.4 54.4 0 0 1 -5.11 3.24z" fill="#404b4d"/><path d="m110.88 84.29c-.74.6-1.69 1.3-3 2.3l-1.19.89a53.32 53.32 0 0 1 -5.26 3.33l-.1-.22a53 53 0 0 0 5.21-3.3l1.2-.89c1.44-1.06 2.41-1.78 3.16-2.4z" fill="#404b4d"/><path d="m110.82 83.62c-.74.6-1.69 1.31-3 2.31l-1.2.89a52.51 52.51 0 0 1 -5.45 3.44l-.17-.26a55.2 55.2 0 0 0 5.41-3.41l1.2-.89c1.44-1.06 2.41-1.79 3.16-2.41z" fill="#404b4d"/><path d="m107.65 85.25-1.2.88a58.21 58.21 0 0 1 -5.6 3.54.84.84 0 0 1 -.06-.24 57.82 57.82 0 0 0 5.52-3.49l1.2-.89c1.49-1.05 2.49-1.82 3.22-2.45a.94.94 0 0 1 0 .12v.17c-.73.61-1.68 1.32-3.08 2.36z" fill="#404b4d"/><g mask="url(#ab)"><path d="m99.26 92.62c.73-.2.85 0 1 .34s.36.79.07 1a12.92 12.92 0 0 1 -3 .88l-.33-.64z" fill="url(#ac)"/></g><path d="m97.1 94.74a21.1 21.1 0 0 1 -3.72 0 1.66 1.66 0 0 1 -1.27-.74s.11.59 1 .75a14.67 14.67 0 0 0 4.12.07 12.92 12.92 0 0 0 3-.88 24.06 24.06 0 0 1 -3.13.8z" fill="#4d595b"/><path d="m97.31 96.2-2.79.09s-.54.07-.32.44.44.68.74.78a9.28 9.28 0 0 0 2.84-.11 23.88 23.88 0 0 0 5.32-2.3v-.4a29.77 29.77 0 0 1 -4.93 2.15s-.25-.71-.86-.65z" fill="#4d595b"/><path d="m96.84 96.85a6.58 6.58 0 0 1 -1.19-.6h1.66c.61-.06.81.65.81.65a29.77 29.77 0 0 0 4.93-2.15v.4a26.47 26.47 0 0 1 -5 2.24c-.27-.18-.77-.39-1.21-.54z" fill="#333e40"/><path d="m94.2 96.43a.63.63 0 0 1 .32-.14h1.12a.76.76 0 0 1 -.68.82.74.74 0 0 1 -.76-.68z" fill="#f0eff0"/><path d="m96.73 93.24a19.3 19.3 0 0 0 2.53-.62c0 .2.13.56 0 .65s-2.27.95-2.27.95z" fill="#333e40"/><path d="m104.42 91.91 5.29-3.64a.21.21 0 0 1 .12 0 .19.19 0 0 1 .21.2l.09 1.07a.49.49 0 0 1 -.2.43l-5.26 3.59a.21.21 0 0 1 -.13 0 .19.19 0 0 1 -.2-.2l-.11-1a.51.51 0 0 1 .19-.45z" opacity=".2"/><path d="m104.52 92 5.28-3.64a.06.06 0 0 1 0 0s0 0 0 .06l.2 1.08a.33.33 0 0 1 -.13.28l-5.26 3.6s0 0 0-.06l-.1-1a.36.36 0 0 1 .01-.32z" fill="#fff"/><path d="m111.54 86.13v-.44c-.89.76-2.14 1.69-4.14 3.12a54 54 0 0 1 -5.4 3.39v.45c0 .41.45.17.45.17a54.21 54.21 0 0 0 4.93-3.15c1.78-1.27 3-2.16 3.85-2.87a.78.78 0 0 0 .31-.67z" fill="#4d595b"/><path d="m111.1 86a.78.78 0 0 1 -.27.67c-.87.71-2.07 1.59-3.85 2.87a54.64 54.64 0 0 1 -4.92 3.14.14.14 0 0 1 0-.07v-.45a54 54 0 0 0 5.36-3.39c1.66-1.18 2.82-2.04 3.68-2.77z" fill="#1b2628"/><path d="m109.7 87.59-.23.17v-.45l.23-.17z" fill="#404b4d"/><path d="m110.75 86.78-.23.18v-.44l.23-.18z" fill="#404b4d"/><path d="m108.41 88.55-.22.16v-.46l.23-.17z" fill="#404b4d"/><path d="m107 89.58-.23.16v-.47l.23-.16z" fill="#404b4d"/><path d="m105.59 90.55-.23.15v-.49l.23-.16z" fill="#404b4d"/><path d="m104.13 91.49-.23.15v-.52l.23-.14z" fill="#404b4d"/><path d="m102.93 92.22-.23.13v-.52l.23-.14z" fill="#404b4d"/><path d="m94.38 96.32h.14 1a.55.55 0 0 1 -1.09.06z" fill="#fff"/><path d="m105.9 87.59a.61.61 0 0 0 .95.33 1.09 1.09 0 0 0 .32-1.24.61.61 0 0 0 -1-.33 1.09 1.09 0 0 0 -.27 1.24z" fill="#4d595b"/><path d="m106 87.52a.53.53 0 0 0 .82.3 1 1 0 0 0 .27-1.08.53.53 0 0 0 -.82-.29 1 1 0 0 0 -.27 1.07z" fill="#d1d4d6"/><path d="m112.86 85.06-.14-1.23a.57.57 0 0 1 .17-.36 8.86 8.86 0 0 0 .94-2.2 20.37 20.37 0 0 1 .15 2.37l-.86 1.5s-.24.36-.26-.08z" fill="#333e40"/><path d="m81 80.77a4.38 4.38 0 0 0 -.34-1.91 1.29 1.29 0 0 0 -1.5-.49c-.69.14-2 .64-2.08 1.37s.1 3 .1 3a1 1 0 0 0 .73.8 9.56 9.56 0 0 0 2.42.12.9.9 0 0 0 .81-.92c-.06-.74-.14-1.97-.14-1.97z" fill="#404b4d"/><path d="m79.15 78.37a1.29 1.29 0 0 1 1.5.49 1.21 1.21 0 0 1 .17.38c-.67.27-1.6.64-2 .73a1.88 1.88 0 0 1 -1.7-.5 3.3 3.3 0 0 1 2.03-1.1z" fill="#5a6567"/><path d="m82.37 78a6.16 6.16 0 0 1 -1.29 1.91 10.79 10.79 0 0 1 -2.17.67l.17 2.81 1.35-.08a1.71 1.71 0 0 0 1.36-.71c.2-.34.77-1.4.77-1.4v-.8a8.26 8.26 0 0 1 -1.26 2.05 4.81 4.81 0 0 1 -2 .45l-.12-1.91s1.34-.28 1.83-.46 1.31-1.65 1.31-1.65z" fill="#333e40"/><path d="m80.73 79a10.91 10.91 0 0 0 .85-1.22l.79.17a6.16 6.16 0 0 1 -1.29 1.91l-.13.07a3.1 3.1 0 0 0 -.22-.93z" fill="#5a6567"/><path d="m77.07 80.28a2.54 2.54 0 0 0 1.08.68l.08 1.75a4.7 4.7 0 0 1 -1.08-.33c-.03-.51-.08-1.44-.08-2.1z" fill="#c4cace"/><path d="m81.11 82.53c0-.78-.12-1.76-.12-1.76s0-.09 0-.24h.11a1.2 1.2 0 0 0 .39-.3l1.11.17a8.26 8.26 0 0 1 -1.26 2.05.8.8 0 0 1 -.22.13z" fill="#4d595b"/><path d="m105.05 65.85-.27-4.25a5.07 5.07 0 0 1 .19-1.28c.16-.28.51-.37 1.08-.06a2 2 0 0 1 1.15 1.93 18.75 18.75 0 0 1 0 2.37 5.17 5.17 0 0 1 -.56 1.35 4 4 0 0 1 -1.37.27z" fill="#404b4d"/><path d="m105.28 66.18-.23-.33-.27-4.25s0-.09 0-.23c.43 0 1.12.24 1.22.77s.33 2.89.35 3.89a7.07 7.07 0 0 1 -1.07.15z" fill="#333e40"/><path d="m106 62.14c-.1-.53-.79-.75-1.22-.77a3.53 3.53 0 0 1 .18-1c.16-.28.51-.37 1.08-.06a1.92 1.92 0 0 1 .88.82 5.64 5.64 0 0 1 -.9 1.19s-.02-.14-.02-.18z" fill="#5a6567"/><path d="m106.45 65.72a3.45 3.45 0 0 1 -1.2.41l-.42-.59a3 3 0 0 0 1.48-.54l-.16-1.75-2.47.7c-.11-.14-.21-.29-.32-.44l2.8-.84.8-1.08a8.7 8.7 0 0 1 .18 2.81 10.24 10.24 0 0 1 -.69 1.32z" fill="#404b4d"/><path d="m104.84 62.56 1.25.13-2.73.83-.3-.43z" fill="#5a6567"/><path d="m105 65.05h1.31s-.22.32-1.48.54l-.17-.23z" fill="#5a6567"/><path d="m72 79.53s.58.25.58-.33 0-1.16 0-1.43 0-.77-.34-.93l-.83-.45s-.35-.24-.39.45a9.7 9.7 0 0 0 .2 2c.05.29.37.49.78.69z" fill="#5a6567"/><path d="m71.56 79.08s.51.25.6.28.25-.06.24-.57a5.44 5.44 0 0 0 -.09-1.52 2.27 2.27 0 0 0 -.79-.49c-.18-.06-.38-.13-.36.33s.12 1.29.13 1.49a.57.57 0 0 0 .27.48z" fill="#4e5a5c"/><path d="m71.16 77.11c0-.46.18-.39.36-.33a2.27 2.27 0 0 1 .79.49 3.24 3.24 0 0 0 -.63-.33c-.17-.06-.38-.13-.36.33s.12 1.3.13 1.49a.9.9 0 0 0 .07.27.61.61 0 0 1 -.26-.48c.02-.15-.08-.98-.1-1.44z" fill="#414c4e"/><path d="m71.82 79.2s-.07-1.13-.08-1.63a1.27 1.27 0 0 1 .12-.69l.14.12a2.22 2.22 0 0 0 -.11.57l.1 1.56z" fill="#414c4e"/><path d="m71.82 79.2s-.07-1.13-.08-1.63a1.27 1.27 0 0 1 .12-.69l-.25-.12a3.48 3.48 0 0 0 -.16.67l.11 1.65z" fill="#5a6567"/><g opacity=".2"><path d="m99.65 77.96.87.8-.05.06-.87-.8z"/><path d="m100.83 77.18.87.8-.06.06-.86-.8z"/><path d="m101.13 76.98.87.8-.06.06-.87-.8z"/><path d="m101.4 76.8.87.79-.06.06-.87-.8z"/><path d="m102.04 76.44h.08v1.18h-.08z" transform="matrix(.6773897 -.73562436 .73562436 .6773897 -23.73 99.95)"/><path d="m102.28 76.23h.08v1.18h-.08z" transform="matrix(.67700443 -.73597894 .73597894 .67700443 -23.49 100.11)"/><path d="m102.18 76.17.87.8-.06.06-.87-.8z"/><path d="m102.82 75.82h.08v1.18h-.08z" transform="matrix(.67751808 -.73550612 .73550612 .67751808 -23.03 100.3)"/><path d="m102.75 75.76.87.8-.05.06-.87-.8z"/><path d="m103.02 75.57.86.8-.05.06-.87-.8z"/><path d="m103.27 75.35.87.8-.05.06-.87-.8z"/><path d="m103.94 74.98h.08v1.18h-.08z" transform="matrix(.6772613 -.73574257 .73574257 .6772613 -22.04 100.89)"/><path d="m103.84 74.95.87.8-.05.06-.87-.8z"/><path d="m104.42 74.55h.08v1.18h-.08z" transform="matrix(.67764644 -.73538786 .73538786 .67764644 -21.58 101.04)"/><path d="m104.72 74.33h.08v1.18h-.08z" transform="matrix(.67764644 -.73538786 .73538786 .67764644 -21.32 101.2)"/><path d="m104.98 74.08h.08v1.18h-.08z" transform="matrix(.6773897 -.73562436 .73562436 .6773897 -21.05 101.35)"/><path d="m99.73 78.01h.08v1.18h-.08z" transform="matrix(.67713287 -.73586077 .73586077 .67713287 -25.63 98.79)"/><path d="m99.1 78.35.87.8-.06.06-.86-.8z"/><path d="m99.13 78.38h.08v1.18h-.08z" transform="matrix(.6773897 -.73562436 .73562436 .6773897 -26.1 98.44)"/><path d="m98.5 78.71.87.8-.05.06-.87-.8z"/><path d="m98.56 78.74h.08v1.18h-.08z" transform="matrix(.6772613 -.73574257 .73574257 .6772613 -26.55 98.14)"/><path d="m97.88 79.12.87.8-.05.05-.87-.8z"/><path d="m97.57 79.3.87.8-.06.06-.87-.8z"/><path d="m97.25 79.49.86.8-.05.06-.87-.8z"/><path d="m96.95 79.66.87.8-.06.06-.87-.8z"/><path d="m96.64 79.82.87.8-.06.06-.86-.8z"/><path d="m96.73 79.86h.08v1.18h-.08z" transform="matrix(.67751808 -.73550612 .73550612 .67751808 -27.97 97.12)"/><path d="m96.03 80.21.86.8-.05.06-.87-.8z"/><path d="m95.72 80.38.87.8-.06.06-.86-.8z"/><path d="m95.43 80.56.87.8-.06.05-.87-.8z"/></g><path d="m72.4 87.56.15-.06a49.08 49.08 0 0 1 -2.28-11c-.35-4.43-.23-10.91-.22-11h-.17c0 .07-.12 6.56.23 11a49 49 0 0 0 2.29 11.06z" opacity=".1"/><path d="m107.91 73.7a1.7 1.7 0 0 0 .73-1.2 5.62 5.62 0 0 0 -.33-1.92l-.16-.52.3.45c1 1.48 2.8 4.33 3.16 4.89a4 4 0 0 1 -1.42 2.6l-.1.08v-.12a19 19 0 0 0 -2.18-4.15v-.07z" fill="#86959e"/><path d="m108.8 72.52a4.31 4.31 0 0 0 -.19-1.48s0-.11 0-.29c.92 1.4 2.4 3.71 2.89 4.48 0 .12-.06.21 0 .23a3.94 3.94 0 0 1 -1.27 2.34 19.63 19.63 0 0 0 -2.13-4 1.85 1.85 0 0 0 .7-1.28z" fill="#e3e2e3"/><path d="m88.36 82 .07-.07v.07a5.08 5.08 0 0 0 2.14 1.46 4.27 4.27 0 0 0 1.52.14 11.81 11.81 0 0 0 2.12-.37 31.29 31.29 0 0 1 2.92 3.77l.05.08h-.08a13.27 13.27 0 0 1 -3.84 1 4.63 4.63 0 0 1 -.75 0 4 4 0 0 1 -2.71-1.71l-.21-.24c-.79-.82-1.74-2-1.78-2.71a2.18 2.18 0 0 1 .55-1.42z" fill="#86959e"/><path d="m88.42 82.14a5.17 5.17 0 0 0 2.15 1.43 4.15 4.15 0 0 0 1.58.15 11.33 11.33 0 0 0 2.1-.36 30.36 30.36 0 0 1 2.75 3.64 12.66 12.66 0 0 1 -3.7 1 4.26 4.26 0 0 1 -.72 0 3.87 3.87 0 0 1 -2.61-1.65c-.08-.1-.15-.19-.21-.25a5.55 5.55 0 0 1 -1.76-2.63 2 2 0 0 1 .42-1.33z" fill="#e3e2e3"/><path d="m88.68 84.25c0 .31.24.42.5.25a1.09 1.09 0 0 0 .43-.87c0-.31-.25-.42-.5-.25a1.06 1.06 0 0 0 -.43.87z" fill="#ef9042"/><path d="m90 85.88c0 .61.48.83 1 .49a2.08 2.08 0 0 0 .85-1.7c0-.61-.48-.82-1-.49a2.09 2.09 0 0 0 -.85 1.7z" fill="#fff"/><path d="m92.31 86.68c0 .82.64 1.11 1.32.66a2.82 2.82 0 0 0 1.15-2.34c0-.82-.65-1.11-1.33-.66a2.84 2.84 0 0 0 -1.14 2.34z" fill="#fff"/><path d="m108.93 75.18a2.49 2.49 0 0 1 .55-1c.42-.42.81-.13.86.66a3.47 3.47 0 0 1 -.53 2c-.26-.57-.58-1.15-.88-1.66z" fill="#fff"/><path d="m108.61 73.33a1.67 1.67 0 0 1 .37-.62c.33-.34.64-.1.68.53a2.76 2.76 0 0 1 0 .57z" fill="#fff"/><g mask="url(#ae)"><path d="m108.8 72.52a4.31 4.31 0 0 0 -.19-1.48s0-.11 0-.29c.92 1.4 2.4 3.71 2.89 4.48 0 .12-.06.21 0 .23a3.94 3.94 0 0 1 -1.27 2.34 19.63 19.63 0 0 0 -2.13-4 1.85 1.85 0 0 0 .7-1.28z" fill="url(#af)"/></g><g mask="url(#ah)"><path d="m88.42 82.14a5.17 5.17 0 0 0 2.15 1.43 4.15 4.15 0 0 0 1.58.15 11.33 11.33 0 0 0 2.1-.36 30.36 30.36 0 0 1 2.75 3.64 12.66 12.66 0 0 1 -3.7 1 4.26 4.26 0 0 1 -.72 0 3.87 3.87 0 0 1 -2.61-1.65c-.08-.1-.15-.19-.21-.25a5.55 5.55 0 0 1 -1.76-2.63 2 2 0 0 1 .42-1.33z" fill="url(#ai)"/></g><path d="m21.43 57.37-.52-1.27-.37-6.87.9 2.18.38 6.15z" fill="#bc202e"/><path d="m20.69 52 .4.4.21 3.36-.44-.52z" fill="#e3e2e3"/><path d="m103 79.57v.06a.58.58 0 0 0 -.24.49s0 .15 0 .28l.2.86.06.21c.11.21.48-.12.55-.29a2.21 2.21 0 0 0 .11-.54l.23-1.78.19-.14.69 1.36c.1.17.26.13.4 0l.35-.25v.06l-1.24.91v-.08a.43.43 0 0 0 .15-.5l-.49-1-.13 1.14c0 .31-.1.68.3.45v.19l-1.7 1.24v-.07a.53.53 0 0 0 .2-.67l-.22-1a1.07 1.07 0 0 0 -.06-.17c-.11-.24-.46.08-.54.27a2.1 2.1 0 0 0 -.11.53l-.23 1.79-.19.14-.69-1.36c-.09-.18-.26-.14-.4 0l-.27.2v-.07l1.17-.84v.01a.44.44 0 0 0 -.15.5l.49 1 .13-1.14c0-.31.1-.68-.3-.45v-.11z" fill="#ab0033" fill-rule="evenodd"/><path d="m101.67 83.34-.04.49-.15.11-.22-.3.1-.07.18.25.02-.4z" fill="#221f20"/><path d="m102 83.6-.11.07-.09-.39.11-.08zm-.1-.44-.11.08v-.09l.11-.07z" fill="#221f20"/><path d="m102.45 83.24-.27.19s0 0-.05 0 0 0 0 0v-.09a.06.06 0 0 1 0 0s0 0 0 0 0 0 .06 0l.12-.09v.1l-.11.08s0 0 0 0l.15-.11v-.15s0 0 0 0l-.21.15v-.1l.25-.18h.05s0 0 0 0a.07.07 0 0 1 0 0l.07.28z" fill="#221f20"/><path d="m102.77 82.66-.12.09.06.24-.1.08-.09-.39.1-.08a.11.11 0 0 1 .06-.09l.1-.08v.09z" fill="#221f20"/><path d="m103.26 82.47-.23.18v-.1l.14-.1s0 0-.06 0l-.08.06s0 0 0 0v.1a0 0 0 0 1 0 0s0 0 0 0l.21-.15v.09l-.25.18h-.06v-.17a.14.14 0 0 1 0-.11.22.22 0 0 1 .08-.09l.15-.1a.21.21 0 0 1 .09 0s0 0 0 0v.13z" fill="#221f20"/><path d="m103.79 82.26-.1.07v-.24a0 0 0 0 1 0 0l-.08.06a0 0 0 0 0 0 0v.24l-.1.08-.09-.39.1-.08a.21.21 0 0 1 .06-.1l.11-.07a.15.15 0 0 1 .08 0s0 0 0 0l.06.28z" fill="#221f20"/><path d="m104.09 82-.08.06a.21.21 0 0 1 -.09.05s0 0 0 0a.09.09 0 0 1 0 0l-.1-.41.1-.07v.13l.1-.08v.1l-.09.07v.15s0 0 0 0v.09z" fill="#221f20"/><path d="m104.69 81.61-.22.16h-.06a.08.08 0 0 1 0-.05v-.17s0 0 0-.06 0 0 0-.05a.05.05 0 0 1 0 0l.22-.16v.09l-.18.13v.06.09a0 0 0 0 1 0 0l.18-.12v.09z" fill="#221f20"/><path d="m105.14 81.15a.13.13 0 0 1 0 .06.09.09 0 0 1 0 .05h-.06l-.16.11-.08.05s0 0 0 0v-.17a.13.13 0 0 1 0-.06.09.09 0 0 1 0 0l.06-.05.1-.14h.05.06s0 0 0 0v.17zm-.11 0v-.1s0 0 0 0l-.08.06s0 0 0 0v.1s0 0 0 0l.08-.06a0 0 0 0 0 0 0z" fill="#221f20"/><path d="m105.87 80.75-.1.08-.06-.24a0 0 0 0 0 0 0s0 0 0 0a0 0 0 0 0 0 0l.06.25-.11.07-.06-.27s0 0 0 0a0 0 0 0 0 0 0v.24l-.1.07-.09-.39.1-.07a.17.17 0 0 1 .06-.1l.07-.05h.08s0 0 0 0a.1.1 0 0 1 0 0h.07.08a.05.05 0 0 1 .05 0s0 0 0 0l.07.28z" fill="#221f20"/><path d="m104.28 81.91-.1.07-.02-.09.09-.07z" fill="#221f20"/><path d="m307 173.32a14.45 14.45 0 1 0 14.44 14.44 14.45 14.45 0 0 0 -14.44-14.44zm1.07 26.68v-1a1.09 1.09 0 1 0 -2.18 0v1a12.28 12.28 0 0 1 -11.13-11.16h.94a1.09 1.09 0 1 0 0-2.18h-.93a12.28 12.28 0 0 1 11.12-11.09v.9a1.09 1.09 0 1 0 2.18 0v-.9a12.28 12.28 0 0 1 11.12 11.09h-.93a1.09 1.09 0 1 0 0 2.18h.94a12.28 12.28 0 0 1 -11.13 11.16z" fill="#fff"/><path d="m313.47 180.73-6.47 6.76a1 1 0 0 0 -.24 0l-5.4-4.09a.82.82 0 0 0 -1 1.31l5.4 4.08a1.23 1.23 0 0 0 2.45-.1s0-.07 0-.1l6.46-6.76a.82.82 0 1 0 -1.19-1.13z" fill="#fff"/></svg>