<svg xmlns="http://www.w3.org/2000/svg" viewBox="0 0 35.2 39.7">
  <g style="isolation: isolate">
    <g>
      <g>
        <g>
          <g>
            <polygon points="15.3 30.6 12.3 30.6 12.6 29 15 29 15.3 30.6" fill="#1e201c"/>
            <rect y="12.7" width="27.5" height="16.79" rx="0.4" fill="#1d201c"/>
            <rect x="1" y="13.8" width="25.5" height="14.41" fill="#545c59"/>
            <rect x="8.9" y="30.6" width="9.7" height="0.84" fill="#1e201c"/>
          </g>
          <polygon points="17.5 13.8 3.1 28.2 1 28.2 1 14.6 1.8 13.8 17.5 13.8" fill="#53756d" opacity="0.2" style="mix-blend-mode: screen"/>
          <polygon points="26.6 15.9 26.6 28.2 14.2 28.2 26.6 15.9" fill="#53756d" opacity="0.2" style="mix-blend-mode: screen"/>
        </g>
        <path d="M27.5,13.1H0a.4.4,0,0,1,.4-.4H27.2C27.4,12.7,27.5,12.9,27.5,13.1Z" fill="#53756d" opacity="0.5" style="mix-blend-mode: screen"/>
      </g>
      <g>
        <g>
          <rect x="5.1" y="23.8" width="15.9" height="13.94" fill="#fed692"/>
          <g>
            <g>
              <g>
                <polygon points="15.3 34.4 15.1 34.7 15.2 34.7 15.2 35.7 15.5 35.7 15.5 34.7 15.5 34.7 15.3 34.4" fill="#6e6a69"/>
                <polygon points="16 34.4 15.8 34.7 15.8 34.7 15.8 35.7 16.1 35.7 16.1 34.7 16.2 34.7 16 34.4" fill="#6e6a69"/>
              </g>
              <rect x="14.9" y="35.8" width="1.5" height="0.15" fill="#6e6a69"/>
            </g>
            <g>
              <path d="M17.4,36a.3.3,0,0,1-.3-.3h.1c0,.1,0,.2.2.2s.1,0,.1-.3V34.4h.1v1.2C17.6,35.9,17.6,36,17.4,36Z" fill="#6e6a69"/>
              <path d="M18.4,35h0c-.1-.1-.1-.2-.2-.2a.2.2,0,0,0-.2.2h-.2c-.1,0-.2,0-.2.1h-.2c-.1,0-.2,0-.2.1a.2.2,0,0,0-.2-.2h-.2a.8.8,0,0,1,.8-.6A.9.9,0,0,1,18.4,35Z" fill="#6e6a69"/>
            </g>
            <g>
              <path d="M19.3,34.7l-.3.4a2.2,2.2,0,0,1-.1-.8h.4l-.3.4Z" fill="#6e6a69"/>
              <path d="M20.1,34.3c0,.4-.2,1.1-.6,1.1a.5.5,0,0,1-.4-.2l.4-.6h-.3l.2-.3Z" fill="#6e6a69"/>
              <rect x="19.4" y="35.2" width="0.1" height="0.72" fill="#6e6a69"/>
              <rect x="19.2" y="35.8" width="0.5" height="0.15" fill="#6e6a69"/>
            </g>
          </g>
          <rect x="12" y="23.8" width="2" height="13.94" fill="#fae8ad" style="mix-blend-mode: multiply"/>
        </g>
        <rect x="3.4" y="23.8" width="1.7" height="13.93" fill="#e3b363"/>
      </g>
      <g>
        <path d="M18,23.1a3,3,0,0,0-.8-.8,2.4,2.4,0,0,0-.9-.6l-.6-.2H13.8l-.6-.4h.6l1.1.2.8.2.8.2a1.9,1.9,0,0,1,.8.3l.7.3.3.2-.2-.2-.6-.5-.8-.4-.9-.4H13.2l.3-.5h0l.9-.4.8-.2h1.6l.6.3h.3s-.1,0-.2-.2l-.6-.4h-.8a1.7,1.7,0,0,0-1,0,1.6,1.6,0,0,0-.9.3l-.3.2.5-.6.5-.5a1.6,1.6,0,0,1,.8-.6l.6-.4h.1l-.8.2-.8.5a2.7,2.7,0,0,0-.8.7l-.6.8-.3.5-.3.4h0a2.4,2.4,0,0,1,.2-.8,4.4,4.4,0,0,1,.8-1.1,9.4,9.4,0,0,1,1-1l.6-.4.7-.3h.7l.7.3.6.3.5.3.4.3-.4-.4-.5-.4-.6-.4-.4-.2H15.8l-.7.3-.4.3h-1c0-.1,0-.1.1-.2l.6-.7.7-.6.7-.4h0l-.9.3-.9.5-.6.7a.1.1,0,0,1-.1.1l.3-.6a9.3,9.3,0,0,1,.5-1l.4-.5.4-.3.5-.3H15l-.6.3-.5.5a4.1,4.1,0,0,0-.7,1.1c.1-.5.3-.9.4-1.3a8.3,8.3,0,0,1,.7-1.3,1.5,1.5,0,0,1,.5-.6,1.2,1.2,0,0,1,.5-.5,1.1,1.1,0,0,1,.7-.3h-.2l-.7.2-.7.6-.5.6c.1-.4.3-.8.4-1.2l.8-1.6.6-.9.6-.7a1.7,1.7,0,0,1,.6-.6l.6-.5.5-.2h-.2l-.4.2-.7.4-.7.6-.7.8-.6.8-.8,1.6a15.5,15.5,0,0,0-.4,1.5l-.3,1.2-.2.6c.1-1.9,0-4.8,0-4.8s-.3,3-.4,4.7h0c-.1-.4-.1-.8-.2-1.3a5.9,5.9,0,0,0-.2-1.3l-.6-1.3-.9-1.2-.5-.4-.5-.3H9.3a.6.6,0,0,1,.4.2l.5.4.4.5a7.5,7.5,0,0,1,.7,1.2l.4,1.2a6.6,6.6,0,0,1,.4,1.1l.3,1.2c0,.5.1.9.1,1.1v.9a2.9,2.9,0,0,0-.2-.9l-.4-1.3-.5-1-.7-.8-.9-.8-.5-.3H8.8l.8.5a6,6,0,0,1,.8.8h.1l-.3,1.1-.3,1.4c-.1.5-.1,1-.2,1.4v1.5a8.6,8.6,0,0,0,.1,1.6v-.2c-.1-.4-.3-.7-.4-1.1l-.5-.8-.6-.7-.4-.3-.5-.2H6.5c.2.1.5.1.7.3l.8.5a3.5,3.5,0,0,1,.5.8l.6.8.3.7c0-.2-.2-.3-.3-.5l-.5-.6a1.8,1.8,0,0,0-.7-.5l-.8-.4-.8-.2h0l.6.2.7.5.7.6.6.6.6.8.4.7a.1.1,0,0,1,.1.1h0l-.2-.4-.7-.9a4.3,4.3,0,0,0-1-.9l-.5-.4-.5-.2L6,18.9H4.8l-.9.5-.3.2h.3a1.9,1.9,0,0,1,.8-.3H5.9a2.3,2.3,0,0,1,1.1.3l1,.6A3.9,3.9,0,0,1,9,21l.8.7.2.3h0c0-.1-.1-.2-.2-.3L9,21.3,8.5,21H8.2l-.4-.2-.9-.4-1-.2H4.7l1,.2,1,.3h.2l-.9.2-.9.5-.7.6-.3.2.3-.2.7-.3a2.5,2.5,0,0,1,.9-.4l.9-.2H8.2l.7.3,1.1.5H7.9l-.8.2-.7.3a2.3,2.3,0,0,0-.7.7,2.1,2.1,0,0,0-.4.6.5.5,0,0,0-.1.3l.2-.3.4-.4a1.8,1.8,0,0,1,.7-.5l.8-.3.8-.3.9-.2h.7l-.9.3-.9.5a2.2,2.2,0,0,0-.7.6l-.6.7a3.2,3.2,0,0,0-.3.9,3.1,3.1,0,0,0-.2.8v0a3.3,3.3,0,0,0,.3-.6,2.2,2.2,0,0,1,.5-.8l.6-.7.7-.7a1,1,0,0,0,.5-.4l-.2.3-.5.6a1.4,1.4,0,0,1-.2.6,2.2,2.2,0,0,0-.1.8c-.1.5,0,.9-.1.9s.1-.4.2-.8l.3-.7.3-.6.4-.6.5-.6.5-.4.2-.2h.1l-.4,1.1c-.1.3-.1.6-.2.9s-.1.6-.2.8v.8a2.8,2.8,0,0,0,.1.9,1.7,1.7,0,0,0,.1.7.4.4,0,0,0,.1.3v-.3a.8.8,0,0,1,0-.7,2.5,2.5,0,0,1,.1-.8,1.9,1.9,0,0,1,.1-.8c0-.3.1-.6.1-.9v-1c0-.4.1-.7.1-.9s.6,4.4,2,5.6S12,30.3,12,31a17.3,17.3,0,0,1-.2,2.8H8.9v1.5H9v3.6h6.2V35.3h.1V33.8H12.6s-.2-1.8-.2-2.8h0a5,5,0,0,0,1.2-3.8c-.2-1.8-.6-3.9-.8-4.9l.2.2a1.4,1.4,0,0,1,.2.6l.3.5.2.5.3.5c.1.2.2.3.2.5v.2a3.2,3.2,0,0,0-.1-.7,1.3,1.3,0,0,0-.1-.6c-.1-.2-.1-.4-.2-.6l-.4-.5a2.1,2.1,0,0,0-.4-.6c-.1-.1-.2-.2-.2-.3h0l.9-.2.4.3h.1l-.3-.3h1.2a2.4,2.4,0,0,1,.9.3l.8.4.9.6.6.7a.7.7,0,0,1,.3.3l-.2-.3ZM11.5,18l.3.6-.8.9a3.8,3.8,0,0,0-.6,1.3l-.3,1V22h0v-.3c.1-.2.1-.5.2-.8l.3-.8a2.5,2.5,0,0,0,.2-.7l.3-.6a1.6,1.6,0,0,1,.4-.7Zm1.1,2.5v0Zm0-1.3a1.5,1.5,0,0,1-.1.7,1.7,1.7,0,0,0-.1-.7c0-.2-.1-.3-.1-.5l.3-.2Zm-.5.2.3.7a2.3,2.3,0,0,1,.1.7h-1L11,21l-.3.3-.5.6c0,.1-.1.1-.1.2s.1-.2.1-.3l.5-1.1a6.1,6.1,0,0,1,.7-1l.5-.6Zm-2,2.7.2-.2.6-.4a.5.5,0,0,1,.4-.2h1c.1,0,.2,0,.2.1s-.1,1.7-.2,2.8a2.5,2.5,0,0,0-.4-.7,3,3,0,0,0-.8-.8l-.7-.4Zm2.7-1.2Zm1.1-3.2.6-.2a3.6,3.6,0,0,0-.8.9l-.5.6-.3.7c-.1.2-.1.4-.2.6a3.1,3.1,0,0,0,.1-1c0-.1.1-.2.1-.4l.4-.8h.1Zm-3.8,1.2V17.6a4.1,4.1,0,0,0,.1-1.2c0-.5.1-.9.1-1.4a7.4,7.4,0,0,0,.2-1.2l.5.7.6,1.1a6.1,6.1,0,0,1,.5,1.2,6.9,6.9,0,0,1,.4,1v.3a.5.5,0,0,0-.4.3l-.3-.6h.1l.3-.2h-.6l-.4-.4h-.1l.3.4a.4.4,0,0,0,.1.3h-.1l-.6.6a4.3,4.3,0,0,1-.4.7,2.9,2.9,0,0,0-.2.9,2.8,2.8,0,0,0-.1.9v.6a3.7,3.7,0,0,1-.1-1.1A8.6,8.6,0,0,1,10.1,18.9Zm0,3.2Zm0,0,.3.2.7.6a2.2,2.2,0,0,1,.5.8l.4.7a1.9,1.9,0,0,1,.2.8,14.8,14.8,0,0,1-.1,2.1C10.8,26.2,10.2,22.6,10.1,22.1Zm2.8,7.6-.5.7c0-.9.1-2.3.2-3.8v.5a.3.3,0,0,1,.1-.2v-.7a3.8,3.8,0,0,0-.1-1c0-.8.1-1.5.1-2.2.2,1,.4,2.6.6,4.1A5.9,5.9,0,0,1,12.9,29.7Zm0-7.8h-.1c0-.1,0-.2-.1-.2a.4.4,0,0,0,.1-.3H13l.5.2Z" fill="#aca9a8" opacity="0.5" style="mix-blend-mode: multiply"/>
        <g>
          <g>
            <path d="M12.4,20.5s-.6,8.1-.6,10.5a17.3,17.3,0,0,1-.2,2.8h.8s-.2-1.8-.2-2.8.3-7.8.4-10.4Z" fill="#855618"/>
            <path d="M12.5,21.4s-.2-3.6-.2-5.1.5-5.3.5-5.3.1,3.4,0,5.3S12.5,21.4,12.5,21.4Z" fill="#558630"/>
            <path d="M18.5,24l-.3-.2a1.9,1.9,0,0,0-.6-.7l-.9-.6-.8-.4a2.4,2.4,0,0,0-.9-.3H13.8l-1.1.2-.4.2.4-.2a1.9,1.9,0,0,1,.9-.4,2.8,2.8,0,0,1,1.3-.1h.6l.6.2.9.6a3,3,0,0,1,.8.8l.5.7Z" fill="#35652b"/>
            <path d="M16.5,17.6h-.4l-.6.4-.8.5-.5.6-.6.7-.6.9-.5.7a1.1,1.1,0,0,1-.2.4.4.4,0,0,0,.1-.3,9.4,9.4,0,0,0,.3-.9,4.1,4.1,0,0,1,.5-.9,7,7,0,0,1,.6-.9l.8-.6.9-.5.7-.2Z" fill="#35652b"/>
            <path d="M3.4,20.2H5.8l.9.2.9.4,1.1.5.9.6.3.2-1.2-.5-1.1-.4-1.1-.4-.9-.3-1.1-.2H3.4Z" fill="#63912f"/>
            <path d="M5,24.1a.3.3,0,0,1,.1-.2,2.1,2.1,0,0,1,.4-.6,4.6,4.6,0,0,1,.7-.7l.7-.3.8-.2H8.8l-.9.2-.8.3c-.3,0-.5.2-.8.3a1.8,1.8,0,0,0-.7.5l-.4.4C5.1,24.1,5,24.1,5,24.1Z" fill="#63912f"/>
            <path d="M5.9,26.3V26a3.1,3.1,0,0,1,.2-.8,3.2,3.2,0,0,1,.3-.9l.6-.7a2.2,2.2,0,0,1,.7-.6l.9-.5.9-.3h.1l-.8.4-.8.6-.7.7-.6.7a2.2,2.2,0,0,0-.5.8l-.3.6Z" fill="#366f2e"/>
            <path d="M9.4,27.5v-.2c0-.2-.1-.5-.1-.7a2.8,2.8,0,0,1-.1-.9,1.9,1.9,0,0,1,.1-.8,2.5,2.5,0,0,1,.1-.8,2.9,2.9,0,0,0,.2-.9c.2-.7.4-1.2.4-1.2a6.3,6.3,0,0,0-.1,1.1v1c0,.3-.1.6-.1.9a1.9,1.9,0,0,0-.1.8,2.5,2.5,0,0,0-.1.8v.9Z" fill="#366f2e"/>
            <path d="M3.4,19.8l.3-.2.9-.5H5.8a1.8,1.8,0,0,1,1.1.3l.5.2.5.4a4.3,4.3,0,0,1,1,.9l.7.9.3.4-.3-.3a2.9,2.9,0,0,0-.8-.7l-1-.9-1-.5a2.3,2.3,0,0,0-1.1-.3.6.6,0,0,0-.6,0H4.5l-.8.4Z" fill="#366f2e"/>
            <path d="M5.8,18.2h.3l.8.2.8.4.7.4.6.7a4.1,4.1,0,0,0,.5.9l.3.8a1,1,0,0,1,.1.4l-.2-.3L9.3,21l-.6-.8-.6-.6L7.4,19l-.7-.5-.6-.2Z" fill="#63912f"/>
            <path d="M10.4,13.4a10.8,10.8,0,0,0-.3,1.6,6.6,6.6,0,0,1-.1,1.4v1.2a5.3,5.3,0,0,0-.1,1.3,8.6,8.6,0,0,0-.1,1.6c0,.5.1,1,.1,1.3v.6a1.8,1.8,0,0,0-.1-.5,7.4,7.4,0,0,0-.2-1.2,8.6,8.6,0,0,1-.1-1.6V17.6c.1-.4.1-.9.2-1.4l.3-1.4C10.2,14,10.4,13.4,10.4,13.4Z" fill="#35652b"/>
            <path d="M12,17.5h-.3l-.4.5a1.6,1.6,0,0,0-.4.7l-.3.6a2.5,2.5,0,0,1-.2.7l-.3.8a2.5,2.5,0,0,0-.1.8.5.5,0,0,0-.1.3,2.9,2.9,0,0,1,0-1,2.8,2.8,0,0,1,.1-.9c.1-.3.1-.6.2-.9l.4-.7.6-.6.5-.3Z" fill="#63912f"/>
            <path d="M15,17.3h-.4l-.9.3-1,.6-.8.6-.7.7-.7,1.1-.5,1a1.8,1.8,0,0,0-.1.5v-.4l.3-1.1a3.4,3.4,0,0,1,.6-1.2,2.4,2.4,0,0,1,.8-.9l1-.7,1.2-.4H15Z" fill="#35652b"/>
            <path d="M14.3,22.1H14l-.5-.3a1.1,1.1,0,0,0-.7-.3l-.7-.2H10.7l-.6.5-.2.2a.3.3,0,0,1,.1-.2l.5-.6.4-.3.4-.2h.5c.1-.1.3,0,.4,0a1.3,1.3,0,0,1,.8.3l.7.4.4.5Z" fill="#63912f"/>
            <path d="M12.4,27.1a5.8,5.8,0,0,0-.1-1,2.9,2.9,0,0,1-.2-.9l-.3-.8-.4-.7a4.1,4.1,0,0,0-.5-.9l-.7-.5-.3-.2h.3l.7.4.8.8a4.1,4.1,0,0,1,.5.9,2.9,2.9,0,0,1,.2.9,3.1,3.1,0,0,1,.1.9v.8A.3.3,0,0,0,12.4,27.1Z" fill="#63912f"/>
            <path d="M6.1,17.3h.3l.8.2.5.2.4.3.6.7.5.8c.1.3.3.7.4,1.1s.1.6.2.9v.4a6.7,6.7,0,0,0-.4-1.2l-.5-.9a4.1,4.1,0,0,1-.5-.9l-.6-.7L7,17.6a1.1,1.1,0,0,0-.6-.3Z" fill="#63912f"/>
            <path d="M12.7,17.8a14.2,14.2,0,0,1,.2-2.1,10.5,10.5,0,0,1,.4-1.7,15.5,15.5,0,0,1,.4-1.5l.8-1.6.6-.8.7-.8.7-.6.7-.4.5-.2h.1l-.5.2-.6.4-.6.6-.6.8-.6.9c-.3.5-.5,1.1-.8,1.6l-.6,1.7c-.1.5-.3,1.1-.4,1.7a3.9,3.9,0,0,0-.3,1.3A1.8,1.8,0,0,0,12.7,17.8Z" fill="#63912f"/>
            <path d="M12.4,17l-.2-1.5-.3-1.3a10.4,10.4,0,0,0-.4-1,4.1,4.1,0,0,0-.4-1.2,7.5,7.5,0,0,0-.7-1.2l-.4-.5-.5-.4a.6.6,0,0,0-.4-.2h.4l.5.3.5.4a9.4,9.4,0,0,1,.9,1.2A13.9,13.9,0,0,1,12,13a5.9,5.9,0,0,1,.2,1.3,6.9,6.9,0,0,1,.2,1.3Z" fill="#63912f"/>
            <path d="M12.4,19.5s0-.8.1-1.7a7.7,7.7,0,0,1,.2-1.5l.3-1.2.7-1.3.5-.6c.2-.3.5-.4.7-.6l.7-.3h.2l-.7.3a1,1,0,0,0-.5.4l-.5.7a8.3,8.3,0,0,0-.7,1.3c-.1.4-.3.9-.4,1.4L12.7,18a5.2,5.2,0,0,0-.2,1.1A1,1,0,0,0,12.4,19.5Z" fill="#56812e"/>
            <path d="M12.5,21.4v-.2a.2.2,0,0,1,0-.3v-.6c.1-.2.1-.4.2-.6L13,19l.5-.6a3.8,3.8,0,0,1,.9-.9l.5-.4.7-.3h1.3l.4.2.6.4.5.4.4.4-.4-.3-.5-.3-.6-.3-.7-.3h-.7l-.7.3-.5.4-1.1.9-.8,1.2a6.2,6.2,0,0,1-.3,1Z" fill="#63912f"/>
            <path d="M12.4,19.9a1,1,0,0,1,.1-.4,2,2,0,0,1,.1-.7,2.9,2.9,0,0,1,.2-.9l.4-.7.6-.7,1-.5.8-.3h0l-.7.4-.7.6-.6.7-.5.7-.4.8a6.4,6.4,0,0,1-.2.7A.4.4,0,0,1,12.4,19.9Z" fill="#63912f"/>
            <path d="M17.5,20.1h-.3a1.1,1.1,0,0,0-.6-.3H15l-.7.2a2.5,2.5,0,0,0-.9.4,4,4,0,0,0-.9.7h0c0-.2.4-.6.7-.8l.8-.5a1.6,1.6,0,0,1,.9-.3h1.4l.4.2.6.4C17.4,20.1,17.5,20.1,17.5,20.1Z" fill="#63912f"/>
            <path d="M18.1,22.5l-.3-.2-.7-.3a1.1,1.1,0,0,0-.8-.3l-.8-.2-.8-.3h.9l.9.4.8.4.6.5Z" fill="#63912f"/>
            <path d="M8.3,12.2h.8l.5.3a3.4,3.4,0,0,1,.9.8l.7.8.5,1c.1.4.3.8.4,1.3a6.2,6.2,0,0,0,.3,1,1.2,1.2,0,0,0,.1.5,8.1,8.1,0,0,0-.6-1.3,6.1,6.1,0,0,0-.5-1.2l-.6-1.1-.6-.9-.8-.8-.8-.5Z" fill="#366f2e"/>
            <path d="M14.1,25.1v-.2l-.3-.4a.8.8,0,0,0-.2-.5l-.3-.5c-.1-.1-.1-.3-.2-.5l-.3-.6-.4-.7.5.5.5.6.3.5c.1.2.1.4.2.6s.1.4.2.6Z" fill="#63912f"/>
            <path d="M11.9,27.8c-1.5-1.3-2-5.5-2-5.7h0s.6,4,2,5.2Z" fill="#855618"/>
            <path d="M12.2,30.9v-.4h0a3.7,3.7,0,0,0,.6-.9,5.1,5.1,0,0,0,.4-2.5,44.8,44.8,0,0,0-.8-5.1l.3-.3c-.1-.3.6,3,.8,5.4A5,5,0,0,1,12.2,30.9Z" fill="#855618"/>
            <path d="M7.5,26a2.3,2.3,0,0,1,0-.9,2.2,2.2,0,0,1,.1-.8l.3-.6c0-.2.2-.4.4-.6l.6-.6.7-.3h0l-.5.5-.5.6-.4.6-.3.6a1.9,1.9,0,0,0-.2.7A2,2,0,0,0,7.5,26Z" fill="#558630"/>
            <path d="M3.9,22.4l.3-.2.7-.6.9-.5.9-.2H8.3l.5.3c.4.1.6.4.8.5l.3.3-.3-.2-.8-.4-1-.2H6.7l-.9.2-.9.4-.7.3Z" fill="#56812e"/>
            <path d="M16.1,14.5h-.9l-.5.3-.4.3-.4.5a4.7,4.7,0,0,0-.5,1,5.1,5.1,0,0,0-.4,1c-.1.5-.3,1-.4,1.4s-.1.9-.2,1.2v.5a7,7,0,0,1,0-1.6,7.8,7.8,0,0,1,.2-1.4,5,5,0,0,1,.4-1.3,4.1,4.1,0,0,1,.7-1.1l.5-.5.6-.3h1.3Z" fill="#35652b"/>
            <path d="M10.8,17.1H11l.4.4a2.7,2.7,0,0,1,.6,1,1.4,1.4,0,0,1,.2.6c.1.2.1.5.2.7v1l-.2-.8-.3-.7-.3-.6a5.6,5.6,0,0,0-.4-1.2l-.3-.4Z" fill="#558630"/>
          </g>
          <g>
            <rect x="8.8" y="33.8" width="6.2" height="5.07" fill="#274d79"/>
            <rect x="8.8" y="33.8" width="6.3" height="1.51" fill="#223a5a"/>
          </g>
        </g>
      </g>
      <g>
        <g>
          <g>
            <path d="M19,31.3c-.2.2,0,.8,0,.8a16.4,16.4,0,0,0,5.1-.7c-.2-.3-.2-.6-.4-.8A12.3,12.3,0,0,1,19,31.3Z" fill="#462215"/>
            <path d="M21.4,28.3c.1.8.1,1.3-.2,1.5s-1.8,0-2,.9a1.4,1.4,0,0,0,0,.9,15,15,0,0,0,4.4-.8c0-.9-.6-1.5-.4-2.6Z" fill="#7c4c41"/>
            <path d="M20.4,30.3h-.1c-.1.1-.2,0-.2-.1a.1.1,0,0,1,.1-.1C20.3,30.2,20.4,30.2,20.4,30.3Z" fill="#462215"/>
            <path d="M21,30.2c0,.1,0,.1-.1.1s-.1,0-.1-.1,0-.1.1-.1Z" fill="#462215"/>
            <path d="M21.7,29.8c0,.1,0,.2-.1.2s-.2,0-.2-.1l.2-.2Z" fill="#462215"/>
            <path d="M21.8,29.2a.3.3,0,0,1-.1.2h-.2a.3.3,0,0,1,.1-.2Z" fill="#462215"/>
          </g>
          <path d="M28.8,36.2h-.2v.7a5.9,5.9,0,0,0,3.4.2l-.2-.8A10.7,10.7,0,0,1,28.8,36.2Z" fill="#462215"/>
          <path d="M19.4,20.2c-1.4-.1-1.8-3.6.7-5.1a9.5,9.5,0,0,0,2.6-2.2l1.4,3.4Z" fill="#df281c"/>
          <path d="M21.7,15.9c-.2-3,3.7-6.1,4.5-6.1a8.6,8.6,0,0,1-2.6,5.9Z" fill="#df281c"/>
          <path d="M26,9.9c-2.9,2.9-1.2,5.3-1.2,5.3,1.6,0,4.4,2.2,5.3,1.9s2.4-2.7,1.9-5.2c0-.4.2-1.1-.1-1.4a4.4,4.4,0,0,0-2.5-1.4A6.1,6.1,0,0,0,26,9.9Z" fill="#df281c"/>
          <path d="M24.6,13.8c-1.8,1.5-3.2,3.8-1.4,7.2s8.4-.3,8.4-.3a23.7,23.7,0,0,1,.4-6.8L31.4,15a11.1,11.1,0,0,1-1.8-3.9,34.3,34.3,0,0,0-4.1-.3C24.9,12.2,23.9,12.8,24.6,13.8Z" fill="#5e82ae"/>
          <path d="M23.8,20.8c-.2.6-2.7,1.9-2.8,2.6s0,5.1,0,5.1h2.4s0-.9-.1-3.1c0-.4,4.3-1.6,4.3-1.6l1.5,10h2s.9-11.2.5-12.9S24.7,19.1,23.8,20.8Z" fill="#5e82ae"/>
          <path d="M24.4,14.6l3.9.8-1.4,2.9-2.2.3-1-1.1A4.1,4.1,0,0,1,24.4,14.6Z" fill="#47698f"/>
          <path d="M30.7,6a28.8,28.8,0,0,0,0,3c.2.9-3.5,1.3-3.4-.2s.3-2.7.3-2.7Z" fill="#f9bb7f"/>
          <path d="M30.7,6c-.2,3.8-3.2,3.3-3.4,3s.3-2.9.3-2.9S30.8,5.7,30.7,6Z" fill="#e29269"/>
          <path d="M25.2,11.3a2.2,2.2,0,0,1,.7-1.6l.7-.2a4.9,4.9,0,0,0-.5,1.7Z" fill="#47698f"/>
          <path d="M28.9,11.4a3.1,3.1,0,0,1,2.2-1.7l.6.3a5.8,5.8,0,0,0-2,1.9Z" fill="#47698f"/>
          <polygon points="26.7 9.4 27.4 8.7 27.9 9.4 27.2 10.4 26.7 9.4" fill="#c32418"/>
          <path d="M31,9.6a3,3,0,0,0-.3-1.3,5.1,5.1,0,0,1-3,1.1l.7,1Z" fill="#c32418"/>
          <path d="M30.1,12.2A17.5,17.5,0,0,0,32,16.7l-5.4-.3-.5,2.3c7.6,2.3,9-.7,9-.7.2-1.6-1-6.9-3.5-7.9A6.6,6.6,0,0,0,30.1,12.2Z" fill="#df281c"/>
          <path d="M23.3,16.7c.1,2.6,2.8,1.9,2.8,1.9a2.7,2.7,0,0,0,.5-2.2c-.5-.4-1.8-.9-2.3-.3S23.3,16.7,23.3,16.7Z" fill="#f9bb7f"/>
          <path d="M29.4,33.5c.1,1.4-.6,2-.7,2.9a4.3,4.3,0,0,0,2.8-.1,3.7,3.7,0,0,0-.2-1.2,4.7,4.7,0,0,1-.4-1.6v-.2Z" fill="#7c4c41"/>
          <polygon points="31.4 34 28.9 33.9 28.8 33.1 31.4 33 31.4 34" fill="#47698f"/>
          <polygon points="20.7 29 23.7 28.8 23.6 27.9 20.8 28 20.7 29" fill="#47698f"/>
          <path d="M29.6,34.8c0,.1,0,.1-.1.1s-.2,0-.2-.1h.3Z" fill="#462215"/>
          <path d="M29.7,34.2h-.2c-.1-.1,0-.1.1-.1S29.7,34.1,29.7,34.2Z" fill="#462215"/>
          <path d="M30.7,34.8a.1.1,0,0,0,.1.1c.1.1.2,0,.2-.1h-.3Z" fill="#462215"/>
          <path d="M30.7,34.2H31a.1.1,0,0,0-.1-.1C30.8,34,30.7,34.1,30.7,34.2Z" fill="#462215"/>
          <path d="M25,22.1l-4.2.2c-.2,0-.4-.1-.4-.3l-1.7-6.2a.3.3,0,0,1,.2-.4l4.3-.2c.2,0,.4.1.4.3l1.7,6.3A.3.3,0,0,1,25,22.1Z" fill="#332e2b"/>
          <path d="M25.3,21.8l-1.7-6.3c0-.2-.2-.3-.4-.3l-4.3.2a.3.3,0,0,0-.2.4V16l4.1-.2c.1,0,.3.2.4.4l1.6,5.9H25A.3.3,0,0,0,25.3,21.8Z" fill="#4c4744"/>
          <g>
            <path d="M25.4,5.2a4.3,4.3,0,0,1,.2,1.1c.1,1.1.3,3,2.7,2.7s2.2-1.7,2.5-3-.9-5.7-4-4.1C25.3,2.6,24.7,3.6,25.4,5.2Z" fill="#f9bb7f"/>
            <path d="M26.7,7.8l1.7-.4A.9.9,0,0,1,26.7,7.8Z" fill="#c2171d"/>
            <path d="M28.3,7.8a1,1,0,0,1-.8.5A.8.8,0,0,1,28.3,7.8Z" fill="#e0091c"/>
            <path d="M28.4,7.4a.4.4,0,0,1-.1.3L26.9,8l-.2-.2Z" fill="#fff"/>
            <path d="M26.3,6.2,25.8,6V5.6a.5.5,0,0,1,.3-.4.5.5,0,0,1,.4.2v.4A.5.5,0,0,1,26.3,6.2Z" fill="#462215"/>
            <path d="M28.1,5.9l-.5-.2V5.3a.5.5,0,0,1,.3-.4l.4.2v.4C28.4,5.7,28.2,5.8,28.1,5.9Z" fill="#462215"/>
            <path d="M26.5,6.8a.4.4,0,0,1,.3-.6.5.5,0,0,1,.6.4c.1.2-.1.5-.3.6A.5.5,0,0,1,26.5,6.8Z" fill="#e29269"/>
            <path d="M26.5,6.5a.5.5,0,0,1,.4-.7.6.6,0,0,1,.3,1.1C26.9,7,26.5,6.9,26.5,6.5Z" fill="#f9bb7f"/>
            <path d="M28.7,3.7l.4,2,.9-.4.7.7a4.4,4.4,0,0,0-.8-4C29.4,1.3,27.8,2.5,28.7,3.7Z" fill="#462215"/>
            <path d="M29.5,4.8c.5-1,1.7.1.8,1.6S29.1,5.5,29.5,4.8Z" fill="#f9bb7f"/>
            <path d="M29.7,5.5c0-.6.4-.8.6-.6S29.7,5.5,29.7,5.5Z" fill="#e29269"/>
            <path d="M30.2,5.4l.2.2C30.2,5.7,30.1,5.7,30.2,5.4Z" fill="#e29269"/>
            <path d="M27.4,8.5c.1.1.5,0,.7-.2S27.6,8.6,27.4,8.5Z" fill="#e29269"/>
            <path d="M30.1,1.4a3,3,0,0,1,2.5.7c0,.3-2,1-2,1a8.8,8.8,0,0,1-2.7-.7A11.2,11.2,0,0,1,30.1,1.4Z" fill="#5e82ae"/>
            <path d="M25.6,4.4,25.4,4a7.3,7.3,0,0,0,1.8-.4c.2,0,.3.4.1.5A5.2,5.2,0,0,1,25.6,4.4Z" fill="#c2171d"/>
            <path d="M30.1.9A11.1,11.1,0,0,0,27.2.1a5.7,5.7,0,0,0-1.8,1.1c-1.4,1-.9,1.8-.3,3.3h.6c-.3-.8-.5-1.5.2-1.6s1.3.4,1.4,1.3l1.4-.4,1.9-.6A15.6,15.6,0,0,0,30.1.9Z" fill="#df281c"/>
            <path d="M26.4,2.8l-.8-.5a.5.5,0,0,0,.1.3l-.9-.3c0,1.1.4,1.9,2.2,1A1,1,0,0,0,26.4,2.8Z" fill="#462215"/>
            <path d="M27.5.1h-.4c-.2.1-.4.2-.3.3S27.5.2,27.5.1Z" fill="#5e82ae"/>
            <path d="M28.2,5.2h-.1c-.1.1-.2,0-.2-.1a.1.1,0,0,1,.1-.1C28.1,5,28.1,5.1,28.2,5.2Z" fill="#fff"/>
            <path d="M26.3,5.4c0,.1,0,.2-.1.2H26c0-.1.1-.1.1-.2Z" fill="#fff"/>
          </g>
          <path d="M22.5,19.6c-1,1.7-3.2.5-3.2.5a1.2,1.2,0,0,1,.1-2.1l1.4-.3c.1-.1.2,0,.1.1s-.5.5-.8.7-.1.1,0,.2l2.2.5C22.5,19.3,22.6,19.5,22.5,19.6Z" fill="#f9bb7f"/>
          <path d="M24.2,16.2l.9-1.6c.1-.2.5,0,.4.2l-.9,1.6C24.5,16.6,24.1,16.3,24.2,16.2Z" fill="#462215"/>
          <path d="M25.1,14.6c-.2.2.2.4.4.2S25.2,14.4,25.1,14.6Z" fill="#6e200f"/>
          <path d="M25.2,14.6c-.1.1.1.2.1.1S25.2,14.6,25.2,14.6Z" fill="#462215"/>
        </g>
        <g>
          <g>
            <path d="M17.6,36.6a3.8,3.8,0,0,0,4.5,3,3.7,3.7,0,0,0,1.8-.8,3.9,3.9,0,0,0,1.2-3.7,3.8,3.8,0,0,0-4.5-3,3.6,3.6,0,0,0-2.7,2.1A3.3,3.3,0,0,0,17.6,36.6Z" fill="#fff"/>
            <path d="M24.7,35.5l.3-.7-.8-1.4-.7-.2L22,32.6h0l-.6-.5-1.5.3-.4.6-1.1,1.2h0l-.7.4v1.6l.5.5.8,1.4h0l.2.8,1.4.7.7-.4,1.5-.3h.8l1.1-1.2v-.7l.2-1.6Zm-2.8-2.9,1.6.7.2,1.2-1.2.7-1.4-.6-.2-1.5Zm-2.3.5h1.2l.3,1.4-1,1.1-1.5-.2-.2-1.2Zm-1.5,3.6.5-1.1H20l.7,1.4-.6,1.2H19Zm4.7,2.1-1.7.4-.9-.8.6-1.3,1.5-.3,1,1Zm1.6-1.7-1,.6-1.1-1,.2-1.5,1.3-.6.8.8Z" fill="#1e201c"/>
            <path d="M20.5,34.6A1.8,1.8,0,0,0,22.6,36l.8-.4a1.8,1.8,0,0,0,.6-1.7,1.8,1.8,0,0,0-2.1-1.4,1.9,1.9,0,0,0-1.3,1A2,2,0,0,0,20.5,34.6Z" fill="#fff" opacity="0.5" style="mix-blend-mode: screen"/>
          </g>
          <path d="M17.6,36.6a3.8,3.8,0,0,0,4.5,3,3.7,3.7,0,0,0,1.8-.8,3.7,3.7,0,0,0-.1-1.1,4.7,4.7,0,0,0-5.5-3.6h-.4A3.3,3.3,0,0,0,17.6,36.6Z" fill="#f1eacf" style="mix-blend-mode: multiply"/>
        </g>
      </g>
    </g>
  </g>
</svg>
