<svg xmlns="http://www.w3.org/2000/svg" viewBox="0 0 120 97.8">
  <g>
    <path d="M120,88.3c0,1.2-23.6,2.2-52.8,2.2s-52.7-1-52.7-2.2S38.1,86,67.2,86,120,87,120,88.3" fill="#d9d9d9"/>
    <rect x="42.2" y="61.2" width="39.5" height="26.78" fill="#dc6e34"/>
    <rect x="74" y="61.2" width="2.4" height="4.72" fill="#fff"/>
    <rect x="29.1" y="61.2" width="39.5" height="26.78" fill="#faa75e"/>
    <rect x="48.1" y="61.2" width="2.4" height="4.72" fill="#fff"/>
    <path d="M65.5,81.6h-4a.4.4,0,0,0-.4.4v.2c0,.2.2.3.4.3h4a.3.3,0,0,0,.3-.3V82c0-.2-.1-.4-.3-.4" fill="#dc6e34"/>
    <path d="M65.5,83.2h-4c-.2,0-.4.1-.4.3v.2c0,.2.2.3.4.3h4a.3.3,0,0,0,.3-.3v-.2a.3.3,0,0,0-.3-.3" fill="#dc6e34"/>
    <path d="M65.5,84.7h-4c-.2,0-.4.1-.4.3v.2a.4.4,0,0,0,.4.4h4c.2,0,.3-.2.3-.4V85a.3.3,0,0,0-.3-.3" fill="#dc6e34"/>
    <rect x="58.5" y="28.3" width="26" height="32.89" fill="#dc6e34"/>
    <rect x="74.9" y="28.3" width="2.4" height="4.72" fill="#fff"/>
    <rect x="37.8" y="28.3" width="29.1" height="32.89" fill="#faa75e"/>
    <rect x="37.8" y="28.3" width="29.1" height="2.36" fill="#dc6e34"/>
    <rect x="48.8" y="28.3" width="2.4" height="4.72" fill="#fff"/>
    <path d="M63.4,51H58.9a.1.1,0,0,0-.1.1v.3a.1.1,0,0,0,.1.1h4.5a.1.1,0,0,0,.1-.1v-.3a.1.1,0,0,0-.1-.1" fill="#dc6e34"/>
    <path d="M63.4,52.5H58.9c-.1,0-.1.1-.1.2v.2c0,.1,0,.1.1.1h4.5c.1,0,.1,0,.1-.1v-.2c0-.1,0-.2-.1-.2" fill="#dc6e34"/>
    <path d="M63.4,54.1H58.9c-.1,0-.1,0-.1.1v.2c0,.1,0,.2.1.2h4.5c.1,0,.1-.1.1-.2v-.2c0-.1,0-.1-.1-.1" fill="#dc6e34"/>
    <rect x="35.4" y="9" width="26.3" height="19.23" fill="#faa75e"/>
    <rect x="42" y="9" width="3" height="5.78" fill="#fff"/>
    <rect x="51.6" y="9" width="21.2" height="19.23" fill="#dc6e34"/>
    <rect x="60.7" y="9" width="3" height="5.78" fill="#fff"/>
    <path d="M49.6,21.6h-4a.2.2,0,0,0-.2.2v.3h4.4v-.3a.2.2,0,0,0-.2-.2" fill="#dc6e34"/>
    <path d="M49.6,23.5h-4c-.1,0-.2,0-.2.1v.3a.2.2,0,0,0,.2.2h4a.2.2,0,0,0,.2-.2v-.3c0-.1-.1-.1-.2-.1" fill="#dc6e34"/>
    <path d="M49.6,25.3h-4a.2.2,0,0,0-.2.2v.3a.2.2,0,0,0,.2.2h4a.2.2,0,0,0,.2-.2v-.3a.2.2,0,0,0-.2-.2" fill="#dc6e34"/>
    <path d="M113.9,39.3c.7-1.1-2.8-9.9-3.4-10.6s-4.8,1.1-5.6,3.1,3.3,5.1,3.6,5.8a16.1,16.1,0,0,1-3.7,6.1s-.8,3.7-.6,4.6c3.8-1.6,8.4-6.7,9.7-9" fill="#fbb67d"/>
    <path d="M80.2,20.7c-3.6.4-7.2.8-6.6,4.3s11.2,2,12.1,2.1a29.5,29.5,0,0,0-.5-6.4Z" fill="#fbb67d"/>
    <path d="M80.2,20.7c0,.6.1,8.8.2,8.9s4.4.4,6.1.4c.1,2.5.4,12.8.9,14.6,3,1.5,8.3,4.7,8.3,2.2V19.1a98.9,98.9,0,0,0-15.5,1.6" fill="#e5352a"/>
    <path d="M108.7,23.2a53.1,53.1,0,0,1,3.6,8.3c-.6,1.2-4.2,3.2-6.3,3.4l-1.1-1.4c-.1,2.5-.4,9.3-.9,11.1-3.1,1.5-8.3,4.7-8.3,2.2V19.1c8.2,0,12.3,2.9,13,4.1" fill="#e5352a"/>
    <path d="M104,44.1c-.6,7.1-4.7,35.5-4.7,35.5H94.5L95,53.4s-8.3-.7-8.3-8.8c0-4,13.8-5,17.3-.5" fill="#5c82ab"/>
    <path d="M99.5,85.5h.5l.3,1.8c-3,.8-8,.3-8.6-.2s.7-1.9.7-1.9a28.3,28.3,0,0,0,7.1.4" fill="#401b12"/>
    <path d="M99.3,79.1c-.4,3.3.5,4.6.4,6.7a13.4,13.4,0,0,1-7-.3,8.1,8.1,0,0,1,.7-2.9c.6-1.1,1.5-1.6,1.7-3.8v-.4Z" fill="#724a42"/>
    <polygon points="99.7 80.4 94.2 80.4 94.2 78.2 99.7 78.1 99.7 80.4" fill="#486b8e"/>
    <path d="M98.1,82.1a.3.3,0,0,0,.3.3l.3-.2c0-.2-.1-.4-.2-.4s-.4.1-.4.3" fill="#401b12"/>
    <path d="M98.2,80.6c0,.2.1.4.3.4a.3.3,0,0,0,.3-.3.3.3,0,0,0-.3-.3c-.1-.1-.3.1-.3.2" fill="#401b12"/>
    <path d="M95,81.9a.3.3,0,0,1-.3.3c-.1.1-.3-.1-.3-.2s.1-.4.3-.4a.3.3,0,0,1,.3.3" fill="#401b12"/>
    <path d="M96,80.4c0,.2-.1.3-.3.4a.3.3,0,0,1-.3-.3c-.1-.2.1-.3.2-.4s.4.1.4.3" fill="#401b12"/>
    <path d="M86.7,44.6,87,37l3.6-10.4h9.1l3.5,9.6.6,7.9s-5.2,7.8-17.1.5" fill="#5c82ab"/>
    <polygon points="89.9 19.3 92.7 28.1 90.3 29.2 86.8 19.6 89.9 19.3" fill="#486b8e"/>
    <polygon points="101 19.1 98 28.1 100.2 29.2 104.1 19.8 101 19.1" fill="#486b8e"/>
    <polygon points="95.5 36.1 90.9 36 91.5 43.5 95.5 45.9 99.4 43.5 100.1 36 95.5 36.1" fill="#486b8e"/>
    <path d="M80.3,24.9s-2.6-2.3-5.1-2.2a24.7,24.7,0,0,1,5.1,3.2Z" fill="#e0906b"/>
    <path d="M91.7,19.3V15.5h7.6v3.8c0,2.8-7.6,2.8-7.6,0" fill="#fbb67d"/>
    <path d="M91.7,16.6c2,3.3,5.6,3.7,7.6,0Z" fill="#e0906b"/>
    <path d="M100.8,7.7A32.3,32.3,0,0,1,96,7.1c1-.6,4.8-.6,4.8-.6,9.3.1,6.3,1.1,0,1.2" fill="#5c82ab"/>
    <path d="M90.3,12.7c-.7-3.5-1.3-6.6.9-8.2.3-1.9,6.9-4.1,9.1.7,1.3,1.4,1.4,4,.4,7.1-2.7-.9-10.4.4-10.4.4" fill="#401b12"/>
    <path d="M100.8,11.7c-.2-.8.9-7.8-5.3-7.8s-5,7-5.2,7.8c-1,3.2,2.3,6.8,5.2,6.9s6.3-3.7,5.3-6.9" fill="#fbb67d"/>
    <path d="M96.5,13.9a1,1,0,0,0-.7-1.2,1,1,0,1,0-.5,1.9,1,1,0,0,0,1.2-.7" fill="#e0906b"/>
    <path d="M96.7,13.3a1.2,1.2,0,1,0-2.3-.6,1.2,1.2,0,0,0,.9,1.5,1.3,1.3,0,0,0,1.4-.9" fill="#fbb67d"/>
    <path d="M90.6,10.4c-1.2-1.7-3,.4-1,2.9s1.8-1.7,1-2.9" fill="#fbb67d"/>
    <path d="M90,11.6c-.1-1.1-.5-1.3-.9-.9s.9.9.9.9" fill="#e0906b"/>
    <path d="M100.5,10.4c1.1-1.7,3,.4,1,2.9s-1.9-1.7-1-2.9" fill="#fbb67d"/>
    <path d="M101.1,11.6c0-1.1.4-1.3.8-.9s-.8.9-.8.9" fill="#e0906b"/>
    <polygon points="94.6 8.5 94.5 9.6 92.3 9.9 92.1 9 94.6 8.5" fill="#401b12"/>
    <polygon points="97 7.8 96.8 9 99 9.6 99.3 8.7 97 7.8" fill="#401b12"/>
    <path d="M93.4,12a.7.7,0,0,0,.7-.7v-.6a.7.7,0,0,0-.7-.7.7.7,0,0,0-.7.6v.7a.7.7,0,0,0,.7.7" fill="#401b12"/>
    <path d="M92.8,10.8c0,.2.2.3.4.3a.4.4,0,0,0,.3-.4c-.1-.2-.2-.3-.4-.3s-.4.2-.3.4" fill="#fff"/>
    <path d="M97.7,12a.7.7,0,0,0,.7-.7v-.6a.7.7,0,0,0-.7-.7.7.7,0,0,0-.7.6v.7a.7.7,0,0,0,.7.7" fill="#401b12"/>
    <path d="M97.1,10.8c0,.2.2.3.4.3a.4.4,0,0,0,.3-.4c-.1-.2-.2-.3-.4-.3s-.4.2-.3.4" fill="#fff"/>
    <path d="M93.5,15.1a2,2,0,0,0,2,1.6,2.2,2.2,0,0,0,2.1-1.6Z" fill="#c3202a"/>
    <path d="M96.8,16.3a1.8,1.8,0,0,1-1.3.4,2.2,2.2,0,0,1-1.3-.4,2.2,2.2,0,0,1,1.3-.4,1.8,1.8,0,0,1,1.3.4" fill="#e81d2b"/>
    <path d="M96.3,16.9a2.8,2.8,0,0,1-1.8,0,1,1,0,0,0,1.8,0" fill="#e0906b"/>
    <path d="M97.6,15.1c0,.2-.1.3-.2.5H93.7c-.1-.2-.2-.3-.2-.5h4.1" fill="#fff"/>
    <path d="M100.3,5.5V5.3a5.5,5.5,0,0,0-1.1-1,6.5,6.5,0,0,0-3.6-1.1,6.8,6.8,0,0,0-3.6,1.1l-1.1,1a.3.3,0,0,1-.1.2c-1.5,2.5-.3,6.3-.3,6.3.3-4,1.4-5.6,1.4-5.6a30.5,30.5,0,0,0,7.4,0s1.2,1.6,1.5,5.6c0,0,1.2-3.8-.4-6.3" fill="#401b12"/>
    <rect x="90.7" y="6.2" width="7.1" height="1.55" fill="#5c82ab"/>
    <path d="M95.6,6.2H90.7V7.7h4.9a.7.7,0,0,0,.7-.8.7.7,0,0,0-.7-.7" fill="#486b8e"/>
    <path d="M100.8,2c-.5-.7-3.4-2-5.2-2a14.5,14.5,0,0,0-5.1,1.6c-.8.6-1.2,4.6-.7,6.1h1.8a4.4,4.4,0,0,1,.3-2.9c.8-1.2,4.8-1.1,5.2.4a6.8,6.8,0,0,1,0,2.5h4.3s0-4.9-.6-5.7" fill="#e5352a"/>
    <path d="M91.8,5.5a2.4,2.4,0,0,1-.2-3.7l1,1.7a1.3,1.3,0,0,1,.6-1.3c.1,1.1,2.3,2.3,2.3,2.3s-2.7,1.6-3.7,1" fill="#401b12"/>
    <path d="M74.2,22.5c1.7.1,3.9,1.5,6,3.3a75.3,75.3,0,0,1,7.4,7.4c1.4,6.3-3.4,11.4-3.9,10.1s.2-8.4.2-8.4c-8-3.4-13.2-8.7-9.7-12.4" fill="#fbb67d"/>
    <polygon points="94.8 67.2 100.5 70.8 99.6 77.8 94.6 76.5 94.8 67.2" fill="#486b8e"/>
    <path d="M104.7,86.2c.1.5,1.5.9,1.5.9,2-2.2,5-10.4,4.7-11.1a6.8,6.8,0,0,0-1.9-.2,37,37,0,0,1-4.3,10.4" fill="#401b12"/>
    <path d="M101.6,77.7c1.6.8,2.6,1.4,2.8,2.2s-2.4,3.5-.7,5.2a3.4,3.4,0,0,0,1.6,1c1.4-1.5,4-8.4,3.9-9.8-1.8-1.1-3.7-.7-5.8-2.5Z" fill="#724a42"/>
    <path d="M104.3,82.2c.1,0,.2.2.1.4s-.2.2-.4.1-.2-.2-.1-.4.2-.2.4-.1" fill="#401b12"/>
    <path d="M104.9,80.7c.1.1.2.3.1.4s-.2.3-.4.2a.8.8,0,0,1-.2-.4c.1-.2.3-.2.5-.2" fill="#401b12"/>
    <path d="M105,78.9c.1.1.2.3.1.4s-.2.3-.4.2-.2-.3-.1-.4.2-.3.4-.2" fill="#401b12"/>
    <path d="M103.8,78a.3.3,0,1,1-.2.6c-.2-.1-.3-.3-.2-.4s.3-.3.4-.2" fill="#401b12"/>
    <path d="M96.2,53.2a33.8,33.8,0,0,0-3.8,13.3L103.1,73l-1.8,4.8S85.4,73.4,84.5,71s-1-14.4,2.2-26.4c5.4.2,9.5,8.6,9.5,8.6" fill="#5c82ab"/>
    <polygon points="102.4 78.8 104.5 73.2 102.2 72.2 99.9 78 102.4 78.8" fill="#486b8e"/>
    <rect x="93.2" y="38.1" width="10.6" height="16.22" rx="0.6" transform="translate(-1.3 2.9) rotate(-1.7)" fill="#2b2928"/>
    <path d="M94.5,40.4a.6.6,0,0,1,.6-.6l8.5-.3v-.9a.7.7,0,0,0-.7-.6l-9.4.3a.6.6,0,0,0-.6.6l.5,15a.6.6,0,0,0,.6.6h1Z" fill="#454443"/>
    <path d="M103.7,41.7c.7.3.8,1.6,1.1,2s.8,3.9-.6,4.6-5.4,1.2-5.3-.6.9-2.2,4.8-3.4V41.7" fill="#fbb67d"/>
    <path d="M60.6,95.8c0,1.1-13.5,2-30.3,2S0,96.9,0,95.8s13.6-2.1,30.3-2.1,30.3.9,30.3,2.1" fill="#d9d9d9"/>
    <path d="M30.7,45.7c-.3-9.4-5-11.1-6.6-11.1-.8,6.4,2.7,13.7,2.7,13.7Z" fill="#e5352a"/>
    <path d="M30.8,44.5c.3.2.3,1.5.1,1.9s-4.4,2.3-4.4,2.3a19,19,0,0,1-.3-2.5s3.5-2.3,4.6-1.7" fill="#c42c27"/>
    <path d="M14.7,32.7a2.7,2.7,0,0,1-.8-2.1c.9,0,4.3.9,8,1.5a9,9,0,0,1-.2,1.6Z" fill="#a53122"/>
    <path d="M13.4,33.3l.5-2.7a16.3,16.3,0,0,0,6.9,2.9,22.9,22.9,0,0,0-1.2,2.8Z" fill="#c42c27"/>
    <path d="M24.3,34.7c6.1,6.8,2.1,11.8,2.1,11.8-3.5-.2-10,4.1-11.9,3.5S9.7,43.7,11,38.4c.2-1-.2-2.5.4-3.2a10.4,10.4,0,0,1,5.7-2.6,11.7,11.7,0,0,1,7.2,2.1" fill="#e5352a"/>
    <path d="M27.2,48c.4,1.6-.3,7-1,12.2-1.1,8.4-15.5-2.6-15.5-2.6,1.2-6.7.1-14.9.1-14.9l1.7,3.7a11.2,11.2,0,0,0,3.1-9.5c2.3-.1,8.4-.4,9.8-.1,1.7,2.4,4.9,5.8,1.8,11.2" fill="#5c82ab"/>
    <path d="M26.5,56.7c-.6,6.5,3.6,17.5,4.2,31.1-.8,1-5.1.6-5.1.6A163.8,163.8,0,0,0,20.1,68c-.9,9.1-1.2,11.2-6.3,19.4-.6,1-5-.7-4.6-1.9C14.1,69.8,9,66,10.7,57.6c.8-3.6,15.8-6,15.8-.9" fill="#5c82ab"/>
    <polygon points="25.2 45.1 18.9 45.7 19.6 52.8 24 53.9 26.2 51.8 25.2 45.1" fill="#486b8e"/>
    <path d="M25.9,37.9a5.4,5.4,0,0,0-1.3-3.6l-1.5-.5a11.6,11.6,0,0,1,1,3.7l1.8.4" fill="#486b8e"/>
    <path d="M18,37.6a7.5,7.5,0,0,0-4.7-4l-1.3.6a15.2,15.2,0,0,1,4.1,4.5A12.1,12.1,0,0,0,18,37.6" fill="#486b8e"/>
    <path d="M36.3,93.5c.4.3.2,1.6.2,1.6-2.6.8-10.6.3-11.2-.2s.3-1.3.6-1.7a31.1,31.1,0,0,0,10.4.3" fill="#401b12"/>
    <path d="M30.3,87.6c.1,1.7.2,2.8.9,3.2s3.8-.6,4.6,1.4A3.7,3.7,0,0,1,36,94c-1.8.6-8.6.1-9.7-.4s.1-3.4-.7-5.9Z" fill="#724a42"/>
    <polygon points="30.9 88.5 25.2 89.2 24.7 87 30.8 86 30.9 88.5" fill="#486b8e"/>
    <path d="M33.1,91.6a.3.3,0,0,0,.3.3.3.3,0,0,0,0-.6.3.3,0,0,0-.3.3" fill="#401b12"/>
    <path d="M31.6,91.6c0,.1.2.2.3.2s.3-.1.3-.2a.3.3,0,0,0-.3-.3.3.3,0,0,0-.3.3" fill="#401b12"/>
    <path d="M30.1,91c0,.1.1.3.2.3a.3.3,0,0,0,.3-.3.3.3,0,0,0-.3-.3c-.1,0-.2.1-.2.3" fill="#401b12"/>
    <path d="M29.7,89.6a.3.3,0,0,0,.3.3.3.3,0,0,0,.3-.3c0-.1-.1-.2-.3-.2l-.3.2" fill="#401b12"/>
    <path d="M16.4,94.8a2.3,2.3,0,0,1,0,1.2c-6.2.3-8.8-2.4-10.4-4.4a5.3,5.3,0,0,1,1.3-1.3c1.1,1.7,3,4.6,9.1,4.5" fill="#401b12"/>
    <path d="M13.8,87.3c-.5,1.3-1.2,2.9-.8,3.6s1.7-.5,2.9,1.5a2.9,2.9,0,0,1,.1,2.4c-.4.3-6.2.3-8.5-4,.7-1.9,1.5-2.5,1.9-5Z" fill="#724a42"/>
    <polygon points="13.5 89.3 8.1 87.4 8.7 85.2 14.6 87.1 13.5 89.3" fill="#486b8e"/>
    <path d="M13.3,91.9c-.1.2,0,.4.1.4s.3,0,.4-.1,0-.3-.1-.4-.4,0-.4.1" fill="#401b12"/>
    <path d="M12.1,91.1a.4.4,0,0,0,.2.4c.1,0,.3,0,.3-.2s.1-.3-.1-.3a.2.2,0,0,0-.4.1" fill="#401b12"/>
    <path d="M11.9,89.6c-.1.2,0,.3.1.4s.3,0,.4-.1,0-.3-.1-.4-.4,0-.4.1" fill="#401b12"/>
    <path d="M38.6,89.6H37.5v-29a17.6,17.6,0,0,0-1-6l-2.8-8.3a1.3,1.3,0,0,0-1.1-.8l-14.2.3a1.1,1.1,0,0,0-.9.5,1.2,1.2,0,0,0-.2,1l2.5,7.2a19.9,19.9,0,0,1,1,6.4v29H19.7v-29a17.6,17.6,0,0,0-1-6l-2.5-7.2a2.3,2.3,0,0,1,.4-2.1,2.1,2.1,0,0,1,1.8-.9l14.2-.3a2.4,2.4,0,0,1,2.2,1.5l2.8,8.3a20.3,20.3,0,0,1,1,6.4Z" fill="#c2c6c7"/>
    <path d="M30.1,45.6c.1,1.9,4.7,3.6,5.7,1.1s-5.8-5-5.7-1.1" fill="#fbb67d"/>
    <path d="M51.3,91.1H20.1a1,1,0,0,1-1-1,.9.9,0,0,1,1-1H51.3a.9.9,0,0,1,1,1,1,1,0,0,1-1,1" fill="#4a4643"/>
    <path d="M51.3,91.1H41.1a1.1,1.1,0,0,1-1-1,1,1,0,0,1,1-1H51.3a.9.9,0,0,1,1,1,1,1,0,0,1-1,1" fill="#747474"/>
    <path d="M24,94a2.3,2.3,0,1,1-2.3-2.2A2.3,2.3,0,0,1,24,94" fill="#4a4643"/>
    <path d="M22.9,94a1.2,1.2,0,0,1-2.4,0,1.2,1.2,0,0,1,2.4,0" fill="#e2f4f9"/>
    <path d="M22.7,91.1v1.8a.5.5,0,0,1-.4.5h-.7a.7.7,0,1,0-.1,1.3h1.2A1.3,1.3,0,0,0,24,93.4V91.1Z" fill="#a9c7c7"/>
    <path d="M30.2,94a2.3,2.3,0,0,1-2.3,2.3,2.3,2.3,0,1,1,0-4.5A2.2,2.2,0,0,1,30.2,94" fill="#4a4643"/>
    <path d="M29.1,94a1.2,1.2,0,0,1-1.2,1.2A1.1,1.1,0,0,1,26.8,94a1.1,1.1,0,0,1,1.1-1.1A1.1,1.1,0,0,1,29.1,94" fill="#e2f4f9"/>
    <path d="M29,91.1v1.8a.5.5,0,0,1-.5.5h-.7a.7.7,0,0,0-.7.6.7.7,0,0,0,.7.7h1.1a1.3,1.3,0,0,0,1.3-1.3V91.1Z" fill="#a9c7c7"/>
    <path d="M45,94a2.3,2.3,0,0,1-2.3,2.3,2.3,2.3,0,1,1,0-4.5A2.2,2.2,0,0,1,45,94" fill="#4a4643"/>
    <path d="M43.9,94a1.2,1.2,0,0,1-1.2,1.2A1.1,1.1,0,0,1,41.6,94a1.1,1.1,0,0,1,1.1-1.1A1.1,1.1,0,0,1,43.9,94" fill="#e2f4f9"/>
    <path d="M43.8,91.1v1.8a.5.5,0,0,1-.5.5h-.7a.7.7,0,0,0-.7.6.7.7,0,0,0,.7.7h1.1A1.3,1.3,0,0,0,45,93.4V91.1Z" fill="#a9c7c7"/>
    <path d="M51.2,94A2.3,2.3,0,1,1,49,91.8,2.2,2.2,0,0,1,51.2,94" fill="#4a4643"/>
    <path d="M50.1,94A1.1,1.1,0,0,1,49,95.2,1.2,1.2,0,0,1,47.8,94,1.1,1.1,0,0,1,49,92.9,1.1,1.1,0,0,1,50.1,94" fill="#e2f4f9"/>
    <path d="M50,91.1v1.8a.5.5,0,0,1-.5.5h-.7a.9.9,0,0,0-.7.6.7.7,0,0,0,.7.7h1.1a1.3,1.3,0,0,0,1.3-1.3V91.1Z" fill="#a9c7c7"/>
    <rect x="23.6" y="75.7" width="18.4" height="13.42" fill="#faa75e"/>
    <rect x="28.1" y="75.7" width="2.1" height="4.03" fill="#fff"/>
    <rect x="34.8" y="75.7" width="14.8" height="13.42" fill="#dc6e34"/>
    <rect x="41.2" y="75.7" width="2.1" height="4.03" fill="#fff"/>
    <rect x="25.2" y="83" width="3.3" height="0.2" fill="#3d3217"/>
    <rect x="25.2" y="84.4" width="3.3" height="0.2" fill="#3d3217"/>
    <rect x="25.2" y="85.7" width="3.3" height="0.2" fill="#3d3217"/>
    <rect x="25.9" y="60.3" width="18.4" height="15.34" fill="#faa75e"/>
    <rect x="30.5" y="60.3" width="2.1" height="4.03" fill="#fff"/>
    <rect x="37.2" y="60.3" width="14.8" height="15.34" fill="#dc6e34"/>
    <rect x="43.5" y="60.3" width="2.1" height="4.03" fill="#fff"/>
    <rect x="44.7" y="69.6" width="5.6" height="0.2" fill="#3d3217"/>
    <rect x="44.7" y="70.9" width="5.6" height="0.2" fill="#3d3217"/>
    <rect x="44.7" y="72.2" width="5.6" height="0.2" fill="#3d3217"/>
    <rect x="23.6" y="46.9" width="18.4" height="13.42" fill="#faa75e"/>
    <rect x="28.1" y="46.9" width="2.1" height="4.04" fill="#fff"/>
    <rect x="34.8" y="46.9" width="14.8" height="13.42" fill="#dc6e34"/>
    <rect x="41.2" y="46.9" width="2.1" height="4.04" fill="#fff"/>
    <rect x="36.9" y="54.3" width="5.6" height="0.2" fill="#3d3217"/>
    <rect x="36.9" y="55.6" width="5.6" height="0.2" fill="#3d3217"/>
    <rect x="36.9" y="56.9" width="5.6" height="0.2" fill="#3d3217"/>
    <rect x="25.9" y="60.3" width="11.2" height="1.41" fill="#dc6e34"/>
    <path d="M14.3,26.1c-.2.4.6,3.7.1,5.8s7.4,3.3,7.4,0c0-.2-.2-6-.2-6Z" fill="#fbb67d"/>
    <path d="M14.3,26.1a8.5,8.5,0,0,0,.1,1.3c2,6.2,7.4,4.4,7.4,4.3s-.2-5.8-.2-5.8Z" fill="#e0906b"/>
    <path d="M25,21.9a6.5,6.5,0,0,0,.2,2.4c.5,2.3-1,7.3-4.1,7.3-8.9,0-12.6-17.8-1-15.9,3.4.6,5.3,2.4,4.9,6.2" fill="#fbb67d"/>
    <path d="M25,21.9a9.7,9.7,0,0,0,.2,2.4c.5,2.3-1.2,7.4-3.7,7.4-4.5,0-5.9-2.2-7.3-4.9-2.7-5.2-1.7-12.4,5.9-11.1,3.4.6,5,2.2,4.9,6.2" fill="#fbb67d"/>
    <path d="M23.8,28.1l-3.8.2c.8,2,3.6,1.9,3.8-.2" fill="#c3202a"/>
    <path d="M20.5,29.1a1.9,1.9,0,0,0,2.1.5,1.9,1.9,0,0,0-2.1-.5" fill="#e81d2b"/>
    <path d="M20,28.3l.3.6,3.3-.2c.1-.2.1-.4.2-.6l-3.8.2" fill="#fff"/>
    <path d="M23.8,24.5a.8.8,0,0,0,.7-.8V23a.7.7,0,0,0-.7-.7.8.8,0,0,0-.8.7v.7a.9.9,0,0,0,.8.8" fill="#401b12"/>
    <path d="M19.8,25a.8.8,0,0,0,.7-.8v-.7a.8.8,0,0,0-.7-.8.9.9,0,0,0-.8.8v.7a.9.9,0,0,0,.8.8" fill="#401b12"/>
    <path d="M23.7,25.9a1.1,1.1,0,0,0-1-1,1.1,1.1,0,0,0-1.1,1A1.1,1.1,0,0,0,22.7,27a1.1,1.1,0,0,0,1-1.1" fill="#e0906b"/>
    <path d="M23.6,25.3a1.3,1.3,0,1,0-1.3,1.3,1.3,1.3,0,0,0,1.3-1.3" fill="#fbb67d"/>
    <path d="M18,19.1l-.5,6.2-2.2-.4-1,2C12,23,12.5,19.2,13.1,18c3.1-.7,4.4.5,4.9,1.1" fill="#683c2f"/>
    <path d="M16.2,23.5c-1.7-1.7-3.5,1.4-.7,4s1.9-2.7.7-4" fill="#fbb67d"/>
    <path d="M16,25.1c-.4-1.2-1.1-1.4-1.4-.8s1.4.8,1.4.8" fill="#e0906b"/>
    <path d="M15.1,25.3a.7.7,0,0,1-.3.4c.3.3.5.1.3-.4" fill="#e0906b"/>
    <path d="M19.8,23.6a.3.3,0,0,1-.6,0,.3.3,0,0,1,.6,0" fill="#fff"/>
    <path d="M23.7,23a.3.3,0,0,1-.3.3.3.3,0,0,1,0-.6.3.3,0,0,1,.3.3" fill="#fff"/>
    <polygon points="21.6 20.8 21.1 22 18.8 21.4 18.9 20.5 21.6 20.8" fill="#401b12"/>
    <path d="M24.8,21.3l-1.7.5-.3-1.2h1.8Z" fill="#401b12"/>
    <path d="M18,19.1c0-1.1,3.5-.3,5.1-.2s1.4-.5,1.4-.5c3.1-4.9-7.2-7.8-11.1-2.4.8-.6,1.1-.5,1.1-.5A5.1,5.1,0,0,0,13.1,18,6,6,0,0,1,18,19.1" fill="#401b12"/>
    <polygon points="22.6 33.7 21.9 32.1 20.4 33.5 22.1 36.3 22.6 33.7" fill="#c42c27"/>
    <path d="M13.4,33.3l.5-2.7a16.3,16.3,0,0,0,6.9,2.9,22.9,22.9,0,0,0-1.2,2.8Z" fill="#c42c27"/>
    <path d="M21.7,46c-.4-1.4-1.7-3.5-6.4-1.6a37,37,0,0,0-4.8,3.1A21.2,21.2,0,0,0,13,40.8s.6-4.5-.9-6.2C6.7,37.4,3,47.6,5.5,53.7c2.4,4.4,6.6-3,10.8-5.6a2,2,0,0,0,1.9,1.5c2.2.1,4.2-1.9,3.5-3.6" fill="#fbb67d"/>
    <path d="M13.3,40.8a18.4,18.4,0,0,1-2.8,6.7s-3.8.6-6.5-.7c.6-3.6.7-7.5,3.1-10.1,1-1,4-1.6,5-2.1,1.5,1.7,1.2,6.2,1.2,6.2" fill="#e5352a"/>
    <path d="M4.1,44.6a9,9,0,0,0-.2,2.9c3.2,1,5.4.7,6.9-.1a3.6,3.6,0,0,0,.8-1.5s-5.5-.4-7.5-1.3" fill="#c42c27"/>
  </g>
</svg>
