<svg xmlns="http://www.w3.org/2000/svg" viewBox="0 0 60.6 84.7">
  <g>
    <path d="M60.6,82.7c0,1.1-13.5,2-30.3,2S0,83.8,0,82.7s13.6-2.1,30.3-2.1,30.3.9,30.3,2.1" fill="#d9d9d9"/>
    <path d="M30.7,32.6c-.3-9.4-5-11.2-6.6-11.2-.8,6.5,2.7,13.8,2.7,13.8Z" fill="#e5352a"/>
    <path d="M30.8,31.4c.3.2.3,1.5.1,1.9s-4.4,2.3-4.4,2.3a21.3,21.3,0,0,1-.3-2.5s3.5-2.3,4.6-1.7" fill="#c42c27"/>
    <path d="M14.7,19.6a2.7,2.7,0,0,1-.8-2.1c.9,0,4.3.9,8,1.5a9,9,0,0,1-.2,1.6Z" fill="#a53122"/>
    <path d="M13.4,20.1l.5-2.6a17.8,17.8,0,0,0,6.9,2.9,17.7,17.7,0,0,0-1.2,2.8Z" fill="#c42c27"/>
    <path d="M24.3,21.6c6.1,6.8,2.1,11.8,2.1,11.8-3.5-.3-10,4.1-11.9,3.5S9.7,30.6,11,25.3c.2-1-.2-2.6.4-3.2a9.8,9.8,0,0,1,5.7-2.6,11.7,11.7,0,0,1,7.2,2.1" fill="#e5352a"/>
    <path d="M27.2,34.8c.4,1.7-.3,7.1-1,12.2-1.1,8.5-15.5-2.5-15.5-2.5a56.9,56.9,0,0,0,.1-14.9l1.7,3.7a11.2,11.2,0,0,0,3.1-9.5c2.3-.1,8.4-.4,9.8-.1,1.7,2.4,4.9,5.8,1.8,11.1" fill="#5c82ab"/>
    <path d="M26.5,43.5c-.6,6.6,3.6,17.6,4.2,31.2-.8,1-5.1.6-5.1.6a163.8,163.8,0,0,0-5.5-20.4c-.9,9.1-1.2,11.2-6.3,19.4-.6,1-5-.7-4.6-1.9,4.9-15.7-.2-19.5,1.5-27.9.8-3.6,15.8-6,15.8-1" fill="#5c82ab"/>
    <polygon points="25.2 32 18.9 32.6 19.6 39.7 24 40.8 26.2 38.7 25.2 32" fill="#486b8e"/>
    <path d="M25.9,24.8a5.4,5.4,0,0,0-1.3-3.6l-1.5-.5a11.6,11.6,0,0,1,1,3.7l1.8.4" fill="#486b8e"/>
    <path d="M18,24.5a7.8,7.8,0,0,0-4.7-4.1l-1.3.7a15.2,15.2,0,0,1,4.1,4.5A12.1,12.1,0,0,0,18,24.5" fill="#486b8e"/>
    <path d="M36.3,80.4c.4.3.2,1.6.2,1.6-2.6.8-10.6.3-11.2-.2s.3-1.3.6-1.7a37.5,37.5,0,0,0,10.4.3" fill="#401b12"/>
    <path d="M30.3,74.5c.1,1.7.2,2.8.9,3.2s3.8-.7,4.6,1.4a3.7,3.7,0,0,1,.2,1.8c-1.8.5-8.6.1-9.7-.4s.1-3.4-.7-5.9Z" fill="#724a42"/>
    <polygon points="30.9 75.4 25.2 76.1 24.7 73.9 30.8 72.9 30.9 75.4" fill="#486b8e"/>
    <path d="M33.1,78.5a.3.3,0,0,0,.3.3l.3-.3a.3.3,0,0,0-.3-.3.3.3,0,0,0-.3.3" fill="#401b12"/>
    <path d="M31.6,78.4a.3.3,0,0,0,.3.3.3.3,0,0,0,.3-.3c0-.1-.1-.2-.3-.2s-.3.1-.3.2" fill="#401b12"/>
    <path d="M30.1,77.9c0,.1.1.3.2.3a.3.3,0,0,0,.3-.3.3.3,0,0,0-.3-.3c-.1,0-.2.1-.2.3" fill="#401b12"/>
    <path d="M29.7,76.5a.3.3,0,0,0,.3.3.3.3,0,0,0,.3-.3.3.3,0,0,0-.3-.3l-.3.3" fill="#401b12"/>
    <path d="M16.4,81.7a2.3,2.3,0,0,1,0,1.2c-6.2.2-8.8-2.4-10.4-4.4a5.3,5.3,0,0,1,1.3-1.3c1.1,1.7,3,4.6,9.1,4.5" fill="#401b12"/>
    <path d="M13.8,74.2c-.5,1.3-1.2,2.9-.8,3.6s1.7-.6,2.9,1.5a2.9,2.9,0,0,1,.1,2.4c-.4.3-6.2.3-8.5-4,.7-1.9,1.5-2.5,1.9-5.1Z" fill="#724a42"/>
    <polygon points="13.5 76.2 8.1 74.2 8.7 72.1 14.6 74 13.5 76.2" fill="#486b8e"/>
    <path d="M13.3,78.8c-.1.2,0,.3.1.4s.3,0,.4-.1,0-.3-.1-.4-.4,0-.4.1" fill="#401b12"/>
    <path d="M12.1,78a.4.4,0,0,0,.2.4c.1,0,.3,0,.3-.2a.2.2,0,0,0-.1-.4.4.4,0,0,0-.4.2" fill="#401b12"/>
    <path d="M11.9,76.5c-.1.1,0,.3.1.4s.3,0,.4-.1,0-.3-.1-.4-.4,0-.4.1" fill="#401b12"/>
    <path d="M38.6,76.5H37.5v-29a17.6,17.6,0,0,0-1-6l-2.8-8.3a1.2,1.2,0,0,0-1.1-.8l-14.2.3a1.1,1.1,0,0,0-.9.5,1.2,1.2,0,0,0-.2,1l2.5,7.2a19.9,19.9,0,0,1,1,6.4v29H19.7v-29a17.6,17.6,0,0,0-1-6l-2.5-7.2a2.3,2.3,0,0,1,.4-2.1,2.1,2.1,0,0,1,1.8-.9l14.2-.3a2.4,2.4,0,0,1,2.2,1.5l2.8,8.3a19.9,19.9,0,0,1,1,6.4Z" fill="#c2c6c7"/>
    <path d="M30.1,32.5c.1,1.9,4.7,3.5,5.7,1.1s-5.8-5-5.7-1.1" fill="#fbb67d"/>
    <path d="M51.3,78H20.1a1,1,0,0,1-1-1,.9.9,0,0,1,1-1H51.3a.9.9,0,0,1,1,1,1,1,0,0,1-1,1" fill="#4a4643"/>
    <path d="M51.3,78H41.1a1.1,1.1,0,0,1-1-1,1,1,0,0,1,1-1H51.3a.9.9,0,0,1,1,1,1,1,0,0,1-1,1" fill="#747474"/>
    <path d="M24,80.9a2.3,2.3,0,1,1-2.3-2.2A2.3,2.3,0,0,1,24,80.9" fill="#4a4643"/>
    <path d="M22.9,80.9a1.2,1.2,0,0,1-2.4,0,1.2,1.2,0,0,1,2.4,0" fill="#e2f4f9"/>
    <path d="M22.7,78v1.8a.5.5,0,0,1-.4.5h-.7c-.4,0-.7.2-.7.6a.7.7,0,0,0,.6.7h1.2A1.3,1.3,0,0,0,24,80.3V78Z" fill="#a9c7c7"/>
    <path d="M30.2,80.9a2.3,2.3,0,0,1-2.3,2.3,2.3,2.3,0,1,1,0-4.5,2.2,2.2,0,0,1,2.3,2.2" fill="#4a4643"/>
    <path d="M29.1,80.9a1.2,1.2,0,0,1-1.2,1.2,1.1,1.1,0,0,1-1.1-1.2,1.1,1.1,0,0,1,1.1-1.1,1.1,1.1,0,0,1,1.2,1.1" fill="#e2f4f9"/>
    <path d="M29,78v1.8a.5.5,0,0,1-.5.5h-.7c-.4,0-.7.2-.7.6a.7.7,0,0,0,.7.7h1.1a1.3,1.3,0,0,0,1.3-1.3V78Z" fill="#a9c7c7"/>
    <path d="M45,80.9a2.3,2.3,0,0,1-2.3,2.3,2.3,2.3,0,1,1,0-4.5A2.2,2.2,0,0,1,45,80.9" fill="#4a4643"/>
    <path d="M43.9,80.9a1.2,1.2,0,0,1-1.2,1.2,1.1,1.1,0,0,1-1.1-1.2,1.1,1.1,0,0,1,1.1-1.1,1.1,1.1,0,0,1,1.2,1.1" fill="#e2f4f9"/>
    <path d="M43.8,78v1.8a.5.5,0,0,1-.5.5h-.7c-.4,0-.7.2-.7.6a.7.7,0,0,0,.7.7h1.1A1.3,1.3,0,0,0,45,80.3V78Z" fill="#a9c7c7"/>
    <path d="M51.2,80.9A2.3,2.3,0,1,1,49,78.7a2.2,2.2,0,0,1,2.2,2.2" fill="#4a4643"/>
    <path d="M50.1,80.9A1.1,1.1,0,0,1,49,82.1a1.2,1.2,0,0,1-1.2-1.2A1.1,1.1,0,0,1,49,79.8a1.1,1.1,0,0,1,1.1,1.1" fill="#e2f4f9"/>
    <path d="M50,78v1.8a.5.5,0,0,1-.5.5h-.7a.7.7,0,0,0-.7.6.7.7,0,0,0,.7.7h1.1a1.3,1.3,0,0,0,1.3-1.3V78Z" fill="#a9c7c7"/>
    <rect x="23.6" y="62.6" width="18.4" height="13.42" fill="#faa75e"/>
    <rect x="28.1" y="62.6" width="2.1" height="4.03" fill="#fff"/>
    <rect x="34.8" y="62.6" width="14.8" height="13.42" fill="#dc6e34"/>
    <rect x="41.2" y="62.6" width="2.1" height="4.03" fill="#fff"/>
    <rect x="25.2" y="69.9" width="3.3" height="0.2" fill="#3d3217"/>
    <rect x="25.2" y="71.2" width="3.3" height="0.2" fill="#3d3217"/>
    <rect x="25.2" y="72.5" width="3.3" height="0.2" fill="#3d3217"/>
    <rect x="25.9" y="47.2" width="18.4" height="15.34" fill="#faa75e"/>
    <rect x="30.5" y="47.2" width="2.1" height="4.03" fill="#fff"/>
    <rect x="37.2" y="47.2" width="14.8" height="15.34" fill="#dc6e34"/>
    <rect x="43.5" y="47.2" width="2.1" height="4.03" fill="#fff"/>
    <rect x="44.7" y="56.5" width="5.6" height="0.2" fill="#3d3217"/>
    <rect x="44.7" y="57.8" width="5.6" height="0.2" fill="#3d3217"/>
    <rect x="44.7" y="59.1" width="5.6" height="0.2" fill="#3d3217"/>
    <rect x="23.6" y="33.8" width="18.4" height="13.42" fill="#faa75e"/>
    <rect x="28.1" y="33.8" width="2.1" height="4.04" fill="#fff"/>
    <rect x="34.8" y="33.8" width="14.8" height="13.42" fill="#dc6e34"/>
    <rect x="41.2" y="33.8" width="2.1" height="4.04" fill="#fff"/>
    <rect x="36.9" y="41.1" width="5.6" height="0.2" fill="#3d3217"/>
    <rect x="36.9" y="42.4" width="5.6" height="0.2" fill="#3d3217"/>
    <rect x="36.9" y="43.8" width="5.6" height="0.2" fill="#3d3217"/>
    <rect x="25.9" y="47.2" width="11.2" height="1.41" fill="#dc6e34"/>
    <path d="M14.3,13c-.2.3.6,3.7.1,5.8s7.4,3.3,7.4,0c0-.2-.2-6-.2-6Z" fill="#fbb67d"/>
    <path d="M14.3,13a9.3,9.3,0,0,0,.1,1.3c2,6.2,7.4,4.4,7.4,4.3s-.2-5.8-.2-5.8Z" fill="#e0906b"/>
    <path d="M25,8.8a6.5,6.5,0,0,0,.2,2.4c.5,2.3-1,7.3-4.1,7.3-8.9,0-12.6-17.8-1-15.9,3.4.6,5.3,2.4,4.9,6.2" fill="#fbb67d"/>
    <path d="M25,8.8a9.7,9.7,0,0,0,.2,2.4c.5,2.3-1.2,7.4-3.7,7.4-4.5,0-5.9-2.2-7.3-4.9C11.5,8.5,12.5,1.3,20.1,2.6c3.4.6,5,2.2,4.9,6.2" fill="#fbb67d"/>
    <path d="M23.8,15l-3.8.2c.8,2,3.6,1.9,3.8-.2" fill="#c3202a"/>
    <path d="M20.5,16a2.1,2.1,0,0,0,2.1.5,1.9,1.9,0,0,0-2.1-.5" fill="#e81d2b"/>
    <path d="M20,15.2l.3.6,3.3-.2c.1-.2.1-.4.2-.6l-3.8.2" fill="#fff"/>
    <path d="M23.8,11.4a.8.8,0,0,0,.7-.8V9.9a.8.8,0,0,0-.7-.8.9.9,0,0,0-.8.8v.7a.9.9,0,0,0,.8.8" fill="#401b12"/>
    <path d="M19.8,11.9a.8.8,0,0,0,.7-.8v-.7a.8.8,0,0,0-.7-.8.9.9,0,0,0-.8.8v.7a.9.9,0,0,0,.8.8" fill="#401b12"/>
    <path d="M23.7,12.8a1,1,0,0,0-1-1,1,1,0,0,0-1.1,1,1.1,1.1,0,0,0,1.1,1.1,1.1,1.1,0,0,0,1-1.1" fill="#e0906b"/>
    <path d="M23.6,12.2a1.3,1.3,0,1,0-1.3,1.3,1.3,1.3,0,0,0,1.3-1.3" fill="#fbb67d"/>
    <path d="M18,6l-.5,6.2-2.2-.4-1,2C12,9.9,12.5,6.1,13.1,4.9c3.1-.7,4.4.5,4.9,1.1" fill="#683c2f"/>
    <path d="M16.2,10.4c-1.7-1.7-3.5,1.4-.7,3.9s1.9-2.7.7-3.9" fill="#fbb67d"/>
    <path d="M16,12c-.4-1.3-1.1-1.4-1.4-.8S16,12,16,12" fill="#e0906b"/>
    <path d="M15.1,12.2a.7.7,0,0,1-.3.4c.3.3.5.1.3-.4" fill="#e0906b"/>
    <path d="M19.8,10.5a.3.3,0,0,1-.6,0,.3.3,0,0,1,.6,0" fill="#fff"/>
    <path d="M23.7,9.9a.3.3,0,0,1-.3.3l-.3-.3a.3.3,0,0,1,.3-.3.3.3,0,0,1,.3.3" fill="#fff"/>
    <polygon points="21.6 7.7 21.1 8.9 18.8 8.3 18.9 7.4 21.6 7.7" fill="#401b12"/>
    <path d="M24.8,8.2l-1.7.5-.3-1.2h1.8Z" fill="#401b12"/>
    <path d="M18,6c0-1.1,3.5-.3,5.1-.2s1.4-.5,1.4-.5C27.6.4,17.3-2.5,13.4,2.9c.8-.6,1.1-.5,1.1-.5a5.1,5.1,0,0,0-1.4,2.5A6,6,0,0,1,18,6" fill="#401b12"/>
    <polygon points="22.6 20.6 21.9 19 20.4 20.4 22.1 23.2 22.6 20.6" fill="#c42c27"/>
    <path d="M13.4,20.1l.5-2.6a17.8,17.8,0,0,0,6.9,2.9,17.7,17.7,0,0,0-1.2,2.8Z" fill="#c42c27"/>
    <path d="M21.7,32.9c-.4-1.4-1.7-3.5-6.4-1.6a37,37,0,0,0-4.8,3.1A21.2,21.2,0,0,0,13,27.7s.6-4.5-.9-6.2C6.7,24.3,3,34.5,5.5,40.6c2.4,4.4,6.6-3,10.8-5.6a2,2,0,0,0,1.9,1.5c2.2.1,4.2-1.9,3.5-3.6" fill="#fbb67d"/>
    <path d="M13.3,27.7a17.5,17.5,0,0,1-2.8,6.6S6.7,35,4,33.7c.6-3.6.7-7.5,3.1-10.1,1-1,4-1.6,5-2.1,1.5,1.7,1.2,6.2,1.2,6.2" fill="#e5352a"/>
    <path d="M4.1,31.5a9,9,0,0,0-.2,2.9c3.2,1,5.4.7,6.9-.2a3.4,3.4,0,0,0,.8-1.4s-5.5-.4-7.5-1.3" fill="#c42c27"/>
  </g>
</svg>
