<svg xmlns="http://www.w3.org/2000/svg" viewBox="0 0 40.7 27.1">
  <path d="M.7,7.7A24.2,24.2,0,0,1,4.2,6.5V9l-1.7.6V23.2c6.4-2.4,13.4-1.4,20.4-.4a80.2,80.2,0,0,0,9.6,1V21.9l2.5.2v4.2H33.8a87.8,87.8,0,0,1-11.3-1c-7.2-1.1-14.5-2.1-20.7.9L0,27.1V8l.7-.3ZM24,3.8v.9a1.4,1.4,0,0,1,1.2,1.5V7.9H23.4V6.1c0-.1-.1-.2-.3-.2s-.4.1-.4.5V7a1.7,1.7,0,0,0,.6,1.2,15.2,15.2,0,0,1,1.7,1.9,1.7,1.7,0,0,1,.3,1v1.1A1.7,1.7,0,0,1,24,14v1c2.1-.5,3.7-2.8,3.7-5.6S26.1,4.3,24,3.8ZM6.4,2l-.7.4v19l1.8-.9c6.2-3,13.5-2,20.7-.9a88.1,88.1,0,0,0,11.3,1.1h1.2V1.9H39.5a82.9,82.9,0,0,1-11-.9C20.8,0,13.2-1,6.4,2ZM28.2,3.4C22.6,2.7,17.1,2,12.1,2.9c.3,2.4-1.1,5-4,5v4.4a4.2,4.2,0,0,1,4.3,4.1c5.2-.8,10.7,0,16.2.7l5.2.7c-.1-2.5,1.7-4.9,4.4-4.6V8.8c-2.8.1-4.3-2.3-4.1-4.7l-5.9-.7ZM8.1,17.5h0Zm14-2.4V14a1.5,1.5,0,0,1-1.3-1.6V10.3h1.8v2.1c0,.2.1.3.4.3s.4-.1.4-.3V11.3a1.1,1.1,0,0,0-.3-.7L21.4,8.9a2.4,2.4,0,0,1-.6-1.4V6.4a1.6,1.6,0,0,1,1.3-1.7V3.8c-2.1.5-3.8,2.8-3.8,5.6S20,14.6,22.1,15.1Z" fill="#575756" fill-rule="evenodd"/>
</svg>
