<svg xmlns="http://www.w3.org/2000/svg" viewBox="0 0 41.9 21.7">
  <g>
    <rect x="3.6" y="13.4" width="35.1" height="2.96" fill="#5e5a59"/>
    <path d="M.8,0V15.1H25.6V2.2A2.1,2.1,0,0,0,23.5,0Z" fill="#a29f9d"/>
    <path d="M1.6,13.4V.8H23.5a1.3,1.3,0,0,1,1.3,1.4V13.4Z" fill="#ececec"/>
    <path d="M4,16.4v.8c0,.1.1.3.1.4l.4.3.9.2H41.6V16.4H19.5v.8H5.5v-.8Z" fill="#5e5a59"/>
    <path d="M26.4,3.8V14.9h.9a.7.7,0,0,1,.6.2l.2.3c.1.2.2.3.2.5v1H41.5V14.5a2.1,2.1,0,0,0-1-1.7h0a.2.2,0,0,0-.2-.2l-2.7-1.2a5.8,5.8,0,0,1-1.2-1L32.3,4.9a3.1,3.1,0,0,0-2.2-1.1Z" fill="#355a7d"/>
    <path d="M40.2,12.8H40l-3-1.2a3.6,3.6,0,0,1-1.4-1S32.4,6.3,31.3,5a7.8,7.8,0,0,0-1.5-1h.3a2.9,2.9,0,0,1,2.1,1.1l4.1,5.3a2.9,2.9,0,0,0,1.2,1L40,12.6l.3.2h0a2.2,2.2,0,0,1,.6.7A2.3,2.3,0,0,0,40.2,12.8Z" fill="#fff" opacity="0.2"/>
    <path d="M28,6.3V9.9a.8.8,0,0,0,.8.8h5.4c.3-.1.4-.3.2-.7L31.9,6.2a1.5,1.5,0,0,0-1.2-.7H28.6a1,1,0,0,0-.5.4Z" fill="#478fc0"/>
    <path d="M28.3,10.2V6.6a.7.7,0,0,1,.8-.8h1.8a1.9,1.9,0,0,1,1,.3,2,2,0,0,0-1.2-.6H28.8a.9.9,0,0,0-.8.8V9.9a.8.8,0,0,0,.4.7A.6.6,0,0,1,28.3,10.2Z" fill="#13110c" opacity="0.2"/>
    <path d="M.4,14.5c-.2,0-.4-.3-.4-.6v-.6a.5.5,0,0,1,.4-.5H.8v1.7Z" fill="#d72116"/>
    <path d="M2.4,17v1c0,.5.2.9.4.9h.3V16.1H2.8C2.6,16.1,2.4,16.5,2.4,17Z" fill="#d7d6d4"/>
    <path d="M41.5,16.9H40V15.3a.5.5,0,0,1,.5-.4h1a.4.4,0,0,1,.4.4v1.2A.4.4,0,0,1,41.5,16.9Z" fill="#ececec"/>
    <path d="M32.3,18.1H39a2.8,2.8,0,0,0-.4-1.2,1,1,0,0,0-.4-.5,3.3,3.3,0,0,0-2.5-1.2,3.6,3.6,0,0,0-2.6,1.2l-.4.5A5.6,5.6,0,0,0,32.3,18.1Z" fill="#13110c" opacity="0.5"/>
    <g>
      <path d="M38.7,18.6a3,3,0,0,1-3,3.1,3.1,3.1,0,0,1-3.1-3.1,3,3,0,0,1,3.1-3A2.9,2.9,0,0,1,38.7,18.6Z" fill="#4f4b49"/>
      <path d="M37.9,18.6a2.3,2.3,0,1,1-2.2-2.2A2.2,2.2,0,0,1,37.9,18.6Z" fill="#dddcde"/>
      <path d="M37.4,18.6a1.7,1.7,0,1,1-3.4,0,1.7,1.7,0,0,1,3.4,0Z" fill="#a29f9d"/>
    </g>
    <path d="M8.5,16.4h5.1a3.3,3.3,0,0,0-2.5-1.2A3.4,3.4,0,0,0,8.5,16.4Z" fill="#13110c" opacity="0.5"/>
    <path d="M7.7,18.1h6.7a2.9,2.9,0,0,0-.2-.9H8A3.2,3.2,0,0,0,7.7,18.1Z" fill="#13110c" opacity="0.5"/>
    <rect x="3.1" y="15.1" width="0.5" height="4.34" fill="#5e5a59"/>
    <g>
      <path d="M14.1,18.6a3.1,3.1,0,0,1-3,3.1A3.1,3.1,0,0,1,8,18.6a3.1,3.1,0,0,1,6.1,0Z" fill="#4f4b49"/>
      <path d="M13.3,18.6a2.3,2.3,0,1,1-2.2-2.2A2.2,2.2,0,0,1,13.3,18.6Z" fill="#dddcde"/>
      <path d="M12.7,18.6a1.6,1.6,0,0,1-1.6,1.7,1.6,1.6,0,0,1-1.7-1.7,1.7,1.7,0,0,1,1.7-1.7A1.7,1.7,0,0,1,12.7,18.6Z" fill="#a29f9d"/>
    </g>
    <path d="M27.7,16.3a1,1,0,1,1-2,0,1,1,0,0,1,2,0Z" fill="#fcc04f"/>
    <path d="M41.5,14.5v.4h-1V12.8h0A2.1,2.1,0,0,1,41.5,14.5Z" fill="#fcc04f"/>
    <g>
      <rect x="18.6" y="15.6" width="6.2" height="3.05" rx="1.1" fill="#ececec"/>
      <path d="M23.9,16.6H19.5l-.5.2v-.2a.9.9,0,0,1,1-.9h3.5a.9.9,0,0,1,.9.9v.2Z" fill="#fff" opacity="0.5"/>
      <g>
        <rect x="22.7" y="15.3" width="0.5" height="3.51" fill="#a29f9d"/>
        <rect x="20.1" y="15.3" width="0.5" height="3.51" fill="#a29f9d"/>
      </g>
    </g>
    <path d="M1.4.4v9.7L25.3,2.8V2.5A2.1,2.1,0,0,0,23.2.4Z" fill="#fff" opacity="0.2"/>
    <rect x="26.4" y="3.8" width="0.7" height="11.06" fill="#13110c" opacity="0.2"/>
    <path d="M27.9,9.9v5.2l.2.3V9.9Z" fill="#123b5f"/>
    <path d="M29.3,5.5l3.6,5.2h1.3L30.6,5.5Z" fill="#fff" opacity="0.2"/>
    <path d="M28.1,5.9l3.4,4.8h.7L28.6,5.5A1,1,0,0,0,28.1,5.9Z" fill="#fff" opacity="0.2"/>
    <path d="M32.1,16.9h.3a1.7,1.7,0,0,1,.6-1.2,2.1,2.1,0,0,1,1.5-.7h.1V10.5h-.2v4.2a2.5,2.5,0,0,0-1.6.8A1.7,1.7,0,0,0,32.1,16.9Z" fill="#123b5f"/>
    <rect x="28.5" y="11.6" width="1.6" height="0.81" fill="#a29f9d"/>
    <path d="M27.9,6.3V9.9a1.4,1.4,0,0,0,.2.7,1.1,1.1,0,0,0,.7.3h5.6c.1,0,.2-.1.2-.3h0c.1-.1.1-.3-.1-.5L32,6.1a1.6,1.6,0,0,0-1.3-.7H28.5a1,1,0,0,0-.5.4A.9.9,0,0,0,27.9,6.3Zm.4,4a.5.5,0,0,1-.2-.4V6h.1a.3.3,0,0,1,.3-.3h.1a.1.1,0,0,1,.1-.1h1.9l.6.2h0a1,1,0,0,1,.5.4l2.5,3.8a.5.5,0,0,1,.1.3H28.8a.5.5,0,0,1-.5-.3Z" fill="#5e5a59"/>
    <rect x="28.5" y="11.6" width="1.6" height="0.41" fill="#5e5a59"/>
  </g>
</svg>
