<svg xmlns="http://www.w3.org/2000/svg" viewBox="0 0 24.3 47.1">
  <g>
    <g>
      <path d="M20.8,6.7,19.1,1.2A1.6,1.6,0,0,0,17.6,0H6.6A1.6,1.6,0,0,0,5.1,1.2L3.6,6.7Z" fill="#575756"/>
      <path d="M21,6.5H3.2a.8.8,0,0,0-.7.8v7.5a.8.8,0,0,0,.7.8H21a.8.8,0,0,0,.8-.8V7.3a.8.8,0,0,0-.8-.8" fill="#575756"/>
      <path d="M8.8,0h0c0,.4-.1.8-.3.8H6.9C6.7.8,6.6.4,6.6,0h0" fill="#fff"/>
      <path d="M17.7,0h0c0,.4-.1.8-.3.8H15.8c-.2,0-.3-.4-.3-.8h0" fill="#fff"/>
    </g>
    <rect y="16.6" width="24.3" height="30.54" rx="1.1" fill="#575756"/>
    <rect x="7.9" y="35.3" width="8.6" height="10.72" rx="0.9" fill="#fff"/>
    <rect x="10.9" y="32.8" width="2.5" height="19.68" rx="0.6" transform="translate(-30.5 54.8) rotate(-90)" fill="#fff"/>
  </g>
</svg>
