<svg xmlns="http://www.w3.org/2000/svg" xmlns:xlink="http://www.w3.org/1999/xlink" viewBox="0 0 60.6 115">
  <defs>
    <clipPath id="a">
      <path d="M2.5,115h56a2.1,2.1,0,0,0,2.1-2.1V42.5a3.3,3.3,0,0,0-3.3-3.3H3.3A3.3,3.3,0,0,0,0,42.5v70A2.5,2.5,0,0,0,2.5,115Z" fill="#fff"/>
    </clipPath>
  </defs>
  <g>
    <g>
      <path d="M2.5,115h56a2.1,2.1,0,0,0,2.1-2.1V42.5a3.3,3.3,0,0,0-3.3-3.3H3.3A3.3,3.3,0,0,0,0,42.5v70A2.5,2.5,0,0,0,2.5,115Z" fill="#fff"/>
      <g clip-path="url(#a)">
        <path d="M52.3,15.3H8.1a1.9,1.9,0,0,0-1.9,1.9V35.9a1.9,1.9,0,0,0,1.9,1.9H52.3a2,2,0,0,0,1.9-1.9V17.2a2,2,0,0,0-1.9-1.9" fill="#ab1738"/>
        <path d="M52,22.6a1.1,1.1,0,0,1-1,1H9.4a1,1,0,0,1-1-1v-5H52Z" fill="#fff"/>
        <path d="M57.3,56.1V45.4a2.6,2.6,0,0,0-2.6-2.6H6a2.6,2.6,0,0,0-2.6,2.6V56.1A2.6,2.6,0,0,0,6,58.7H17.6a2.6,2.6,0,0,1,2.6,2.6V93a2.6,2.6,0,0,1-2.6,2.6H6a2.5,2.5,0,0,0-2.6,2.6v10.7A2.6,2.6,0,0,0,6,111.5H54.7a2.6,2.6,0,0,0,2.6-2.6V98.2a2.6,2.6,0,0,0-2.6-2.6H43.3A2.6,2.6,0,0,1,40.7,93V61.3a2.6,2.6,0,0,1,2.6-2.6H54.7A2.6,2.6,0,0,0,57.3,56.1Z" fill="#575756"/>
      </g>
    </g>
    <g>
      <path d="M51.4,16.3,47.5,2.8A4,4,0,0,0,43.8,0H17.1a3.9,3.9,0,0,0-3.7,2.9L9.7,16.3Z" fill="#fff"/>
      <path d="M52.1,15.8H8.9A2,2,0,0,0,7,17.7V35.9a2,2,0,0,0,1.9,1.9H52.1a1.9,1.9,0,0,0,1.8-1.9V17.7a1.9,1.9,0,0,0-1.8-1.9" fill="#fff"/>
      <path d="M22.3,0h0c0,1.1-.3,1.9-.7,1.9H17.7c-.4,0-.7-.8-.7-1.9h0" fill="#575756"/>
      <path d="M44.1,0h0c0,1.1-.4,1.9-.8,1.9H39.4c-.4,0-.7-.8-.7-1.9h0" fill="#575756"/>
    </g>
  </g>
</svg>
