<svg xmlns="http://www.w3.org/2000/svg" viewBox="0 0 28.9 35.4">
  <path d="M2.2,0H26.7a2.2,2.2,0,0,1,2.2,2.2V7H0V2.2A2.2,2.2,0,0,1,2.2,0ZM14.6,10.9a10.8,10.8,0,0,1,9.8,6.2H20.9a7.9,7.9,0,0,0-6.3-3.2,7.7,7.7,0,0,0-7.8,7.7,7.8,7.8,0,0,0,7.8,7.8,7.7,7.7,0,0,0,6.3-3.3h3.5A10.8,10.8,0,0,1,3.8,21.6,10.7,10.7,0,0,1,14.6,10.9Zm8.5-9.5a2.2,2.2,0,0,0-2.2,2.2,2.3,2.3,0,1,0,2.2-2.2ZM14.8,2.8a1.1,1.1,0,0,0-1,1.1,1.1,1.1,0,0,0,1,1,1.1,1.1,0,0,0,1.1-1,1.1,1.1,0,0,0-1.1-1.1Zm-3.2,0a1.1,1.1,0,0,0-1.1,1.1,1.1,1.1,0,0,0,1.1,1,1.1,1.1,0,0,0,1-1,1.1,1.1,0,0,0-1-1.1Zm-3.4,0a1,1,0,0,0-1,1.1,1,1,0,1,0,2,0,1,1,0,0,0-1-1.1Zm-3.3,0a1.1,1.1,0,0,0-1,1.1,1.1,1.1,0,0,0,1,1A1.1,1.1,0,0,0,6,3.9,1.1,1.1,0,0,0,4.9,2.8ZM21,18.2A17.3,17.3,0,0,1,21,25h4.9a13.1,13.1,0,0,0,0-6.8Zm-7.3,10a10,10,0,0,1-3.2-7.6,10.6,10.6,0,0,1,1.1-4.8A6.4,6.4,0,0,0,8,21.6a6.7,6.7,0,0,0,5.7,6.6ZM28.9,8.6H0V33.2a2.2,2.2,0,0,0,2.2,2.2H26.7a2.2,2.2,0,0,0,2.2-2.2Z" fill="#ef7c84" fill-rule="evenodd"/>
</svg>
