<svg xmlns="http://www.w3.org/2000/svg" viewBox="0 0 31.3 36.3">
  <g>
    <g>
      <rect x="24.1" y="6.6" width="1.5" height="2.19" transform="translate(4.3 23.7) rotate(-55)" fill="#3696d3"/>
      <rect x="24.8" y="4.5" width="2.5" height="3.23" transform="translate(6.1 23.9) rotate(-55)" fill="#3696d3"/>
      <polygon points="26 8.1 24.2 6.9 24.4 6.5 26.2 7.7 26 8.1" fill="#13110c" opacity="0.3"/>
    </g>
    <g>
      <rect x="14.1" y="2.6" width="3.2" height="3.31" fill="#3696d3"/>
      <rect x="11" width="9.2" height="2.58" fill="#3696d3"/>
      <rect x="14.1" y="2.6" width="3.2" height="0.56" fill="#13110c" opacity="0.3"/>
    </g>
    <path d="M28.3,11.4,15.7,20.6V5A15.7,15.7,0,0,1,28.3,11.4Z" fill="#d72116"/>
    <path d="M31.3,20.6A15.7,15.7,0,1,1,15.7,5V20.6l12.6-9.2A15.6,15.6,0,0,1,31.3,20.6Z" fill="#fff"/>
    <path d="M17.2,35.8a14.6,14.6,0,1,1,12.5-22,15.6,15.6,0,1,0-14,22.5,14.5,14.5,0,0,0,5.9-1.2A15.6,15.6,0,0,1,17.2,35.8Z" fill="#13110c" opacity="0.3"/>
    <g>
      <rect x="15.3" y="6.3" width="0.7" height="2.6" fill="#5e5a59"/>
      <rect x="8.8" y="8.1" width="0.7" height="2.6" transform="translate(-3.5 5.8) rotate(-30)" fill="#5e5a59"/>
      <rect x="4.1" y="12.8" width="0.7" height="2.6" transform="translate(-10 10.9) rotate(-60)" fill="#5e5a59"/>
      <rect x="1.4" y="20.3" width="2.6" height="0.68" fill="#5e5a59"/>
      <rect x="3.1" y="26.8" width="2.6" height="0.68" transform="translate(-13 5.8) rotate(-30)" fill="#5e5a59"/>
      <rect x="7.9" y="31.5" width="2.6" height="0.68" transform="translate(-23 23.8) rotate(-60)" fill="#5e5a59"/>
      <rect x="15.3" y="32.3" width="0.7" height="2.6" fill="#5e5a59"/>
      <rect x="21.8" y="30.6" width="0.7" height="2.6" transform="translate(-13 15.4) rotate(-30)" fill="#5e5a59"/>
      <rect x="26.6" y="25.8" width="0.7" height="2.6" transform="translate(-10 36.9) rotate(-60)" fill="#5e5a59"/>
      <rect x="27.3" y="20.3" width="2.6" height="0.68" fill="#5e5a59"/>
      <rect x="25.6" y="13.8" width="2.6" height="0.68" transform="translate(-3.5 15.3) rotate(-29.9)" fill="#5e5a59"/>
      <rect x="20.8" y="9" width="2.6" height="0.68" transform="translate(2.9 23.9) rotate(-60)" fill="#5e5a59"/>
    </g>
    <path d="M17.2,5.1H14.1a15.7,15.7,0,1,0,3.1,0ZM15.7,34.5A13.9,13.9,0,1,1,29.5,20.6,13.9,13.9,0,0,1,15.7,34.5Z" fill="#096aa9"/>
    <path d="M.5,21.1A15.6,15.6,0,0,1,26.9,9.8,15.2,15.2,0,0,0,15.7,5,15.6,15.6,0,0,0,4.8,31.9,15.4,15.4,0,0,1,.5,21.1Z" fill="#fff" opacity="0.3"/>
    <g>
      <path d="M18,20.6a1.9,1.9,0,1,1-3.8,0c0-1,1.9-9.4,1.9-9.4S18,19.6,18,20.6Z" fill="#13110c" opacity="0.3"/>
      <path d="M17.5,20.6a1.8,1.8,0,0,1-1.8,1.9,1.8,1.8,0,0,1-1.9-1.9c0-1,1.9-9.4,1.9-9.4S17.5,19.6,17.5,20.6Z" fill="#f28d00"/>
      <path d="M17.1,20.6a1.5,1.5,0,0,1-1.4,1.5,1.5,1.5,0,0,1-1.5-1.5,1.4,1.4,0,0,1,1.5-1.4A1.4,1.4,0,0,1,17.1,20.6Z" fill="#f9b100"/>
      <path d="M14.6,21a1.6,1.6,0,0,1,1.5-1.6h.2l-.6-.2a1.4,1.4,0,0,0-1.4,1.4,1.6,1.6,0,0,0,.5,1.1A2.4,2.4,0,0,1,14.6,21Z" fill="#fff" opacity="0.3"/>
    </g>
  </g>
</svg>
