<svg viewBox="0 0 26 26" fill="black" xmlns="http://www.w3.org/2000/svg">
<path d="M5.29999 16.8H3.89999V18.2H5.29999V16.8Z"/>
<path d="M5.29999 13.5H3.89999V14.9H5.29999V13.5Z"/>
<path d="M5.29999 10.2H3.89999V11.6H5.29999V10.2Z"/>
<path d="M5.29999 20H3.89999V21.4H5.29999V20Z"/>
<path d="M6.89999 16.8V18.2H12.3C12.1 17.7 12 17.3 11.9 16.8H6.89999Z"/>
<path d="M6.89999 13.5V14.9H11.7C11.7 14.4 11.8 13.9 11.9 13.5H6.89999Z"/>
<path d="M6.89999 10.2V11.6H12.5C12.8 11.1 13.1 10.6 13.4 10.2H6.89999Z"/>
<path d="M13.4 20H6.89999V21.4H14.9C14.3 21 13.8 20.5 13.4 20Z"/>
<path d="M17.6 24C17.6 24.3 17.3 24.6 17 24.6H2.29999C1.99999 24.6 1.70001 24.3 1.70001 24V6C1.70001 5.7 1.99999 5.39999 2.29999 5.39999H3.70001V4H2.29999C1.19999 4 0.299988 4.9 0.299988 6V24C0.299988 25.1 1.19999 26 2.29999 26H17C18.1 26 19 25.1 19 24V22.8C18.5 22.8 18 22.7 17.6 22.6V24Z"/>
<path d="M19 6C19 4.9 18.1 4 17 4H15.6V5.39999H17C17.3 5.39999 17.6 5.7 17.6 6V7.7C18.1 7.6 18.5 7.5 19 7.5V6Z"/>
<path d="M13.7 2.60001H12.3C12 1.50001 10.9 0.600006 9.70001 0.600006C8.50001 0.600006 7.40001 1.40001 7.10001 2.60001H5.70001C5.30001 2.60001 5 2.9 5 3.3V7.10001H14.5V3.3C14.4 2.9 14.1 2.60001 13.7 2.60001ZM13 5.60001H6.29999V4H7.60001C8.00001 4 8.29999 3.7 8.29999 3.3C8.29999 2.6 8.90001 2 9.60001 2C10.3 2 10.9 2.6 10.9 3.3C10.9 3.7 11.2 4 11.6 4H12.9V5.60001H13Z"/>
<path d="M19.3 21.4C15.8 21.4 13 18.6 13 15.1C13 11.6 15.8 8.8 19.3 8.8C22.8 8.8 25.6 11.6 25.6 15.1C25.6 18.6 22.7 21.4 19.3 21.4ZM19.3 10.3C16.6 10.3 14.4 12.5 14.4 15.2C14.4 17.9 16.6 20.1 19.3 20.1C22 20.1 24.2 17.9 24.2 15.2C24.1 12.5 22 10.3 19.3 10.3Z"/>
<path d="M19.1 17.8L16.3 15.5L17.2 14.4L18.9 15.8L21.3 12.6L22.5 13.5L19.1 17.8Z"/>
</svg>
