<svg viewBox="0 0 29 19" fill="black" xmlns="http://www.w3.org/2000/svg">
<path d="M29 10.5C29 10.4 29 10.2 28.9 10.1C23.7 0.100014 18.6 1.33486e-05 17.8 0.100013C17.8 0.100013 17.7 0.100013 17.6 0.100013H2.4C1.1 0.100013 0.0999985 1.1 0.0999985 2.4V14.1C0.0999985 15.4 1.1 16.4 2.4 16.4H2.5C2.5 16.2 2.4 15.9 2.4 15.7C2.4 15.5 2.4 15.2 2.5 15H2.4C1.9 15 1.5 14.6 1.5 14.1V2.4C1.5 1.9 1.9 1.50001 2.4 1.50001H17.6C17.7 1.50001 17.7 1.50001 17.8 1.50001C17.9 1.50001 21.6 1.2 25.9 7.9H20.1C18.9 7.9 18.8 6.80001 18.8 6.50001V3.80001C18.8 3.40001 18.5 3.10001 18.1 3.10001C17.7 3.10001 17.4 3.40001 17.4 3.80001V6.50001C17.4 7.60001 18.1 9.30001 20.1 9.30001H26.8C27.1 9.70001 27.3 10.2 27.6 10.7V14.2C27.6 14.7 27.3 15 26.8 15.1C26.8 15.3 26.9 15.6 26.9 15.8C26.9 16 26.9 16.3 26.8 16.5C28 16.4 29 15.4 29 14.2V10.7C29 10.6 29 10.5 29 10.5Z"/>
<path d="M22.3 12.4C20.7 12.4 19.4 13.5 19.1 15H10.1C9.8 13.5 8.5 12.4 6.9 12.4C5.1 12.4 3.6 13.9 3.6 15.7C3.6 17.5 5.1 19 6.9 19C8.5 19 9.8 17.9 10.1 16.4H19.1C19.4 17.9 20.7 19 22.3 19C24.1 19 25.6 17.5 25.6 15.7C25.6 13.9 24.2 12.4 22.3 12.4ZM6.9 17.6C5.9 17.6 5 16.8 5 15.7C5 14.7 5.8 13.8 6.9 13.8C7.9 13.8 8.8 14.6 8.8 15.7C8.8 16.8 8 17.6 6.9 17.6ZM22.3 17.6C21.3 17.6 20.4 16.8 20.4 15.7C20.4 14.7 21.2 13.8 22.3 13.8C23.3 13.8 24.2 14.6 24.2 15.7C24.2 16.8 23.4 17.6 22.3 17.6Z"/>
<path d="M11.1 4C8.9 4 7.2 5.80001 7.2 8.10001C7.2 9.20001 7.5 9.9 7.9 10.5C8.6 11.3 9.6 11.7 10.1 13.1C10.1 13.1 10.2 13.6 11 13.6H11.3C12.1 13.6 12.2 13.1 12.2 13.1C12.6 11.7 13.7 11.3 14.4 10.5C14.9 9.9 15.1 9.20001 15.1 8.10001C15 5.80001 13.3 4 11.1 4ZM13.4 9.60001C13.2 9.80001 13 10 12.8 10.1C12.5 10.4 12.1 10.7 11.7 11.1V9.10001L12.6 8.2C12.8 8 12.8 7.6 12.6 7.3C12.4 7.1 12 7.1 11.7 7.3L11 8L10.3 7.3C10.1 7.1 9.7 7.1 9.4 7.3C9.2 7.5 9.2 7.9 9.4 8.2L10.3 9.10001V11.2C9.9 10.7 9.5 10.4 9.2 10.1C9 9.90001 8.8 9.70001 8.6 9.60001C8.3 9.20001 8.1 8.7 8.1 8C8.1 6.4 9.3 5.10001 10.8 5.10001C12.3 5.10001 13.5 6.4 13.5 8C13.8 8.9 13.6 9.30001 13.4 9.60001Z"/>
<path d="M11.1 3.60001C11.4 3.60001 11.7 3.3 11.7 3V2.3C11.7 2 11.4 1.7 11.1 1.7C10.8 1.7 10.5 2 10.5 2.3V3C10.5 3.3 10.7 3.60001 11.1 3.60001Z"/>
<path d="M7.3 3.80001L6.7 3.2C6.5 3 6.1 3 5.8 3.2C5.6 3.4 5.6 3.80001 5.8 4.10001L6.4 4.7C6.5 4.8 6.7 4.9 6.8 4.9C7 4.9 7.1 4.8 7.2 4.7C7.5 4.4 7.5 4.00001 7.3 3.80001Z"/>
<path d="M16.3 3.2C16.1 3 15.7 3 15.4 3.2L14.8 3.80001C14.6 4.00001 14.6 4.4 14.8 4.7C14.9 4.8 15.1 4.9 15.2 4.9C15.4 4.9 15.5 4.8 15.6 4.7L16.2 4.10001C16.6 3.90001 16.6 3.5 16.3 3.2Z"/>
</svg>
