<svg viewBox="0 0 60 73" fill="black" xmlns="http://www.w3.org/2000/svg">
<path d="M24.14 45.73L20.1 42.49L21.66 40.54L23.72 42.19L27.05 37.87L29.03 39.4L24.14 45.73Z" />
<path d="M24.14 54.9201L20.1 51.6801L21.66 49.7301L23.72 51.3701L27.05 47.0601L29.03 48.5801L24.14 54.9201Z" />
<path d="M24.14 64.1L20.1 60.86L21.66 58.91L23.72 60.55L27.05 56.24L29.03 57.77L24.14 64.1Z" />
<path d="M54.26 14.85H26.89L26.48 14.92V14.95C26.22 15.03 25.98 15.15 25.76 15.33L12.8 26.23C12.41 26.56 12.19 27 12.12 27.47H12.09V67.88C12.09 70.63 14.34 72.88 17.09 72.88H54.26C57.01 72.88 59.26 70.63 59.26 67.88V19.85C59.26 17.1 57.01 14.85 54.26 14.85ZM55.76 67.87C55.76 68.68 55.07 69.37 54.26 69.37H17.09C16.28 69.37 15.59 68.68 15.59 67.87V29.11L26.57 19.88V29.62H21.29V33.12H30.06L30.07 18.35H54.26C55.07 18.35 55.76 19.04 55.76 19.85V67.87Z" />
<path d="M49.26 63.03H33.52C32.55 63.03 31.77 62.25 31.77 61.28C31.77 60.31 32.55 59.53 33.52 59.53H49.25C50.22 59.53 51 60.31 51 61.28C51.01 62.25 50.22 63.03 49.26 63.03Z" />
<path d="M49.26 53.3199H33.52C32.55 53.3199 31.77 52.5399 31.77 51.5699C31.77 50.6099 32.55 49.8199 33.52 49.8199H49.25C50.22 49.8199 51 50.6099 51 51.5699C51.01 52.5399 50.22 53.3199 49.26 53.3199Z" />
<path d="M49.26 43.6H33.52C32.55 43.6 31.77 42.82 31.77 41.85C31.77 40.88 32.55 40.1 33.52 40.1H49.25C50.22 40.1 51 40.88 51 41.85C51.01 42.82 50.22 43.6 49.26 43.6Z" />
<path d="M42.3 0.51001H14.94L14.53 0.570009V0.60001C14.27 0.67001 14.03 0.800009 13.81 0.980009L0.840006 11.89C0.450006 12.22 0.230006 12.66 0.160006 13.13L0.130005 13.12V53.53C0.130005 56.28 2.38001 58.53 5.13001 58.53H8.17V55.03H5.13001C4.32001 55.03 3.63 54.34 3.63 53.53V14.77L14.61 5.54001V15.27H9.34001V18.77H18.11V4.01001H42.3C43.12 4.01001 43.8 4.69001 43.8 5.51001V11.27H47.3V5.51001C47.3 2.76001 45.05 0.51001 42.3 0.51001Z" />
</svg>
