<svg viewBox="0 0 30 19" fill="black" xmlns="http://www.w3.org/2000/svg">
<path d="M29.2 10.5C29.2 10.4 29.2 10.2 29.1 10.1C23.9 0.100014 18.8 1.33486e-05 18 0.100013C18 0.100013 17.9 0.100013 17.8 0.100013H2.60001C1.30001 0.100013 0.300003 1.1 0.300003 2.4V14.1C0.300003 15.4 1.30001 16.4 2.60001 16.4H2.7C2.7 16.2 2.60001 15.9 2.60001 15.7C2.60001 15.5 2.6 15.2 2.7 15H2.60001C2.10001 15 1.7 14.6 1.7 14.1V2.4C1.7 1.9 2.10001 1.50001 2.60001 1.50001H17.8C17.9 1.50001 17.9 1.50001 18 1.50001C18.1 1.50001 21.8 1.2 26.1 7.9H20.3C19.1 7.9 19 6.80001 19 6.50001V3.80001C19 3.40001 18.7 3.10001 18.3 3.10001C17.9 3.10001 17.6 3.40001 17.6 3.80001V6.50001C17.6 7.60001 18.3 9.30001 20.3 9.30001H27C27.3 9.70001 27.5 10.2 27.8 10.7V14.2C27.8 14.7 27.5 15 27 15.1C27 15.3 27.1 15.6 27.1 15.8C27.1 16 27.1 16.3 27 16.5C28.2 16.4 29.2 15.4 29.2 14.2V10.7C29.2 10.6 29.2 10.5 29.2 10.5Z"/>
<path d="M22.5 12.4C20.9 12.4 19.6 13.5 19.3 15H10.3C10 13.5 8.70001 12.4 7.10001 12.4C5.30001 12.4 3.8 13.9 3.8 15.7C3.8 17.5 5.30001 19 7.10001 19C8.70001 19 10 17.9 10.3 16.4H19.3C19.6 17.9 20.9 19 22.5 19C24.3 19 25.8 17.5 25.8 15.7C25.8 13.9 24.4 12.4 22.5 12.4ZM7.2 17.6C6.2 17.6 5.3 16.8 5.3 15.7C5.3 14.7 6.1 13.8 7.2 13.8C8.2 13.8 9.10001 14.6 9.10001 15.7C9.00001 16.8 8.2 17.6 7.2 17.6ZM22.5 17.6C21.5 17.6 20.6 16.8 20.6 15.7C20.6 14.7 21.4 13.8 22.5 13.8C23.5 13.8 24.4 14.6 24.4 15.7C24.4 16.8 23.6 17.6 22.5 17.6Z"/>
<path d="M11.9 3.10001H10.3V11.5H11.9V3.10001Z"/>
<path d="M15.3 6.5H6.89999V8.10001H15.3V6.5Z"/>
<path d="M9.89999 2.5L11.1 3.8L12.4 2.5"/>
<path d="M11.1 4.89999L9.3 3.10001L10.5 1.89999L11.1 2.60001L11.8 1.89999L13 3.10001L11.1 4.89999Z"/>
<path d="M12.4 12.2L11.2 10.9L9.89999 12.2"/>
<path d="M10.5 12.8L9.3 11.6L11.2 9.8L13 11.6L11.8 12.7L11.2 12.1L10.5 12.8Z"/>
<path d="M16 6.10001L14.7 7.3L16 8.60001"/>
<path d="M15.4 9.2L13.6 7.3L15.4 5.5L16.5 6.7L15.9 7.3L16.6 8L15.4 9.2Z"/>
<path d="M6.3 8.60001L7.60001 7.3L6.3 6.10001"/>
<path d="M6.89999 9.2L5.8 8L6.39999 7.3L5.7 6.7L6.89999 5.5L8.7 7.3L6.89999 9.2Z"/>
<path d="M13.276 4.01585L7.76067 9.53124L8.89203 10.6626L14.4074 5.14722L13.276 4.01585Z"/>
<path d="M8.89202 4.01585L7.76067 5.14721L13.276 10.6626L14.4074 9.53124L8.89202 4.01585Z"/>
</svg>
