<svg viewBox="0 0 78 60" fill="black" xmlns="http://www.w3.org/2000/svg">
<path d="M11.6 51.1C11.6 51.7 11.7 52.2001 11.7 52.8001H11.5C8.3 52.8001 5.7 50.2 5.7 47V32.5H9.2V47.1C9.2 48.3 10.2 49.3001 11.4 49.3001H11.6C11.6 49.9001 11.6 50.5 11.6 51.1Z" />
<path d="M77.5 38.5V47.1C77.5 50.2 75.1 52.7001 72.1 52.8001C72.2 52.2001 72.2 51.7 72.2 51.1C72.2 50.5 72.1 49.9001 72 49.3001C73.1 49.1001 73.9 48.2 73.9 47.1V38.5C73.3 37.3 72.6 36.1 72 35C72 35 72 35 71.9 35H55.5C50.5 35 48.7 30.8 48.7 28V21.3C48.7 20.3 49.5 19.5 50.5 19.5C51.5 19.5 52.3 20.3 52.3 21.3V28C52.3 28.8 52.6 31.5 55.6 31.5H70C59.1 14.9 50.1 15.8001 49.8 15.7001C49.5 15.7001 49.5 15.7001 49.2 15.7001H25.5C25.6 15.3001 25.6 14.9 25.6 14.5C25.6 14.2 25.6 13.8 25.6 13.5C25.6 13.1 25.6 12.7 25.6 12.3H49.3C49.4 12.3 49.6 12.3 49.7 12.3C51.8 12.2 64.4 12.4 77.3 37.2C77.5 37.5 77.5 37.9 77.5 38.2C77.5 38.3 77.5 38.4 77.5 38.5Z" />
<path d="M61 43C57.1 43 53.9 45.7001 53.1 49.4001H30.8C30 45.8001 26.7 43 22.8 43C18.3 43 14.6 46.7 14.6 51.2C14.6 55.7 18.3 59.3001 22.8 59.3001C26.7 59.3001 30 56.5001 30.8 52.9001H53C53.8 56.6001 57.1 59.3001 61 59.3001C65.5 59.3001 69.2 55.6 69.2 51.2C69.1 46.6 65.5 43 61 43ZM22.8 55.8001C20.2 55.8001 18.1 53.7 18.1 51.2C18.1 48.6 20.2 46.5 22.8 46.5C25.4 46.5 27.5 48.6 27.5 51.2C27.5 53.7 25.4 55.8001 22.8 55.8001ZM61 55.8001C58.4 55.8001 56.4 53.7 56.4 51.2C56.4 48.6 58.5 46.5 61 46.5C63.6 46.5 65.7 48.6 65.7 51.2C65.6 53.7 63.5 55.8001 61 55.8001Z" />
<path d="M23.2 26.7001H22.7V20.9001C22.7 17.9001 19.8 16.5 18 15.6C17.8 15.5 17.6 15.4 17.3 15.3C17.5 15.2 17.8 15 18 15C19.7 14.1 22.7 12.6001 22.7 9.70005C22.7 8.90005 22.7 5.50005 22.7 3.90005H23.2C24.2 3.90005 25 3.10005 25 2.10005C25 1.10005 24.2 0.300049 23.2 0.300049H2.3C1.3 0.300049 0.5 1.10005 0.5 2.10005C0.5 3.10005 1.3 3.90005 2.3 3.90005H2.7C2.7 4.60005 2.7 5.60005 2.7 6.60005V9.70005C2.7 12.7001 5.6 14.1 7.4 15C7.6 15.1 7.8 15.2 8.1 15.3C7.9 15.4 7.6 15.6 7.4 15.6C5.7 16.5 2.7 18.0001 2.7 20.9001C2.7 21.5001 2.7 23.4 2.7 25C2.7 25.7 2.7 26.3001 2.7 26.7001H2.3C1.3 26.7001 0.5 27.5 0.5 28.5C0.5 29.5 1.3 30.3 2.3 30.3H23.2C24.2 30.3 25 29.5 25 28.5C25 27.5 24.2 26.7001 23.2 26.7001ZM15.8 26.7001H9.7C10.1 25.5001 10.8 24.7 11.1 24.3C11.9 23.5 12.6 23.3 12.7 23.3C13.2 23.4 15.1 24.7001 15.8 26.7001ZM11.7 15.8V14.7001C11.7 14.6001 11.7 14.5001 11.7 14.4001C11.5 13.1001 10.3 12.5 9 11.8C7.9 11.3 6.3 10.4 6.3 9.60005V6.20005C6.3 5.30005 6.3 4.40005 6.3 3.70005H19.4C19.4 5.30005 19.4 8.70005 19.4 9.50005C19.4 10.3 17.8 11.1001 16.7 11.7001C15.4 12.4001 14.2 13 14 14.3V15.7001C14 17.2001 15.4 17.9 16.8 18.6C17.9 19.1 19.5 20 19.5 20.8V26C18.5 22.4 15.4 19.8 12.9 19.8C11.6 19.8 10.1 20.5 8.8 21.8C7.6 23 6.8 24.5 6.4 26.1C6.4 25.8 6.4 25.4 6.4 25C6.4 23.3 6.4 21.4 6.4 20.8C6.4 20 8 19.2 9.1 18.6C10.3 18 11.7 17.3 11.7 15.8Z" />
<path d="M16.9 9.20005C17.2 9.00005 17.5 8.70005 17.6 8.30005C17.7 7.90005 17.6 7.50005 17.4 7.20005C17.2 6.90005 16.9 6.60005 16.5 6.50005C16.1 6.40005 15.7 6.50005 15.4 6.70005C14.4 7.30005 13.4 7.80005 13.1 8.00005C12.7 7.90005 11.8 7.40005 10.8 6.80005C10.1 6.40005 9.2 6.60005 8.8 7.30005C8.4 8.00005 8.6 8.90005 9.3 9.30005C12.1 11 12.9 11 13.1 11C13.3 10.9 14.1 10.9001 16.9 9.20005Z" />
</svg>
