<svg viewBox="0 0 501 508" fill="black" xmlns="http://www.w3.org/2000/svg">
<path d="M235.44 46.9341L213.5 31.015H240.586L249.015 5.16727L257.376 31.015H284.466L262.514 46.9301L270.882 72.7132L249.027 56.8485L227 72.7294L235.44 46.9341Z" />
<path d="M227 76.9597C226.123 76.9597 225.248 76.6875 224.504 76.1451C223.026 75.0643 222.411 73.1568 222.979 71.4167L230.462 48.5472L211.016 34.4387C209.532 33.362 208.911 31.4545 209.478 29.7104C210.044 27.9682 211.668 26.7867 213.5 26.7867H237.517L244.994 3.85664C245.561 2.11652 247.184 0.938965 249.015 0.938965C249.017 0.938965 249.019 0.938965 249.019 0.938965C250.851 0.940981 252.473 2.12256 253.037 3.86671L260.451 26.7867H284.466C286.299 26.7867 287.922 27.9682 288.489 29.7104C289.053 31.4545 288.432 33.362 286.948 34.4387L267.484 48.5492L274.905 71.4066C275.469 73.1488 274.85 75.0563 273.368 76.133C271.886 77.2097 269.88 77.2097 268.398 76.135L249.017 62.0669L229.472 76.1592C228.736 76.6915 227.869 76.9577 227 76.9597ZM226.53 35.2433L237.925 43.5103C239.411 44.5891 240.032 46.5026 239.461 48.2488L235.057 61.71L246.555 53.4187C248.035 52.35 250.035 52.3541 251.511 53.4268L262.849 61.6555L258.493 48.2367C257.927 46.4925 258.55 44.583 260.034 43.5083L271.432 35.2453H257.378C255.544 35.2453 253.92 34.0637 253.356 32.3175L249.003 18.8583L244.611 32.3276C244.044 34.0677 242.421 35.2453 240.59 35.2453H226.53V35.2433Z" />
<path d="M235.44 477.531L213.507 461.632H240.586L249.015 435.817L257.376 461.632H284.46L262.514 477.529L270.88 503.347L249.027 487.406L227.004 503.365L235.44 477.531Z" />
<path d="M227.004 507.593C226.129 507.593 225.256 507.323 224.514 506.783C223.034 505.704 222.415 503.794 222.983 502.052L230.464 479.149L211.024 465.058C209.54 463.984 208.919 462.074 209.484 460.33C210.048 458.586 211.674 457.406 213.507 457.406H237.519L244.996 434.506C245.565 432.766 247.186 431.591 249.017 431.591C249.019 431.591 249.021 431.591 249.021 431.591C250.852 431.593 252.475 432.774 253.039 434.516L260.453 457.408H284.462C286.295 457.408 287.92 458.59 288.485 460.334C289.049 462.078 288.426 463.988 286.942 465.062L267.484 479.155L274.903 502.048C275.467 503.792 274.844 505.7 273.36 506.777C271.876 507.851 269.868 507.849 268.388 506.769L249.019 492.64L229.486 506.795C228.746 507.325 227.875 507.593 227.004 507.593ZM226.544 465.863L237.923 474.11C239.409 475.186 240.03 477.1 239.461 478.846L235.067 492.301L246.547 483.982C248.031 482.907 250.039 482.909 251.521 483.99L262.841 492.247L258.493 478.832C257.929 477.088 258.552 475.178 260.036 474.104L271.416 465.861H257.378C255.546 465.861 253.92 464.679 253.356 462.935L249 449.49L244.607 462.945C244.038 464.685 242.417 465.861 240.586 465.861H226.544V465.863Z" />
<path d="M145.741 462.221L123.817 478.13L132.249 452.363L110.231 436.408H137.387L145.741 410.598L154.103 436.408H181.267L159.236 452.363L167.669 478.13L145.741 462.221Z" />
<path d="M167.669 482.359C166.798 482.359 165.927 482.09 165.185 481.552L145.739 467.444L126.299 481.55C124.815 482.627 122.807 482.625 121.325 481.546C119.843 480.467 119.226 478.556 119.796 476.814L127.269 453.978L107.747 439.832C106.263 438.757 105.639 436.847 106.206 435.103C106.771 433.359 108.396 432.179 110.229 432.179H134.31L141.716 409.296C142.281 407.552 143.906 406.37 145.739 406.37C147.572 406.37 149.197 407.552 149.761 409.296L157.176 432.181H181.265C183.098 432.181 184.723 433.363 185.288 435.107C185.852 436.851 185.229 438.761 183.745 439.836L164.213 453.982L171.685 476.82C172.256 478.562 171.639 480.473 170.157 481.552C169.417 482.088 168.542 482.359 167.669 482.359ZM145.741 457.991C146.612 457.991 147.483 458.259 148.225 458.797L159.593 467.046L155.22 453.678C154.649 451.932 155.27 450.016 156.758 448.937L168.221 440.636H154.105C152.272 440.636 150.647 439.455 150.082 437.71L145.745 424.322L141.412 437.708C140.847 439.452 139.222 440.634 137.389 440.634H123.273L134.729 448.937C136.218 450.016 136.839 451.93 136.268 453.676L131.894 467.04L143.257 458.795C143.997 458.261 144.87 457.991 145.741 457.991Z" />
<path d="M67.6492 386.672L45.7234 402.614L54.1457 376.863L32.2561 360.825H59.3842L67.6674 335.092L76.0978 360.825H103.194L81.2314 376.859L89.5933 402.628L67.6492 386.672Z" />
<path d="M89.5933 406.856C88.7202 406.856 87.8471 406.586 87.1071 406.048L67.6513 391.901L48.2115 406.033C46.7275 407.112 44.7192 407.11 43.2372 406.031C41.7552 404.953 41.1361 403.041 41.7068 401.299L49.1754 378.462L29.7578 364.236C28.2819 363.155 27.6689 361.248 28.2375 359.51C28.8061 357.772 30.4273 356.596 32.2561 356.596H56.3032L63.6427 333.795C64.2033 332.051 65.8244 330.868 67.6573 330.864C67.6613 330.864 67.6654 330.864 67.6674 330.864C69.4942 330.864 71.1174 332.039 71.686 333.775L79.1626 356.596H103.196C105.026 356.596 106.648 357.774 107.216 359.514C107.783 361.254 107.168 363.162 105.69 364.24L86.2017 378.468L93.6179 401.323C94.1825 403.065 93.5615 404.975 92.0794 406.05C91.3354 406.588 90.4643 406.856 89.5933 406.856ZM67.6492 382.444C68.5223 382.444 69.3954 382.714 70.1354 383.253L81.552 391.554L77.2068 378.161C76.6422 376.423 77.2592 374.518 78.7352 373.441L90.2264 365.051H76.0978C74.2689 365.051 72.6478 363.875 72.0792 362.139L67.7037 348.781L63.4109 362.119C62.8483 363.867 61.2211 365.053 59.3862 365.053H45.185L56.648 373.451C58.124 374.532 58.7369 376.439 58.1683 378.177L53.8069 391.512L65.1671 383.253C65.9051 382.714 66.7782 382.444 67.6492 382.444Z" />
<path d="M26.4107 265.997L4.47875 250.08H31.5504L39.9929 224.245L48.3547 250.08H75.5191L53.5872 265.997L61.947 291.837L40.003 275.892L18.0468 291.837L26.4107 265.997Z" />
<path d="M18.0468 296.065C17.1758 296.065 16.3047 295.797 15.5627 295.259C14.0807 294.184 13.4596 292.276 14.0242 290.534L21.4424 267.614L1.9946 253.502C0.512576 252.425 -0.11048 250.518 0.456117 248.774C1.02271 247.031 2.64588 245.85 4.47875 245.85H28.4835L35.9723 222.932C36.5409 221.194 38.162 220.016 39.9909 220.016C39.9929 220.016 39.9949 220.016 39.9969 220.016C41.8278 220.018 43.4509 221.2 44.0135 222.942L51.4296 245.852H75.5191C77.352 245.852 78.9751 247.031 79.5417 248.776C80.1083 250.52 79.4873 252.427 78.0032 253.504L58.5555 267.616L65.9696 290.536C66.5322 292.279 65.9111 294.186 64.4291 295.261C62.9471 296.335 60.9408 296.335 59.4608 295.259L40.0009 281.12L20.531 295.261C19.791 295.797 18.9179 296.065 18.0468 296.065ZM17.5064 254.308L28.8948 262.574C30.3769 263.648 30.9979 265.556 30.4353 267.298L26.0699 280.785L37.5188 272.47C39.0008 271.393 41.0071 271.393 42.4891 272.47L53.9279 280.781L49.5645 267.296C49.002 265.554 49.623 263.646 51.105 262.572L62.4934 254.306H48.3547C46.5218 254.306 44.8967 253.125 44.3321 251.381L39.9727 237.918L35.569 251.395C35.0004 253.133 33.3792 254.31 31.5504 254.31H17.5064V254.308Z" />
<path d="M65.1792 165.131L43.2271 181.044L51.593 155.237L29.7276 139.297H56.7286L65.1792 113.434L73.6318 139.297H100.703L78.7654 155.235L87.1373 181.044L65.1792 165.131Z" />
<path d="M87.1373 185.272C86.2663 185.272 85.3952 185.004 84.6552 184.468L65.1792 170.353L45.7072 184.468C44.2252 185.543 42.221 185.541 40.7389 184.464C39.2589 183.387 38.6379 181.482 39.2025 179.74L46.6247 156.85L27.2354 142.717C25.7554 141.638 25.1384 139.731 25.705 137.991C26.2716 136.251 27.8947 135.071 29.7256 135.071H53.6597L61.1586 112.123C61.7272 110.385 63.3484 109.207 65.1772 109.207C67.006 109.207 68.6292 110.383 69.1958 112.123L76.6946 135.071H100.701C102.534 135.071 104.157 136.251 104.722 137.993C105.289 139.735 104.668 141.644 103.186 142.721L83.7317 156.854L91.1559 179.742C91.7205 181.484 91.1015 183.389 89.6195 184.466C88.8815 185.002 88.0104 185.272 87.1373 185.272ZM65.1792 160.903C66.0503 160.903 66.9213 161.171 67.6613 161.707L79.1122 170.005L74.7448 156.539C74.1802 154.797 74.7992 152.89 76.2813 151.813L87.6898 143.526H73.6338C71.805 143.526 70.1818 142.35 69.6152 140.61L65.1832 127.046L60.7513 140.61C60.1827 142.348 58.5615 143.526 56.7327 143.526H42.7069L54.0832 151.819C55.5612 152.896 56.1782 154.801 55.6156 156.539L51.2502 170.003L62.6971 161.705C63.4391 161.171 64.3081 160.903 65.1792 160.903Z" />
<path d="M127.134 79.6495L105.208 63.7526H132.378L140.726 37.9472L149.084 63.7526H176.226L154.216 79.6455L162.581 105.513L140.728 89.5821L118.768 105.531L127.134 79.6495Z" />
<path d="M118.768 109.76C117.897 109.76 117.026 109.492 116.284 108.953C114.802 107.879 114.181 105.971 114.743 104.229L122.166 81.2687L102.726 67.1763C101.242 66.1016 100.621 64.1921 101.185 62.448C101.75 60.7038 103.375 59.5243 105.208 59.5243H129.301L136.703 36.6446C137.268 34.9005 138.893 33.7189 140.726 33.7169C142.559 33.7169 144.184 34.8985 144.749 36.6426L152.159 59.5243H176.226C178.061 59.5243 179.686 60.7078 180.249 62.452C180.811 64.1961 180.188 66.1077 178.7 67.1804L159.186 81.2727L166.604 104.211C167.169 105.955 166.546 107.862 165.062 108.937C163.577 110.012 161.571 110.008 160.091 108.929L140.722 94.8105L121.252 108.951C120.512 109.49 119.639 109.76 118.768 109.76ZM118.246 67.9829L129.618 76.2257C131.1 77.3005 131.723 79.2079 131.16 80.9501L126.785 94.4839L138.244 86.1603C139.728 85.0816 141.738 85.0836 143.22 86.1644L154.554 94.4254L150.195 80.946C149.63 79.1999 150.255 77.2904 151.743 76.2157L163.15 67.9788H149.086C147.253 67.9788 145.628 66.7973 145.063 65.0531L140.73 51.6746L136.403 65.0511C135.838 66.7952 134.213 67.9788 132.38 67.9788H118.246V67.9829Z" />
<path d="M352.212 89.5841L330.286 105.511L338.734 79.6495L316.72 63.7526H343.87L352.212 37.9512L360.56 63.7526H387.716L365.713 79.6495L374.16 105.515L352.212 89.5841Z" />
<path d="M374.16 109.744C373.289 109.744 372.416 109.475 371.676 108.937L352.212 94.8085L332.77 108.931C331.286 110.008 329.278 110.008 327.796 108.929C326.314 107.85 325.695 105.939 326.265 104.197L333.754 81.2687L314.244 67.1804C312.756 66.1056 312.131 64.1961 312.695 62.452C313.26 60.7078 314.885 59.5243 316.718 59.5243H340.789L348.185 36.6487C348.75 34.9045 350.375 33.7209 352.208 33.7209C354.043 33.7209 355.666 34.9025 356.23 36.6487L363.63 59.5243H387.71C389.545 59.5243 391.168 60.7058 391.732 62.452C392.297 64.1961 391.672 66.1077 390.186 67.1804L370.684 81.2687L378.172 104.201C378.741 105.943 378.124 107.852 376.642 108.931C375.906 109.473 375.033 109.744 374.16 109.744ZM352.212 85.3558C353.083 85.3558 353.956 85.624 354.696 86.1624L366.094 94.4355L361.695 80.9622C361.124 79.214 361.747 77.2985 363.237 76.2217L374.642 67.9829H360.56C358.727 67.9829 357.101 66.8013 356.537 65.0551L352.214 51.6907L347.893 65.0531C347.328 66.7993 345.703 67.9809 343.87 67.9809H329.8L341.211 76.2197C342.701 77.2964 343.326 79.212 342.755 80.9602L338.357 94.4193L349.728 86.1603C350.468 85.624 351.339 85.3558 352.212 85.3558Z" />
<path d="M419.274 155.235L397.265 139.297H424.43L432.866 113.464L441.228 139.297H468.314L446.378 155.235L454.73 181.028L432.88 165.131L410.845 181.046L419.274 155.235Z" />
<path d="M410.845 185.276C409.97 185.276 409.095 185.006 408.353 184.464C406.875 183.385 406.258 181.476 406.827 179.735L414.3 156.852L394.787 142.723C393.303 141.648 392.68 139.739 393.245 137.995C393.809 136.251 395.434 135.069 397.267 135.069H421.363L428.847 112.151C429.416 110.411 431.037 109.236 432.866 109.236C432.868 109.236 432.87 109.236 432.872 109.236C434.703 109.238 436.326 110.419 436.889 112.161L444.303 135.069H468.312C470.145 135.069 471.768 136.249 472.332 137.991C472.899 139.733 472.278 141.642 470.796 142.719L451.342 156.852L458.748 179.725C459.313 181.468 458.69 183.375 457.208 184.452C455.726 185.526 453.719 185.526 452.237 184.448L432.868 170.353L413.32 184.476C412.584 185.008 411.715 185.276 410.845 185.276ZM410.315 143.526L421.754 151.809C423.242 152.886 423.863 154.801 423.294 156.547L418.897 170.017L430.404 161.703C431.886 160.633 433.888 160.637 435.368 161.711L446.7 169.956L442.355 156.537C441.79 154.795 442.412 152.89 443.894 151.813L455.3 143.526H441.23C439.397 143.526 437.772 142.344 437.207 140.6L432.85 127.139L428.45 140.61C427.882 142.348 426.261 143.526 424.43 143.526H410.315Z" />
<path d="M446.94 260.983L424.99 245.045H452.064L460.502 219.224L468.872 245.045H496.027L474.016 260.983L482.442 286.738L460.51 270.78L438.576 286.75L446.94 260.983Z" />
<path d="M438.576 290.978C437.705 290.978 436.834 290.71 436.092 290.171C434.608 289.095 433.987 287.187 434.554 285.443L441.968 262.6L422.504 248.469C421.022 247.392 420.401 245.483 420.968 243.741C421.534 241.999 423.157 240.819 424.99 240.819H448.997L456.482 217.913C457.05 216.175 458.671 214.998 460.5 214.998C460.502 214.998 460.504 214.998 460.504 214.998C462.335 215 463.956 216.181 464.521 217.921L471.943 240.819H496.02C497.853 240.819 499.479 242.001 500.043 243.745C500.608 245.489 499.985 247.398 498.501 248.473L478.988 262.602L486.457 285.425C487.027 287.167 486.408 289.081 484.926 290.159C483.444 291.238 481.434 291.238 479.95 290.159L460.504 276.013L441.059 290.169C440.323 290.708 439.45 290.978 438.576 290.978ZM438.012 249.276L449.424 257.561C450.906 258.638 451.528 260.545 450.963 262.287L446.622 275.662L458.022 267.362C459.504 266.284 461.515 266.282 462.999 267.362L474.361 275.627L469.999 262.299C469.429 260.553 470.05 258.638 471.538 257.559L482.977 249.276H468.874C467.041 249.276 465.416 248.094 464.852 246.352L460.486 232.889L456.082 246.362C455.514 248.1 453.893 249.278 452.064 249.278H438.012V249.276Z" />
<path d="M419.274 369.227L397.275 353.33H424.428L432.866 327.557L441.23 353.33H468.304L446.378 369.227L454.73 395.072L432.88 379.143L410.843 395.091L419.274 369.227Z" />
<path d="M410.843 399.321C409.968 399.321 409.095 399.051 408.353 398.51C406.873 397.432 406.256 395.524 406.823 393.782L414.297 370.85L394.799 356.76C393.313 355.685 392.688 353.775 393.253 352.031C393.817 350.287 395.443 349.104 397.275 349.104H421.363L428.847 326.242C429.416 324.504 431.037 323.328 432.866 323.328C432.868 323.328 432.87 323.328 432.872 323.328C434.703 323.33 436.324 324.51 436.889 326.252L444.303 349.104H468.304C470.136 349.104 471.76 350.285 472.326 352.027C472.891 353.771 472.27 355.679 470.786 356.756L451.344 370.85L458.752 393.774C459.315 395.518 458.692 397.426 457.208 398.498C455.724 399.573 453.717 399.569 452.237 398.49L432.868 384.37L413.322 398.518C412.584 399.053 411.715 399.319 410.843 399.321ZM410.347 357.558L421.752 365.799C423.242 366.876 423.865 368.789 423.296 370.537L418.893 384.047L430.402 375.717C431.886 374.643 433.892 374.647 435.372 375.725L446.706 383.989L442.357 370.529C441.795 368.787 442.416 366.88 443.9 365.805L455.272 357.56H441.234C439.401 357.56 437.778 356.381 437.211 354.636L432.852 341.201L428.45 354.646C427.882 356.385 426.261 357.56 424.432 357.56H410.347V357.558Z" />
<path d="M354.674 457.184L332.831 473.11L341.176 447.349L319.224 431.355H346.324L354.688 405.566L363.13 431.355H390.246L368.357 447.353L376.725 473.144L354.674 457.184Z" />
<path d="M376.725 477.372C375.856 477.372 374.985 477.104 374.247 476.57L354.682 462.413L335.321 476.529C333.841 477.608 331.832 477.612 330.348 476.537C328.864 475.463 328.241 473.553 328.806 471.811L336.208 448.966L316.734 434.777C315.254 433.698 314.637 431.79 315.204 430.05C315.77 428.31 317.393 427.13 319.224 427.13H343.251L350.667 404.265C351.232 402.523 352.853 401.343 354.684 401.341C354.686 401.341 354.688 401.341 354.69 401.341C356.519 401.341 358.14 402.517 358.709 404.255L366.197 427.133H390.246C392.075 427.133 393.698 428.31 394.267 430.048C394.836 431.788 394.219 433.696 392.743 434.775L373.325 448.964L380.747 471.843C381.312 473.583 380.693 475.491 379.213 476.568C378.473 477.102 377.6 477.372 376.725 477.372ZM354.674 452.956C355.543 452.956 356.414 453.224 357.152 453.759L368.704 462.118L364.336 448.657C363.772 446.919 364.389 445.016 365.863 443.939L377.293 435.585H363.128C361.3 435.585 359.678 434.41 359.11 432.672L354.704 419.214L350.345 432.659C349.78 434.404 348.155 435.583 346.322 435.583H332.206L343.662 443.931C345.14 445.008 345.759 446.913 345.195 448.651L340.866 462.016L352.18 453.767C352.924 453.228 353.799 452.956 354.674 452.956Z" />
<path d="M350.881 216.076C361.106 205.807 363.04 194.243 362.884 186.371L363.05 186.206C362.981 185.016 362.971 184.861 362.971 184.843C362.693 180.155 361.739 177.151 361.739 177.151L361.648 177.239C361.606 177.078 361.58 176.997 361.58 176.997L330.832 207.878L330.413 207.454L303.464 180.625L334.198 149.736C334.198 149.736 334.115 149.706 333.964 149.66L334.042 149.581C334.042 149.581 313.224 142.165 295.679 159.786C278.135 177.411 285.214 198.645 287.959 204.466L254.6 237.901C251.311 235.69 248.075 232.637 246.145 228.513C244.722 225.477 243.605 222.936 242.57 220.678C242.58 220.668 242.597 220.668 242.607 220.66C239.893 214.742 237.788 210.783 232.602 205.245C225.433 197.598 184.425 157.707 184.425 157.707C184.425 157.707 180.055 152.595 173.859 153.17C173.855 153.176 173.851 153.188 173.851 153.196C172.988 153.277 172.083 153.458 171.159 153.789C166.808 155.33 160.365 158.636 155.28 163.443C150.477 168.523 147.168 174.963 145.634 179.316C142.956 186.896 149.584 192.55 149.584 192.55C149.584 192.55 189.478 233.564 197.126 240.73C204.768 247.891 209.383 249.171 220.36 254.301C224.496 256.234 227.557 259.491 229.769 262.795L193.531 299.12C193.531 299.12 169.195 286.724 148.957 307.052C139.02 317.027 137.264 328.418 137.52 336.189L137.456 336.251C137.52 337.445 137.528 337.596 137.532 337.614L137.528 337.618C137.811 342.302 138.768 345.309 138.768 345.309L138.851 345.224C138.893 345.379 138.92 345.464 138.92 345.464L169.56 314.699L196.928 341.95L166.306 372.727C166.306 372.727 166.384 372.753 166.529 372.796L166.451 372.874C166.451 372.874 167.088 373.044 168.203 373.256C169.518 373.572 171.445 373.945 173.823 374.141L174.028 373.933H174.032L173.845 374.127C174.274 374.165 174.726 374.185 175.186 374.211L175.414 373.983C183.344 374.157 195.132 372.413 204.82 362.67C221.07 346.353 216.071 323.01 212.559 318.068L244.526 285.994C247.583 286.818 251.416 285.766 255.124 283.971C255.124 283.967 255.124 283.967 255.124 283.967C257.131 282.989 259.092 281.804 260.879 280.576C260.893 280.566 260.915 280.547 260.933 280.539C261.361 280.249 261.768 279.955 262.165 279.664C262.202 279.638 262.23 279.618 262.26 279.594C262.647 279.305 263.03 279.021 263.387 278.735C263.428 278.711 263.456 278.682 263.492 278.656C263.71 278.485 263.922 278.315 264.131 278.148C283.714 297.63 307.689 321.544 309.953 324.107C316.617 331.662 319.289 336.995 324.176 341.887L345.951 363.664L355.511 354.108L333.73 332.332C328.846 327.444 323.505 324.776 315.95 318.106C311.617 314.281 288.646 291.323 269.854 272.456C271.961 269.877 274.358 266.397 276.02 262.818L276.03 262.828C277.718 259.231 278.661 255.539 277.832 252.581L306.973 223.345C306.973 223.343 331.193 235.851 350.881 216.076Z" />
<path d="M175.186 378.44C175.105 378.44 175.024 378.438 174.944 378.434L174.659 378.417C174.395 378.403 174.123 378.387 173.847 378.369C173.724 378.373 173.599 378.365 173.476 378.355C171.339 378.179 169.266 377.855 167.314 377.391C166.14 377.165 165.437 376.98 165.358 376.96C164.549 376.744 163.838 376.298 163.297 375.693C162.769 375.157 162.384 374.479 162.2 373.725C161.854 372.296 162.269 370.788 163.305 369.745L190.948 341.962L169.57 320.677L141.914 348.446C140.865 349.499 139.337 349.918 137.895 349.561C137.113 349.366 136.415 348.954 135.873 348.392C135.355 347.906 134.959 347.291 134.738 346.591C134.623 346.232 133.61 342.936 133.306 337.873C133.302 337.816 133.3 337.76 133.3 337.703C133.292 337.57 133.284 337.405 133.272 337.187L133.233 336.481C133.217 336.187 133.231 335.894 133.276 335.608C133.124 327.008 135.276 314.793 145.961 304.068C157.533 292.444 170.373 290.678 179.106 291.244C184.911 291.621 189.685 293.051 192.547 294.12L224.163 262.428C222.463 260.517 220.59 259.077 218.568 258.132C216.64 257.23 214.87 256.432 213.309 255.726C205.651 252.268 201.027 250.181 194.236 243.817C186.725 236.778 149.392 198.415 146.66 195.606C146.076 195.076 144.344 193.388 142.918 190.842C140.575 186.66 140.137 182.187 141.65 177.907C142.468 175.588 145.652 167.474 152.211 160.538C152.266 160.479 152.322 160.425 152.379 160.37C159.315 153.815 167.429 150.625 169.752 149.803C170.77 149.44 171.843 149.184 172.937 149.045C173.113 149.004 173.29 148.976 173.472 148.96C181.067 148.258 186.453 153.66 187.473 154.771C190.2 157.423 228.641 194.836 235.691 202.353C241.467 208.523 243.796 213.102 246.454 218.897C246.539 219.081 246.609 219.268 246.664 219.458C246.944 220.073 247.23 220.71 247.529 221.371C248.242 222.956 249.053 224.753 249.976 226.719C250.918 228.729 252.344 230.592 254.235 232.284L282.974 203.478C281.651 199.923 279.913 193.83 279.986 186.511C280.036 181.401 280.964 176.473 282.744 171.86C284.866 166.363 288.211 161.296 292.687 156.802C302.708 146.738 313.748 144.205 321.247 143.85C329.385 143.469 335.222 145.51 335.468 145.597C336.174 145.849 336.789 146.278 337.263 146.831C337.781 147.377 338.152 148.061 338.319 148.815C338.632 150.222 338.22 151.696 337.204 152.718L309.451 180.611L330.83 201.895L358.594 174.013C359.634 172.969 361.148 172.557 362.582 172.902C363.276 173.07 363.905 173.408 364.421 173.872C365.05 174.384 365.528 175.074 365.782 175.872C365.897 176.231 366.905 179.528 367.206 184.595C367.208 184.613 367.208 184.633 367.21 184.651L367.216 184.756C367.226 184.926 367.246 185.27 367.286 185.964C367.314 186.438 367.26 186.906 367.135 187.353C367.111 196.022 364.691 208.215 353.892 219.061C342.584 230.417 329.891 232.008 321.233 231.34C315.516 230.901 310.798 229.443 307.957 228.358L282.339 254.048C282.533 257.148 281.702 260.69 279.859 264.62C279.811 264.725 279.756 264.828 279.7 264.927C278.401 267.655 276.83 270.129 275.449 272.077C307.074 303.814 316.48 312.93 318.748 314.932C322.251 318.025 325.326 320.27 328.038 322.252C331.084 324.478 333.964 326.581 336.722 329.341L358.501 351.116C359.293 351.908 359.739 352.985 359.739 354.106C359.739 355.227 359.293 356.304 358.499 357.096L348.939 366.652C347.288 368.303 344.61 368.303 342.961 366.652L321.186 344.875C318.428 342.113 316.327 339.238 314.101 336.191C312.119 333.479 309.872 330.404 306.783 326.902C305.828 325.817 298.909 318.715 263.75 283.727C263.609 283.826 263.464 283.927 263.317 284.028C263.311 284.032 263.305 284.036 263.299 284.04C263.29 284.046 263.284 284.05 263.276 284.056C261.21 285.477 259.143 286.701 257.13 287.691C257.076 287.72 257.022 287.748 256.967 287.774C252.884 289.75 249.214 290.655 246.022 290.482L217.719 318.88C219.358 322.933 220.616 329.148 220.328 336.27C220.005 344.266 217.574 355.854 207.818 365.65C197.614 375.911 185.387 378.208 176.525 378.22C176.095 378.365 175.643 378.44 175.186 378.44ZM175.414 369.753C175.444 369.753 175.476 369.753 175.506 369.755C182.785 369.912 193.26 368.297 201.824 359.687C216.745 344.708 211.355 323.671 209.115 320.518C207.921 318.838 208.111 316.541 209.567 315.082L241.534 283.007C242.605 281.933 244.167 281.515 245.631 281.911C247.258 282.348 249.991 281.737 253.148 280.229C253.191 280.207 253.233 280.184 253.277 280.164C254.943 279.354 256.677 278.331 258.431 277.128C258.494 277.083 258.554 277.041 258.617 277.001C258.986 276.749 259.342 276.488 259.675 276.247L259.679 276.245C259.699 276.228 259.72 276.214 259.74 276.198C260.133 275.906 260.458 275.664 260.748 275.43C260.802 275.388 260.857 275.345 260.911 275.305C261.111 275.148 261.306 274.992 261.5 274.837C262.841 273.768 264.652 273.639 266.103 274.402C265.343 272.938 265.488 271.115 266.583 269.776C268.856 266.995 270.898 263.808 272.189 261.033C272.235 260.932 272.287 260.834 272.342 260.737C273.679 257.801 274.197 255.254 273.767 253.718C273.356 252.25 273.767 250.673 274.844 249.592L303.985 220.357C305.285 219.053 307.281 218.74 308.921 219.585C308.965 219.607 314.546 222.406 322.176 222.93C323.019 222.988 323.854 223.017 324.679 223.017C333.53 223.017 341.328 219.686 347.893 213.092C357.049 203.898 358.805 193.531 358.664 186.454C358.66 186.269 358.668 186.083 358.69 185.9L333.837 210.86C333.042 211.657 331.966 212.104 330.84 212.104C330.838 212.104 330.838 212.104 330.836 212.104C329.711 212.102 328.631 211.653 327.838 210.854L327.429 210.441L300.488 183.619C298.833 181.972 298.827 179.296 300.474 177.641L325.65 152.337C324.334 152.249 322.874 152.224 321.311 152.313C312.715 152.801 305.104 156.318 298.682 162.766C281.734 179.79 290.711 200.371 291.79 202.662C292.55 204.275 292.217 206.188 290.957 207.45L257.598 240.886C256.169 242.317 253.924 242.537 252.245 241.408C247.668 238.331 244.329 234.595 242.32 230.304C241.373 228.281 240.548 226.455 239.822 224.844C239.443 224.003 239.082 223.202 238.731 222.434C238.651 222.257 238.582 222.073 238.526 221.89C236.175 216.794 234.283 213.217 229.521 208.13C222.504 200.643 181.89 161.131 181.481 160.731C181.376 160.629 181.317 160.57 181.227 160.461C181.025 160.241 178.202 157.221 174.607 157.35C174.49 157.37 174.371 157.388 174.25 157.398C173.665 157.453 173.119 157.572 172.585 157.763C168.631 159.163 162.817 162.167 158.279 166.426C154.018 170.964 151.02 176.774 149.628 180.714C148.003 185.311 152.024 189.043 152.346 189.331C152.457 189.424 152.518 189.483 152.623 189.592C153.022 190.001 192.534 230.616 200.025 237.637C205.794 243.041 209.47 244.703 216.795 248.009C218.38 248.725 220.177 249.536 222.157 250.461C226.462 252.476 230.208 255.831 233.289 260.434C234.41 262.11 234.192 264.346 232.769 265.774L196.531 302.098C195.236 303.397 193.252 303.711 191.617 302.881C191.575 302.858 185.969 300.092 178.255 299.656C168.221 299.092 159.373 302.58 151.959 310.029C143.107 318.917 141.523 329.079 141.752 336.042C141.759 336.245 141.75 336.449 141.728 336.651L166.568 311.708C168.215 310.055 170.893 310.049 172.548 311.696L199.916 338.947C201.572 340.595 201.578 343.27 199.93 344.926L175.228 369.753C175.285 369.755 175.349 369.753 175.414 369.753ZM312.838 320.998C312.953 321.123 313.048 321.225 313.123 321.31C316.47 325.105 318.839 328.345 320.928 331.204C323.043 334.1 324.87 336.6 327.167 338.899L345.949 357.685L349.528 354.108L330.738 335.322C328.443 333.025 325.943 331.198 323.047 329.083C320.186 326.994 316.944 324.625 313.149 321.274C313.054 321.191 312.951 321.098 312.838 320.998ZM262.831 284.316C262.829 284.318 262.827 284.318 262.823 284.32C262.825 284.318 262.827 284.316 262.831 284.316ZM262.843 284.308C262.843 284.308 262.841 284.308 262.841 284.31L262.843 284.308ZM263.444 283.935C263.442 283.937 263.44 283.939 263.436 283.941C263.438 283.939 263.44 283.937 263.444 283.935ZM259.627 276.281C259.615 276.289 259.605 276.299 259.592 276.309C259.603 276.299 259.615 276.291 259.627 276.281ZM259.701 276.222C259.699 276.224 259.697 276.224 259.697 276.226L259.701 276.222ZM261.23 275.093C261.228 275.093 261.228 275.095 261.226 275.095C261.228 275.095 261.23 275.095 261.23 275.093ZM261.24 275.089C261.238 275.091 261.236 275.091 261.232 275.093C261.234 275.091 261.238 275.089 261.24 275.089ZM367.197 184.664C367.199 184.724 367.201 184.785 367.201 184.845C367.201 184.821 367.201 184.77 367.197 184.664Z" />
</svg>
