<svg viewBox="0 0 16 16" fill="black" xmlns="http://www.w3.org/2000/svg">
<path d="M8.36841 16C9.21052 16 9.94736 15.2632 9.94736 14.4211V5.36842L12.1579 7.57895C12.7895 8.21053 13.7368 8.21053 14.3684 7.57895C14.6842 7.26316 14.7895 6.84211 14.7895 6.42105C14.7895 6 14.6842 5.57895 14.3684 5.26316L9.52631 0.421053C9.42105 0.31579 9.42105 0.31579 9.31579 0.31579C9.21053 0.31579 9.21053 0.210526 9.10527 0.210526C9 0.210526 8.89473 0.105263 8.89473 0.105263C8.78947 0.105263 8.57895 0 8.47368 0C8.47368 0 8.47368 0 8.36841 0C8.15789 0 7.94736 1.49012e-07 7.8421 0.105263C7.63157 0.210526 7.42104 0.31579 7.31578 0.421053L2.47368 5.26316C1.84211 5.89474 1.84211 6.84211 2.47368 7.47368C3.10526 8.10526 4.05262 8.10526 4.6842 7.47368L6.78946 5.36842V14.4211C6.78946 15.3684 7.52631 16 8.36841 16Z"/>
</svg>
