<svg viewBox="0 0 16 16" fill="black" xmlns="http://www.w3.org/2000/svg">
<path d="M0 8.3268C0 9.1634 0.732027 9.89543 1.56863 9.89543H10.6667L8.47059 12.0915C7.84313 12.719 7.84313 13.6601 8.47059 14.2876C8.78431 14.6013 9.20262 14.7059 9.62092 14.7059C10.0392 14.7059 10.4575 14.6013 10.7712 14.2876L15.5817 9.47713C15.6863 9.37256 15.6863 9.37256 15.6863 9.26798C15.6863 9.16341 15.7909 9.1634 15.7909 9.05883C15.7909 8.95425 15.8954 8.84968 15.8954 8.84968C15.8954 8.7451 16 8.53595 16 8.43138C16 8.43138 16 8.43138 16 8.3268C16 8.11765 16 7.9085 15.8954 7.80393C15.7909 7.59478 15.6863 7.38562 15.5817 7.28105L10.7712 2.47059C10.1438 1.84314 9.20262 1.84314 8.57517 2.47059C7.94772 3.09804 7.94772 4.03922 8.57517 4.66667L10.6667 6.75817H1.67319C0.732017 6.75817 0 7.4902 0 8.3268Z"/>
</svg>
