<svg viewBox="0 0 203 203" fill="black" xmlns="http://www.w3.org/2000/svg">
<path fill-rule="evenodd" clip-rule="evenodd" d="M45.1 53.3C45.7 52.8 46.7 52 47.8 50.9C49.9 48.8 50.9 47.1 51 45.6C51.1 44.4 50.7 43.2 49.7 42.2C48.1 40.6 46.1 40.8 44.6 41.7L44.5 41.6C45.3 39.9 45 38.3 43.9 37.2C42.9 36.2 41.7 36 40.6 36.2C39.3 36.4 38.1 37.2 36.6 38.7C35.4 39.9 34.3 41.2 33.8 42L45.1 53.3ZM37.3 41.4C37.5 41.1 37.8 40.7 38.4 40.1C39.7 38.8 41 38.4 42.1 39.5C43.1 40.5 43 41.9 41.5 43.4L40.4 44.5L37.3 41.4ZM42 46L43 45C44.4 43.6 46.2 42.9 47.5 44.2C48.9 45.6 48.2 47.3 46.9 48.7C46.4 49.2 46.1 49.5 45.7 49.8L42 46Z"/>
<path d="M47.7 29.1L52.6 36.9C55.3 41.2 58.5 41.7 61.6 39.7C64.9 37.6 65.9 34.4 63.2 30.2L58.3 22.4L55.8 24L60.8 32C62.5 34.7 62.2 36.6 60.4 37.7C58.7 38.8 56.8 38.2 55.1 35.5L50.1 27.5L47.7 29.1Z"/>
<path fill-rule="evenodd" clip-rule="evenodd" d="M71.4 33.8C72.4 33.6 73.6 33.3 75.3 32.8C78.3 31.8 80.5 30.3 81.6 28.4C82.6 26.6 82.9 24.3 82 21.5C81.1 18.9 79.6 17.4 77.7 16.6C75.9 15.9 73.7 15.9 70.9 16.9C69.2 17.4 67.7 18.1 66.5 18.7L71.4 33.8ZM69.9 19.8C70.3 19.6 70.9 19.3 71.8 19C75.3 17.8 77.9 19.2 79 22.5C80.3 26.4 78.8 29.1 75.1 30.3C74.5 30.5 73.9 30.7 73.5 30.7L69.9 19.8Z"/>
<path fill-rule="evenodd" clip-rule="evenodd" d="M96 23.4L97.9 27.8L101 27.5L94 12L90.3 12.4L87 29L90 28.7L90.9 24L96 23.4ZM91.1 21.7L91.9 17.6C92.1 16.6 92.2 15.5 92.3 14.5C92.6 15.4 93 16.5 93.4 17.4L95.1 21.2L91.1 21.7Z"/>
<path fill-rule="evenodd" clip-rule="evenodd" d="M105 27.9L107.9 28.3L108.7 22.2C109.1 22.4 109.6 22.4 110.1 22.5C112.2 22.8 114.1 22.5 115.4 21.5C116.4 20.8 117 19.6 117.3 18.1C117.5 16.6 117.1 15.3 116.2 14.3C115.3 13.3 113.8 12.6 111.7 12.3C109.8 12 108.3 12 107.2 12L105 27.9ZM109.8 14.5C110.1 14.5 110.7 14.5 111.5 14.6C113.5 14.9 114.6 16 114.4 17.8C114.1 19.7 112.7 20.6 110.5 20.3C109.9 20.2 109.5 20.1 109.1 20L109.8 14.5Z"/>
<path d="M131 23.9L125.2 22L126.5 18L132.7 20L133.4 17.7L124.4 14.8L119.5 30.2L128.8 33.2L129.5 30.9L123 28.8L124.5 24.3L130.3 26.2L131 23.9Z"/>
<path d="M132.2 33.8C132.7 34.7 134 36 135.6 36.8C139.2 38.8 142 37.8 143.3 35.5C144.4 33.5 143.9 31.6 142 29.3C140.5 27.5 140 26.6 140.6 25.5C141.1 24.7 142.2 24.2 143.9 25.1C145.2 25.8 146 26.8 146.4 27.3L148.2 25.6C147.7 24.8 146.7 23.9 145.2 23C142.1 21.3 139.2 22 137.9 24.3C136.8 26.3 137.6 28.4 139.5 30.5C140.9 32.1 141.3 33.2 140.7 34.2C140.1 35.4 138.7 35.6 137.1 34.7C135.8 34 134.7 32.8 134.2 31.9L132.2 33.8Z"/>
<path d="M146.7 43.9L149 45.8L157.7 35.2L161.3 38.2L162.9 36.3L153.5 28.5L151.9 30.4L155.5 33.4L146.7 43.9Z"/>
<path d="M166.6 40.3L154.6 51.1L156.6 53.3L168.5 42.4L166.6 40.3Z"/>
<path fill-rule="evenodd" clip-rule="evenodd" d="M36.1 147.5L32.8 142.3L36.3 140.1L39.8 145.6L41.8 144.3L36.8 136.3L23.2 145L28.4 153.3L30.4 152L26.8 146.2L30.8 143.7L34.1 148.9L36.1 147.5ZM43.2 138.8L39.6 138.6L40.9 140.6L44.9 141.6L43.2 138.8Z"/>
<path fill-rule="evenodd" clip-rule="evenodd" d="M32.6 158.6L34.6 160.7L39.4 156.1L40.4 157.2C41.5 158.5 41.5 159.5 40.3 161.3C39.1 163 38.4 164.2 38.3 164.7L40.4 166.9C40.6 166.2 41.7 164.6 42.8 162.9C43.7 161.6 44 160.3 43.5 159.1H43.6C45 159.9 47 159.9 48.6 158.5C49.6 157.5 50.1 156.4 50 155.2C49.9 153.8 49.1 152.4 47.5 150.7C46.3 149.5 45.1 148.4 44.2 147.7L32.6 158.6ZM44.7 151.2C44.9 151.4 45.4 151.7 46.1 152.4C47.4 153.8 47.6 155.3 46.4 156.5C45.2 157.6 43.6 157.4 42.3 156L41.1 154.7L44.7 151.2Z"/>
<path d="M48 172.9L50.4 174.6L58.4 163.5L62.2 166.2L63.6 164.2L53.7 157.1L52.2 159.1L56 161.8L48 172.9Z"/>
<path fill-rule="evenodd" clip-rule="evenodd" d="M71.7 175.4L66.2 172.9L67.9 169.1L73.8 171.8L74.8 169.6L66.3 165.7L59.5 180.4L68.4 184.5L69.4 182.3L63.2 179.5L65.2 175.2L70.7 177.7L71.7 175.4ZM72.9 164.3L69.8 166L72 167L75.9 165.6L72.9 164.3Z"/>
<path d="M74.5 186.5L77.3 187.2L78.7 181.7L80.6 180.4L83.1 188.7L86.4 189.6L83 179.1L90.1 173.8L86.6 172.9L81 177.3C80.5 177.7 79.9 178.2 79.4 178.7H79.3L81.2 171.5L78.4 170.8L74.5 186.5Z"/>
<path d="M96 190.2L98.9 190.4L99.6 176.7L104.2 176.9L104.3 174.4L92.1 173.9L92 176.3L96.6 176.6L96 190.2Z"/>
<path fill-rule="evenodd" clip-rule="evenodd" d="M116.3 189.4C120.6 188.6 123.3 185 122.4 179.6C121.6 175.1 118.2 172 113.6 172.9C109.1 173.7 106.7 177.8 107.5 182.6C108.3 187.3 111.7 190.2 116.3 189.4ZM115.9 187C113.1 187.5 111 185.1 110.4 182C109.8 178.8 110.8 175.8 113.7 175.3C116.6 174.8 118.6 177.3 119.2 180.3C119.9 183.6 118.8 186.5 115.9 187Z"/>
<path d="M111.7 168.6L110.1 172.4L112.2 172.1L114.5 168.2L111.7 168.6Z"/>
<path d="M115.3 168L114 171.9L116 171.5L118.1 167.4L115.3 168Z"/>
<path d="M128.7 186.3L140.1 181.8L139.2 179.5L131.5 182.5L134.8 168.4L134.1 166.8L123.5 170.9L124.4 173.2L131.5 170.5L128.2 184.7L128.7 186.3Z"/>
<path d="M144.9 178.3C145.9 178.3 147.7 177.7 149.2 176.8C152.7 174.6 153.2 171.6 151.8 169.4C150.6 167.5 148.7 167 145.7 167.6C143.4 168.1 142.3 168.1 141.7 167C141.2 166.2 141.3 164.9 142.9 163.9C144.2 163.1 145.4 162.9 146 162.8L145.3 160.4C144.4 160.5 143.1 160.8 141.6 161.8C138.6 163.7 137.8 166.6 139.2 168.8C140.4 170.7 142.6 171.1 145.4 170.4C147.5 169.9 148.6 170.1 149.3 171.1C150 172.2 149.6 173.5 148 174.5C146.7 175.3 145.2 175.7 144.1 175.7L144.9 178.3Z"/>
<path fill-rule="evenodd" clip-rule="evenodd" d="M160 168.5C160.8 167.9 161.8 167 163 165.8C165.2 163.6 166.5 161.2 166.6 159C166.7 156.9 165.9 154.7 163.8 152.7C161.9 150.8 159.8 150.1 157.8 150.3C155.9 150.5 154 151.5 151.8 153.7C150.6 154.9 149.5 156.2 148.7 157.3L160 168.5ZM152.3 156.7C152.5 156.3 152.9 155.8 153.6 155.1C156.2 152.5 159.1 152.5 161.6 155C164.5 157.9 164.4 161 161.7 163.7C161.3 164.1 160.8 164.6 160.5 164.8L152.3 156.7Z"/>
<path d="M170.8 140.2L167.5 145.4L164 143.1L167.5 137.7L165.5 136.4L160.4 144.3L174 153L179.3 144.8L177.2 143.5L173.6 149.2L169.6 146.7L172.8 141.5L170.8 140.2Z"/>
<path d="M153.6 133C142.8 150.7 123.3 162.5 101.1 162.5C78.9 162.5 59.4 150.7 48.6 133H45.2C56.3 152.4 77.2 165.5 101.1 165.5C125 165.5 145.9 152.4 157 133H153.6Z"/>
<path d="M53.6 62.1C64.9 48.4 82 39.6 101.1 39.6C120.2 39.6 137.3 48.4 148.6 62.1H152.3C140.5 46.7 121.9 36.7 101.1 36.7C80.2 36.7 61.7 46.7 49.9 62.1H53.6Z"/>
<path d="M109.8 48.6C109.4 48 108.7 47.6 107.8 47.5C106.8 47.4 105.8 47.6 105 48.3C104.2 48.9 102.9 50.2 101.3 52.1L93.5 61.5L93.3 61.7L95 61.9L102.4 57.2C106.1 54.8 108.3 53.3 109 52.6C109.8 51.9 110.2 51.2 110.3 50.4C110.4 49.7 110.2 49.1 109.8 48.6Z"/>
<path d="M181.2 67.6H129.8L129.5 82.2H131.8V82.1C132.4 78.4 133.3 75.5 134.4 73.7C135.5 71.9 136.8 70.8 138.1 70.5C139.4 70.1 142 69.9 145.8 69.9H151.6V111.9C151.6 116.9 151.5 120.1 151.2 121.4C150.9 122.7 150.3 123.7 149.4 124.3C148.5 124.9 146.7 125.2 144.2 125.2H141V127.5H171V125.2H168C165.4 125.2 163.6 124.9 162.6 124.2C161.7 123.5 161.1 122.5 160.9 121C160.7 119.6 160.6 116.5 160.6 111.8V69.8H166.2C169.4 69.8 171.7 70 173.1 70.4C174.4 70.8 175.7 71.8 176.8 73.6C178 75.3 178.9 78.1 179.5 82V82.1H181.6L181.2 67.6Z"/>
<path d="M123.6 108.8C122.6 113.2 121.1 116.6 119.3 119.1C117.5 121.6 115.6 123.2 113.6 124C111.6 124.8 109 125.2 105.9 125.2H101.5C97.6 125.2 95.1 124.6 94.3 123.4C93.4 122.2 93 118 93 111V97H99.4C101.9 97 103.7 97.2 104.8 97.5C105.8 97.8 106.6 98.5 107.2 99.6C107.7 100.7 108 102.9 108 106.2V106.3H110.3V85.6H108V85.7C108 88.6 107.8 90.6 107.4 91.6C107.1 92.6 106.3 93.3 105.2 93.8C104.1 94.3 102.1 94.5 99.2 94.5H93V69.7H101.1C105.2 69.7 108.3 69.9 110.1 70.4C111.9 70.8 113.5 71.9 114.9 73.7C116.3 75.4 117.4 78.4 118.3 82.5V82.6H120.6L119.2 67.5H76.3V69.8H76.4C79.2 69.8 81.1 70.1 82 70.7C82.9 71.2 83.4 72.2 83.7 73.6C84 75 84.1 78 84.1 82.6V111.9C84.1 116.9 84 120 83.8 121.2C83.6 122.4 83 123.3 82.2 124.1C81.4 124.9 79.5 125.3 76.6 125.3H75V127.6H124.7L126 108.9V108.8H123.6Z"/>
<path d="M65.3 100.2C62.2 97.5 57.5 95.8 51.3 95.2C56.4 94.3 60.3 92.8 62.9 90.6C65.7 88.2 67.2 85.1 67.2 81.2C67.2 71.8 58.9 67 42.6 67L31.4 67.4L21.5 67.7V70H22.8C25.8 70 27.7 70.3 28.6 70.8C29.5 71.3 30 72.3 30.3 73.6C30.6 75 30.7 78.1 30.7 82.9V111.9C30.7 116.9 30.6 120.1 30.3 121.4C30 122.7 29.4 123.7 28.5 124.3C27.6 124.9 25.8 125.2 23.3 125.2H20.9V127.5H44.4C50.2 127.5 54.9 127.1 58.4 126.3C61.9 125.4 64.8 123.6 67.1 120.9C69.3 118.2 70.5 114.9 70.5 111.1C70.2 106.8 68.6 103.1 65.3 100.2ZM56.1 74.6C57 76.3 57.4 78.7 57.4 81.8C57.4 86.2 56.2 89.4 54 91.4C51.7 93.4 47.4 94.4 41.1 94.4C40.6 94.4 40 94.4 39.4 94.4V69.6C40.5 69.5 41.7 69.5 42.8 69.5C47.2 69.5 50.3 70 52.1 70.9C53.9 71.7 55.2 73 56.1 74.6ZM60.5 110.9C60.5 115.7 59.3 119.3 57 121.6C54.7 124 51.2 125.2 46.5 125.2C43.9 125.2 42.1 124.8 41.3 124C40.4 123.2 39.9 122.1 39.7 120.6C39.5 119.1 39.4 115.5 39.4 109.8V96.6C40.5 96.5 41.6 96.5 42.6 96.5C49.2 96.5 53.9 97.7 56.5 100C59.2 102.4 60.5 106 60.5 110.9Z"/>
<path d="M101.1 202.2C45.3 202.2 0 156.8 0 101.1C0 45.3 45.3 0 101.1 0C156.9 0 202.2 45.3 202.2 101.1C202.2 156.8 156.8 202.2 101.1 202.2ZM101.1 4C47.5 4 4 47.5 4 101.1C4 154.7 47.6 198.2 101.1 198.2C154.6 198.2 198.2 154.6 198.2 101.1C198.2 47.6 154.6 4 101.1 4Z"/>
</svg>
