<svg viewBox="0 0 1900 916" fill="black" xmlns="http://www.w3.org/2000/svg">
<path d="M259.6 787L178.4 915.2L120.2 915.3L99 787.3L138.6 787.2L152.9 891.8L216.8 787H259.6ZM305.2 914.9L335 786.8L294.8 786.9L265 914.9H305.2ZM338.3 773.8L345.1 744.5L304.9 744.6L298.1 773.9L338.3 773.8ZM498.5 914.5L519.9 822.8C521.4 816.7 522.2 811.4 522.2 806.8C522.2 802.7 521.5 799.3 520.1 796.8C518.7 794.2 516.4 792.2 513.2 790.7C510 789.2 505.9 788.2 500.8 787.6C495.7 787 489.3 786.7 481.7 786.7L384.2 786.9L377.1 817.7L459.5 817.6C467.1 817.6 472.2 818.1 474.7 819.1C477.2 820.1 478.5 822.2 478.5 825.6C478.5 827.2 478 830.4 476.9 835.4L465.5 883.9L405 884C399.1 884 396.2 881.7 396.2 877.2C396.2 874.4 397.4 871.9 399.8 869.7C402.2 867.4 405.4 866.3 409.3 866.3L452.8 866.2L459.9 835.4L413.1 835.5C403.7 835.5 395.9 836 389.7 836.9C383.5 837.8 378.3 839.5 374.2 842.1C370.1 844.7 366.8 848.3 364.4 853.1C362 857.8 359.8 864 357.9 871.7L356.3 878.8C354.8 884.9 354 890.2 354 894.8C354 898.9 354.7 902.3 356.1 904.8C357.5 907.4 359.8 909.4 363 910.8C366.2 912.3 370.3 913.3 375.4 913.9C380.5 914.5 386.9 914.8 394.5 914.8L498.5 914.5ZM672.4 817.2L679.5 786.4L637.3 786.5C624.6 786.5 614.6 791.9 607.2 802.5L610.8 786.5L570.6 786.6L540.8 914.4L581 914.3L599.5 835C600.4 831.3 601.3 828.2 602.3 825.8C603.3 823.4 604.6 821.6 606.4 820.3C608.1 819 610.5 818.2 613.4 817.8C616.3 817.4 620.3 817.2 625.3 817.2H672.4ZM843.1 865.4L853.2 822.2C854.7 815.9 855.5 810.5 855.5 805.9C855.5 798 852.5 792.7 846.6 789.9C840.7 787.1 830.2 785.8 815.2 785.8L757.6 785.9C741 785.9 728.4 788.8 719.8 794.4C711.2 800 705.4 809.4 702.4 822.4L689.8 877.7C688.9 881.1 688.3 884.1 687.9 886.7C687.5 889.4 687.3 891.8 687.3 893.9C687.3 897.8 688 901 689.3 903.5C690.6 906 692.8 908 695.9 909.5C699 911.1 703.1 912.2 708.3 912.7C713.5 913.3 720.1 913.6 727.9 913.6L825.7 913.4L832.8 882.9L750.4 883C742.8 883 737.7 882.5 735.2 881.4C732.7 880.3 731.4 878.1 731.4 874.8C731.4 872.4 731.8 869.3 732.7 865.3L739.8 834.5C740.7 830.6 741.7 827.4 742.9 825C744.1 822.6 745.6 820.8 747.5 819.5C749.4 818.2 751.7 817.4 754.7 817C757.6 816.6 761.3 816.4 765.7 816.4L797.8 816.3C808.3 816.3 813.5 819.2 813.5 825.1C813.5 825.7 812.9 828.7 811.6 834.3L757 834.4L749.9 865.2L843.1 865.4ZM1026.3 913.6L1047.7 821.9C1049.2 815.8 1050 810.5 1050 805.9C1050 797.8 1047 792.5 1041.1 789.8C1035.2 787.1 1024.7 785.8 1009.7 785.9L967.5 786C954.9 786 944.8 791.4 937.4 802L941 786L900.8 786.1L871 913.8L911.2 913.7L929.7 834.4C930.6 830.7 931.5 827.6 932.5 825.2C933.5 822.8 934.8 821 936.6 819.7C938.3 818.4 940.7 817.6 943.6 817.2C946.5 816.8 950.5 816.6 955.5 816.6L987.6 816.5C995.2 816.5 1000.3 817 1002.8 818C1005.3 819 1006.6 821.1 1006.6 824.5C1006.6 826.1 1006.1 829.3 1005 834.3L986.5 913.6H1026.3ZM1143 913.3L1150.1 882.5H1133.1C1125.5 882.5 1120.4 882 1117.9 881C1115.4 880 1114.1 877.9 1114.1 874.5C1114.1 872.9 1114.6 869.7 1115.7 864.7L1127.1 816.2L1165.4 816.1L1172.9 785.3L1134 785.4L1144.1 743.1L1103.9 743.2L1072.8 877.2C1071.3 883.3 1070.5 888.6 1070.5 893.2C1070.5 901.3 1073.5 906.6 1079.4 909.3C1085.3 912 1095.8 913.3 1110.8 913.2L1143 913.3ZM1376.8 912.9L1383.9 882.1L1315.2 882.2C1307.6 882.2 1302.5 881.7 1300 880.7C1297.5 879.7 1296.2 877.6 1296.2 874.2C1296.2 872.6 1296.7 869.4 1297.8 864.4L1304.9 833.6C1305.8 829.9 1306.7 826.8 1307.7 824.4C1308.7 822 1310 820.2 1311.8 818.9C1313.5 817.6 1315.9 816.8 1318.8 816.4C1321.7 816 1325.7 815.8 1330.7 815.8L1399.4 815.7L1406.5 784.9L1322.8 785C1313.6 785 1306 785.5 1299.9 786.4C1293.8 787.3 1288.6 789 1284.4 791.6C1280.2 794.2 1276.8 797.8 1274.3 802.6C1271.8 807.3 1269.6 813.5 1267.6 821.2L1254.6 876.8C1253.1 882.9 1252.3 888.2 1252.3 892.8C1252.3 896.7 1252.9 900 1254.1 902.6C1255.3 905.2 1257.4 907.2 1260.5 908.7C1263.6 910.2 1267.7 911.3 1272.9 911.9C1278.1 912.6 1284.8 912.9 1292.9 912.9H1376.8ZM1573.6 876.4L1586.6 820.8C1588.1 814.7 1588.9 809.4 1588.9 804.8C1588.9 801.1 1588.3 797.9 1587.1 795.2C1585.9 792.5 1583.8 790.5 1580.7 789C1577.6 787.5 1573.5 786.4 1568.3 785.8C1563.1 785.1 1556.4 784.8 1548.3 784.8L1486.1 784.9C1476.9 784.9 1469.3 785.4 1463 786.3C1456.8 787.2 1451.7 788.9 1447.6 791.5C1443.6 794.1 1440.3 797.7 1437.8 802.5C1435.3 807.2 1433.1 813.4 1431.1 821.1L1418.1 876.7C1416.6 882.8 1415.8 888.1 1415.8 892.7C1415.8 900.8 1418.8 906.1 1424.7 908.8C1430.6 911.5 1441.1 912.8 1456.1 912.7L1518.3 912.6C1527.7 912.6 1535.5 912.1 1541.9 911.2C1548.2 910.3 1553.4 908.5 1557.4 905.9C1561.4 903.2 1564.7 899.6 1567.2 894.9C1569.7 890.3 1571.8 884.1 1573.6 876.4ZM1536.6 864.1C1535.7 868 1534.8 871.1 1533.8 873.4C1532.8 875.7 1531.5 877.4 1529.7 878.7C1528 880 1525.6 880.8 1522.7 881.2C1519.8 881.6 1515.8 881.8 1510.8 881.8L1478.7 881.9C1471.1 881.9 1466 881.4 1463.5 880.4C1461 879.4 1459.7 877.3 1459.7 873.9C1459.7 872.3 1460.2 869.1 1461.3 864.1L1468.4 833.3C1469.3 829.2 1470.2 825.9 1471.3 823.5C1472.4 821.1 1473.9 819.4 1475.7 818.2C1477.6 817 1479.9 816.3 1482.9 816C1485.8 815.7 1489.6 815.5 1494.2 815.5L1526.3 815.4C1533.9 815.4 1539 815.9 1541.5 816.9C1544 817.9 1545.3 820 1545.3 823.4C1545.3 825 1544.8 828.2 1543.7 833.2L1536.6 864.1ZM1839.5 912L1860.6 820.3C1862.3 813.4 1863.2 808.1 1863.2 804.3C1863.2 796.2 1860.2 790.9 1854.2 788.2C1848.2 785.5 1837.7 784.2 1822.6 784.3H1796.8C1789.6 784.3 1782.8 785.7 1776.5 788.5C1770.2 791.3 1765.9 794.9 1763.8 799.5C1762.7 793.8 1759.4 789.8 1753.8 787.7C1748.2 785.5 1738.3 784.5 1723.9 784.5H1698.1C1685.4 784.5 1675.4 789.9 1668 800.5L1671.6 784.5L1631.4 784.6L1601.6 912.4L1641.8 912.3L1660.3 833C1661.2 829.3 1662.1 826.2 1663.1 823.8C1664.1 821.4 1665.4 819.6 1667.2 818.3C1668.9 817 1671.3 816.2 1674.2 815.8C1677.1 815.4 1681.1 815.2 1686.1 815.2H1701.8C1709.4 815.2 1714.5 815.7 1717 816.7C1719.5 817.7 1720.8 819.8 1720.8 823.2L1700.4 912.2L1740.6 912.1L1759.1 832.8C1760 829.1 1760.9 826 1761.9 823.6C1762.9 821.2 1764.2 819.4 1766 818.1C1767.7 816.8 1770.1 816 1773 815.6C1775.9 815.2 1779.9 815 1784.9 815H1800.6C1808.2 815 1813.3 815.5 1815.8 816.5C1818.3 817.5 1819.6 819.6 1819.6 823C1819.6 825.6 1819.2 828.8 1818.3 832.8L1799.8 912.1L1839.5 912ZM1215.3 913.8L1221.6 882L1184.1 882.1L1177.8 913.9L1215.3 913.8Z" />
<path d="M1187.3 1.99998L1184 21.5C1120.9 30 1071 47.5 1046.4 110.8C1040 127.2 1030.2 156.3 1020.4 199.4L955.6 482.7C947.5 518.8 943.6 542.2 943.6 553.2C943.8 635.4 1097.7 615.4 1142.1 582C1166.6 563.5 1203.8 522.2 1251.4 455.3L1573.8 0.999985L1649 0.799988L1650.4 521.1C1653.7 590.8 1707.6 613 1762.2 612.9L1899.4 612.5L1899.5 637.5L1411.3 638.8L1418.2 614.7C1470.2 606.6 1533.9 580.1 1533.7 505L1532.7 134.4L1331.7 428.9C1277 507.3 1204.8 597.2 1352.9 614.9L1345.8 639L679.5 640.7L685.6 620.2C792.1 616 816.3 569 839.1 470.8L912.4 155.4C918.3 129.9 922 109.8 922.1 95.3C922.9 5.39999 776.7 23.9 727.8 60.8C703.3 79.3 666.1 120.6 618.5 187.5L296.2 641.6L221 641.8L219.6 121.5C216.3 51.8 162.4 29.6 107.8 29.7L0.6 30L0.5 4.99998L458.7 3.79999L451.8 27.9C399.8 36 336.1 62.5 336.3 137.6L337.3 508.2L538.3 213.7C593 135.3 665.2 45.4 517.1 27.7L524.2 3.59998L1187.3 1.99998Z" fill="#941F30"/>
</svg>
