<svg viewBox="0 0 12 12" fill="black" xmlns="http://www.w3.org/2000/svg">
<path d="M6 0C2.71429 0 0 2.66667 0 6C0 9.33333 2.66667 12 6 12C9.33333 12 12 9.33333 12 6C12 2.66667 9.28571 0 6 0ZM6 11C3.2381 11 0.95238 8.7619 0.95238 5.95238C0.95238 3.19048 3.19048 0.904762 6 0.904762C8.80952 0.904762 11.0476 3.14286 11.0476 5.95238C11.0476 8.7619 8.7619 11 6 11Z"/>
<path d="M9.14285 7.42857L8.52381 7.04762L9 6.7619C9.09523 6.71429 9.14285 6.66667 9.14285 6.57143C9.19047 6.47619 9.14285 6.38095 9.09523 6.28571C9.04761 6.19048 9 6.14286 8.90476 6.14286C8.80952 6.14286 8.71428 6.14286 8.61904 6.19048L7.7619 6.66667L6.57142 6L7.7619 5.33333L8.57142 5.80952C8.71428 5.90476 8.90475 5.85714 9.04761 5.71429C9.09523 5.61905 9.09523 5.52381 9.09523 5.42857C9.04761 5.33333 8.99999 5.28571 8.95237 5.23809L8.47618 4.95238L9.09523 4.57143C9.23809 4.47619 9.33333 4.28571 9.23809 4.09524C9.19047 4 9.14285 3.95238 9.04761 3.95238C8.95237 3.90476 8.85714 3.95238 8.7619 4L8.14285 4.38095V3.80952C8.14285 3.61905 8 3.47619 7.80952 3.47619C7.71428 3.47619 7.61904 3.52381 7.57143 3.57143C7.52381 3.61905 7.47619 3.71429 7.47619 3.80952V4.80952L6.28571 5.47619V4.09524L7.09524 3.61905C7.19047 3.57143 7.23809 3.47619 7.23809 3.42857C7.28571 3.33333 7.23809 3.2381 7.19047 3.19048C7.09523 3.04762 6.90476 2.95238 6.71428 3.04762L6.19047 3.33333V2.52381C6.19047 2.33333 6.04761 2.19048 5.85714 2.19048C5.66666 2.19048 5.52381 2.33333 5.52381 2.52381V3.23809L4.99999 2.95238C4.85714 2.85714 4.61904 2.90476 4.5238 3.09524C4.47618 3.19048 4.47619 3.28571 4.47619 3.33333C4.52381 3.42857 4.57143 3.47619 4.61905 3.52381L5.47618 4V5.38095L4.28571 4.66667V3.71429C4.28571 3.61905 4.28571 3.52381 4.19047 3.47619C4.14285 3.38095 4.04762 3.38095 3.95238 3.38095C3.7619 3.38095 3.61905 3.52381 3.61905 3.71429V4.28571L3 3.95238C2.90476 3.90476 2.80953 3.90476 2.71429 3.90476C2.61905 3.95238 2.57143 4 2.52381 4.04762C2.42857 4.23809 2.47619 4.42857 2.66667 4.52381L3.28571 4.85714L2.7619 5.14286C2.66666 5.19048 2.61904 5.2381 2.61904 5.33333C2.57142 5.42857 2.61905 5.52381 2.66667 5.61905C2.7619 5.7619 3 5.80952 3.14286 5.71429L4 5.23809L5.19047 5.90476L4 6.61905L3.14286 6.14286C3.04762 6.09524 2.95238 6.09524 2.85714 6.09524C2.7619 6.09524 2.71428 6.19048 2.66667 6.2381C2.57143 6.38095 2.61905 6.61905 2.80952 6.71429L3.33333 7L2.71429 7.33333C2.61905 7.38095 2.57143 7.47619 2.57143 7.52381C2.57143 7.61905 2.57142 7.71429 2.61904 7.7619C2.66666 7.85714 2.7619 7.95238 2.90476 7.95238C2.95238 7.95238 2.95238 7.95238 3.09523 7.90476L3.71428 7.57143V8.14286C3.71428 8.33333 3.85714 8.47619 4.04761 8.47619C4.14285 8.47619 4.23809 8.42857 4.28571 8.38095C4.33333 8.33333 4.38095 8.2381 4.38095 8.14286V7.19048L5.57143 6.52381V7.90476L4.71428 8.38095C4.61905 8.42857 4.57143 8.52381 4.57143 8.57143C4.57143 8.66667 4.57143 8.7619 4.61905 8.80952C4.66667 8.90476 4.7619 9 4.90476 9C4.95238 9 5.04762 9 5.04762 8.95238L5.57143 8.66667V9.38095C5.57143 9.57143 5.71428 9.71428 5.90476 9.71428C6.09524 9.71428 6.23809 9.57143 6.23809 9.38095V8.66667L6.71428 8.95238C6.7619 9 6.80952 9 6.85714 9C7 9 7.09523 8.95238 7.14285 8.80952C7.19047 8.71428 7.19047 8.61905 7.19047 8.57143C7.14285 8.47619 7.09523 8.42857 7.04761 8.38095L6.23809 7.90476V6.52381L7.42857 7.19048V8.14286C7.42857 8.2381 7.47618 8.33333 7.5238 8.38095C7.57142 8.42857 7.66666 8.47619 7.7619 8.47619C7.95237 8.47619 8.09523 8.33333 8.09523 8.14286V7.52381L8.71428 7.90476C8.7619 7.95238 8.80952 7.95238 8.90476 7.95238C9.04762 7.95238 9.14285 7.90476 9.19047 7.80952C9.23809 7.71428 9.23809 7.61905 9.23809 7.57143C9.28571 7.52381 9.23809 7.47619 9.14285 7.42857Z"/>
</svg>
