<svg viewBox="0 0 28 12" fill="black" xmlns="http://www.w3.org/2000/svg">
<path d="M4.61497 12H0.696598C0.348299 12 0 11.7252 0 11.2672V0.732825C0 0.366412 0.261224 0 0.696598 0H4.61497C4.96327 0 5.31157 0.274809 5.31157 0.732825V11.2672C5.31157 11.6336 5.05034 12 4.61497 12Z"/>
<path d="M26.732 12H22.8136C22.4653 12 22.117 11.7252 22.117 11.2672V0.732825C22.117 0.366412 22.3782 0 22.8136 0H26.732C27.0803 0 27.4286 0.274809 27.4286 0.732825V11.2672C27.4286 11.6336 27.0803 12 26.732 12Z"/>
<path d="M10.1878 7.05344H6.26939C6.09524 7.05344 6.00816 6.96183 6.00816 6.77863V5.31298C6.00816 5.12977 6.09524 5.03817 6.26939 5.03817H10.1878C10.3619 5.03817 10.449 5.12977 10.449 5.31298V6.77863C10.449 6.87023 10.3619 7.05344 10.1878 7.05344Z"/>
<path d="M21.2463 7.05344H17.3279C17.1537 7.05344 17.0667 6.96183 17.0667 6.77863V5.31298C17.0667 5.12977 17.1537 5.03817 17.3279 5.03817H21.2463C21.4204 5.03817 21.5075 5.12977 21.5075 5.31298V6.77863C21.5075 6.87023 21.4204 7.05344 21.2463 7.05344Z"/>
<path d="M13.7578 8.79389C15.2005 8.79389 16.3701 7.56353 16.3701 6.0458C16.3701 4.52807 15.2005 3.29771 13.7578 3.29771C12.3151 3.29771 11.1456 4.52807 11.1456 6.0458C11.1456 7.56353 12.3151 8.79389 13.7578 8.79389Z"/>
</svg>
