<svg viewBox="0 0 26 13" fill="black" xmlns="http://www.w3.org/2000/svg">
<path d="M17.3 1.49009L1 7.34133V7.14298L17.2 1.29174L17.3 1.49009Z"/>
<path d="M16.4836 0.973431L16.3954 1.15146L17.1135 1.50119L17.2017 1.32316L16.4836 0.973431Z"/>
<path d="M17.1049 1.41596L16.7523 2.12811L16.9318 2.21554L17.2844 1.50339L17.1049 1.41596Z"/>
<path d="M1.38633 6.37771L1.03368 7.08986L1.2132 7.17729L1.56585 6.46514L1.38633 6.37771Z"/>
<path d="M1.07088 7.13737L0.982719 7.3154L1.7008 7.66513L1.78896 7.48709L1.07088 7.13737Z"/>
<path d="M18.3 8.53141H0V0.300003H18.3V8.53141ZM0.300003 8.23389H17.9V0.597523H0.300003V8.23389Z"/>
<path d="M16.6 8.33306H14V9.12645H16.6V8.33306Z"/>
<path d="M5.6 8.33306H3V9.12645H5.6V8.33306Z"/>
<path fill-rule="evenodd" clip-rule="evenodd" d="M18.8 8.82893H2.1V9.91984H2.3L1.9 10.3165V10.019H1.5V11.0107H1.9V10.7132L2.6 10.2174H3.8V9.91984H5.2C5.3 9.82066 5.5 9.72149 5.7 9.72149C5.9 9.72149 6.1 9.82066 6.2 9.91984H9C9.1 9.82066 9.3 9.72149 9.5 9.72149C9.7 9.72149 9.9 9.82066 10 9.91984H18.5V9.62232C18.6 9.3248 18.7 9.12645 18.8 8.82893Z"/>
<path fill-rule="evenodd" clip-rule="evenodd" d="M15.1 9.52314H12.1V10.4157C12.1 10.6141 12.2 10.7132 12.4 10.7132H14.8C15 10.7132 15.1 10.6141 15.1 10.4157V10.2174H15.3C15.3 10.4157 15.5 10.6141 15.7 10.6141C15.9 10.6141 16 10.5149 16.1 10.3165H16.6C16.7 10.5149 16.8 10.6141 17 10.6141C17.2 10.6141 17.4 10.4157 17.4 10.2174H17.5V10.7132H18.4V9.52314H17.5V9.72149H14.9V9.52314H15.1Z"/>
<path fill-rule="evenodd" clip-rule="evenodd" d="M4.5 11.8041C4.2 11.5066 4 11.2091 4 10.7132H3.6V10.5149C3.6 9.91984 3.8 9.3248 4.2 9.02728C4.6 8.63058 5.1 8.43223 5.7 8.43223C6.4 8.43223 6.9 8.63058 7.2 9.02728C7.4 9.22562 7.5 9.42397 7.6 9.62232C7.7 9.42397 7.8 9.12645 8 9.02728C8.4 8.63058 8.9 8.43223 9.5 8.43223C10.2 8.43223 10.7 8.63058 11 9.02728C11.4 9.42397 11.6 9.91984 11.6 10.5149V10.7132H11.2C11.2 11.1099 11 11.5066 10.7 11.8041C10.4 12.1017 10 12.3 9.5 12.3C9 12.3 8.6 12.1017 8.3 11.8041C8 11.5066 7.8 11.2091 7.8 10.7132H7.2C7.2 11.1099 7 11.5066 6.7 11.8041C6.4 12.1017 6 12.3 5.5 12.3C5.2 12.3 4.8 12.1017 4.5 11.8041ZM9.6 9.72149C9.1 9.72149 8.8 10.1182 8.8 10.5149C8.8 10.9116 9.2 11.3083 9.6 11.3083C10 11.3083 10.4 10.9116 10.4 10.5149C10.4 10.1182 10 9.72149 9.6 9.72149ZM5.7 9.72149C5.2 9.72149 4.9 10.1182 4.9 10.5149C4.9 10.9116 5.3 11.3083 5.7 11.3083C6.2 11.3083 6.5 10.9116 6.5 10.5149C6.5 10.1182 6.1 9.72149 5.7 9.72149Z"/>
<path d="M24 11.1099H22.7C22.6 11.0107 22.5 11.0107 22.5 10.9116L22.7 10.6141C22.8 10.6141 22.8 10.7132 22.9 10.8124H24L24.9 10.6141V9.42397L24.6 8.63058H24.9V6.94463C24.9 6.34959 24.5 5.15951 24.2 4.26695C24.1 3.96942 24 3.6719 24 3.47356C23.9 2.97769 23.2 2.77934 22.1 2.77934H19.7V7.93637H19.4V2.48182H22.1C23.4 2.48182 24.1 2.77934 24.3 3.37438C24.4 3.57273 24.4 3.87025 24.5 4.16777C24.8 5.15951 25.2 6.34959 25.2 6.94463V8.82893H25L25.2 9.3248V10.8124L24 11.1099Z"/>
<path fill-rule="evenodd" clip-rule="evenodd" d="M25 6.44876C24.9 5.65538 24.5 4.36612 24.2 3.6719H23.8L24.4 6.34959C24.4 6.34959 24.7 6.34959 25 6.44876Z"/>
<path fill-rule="evenodd" clip-rule="evenodd" d="M19 10.9116V10.019C19 9.12645 19.7 8.43223 20.6 8.43223H20.9C21.9 8.43223 22.8 9.22562 22.8 10.3165V10.9116H22.5C22.4 11.2091 22.3 11.5066 22 11.8041C21.7 12.1017 21.3 12.3 20.8 12.3C20.3 12.3 19.9 12.1017 19.6 11.8041C19.3 11.6058 19.2 11.3083 19 10.9116ZM20.8 9.72149C20.3 9.72149 20 10.1182 20 10.5149C20 10.9116 20.4 11.3083 20.8 11.3083C21.3 11.3083 21.6 10.9116 21.6 10.5149C21.6 10.1182 21.3 9.72149 20.8 9.72149Z"/>
<path d="M23.3 11.0107H22.7V10.3165C22.7 9.3248 21.9 8.53141 20.9 8.53141H20.6C19.8 8.53141 19.1 9.22562 19.1 10.019V11.0107H18.4V9.62232C18.4 8.53141 19.4 7.53967 20.5 7.53967H20.8C22.1 7.53967 23.3 8.72976 23.3 9.91984V11.0107ZM22.9 10.8124H23.1V10.019C23.1 8.9281 22 7.83719 20.8 7.83719H20.5C19.6 7.83719 18.7 8.72976 18.7 9.62232V10.8124H18.9V10.019C18.9 9.12645 19.7 8.33306 20.6 8.33306H20.9C22 8.33306 22.9 9.22562 22.9 10.3165V10.8124Z"/>
<path fill-rule="evenodd" clip-rule="evenodd" d="M20.8 10.1182C20.5 10.1182 20.3 10.3165 20.3 10.6141C20.3 10.9116 20.5 11.1099 20.8 11.1099C21.1 11.1099 21.3 10.9116 21.3 10.6141C21.2 10.3165 21 10.1182 20.8 10.1182Z"/>
<path fill-rule="evenodd" clip-rule="evenodd" d="M21.7 2.68017C20.8 2.08513 20.2 1.98595 19.3 1.98595C19.1 1.98595 19 2.08513 19 2.28347C18.9 3.87025 18.8 5.45703 18.7 7.04381V9.42397C18.8 8.82893 19.1 8.33306 19.6 8.03554C19.6 6.25042 19.6 4.46529 19.6 2.68017H21.7Z"/>
<path d="M25 9.3248H24.4V10.4157H25V9.3248Z"/>
<path d="M24.6 9.72149H23.2V9.91984H24.6V9.72149Z"/>
<path d="M21.9 7.04381H21.2V7.24215H21.9V7.04381Z"/>
<path d="M24.6 10.2174H23.2V10.4157H24.6V10.2174Z"/>
<path d="M25 7.04381H24.6V8.13471H25V7.04381Z"/>
<path fill-rule="evenodd" clip-rule="evenodd" d="M23.2 3.87025H21.2V5.35785C21.2 5.5562 21.3 5.65538 21.5 5.65538L23.8 6.05207L23.7 5.75455C23.6 5.75455 23.6 5.85372 23.5 5.85372H23.4C23.2 5.85372 23.1 5.75455 23.1 5.5562V4.0686C23.2 3.96942 23.2 3.96942 23.2 3.87025ZM23.6 3.87025C23.7 3.87025 23.8 3.96942 23.8 4.0686V5.5562C23.8 5.65538 23.7 5.75455 23.6 5.75455H23.5C23.4 5.75455 23.3 5.65538 23.3 5.5562V4.0686C23.3 3.96942 23.4 3.87025 23.6 3.87025Z"/>
<path fill-rule="evenodd" clip-rule="evenodd" d="M9.6 10.1182C9.3 10.1182 9.1 10.3165 9.1 10.6141C9.1 10.9116 9.3 11.1099 9.6 11.1099C9.9 11.1099 10.1 10.9116 10.1 10.6141C10 10.3165 9.8 10.1182 9.6 10.1182Z"/>
<path fill-rule="evenodd" clip-rule="evenodd" d="M5.7 10.1182C5.4 10.1182 5.2 10.3165 5.2 10.6141C5.2 10.9116 5.4 11.1099 5.7 11.1099C6 11.1099 6.2 10.9116 6.2 10.6141C6.1 10.3165 5.9 10.1182 5.7 10.1182Z"/>
</svg>
