<svg viewBox="0 0 16 12" fill="black" xmlns="http://www.w3.org/2000/svg">
<path fill-rule="evenodd" clip-rule="evenodd" d="M14.4687 1.74545H3.53796V0.763637H1.63698V1.8H1.53137C0.686482 1.8 0 2.50909 0 3.38182V10.4182C0 11.2909 0.686482 12 1.53137 12H14.4687C15.3136 12 16 11.2909 16 10.4182V3.32727C16 2.45455 15.3136 1.74545 14.4687 1.74545ZM1.53137 2.78182H14.4687C14.7855 2.78182 14.9967 3.05455 14.9967 3.32727V6.92727C14.5743 7.58182 13.4654 8.56364 11.0891 8.56364C7.86799 8.56364 7.07591 6.16364 4.22442 6.16364C2.58746 6.16364 1.58415 6.81818 0.950489 7.41818V3.32727C1.00329 3.05455 1.21453 2.78182 1.53137 2.78182Z"/>
<path d="M3.7492 0H1.42575V0.490909H3.7492V0Z"/>
</svg>
