<svg viewBox="0 0 377 71" fill="black" xmlns="http://www.w3.org/2000/svg">
<path fill-rule="evenodd" clip-rule="evenodd" d="M7.21973 27.9954V44.6322H9.10314L4.39462 49.0268V46.2017H0V57.1882H4.39462V54.0492L12.5561 48.399H25.7399L31.0762 41.8071H150.045L155.067 34.9012H376.682V27.9954H7.21973Z"/>
<path d="M276.861 29.8788H273.094V54.3631H276.861V29.8788Z"/>
<path d="M204.978 29.8788H201.211V54.3631H204.978V29.8788Z"/>
<path d="M284.395 50.2824H193.991V57.816H284.395V50.2824Z"/>
<path d="M284.395 36.7848H193.991V44.3184H284.395V36.7848Z"/>
<path fill-rule="evenodd" clip-rule="evenodd" d="M69.0583 53.7354H67.1749H66.5471C66.2332 58.4439 64.0359 62.5247 60.8969 65.3498C57.444 68.8027 52.7354 71 47.3991 71C42.0628 71 37.3543 68.8027 33.9014 65.3498C30.7623 62.2108 28.8789 58.13 28.2511 53.7354H23.8565V51.852C23.8565 45.2601 26.0538 38.9821 30.4484 34.5874C32.018 33.0179 33.9014 31.4484 36.4126 30.5067H59.0135C61.2108 31.4484 63.0942 33.0179 64.9776 34.5874C66.861 36.4709 68.4305 38.9821 69.6861 41.4933V53.7354H69.0583ZM47.3991 42.435C42.0628 42.435 37.9821 46.5157 37.9821 51.852C37.9821 57.1883 42.0628 61.2691 47.3991 61.2691C52.7354 61.2691 56.8162 57.1883 56.8162 51.852C56.8162 46.5157 52.7354 42.435 47.3991 42.435Z"/>
<path fill-rule="evenodd" clip-rule="evenodd" d="M47.3991 46.8295C44.574 46.8295 42.3767 49.0268 42.3767 51.8519C42.3767 54.677 44.574 56.8743 47.3991 56.8743C50.2242 56.8743 52.4215 54.677 52.4215 51.8519C52.7354 49.0268 50.2242 46.8295 47.3991 46.8295Z"/>
<path fill-rule="evenodd" clip-rule="evenodd" d="M112.691 53.7354H110.179C109.865 58.4439 107.668 62.5247 104.529 65.3498C101.076 68.8027 96.3677 71 91.0314 71C85.6951 71 80.9865 68.8027 77.5336 65.3498C74.3946 62.2108 72.5112 58.13 71.8834 53.7354H69.0583H67.1749L67.1749 51.852C67.1749 45.2601 69.3722 38.9821 73.4529 34.5874C75.0224 33.0179 76.9058 31.4484 79.417 30.5067H102.018C104.215 31.4484 106.099 33.0179 107.982 34.5874C109.865 36.4709 111.435 38.9821 112.691 41.4933V53.7354ZM91.0314 42.435C85.6951 42.435 81.6143 46.5157 81.6143 51.852C81.6143 57.1883 85.6951 61.2691 91.0314 61.2691C96.3677 61.2691 100.448 57.1883 100.448 51.852C100.448 46.5157 96.0538 42.435 91.0314 42.435Z"/>
<path fill-rule="evenodd" clip-rule="evenodd" d="M91.0314 46.8295C88.2063 46.8295 86.009 49.0268 86.009 51.8519C86.009 54.677 88.2063 56.8743 91.0314 56.8743C93.8565 56.8743 96.0538 54.677 96.0538 51.8519C96.0538 49.0268 93.8565 46.8295 91.0314 46.8295Z"/>
<path fill-rule="evenodd" clip-rule="evenodd" d="M112.691 53.7354H115.202C115.516 58.4439 117.713 62.5247 120.852 65.3498C124.305 68.8027 129.013 71 134.35 71C139.686 71 144.395 68.8027 147.848 65.3498C150.987 62.2108 152.87 58.13 153.498 53.7354H157.892V51.852C157.892 45.2601 155.695 38.9821 151.614 34.5874C150.045 33.0179 148.161 31.4484 145.65 30.5067H123.049C120.852 31.4484 118.969 33.0179 117.085 34.5874C115.202 36.4709 113.632 38.9821 112.377 41.4933V53.7354H112.691ZM134.35 42.435C139.686 42.435 143.767 46.5157 143.767 51.852C143.767 57.1883 139.686 61.2691 134.35 61.2691C129.013 61.2691 124.933 57.1883 124.933 51.852C124.933 46.5157 129.013 42.435 134.35 42.435Z"/>
<path fill-rule="evenodd" clip-rule="evenodd" d="M134.35 46.8295C137.175 46.8295 139.372 49.0268 139.372 51.8519C139.372 54.677 137.175 56.8743 134.35 56.8743C131.525 56.8743 129.327 54.677 129.327 51.8519C129.013 49.0268 131.525 46.8295 134.35 46.8295Z"/>
<path d="M322.377 34.2734H318.296V67.2331H322.377V34.2734Z"/>
<path d="M157.892 2.56946H154.753V29.565H157.892V2.56946Z"/>
<path d="M229.462 2.56946H226.323V29.565H229.462V2.56946Z"/>
<path d="M369.767 4.02476V0.885742H12.5476V4.02476H369.767Z"/>
<path d="M369.906 10.755V7.61598H12.686V10.755H369.906Z"/>
<path d="M369.777 17.5326V14.3936H12.5576V17.5326H369.777Z"/>
<path d="M369.694 24.3548V21.2158H12.4742V24.3548H369.694Z"/>
</svg>
