<svg viewBox="0 0 553 70" fill="black" xmlns="http://www.w3.org/2000/svg">
<path fill-rule="evenodd" clip-rule="evenodd" d="M10.5921 7.3683V31.3157H13.3553L5.98684 37.7632V33.6183H0V49.7367H5.98684V45.1315L18.421 37.3025H37.7631L45.5921 27.1709L220.131 27.6316L227.5 17.0395H552.631V7.3683H10.5921Z"/>
<path d="M406.184 10.1316H400.658V46.0526H406.184V10.1316Z"/>
<path d="M300.723 10.1316H295.197V46.0526H300.723V10.1316Z"/>
<path d="M417.237 39.6051H284.605V50.6579H417.237V39.6051Z"/>
<path d="M417.237 19.8026H284.605V30.8553H417.237V19.8026Z"/>
<path fill-rule="evenodd" clip-rule="evenodd" d="M97.6315 44.6711C97.171 51.579 93.9473 57.5656 89.342 61.7103C84.2763 66.7761 77.3684 70 69.5394 70C61.7105 70 54.8026 66.7761 49.7368 61.7103C45.1315 57.105 42.3684 51.1184 41.4473 44.6711H35V41.9077C35 32.2367 38.2237 23.0262 44.671 16.5788C46.9737 14.2762 49.7368 11.9736 53.421 10.592H86.5789C89.8026 11.9736 92.5657 14.2762 95.3289 16.5788C98.092 19.342 100.395 23.0262 102.237 26.7104V44.6711H97.6315ZM69.5394 28.5527C61.7105 28.5527 55.7236 34.5395 55.7236 42.3684C55.7236 49.7369 61.7105 56.1842 69.5394 56.1842C77.3684 56.1842 83.3552 50.1974 83.3552 42.3684C83.3552 34.5395 77.3684 28.5527 69.5394 28.5527Z"/>
<path fill-rule="evenodd" clip-rule="evenodd" d="M69.5394 34.5394C65.3947 34.5394 62.171 37.763 62.171 41.9077C62.171 46.0525 65.3947 49.2763 69.5394 49.2763C73.6842 49.2763 76.9078 46.0525 76.9078 41.9077C77.3684 37.763 73.6842 34.5394 69.5394 34.5394Z"/>
<path fill-rule="evenodd" clip-rule="evenodd" d="M165.329 44.6711H161.645C161.184 51.579 157.96 57.5656 153.355 61.7103C148.289 66.7761 141.381 70 133.553 70C125.724 70 118.816 66.7761 113.75 61.7103C109.145 57.105 106.382 51.1184 105.46 44.6711H99.0131V41.9077C99.0131 32.2367 102.237 23.0262 108.224 16.5788C110.526 14.2762 113.289 11.9736 116.974 10.592H150.131C153.355 11.9736 156.118 14.2762 158.881 16.5788C161.645 19.342 163.947 23.0262 165.789 26.7104V44.6711H165.329ZM133.092 28.5527C125.263 28.5527 119.276 34.5395 119.276 42.3684C119.276 49.7369 125.263 56.1842 133.092 56.1842C140.921 56.1842 146.908 50.1974 146.908 42.3684C146.908 34.5395 140.921 28.5527 133.092 28.5527Z"/>
<path fill-rule="evenodd" clip-rule="evenodd" d="M133.092 34.5394C128.947 34.5394 125.724 37.763 125.724 41.9077C125.724 46.0525 128.947 49.2763 133.092 49.2763C137.237 49.2763 140.46 46.0525 140.46 41.9077C140.921 37.763 137.237 34.5394 133.092 34.5394Z"/>
<path fill-rule="evenodd" clip-rule="evenodd" d="M165.329 44.6711H169.013C169.474 51.579 172.697 57.5656 177.302 61.7103C182.368 66.7761 189.276 70 197.105 70C204.934 70 211.842 66.7761 216.908 61.7103C221.513 57.105 224.276 51.1184 225.197 44.6711H231.645V41.9077C231.645 32.2367 228.421 23.0262 222.434 16.5788C220.131 14.2762 217.368 11.9736 213.684 10.592H180.526C177.302 11.9736 174.539 14.2762 171.776 16.5788C169.013 19.342 166.71 23.0262 164.868 26.7104V44.6711H165.329ZM197.105 28.5527C204.934 28.5527 210.921 34.5395 210.921 42.3684C210.921 49.7369 204.934 56.1842 197.105 56.1842C189.276 56.1842 183.289 50.1974 183.289 42.3684C183.289 34.5395 189.276 28.5527 197.105 28.5527Z"/>
<path fill-rule="evenodd" clip-rule="evenodd" d="M197.105 34.5394C201.25 34.5394 204.474 37.763 204.474 41.9077C204.474 46.0525 201.25 49.2763 197.105 49.2763C192.96 49.2763 189.737 46.0525 189.737 41.9077C189.276 37.763 192.96 34.5394 197.105 34.5394Z"/>
<path d="M472.96 16.1184H466.973V64.4736H472.96V16.1184Z"/>
<path d="M22.5658 0H17.9605V9.67093H22.5658V0Z"/>
<path d="M291.973 0H287.368V9.67093H291.973V0Z"/>
<path d="M548.947 0H544.342V9.67093H548.947V0Z"/>
</svg>
