<svg viewBox="0 0 214 70" fill="black" xmlns="http://www.w3.org/2000/svg">
<path fill-rule="evenodd" clip-rule="evenodd" d="M7.99533 47.8088V56.2937H8.97436L6.52681 58.5781V57.1096H4.24244V62.8205H6.52681V61.1888L10.7692 58.4149H17.6224V53.683L81.4219 54.3357L84.8485 51.2354H181.772V47.8088H7.99533Z"/>
<path d="M189.604 48.7879H0L13.0536 0H213.427L189.604 48.7879ZM3.10022 46.8299H187.646L209.511 1.79488H14.8485L3.10022 46.8299Z"/>
<path fill-rule="evenodd" clip-rule="evenodd" d="M39.1608 61.0256H38.8345C38.6713 63.4732 37.5291 65.5944 35.8974 67.063C34.1026 68.8578 31.655 70 28.8811 70C26.1073 70 23.6597 68.8578 21.8648 67.063C20.2331 65.4313 19.2541 63.31 18.9278 61.0256H16.6434V60.0466C16.6434 56.62 17.7855 53.3566 20.0699 51.0722C20.8858 50.2564 21.8648 49.4406 23.1702 48.9511H34.9184C36.0606 49.4406 37.0396 50.2564 38.0186 51.0722C38.9977 52.0513 39.8135 53.3566 40.4662 54.662V61.0256H39.1608ZM28.8811 55.3147C26.1073 55.3147 23.986 57.4359 23.986 60.2098C23.986 62.9837 26.1073 65.1049 28.8811 65.1049C31.655 65.1049 33.7763 62.9837 33.7763 60.2098C33.7763 57.4359 31.655 55.3147 28.8811 55.3147Z"/>
<path fill-rule="evenodd" clip-rule="evenodd" d="M28.8811 57.4359C27.4126 57.4359 26.2704 58.5781 26.2704 60.0466C26.2704 61.5151 27.4126 62.6573 28.8811 62.6573C30.3497 62.6573 31.4918 61.5151 31.4918 60.0466C31.655 58.5781 30.3497 57.4359 28.8811 57.4359Z"/>
<path fill-rule="evenodd" clip-rule="evenodd" d="M62.8205 61.0256H61.5152C61.352 63.4732 60.2098 65.5944 58.5781 67.063C56.7832 68.8578 54.3357 70 51.5618 70C48.7879 70 46.3403 68.8578 44.5454 67.063C42.9137 65.4313 41.9347 63.31 41.6084 61.0256H39.1608V60.0466C39.1608 56.62 40.303 53.3566 42.4243 51.0722C43.2401 50.2564 44.2191 49.4406 45.5245 48.9511H57.2727C58.4149 49.4406 59.394 50.2564 60.373 51.0722C61.352 52.0513 62.1678 53.3566 62.8205 54.662V61.0256ZM51.3986 55.3147C48.6247 55.3147 46.5035 57.4359 46.5035 60.2098C46.5035 62.9837 48.6247 65.1049 51.3986 65.1049C54.1725 65.1049 56.2937 62.9837 56.2937 60.2098C56.2937 57.4359 54.1725 55.3147 51.3986 55.3147Z"/>
<path fill-rule="evenodd" clip-rule="evenodd" d="M51.3986 57.4359C49.9301 57.4359 48.7879 58.5781 48.7879 60.0466C48.7879 61.5151 49.9301 62.6573 51.3986 62.6573C52.8671 62.6573 54.0093 61.5151 54.0093 60.0466C54.1725 58.5781 52.8671 57.4359 51.3986 57.4359Z"/>
<path fill-rule="evenodd" clip-rule="evenodd" d="M62.8205 61.0256H64.1259C64.289 63.4732 65.4313 65.5944 67.063 67.063C68.8578 68.8578 71.3054 70 74.0793 70C76.8532 70 79.3007 68.8578 81.0956 67.063C82.7273 65.4313 83.7063 63.31 84.0327 61.0256H86.317V60.0466C86.317 56.62 85.1748 53.3566 83.0536 51.0722C82.2378 50.2564 81.2588 49.4406 79.9534 48.9511H68.2051C67.0629 49.4406 66.0839 50.2564 65.1049 51.0722C64.1259 52.0513 63.31 53.3566 62.6573 54.662V61.0256H62.8205ZM74.0793 55.3147C76.8532 55.3147 78.9744 57.4359 78.9744 60.2098C78.9744 62.9837 76.8532 65.1049 74.0793 65.1049C71.3054 65.1049 69.1842 62.9837 69.1842 60.2098C69.1842 57.4359 71.3054 55.3147 74.0793 55.3147Z"/>
<path fill-rule="evenodd" clip-rule="evenodd" d="M74.0792 57.4359C75.5478 57.4359 76.69 58.5781 76.69 60.0466C76.69 61.5151 75.5478 62.6573 74.0792 62.6573C72.6107 62.6573 71.4685 61.5151 71.4685 60.0466C71.3053 58.5781 72.6107 57.4359 74.0792 57.4359Z"/>
<path d="M171.818 50.9091H169.697V68.042H171.818V50.9091Z"/>
<path d="M28.718 7.34266H26.2704V41.4452H28.718V7.34266Z"/>
<path d="M46.8299 7.34266H44.3823V41.4452H46.8299V7.34266Z"/>
<path d="M64.9417 7.34266H62.4942V41.4452H64.9417V7.34266Z"/>
<path d="M83.0536 7.34266H80.6061V41.4452H83.0536V7.34266Z"/>
<path d="M101.329 7.34266H98.8811V41.4452H101.329V7.34266Z"/>
<path d="M119.441 7.34266H116.993V41.4452H119.441V7.34266Z"/>
<path d="M137.552 7.34266H135.105V41.4452H137.552V7.34266Z"/>
<path d="M155.664 7.34266H153.217V41.4452H155.664V7.34266Z"/>
<path d="M173.939 7.34266H171.492V41.4452H173.939V7.34266Z"/>
</svg>
