<svg viewBox="0 0 164 70" fill="black" xmlns="http://www.w3.org/2000/svg">
<path fill-rule="evenodd" clip-rule="evenodd" d="M128.02 28.2593C128.539 27.7407 129.318 27.4815 130.097 27.4815C127.5 25.4074 125.163 23.0741 123.086 21.2593C121.008 19.4444 118.671 17.1111 116.075 15.037C115.555 14.5185 114.776 14.2593 113.997 14.2593H104.909V31.1111C104.909 31.1111 117.373 36.037 123.865 36.037H126.721C126.462 35.5185 126.202 35 126.202 34.4815C126.202 32.9259 126.721 29.5556 128.02 28.2593Z"/>
<path fill-rule="evenodd" clip-rule="evenodd" d="M130.876 29.037C130.357 28.7778 129.837 29.037 129.318 29.2963C128.539 30.0741 128.019 33.1852 128.019 34.4815C128.019 35 128.019 35.2593 128.539 35.5185C128.798 35.7778 129.318 36.037 129.577 36.037H132.953C136.329 36.2963 132.174 29.5556 130.876 29.037Z"/>
<path d="M110.362 36.037H103.091V38.1111H110.362V36.037Z"/>
<path d="M98.9359 34.2222H91.665V36.2963H98.9359V34.2222Z"/>
<path d="M59.7252 35.7778H17.9176V37.8519H59.7252V35.7778Z"/>
<path fill-rule="evenodd" clip-rule="evenodd" d="M162.037 47.963C162.037 43.5556 162.037 42.7778 160.739 38.3704C159.7 33.963 140.224 27.7407 137.887 26.963C135.031 25.1481 130.097 20.7407 125.423 16.5926C121.008 12.7037 117.113 8.81482 114.257 7.25926C109.583 4.14815 103.091 0.518519 95.0409 0.259259H9.60795L8.82892 0C5.71282 0 3.89512 3.62963 2.59675 11.6667C2.0774 15.8148 1.8177 29.037 1.55802 36.8148C1.55802 39.4074 1.55805 41.2222 1.29837 42C1.29837 42.7778 1.03867 43.5556 0.778992 44.5926C0.519317 45.3704 0.259651 45.8889 0.259651 45.8889L0 46.1481V56.2593C0 56.5185 0.779008 57.8148 2.33705 59.1111C3.63543 60.4074 6.23216 61.7037 9.8676 61.7037C9.8676 61.7037 10.1273 61.7037 10.387 61.7037H21.8126C22.332 63.5185 23.3707 65.3333 24.6691 66.6296C26.7465 68.7037 29.6029 70 32.719 70C35.8351 70 38.6915 68.7037 40.7689 66.6296C42.0673 65.3333 43.1059 63.5185 43.6253 61.7037H126.461C126.981 63.5185 128.02 65.3333 129.318 66.6296C131.395 68.7037 134.252 70 137.368 70C140.484 70 143.34 68.7037 145.418 66.6296C146.716 65.3333 147.755 63.5185 148.274 61.7037H151.39C153.727 61.7037 157.882 61.7037 159.18 61.4444H159.959C162.297 60.9259 163.855 59.1111 163.855 57.037V51.5926C164.114 50.2963 163.335 49 162.037 47.963ZM32.719 66.1111C28.8238 66.1111 25.9675 63 25.9675 59.3704C25.9675 55.4815 29.0835 52.6296 32.719 52.6296C36.6141 52.6296 39.4705 55.7407 39.4705 59.3704C39.4705 63 36.6141 66.1111 32.719 66.1111ZM137.368 66.1111C133.473 66.1111 130.616 63 130.616 59.3704C130.616 55.4815 133.732 52.6296 137.368 52.6296C141.263 52.6296 144.119 55.7407 144.119 59.3704C144.379 63 141.263 66.1111 137.368 66.1111ZM160.998 57.2963C160.998 58.0741 160.479 58.5926 159.7 58.8519H159.18C158.142 59.1111 154.766 59.1111 151.65 59.1111H150.871V58.8519C150.871 55.2222 149.313 51.8519 146.976 49.5185C144.639 47.1852 141.263 45.6296 137.627 45.6296C133.992 45.6296 130.616 47.1852 128.279 49.5185C125.942 51.8519 124.384 55.2222 124.384 58.8519V59.1111H46.222V58.8519C46.222 55.2222 44.664 51.8519 42.3269 49.5185C39.9898 47.1852 36.6141 45.6296 32.9787 45.6296C29.3432 45.6296 25.9674 47.1852 23.6304 49.5185C21.2933 51.8519 19.7352 55.2222 19.7352 58.8519V59.1111H10.387C8.04991 59.1111 5.97251 58.5926 4.41446 57.2963C3.63544 56.7778 3.37576 56 3.11609 55.7407V47.1852C3.37576 46.9259 3.63543 46.4074 3.63543 45.8889C4.15478 44.5926 4.41446 43.2963 4.41446 42.2593C4.41446 42 4.41446 42 4.41446 41.7407C6.75153 40.963 8.56923 39.1481 8.56923 37.3333V18.4074H4.9338C5.19347 15.8148 5.19347 13.4815 5.45314 12.1852C6.75151 3.37037 8.56923 3.11111 8.56923 3.11111H95.0409C100.754 3.37037 105.947 5.44444 112.699 9.59259C115.295 11.1481 119.45 15.037 123.345 18.6667C128.279 23.0741 133.213 27.4815 136.329 29.5556L136.589 29.8148C139.186 30.5926 144.119 32.4074 148.534 34.2222C148.534 36.2963 148.534 38.1111 149.053 38.3704C149.832 39.1481 155.026 42 158.661 44.0741C158.661 45.1111 158.661 46.6667 158.661 48.7407V49.7778L159.7 50.2963C160.219 50.5556 160.739 51.0741 160.739 51.8519L160.998 57.2963Z"/>
<path fill-rule="evenodd" clip-rule="evenodd" d="M137.368 56.2593C135.81 56.2593 134.511 57.5556 134.511 59.1111C134.511 60.6667 135.81 61.963 137.368 61.963C138.926 61.963 140.224 60.6667 140.224 59.1111C140.224 57.5556 138.926 56.2593 137.368 56.2593Z"/>
<path fill-rule="evenodd" clip-rule="evenodd" d="M32.719 56.2593C31.1609 56.2593 29.8626 57.5556 29.8626 59.1111C29.8626 60.6667 31.1609 61.963 32.719 61.963C34.277 61.963 35.5754 60.6667 35.5754 59.1111C35.5754 57.5556 34.277 56.2593 32.719 56.2593Z"/>
<path d="M43.6252 17.6296C44.4043 17.3704 44.4043 17.1111 44.4043 17.1111L44.664 16.8518V12.7037C44.664 10.8889 46.222 10.3704 47.5203 10.1111L47.78 9.59259H36.8737V10.1111H39.4705C40.7688 10.1111 42.0672 10.6296 42.0672 12.1852V17.8889C42.3269 17.8889 42.3269 17.6296 42.5866 17.6296C42.5866 18.1481 43.1059 17.8889 43.6252 17.6296Z"/>
<path d="M70.6314 24.3704L70.3717 24.8889H82.0571V24.3704H78.6813C77.3829 24.3704 76.0846 23.8519 76.0846 22.2963V9.85185H74.2668L66.4766 20.7407C65.4379 22.2963 64.3992 23.3333 63.8799 23.8518C62.8412 24.6296 59.2057 25.1481 59.2057 23.0741C59.2057 22.8148 59.2057 22.2963 59.4654 21.5185L61.0235 14.7778C61.2831 13.7407 61.5428 12.963 61.5428 12.7037C62.0622 11.1481 63.3605 10.8889 64.9186 10.6296V10.1111H49.0784V10.3704C52.7139 10.8889 50.8962 12.963 49.5978 14.7778L44.9236 21.7778V18.9259C44.1446 19.4444 43.1059 20.2222 42.0672 20.7407V24.8889H43.885L51.6752 14C52.7139 12.4444 53.7526 11.4074 54.2719 10.8889C55.3106 10.1111 58.9461 9.59259 58.9461 11.6667C58.9461 11.9259 58.9461 12.4444 58.6864 13.2222L56.8687 20.7407C56.0896 23.3333 55.5703 24.3704 52.9736 24.3704V24.8889H68.8137L69.0734 24.3704C65.4379 23.8518 67.2556 21.7778 68.554 19.963L73.2282 12.963V21.7778C73.2282 23.5926 71.6701 24.1111 70.6314 24.3704Z"/>
<path d="M41.8076 28.5185L40.2496 30.8519L39.9899 28.5185H38.9512L39.4705 31.3704H41.0286L42.8463 28.5185H41.8076Z"/>
<path d="M43.6253 28.5185L43.1059 31.3704H43.885L44.664 28.5185H43.6253Z"/>
<path d="M43.8851 28H44.6641L44.9237 27.4815H43.8851V28Z"/>
<path d="M48.8187 28.5185H48.559C48.559 28.5185 48.2994 28.5185 48.0397 28.5185H45.7026L45.4429 29.2963H47.5203C47.78 29.2963 47.78 29.2963 47.78 29.2963C47.78 29.2963 47.78 29.2963 47.78 29.5556C47.78 29.5556 47.78 29.5556 47.78 29.8148L47.5203 30.8519H45.9623C45.7026 30.8519 45.7026 30.8519 45.7026 30.5926C45.7026 30.5926 45.7026 30.5926 45.7026 30.3333H47.001L47.2607 29.5556H46.2219C45.9623 29.5556 45.7026 29.5556 45.7026 29.5556C45.4429 29.5556 45.4429 29.5556 45.4429 29.5556L45.1833 29.8148C45.1833 29.8148 45.1832 30.0741 44.9236 30.3333V30.5926C44.9236 30.8519 44.9236 30.8519 44.9236 30.8519V31.1111C44.9236 31.1111 44.9236 31.1111 45.1833 31.3704H45.4429C45.4429 31.3704 45.7026 31.3704 45.9623 31.3704H48.559L49.0784 29.2963C49.0784 29.037 49.0784 29.037 49.0784 29.037C49.0784 28.7778 49.0784 28.7778 48.8187 28.5185C49.0784 28.5185 49.0784 28.5185 48.8187 28.5185Z"/>
<path d="M51.1556 28.7778V28.5185H50.1169L49.3379 31.6296H50.3766L50.8959 29.8148V29.5556C50.8959 29.5556 50.8959 29.5556 50.8959 29.2963C50.8959 29.2963 50.8959 29.2963 51.1556 29.2963H52.454L52.9733 28.5185H51.9346C51.675 28.5185 51.4153 28.5185 51.1556 28.7778Z"/>
<path d="M56.8685 28.5185C56.6088 28.5185 56.3491 28.5185 56.0895 28.5185H54.7911C54.2717 28.5185 54.012 28.5185 54.012 28.7778C53.7524 29.037 53.7524 29.037 53.4927 29.5556L53.2331 30.8519V31.1111C53.2331 31.1111 53.2331 31.1111 53.2331 31.3704V31.6296C53.2331 31.6296 53.233 31.6296 53.4927 31.8889H53.7524C53.7524 31.8889 54.0121 31.8889 54.2717 31.8889H56.6088L56.8685 31.1111H54.7911C54.5314 31.1111 54.5314 31.1111 54.5314 31.1111C54.5314 31.1111 54.5314 31.1111 54.5314 30.8519V30.5926L54.7911 29.8148V29.5556C54.7911 29.5556 54.7911 29.5556 54.7911 29.2963C54.7911 29.2963 54.7911 29.2963 55.0508 29.2963H56.0895C56.3491 29.2963 56.3491 29.2963 56.3491 29.5556C56.3491 29.5556 56.3491 29.5556 56.3491 29.8148H55.0508L54.7911 30.5926H57.1282L57.3878 29.5556C57.3878 29.2963 57.3878 29.2963 57.3878 29.2963C57.1282 28.7778 57.1282 28.5185 56.8685 28.5185Z"/>
<path d="M61.5426 28.5185C61.2829 28.5185 61.0232 28.5185 60.7636 28.5185H59.7249C59.4652 28.5185 59.2055 28.5185 58.9459 28.7778V28.5185H57.9072L57.1282 31.6296H58.1668L58.6862 29.8148V29.5556C58.6862 29.5556 58.6862 29.5556 58.6862 29.2963C58.6862 29.2963 58.6862 29.2963 58.9459 29.2963H59.9845C60.2442 29.2963 60.2442 29.2963 60.2442 29.2963C60.2442 29.2963 60.2442 29.2963 60.2442 29.5556C60.2442 29.5556 60.2442 29.5556 60.2442 29.8148L59.7249 31.6296H60.7636L61.2829 29.5556C61.2829 29.2963 61.2829 29.2963 61.2829 29.2963C61.8023 28.7778 61.5426 28.5185 61.5426 28.5185Z"/>
<path d="M63.8797 27.4815H62.841L62.062 30.5926C62.062 30.8519 62.062 30.8519 62.062 30.8519C62.062 31.1111 62.062 31.1111 62.3217 31.1111C62.5814 31.1111 62.841 31.1111 63.1007 31.1111H63.8797L64.1394 30.3333H63.6201C63.3604 30.3333 63.3604 30.3333 63.3604 30.3333C63.3604 30.3333 63.3604 30.3333 63.3604 30.0741C63.3604 30.0741 63.3604 30.0741 63.3604 29.8148L63.6201 28.7778H64.6588L64.9185 28H63.8797V27.4815Z"/>
<path d="M67.775 28.5185C67.5153 28.5185 67.5154 28.5185 67.5154 28.5185L67.2557 28.7778C67.2557 28.7778 67.2556 29.037 66.996 29.2963L66.7363 30.5926C66.7363 30.8519 66.7363 30.8519 66.7363 30.8519V31.1111C66.7363 31.1111 66.7363 31.1111 66.996 31.3704H67.2557C67.2557 31.3704 67.5153 31.3704 67.775 31.3704H69.8524L70.1121 30.5926H68.554C68.2944 30.5926 68.2943 30.5926 68.2943 30.5926C68.2943 30.5926 68.2943 30.5926 68.2943 30.3333C68.2943 30.3333 68.2943 30.3333 68.2943 30.0741L68.554 29.2963V29.037C68.554 29.037 68.554 29.037 68.554 28.7778C68.554 28.7778 68.5541 28.7778 68.8137 28.7778H70.6314L70.8911 28H68.8137C68.0347 28.5185 67.775 28.5185 67.775 28.5185Z"/>
<path d="M73.4879 29.5556L73.2282 30.3333V30.5926C73.2282 30.5926 73.2282 30.5926 72.9685 30.5926H71.9298C71.6702 30.5926 71.6701 30.5926 71.6701 30.5926C71.6701 30.5926 71.6701 30.5926 71.6701 30.3333C71.6701 30.3333 71.6701 30.3333 71.6701 30.0741L71.9298 29.2963V29.037C71.9298 29.037 71.9298 29.037 72.1895 29.037H73.2282C73.4879 29.037 73.4879 29.037 73.4879 29.037C73.4879 29.2963 73.4879 29.2963 73.4879 29.5556C73.4879 29.2963 73.4879 29.2963 73.4879 29.5556ZM74.2669 28.5185H74.0072C74.0072 28.5185 73.7475 28.5185 73.4879 28.5185H71.9298C71.6702 28.5185 71.4105 28.5185 71.4105 28.5185C71.1508 28.5185 71.1508 28.5185 71.1508 28.5185L70.8911 28.7778C70.8911 28.7778 70.8911 29.037 70.6314 29.2963L70.3718 30.5926C70.3718 30.8519 70.3718 30.8519 70.3718 30.8519C70.3718 31.1111 70.3718 31.1111 70.6314 31.1111C70.8911 31.1111 71.1508 31.1111 71.4105 31.1111H72.9685C73.2282 31.1111 73.4879 31.1111 73.4879 31.1111C73.7475 31.1111 73.7475 31.1111 73.7475 31.1111L74.0072 30.8519C74.0072 30.8519 74.0072 30.5926 74.2669 30.3333L74.5266 29.037C74.5266 28.7778 74.5266 28.7778 74.5266 28.7778C74.5266 28.7778 74.5266 28.7778 74.2669 28.5185C74.5266 28.5185 74.5266 28.5185 74.2669 28.5185Z"/>
<path d="M81.0184 28.5185C80.7587 28.5185 80.499 28.5185 80.2394 28.5185H79.72C79.4603 28.5185 79.4603 28.5185 79.2007 28.5185C78.941 28.5185 78.941 28.7778 78.941 28.7778C78.941 28.5185 78.941 28.5185 78.6813 28.5185C78.4216 28.5185 78.4216 28.5185 77.9023 28.5185H77.3829C77.1232 28.5185 76.8636 28.5185 76.6039 28.7778V28.5185H75.5652L74.7861 31.6296H75.8249L76.3442 29.8148V29.5556C76.3442 29.5556 76.3442 29.5556 76.3442 29.2963C76.3442 29.2963 76.3442 29.2963 76.6039 29.2963H77.1233C77.3829 29.2963 77.3829 29.2963 77.3829 29.2963C77.3829 29.2963 77.3829 29.2963 77.3829 29.5556L76.8636 31.6296H77.9023L78.4216 29.8148V29.5556C78.4216 29.5556 78.4216 29.5556 78.4216 29.2963C78.4216 29.2963 78.4216 29.2963 78.6813 29.2963H79.2007C79.4603 29.2963 79.4603 29.2963 79.4603 29.2963C79.4603 29.2963 79.4603 29.2963 79.4603 29.5556V29.8148L78.941 31.6296H79.9797L80.499 29.5556C80.499 29.2963 80.499 29.2963 80.499 29.2963C81.0184 28.7778 81.0184 28.5185 81.0184 28.5185Z"/>
<path d="M64.9187 30.5926L64.659 31.3704H65.6977L65.9574 30.5926H64.9187Z"/>
<path d="M44.664 17.6296C44.664 17.6296 44.4043 17.8889 43.8849 18.1481C43.3656 18.4074 43.1059 18.6667 42.8462 18.6667C39.4705 20.4815 36.614 21.5185 34.7963 22.2963C32.9786 22.8148 30.3818 23.0741 29.6028 22.8148C29.3432 22.8148 29.3431 22.5556 29.3431 22.037C29.3431 21.7778 29.3432 21.7778 29.6028 21.5185C30.9012 21.2593 32.1996 21 33.4979 20.7407C33.7576 20.7407 33.7576 20.7407 34.0173 20.7407C35.056 20.4815 36.0947 19.963 37.3931 19.1852C38.4318 18.4074 38.9511 17.8889 39.2108 17.1111C39.2108 16.8519 39.2108 16.3333 38.6914 15.8148C38.4318 15.2963 37.9124 15.037 37.3931 15.037C36.3544 14.7778 35.056 15.037 33.4979 15.8148C31.9399 16.3333 30.6415 17.3704 29.3431 18.4074C28.5641 19.1852 28.0448 19.963 27.7851 20.4815C27.2658 20.4815 27.0061 20.4815 26.4867 20.4815C25.9674 20.4815 25.9674 20.2222 25.7077 19.963C25.1884 19.1852 24.4094 18.6667 23.3707 18.6667H21.8126V19.4444H20.2545C19.9949 19.4444 19.7352 19.7037 19.7352 19.963C19.7352 20.2222 19.9949 20.4815 20.2545 20.4815H21.8126V22.037H20.2545C19.9949 22.037 19.7352 22.2963 19.7352 22.5556C19.7352 22.8148 19.9949 23.0741 20.2545 23.0741H21.8126V23.8519H23.111C24.1497 23.8519 24.9287 23.3333 25.448 22.2963C25.7077 22.037 25.448 22.037 26.2271 22.037C26.4867 22.037 26.7464 22.037 27.0061 22.037C26.7464 23.8519 27.2657 24.8889 28.8238 25.1481C30.1222 25.4074 31.9399 25.1481 34.0173 24.3704C36.3544 23.5926 38.1721 22.8148 39.9898 21.7778C41.8075 20.7407 43.1059 19.963 44.4043 18.9259C44.6639 18.6667 44.664 18.6667 44.664 18.4074C44.9236 17.8889 44.9236 17.8889 44.664 17.6296ZM32.9786 17.8889C34.277 17.1111 36.0947 16.3333 36.614 16.5926C36.614 16.5926 36.8737 16.5926 36.8737 16.8518C36.8737 17.1111 36.3544 17.6296 34.7963 18.4074C32.7189 19.7037 30.3819 19.963 30.3819 19.963C30.6415 19.7037 31.6802 18.6667 32.9786 17.8889Z"/>
</svg>
