<svg viewBox="0 0 134 70" fill="black" xmlns="http://www.w3.org/2000/svg">
<path d="M125.583 61.8428H116.667L116.287 61.4634C115.718 60.8943 115.339 60.5149 114.77 60.1355L116.098 58.2385C116.477 58.6179 117.046 58.9973 117.425 59.3767H125.203L131.084 57.8591V49.5122L129.187 43.8212H131.084V33.1978C131.084 29.2141 128.428 20.8672 126.721 14.7967C126.152 12.71 125.583 11.0027 125.203 9.4851C124.444 6.82927 120.081 5.31163 112.683 5.31163H96.5583V40.0271H94.2819V3.03524H112.683C121.409 3.03524 126.341 4.93226 127.29 8.7263C127.669 10.0542 128.239 11.9512 128.808 13.8482C130.894 20.4878 133.36 28.645 133.36 32.8184V45.5285H132.222L133.36 48.7534V58.9973L125.583 61.8428Z"/>
<path fill-rule="evenodd" clip-rule="evenodd" d="M132.033 30.3523C131.084 24.851 128.428 16.5041 126.721 11.3821H124.255L128.049 29.4038C128.049 29.2141 129.946 29.5935 132.033 30.3523Z"/>
<path fill-rule="evenodd" clip-rule="evenodd" d="M92.0054 60.7046V54.6341C92.0054 48.7534 96.748 44.0108 102.629 44.0108H104.526C111.355 44.0108 117.046 49.7019 117.046 56.5312V60.7046H114.959C114.58 62.981 113.442 65.0678 111.734 66.5854C109.648 68.6721 106.802 70 103.577 70C100.352 70 97.5068 68.6721 95.4201 66.5854C93.9025 65.0678 92.7642 62.981 92.1951 60.7046H92.0054ZM103.767 52.7371C100.732 52.7371 98.0759 55.2032 98.0759 58.4282C98.0759 61.4634 100.542 64.1192 103.767 64.1192C106.802 64.1192 109.458 61.6531 109.458 58.4282C109.458 55.2032 106.992 52.7371 103.767 52.7371Z"/>
<path d="M116.477 61.4634V56.5312C116.477 50.0813 111.165 44.7697 104.715 44.7697H102.818C97.3171 44.7697 92.9539 49.1328 92.9539 54.6341V61.4634H88.0217V52.168C88.0217 44.9594 94.6613 38.3198 101.87 38.3198H104.146C112.873 38.3198 121.03 46.0975 121.03 54.4444V61.4634H116.477ZM119.323 59.9458V54.4444C119.323 47.046 111.734 39.8374 103.957 39.8374H101.68C95.4201 39.8374 89.3496 45.7182 89.3496 52.168V59.9458H91.2466V54.6341C91.2466 48.374 96.3686 43.252 102.629 43.252H104.526C111.924 43.252 117.805 49.1328 117.805 56.5312V59.9458H119.323Z"/>
<path fill-rule="evenodd" clip-rule="evenodd" d="M103.767 55.2033C102.06 55.2033 100.732 56.5311 100.732 58.2385C100.732 59.9458 102.06 61.2737 103.767 61.2737C105.474 61.2737 106.802 59.9458 106.802 58.2385C106.802 56.7208 105.474 55.2033 103.767 55.2033Z"/>
<path fill-rule="evenodd" clip-rule="evenodd" d="M109.648 4.55283C103.577 1.1382 99.7832 0.189702 93.9025 0C92.7642 0 91.626 0.948521 91.626 2.08673C90.8672 12.71 90.1084 23.523 89.3496 34.1463V49.8916C89.9187 46.0975 92.3848 42.6829 95.6098 40.5962L95.2304 40.4065V4.55283H109.648Z"/>
<path d="M132.412 49.5122H128.049V57.2899H132.412V49.5122Z"/>
<path d="M129.566 52.168H120.081V53.6856H129.566V52.168Z"/>
<path d="M111.355 34.3361H106.423V35.8537H111.355V34.3361Z"/>
<path d="M129.566 55.7724H120.081V57.2899H129.566V55.7724Z"/>
<path fill-rule="evenodd" clip-rule="evenodd" d="M90.8672 46.2873H4.36314V54.065H25.2304C26.1789 53.3062 27.5068 52.7371 28.8347 52.7371C30.1626 52.7371 31.4905 53.1165 32.439 54.065H89.5393V52.168C89.3496 50.0813 89.9187 47.9946 90.8672 46.2873Z"/>
<path fill-rule="evenodd" clip-rule="evenodd" d="M40.2168 59.3767C40.0271 62.2222 38.6992 64.6884 36.8022 66.3957C34.7155 68.4824 31.8699 69.8103 28.645 69.8103C25.4201 69.8103 22.5745 68.4824 20.4878 66.3957C18.5908 64.4987 17.4526 62.0325 17.0732 59.3767H14.4173V58.2385C14.4173 54.2547 15.7453 50.4607 18.2114 47.8049C20.4878 45.5284 23.9024 44.0108 28.4553 44.0108C33.0081 44.0108 36.4228 45.5284 38.6992 47.8049C41.355 50.4607 42.4932 54.065 42.4932 58.2385V59.3767H40.2168ZM28.645 52.7371C25.6098 52.7371 22.9539 55.2032 22.9539 58.4282C22.9539 61.4634 25.4201 64.1192 28.645 64.1192C31.6802 64.1192 34.336 61.6531 34.336 58.4282C34.336 55.2032 31.8699 52.7371 28.645 52.7371Z"/>
<path fill-rule="evenodd" clip-rule="evenodd" d="M28.645 55.2033C26.9377 55.2033 25.6098 56.5311 25.6098 58.2385C25.6098 59.9458 26.9377 61.2737 28.645 61.2737C30.3523 61.2737 31.6802 59.9458 31.6802 58.2385C31.8699 56.7208 30.3523 55.2033 28.645 55.2033Z"/>
<path fill-rule="evenodd" clip-rule="evenodd" d="M66.0163 51.2195H45.7182V57.4797C45.7182 58.6179 46.6667 59.7561 47.9946 59.7561H63.7398C64.8781 59.7561 66.0163 58.8076 66.0163 57.4797V56.3414H67.5339V56.5312C67.5339 58.2385 68.8618 59.5664 70.5691 59.5664C71.7073 59.5664 72.8455 58.8076 73.2249 57.8591H76.8293C77.2087 58.9973 78.3469 59.5664 79.4851 59.5664C81.1924 59.5664 82.5203 58.2385 82.5203 56.5312V56.3414H83.4688V59.5664H89.3496V51.4092H83.4688V52.7371H65.8266V51.2195H66.0163Z"/>
<path fill-rule="evenodd" clip-rule="evenodd" d="M2.46612 55.0136H0V61.4634H2.46612V59.7561L7.58808 56.3414H15.5556V51.4092H6.07046V53.6856H5.88076L2.46612 56.5312V55.0136Z"/>
<path d="M132.412 34.1463H129.566V41.5447H132.412V34.1463Z"/>
<path d="M77.019 43.252H59.7561V48.374H77.019V43.252Z"/>
<path d="M27.8862 43.252H10.6233V48.374H27.8862V43.252Z"/>
<path fill-rule="evenodd" clip-rule="evenodd" d="M119.892 13.2791H106.802V23.523C106.802 24.6612 107.561 25.6098 108.699 25.7995L124.255 28.4553L123.875 26.1788C123.496 26.3685 123.117 26.5583 122.547 26.5583H121.978C120.84 26.5583 119.702 25.6097 119.702 24.2818V14.2276C119.702 13.8482 119.892 13.4688 119.892 13.2791ZM122.547 13.0894C123.117 13.0894 123.686 13.6585 123.686 14.2276V24.2818C123.686 24.8509 123.117 25.42 122.547 25.42H121.978C121.409 25.42 120.84 24.8509 120.84 24.2818V14.2276C120.84 13.6585 121.409 13.0894 121.978 13.0894H122.547Z"/>
<path d="M86.8835 31.4905H81.3821V45.149H86.8835V31.4905Z"/>
<path d="M71.3279 43.4417H17.0732C16.6938 43.4417 16.3144 43.2521 16.1247 42.8726L5.69106 9.67481C5.69106 9.48511 5.69106 9.10566 5.88076 8.91596C6.07046 8.72625 6.26016 8.53659 6.63957 8.53659H81.5718C81.7615 8.53659 82.1409 8.72625 82.3306 8.91596C82.5203 9.10566 82.5203 9.48511 82.5203 9.67481L72.0867 42.8726C72.0867 43.2521 71.7073 43.4417 71.3279 43.4417ZM17.832 41.7344H70.7588L80.6233 10.2439H7.96748L17.832 41.7344Z"/>
<path d="M7.77778 49.5122C7.39838 49.5122 6.82927 49.3225 6.44987 48.9431C5.69106 48.1843 5.50136 47.0461 6.26016 46.2873L35.0949 13.8482V5.69106C35.0949 4.55285 35.8537 3.79404 36.9919 3.79404C38.1301 3.79404 38.8889 4.55285 38.8889 5.69106V14.607C38.8889 14.9864 38.6992 15.5555 38.3198 15.935L9.10569 48.7534C8.72629 49.3225 8.34689 49.5122 7.77778 49.5122Z"/>
<path d="M75.122 41.9241H14.4173C13.2791 41.9241 12.5203 41.1653 12.5203 40.0271C12.5203 38.8889 13.2791 38.1301 14.4173 38.1301H75.122C76.2602 38.1301 77.019 38.8889 77.019 40.0271C77.019 41.1653 76.2602 41.9241 75.122 41.9241Z"/>
<path d="M70 20.6775H18.4011V23.523H70V20.6775Z"/>
</svg>
