<svg viewBox="0 0 442 242" fill="black" xmlns="http://www.w3.org/2000/svg">
<path d="M417.31 155.977C416.886 156.669 416.269 157.02 415.432 157.02C414.99 157.02 414.577 156.956 414.269 156.777L406.268 152.093L406.146 160.141C406.129 161.378 405.188 162.333 403.945 162.333C402.708 162.333 401.737 161.302 401.745 160.057L401.825 149.576L387.662 141.374V158.014L396.586 163.016C397.682 163.633 398.073 164.98 397.465 166.053C397.036 166.825 396.385 167.184 395.506 167.184C395.144 167.184 394.777 167.113 394.464 166.934L387.662 163.096V172.26C387.662 173.497 386.664 174.464 385.425 174.464C384.184 174.464 383.225 173.497 383.225 172.26V162.941L376.182 166.934C375.869 167.113 375.502 167.184 375.102 167.184C374.261 167.184 373.664 166.817 373.222 166.053C372.585 164.97 372.969 163.633 374.06 163.016L383.225 157.853V141.458L368.738 149.738L368.821 160.057C368.83 161.302 367.901 162.333 366.658 162.333H366.58C365.421 162.333 364.392 161.378 364.38 160.141L364.3 152.372L356.498 156.856C355.977 157.061 355.577 157.177 355.378 157.177C354.54 157.177 353.944 156.81 353.498 156.06C352.86 154.977 353.214 153.648 354.298 153.014L362.18 148.413L355.298 144.333C354.265 143.721 353.944 142.396 354.54 141.294C355.102 140.236 356.498 139.941 357.577 140.57L366.58 145.896L381.025 137.532L366.58 129.25L357.577 134.569C357.224 134.785 356.857 134.893 356.418 134.893C355.577 134.893 354.961 134.544 354.54 133.852C353.881 132.785 354.22 131.336 355.298 130.813L362.18 126.692L354.298 122.133C353.21 121.504 352.901 120.194 353.498 119.086C354.064 118.037 355.41 117.661 356.498 118.294L364.3 122.774L364.38 115.006C364.392 113.769 365.421 112.773 366.58 112.773H366.658C367.901 112.773 368.942 113.848 368.821 115.006L368.738 125.334L383.225 133.69V117.21L374.06 112.046C372.985 111.438 372.597 110.101 373.222 109.009C373.834 107.942 375.085 107.6 376.182 108.205L383.225 112.132V102.966C383.225 101.729 384.184 100.728 385.425 100.728C386.664 100.728 387.662 101.729 387.662 102.966V112.046L394.464 108.205C395.557 107.593 396.84 107.913 397.465 109.009C398.082 110.085 397.628 111.456 396.586 112.046L387.662 117.132V133.777L401.825 125.574L401.745 115.006C401.737 113.848 402.708 112.773 403.945 112.773C405.188 112.773 406.129 113.769 406.146 115.006L406.268 123.013L414.269 118.369C415.34 117.748 416.744 118.116 417.31 119.174C417.902 120.273 417.548 121.612 416.51 122.212L408.546 126.813L415.269 130.813C416.348 131.336 416.669 132.768 416.069 133.852C415.548 134.536 414.868 134.893 414.109 134.893C413.709 134.893 413.348 134.773 413.069 134.569L404.108 129.33L389.864 137.532L404.108 145.821L413.069 140.57C414.094 139.974 415.444 140.204 416.069 141.294C416.685 142.361 416.348 143.813 415.269 144.333L408.546 148.338L416.51 152.94C417.548 153.534 417.965 154.91 417.31 155.977ZM385.402 81.8704C354.626 81.8704 329.677 106.82 329.677 137.596C329.677 153.676 336.496 168.156 347.39 178.326C350.836 181.545 354.684 184.34 358.861 186.606C364.593 189.717 370.936 191.84 377.658 192.774C380.19 193.126 382.773 193.322 385.402 193.322C388.813 193.322 392.146 193 395.388 192.413C421.396 187.705 441.129 164.962 441.129 137.596C441.129 106.82 416.18 81.8704 385.402 81.8704Z" fill="#00ADEE"/>
<path d="M190.227 225.837C182.907 225.837 177.575 220.866 177.575 212.824C177.575 201.798 185.979 191.949 196.462 191.949C202.697 191.949 206.674 194.932 209.203 200.082L224.385 191.949C220.59 182.189 211.643 175.954 198.721 175.954C174.413 175.954 159.231 195.384 159.231 214.089C159.231 230.986 171.611 241.741 189.142 241.741C201.161 241.741 209.474 236.861 215.619 229.902L203.782 219.42C199.715 223.486 195.739 225.837 190.227 225.837Z" />
<path d="M255.391 225.927C246.446 225.927 241.565 219.963 241.565 211.92C241.565 202.521 248.794 191.768 259.819 191.768C268.766 191.768 273.646 197.732 273.646 205.775C273.646 215.173 266.507 225.927 255.391 225.927ZM261.357 176.044C239.397 176.044 223.673 194.028 223.673 213.275C223.673 229.361 235.873 241.651 253.855 241.651C275.815 241.651 291.538 223.668 291.538 204.42C291.538 188.335 279.339 176.044 261.357 176.044Z" />
<path d="M347.125 205.775C347.125 215.174 339.985 225.927 328.87 225.927C319.925 225.927 315.045 219.963 315.045 211.921C315.045 202.522 322.274 191.768 333.298 191.768C342.245 191.768 347.125 197.733 347.125 205.775ZM335.338 176.066C335.168 176.063 335.006 176.044 334.836 176.044C312.877 176.044 297.152 194.028 297.152 213.275C297.152 229.361 309.352 241.651 327.336 241.651C349.294 241.651 365.017 223.669 365.017 204.42C365.017 201.847 364.673 199.387 364.076 197.045C352.586 192.922 342.646 185.562 335.338 176.066Z" />
<path d="M385.403 200.746C382.11 200.746 378.875 200.492 375.716 200.006L364.847 240.476H412.652L416.808 225.114H386.626L393.291 200.238C390.704 200.56 388.076 200.746 385.403 200.746Z" />
<path d="M43.2341 130.28L29.7127 151.469L20.0647 151.455L16.6207 130.237L23.1794 130.248L25.4887 147.593L36.1341 130.269L43.2341 130.28Z" />
<path d="M56.2761 128.137L49.6094 128.127L50.7534 123.279L57.4201 123.289L56.2761 128.137ZM50.7187 151.495L44.0521 151.484L49.0641 130.281L55.7321 130.292L50.7187 151.495Z" />
<path d="M82.7514 151.541L65.5154 151.513C64.2501 151.512 63.1941 151.461 62.3447 151.361C61.4954 151.263 60.8101 151.089 60.2861 150.844C59.7621 150.599 59.3834 150.263 59.1487 149.837C58.9141 149.413 58.7981 148.857 58.7981 148.172C58.7994 147.421 58.9274 146.539 59.1807 145.527L59.4541 144.352C59.7807 143.079 60.1434 142.051 60.5407 141.268C60.9394 140.484 61.4821 139.881 62.1701 139.457C62.8567 139.035 63.7154 138.749 64.7447 138.604C65.7754 138.459 67.0674 138.388 68.6207 138.391L76.3714 138.403L75.1727 143.496L67.9647 143.484C67.3141 143.483 66.7901 143.669 66.3914 144.045C65.9941 144.42 65.7941 144.836 65.7941 145.293C65.7927 146.044 66.2807 146.42 67.2554 146.421L77.2834 146.437L79.1901 138.407C79.3714 137.591 79.4621 137.052 79.4634 136.791C79.4634 136.236 79.2567 135.876 78.8407 135.712C78.4261 135.548 77.5861 135.465 76.3207 135.464L62.6621 135.441L63.8607 130.349L80.0127 130.375C81.2767 130.377 82.3341 130.428 83.1834 130.527C84.0327 130.627 84.7181 130.799 85.2421 131.044C85.7661 131.291 86.1447 131.625 86.3794 132.051C86.6141 132.476 86.7301 133.031 86.7301 133.716C86.7287 134.468 86.6007 135.349 86.3474 136.361L82.7514 151.541Z" />
<path d="M111.605 135.514L103.8 135.502C102.969 135.501 102.309 135.532 101.821 135.597C101.334 135.661 100.945 135.8 100.656 136.012C100.366 136.224 100.14 136.525 99.9769 136.916C99.8142 137.308 99.6595 137.814 99.5142 138.434L96.4089 151.557L89.7422 151.546L94.7542 130.393L101.421 130.404L100.822 133.048C102.053 131.286 103.716 130.408 105.812 130.41L112.804 130.422L111.605 135.514Z" />
<path d="M139.865 143.585L124.364 143.56L125.562 138.468L134.614 138.483C134.832 137.568 134.941 137.063 134.941 136.964C134.942 135.984 134.076 135.493 132.341 135.491L127.029 135.483C126.306 135.481 125.701 135.512 125.213 135.577C124.725 135.641 124.328 135.78 124.021 135.992C123.713 136.204 123.46 136.505 123.261 136.897C123.061 137.288 122.889 137.811 122.744 138.464L121.545 143.556C121.4 144.209 121.326 144.732 121.326 145.124C121.326 145.679 121.533 146.047 121.948 146.227C122.364 146.407 123.204 146.499 124.469 146.5L138.128 146.521L136.929 151.565L120.722 151.54C119.421 151.537 118.337 151.487 117.47 151.388C116.604 151.288 115.917 151.108 115.412 150.845C114.906 150.583 114.545 150.248 114.329 149.84C114.113 149.431 114.005 148.9 114.005 148.247C114.006 147.888 114.042 147.488 114.116 147.047C114.188 146.607 114.297 146.108 114.442 145.553L116.568 136.396C117.076 134.241 118.044 132.7 119.473 131.772C120.901 130.843 122.988 130.381 125.734 130.385L135.274 130.4C137.768 130.405 139.501 130.636 140.476 131.095C141.452 131.553 141.938 132.436 141.937 133.743C141.936 134.493 141.808 135.392 141.554 136.436L139.865 143.585Z" />
<path d="M170.198 151.661L163.586 151.651L166.692 138.527C166.873 137.711 166.964 137.172 166.964 136.911C166.965 136.356 166.757 135.996 166.342 135.832C165.926 135.668 165.086 135.585 163.822 135.584L158.51 135.575C157.68 135.573 157.02 135.605 156.532 135.669C156.044 135.735 155.656 135.872 155.366 136.084C155.077 136.296 154.85 136.597 154.688 136.989C154.524 137.381 154.37 137.887 154.225 138.508L151.12 151.631L144.453 151.62L149.465 130.467L156.132 130.477L155.532 133.121C156.762 131.36 158.426 130.48 160.522 130.484L167.514 130.495C170.008 130.499 171.741 130.723 172.716 131.164C173.692 131.607 174.178 132.497 174.177 133.837C174.176 134.588 174.048 135.469 173.794 136.481L170.198 151.661Z" />
<path d="M189.53 151.685L184.164 151.677C181.671 151.673 179.936 151.449 178.962 151.006C177.986 150.565 177.499 149.673 177.502 148.334C177.502 147.584 177.63 146.702 177.884 145.69L183.114 123.508L189.78 123.518L188.092 130.521L194.542 130.53L193.288 135.624L186.947 135.613L185.04 143.644C184.859 144.46 184.768 144.998 184.768 145.26C184.767 145.816 184.975 146.174 185.39 146.338C185.806 146.502 186.646 146.586 187.91 146.588L190.728 146.592L189.53 151.685Z" />
<path d="M228.27 151.728L214.394 151.706C213.058 151.704 211.955 151.646 211.088 151.53C210.222 151.414 209.535 151.234 209.03 150.987C208.523 150.742 208.171 150.406 207.974 149.982C207.775 149.556 207.676 149.018 207.678 148.364C207.678 147.614 207.806 146.732 208.06 145.72L210.239 136.514C210.566 135.24 210.938 134.212 211.354 133.43C211.771 132.646 212.331 132.043 213.036 131.62C213.742 131.196 214.6 130.912 215.612 130.767C216.624 130.622 217.888 130.55 219.407 130.552L233.282 130.574L232.083 135.667L220.7 135.648C219.87 135.647 219.211 135.679 218.723 135.743C218.235 135.808 217.846 135.946 217.556 136.158C217.267 136.37 217.042 136.671 216.878 137.063C216.715 137.455 216.56 137.96 216.415 138.582L215.216 143.674C215.035 144.49 214.944 145.028 214.944 145.29C214.943 145.846 215.151 146.204 215.566 146.368C215.982 146.532 216.822 146.615 218.086 146.618L229.468 146.636L228.27 151.728Z" />
<path d="M254.761 143.729L255.959 138.636C256.141 137.82 256.231 137.281 256.233 137.02C256.233 136.465 256.026 136.105 255.61 135.941C255.195 135.777 254.355 135.695 253.09 135.693L247.778 135.684C247.019 135.683 246.397 135.707 245.909 135.755C245.421 135.803 245.023 135.925 244.715 136.12C244.409 136.316 244.163 136.609 243.983 137.001C243.802 137.392 243.638 137.931 243.493 138.616L242.294 143.709C242.113 144.525 242.022 145.064 242.022 145.325C242.021 145.881 242.229 146.24 242.643 146.404C243.059 146.568 243.899 146.651 245.163 146.653L250.475 146.661C251.306 146.663 251.966 146.632 252.454 146.567C252.942 146.503 253.33 146.364 253.619 146.152C253.909 145.94 254.135 145.647 254.298 145.272C254.461 144.896 254.615 144.383 254.761 143.729ZM260.883 145.796C260.593 147.069 260.239 148.089 259.822 148.856C259.406 149.623 258.863 150.227 258.194 150.667C257.525 151.107 256.666 151.399 255.618 151.544C254.57 151.689 253.27 151.76 251.715 151.759L241.418 151.741C238.925 151.737 237.19 151.515 236.215 151.072C235.239 150.629 234.753 149.739 234.755 148.4C234.755 147.649 234.883 146.768 235.138 145.755L237.317 136.549C237.643 135.276 238.015 134.248 238.431 133.465C238.847 132.681 239.391 132.079 240.059 131.655C240.729 131.232 241.578 130.947 242.609 130.801C243.638 130.657 244.911 130.585 246.43 130.588L256.727 130.604C258.065 130.607 259.167 130.665 260.034 130.781C260.901 130.896 261.587 131.077 262.093 131.323C262.598 131.568 262.95 131.912 263.149 132.353C263.347 132.795 263.446 133.325 263.445 133.945C263.443 134.697 263.317 135.579 263.062 136.591L260.883 145.796Z" />
<path d="M304.923 151.836L298.311 151.825L301.416 138.701C301.561 138.049 301.633 137.51 301.635 137.085C301.635 136.53 301.428 136.17 301.012 136.006C300.597 135.842 299.757 135.76 298.492 135.758L295.891 135.754C295.06 135.753 294.4 135.784 293.912 135.849C293.424 135.913 293.036 136.052 292.747 136.264C292.457 136.474 292.231 136.777 292.068 137.168C291.904 137.56 291.751 138.066 291.605 138.686L288.5 151.809L281.833 151.798L285.265 137.06C285.267 136.504 285.059 136.145 284.644 135.981C284.228 135.817 283.388 135.734 282.124 135.732L279.521 135.728C278.691 135.726 278.031 135.758 277.543 135.822C277.056 135.886 276.667 136.025 276.377 136.237C276.088 136.449 275.861 136.75 275.699 137.142C275.536 137.534 275.381 138.04 275.236 138.66L272.131 151.784L265.464 151.773L270.476 130.618L277.143 130.629L276.544 133.273C277.775 131.512 279.437 130.633 281.533 130.636L285.815 130.644C288.2 130.646 289.853 130.829 290.773 131.19C291.695 131.55 292.245 132.205 292.425 133.152C292.787 132.401 293.492 131.798 294.541 131.342C295.589 130.888 296.709 130.661 297.903 130.662L302.184 130.669C304.677 130.673 306.42 130.897 307.413 131.338C308.407 131.781 308.903 132.672 308.901 134.012C308.9 134.632 308.755 135.513 308.464 136.656L304.923 151.836Z" />
<path d="M201.497 151.791L195.285 151.783L196.354 146.509L202.565 146.517L201.497 151.791Z" />
<path fill-rule="evenodd" clip-rule="evenodd" d="M197.347 0.714485L196.791 3.93848C186.325 5.31582 178.056 8.18248 173.949 18.6612C172.887 21.3745 171.237 26.1945 169.599 33.3198L158.717 80.2292C157.361 86.2052 156.695 90.0865 156.693 91.8998C156.685 105.525 182.199 102.286 189.56 96.7718C193.631 93.7212 199.807 86.8932 207.731 75.8385L261.384 0.751818L273.844 0.758481L273.803 86.9558C274.309 98.5052 283.228 102.21 292.275 102.218L315.012 102.229L315.011 106.37L234.131 106.321L235.293 102.34C243.917 101.02 254.479 96.6718 254.487 84.2292L254.524 22.8198L221.065 71.5052C211.955 84.4598 199.956 99.3238 224.476 102.333L223.283 106.314L112.891 106.252L113.905 102.857C131.547 102.226 135.577 94.4558 139.411 78.1998L151.725 25.9785C152.72 21.7625 153.336 18.4278 153.365 16.0185C153.551 1.13048 129.311 4.11715 121.196 10.1972C117.125 13.2465 110.949 20.0745 103.025 31.1292L49.3721 106.217L36.9107 106.21L36.9534 20.0118C36.4467 8.46248 27.5281 4.75715 18.4814 4.74915L0.713379 4.74115L0.714722 0.601152L76.6254 0.646481L75.4627 4.62915C66.8387 5.94781 56.2774 10.2971 56.2694 22.7398L56.2321 84.1478L89.6907 35.4638C98.8027 22.5078 110.8 7.64382 86.2787 4.63449L87.4734 0.653154L197.347 0.714485Z" />
</svg>
